<?xml version="1.0" encoding="UTF-8" standalone="no"?>
<!-- Created with Inkscape (http://www.inkscape.org/) -->

<svg
   width="13.291208mm"
   height="15.530089mm"
   viewBox="0 0 13.291208 15.530089"
   version="1.1"
   id="svg5"
   inkscape:version="1.2.2 (732a01da63, 2022-12-09)"
   sodipodi:docname="favicon.svg"
   xmlns:inkscape="http://www.inkscape.org/namespaces/inkscape"
   xmlns:sodipodi="http://sodipodi.sourceforge.net/DTD/sodipodi-0.dtd"
   xmlns="http://www.w3.org/2000/svg"
   xmlns:svg="http://www.w3.org/2000/svg">
  <sodipodi:namedview
     id="namedview7"
     pagecolor="#ffffff"
     bordercolor="#000000"
     borderopacity="0.25"
     inkscape:showpageshadow="2"
     inkscape:pageopacity="0.0"
     inkscape:pagecheckerboard="0"
     inkscape:deskcolor="#d1d1d1"
     inkscape:document-units="mm"
     showgrid="false"
     inkscape:zoom="1.1893044"
     inkscape:cx="99.638074"
     inkscape:cy="-15.555311"
     inkscape:window-width="1920"
     inkscape:window-height="1111"
     inkscape:window-x="-9"
     inkscape:window-y="-9"
     inkscape:window-maximized="1"
     inkscape:current-layer="layer1" />
  <defs
     id="defs2">
    <clipPath
       clipPathUnits="userSpaceOnUse"
       id="clipEmfPath1">
      <path
         d="M 0,0 H 57.597008 V 57.597008 H 0 Z"
         id="path132" />
    </clipPath>
    <clipPath
       clipPathUnits="userSpaceOnUse"
       id="clipEmfPath2">
      <path
         d="M 27.838554,25.438679 27.198587,25.59867 26.238637,25.918654 25.59867,26.078645 24.63872,26.398629 23.998754,26.558621 23.038803,26.878604 22.398837,27.038596 21.438886,27.358579 20.79892,27.518571 19.83897,27.838554 19.199003,27.998546 18.719028,28.158537 18.079061,28.318529 17.119111,28.638513 16.479144,28.798504 15.519194,29.118488 14.879227,29.278479 13.919277,29.598463 13.27931,29.758454 12.31936,30.078438 11.679393,30.238429 10.719443,30.558413 10.079476,30.718405 9.1195263,31.038388 8.4795596,31.19838 7.5196094,31.518363 6.8796427,31.678355 5.9196925,31.998338 5.2797258,32.15833 4.3197756,32.478313 3.6798089,32.638305 2.7198587,32.958288 2.079892,33.11828 1.5999169,33.278272 0.95995014,33.438263 0,33.758247 V 34.07823 H 0.15999169 V 34.558205 H 0.31998338 V 35.198172 H 0.47997507 V 35.678147 H 0.63996676 V 36.318114 H 0.79995845 V 36.798089 H 0.95995014 V 37.278064 H 1.1199418 V 37.918031 H 1.2799335 V 38.398006 H 1.4399252 V 38.877981 H 1.5999169 V 39.517947 H 1.7599086 V 39.997923 H 1.9199003 V 40.477898 H 2.079892 V 41.117864 H 2.2398837 V 41.597839 H 2.3998754 V 42.077814 H 2.559867 V 42.717781 H 2.7198587 V 43.197756 H 2.8798504 V 43.677731 H 3.0398421 V 44.317698 H 3.1998338 V 44.797673 H 3.3598255 V 45.277648 H 3.5198172 V 45.917615 H 3.6798089 V 46.39759 H 3.8398006 V 46.877565 H 3.9997923 V 47.517532 H 4.1597839 V 47.997507 H 4.3197756 V 48.637474 H 4.4797673 V 49.117449 H 4.639759 V 49.597424 H 4.7997507 V 50.237391 H 4.9597424 V 50.717366 H 5.1197341 V 51.197341 H 5.2797258 V 51.837308 H 5.4397175 V 52.317283 H 5.5997092 V 52.797258 H 5.7597008 V 53.437224 H 5.9196925 V 53.9172 H 6.0796842 V 54.397175 H 6.2396759 V 55.037141 H 6.3996676 V 55.517116 H 6.5596593 V 55.997092 H 6.719651 V 56.637058 H 6.8796427 V 57.117033 H 7.0396344 V 57.597008 H 7.1996261 V 58.236975 H 7.3596177 V 58.71695 H 7.5196094 V 59.356917 H 7.6796011 V 59.836892 H 7.8395928 V 60.316867 H 7.9995845 V 60.956834 H 8.1595762 V 61.436809 H 8.3195679 V 61.916784 H 8.4795596 L 8.9595346,62.076776 V 61.916784 L 9.9194848,61.596801 10.559452,61.436809 11.519402,61.116826 12.159368,60.956834 13.119319,60.636851 13.759285,60.476859 14.719235,60.156875 15.359202,59.996884 16.319152,59.6769 16.959119,59.516909 17.919069,59.196925 18.559036,59.036934 19.518986,58.71695 20.158953,58.556959 21.118903,58.236975 21.75887,58.076984 22.238845,57.916992 22.878812,57.757 23.838762,57.437017 24.478729,57.277025 25.438679,56.957042 26.078645,56.79705 27.038596,56.477067 27.678562,56.317075 28.638513,55.997092 29.278479,55.8371 30.238429,55.517116 30.878396,55.357125 31.838346,55.037141 32.478313,54.87715 33.438263,54.557166 34.07823,54.397175 35.03818,54.077191 35.678147,53.9172 36.158122,53.757208 H 36.638097 V 52.957249 H 36.478105 V 52.477274 H 36.318114 V 51.997299 H 36.158122 V 51.357333 H 35.99813 V 50.877357 H 35.838139 V 50.397382 H 35.678147 V 49.757416 H 35.518155 V 49.277441 H 35.358164 V 48.797465 H 35.198172 V 48.157499 H 35.03818 V 47.677524 H 34.878188 V 47.197549 H 34.718197 V 46.557582 H 34.558205 V 46.077607 H 34.398213 V 45.597632 H 34.238222 V 44.957665 H 34.07823 V 44.47769 H 33.918238 V 43.997715 H 33.758247 V 43.357748 H 33.598255 V 42.877773 H 33.438263 V 42.397798 H 33.278272 V 41.757831 H 33.11828 V 41.277856 H 32.958288 V 40.797881 H 32.798296 V 40.157914 H 32.638305 V 39.677939 H 32.478313 V 39.037972 H 32.318321 V 38.557997 H 32.15833 V 38.078022 H 31.998338 V 37.438055 H 31.838346 V 36.95808 H 31.678355 V 36.478105 H 31.518363 V 35.838139 H 31.358371 V 35.358164 H 31.19838 V 34.878188 H 31.038388 V 34.238222 H 30.878396 V 33.758247 H 30.718405 V 33.278272 H 30.558413 V 32.638305 H 30.398421 V 32.15833 H 30.238429 V 31.678355 H 30.078438 V 31.038388 H 29.918446 V 30.558413 H 29.758454 V 30.078438 H 29.598463 V 29.438471 H 29.438471 V 28.958496 H 29.278479 V 28.478521 H 29.118488 V 27.838554 H 28.958496 V 27.358579 H 28.798504 V 26.878604 H 28.638513 V 26.238637 H 28.478521 V 25.758662 H 28.318529 V 25.438679 Z"
         id="path135" />
    </clipPath>
    <clipPath
       clipPathUnits="userSpaceOnUse"
       id="clipEmfPath3">
      <path
         d="M 27.837891,25.599609 27.199219,25.757812 26.238281,26.078125 25.599609,26.238281 25.119141,26.398438 24.478516,26.558594 23.519531,26.878906 22.878906,27.039062 21.917969,27.359375 21.279297,27.519531 20.318359,27.837891 19.679688,27.998047 18.71875,28.318359 18.078125,28.478516 17.119141,28.798828 16.478516,28.958984 15.519531,29.279297 14.878906,29.4375 13.919922,29.757812 13.279297,29.917969 12.320312,30.238281 11.679688,30.398438 10.71875,30.71875 10.080078,30.878906 9.5996094,31.039062 8.9589844,31.199219 8,31.517578 7.359375,31.677734 6.4003906,31.998047 5.7597656,32.158203 4.7988281,32.478516 4.1601562,32.638672 3.1992188,32.958984 2.5605469,33.119141 1.5996094,33.4375 0.95898438,33.597656 0.48046875,33.757812 0.16015625,33.917969 V 34.078125 34.238281 H 0.3203125 V 34.558594 34.71875 H 0.48046875 V 35.197266 H 0.640625 V 35.677734 35.837891 H 0.80078125 V 36.318359 H 0.95898438 V 36.798828 H 1.1191406 V 37.277344 37.4375 H 1.2792969 V 37.917969 H 1.4394531 V 38.398438 H 1.5996094 V 38.878906 39.037109 H 1.7597656 V 39.517578 H 1.9199219 V 39.998047 H 2.0800781 V 40.478516 40.638672 H 2.2402344 V 41.117188 H 2.4003906 V 41.597656 H 2.5605469 V 42.078125 42.238281 H 2.7207031 V 42.71875 H 2.8789062 V 43.197266 H 3.0390625 V 43.677734 43.837891 H 3.1992188 V 44.318359 H 3.359375 V 44.796875 H 3.5195312 V 45.277344 45.4375 H 3.6796875 V 45.917969 H 3.8398438 V 46.398438 H 4 V 46.876953 47.037109 H 4.1601562 V 47.517578 H 4.3203125 V 47.998047 48.158203 H 4.4804688 V 48.636719 H 4.640625 V 49.117188 H 4.7988281 V 49.597656 49.757812 H 4.9589844 V 50.238281 H 5.1191406 V 50.716797 H 5.2792969 V 51.197266 51.357422 H 5.4394531 V 51.837891 H 5.5996094 V 52.316406 H 5.7597656 V 52.796875 52.957031 H 5.9199219 V 53.4375 H 6.0800781 V 53.917969 H 6.2402344 V 54.396484 54.556641 H 6.4003906 V 55.037109 H 6.5605469 V 55.517578 H 6.71875 V 55.998047 56.15625 H 6.8789062 V 56.636719 H 7.0390625 V 57.117188 H 7.1992188 V 57.597656 57.757812 H 7.359375 V 58.236328 H 7.5195312 V 58.716797 H 7.6796875 V 59.357422 H 7.8398438 V 59.835938 H 8 V 60.316406 H 8.1601562 V 60.957031 H 8.3203125 V 61.4375 H 8.4804688 V 61.916016 L 9.2792969,61.755859 10.240234,61.4375 10.878906,61.277344 11.839844,60.957031 12.478516,60.796875 13.439453,60.476562 14.080078,60.316406 15.039062,59.996094 15.679688,59.835938 16.638672,59.517578 17.279297,59.357422 18.238281,59.037109 18.878906,58.876953 19.839844,58.556641 20.478516,58.396484 21.439453,58.076172 22.078125,57.916016 22.558594,57.757812 23.199219,57.597656 24.158203,57.277344 24.798828,57.117188 25.757812,56.796875 26.398438,56.636719 27.359375,56.316406 27.998047,56.15625 28.958984,55.837891 29.597656,55.677734 30.558594,55.357422 31.199219,55.197266 32.158203,54.876953 32.798828,54.716797 33.757812,54.396484 34.398438,54.236328 35.357422,53.917969 35.998047,53.757812 36.478516,53.597656 36.638672,53.277344 H 36.478516 V 52.957031 52.796875 H 36.318359 V 52.476562 52.158203 H 36.158203 V 51.998047 51.677734 H 35.998047 V 51.357422 51.197266 H 35.837891 V 50.876953 50.556641 H 35.677734 V 50.396484 50.078125 H 35.517578 V 49.757812 49.4375 H 35.357422 V 49.277344 48.957031 H 35.197266 V 48.796875 48.476562 H 35.039062 V 48.158203 47.837891 H 34.878906 V 47.677734 47.357422 H 34.71875 V 47.197266 46.876953 H 34.558594 V 46.556641 46.238281 H 34.398438 V 46.078125 45.757812 H 34.238281 V 45.597656 45.277344 H 34.078125 V 44.957031 44.636719 H 33.917969 V 44.478516 44.158203 H 33.757812 V 43.998047 43.677734 H 33.597656 V 43.357422 43.037109 H 33.4375 V 42.876953 42.558594 H 33.277344 V 42.398438 42.078125 H 33.119141 V 41.757812 41.4375 H 32.958984 V 41.277344 40.957031 H 32.798828 V 40.798828 40.478516 H 32.638672 V 40.158203 39.837891 H 32.478516 V 39.677734 39.357422 H 32.318359 V 39.037109 38.878906 H 32.158203 V 38.558594 38.238281 H 31.998047 V 38.078125 37.757812 H 31.837891 V 37.4375 37.277344 H 31.677734 V 36.958984 36.638672 H 31.517578 V 36.478516 36.158203 H 31.357422 V 35.837891 35.517578 H 31.199219 V 35.357422 35.039062 H 31.039062 V 34.878906 34.558594 H 30.878906 V 34.238281 33.917969 H 30.71875 V 33.757812 33.4375 H 30.558594 V 33.277344 32.958984 H 30.398438 V 32.638672 32.318359 H 30.238281 V 32.158203 31.837891 H 30.078125 V 31.677734 31.357422 H 29.917969 V 31.039062 30.71875 H 29.757812 V 30.558594 30.238281 H 29.597656 V 30.078125 29.757812 H 29.4375 V 29.4375 29.119141 H 29.279297 V 28.958984 28.638672 H 29.119141 V 28.478516 28.158203 H 28.958984 V 27.837891 27.519531 H 28.798828 V 27.359375 27.039062 H 28.638672 V 26.878906 26.558594 H 28.478516 V 26.238281 25.917969 H 28.318359 V 25.757812 25.599609 Z"
         id="path138" />
    </clipPath>
    <pattern
       id="EMFhbasepattern"
       patternUnits="userSpaceOnUse"
       width="6"
       height="6"
       x="0"
       y="0" />
  </defs>
  <g
     inkscape:label="Ebene 1"
     inkscape:groupmode="layer"
     id="layer1"
     transform="translate(-83.83568,-101.72224)">
    <g
       clip-path="url(#clipEmfPath1)"
       id="g144"
       transform="matrix(0.26458333,0,0,0.26458333,86.481515,101.72224)" />
    <path
       style="fill:#404040;fill-opacity:1;fill-rule:nonzero;stroke:none"
       clip-path="url(#clipEmfPath1)"
       d="M -0.15999169,0 M 32.233621,28.799807 C 32.233621,30.77869 30.628174,32.384199 28.649367,32.384199 26.67056,32.384199 25.065113,30.77869 25.065113,28.799807 25.065113,26.820924 26.67056,25.215415 28.649367,25.215415 30.628174,25.215415 32.233621,26.820924 32.233621,28.799807 Z"
       id="path146"
       transform="matrix(0.26458333,0,0,0.26458333,83.83568,101.72224)" />
    <path
       style="fill:#404040;fill-opacity:1;fill-rule:nonzero;stroke:none"
       clip-path="url(#clipEmfPath1)"
       d="M 49.669522,16.851833 C 48.661451,15.134312 46.383956,14.312889 43.28507,14.312889 41.306263,14.312889 39.028769,14.648925 36.527258,15.320999 34.772467,9.0483125 31.934933,4.903859 28.649367,4.903859 25.401137,4.903859 22.488931,8.9736376 20.808812,15.208987 18.419309,14.611588 16.253823,14.238214 14.349688,14.238214 11.250802,14.238214 8.9733073,15.059637 7.965236,16.814496 6.285117,19.689477 8.4879396,24.281979 13.117601,28.949157 8.6746195,33.466985 6.6584768,37.910137 8.2639238,40.710444 9.2719951,42.427965 11.54949,43.286726 14.648376,43.286726 16.440503,43.286726 18.531317,42.988026 20.808812,42.427965 22.526267,48.663314 25.401137,52.695755 28.649367,52.695755 31.860261,52.695755 34.772467,48.663314 36.452586,42.427965 38.842089,43.025364 41.007575,43.398738 42.91171,43.398738 46.010596,43.398738 48.288091,42.539977 49.296162,40.822456 50.901609,38.02215 48.885466,33.578997 44.479821,29.061169 49.184154,24.319317 51.349641,19.726814 49.669522,16.851833 Z M 43.28507,16.702483 C 45.487893,16.702483 47.09334,17.225207 47.578707,18.04663 48.474771,19.614802 46.869324,23.273869 42.799702,27.30631 41.343599,25.999501 39.738152,24.692691 37.946025,23.423219 37.759345,21.406998 37.460658,19.428115 37.049962,17.598581 39.327456,17.001183 41.492943,16.702483 43.28507,16.702483 Z M 32.569645,35.035156 C 31.337557,35.744567 30.068134,36.416641 28.798711,37.014039 27.566624,36.416641 26.297201,35.744567 25.065113,35.035156 23.870362,34.325745 22.675611,33.578997 21.592867,32.869586 21.48086,31.562776 21.48086,30.255966 21.48086,28.799807 21.48086,27.492997 21.518195,26.260863 21.592867,24.99139 22.787619,24.169967 24.019706,23.385881 25.401137,22.601796 26.558552,21.929722 27.678632,21.332323 28.798711,20.809599 29.956126,21.332323 31.076206,21.929722 32.233621,22.601796 33.428372,23.311207 34.623123,24.020618 35.668531,24.767366 35.817875,26.074176 35.817875,27.380985 35.817875,28.799807 35.817875,30.293304 35.743203,31.749463 35.631195,33.130948 34.660459,33.765684 33.652388,34.363083 32.569645,35.035156 Z M 35.332507,36.155279 C 35.145827,37.312739 34.959147,38.432861 34.772467,39.440972 33.764396,39.104935 32.681653,38.731561 31.636245,38.246174 32.345629,37.910137 33.055012,37.462088 33.764396,37.051377 34.324435,36.752677 34.847139,36.453978 35.332507,36.155279 Z M 25.998513,38.246174 C 24.803761,38.731561 23.683682,39.142272 22.526267,39.515646 22.302251,38.358186 22.115571,37.163389 21.928891,35.931254 22.600939,36.341966 23.198314,36.71534 23.907698,37.126052 24.579746,37.462088 25.289129,37.910137 25.998513,38.246174 Z M 19.128693,31.07739 C 18.195294,30.367979 17.336566,29.658568 16.552511,28.949157 17.336566,28.202408 18.23263,27.492997 19.128693,26.783587 19.128693,27.45566 19.091357,28.090396 19.091357,28.799807 19.091357,29.583893 19.091357,30.367979 19.128693,31.07739 Z M 21.891555,21.929722 C 22.078235,20.622912 22.227579,19.390778 22.488931,18.19598 23.60901,18.532017 24.803761,19.017403 25.998513,19.50279 25.401137,19.801489 24.766425,20.137526 24.16905,20.5109 23.42233,20.996287 22.675611,21.481673 21.891555,21.929722 Z M 31.561573,19.50279 C 32.644317,19.017403 33.72706,18.644029 34.772467,18.307992 35.033819,19.390778 35.220499,20.5109 35.369843,21.705698 34.735131,21.294986 34.137756,20.921612 33.428372,20.5109 32.830996,20.212201 32.233621,19.838827 31.561573,19.50279 Z M 38.132705,26.559562 C 39.215448,27.380985 40.148848,28.165071 41.044911,28.986494 40.148848,29.77058 39.215448,30.592003 38.132705,31.376089 38.207377,30.554666 38.207377,29.695905 38.207377,28.874482 38.207377,28.053059 38.207377,27.268973 38.132705,26.559562 Z M 28.649367,7.2934538 C 30.441494,7.2934538 32.756324,10.467134 34.249764,15.955735 32.532309,16.553134 30.66551,17.299882 28.798711,18.121305 26.85724,17.225207 24.915769,16.441121 23.086307,15.843723 24.579746,10.429797 26.85724,7.2934538 28.649367,7.2934538 Z M 9.9813787,18.04663 C 10.541418,17.150532 12.072193,16.702483 14.312352,16.702483 16.029807,16.702483 18.008614,17.001183 20.136764,17.523907 19.726069,19.428115 19.427381,21.51901 19.240701,23.684581 17.597918,24.879378 16.104479,26.074176 14.760384,27.30631 10.765434,23.273869 9.0853153,19.614802 9.9813787,18.04663 Z M 14.648376,40.934468 C 12.445553,40.934468 10.840106,40.411744 10.354738,39.552984 9.458675,38.02215 11.026786,34.54977 14.835056,30.592003 16.216487,31.786801 17.709926,32.981598 19.315373,34.176395 19.502053,36.267291 19.800741,38.320849 20.211436,40.150383 18.23263,40.710444 16.328495,40.934468 14.648376,40.934468 Z M 28.649367,50.306161 C 26.85724,50.306161 24.579746,47.207155 23.086307,41.830566 24.915769,41.233168 26.85724,40.523757 28.798711,39.627659 30.66551,40.449082 32.457637,41.19583 34.175092,41.718554 32.681653,47.207155 30.441494,50.306161 28.649367,50.306161 Z M 47.280019,39.552984 C 46.71998,40.449082 45.189205,40.934468 42.986382,40.934468 41.231591,40.934468 39.215448,40.635769 37.124634,40.113045 37.460658,38.320849 37.759345,36.453978 37.946025,34.437757 39.738152,33.168285 41.343599,31.93615 42.799702,30.592003 46.607972,34.54977 48.176083,38.02215 47.280019,39.552984 Z"
       id="path148"
       transform="matrix(0.26458333,0,0,0.26458333,83.83568,101.72224)" />
    <path
       style="fill:#000000;fill-opacity:1;fill-rule:nonzero;stroke:none"
       clip-path="url(#clipEmfPath3)"
       d="M 9.9894812,58.506961 C 10.78944,58.936939 11.439406,58.546959 11.619396,58.206977 L 20.168952,43.727729 21.838866,39.687939 C 21.908862,39.317958 21.56888,38.817984 21.038907,38.527999 L 20.698925,38.338009 C 20.168952,38.058023 19.548985,38.018025 19.288998,38.31801 L 16.829126,41.917823 9.3595139,57.037038 C 9.1595243,57.447016 9.2195211,58.066984 9.9894812,58.506961 Z"
       id="path150"
       transform="matrix(0.26458333,0,0,0.26458333,83.83568,101.72224)" />
    <path
       style="fill:#000000;fill-opacity:1;fill-rule:nonzero;stroke:none"
       clip-path="url(#clipEmfPath3)"
       d="M 26.078645,35.748143 C 26.698613,34.538206 26.108644,33.50826 25.928653,32.378318 25.548673,30.448419 26.848605,29.388474 27.218586,29.118488 24.288738,28.058543 21.488884,30.328425 20.258948,32.608306 19.398992,34.198224 19.998961,36.218119 21.598878,37.088074 23.188796,37.948029 25.208691,37.338061 26.078645,35.748143 Z"
       id="path152"
       transform="matrix(0.26458333,0,0,0.26458333,83.83568,101.72224)" />
  </g>
</svg>
