<svg width="223" height="223" xmlns="http://www.w3.org/2000/svg" xmlns:xlink="http://www.w3.org/1999/xlink" overflow="hidden"><defs><linearGradient x1="64.0001" y1="45.5001" x2="64.0001" y2="106.5" gradientUnits="userSpaceOnUse" spreadMethod="reflect" id="fill0"><stop offset="0" stop-color="#F6F8FC"/><stop offset="0.65" stop-color="#F6F8FC"/><stop offset="1" stop-color="#E7E6E6"/></linearGradient></defs><g><rect x="0" y="0" width="223" height="223" fill="#FFFFFF"/><path d="M9.50005 43.6674C9.50005 24.7973 24.7973 9.50005 43.6674 9.50005L180.333 9.50005C199.203 9.50005 214.5 24.7973 214.5 43.6674L214.5 180.333C214.5 199.203 199.203 214.5 180.333 214.5L43.6674 214.5C24.7973 214.5 9.50005 199.203 9.50005 180.333Z" stroke="#000000" stroke-width="1.33333" stroke-miterlimit="8" fill="#F2F2F2" fill-rule="evenodd"/><path d="M126.548 98 140.387 98 140.387 105.5 175.613 105.5 175.613 98 189.452 98 189.452 175.5 126.548 175.5 126.548 98ZM158.126 88C160.139 88 161.774 89.75 161.774 91.75 161.774 93.875 160.139 95.5 158 95.5 155.861 95.5 154.226 93.875 154.226 91.75 154.226 89.625 155.861 88 158.126 88ZM119 95.5 119 178C119 180.75 121.265 183 124.032 183L191.968 183C194.735 183 197 180.75 197 178L197 95.5C197 92.75 194.735 90.5 191.968 90.5L170.581 90.5 170.581 88C170.581 85.25 168.316 83 165.548 83L150.452 83C147.684 83 145.419 85.25 145.419 88L145.419 90.5 124.032 90.5C121.265 90.5 119 92.75 119 95.5Z" fill="#404040" fill-rule="evenodd"/><path d="M134 115 156 115 156 120 134 120Z" fill="#404040" fill-rule="evenodd"/><path d="M134 130 156 130 156 135 134 135Z" fill="#404040" fill-rule="evenodd"/><path d="M134 145 156 145 156 150 134 150Z" fill="#404040" fill-rule="evenodd"/><path d="M134 160 156 160 156 165 134 165Z" fill="#404040" fill-rule="evenodd"/><path d="M164 117.343 166.664 114.815 169.963 117.944 178.336 110 181 112.528 169.963 123Z" fill="#404040" fill-rule="evenodd"/><path d="M164 162.343 166.664 159.815 169.963 162.944 178.336 155 181 157.528 169.963 168Z" fill="#404040" fill-rule="evenodd"/><path d="M170.529 147.554 167 150.713 169.588 153 173 149.842 176.412 153 179 150.713 175.471 147.554 179 144.287 176.412 142 173 145.158 169.588 142 167 144.287Z" fill="#404040" fill-rule="evenodd"/><path d="M167 129.287 170.529 132.554 167 135.713 169.588 138 173 134.842 176.412 138 179 135.713 175.471 132.554 179 129.287 176.412 127 173 130.158 169.588 127Z" fill="#404040" fill-rule="evenodd"/><path d="M35.5001 81.5001 78.1775 81.692" stroke="#404040" stroke-width="6.66667" stroke-miterlimit="8" fill="none" fill-rule="evenodd"/><path d="M35.3817 45.5001 59.5765 45.5001 67.282 54.0965 92.4287 54.0965C95.7818 54.0965 98.5001 57.1289 98.5001 60.8696L98.5001 99.7269C98.5001 103.468 95.7818 106.5 92.4287 106.5L35.5714 106.5C32.2183 106.5 29.5001 103.468 29.5001 99.7269L29.5001 60.8696 29.5602 60.7078 29.5602 51.9945C29.5602 48.4076 32.1665 45.5001 35.3817 45.5001Z" stroke="#404040" stroke-width="0.666667" stroke-miterlimit="8" fill="url(#fill0)" fill-rule="evenodd"/><g><g><g><path d="M67.4938 79C67.4938 80.4497 66.3185 81.625 64.8688 81.625 63.419 81.625 62.2438 80.4497 62.2438 79 62.2438 77.5503 63.419 76.375 64.8688 76.375 66.3185 76.375 67.4938 77.5503 67.4938 79Z" fill="#404040"/><path d="M80.2688 70.25C79.525 68.9812 77.8625 68.3688 75.5875 68.3688 74.1438 68.3688 72.4812 68.6312 70.6438 69.1125 69.375 64.5188 67.275 61.5 64.8688 61.5 62.5062 61.5 60.3625 64.475 59.1375 69.025 57.3875 68.5875 55.8125 68.325 54.4125 68.325 52.1375 68.325 50.475 68.9375 49.7313 70.2063 48.5062 72.3063 50.125 75.675 53.4938 79.0875 50.2562 82.4125 48.7687 85.65 49.95 87.7063 50.6937 88.975 52.3563 89.5875 54.6312 89.5875 55.9437 89.5875 57.475 89.3687 59.1375 88.975 60.4062 93.525 62.5062 96.5 64.8688 96.5 67.2312 96.5 69.375 93.525 70.6 88.975 72.35 89.4125 73.925 89.675 75.325 89.675 77.6 89.675 79.2625 89.0625 80.0063 87.7937 81.1875 85.7375 79.7 82.5 76.4625 79.175 79.9187 75.7188 81.4937 72.35 80.2688 70.25ZM75.5875 70.1188C77.2063 70.1188 78.3875 70.5125 78.7375 71.125 79.3938 72.2625 78.2125 74.9313 75.2375 77.9062 74.1875 76.9437 73.0063 75.9812 71.6937 75.0625 71.5625 73.575 71.3438 72.1312 71.0375 70.775 72.7 70.3375 74.275 70.1188 75.5875 70.1188ZM67.7562 83.55C66.8375 84.075 65.9187 84.5563 65 84.9938 64.0813 84.5563 63.1625 84.075 62.2438 83.55 61.3688 83.025 60.4938 82.5 59.7063 81.975 59.6188 81.0125 59.6188 80.05 59.6188 79 59.6188 78.0375 59.6625 77.1188 59.7063 76.2 60.5813 75.5875 61.5 75.0188 62.5062 74.45 63.3375 73.9688 64.1687 73.5312 65 73.1375 65.8313 73.5312 66.6625 73.9688 67.4938 74.45 68.3688 74.975 69.2438 75.5 70.0312 76.025 70.1188 76.9875 70.1188 77.95 70.1188 79 70.1188 80.0938 70.075 81.1438 69.9875 82.15 69.2875 82.6312 68.5437 83.0687 67.7562 83.55ZM69.7688 84.3812C69.6375 85.2125 69.5062 86.0437 69.375 86.7875 68.6312 86.525 67.8438 86.2625 67.0563 85.9125 67.5813 85.65 68.1062 85.3438 68.6312 85.0375 69.025 84.8187 69.4187 84.6 69.7688 84.3812ZM62.9437 85.9125C62.0687 86.2625 61.2375 86.5688 60.4062 86.8313 60.2312 86 60.1 85.125 59.9688 84.2063 60.45 84.5125 60.8875 84.775 61.4125 85.0813 61.8938 85.3438 62.4187 85.65 62.9437 85.9125ZM57.9125 80.6625C57.2125 80.1375 56.6 79.6125 56.0312 79.0875 56.6 78.5625 57.2562 78.0375 57.9125 77.5125 57.9125 77.9938 57.8688 78.475 57.8688 79 57.8688 79.5687 57.8688 80.1375 57.9125 80.6625ZM59.925 73.9688C60.0563 73.0062 60.1875 72.0875 60.3625 71.2125 61.1937 71.475 62.0687 71.825 62.9437 72.175 62.5062 72.3938 62.025 72.6562 61.5875 72.9187 61.0625 73.2688 60.4938 73.6188 59.925 73.9688ZM67.0125 72.175C67.8 71.825 68.5875 71.5625 69.375 71.3 69.55 72.0875 69.6813 72.9187 69.8125 73.7937 69.3313 73.4875 68.8938 73.225 68.3688 72.9187 67.9313 72.7 67.4938 72.4375 67.0125 72.175ZM71.825 77.3375C72.6125 77.95 73.3125 78.5188 73.9688 79.1312 73.3125 79.7 72.6125 80.3125 71.825 80.8812 71.8688 80.2688 71.8688 79.6562 71.8688 79.0437 71.8688 78.4313 71.8688 77.8625 71.825 77.3375ZM64.8688 63.25C66.1813 63.25 67.8875 65.5687 68.9812 69.5938 67.7125 70.0312 66.3562 70.5563 65 71.1687 63.5563 70.5125 62.1562 69.9437 60.8 69.5062 61.8938 65.525 63.5563 63.25 64.8688 63.25ZM51.2188 71.125C51.6125 70.4688 52.75 70.1188 54.3688 70.1188 55.6375 70.1188 57.0812 70.3375 58.6562 70.7312 58.35 72.1312 58.1312 73.6625 58 75.2375 56.775 76.1125 55.6813 76.9875 54.7188 77.9062 51.7875 74.9313 50.5625 72.2625 51.2188 71.125ZM54.6312 87.8813C53.0125 87.8813 51.8312 87.4875 51.4813 86.875 50.825 85.7375 51.9625 83.2 54.7625 80.3125 55.7687 81.1875 56.8625 82.0625 58.0437 82.9375 58.175 84.4688 58.3938 85.9563 58.7 87.3125 57.2562 87.7063 55.8563 87.8813 54.6312 87.8813ZM64.8688 94.75C63.5563 94.75 61.8938 92.475 60.8 88.5375 62.1562 88.1 63.5563 87.575 65 86.9187 66.3562 87.5312 67.6687 88.0562 68.9375 88.45 67.8438 92.475 66.1813 94.75 64.8688 94.75ZM78.5188 86.875C78.125 87.5312 76.9875 87.8813 75.3687 87.8813 74.1 87.8813 72.6125 87.6625 71.0813 87.2688 71.3438 85.9563 71.5625 84.6 71.6937 83.1125 73.0063 82.1937 74.1875 81.275 75.2375 80.3125 78.0375 83.2 79.175 85.7375 78.5188 86.875Z" fill="#404040"/></g></g></g><path d="M34 68.4629C34 67.655 34.655 67 35.4629 67L41.5371 67C42.345 67 43 67.655 43 68.4629L43 69.5371C43 70.345 42.345 71 41.5371 71L35.4629 71C34.655 71 34 70.345 34 69.5371Z" fill="#404040" fill-rule="evenodd"/><path d="M38 60.5C38 60.2239 38.2239 60 38.5 60L42.5 60C42.7761 60 43 60.2239 43 60.5L43 62.5C43 62.7761 42.7761 63 42.5 63L38.5 63C38.2239 63 38 62.7761 38 62.5Z" fill="#404040" fill-rule="evenodd"/><path d="M34 63.5C34 63.2239 34.2239 63 34.5 63L38.5 63C38.7761 63 39 63.2239 39 63.5L39 65.5C39 65.7761 38.7761 66 38.5 66L34.5 66C34.2239 66 34 65.7761 34 65.5Z" fill="#404040" fill-rule="evenodd"/><rect x="34" y="69" width="9" height="3" fill="#404040"/><path d="M39.874 72C41.0482 72 42 72.9518 42 74.126L42 82.874C42 84.0482 41.0482 85 39.874 85L37.126 85C35.9518 85 35 84.0482 35 82.874L35 74.126C35 72.9518 35.9518 72 37.126 72Z" fill="#404040" fill-rule="evenodd"/><path d="M36 80.7592C36 79.7876 36.7876 79 37.7592 79L39.2408 79C40.2124 79 41 79.7876 41 80.7592L41 81.2408C41 82.2124 40.2124 83 39.2408 83L37.7592 83C36.7876 83 36 82.2124 36 81.2408Z" fill="#F2F2F2" fill-rule="evenodd"/><path d="M39.1714 69C40.1813 69 41 69.8187 41 70.8286L41 74.1714C41 75.1813 40.1813 76 39.1714 76L37.8286 76C36.8187 76 36 75.1813 36 74.1714L36 70.8286C36 69.8187 36.8187 69 37.8286 69Z" fill="#404040" fill-rule="evenodd"/><path d="M38.9028 69C39.5088 69 40 69.4912 40 70.0972L40 74.9028C40 75.5088 39.5088 76 38.9028 76L38.0972 76C37.4912 76 37 75.5088 37 74.9028L37 70.0972C37 69.4912 37.4912 69 38.0972 69Z" fill="#404040" fill-rule="evenodd"/><path d="M38 54.6667C38 54.2985 38.2985 54 38.6667 54L42.3333 54C42.7015 54 43 54.2985 43 54.6667L43 57.3333C43 57.7015 42.7015 58 42.3333 58L38.6667 58C38.2985 58 38 57.7015 38 57.3333Z" fill="#404040" fill-rule="evenodd"/><path d="M34 57.5C34 57.2239 34.2239 57 34.5 57L38.5 57C38.7761 57 39 57.2239 39 57.5L39 59.5C39 59.7761 38.7761 60 38.5 60L34.5 60C34.2239 60 34 59.7761 34 59.5Z" fill="#404040" fill-rule="evenodd"/><path d="M38 48.6667C38 48.2985 38.2985 48 38.6667 48L42.3333 48C42.7015 48 43 48.2985 43 48.6667L43 51.3333C43 51.7015 42.7015 52 42.3333 52L38.6667 52C38.2985 52 38 51.7015 38 51.3333Z" fill="#404040" fill-rule="evenodd"/><path d="M34 51.6667C34 51.2985 34.2985 51 34.6667 51L38.3333 51C38.7015 51 39 51.2985 39 51.6667L39 54.3333C39 54.7015 38.7015 55 38.3333 55L34.6667 55C34.2985 55 34 54.7015 34 54.3333Z" fill="#404040" fill-rule="evenodd"/><g><g><g><path d="M114.625 119.9 101.083 106.358C99.2417 104.517 96.75 103.867 94.3667 104.3L89.6 99.5333C93.825 94.1167 96.3167 87.1833 96.3167 79.8167 96.3167 61.9417 81.6917 47.3167 63.8167 47.3167 45.9417 47.3167 31.3167 61.9417 31.3167 79.8167 31.3167 97.6917 45.9417 112.317 63.8167 112.317 71.1833 112.317 78.0083 109.825 83.5333 105.6L88.3 110.367C87.8667 112.75 88.5167 115.242 90.3583 117.083L103.9 130.625C105.417 132.142 107.367 132.9 109.317 132.9 111.267 132.9 113.217 132.142 114.733 130.625 117.55 127.592 117.55 122.825 114.625 119.9ZM63.7083 105.708C49.4083 105.708 37.7083 94.0083 37.7083 79.7083 37.7083 65.4083 49.4083 53.7083 63.7083 53.7083 78.0083 53.7083 89.7083 65.4083 89.7083 79.7083 89.7083 94.0083 78.0083 105.708 63.7083 105.708Z" fill="#404040"/></g></g></g></g></svg>