<svg width="223" height="223" xmlns="http://www.w3.org/2000/svg" xmlns:xlink="http://www.w3.org/1999/xlink" overflow="hidden"><defs><linearGradient x1="112" y1="38.5001" x2="112" y2="185.5" gradientUnits="userSpaceOnUse" spreadMethod="reflect" id="fill0"><stop offset="0" stop-color="#F6F8FC"/><stop offset="0.65" stop-color="#F6F8FC"/><stop offset="1" stop-color="#E7E6E6"/></linearGradient></defs><g><rect x="0" y="0" width="223" height="223" fill="#FFFFFF"/><path d="M9.50005 43.6674C9.50005 24.7973 24.7973 9.50005 43.6674 9.50005L180.333 9.50005C199.203 9.50005 214.5 24.7973 214.5 43.6674L214.5 180.333C214.5 199.203 199.203 214.5 180.333 214.5L43.6674 214.5C24.7973 214.5 9.50005 199.203 9.50005 180.333Z" stroke="#000000" stroke-width="1.33333" stroke-miterlimit="8" fill="#F2F2F2" fill-rule="evenodd"/><path d="M42.5001 126.5 146.878 126.969" stroke="#404040" stroke-width="6.66667" stroke-miterlimit="8" fill="none" fill-rule="evenodd"/><path d="M41.9058 38.5001 101.165 38.5001 120.038 59.216 181.63 59.216C189.842 59.216 196.5 66.5236 196.5 75.5381L196.5 169.178C196.5 178.192 189.842 185.5 181.63 185.5L42.3704 185.5C34.1577 185.5 27.5001 178.192 27.5001 169.178L27.5001 75.5381 27.6473 75.1482 27.6473 54.1506C27.6473 45.5069 34.0309 38.5001 41.9058 38.5001Z" stroke="#404040" stroke-width="0.666667" stroke-miterlimit="8" fill="url(#fill0)" fill-rule="evenodd"/><g><g><g><path d="M120.616 120.5C120.616 124.055 117.733 126.938 114.178 126.938 110.623 126.938 107.741 124.055 107.741 120.5 107.741 116.945 110.623 114.062 114.178 114.062 117.733 114.062 120.616 116.945 120.616 120.5Z" fill="#404040"/><path d="M151.945 99.0417C150.121 95.9302 146.044 94.4281 140.465 94.4281 136.924 94.4281 132.847 95.0719 128.341 96.2521 125.229 84.9865 120.079 77.5833 114.178 77.5833 108.384 77.5833 103.127 84.8792 100.123 96.0375 95.8313 94.9646 91.9688 94.3208 88.5354 94.3208 82.9563 94.3208 78.8792 95.8229 77.0552 98.9344 74.051 104.084 78.0208 112.346 86.2823 120.715 78.3427 128.869 74.6948 136.808 77.5917 141.851 79.4156 144.962 83.4927 146.465 89.0719 146.465 92.2906 146.465 96.0458 145.928 100.123 144.962 103.234 156.121 108.384 163.417 114.178 163.417 119.972 163.417 125.229 156.121 128.233 144.962 132.525 146.035 136.387 146.679 139.821 146.679 145.4 146.679 149.477 145.177 151.301 142.066 154.198 137.023 150.55 129.083 142.61 120.929 151.086 112.453 154.949 104.192 151.945 99.0417ZM140.465 98.7198C144.434 98.7198 147.331 99.6854 148.19 101.188 149.799 103.977 146.902 110.522 139.606 117.818 137.031 115.457 134.134 113.097 130.916 110.844 130.594 107.196 130.057 103.655 129.306 100.329 133.383 99.2562 137.246 98.7198 140.465 98.7198ZM121.259 131.658C119.006 132.946 116.753 134.126 114.5 135.199 112.247 134.126 109.994 132.946 107.741 131.658 105.595 130.371 103.449 129.083 101.518 127.796 101.303 125.435 101.303 123.075 101.303 120.5 101.303 118.14 101.41 115.886 101.518 113.633 103.664 112.131 105.917 110.736 108.384 109.342 110.423 108.161 112.461 107.089 114.5 106.123 116.539 107.089 118.577 108.161 120.616 109.342 122.761 110.629 124.907 111.917 126.839 113.204 127.053 115.565 127.053 117.925 127.053 120.5 127.053 123.182 126.946 125.757 126.731 128.225 125.015 129.405 123.191 130.478 121.259 131.658ZM126.195 133.697C125.873 135.735 125.551 137.774 125.229 139.598 123.405 138.954 121.474 138.31 119.543 137.452 120.83 136.808 122.118 136.057 123.405 135.306 124.371 134.77 125.336 134.233 126.195 133.697ZM109.457 137.452C107.311 138.31 105.273 139.061 103.234 139.705 102.805 137.667 102.483 135.521 102.161 133.268 103.342 134.019 104.415 134.663 105.702 135.414 106.882 136.057 108.17 136.808 109.457 137.452ZM97.1187 124.577C95.4021 123.29 93.9 122.002 92.5052 120.715 93.9 119.427 95.5094 118.14 97.1187 116.852 97.1187 118.032 97.0115 119.212 97.0115 120.5 97.0115 121.895 97.0115 123.29 97.1187 124.577ZM102.054 108.161C102.376 105.801 102.698 103.548 103.127 101.402 105.166 102.046 107.311 102.904 109.457 103.762 108.384 104.299 107.204 104.943 106.131 105.586 104.844 106.445 103.449 107.303 102.054 108.161ZM119.435 103.762C121.367 102.904 123.298 102.26 125.229 101.617 125.658 103.548 125.98 105.586 126.302 107.732 125.122 106.981 124.049 106.337 122.761 105.586 121.689 105.05 120.616 104.406 119.435 103.762ZM131.237 116.423C133.169 117.925 134.885 119.32 136.495 120.822 134.885 122.217 133.169 123.719 131.237 125.114 131.345 123.611 131.345 122.109 131.345 120.607 131.345 119.105 131.345 117.71 131.237 116.423ZM114.178 81.875C117.397 81.875 121.581 87.5615 124.264 97.4323 121.152 98.5052 117.826 99.7927 114.5 101.295 110.959 99.6854 107.526 98.2906 104.2 97.2177 106.882 87.4542 110.959 81.875 114.178 81.875ZM80.7031 101.188C81.6687 99.5781 84.4583 98.7198 88.4281 98.7198 91.5396 98.7198 95.0802 99.2562 98.9427 100.222 98.1917 103.655 97.6552 107.41 97.3333 111.273 94.3292 113.419 91.6469 115.565 89.2865 117.818 82.0979 110.522 79.0938 103.977 80.7031 101.188ZM89.0719 142.28C85.1021 142.28 82.2052 141.315 81.3469 139.812 79.7375 137.023 82.5271 130.8 89.3938 123.719 91.8615 125.865 94.5437 128.01 97.4406 130.156 97.7625 133.911 98.299 137.559 99.05 140.885 95.5094 141.851 92.076 142.28 89.0719 142.28ZM114.178 159.125C110.959 159.125 106.882 153.546 104.2 143.89 107.526 142.817 110.959 141.529 114.5 139.92 117.826 141.422 121.045 142.709 124.156 143.675 121.474 153.546 117.397 159.125 114.178 159.125ZM147.653 139.812C146.688 141.422 143.898 142.28 139.928 142.28 136.817 142.28 133.169 141.744 129.414 140.778 130.057 137.559 130.594 134.233 130.916 130.585 134.134 128.332 137.031 126.079 139.606 123.719 146.473 130.8 149.262 137.023 147.653 139.812Z" fill="#404040"/></g></g></g><path d="M39 94.2915C39 92.4736 40.4736 91 42.2915 91L57.7085 91C59.5264 91 61 92.4736 61 94.2915L61 96.7085C61 98.5264 59.5264 100 57.7085 100L42.2915 100C40.4736 100 39 98.5264 39 96.7085Z" fill="#404040" fill-rule="evenodd"/><path d="M49 75.3334C49 74.597 49.597 74 50.3334 74L59.6666 74C60.403 74 61 74.597 61 75.3334L61 80.6666C61 81.403 60.403 82 59.6666 82L50.3334 82C49.597 82 49 81.403 49 80.6666Z" fill="#404040" fill-rule="evenodd"/><path d="M38 82.3334C38 81.597 38.597 81 39.3334 81L48.6666 81C49.403 81 50 81.597 50 82.3334L50 87.6666C50 88.403 49.403 89 48.6666 89L39.3334 89C38.597 89 38 88.403 38 87.6666Z" fill="#404040" fill-rule="evenodd"/><rect x="39" y="95" width="22" height="7" fill="#404040"/><path d="M53.2295 104C56.4165 104 59 106.584 59 109.77L59 129.23C59 132.416 56.4165 135 53.2295 135L45.7705 135C42.5835 135 40 132.416 40 129.23L40 109.77C40 106.584 42.5835 104 45.7705 104Z" fill="#404040" fill-rule="evenodd"/><path d="M44 124.518C44 122.575 45.5752 121 47.5183 121L51.4817 121C53.4248 121 55 122.575 55 124.518L55 125.482C55 127.425 53.4248 129 51.4817 129L47.5183 129C45.5752 129 44 127.425 44 125.482Z" fill="#F2F2F2" fill-rule="evenodd"/><path d="M50.9771 94.9999C53.1989 94.9999 55.0001 96.8011 55.0001 99.0229L55.0001 108.977C55.0001 111.199 53.1989 113 50.9771 113L48.023 113C45.8012 113 44.0001 111.199 44.0001 108.977L44.0001 99.0229C44.0001 96.8011 45.8012 94.9999 48.023 94.9999Z" fill="#404040" fill-rule="evenodd"/><path d="M50.7086 95.9999C52.5264 95.9999 54.0001 97.4736 54.0001 99.2914L54.0001 108.708C54.0001 110.526 52.5264 112 50.7086 112L48.2915 112C46.4737 112 45.0001 110.526 45.0001 108.708L45.0001 99.2914C45.0001 97.4736 46.4737 95.9999 48.2915 95.9999Z" fill="#404040" fill-rule="evenodd"/><path d="M49 61.3334C49 60.597 49.597 60 50.3334 60L59.6666 60C60.403 60 61 60.597 61 61.3334L61 66.6666C61 67.403 60.403 68 59.6666 68L50.3334 68C49.597 68 49 67.403 49 66.6666Z" fill="#404040" fill-rule="evenodd"/><path d="M38 68.3334C38 67.597 38.597 67 39.3334 67L48.6666 67C49.403 67 50 67.597 50 68.3334L50 73.6666C50 74.403 49.403 75 48.6666 75L39.3334 75C38.597 75 38 74.403 38 73.6666Z" fill="#404040" fill-rule="evenodd"/><path d="M49 46.3334C49 45.597 49.597 45 50.3334 45L60.6666 45C61.403 45 62 45.597 62 46.3334L62 51.6666C62 52.403 61.403 53 60.6666 53L50.3334 53C49.597 53 49 52.403 49 51.6666Z" fill="#404040" fill-rule="evenodd"/><path d="M38 54.1667C38 53.5223 38.5223 53 39.1667 53L48.8333 53C49.4777 53 50 53.5223 50 54.1667L50 58.8333C50 59.4777 49.4777 60 48.8333 60L39.1667 60C38.5223 60 38 59.4777 38 58.8333Z" fill="#404040" fill-rule="evenodd"/></g></svg>