<svg width="226.88" height="226.88" xmlns="http://www.w3.org/2000/svg"><defs><clipPath clipPathUnits="userSpaceOnUse" id="a"><path d="M0 0h170.16v170.16H0Z" clip-rule="evenodd"/></clipPath><clipPath clipPathUnits="userSpaceOnUse" id="b"><path d="M0 0h170.16v170.16H0Z" clip-rule="evenodd"/></clipPath><clipPath clipPathUnits="userSpaceOnUse" id="c"><path d="M0 170.16h170.16V0H0" clip-rule="evenodd"/></clipPath><clipPath clipPathUnits="userSpaceOnUse" id="d"><path d="M0 170.16h170.16V0H0" clip-rule="evenodd"/></clipPath><clipPath clipPathUnits="userSpaceOnUse" id="e"><path d="M0 0h170.16v170.16H0Z" clip-rule="evenodd"/></clipPath><clipPath clipPathUnits="userSpaceOnUse" id="f"><path d="M0 170.16h170.16V0H0" clip-rule="evenodd"/></clipPath><clipPath clipPathUnits="userSpaceOnUse" id="g"><path d="M0 170.16h170.16V0H0" clip-rule="evenodd"/></clipPath><clipPath clipPathUnits="userSpaceOnUse" id="h"><path d="M0 170.16h170.16V0H0" clip-rule="evenodd"/></clipPath></defs><g clip-path="url(#a)" transform="matrix(1.33333 0 0 -1.33333 0 226.88)"><path d="M0 0h170.16v170.16H0Z" style="fill:#fff;fill-opacity:1;fill-rule:evenodd;stroke:none"/></g><path d="M1.44 140.84c0 15.4 12.483 27.88 27.881 27.88H140.84c15.4 0 27.88-12.48 27.88-27.88V29.321c0-15.398-12.48-27.881-27.88-27.881H29.321C13.923 1.44 1.44 13.923 1.44 29.321Z" style="fill:#f2f2f2;fill-opacity:1;fill-rule:evenodd;stroke:none" transform="matrix(1.33333 0 0 -1.33333 0 226.88)"/><path d="M1.44 140.84c0 15.4 12.483 27.88 27.881 27.88H140.84c15.4 0 27.88-12.48 27.88-27.88V29.321c0-15.398-12.48-27.881-27.88-27.881H29.321C13.923 1.44 1.44 13.923 1.44 29.321Z" style="fill:none;stroke:#000;stroke-width:1;stroke-linecap:butt;stroke-linejoin:miter;stroke-miterlimit:10;stroke-dasharray:none;stroke-opacity:1" transform="matrix(1.33333 0 0 -1.33333 0 226.88)"/><path d="M12.3 134.12a8.62 8.62 0 0 0 8.62 8.62H55.4a8.62 8.62 0 0 0 8.62-8.62V36.04a8.62 8.62 0 0 0-8.62-8.62H20.92a8.62 8.62 0 0 0-8.62 8.62z" style="fill:#fff;fill-opacity:1;fill-rule:evenodd;stroke:none" transform="matrix(1.33333 0 0 -1.33333 0 226.88)"/><path d="M12.3 134.12a8.62 8.62 0 0 0 8.62 8.62H55.4a8.62 8.62 0 0 0 8.62-8.62V36.04a8.62 8.62 0 0 0-8.62-8.62H20.92a8.62 8.62 0 0 0-8.62 8.62z" style="fill:none;stroke:#000;stroke-width:2.25;stroke-linecap:butt;stroke-linejoin:miter;stroke-miterlimit:10;stroke-dasharray:none;stroke-opacity:1" transform="matrix(1.33333 0 0 -1.33333 0 226.88)"/><g clip-path="url(#b)" transform="matrix(1.33333 0 0 -1.33333 0 226.88)"><text xml:space="preserve" transform="matrix(1 0 0 -1 27.648 47.856)" style="font-variant:normal;font-weight:400;font-size:36.024px;font-family:Calibri;-inkscape-font-specification:Calibri;writing-mode:lr-tb;fill:#000;fill-opacity:1;fill-rule:nonzero;stroke:none"><tspan x="0" y="0">A</tspan></text></g><path d="M30.3 116.46c0 9.34 3.573 16.92 7.98 16.92s7.98-7.58 7.98-16.92c0-9.34-3.573-16.92-7.98-16.92s-7.98 7.58-7.98 16.92z" style="fill:none;stroke:#000;stroke-width:2.25;stroke-linecap:butt;stroke-linejoin:miter;stroke-miterlimit:10;stroke-dasharray:none;stroke-opacity:1" transform="matrix(1.33333 0 0 -1.33333 0 226.88)"/><g clip-path="url(#c)" transform="matrix(1.33333 0 0 -1.33333 0 226.88)"><path d="M34.433 123.35c8.48 4.76 17.029 5.63 19.096 1.95 2.066-3.68-3.132-10.53-11.611-15.28-8.48-4.76-17.029-5.63-19.095-1.95-2.067 3.68 3.131 10.53 11.61 15.28z" style="fill:none;stroke:#000;stroke-width:2.25;stroke-linecap:butt;stroke-linejoin:miter;stroke-miterlimit:10;stroke-dasharray:none;stroke-opacity:1"/></g><g clip-path="url(#d)" transform="matrix(1.33333 0 0 -1.33333 0 226.88)"><path d="M41.985 122.86c8.323-5.02 13.3-12.03 11.116-15.64-2.183-3.62-10.7-2.47-19.023 2.55-8.323 5.03-13.3 12.03-11.116 15.65 2.183 3.61 10.7 2.47 19.023-2.56z" style="fill:none;stroke:#000;stroke-width:2.25;stroke-linecap:butt;stroke-linejoin:miter;stroke-miterlimit:10;stroke-dasharray:none;stroke-opacity:1"/></g><path d="M34.74 116.34c0 1.72 1.531 3.12 3.42 3.12s3.42-1.4 3.42-3.12c0-1.72-1.531-3.12-3.42-3.12s-3.42 1.4-3.42 3.12z" style="fill:#000;fill-opacity:1;fill-rule:evenodd;stroke:none" transform="matrix(1.33333 0 0 -1.33333 0 226.88)"/><path d="M34.74 116.34c0 1.72 1.531 3.12 3.42 3.12s3.42-1.4 3.42-3.12c0-1.72-1.531-3.12-3.42-3.12s-3.42 1.4-3.42 3.12z" style="fill:none;stroke:#000;stroke-width:2.25;stroke-linecap:butt;stroke-linejoin:miter;stroke-miterlimit:10;stroke-dasharray:none;stroke-opacity:1" transform="matrix(1.33333 0 0 -1.33333 0 226.88)"/><path d="M105.9 134.1c0 4.77 3.87 8.64 8.64 8.64h34.56c4.77 0 8.64-3.87 8.64-8.64V36.06a8.64 8.64 0 0 0-8.64-8.64h-34.56a8.64 8.64 0 0 0-8.64 8.64z" style="fill:#fff;fill-opacity:1;fill-rule:evenodd;stroke:none" transform="matrix(1.33333 0 0 -1.33333 0 226.88)"/><path d="M105.9 134.1c0 4.77 3.87 8.64 8.64 8.64h34.56c4.77 0 8.64-3.87 8.64-8.64V36.06a8.64 8.64 0 0 0-8.64-8.64h-34.56a8.64 8.64 0 0 0-8.64 8.64z" style="fill:none;stroke:#000;stroke-width:2.25;stroke-linecap:butt;stroke-linejoin:miter;stroke-miterlimit:10;stroke-dasharray:none;stroke-opacity:1" transform="matrix(1.33333 0 0 -1.33333 0 226.88)"/><g clip-path="url(#e)" transform="matrix(1.33333 0 0 -1.33333 0 226.88)"><text xml:space="preserve" transform="matrix(1 0 0 -1 122.11 47.856)" style="font-variant:normal;font-weight:400;font-size:36.024px;font-family:Calibri;-inkscape-font-specification:Calibri;writing-mode:lr-tb;fill:#000;fill-opacity:1;fill-rule:nonzero;stroke:none"><tspan x="0" y="0">B</tspan></text></g><path d="M124.02 116.46c0 9.34 3.55 16.92 7.92 16.92s7.92-7.58 7.92-16.92c0-9.34-3.55-16.92-7.92-16.92s-7.92 7.58-7.92 16.92z" style="fill:none;stroke:#000;stroke-width:2.25;stroke-linecap:butt;stroke-linejoin:miter;stroke-miterlimit:10;stroke-dasharray:none;stroke-opacity:1" transform="matrix(1.33333 0 0 -1.33333 0 226.88)"/><g clip-path="url(#f)" transform="matrix(1.33333 0 0 -1.33333 0 226.88)"><path d="M128.12 123.35c8.48 4.76 17.03 5.63 19.09 1.95 2.07-3.68-3.13-10.53-11.61-15.28-8.48-4.76-17.03-5.63-19.09-1.95-2.07 3.68 3.13 10.53 11.61 15.28z" style="fill:none;stroke:#000;stroke-width:2.25;stroke-linecap:butt;stroke-linejoin:miter;stroke-miterlimit:10;stroke-dasharray:none;stroke-opacity:1"/></g><g clip-path="url(#g)" transform="matrix(1.33333 0 0 -1.33333 0 226.88)"><path d="M135.67 122.86c8.32-5.02 13.3-12.03 11.12-15.64-2.19-3.62-10.71-2.47-19.03 2.55-8.32 5.03-13.3 12.03-11.11 15.65 2.18 3.61 10.7 2.47 19.02-2.56z" style="fill:none;stroke:#000;stroke-width:2.25;stroke-linecap:butt;stroke-linejoin:miter;stroke-miterlimit:10;stroke-dasharray:none;stroke-opacity:1"/></g><path d="M128.34 116.34c0 1.72 1.56 3.12 3.48 3.12s3.48-1.4 3.48-3.12c0-1.72-1.56-3.12-3.48-3.12s-3.48 1.4-3.48 3.12z" style="fill:#000;fill-opacity:1;fill-rule:evenodd;stroke:none" transform="matrix(1.33333 0 0 -1.33333 0 226.88)"/><path d="M128.34 116.34c0 1.72 1.56 3.12 3.48 3.12s3.48-1.4 3.48-3.12c0-1.72-1.56-3.12-3.48-3.12s-3.48 1.4-3.48 3.12z" style="fill:none;stroke:#000;stroke-width:2.25;stroke-linecap:butt;stroke-linejoin:miter;stroke-miterlimit:10;stroke-dasharray:none;stroke-opacity:1" transform="matrix(1.33333 0 0 -1.33333 0 226.88)"/><path d="m59.22 110.7 52.69-51.375" style="fill:none;stroke:#000;stroke-width:3;stroke-linecap:round;stroke-linejoin:round;stroke-miterlimit:10;stroke-dasharray:none;stroke-opacity:1" transform="matrix(1.33333 0 0 -1.33333 0 226.88)"/><g clip-path="url(#h)" transform="matrix(1.33333 0 0 -1.33333 0 226.88)"><path d="M111.07 111.42 59.7 58.728" style="fill:none;stroke:#000;stroke-width:3;stroke-linecap:round;stroke-linejoin:round;stroke-miterlimit:10;stroke-dasharray:none;stroke-opacity:1"/></g></svg>
