<svg width="702" height="378" xmlns="http://www.w3.org/2000/svg" xmlns:xlink="http://www.w3.org/1999/xlink" overflow="hidden"><defs><clipPath id="clip0"><rect x="0" y="0" width="702" height="378"/></clipPath><linearGradient x1="571.5" y1="121.913" x2="571.5" y2="255.818" gradientUnits="userSpaceOnUse" spreadMethod="reflect" id="fill1"><stop offset="0" stop-color="#F6F8FC"/><stop offset="0.65" stop-color="#F6F8FC"/><stop offset="1" stop-color="#E7E6E6"/></linearGradient><linearGradient x1="63.628" y1="169.977" x2="103.372" y2="60.8586" gradientUnits="userSpaceOnUse" spreadMethod="reflect" id="fill2"><stop offset="0" stop-color="#D6D6D6"/><stop offset="0.79" stop-color="#FFFFFF"/><stop offset="1" stop-color="#FFFFFF"/></linearGradient><linearGradient x1="55.628" y1="180.969" x2="95.3721" y2="71.8508" gradientUnits="userSpaceOnUse" spreadMethod="reflect" id="fill3"><stop offset="0" stop-color="#D6D6D6"/><stop offset="0.79" stop-color="#FFFFFF"/><stop offset="1" stop-color="#FFFFFF"/></linearGradient><linearGradient x1="45.628" y1="189.963" x2="85.3721" y2="80.8444" gradientUnits="userSpaceOnUse" spreadMethod="reflect" id="fill4"><stop offset="0" stop-color="#D6D6D6"/><stop offset="0.79" stop-color="#FFFFFF"/><stop offset="1" stop-color="#FFFFFF"/></linearGradient><linearGradient x1="45.9672" y1="0" x2="45.9672" y2="218.844" gradientUnits="userSpaceOnUse" spreadMethod="reflect" id="fill5"><stop offset="0" stop-color="#F6F8FC"/><stop offset="0.65" stop-color="#F6F8FC"/><stop offset="1" stop-color="#E7E6E6"/></linearGradient><linearGradient x1="45.9672" y1="0" x2="45.9672" y2="219.843" gradientUnits="userSpaceOnUse" spreadMethod="reflect" id="fill6"><stop offset="0" stop-color="#F6F8FC"/><stop offset="0.65" stop-color="#F6F8FC"/><stop offset="1" stop-color="#E7E6E6"/></linearGradient><linearGradient x1="45.9672" y1="0" x2="45.9672" y2="218.844" gradientUnits="userSpaceOnUse" spreadMethod="reflect" id="fill7"><stop offset="0" stop-color="#F6F8FC"/><stop offset="0.65" stop-color="#F6F8FC"/><stop offset="1" stop-color="#E7E6E6"/></linearGradient><linearGradient x1="350.603" y1="168.425" x2="387.397" y2="67.407" gradientUnits="userSpaceOnUse" spreadMethod="reflect" id="fill8"><stop offset="0" stop-color="#D6D6D6"/><stop offset="0.79" stop-color="#FFFFFF"/><stop offset="1" stop-color="#FFFFFF"/></linearGradient><linearGradient x1="350.603" y1="168.425" x2="387.397" y2="67.407" gradientUnits="userSpaceOnUse" spreadMethod="reflect" id="fill9"><stop offset="0" stop-color="#ACACAC"/><stop offset="0.79" stop-color="#CDCDCD"/><stop offset="1" stop-color="#CDCDCD"/></linearGradient><linearGradient x1="351.979" y1="155.931" x2="364.021" y2="122.87" gradientUnits="userSpaceOnUse" spreadMethod="reflect" id="fill10"><stop offset="0" stop-color="#D6D6D6"/><stop offset="0.79" stop-color="#FFFFFF"/><stop offset="1" stop-color="#FFFFFF"/></linearGradient><linearGradient x1="351.979" y1="112.961" x2="364.021" y2="79.901" gradientUnits="userSpaceOnUse" spreadMethod="reflect" id="fill11"><stop offset="0" stop-color="#D6D6D6"/><stop offset="0.79" stop-color="#FFFFFF"/><stop offset="1" stop-color="#FFFFFF"/></linearGradient><linearGradient x1="342.442" y1="176.361" x2="379.558" y2="74.4605" gradientUnits="userSpaceOnUse" spreadMethod="reflect" id="fill12"><stop offset="0" stop-color="#D6D6D6"/><stop offset="0.79" stop-color="#FFFFFF"/><stop offset="1" stop-color="#FFFFFF"/></linearGradient><linearGradient x1="342.442" y1="176.361" x2="379.558" y2="74.4605" gradientUnits="userSpaceOnUse" spreadMethod="reflect" id="fill13"><stop offset="0" stop-color="#ACACAC"/><stop offset="0.79" stop-color="#CDCDCD"/><stop offset="1" stop-color="#CDCDCD"/></linearGradient><linearGradient x1="343.819" y1="163.867" x2="356.182" y2="129.924" gradientUnits="userSpaceOnUse" spreadMethod="reflect" id="fill14"><stop offset="0" stop-color="#D6D6D6"/><stop offset="0.79" stop-color="#FFFFFF"/><stop offset="1" stop-color="#FFFFFF"/></linearGradient><linearGradient x1="343.819" y1="120.897" x2="356.182" y2="86.9545" gradientUnits="userSpaceOnUse" spreadMethod="reflect" id="fill15"><stop offset="0" stop-color="#D6D6D6"/><stop offset="0.79" stop-color="#FFFFFF"/><stop offset="1" stop-color="#FFFFFF"/></linearGradient><linearGradient x1="334.442" y1="184.355" x2="371.557" y2="82.4549" gradientUnits="userSpaceOnUse" spreadMethod="reflect" id="fill16"><stop offset="0" stop-color="#D6D6D6"/><stop offset="0.79" stop-color="#FFFFFF"/><stop offset="1" stop-color="#FFFFFF"/></linearGradient><linearGradient x1="334.442" y1="184.355" x2="371.557" y2="82.4549" gradientUnits="userSpaceOnUse" spreadMethod="reflect" id="fill17"><stop offset="0" stop-color="#ACACAC"/><stop offset="0.79" stop-color="#CDCDCD"/><stop offset="1" stop-color="#CDCDCD"/></linearGradient><linearGradient x1="335.26" y1="172.022" x2="347.74" y2="137.758" gradientUnits="userSpaceOnUse" spreadMethod="reflect" id="fill18"><stop offset="0" stop-color="#D6D6D6"/><stop offset="0.79" stop-color="#FFFFFF"/><stop offset="1" stop-color="#FFFFFF"/></linearGradient><linearGradient x1="335.26" y1="129.052" x2="347.74" y2="94.7881" gradientUnits="userSpaceOnUse" spreadMethod="reflect" id="fill19"><stop offset="0" stop-color="#D6D6D6"/><stop offset="0.79" stop-color="#FFFFFF"/><stop offset="1" stop-color="#FFFFFF"/></linearGradient><linearGradient x1="329.878" y1="377.38" x2="379.122" y2="242.179" gradientUnits="userSpaceOnUse" spreadMethod="reflect" id="fill20"><stop offset="0" stop-color="#D6D6D6"/><stop offset="0.79" stop-color="#FFFFFF"/><stop offset="1" stop-color="#FFFFFF"/></linearGradient><linearGradient x1="216.5" y1="83.4405" x2="216.5" y2="153.391" gradientUnits="userSpaceOnUse" spreadMethod="reflect" id="fill21"><stop offset="0" stop-color="#F6F8FC"/><stop offset="0.65" stop-color="#F6F8FC"/><stop offset="1" stop-color="#E7E6E6"/></linearGradient><linearGradient x1="212.5" y1="90.4356" x2="212.5" y2="161.385" gradientUnits="userSpaceOnUse" spreadMethod="reflect" id="fill22"><stop offset="0" stop-color="#F6F8FC"/><stop offset="0.65" stop-color="#F6F8FC"/><stop offset="1" stop-color="#E7E6E6"/></linearGradient><linearGradient x1="207.5" y1="97.4305" x2="207.5" y2="167.381" gradientUnits="userSpaceOnUse" spreadMethod="reflect" id="fill23"><stop offset="0" stop-color="#F6F8FC"/><stop offset="0.65" stop-color="#F6F8FC"/><stop offset="1" stop-color="#E7E6E6"/></linearGradient></defs><g clip-path="url(#clip0)"><rect x="0" y="0" width="702" height="377.731" fill="#FFFFFF"/><path d="M611 98.5547C640.333 66.4942 669.667 130.615 699 98.5547L699 156.264C669.667 188.324 640.333 124.203 611 156.264Z" stroke="#404040" stroke-width="2.00143" stroke-miterlimit="8" fill="#F2F2F2" fill-rule="evenodd"/><text fill="#404040" font-family="Aptos,Aptos_MSFontService,sans-serif" font-weight="400" font-size="24" transform="matrix(1 0 0 0.999288 622.099 135)">V1.2.0</text><path d="M451 8.99354 501 142.595 501 235.136 451 368.737Z" stroke="#404040" stroke-width="2" stroke-miterlimit="8" stroke-dasharray="16 6" fill="#FFFFFF" fill-rule="evenodd"/><path d="M508.5 202.356 602.943 202.78" stroke="#404040" stroke-width="6.67142" stroke-miterlimit="8" fill="none" fill-rule="evenodd"/><path d="M508.042 121.913 561.691 121.913 578.777 140.784 634.537 140.784C641.973 140.784 648 147.44 648 155.652L648 240.95C648 249.161 641.973 255.818 634.537 255.818L508.463 255.818C501.027 255.818 495 249.161 495 240.95L495 155.652 495.133 155.296 495.133 136.169C495.133 128.296 500.913 121.913 508.042 121.913Z" stroke="#404040" stroke-width="2.00143" stroke-miterlimit="8" fill="url(#fill1)" fill-rule="evenodd"/><g><g><g><path d="M51.9848 46.4669C51.9848 49.6747 49.3843 52.2752 46.1765 52.2752 42.9686 52.2752 40.3681 49.6747 40.3681 46.4669 40.3681 43.259 42.9686 40.6585 46.1765 40.6585 49.3843 40.6585 51.9848 43.259 51.9848 46.4669Z" fill="#404040" transform="matrix(1.00071 0 0 1 528 149.893)"/><path d="M80.2522 27.1057C78.6065 24.2983 74.9278 22.943 69.8939 22.943 66.6993 22.943 63.0207 23.5239 58.9549 24.5887 56.1475 14.4241 51.5008 7.74448 46.1765 7.74448 40.9489 7.74448 36.2054 14.3273 33.4949 24.3951 29.6226 23.4271 26.1376 22.8462 23.0398 22.8462 18.0059 22.8462 14.3273 24.2015 12.6816 27.0089 9.97102 31.6556 13.5528 39.1096 21.0069 46.6605 13.8433 54.0177 10.5519 61.1814 13.1656 65.7313 14.8113 68.5387 18.4899 69.8939 23.5239 69.8939 26.428 69.8939 29.8162 69.4099 33.4949 68.5387 36.3022 78.6065 40.9489 85.1893 46.1765 85.1893 51.404 85.1893 56.1475 78.6065 58.858 68.5387 62.7303 69.5067 66.2153 70.0875 69.3131 70.0875 74.347 70.0875 78.0256 68.7323 79.6713 65.9249 82.2851 61.375 78.9937 54.2114 71.83 46.8541 79.4777 39.2064 82.9627 31.7524 80.2522 27.1057ZM69.8939 26.8153C73.4758 26.8153 76.0895 27.6865 76.864 29.0418 78.3161 31.5588 75.7023 37.4639 69.1195 44.0467 66.7961 41.917 64.1824 39.7873 61.2782 37.7543 60.9878 34.4629 60.5037 31.2683 59.8261 28.2674 63.5047 27.2993 66.9897 26.8153 69.8939 26.8153ZM52.5657 56.5347C50.5327 57.6964 48.4998 58.7612 46.4669 59.7293 44.434 58.7612 42.401 57.6964 40.3681 56.5347 38.432 55.373 36.4959 54.2114 34.7534 53.0497 34.5597 50.92 34.5597 48.7902 34.5597 46.4669 34.5597 44.3371 34.6565 42.3042 34.7534 40.2713 36.6895 38.916 38.7224 37.6575 40.9489 36.3991 42.7882 35.3342 44.6276 34.3661 46.4669 33.4949 48.3062 34.3661 50.1455 35.3342 51.9848 36.3991 53.9209 37.5607 55.8571 38.7224 57.5996 39.8841 57.7932 42.0138 57.7932 44.1435 57.7932 46.4669 57.7932 48.887 57.6964 51.2104 57.5028 53.4369 55.9539 54.5018 54.3082 55.4698 52.5657 56.5347ZM57.0187 58.374C56.7283 60.2133 56.4379 62.0526 56.1475 63.6983 54.5018 63.1175 52.7593 62.5367 51.0168 61.7622 52.1784 61.1814 53.3401 60.5037 54.5018 59.8261 55.373 59.3421 56.2443 58.858 57.0187 58.374ZM41.917 61.7622C39.9809 62.5367 38.1416 63.2143 36.3022 63.7952 35.915 61.9558 35.6246 60.0197 35.3342 57.9868 36.3991 58.6644 37.3671 59.2453 38.5288 59.9229 39.5937 60.5037 40.7553 61.1814 41.917 61.7622ZM30.7843 50.1455C29.2354 48.9838 27.8801 47.8222 26.6216 46.6605 27.8801 45.4988 29.3322 44.3371 30.7843 43.1755 30.7843 44.2403 30.6875 45.3052 30.6875 46.4669 30.6875 47.7254 30.6875 48.9838 30.7843 50.1455ZM35.2374 35.3342C35.5278 33.2045 35.8182 31.1715 36.2054 29.2354 38.0448 29.8162 39.9809 30.5907 41.917 31.3651 40.9489 31.8492 39.8841 32.43 38.916 33.0108 37.7543 33.7853 36.4959 34.5597 35.2374 35.3342ZM50.92 31.3651C52.6625 30.5907 54.405 30.0099 56.1475 29.429 56.5347 31.1715 56.8251 33.0108 57.1155 34.947 56.0507 34.2693 55.0826 33.6885 53.9209 33.0108 52.9529 32.5268 51.9848 31.946 50.92 31.3651ZM61.5686 42.7882C63.3111 44.1435 64.86 45.402 66.3121 46.7573 64.86 48.0158 63.3111 49.3711 61.5686 50.6295 61.6654 49.2743 61.6654 47.919 61.6654 46.5637 61.6654 45.2084 61.6654 43.9499 61.5686 42.7882ZM46.1765 11.6167C49.0806 11.6167 52.8561 16.7474 55.2762 25.6536 52.4688 26.6216 49.4679 27.7833 46.4669 29.1386 43.2723 27.6865 40.1745 26.428 37.1735 25.46 39.5937 16.6506 43.2723 11.6167 46.1765 11.6167ZM15.973 29.0418C16.8442 27.5897 19.3612 26.8153 22.943 26.8153 25.7504 26.8153 28.945 27.2993 32.43 28.1705 31.7524 31.2683 31.2683 34.6565 30.9779 38.1416 28.2674 40.0777 25.8472 42.0138 23.7175 44.0467 17.2315 37.4639 14.5209 31.5588 15.973 29.0418ZM23.5239 66.1185C19.942 66.1185 17.3283 65.2472 16.5538 63.892 15.1017 61.375 17.6187 55.7603 23.8143 49.3711 26.0408 51.3072 28.461 53.2433 31.0747 55.1794 31.3651 58.5676 31.8492 61.859 32.5268 64.86 29.3322 65.7313 26.2344 66.1185 23.5239 66.1185ZM46.1765 81.317C43.2723 81.317 39.5937 76.2831 37.1735 67.5706 40.1745 66.6025 43.2723 65.4408 46.4669 63.9888 49.4679 65.344 52.372 66.5057 55.1794 67.377 52.7593 76.2831 49.0806 81.317 46.1765 81.317ZM76.3799 63.892C75.5087 65.344 72.9917 66.1185 69.4099 66.1185 66.6025 66.1185 63.3111 65.6345 59.9229 64.7632 60.5037 61.859 60.9878 58.858 61.2782 55.5666 64.1824 53.5337 66.7961 51.5008 69.1195 49.3711 75.3151 55.7603 77.832 61.375 76.3799 63.892Z" fill="#404040" transform="matrix(1.00071 0 0 1 528 149.893)"/></g></g></g><path d="M505 172.803C505 171.188 506.31 169.879 507.926 169.879L523.074 169.879C524.69 169.879 526 171.188 526 172.803L526 174.95C526 176.564 524.69 177.873 523.074 177.873L507.926 177.873C506.31 177.873 505 176.564 505 174.95Z" fill="#404040" fill-rule="evenodd"/><path d="M515 156.055C515 155.412 515.522 154.89 516.167 154.89L524.833 154.89C525.478 154.89 526 155.412 526 156.055L526 160.719C526 161.363 525.478 161.885 524.833 161.885L516.167 161.885C515.522 161.885 515 161.363 515 160.719Z" fill="#404040" fill-rule="evenodd"/><path d="M505 163.05C505 162.407 505.522 161.885 506.167 161.885L514.833 161.885C515.478 161.885 516 162.407 516 163.05L516 167.714C516 168.358 515.478 168.88 514.833 168.88L506.167 168.88C505.522 168.88 505 168.358 505 167.714Z" fill="#404040" fill-rule="evenodd"/><rect x="505" y="173.876" width="21.0001" height="5.9957" fill="#404040"/><path d="M518.141 181.87C520.824 181.87 523 184.044 523 186.726L523 204.994C523 207.676 520.824 209.85 518.141 209.85L511.859 209.85C509.176 209.85 507 207.676 507 204.994L507 186.726C507 184.044 509.176 181.87 511.859 181.87Z" fill="#404040" fill-rule="evenodd"/><path d="M511 200.376C511 198.434 512.575 196.86 514.518 196.86L516.482 196.86C518.425 196.86 520 198.434 520 200.376L520 201.338C520 203.28 518.425 204.854 516.482 204.854L514.518 204.854C512.575 204.854 511 203.28 511 201.338Z" fill="#F2F2F2" fill-rule="evenodd"/><path d="M516.343 173.876C518.363 173.876 520 175.512 520 177.531L520 186.21C520 188.228 518.363 189.865 516.343 189.865L513.657 189.865C511.637 189.865 510 188.228 510 186.21L510 177.531C510 175.512 511.637 173.876 513.657 173.876Z" fill="#404040" fill-rule="evenodd"/><path d="M516.074 174.875C517.69 174.875 519 176.184 519 177.799L519 185.942C519 187.556 517.69 188.865 516.074 188.865L513.926 188.865C512.31 188.865 511 187.556 511 185.942L511 177.799C511 176.184 512.31 174.875 513.926 174.875Z" fill="#404040" fill-rule="evenodd"/><path d="M515 143.065C515 142.421 515.522 141.899 516.167 141.899L524.833 141.899C525.478 141.899 526 142.421 526 143.065L526 147.728C526 148.372 525.478 148.894 524.833 148.894L516.167 148.894C515.522 148.894 515 148.372 515 147.728Z" fill="#404040" fill-rule="evenodd"/><path d="M505 150.06C505 149.416 505.522 148.894 506.167 148.894L514.833 148.894C515.478 148.894 516 149.416 516 150.06L516 154.723C516 155.367 515.478 155.889 514.833 155.889L506.167 155.889C505.522 155.889 505 155.367 505 154.723Z" fill="#404040" fill-rule="evenodd"/><path d="M515 130.074C515 129.43 515.522 128.908 516.167 128.908L524.833 128.908C525.478 128.908 526 129.43 526 130.074L526 134.737C526 135.381 525.478 135.903 524.833 135.903L516.167 135.903C515.522 135.903 515 135.381 515 134.737Z" fill="#404040" fill-rule="evenodd"/><path d="M505 137.069C505 136.425 505.522 135.903 506.167 135.903L514.833 135.903C515.478 135.903 516 136.425 516 137.069L516 141.732C516 142.376 515.478 142.898 514.833 142.898L506.167 142.898C505.522 142.898 505 142.376 505 141.732Z" fill="#404040" fill-rule="evenodd"/><rect x="1.99995" y="1.99853" width="452" height="372.734" stroke="#404040" stroke-width="2.00143" stroke-miterlimit="8" stroke-dasharray="16.0114 6.00428" fill="#F2F2F2"/><path d="M45.5 67.452 108.833 67.452 121.5 80.1098 121.5 163.384 45.5 163.384Z" stroke="#404040" stroke-width="0.667142" stroke-miterlimit="8" fill="url(#fill2)" fill-rule="evenodd"/><path d="M0 0 58.5086 0.000104987" stroke="#404040" stroke-width="1.33333" stroke-miterlimit="8" fill="none" fill-rule="evenodd" transform="matrix(-1.00071 0 0 1 113.05 146.396)"/><path d="M0 0 58.5086 0.000104987" stroke="#404040" stroke-width="1.33333" stroke-miterlimit="8" fill="none" fill-rule="evenodd" transform="matrix(-1.00071 0 0 1 113.05 154.39)"/><path d="M0 0 58.5086 0.000104987" stroke="#404040" stroke-width="1.33333" stroke-miterlimit="8" fill="none" fill-rule="evenodd" transform="matrix(-1.00071 0 0 1 113.05 131.406)"/><path d="M0 0 58.5086 0.000104987" stroke="#404040" stroke-width="1.33333" stroke-miterlimit="8" fill="none" fill-rule="evenodd" transform="matrix(-1.00071 0 0 1 113.05 139.401)"/><path d="M0 0 58.5086 0.000104987" stroke="#404040" stroke-width="1.33333" stroke-miterlimit="8" fill="none" fill-rule="evenodd" transform="matrix(-1.00071 0 0 1 113.05 123.412)"/><path d="M37.5 78.4441 100.833 78.4441 113.5 91.102 113.5 174.376 37.5 174.376Z" stroke="#404040" stroke-width="0.667142" stroke-miterlimit="8" fill="url(#fill3)" fill-rule="evenodd"/><path d="M0 0 58.5086 0.000104987" stroke="#404040" stroke-width="1.33333" stroke-miterlimit="8" fill="none" fill-rule="evenodd" transform="matrix(-1.00071 0 0 1 105.05 156.389)"/><path d="M0 0 58.5086 0.000104987" stroke="#404040" stroke-width="1.33333" stroke-miterlimit="8" fill="none" fill-rule="evenodd" transform="matrix(-1.00071 0 0 1 105.05 164.383)"/><path d="M0 0 58.5086 0.000104987" stroke="#404040" stroke-width="1.33333" stroke-miterlimit="8" fill="none" fill-rule="evenodd" transform="matrix(-1.00071 0 0 1 105.05 141.399)"/><path d="M0 0 58.5086 0.000104987" stroke="#404040" stroke-width="1.33333" stroke-miterlimit="8" fill="none" fill-rule="evenodd" transform="matrix(-1.00071 0 0 1 105.05 149.393)"/><path d="M0 0 58.5086 0.000104987" stroke="#404040" stroke-width="1.33333" stroke-miterlimit="8" fill="none" fill-rule="evenodd" transform="matrix(-1.00071 0 0 1 105.05 133.405)"/><g><g><g><path d="M26.85 24C26.85 25.6568 25.5068 27 23.85 27 22.1931 27 20.85 25.6568 20.85 24 20.85 22.3431 22.1931 21 23.85 21 25.5068 21 26.85 22.3431 26.85 24Z" transform="matrix(1 0 0 1.02011 51 81.9416)"/><path d="M41.45 14C40.6 12.55 38.7 11.85 36.1 11.85 34.45 11.85 32.55 12.15 30.45 12.7 29 7.44999 26.6 4 23.85 4 21.15 4 18.7 7.39999 17.3 12.6 15.3 12.1 13.5 11.8 11.9 11.8 9.29999 11.8 7.39999 12.5 6.54999 13.95 5.15 16.35 6.99999 20.2 10.85 24.1 7.14999 27.9 5.45 31.6 6.79999 33.95 7.64999 35.4 9.54999 36.1 12.15 36.1 13.65 36.1 15.4 35.85 17.3 35.4 18.75 40.6 21.15 44 23.85 44 26.55 44 29 40.6 30.4 35.4 32.4 35.9 34.2 36.2 35.8 36.2 38.4 36.2 40.3 35.5 41.15 34.05 42.5 31.7 40.8 28 37.1 24.2 41.05 20.25 42.85 16.4 41.45 14ZM36.1 13.85C37.95 13.85 39.3 14.3 39.7 15 40.45 16.3 39.1 19.35 35.7 22.75 34.5 21.65 33.15 20.55 31.65 19.5 31.5 17.8 31.25 16.15 30.9 14.6 32.8 14.1 34.6 13.85 36.1 13.85ZM27.15 29.2C26.1 29.8 25.05 30.35 24 30.85 22.95 30.35 21.9 29.8 20.85 29.2 19.85 28.6 18.85 28 17.95 27.4 17.85 26.3 17.85 25.2 17.85 24 17.85 22.9 17.9 21.85 17.95 20.8 18.95 20.1 20 19.45 21.15 18.8 22.1 18.25 23.05 17.75 24 17.3 24.95 17.75 25.9 18.25 26.85 18.8 27.85 19.4 28.85 20 29.75 20.6 29.85 21.7 29.85 22.8 29.85 24 29.85 25.25 29.8 26.45 29.7 27.6 28.9 28.15 28.05 28.65 27.15 29.2ZM29.45 30.15C29.3 31.1 29.15 32.05 29 32.9 28.15 32.6 27.25 32.3 26.35 31.9 26.95 31.6 27.55 31.25 28.15 30.9 28.6 30.65 29.05 30.4 29.45 30.15ZM21.65 31.9C20.65 32.3 19.7 32.65 18.75 32.95 18.55 32 18.4 31 18.25 29.95 18.8 30.3 19.3 30.6 19.9 30.95 20.45 31.25 21.05 31.6 21.65 31.9ZM15.9 25.9C15.1 25.3 14.4 24.7 13.75 24.1 14.4 23.5 15.15 22.9 15.9 22.3 15.9 22.85 15.85 23.4 15.85 24 15.85 24.65 15.85 25.3 15.9 25.9ZM18.2 18.25C18.35 17.15 18.5 16.1 18.7 15.1 19.65 15.4 20.65 15.8 21.65 16.2 21.15 16.45 20.6 16.75 20.1 17.05 19.5 17.45 18.85 17.85 18.2 18.25ZM26.3 16.2C27.2 15.8 28.1 15.5 29 15.2 29.2 16.1 29.35 17.05 29.5 18.05 28.95 17.7 28.45 17.4 27.85 17.05 27.35 16.8 26.85 16.5 26.3 16.2ZM31.8 22.1C32.7 22.8 33.5 23.45 34.25 24.15 33.5 24.8 32.7 25.5 31.8 26.15 31.85 25.45 31.85 24.75 31.85 24.05 31.85 23.35 31.85 22.7 31.8 22.1ZM23.85 6C25.35 6 27.3 8.64999 28.55 13.25 27.1 13.75 25.55 14.35 24 15.05 22.35 14.3 20.75 13.65 19.2 13.15 20.45 8.59999 22.35 6 23.85 6ZM8.24999 15C8.69999 14.25 9.99999 13.85 11.85 13.85 13.3 13.85 14.95 14.1 16.75 14.55 16.4 16.15 16.15 17.9 16 19.7 14.6 20.7 13.35 21.7 12.25 22.75 8.89999 19.35 7.49999 16.3 8.24999 15ZM12.15 34.15C10.3 34.15 8.94999 33.7 8.54999 33 7.79999 31.7 9.09999 28.8 12.3 25.5 13.45 26.5 14.7 27.5 16.05 28.5 16.2 30.25 16.45 31.95 16.8 33.5 15.15 33.95 13.55 34.15 12.15 34.15ZM23.85 42C22.35 42 20.45 39.4 19.2 34.9 20.75 34.4 22.35 33.8 24 33.05 25.55 33.75 27.05 34.35 28.5 34.8 27.25 39.4 25.35 42 23.85 42ZM39.45 33C39 33.75 37.7 34.15 35.85 34.15 34.4 34.15 32.7 33.9 30.95 33.45 31.25 31.95 31.5 30.4 31.65 28.7 33.15 27.65 34.5 26.6 35.7 25.5 38.9 28.8 40.2 31.7 39.45 33Z" transform="matrix(1 0 0 1.02011 51 81.9416)"/></g></g></g><path d="M27.5 87.4377 90.8332 87.4377 103.5 100.096 103.5 183.369 27.5 183.369Z" stroke="#404040" stroke-width="0.667142" stroke-miterlimit="8" fill="url(#fill4)" fill-rule="evenodd"/><path d="M0 0 58.5086 0.000104987" stroke="#404040" stroke-width="1.33333" stroke-miterlimit="8" fill="none" fill-rule="evenodd" transform="matrix(-1.00071 0 0 1 95.0503 166.381)"/><path d="M0 0 58.5086 0.000104987" stroke="#404040" stroke-width="1.33333" stroke-miterlimit="8" fill="none" fill-rule="evenodd" transform="matrix(-1.00071 0 0 1 95.0503 173.376)"/><path d="M0 0 58.5086 0.000104987" stroke="#404040" stroke-width="1.33333" stroke-miterlimit="8" fill="none" fill-rule="evenodd" transform="matrix(-1.00071 0 0 1 95.0503 150.393)"/><path d="M0 0 58.5086 0.000104987" stroke="#404040" stroke-width="1.33333" stroke-miterlimit="8" fill="none" fill-rule="evenodd" transform="matrix(-1.00071 0 0 1 95.0503 158.387)"/><path d="M0 0 58.5086 0.000104987" stroke="#404040" stroke-width="1.33333" stroke-miterlimit="8" fill="none" fill-rule="evenodd" transform="matrix(-1.00071 0 0 1 95.0503 143.398)"/><g><g><g><path d="M18.0381 41.9306 4.6075 28.5 17.7412 15.3662 20.2587 17.8837 9.64249 28.5 20.5556 39.4131 18.0381 41.9306Z" stroke="#404040" stroke-width="0.59375" fill="#404040" transform="matrix(1 0 0 1.01682 37 87.9373)"/><path d="M38.665 41.9306 36.1475 39.4131 47.0606 28.5 36.4444 17.8837 38.9619 15.3662 52.0956 28.5 38.665 41.9306Z" stroke="#404040" stroke-width="0.59375" fill="#404040" transform="matrix(1 0 0 1.01682 37 87.9373)"/><path d="M31.4687 28.5C31.4687 30.1396 30.1396 31.4687 28.5 31.4687 26.8604 31.4687 25.5312 30.1396 25.5312 28.5 25.5312 26.8604 26.8604 25.5312 28.5 25.5312 30.1396 25.5312 31.4687 26.8604 31.4687 28.5Z" stroke="#404040" stroke-width="0.59375" fill="#404040" transform="matrix(1 0 0 1.01682 37 87.9373)"/><path d="M21.9687 28.5C21.9687 30.1396 20.6396 31.4687 19 31.4687 17.3604 31.4687 16.0312 30.1396 16.0312 28.5 16.0312 26.8604 17.3604 25.5312 19 25.5312 20.6396 25.5312 21.9687 26.8604 21.9687 28.5Z" stroke="#404040" stroke-width="0.59375" fill="#404040" transform="matrix(1 0 0 1.01682 37 87.9373)"/><path d="M40.9687 28.5C40.9687 30.1396 39.6396 31.4687 38 31.4687 36.3604 31.4687 35.0312 30.1396 35.0312 28.5 35.0312 26.8604 36.3604 25.5312 38 25.5312 39.6396 25.5312 40.9687 26.8604 40.9687 28.5Z" stroke="#404040" stroke-width="0.59375" fill="#404040" transform="matrix(1 0 0 1.01682 37 87.9373)"/></g></g></g><text fill="#404040" font-family="Aptos,Aptos_MSFontService,sans-serif" font-weight="400" font-size="24" transform="matrix(1 0 0 0.999288 24.5049 30)">Classical</text><text fill="#404040" font-family="Aptos,Aptos_MSFontService,sans-serif" font-weight="400" font-size="24" transform="matrix(1 0 0 0.999288 24.5049 59)">Programs</text><text fill="#404040" font-family="Aptos,Aptos_MSFontService,sans-serif" font-weight="400" font-size="24" transform="matrix(1 0 0 0.999288 162.497 30)">Quantum</text><text fill="#404040" font-family="Aptos,Aptos_MSFontService,sans-serif" font-weight="400" font-size="24" transform="matrix(1 0 0 0.999288 171.217 59)">Circuits</text><path d="M0 0 76.6118 0 91.9345 15.3227 91.9345 218.844 0 218.844Z" stroke="#404040" stroke-width="0.666667" stroke-miterlimit="8" fill="url(#fill5)" fill-rule="evenodd" transform="matrix(-6.1276e-17 -1 -1.00071 6.12323e-17 256.5 343.255)"/><path d="M92.0328 303.302 102.533 313.794 92.0328 324.287 81.5328 313.794Z" stroke="#404040" stroke-width="0.667142" stroke-miterlimit="8" fill="#FFFFFF" fill-rule="evenodd" fill-opacity="0.94902"/><path d="M102.501 312.777 109.781 312.791 109.779 313.791 102.499 313.777ZM108.451 310.622 113.783 313.299 108.441 315.955Z" fill="#404040"/><path d="M139.726 303.294C141.272 303.294 142.526 304.469 142.526 305.917L142.526 321.656C142.526 323.105 141.272 324.279 139.726 324.279L117.326 324.279C115.779 324.279 114.526 323.105 114.526 321.656L114.526 305.917C114.526 304.469 115.779 303.294 117.326 303.294Z" stroke="#404040" stroke-width="0.667142" stroke-miterlimit="8" fill="#FFFFFF" fill-rule="evenodd" fill-opacity="0.94902"/><path d="M206.033 303.302 216.533 313.794 206.033 324.287 195.533 313.794Z" stroke="#404040" stroke-width="0.667142" stroke-miterlimit="8" fill="#FFFFFF" fill-rule="evenodd" fill-opacity="0.94902"/><path d="M182.501 312.777 191.603 312.792 191.601 313.792 182.499 313.777ZM190.272 310.623 195.605 313.299 190.263 315.957Z" fill="#404040"/><path d="M216.501 312.777 225.201 312.793 225.199 313.793 216.499 313.777ZM223.871 310.624 229.203 313.301 223.861 315.957Z" fill="#404040"/><path d="M249.023 313.3C249.023 318.543 244.546 322.793 239.023 322.793 233.5 322.793 229.023 318.543 229.023 313.3 229.023 308.057 233.5 303.807 239.023 303.807 244.546 303.807 249.023 308.057 249.023 313.3Z" stroke="#404040" stroke-width="2.00143" stroke-miterlimit="8" fill="#FFFFFF" fill-rule="evenodd" fill-opacity="0.94902"/><path d="M160.726 269.319C162.272 269.319 163.526 270.493 163.526 271.942L163.526 287.681C163.526 289.129 162.272 290.304 160.726 290.304L138.326 290.304C136.779 290.304 135.526 289.129 135.526 287.681L135.526 271.942C135.526 270.493 136.779 269.319 138.326 269.319Z" stroke="#404040" stroke-width="0.667142" stroke-miterlimit="8" fill="#FFFFFF" fill-rule="evenodd"/><path d="M38.9696 0.5 0 0.5 0.5 0 0.5 23.9829-0.5 23.9829-0.5 0C-0.5-0.276142-0.276142-0.5 0-0.5L38.9696-0.5ZM37.6363-2.66667 42.9696 0 37.6363 2.66667Z" fill="#404040" transform="matrix(-1.00071 0 0 1 206.5 280.3)"/><path d="M18.9836 0.5 0 0.5 0.5 0 0.5 42.9694-0.5 42.9694-0.5 0C-0.5-0.276142-0.276142-0.5 0-0.5L18.9836-0.5ZM17.6503-2.66667 22.9836 0 17.6503 2.66667Z" fill="#404040" transform="matrix(1.83828e-16 1 1.00071 -1.83697e-16 92.5 280.3)"/><path d="M68.5228 313.8C68.5228 319.043 64.0456 323.293 58.5226 323.293 52.9998 323.293 48.5226 319.043 48.5226 313.8 48.5226 308.557 52.9998 304.307 58.5226 304.307 64.0456 304.307 68.5228 308.557 68.5228 313.8Z" stroke="#404040" stroke-width="0.667142" stroke-miterlimit="8" fill="#FFFFFF" fill-rule="evenodd" fill-opacity="0.94902"/><path d="M142.5 312.777 151.191 312.777 151.191 313.777 142.5 313.777ZM149.857 310.61 155.194 313.277 149.857 315.943Z" fill="#404040"/><path d="M180.627 303.294C182.228 303.294 183.527 304.469 183.527 305.917L183.527 321.656C183.527 323.105 182.228 324.279 180.627 324.279L157.427 324.279C155.825 324.279 154.527 323.105 154.527 321.656L154.527 305.917C154.527 304.469 155.825 303.294 157.427 303.294Z" stroke="#404040" stroke-width="0.667142" stroke-miterlimit="8" fill="#FFFFFF" fill-rule="evenodd" fill-opacity="0.94902"/><path d="M0.000222046-0.5 9.23907-0.495897 9.23862 0.504103-0.000222046 0.5ZM7.9067-2.66316 13.2388 0.00587926 7.90433 2.67018Z" fill="#404040" transform="matrix(1.00071 0 0 -1 68.5 313.283)"/><path d="M0 0 76.6118 0 91.9345 15.3227 91.9345 219.843 0 219.843Z" stroke="#404040" stroke-width="0.666667" stroke-miterlimit="8" fill="url(#fill6)" fill-rule="evenodd" transform="matrix(-6.1276e-17 -1 -1.00071 6.12323e-17 250.5 351.25)"/><path d="M85.0328 312.295 95.5329 322.788 85.0328 333.281 74.5328 322.788Z" stroke="#404040" stroke-width="0.667142" stroke-miterlimit="8" fill="#FFFFFF" fill-rule="evenodd" fill-opacity="0.94902"/><path d="M95.501 321.77 102.781 321.785 102.779 322.785 95.499 322.77ZM101.451 319.616 106.783 322.293 101.441 324.949Z" fill="#404040"/><path d="M132.726 312.288C134.272 312.288 135.526 313.462 135.526 314.911L135.526 330.65C135.526 332.099 134.272 333.273 132.726 333.273L110.326 333.273C108.779 333.273 107.526 332.099 107.526 330.65L107.526 314.911C107.526 313.462 108.779 312.288 110.326 312.288Z" stroke="#404040" stroke-width="0.667142" stroke-miterlimit="8" fill="#FFFFFF" fill-rule="evenodd" fill-opacity="0.94902"/><path d="M199.534 312.295 210.534 322.788 199.534 333.281 188.534 322.788Z" stroke="#404040" stroke-width="0.667142" stroke-miterlimit="8" fill="#FFFFFF" fill-rule="evenodd" fill-opacity="0.94902"/><path d="M176.501 321.77 185.603 321.786 185.601 322.786 176.499 322.77ZM184.272 319.617 189.605 322.293 184.263 324.95Z" fill="#404040"/><path d="M210.501 321.77 219.201 321.787 219.199 322.787 210.499 322.77ZM217.871 319.618 223.203 322.294 217.861 324.951Z" fill="#404040"/><path d="M242.023 321.795C242.023 327.314 237.546 331.788 232.023 331.788 226.5 331.788 222.023 327.314 222.023 321.795 222.023 316.276 226.5 311.802 232.023 311.802 237.546 311.802 242.023 316.276 242.023 321.795Z" stroke="#404040" stroke-width="2.00143" stroke-miterlimit="8" fill="#FFFFFF" fill-rule="evenodd" fill-opacity="0.94902"/><path d="M153.726 278.312C155.272 278.312 156.526 279.487 156.526 280.935L156.526 296.674C156.526 298.123 155.272 299.297 153.726 299.297L131.326 299.297C129.779 299.297 128.526 298.123 128.526 296.674L128.526 280.935C128.526 279.487 129.779 278.312 131.326 278.312Z" stroke="#404040" stroke-width="0.667142" stroke-miterlimit="8" fill="#FFFFFF" fill-rule="evenodd"/><path d="M38.9695 0.5 0 0.5 0.5 0 0.5 22.9837-0.5 22.9837-0.5 0C-0.5-0.276142-0.276142-0.5 0-0.5L38.9695-0.5ZM37.6362-2.66667 42.9695 0 37.6362 2.66667Z" fill="#404040" transform="matrix(-1.00071 0 0 1 199.5 289.294)"/><path d="M18.9837 0.5 0 0.5 0.5 0 0.5 42.9695-0.5 42.9695-0.5 0C-0.5-0.276142-0.276142-0.5 0-0.5L18.9837-0.5ZM17.6504-2.66667 22.9837 0 17.6504 2.66667Z" fill="#404040" transform="matrix(1.83828e-16 1 1.00071 -1.83697e-16 85.4999 289.294)"/><path d="M61.5227 322.295C61.5227 327.814 57.0456 332.288 51.5226 332.288 45.9998 332.288 41.5227 327.814 41.5227 322.295 41.5227 316.776 45.9998 312.302 51.5226 312.302 57.0456 312.302 61.5227 316.776 61.5227 322.295Z" stroke="#404040" stroke-width="0.667142" stroke-miterlimit="8" fill="#FFFFFF" fill-rule="evenodd" fill-opacity="0.94902"/><path d="M135.5 321.77 144.191 321.77 144.191 322.77 135.5 322.77ZM142.857 319.604 148.194 322.27 142.857 324.937Z" fill="#404040"/><path d="M173.726 312.288C175.272 312.288 176.526 313.462 176.526 314.911L176.526 330.65C176.526 332.099 175.272 333.273 173.726 333.273L151.326 333.273C149.779 333.273 148.526 332.099 148.526 330.65L148.526 314.911C148.526 313.462 149.779 312.288 151.326 312.288Z" stroke="#404040" stroke-width="0.667142" stroke-miterlimit="8" fill="#FFFFFF" fill-rule="evenodd" fill-opacity="0.94902"/><path d="M0.000222046-0.5 9.23907-0.495897 9.23862 0.504103-0.000222046 0.5ZM7.9067-2.66316 13.2388 0.00587926 7.90433 2.67018Z" fill="#404040" transform="matrix(1.00071 0 0 -1 61.5 322.276)"/><path d="M0 0 76.6118 0 91.9345 15.3227 91.9345 218.844 0 218.844Z" stroke="#404040" stroke-width="0.666667" stroke-miterlimit="8" fill="url(#fill7)" fill-rule="evenodd" transform="matrix(-6.1276e-17 -1 -1.00071 6.12323e-17 243.5 361.243)"/><path d="M79.0328 321.289 89.5328 331.782 79.0328 342.274 68.5328 331.782Z" stroke="#404040" stroke-width="0.667142" stroke-miterlimit="8" fill="#FFFFFF" fill-rule="evenodd" fill-opacity="0.94902"/><path d="M89.501 331.763 96.7812 331.778 96.7792 332.778 89.499 332.763ZM95.4513 329.608 100.783 332.286 95.4406 334.942Z" fill="#404040"/><path d="M126.726 321.282C128.272 321.282 129.526 322.456 129.526 323.905L129.526 339.643C129.526 341.092 128.272 342.267 126.726 342.267L104.326 342.267C102.779 342.267 101.526 341.092 101.526 339.643L101.526 323.905C101.526 322.456 102.779 321.282 104.326 321.282Z" stroke="#404040" stroke-width="0.667142" stroke-miterlimit="8" fill="#FFFFFF" fill-rule="evenodd" fill-opacity="0.94902"/><path d="M193.033 321.289 203.533 331.782 193.033 342.274 182.533 331.782Z" stroke="#404040" stroke-width="0.667142" stroke-miterlimit="8" fill="#FFFFFF" fill-rule="evenodd" fill-opacity="0.94902"/><path d="M169.501 331.763 178.603 331.779 178.601 332.779 169.499 332.763ZM177.272 329.61 182.605 332.286 177.263 334.943Z" fill="#404040"/><path d="M203.501 331.763 212.201 331.78 212.199 332.78 203.499 332.763ZM210.871 329.611 216.203 332.287 210.861 334.944Z" fill="#404040"/><path d="M236.023 331.287C236.023 336.53 231.546 340.781 226.023 340.781 220.5 340.781 216.023 336.53 216.023 331.287 216.023 326.044 220.5 321.794 226.023 321.794 231.546 321.794 236.023 326.044 236.023 331.287Z" stroke="#404040" stroke-width="2.00143" stroke-miterlimit="8" fill="#FFFFFF" fill-rule="evenodd" fill-opacity="0.94902"/><path d="M147.726 287.306C149.272 287.306 150.526 288.48 150.526 289.929L150.526 305.668C150.526 307.116 149.272 308.291 147.726 308.291L125.326 308.291C123.779 308.291 122.526 307.116 122.526 305.668L122.526 289.929C122.526 288.48 123.779 287.306 125.326 287.306Z" stroke="#404040" stroke-width="0.667142" stroke-miterlimit="8" fill="#FFFFFF" fill-rule="evenodd"/><path d="M38.9696 0.5 0 0.5 0.5 0 0.5 23.983-0.5 23.983-0.5 0C-0.5-0.276142-0.276142-0.5 0-0.5L38.9696-0.5ZM37.6363-2.66667 42.9696 0 37.6363 2.66667Z" fill="#404040" transform="matrix(-1.00071 0 0 1 193.5 298.287)"/><path d="M18.9837 0.5 0 0.5 0.5 0 0.5 42.9694-0.5 42.9694-0.5 0C-0.5-0.276142-0.276142-0.5 0-0.5L18.9837-0.5ZM17.6504-2.66667 22.9837 0 17.6504 2.66667Z" fill="#404040" transform="matrix(1.83828e-16 1 1.00071 -1.83697e-16 79.5 298.287)"/><path d="M55.5228 331.787C55.5228 337.03 51.0456 341.28 45.5227 341.28 39.9998 341.28 35.5227 337.03 35.5227 331.787 35.5227 326.544 39.9998 322.294 45.5227 322.294 51.0456 322.294 55.5228 326.544 55.5228 331.787Z" stroke="#404040" stroke-width="0.667142" stroke-miterlimit="8" fill="#FFFFFF" fill-rule="evenodd" fill-opacity="0.94902"/><path d="M129.5 331.763 138.191 331.763 138.191 332.763 129.5 332.763ZM136.857 329.597 142.194 332.263 136.857 334.93Z" fill="#404040"/><path d="M167.726 321.282C169.272 321.282 170.526 322.456 170.526 323.905L170.526 339.643C170.526 341.092 169.272 342.267 167.726 342.267L145.326 342.267C143.779 342.267 142.526 341.092 142.526 339.643L142.526 323.905C142.526 322.456 143.779 321.282 145.326 321.282Z" stroke="#404040" stroke-width="0.667142" stroke-miterlimit="8" fill="#FFFFFF" fill-rule="evenodd" fill-opacity="0.94902"/><path d="M0.000222046-0.5 9.23907-0.495897 9.23862 0.504103-0.000222046 0.5ZM7.9067-2.66316 13.2388 0.00587926 7.90433 2.67018Z" fill="#404040" transform="matrix(1.00071 0 0 -1 55.5 332.269)"/><text fill="#404040" font-family="Aptos,Aptos_MSFontService,sans-serif" font-weight="400" font-size="24" transform="matrix(1 0 0 0.999288 25.7149 215)">Control</text><text fill="#404040" font-family="Aptos,Aptos_MSFontService,sans-serif" font-weight="400" font-size="24" transform="matrix(1 0 0 0.999288 103.61 215)">-</text><text fill="#404040" font-family="Aptos,Aptos_MSFontService,sans-serif" font-weight="400" font-size="24" transform="matrix(1 0 0 0.999288 116.62 215)">and Dataflow</text><text fill="#404040" font-family="Aptos,Aptos_MSFontService,sans-serif" font-weight="400" font-size="24" transform="matrix(1 0 0 0.999288 66.2238 244)">Specifications</text><text fill="#404040" font-family="Aptos,Aptos_MSFontService,sans-serif" font-weight="400" font-size="24" transform="matrix(1 0 0 0.999288 300.285 30)">Deployment</text><text fill="#404040" font-family="Aptos,Aptos_MSFontService,sans-serif" font-weight="400" font-size="24" transform="matrix(1 0 0 0.999288 328.018 59)">Models</text><path d="M328.5 75.4462 409.5 75.4462 409.5 154.633 403.743 160.386 328.5 160.386Z" fill="url(#fill8)" fill-rule="evenodd"/><path d="M403.743 160.386 404.895 155.784 409.5 154.633Z" fill="url(#fill9)" fill-rule="evenodd"/><path d="M403.743 160.386 404.895 155.784 409.5 154.633 403.743 160.386 328.5 160.386 328.5 75.4462 409.5 75.4462 409.5 154.633" stroke="#404040" stroke-width="0.667142" stroke-miterlimit="8" fill="none" fill-rule="evenodd"/><path d="M339.5 131.406C339.5 129.199 341.291 127.409 343.5 127.409L372.5 127.409C374.709 127.409 376.5 129.199 376.5 131.406L376.5 147.395C376.5 149.603 374.709 151.392 372.5 151.392L343.5 151.392C341.291 151.392 339.5 149.603 339.5 147.395Z" stroke="#404040" stroke-width="0.333571" stroke-miterlimit="8" fill="url(#fill10)" fill-rule="evenodd"/><path d="M339.5 88.437C339.5 86.2294 341.291 84.4398 343.5 84.4398L372.5 84.4398C374.709 84.4398 376.5 86.2294 376.5 88.437L376.5 104.425C376.5 106.633 374.709 108.423 372.5 108.423L343.5 108.423C341.291 108.423 339.5 106.633 339.5 104.425Z" stroke="#404040" stroke-width="0.333571" stroke-miterlimit="8" fill="url(#fill11)" fill-rule="evenodd"/><path d="M358.5 108.423 358.5 126.497" stroke="#404040" stroke-width="0.667142" stroke-miterlimit="8" fill="none" fill-rule="evenodd"/><path d="M0 10.9922 7.99428 0 15.9886 10.9922Z" fill="#404040" fill-rule="evenodd" transform="matrix(1.00071 0 0 -1 350 127.909)"/><text fill="#404040" font-family="Aptos,Aptos_MSFontService,sans-serif" font-weight="700" font-size="37" transform="matrix(1 0 0 0.999288 380.051 129)">D</text><path d="M320.5 82.4413 401.5 82.4413 401.5 162.627 395.743 168.38 320.5 168.38Z" fill="url(#fill12)" fill-rule="evenodd"/><path d="M395.743 168.38 396.895 163.778 401.5 162.627Z" fill="url(#fill13)" fill-rule="evenodd"/><path d="M395.743 168.38 396.895 163.778 401.5 162.627 395.743 168.38 320.5 168.38 320.5 82.4413 401.5 82.4413 401.5 162.627" stroke="#404040" stroke-width="0.667142" stroke-miterlimit="8" fill="none" fill-rule="evenodd"/><path d="M331.5 138.568C331.5 136.268 333.366 134.404 335.667 134.404L364.333 134.404C366.635 134.404 368.5 136.268 368.5 138.568L368.5 155.223C368.5 157.522 366.635 159.386 364.333 159.386L335.667 159.386C333.366 159.386 331.5 157.522 331.5 155.223Z" stroke="#404040" stroke-width="0.333571" stroke-miterlimit="8" fill="url(#fill14)" fill-rule="evenodd"/><path d="M331.5 95.5986C331.5 93.299 333.366 91.4349 335.667 91.4349L364.333 91.4349C366.635 91.4349 368.5 93.299 368.5 95.5986L368.5 112.253C368.5 114.553 366.635 116.417 364.333 116.417L335.667 116.417C333.366 116.417 331.5 114.553 331.5 112.253Z" stroke="#404040" stroke-width="0.333571" stroke-miterlimit="8" fill="url(#fill15)" fill-rule="evenodd"/><path d="M350.5 116.417 350.5 134.491" stroke="#404040" stroke-width="0.667142" stroke-miterlimit="8" fill="none" fill-rule="evenodd"/><path d="M0 9.99286 7.99428 0 15.9886 9.99286Z" fill="#404040" fill-rule="evenodd" transform="matrix(1.00071 0 0 -1 342 134.904)"/><text fill="#404040" font-family="Aptos,Aptos_MSFontService,sans-serif" font-weight="700" font-size="37" transform="matrix(1 0 0 0.999288 372.106 136)">D</text><path d="M312.5 90.4356 393.5 90.4356 393.5 170.622 387.743 176.374 312.5 176.374Z" fill="url(#fill16)" fill-rule="evenodd"/><path d="M387.743 176.374 388.895 171.772 393.5 170.622Z" fill="url(#fill17)" fill-rule="evenodd"/><path d="M387.743 176.374 388.895 171.772 393.5 170.622 387.743 176.374 312.5 176.374 312.5 90.4356 393.5 90.4356 393.5 170.622" stroke="#404040" stroke-width="0.667142" stroke-miterlimit="8" fill="none" fill-rule="evenodd"/><path d="M322.5 146.562C322.5 144.263 324.366 142.399 326.667 142.399L356.333 142.399C358.634 142.399 360.5 144.263 360.5 146.562L360.5 163.217C360.5 165.516 358.634 167.381 356.333 167.381L326.667 167.381C324.366 167.381 322.5 165.516 322.5 163.217Z" stroke="#404040" stroke-width="0.333571" stroke-miterlimit="8" fill="url(#fill18)" fill-rule="evenodd"/><path d="M322.5 103.593C322.5 101.293 324.366 99.4291 326.667 99.4291L356.333 99.4291C358.634 99.4291 360.5 101.293 360.5 103.593L360.5 120.248C360.5 122.547 358.634 124.411 356.333 124.411L326.667 124.411C324.366 124.411 322.5 122.547 322.5 120.248Z" stroke="#404040" stroke-width="0.333571" stroke-miterlimit="8" fill="url(#fill19)" fill-rule="evenodd"/><path d="M341.5 124.411 341.5 142.485" stroke="#404040" stroke-width="0.667142" stroke-miterlimit="8" fill="none" fill-rule="evenodd"/><path d="M0 9.99286 7.49465 0 14.9893 9.99286Z" fill="#404040" fill-rule="evenodd" transform="matrix(1.00071 0 0 -1 334 142.898)"/><text fill="#404040" font-family="Aptos,Aptos_MSFontService,sans-serif" font-weight="700" font-size="37" transform="matrix(1 0 0 0.999288 363.749 144)">D</text><text fill="#404040" font-family="Aptos,Aptos_MSFontService,sans-serif" font-weight="400" font-size="24" transform="matrix(1 0 0 0.999288 316.451 215)">Version</text><text fill="#404040" font-family="Aptos,Aptos_MSFontService,sans-serif" font-weight="400" font-size="24" transform="matrix(1 0 0 0.999288 304.649 244)">Definition</text><path d="M296.5 254.319 394 254.319 412.5 272.806 412.5 365.24 296.5 365.24Z" stroke="#404040" stroke-width="0.667142" stroke-miterlimit="8" fill="url(#fill20)" fill-rule="evenodd"/><text fill="#404040" font-family="Aptos,Aptos_MSFontService,sans-serif" font-weight="400" font-size="24" transform="matrix(1 0 0 0.999288 303.166 286)">A</text><text fill="#404040" font-family="Aptos,Aptos_MSFontService,sans-serif" font-weight="400" font-size="16" transform="matrix(1 0 0 0.999288 317.343 286)">1</text><text fill="#404040" font-family="Aptos,Aptos_MSFontService,sans-serif" font-weight="400" font-size="24" transform="matrix(1 0 0 0.999288 325.849 286)">: V1.1.1</text><text fill="#404040" font-family="Aptos,Aptos_MSFontService,sans-serif" font-weight="400" font-size="24" transform="matrix(1 0 0 0.999288 303.166 315)">A</text><text fill="#404040" font-family="Aptos,Aptos_MSFontService,sans-serif" font-weight="400" font-size="16" transform="matrix(1 0 0 0.999288 317.343 315)">2</text><text fill="#404040" font-family="Aptos,Aptos_MSFontService,sans-serif" font-weight="400" font-size="24" transform="matrix(1 0 0 0.999288 325.849 315)">: V0.3.2</text><text fill="#404040" font-family="Aptos,Aptos_MSFontService,sans-serif" font-weight="400" font-size="24" transform="matrix(1 0 0 0.999288 303.166 343)">A</text><text fill="#404040" font-family="Aptos,Aptos_MSFontService,sans-serif" font-weight="400" font-size="16" transform="matrix(1 0 0 0.999288 317.343 343)">3</text><text fill="#404040" font-family="Aptos,Aptos_MSFontService,sans-serif" font-weight="400" font-size="24" transform="matrix(1 0 0 0.999288 325.849 343)">: V2.6.3</text><text fill="#404040" font-family="Aptos,Aptos_MSFontService,sans-serif" font-weight="700" font-size="37" transform="matrix(1 0 0 0.999288 338.925 357)">…</text><path d="M174.5 83.4405 246.833 83.4405 258.5 95.0992 258.5 153.391 174.5 153.391Z" stroke="#404040" stroke-width="0.667142" stroke-miterlimit="8" fill="url(#fill21)" fill-rule="evenodd"/><path d="M182.5 98.4298 246.478 98.4299" stroke="#404040" stroke-width="0.333571" stroke-miterlimit="8" fill="none" fill-rule="evenodd"/><path d="M182.5 117.416 246.478 117.416" stroke="#404040" stroke-width="0.333571" stroke-miterlimit="8" fill="none" fill-rule="evenodd"/><path d="M182.5 138.401 246.478 138.401" stroke="#404040" stroke-width="0.333571" stroke-miterlimit="8" fill="none" fill-rule="evenodd"/><path d="M202.5 98.4298 202.5 145.308" stroke="#404040" stroke-width="0.333571" stroke-miterlimit="8" fill="none" fill-rule="evenodd"/><path d="M194.5 137.402C194.5 132.987 198.082 129.408 202.5 129.408 206.918 129.408 210.5 132.987 210.5 137.402 210.5 141.817 206.918 145.396 202.5 145.396 198.082 145.396 194.5 141.817 194.5 137.402Z" stroke="#404040" stroke-width="0.333571" stroke-miterlimit="8" fill="none" fill-rule="evenodd"/><path d="M197 98.4298C197 95.3944 199.239 92.9338 202 92.9338 204.761 92.9338 207 95.3944 207 98.4298 207 101.465 204.761 103.926 202 103.926 199.239 103.926 197 101.465 197 98.4298Z" fill="#404040" fill-rule="evenodd"/><path d="M219.5 117.416C219.5 113.001 223.082 109.422 227.5 109.422 231.918 109.422 235.5 113.001 235.5 117.416 235.5 121.831 231.918 125.411 227.5 125.411 223.082 125.411 219.5 121.831 219.5 117.416Z" stroke="#404040" stroke-width="0.333571" stroke-miterlimit="8" fill="none" fill-rule="evenodd"/><path d="M222 136.902C222 134.143 224.462 131.906 227.5 131.906 230.538 131.906 233 134.143 233 136.902 233 139.662 230.538 141.899 227.5 141.899 224.462 141.899 222 139.662 222 136.902Z" fill="#404040" fill-rule="evenodd"/><path d="M227.5 109.422 227.5 136.594" stroke="#404040" stroke-width="0.333571" stroke-miterlimit="8" fill="none" fill-rule="evenodd"/><path d="M170.5 90.4356 242.666 90.4356 254.5 102.261 254.5 161.385 170.5 161.385Z" stroke="#404040" stroke-width="0.667142" stroke-miterlimit="8" fill="url(#fill22)" fill-rule="evenodd"/><path d="M178.5 105.425 242.478 105.425" stroke="#404040" stroke-width="0.333571" stroke-miterlimit="8" fill="none" fill-rule="evenodd"/><path d="M178.5 124.411 242.478 124.411" stroke="#404040" stroke-width="0.333571" stroke-miterlimit="8" fill="none" fill-rule="evenodd"/><path d="M178.5 145.396 242.478 145.396" stroke="#404040" stroke-width="0.333571" stroke-miterlimit="8" fill="none" fill-rule="evenodd"/><path d="M198.5 105.425 198.5 152.303" stroke="#404040" stroke-width="0.333571" stroke-miterlimit="8" fill="none" fill-rule="evenodd"/><path d="M190.5 145.396C190.5 140.981 194.082 137.402 198.5 137.402 202.918 137.402 206.5 140.981 206.5 145.396 206.5 149.811 202.918 153.391 198.5 153.391 194.082 153.391 190.5 149.811 190.5 145.396Z" stroke="#404040" stroke-width="0.333571" stroke-miterlimit="8" fill="none" fill-rule="evenodd"/><path d="M193 105.925C193 103.165 195.239 100.928 198 100.928 200.761 100.928 203 103.165 203 105.925 203 108.684 200.761 110.921 198 110.921 195.239 110.921 193 108.684 193 105.925Z" fill="#404040" fill-rule="evenodd"/><path d="M215.5 124.411C215.5 119.996 219.082 116.417 223.5 116.417 227.918 116.417 231.5 119.996 231.5 124.411 231.5 128.826 227.918 132.406 223.5 132.406 219.082 132.406 215.5 128.826 215.5 124.411Z" stroke="#404040" stroke-width="0.333571" stroke-miterlimit="8" fill="none" fill-rule="evenodd"/><path d="M218 144.397C218 141.362 220.462 138.901 223.5 138.901 226.538 138.901 229 141.362 229 144.397 229 147.432 226.538 149.893 223.5 149.893 220.462 149.893 218 147.432 218 144.397Z" fill="#404040" fill-rule="evenodd"/><path d="M223.5 117.416 223.5 144.589" stroke="#404040" stroke-width="0.333571" stroke-miterlimit="8" fill="none" fill-rule="evenodd"/><path d="M165.5 97.4305 237.833 97.4305 249.5 109.089 249.5 167.381 165.5 167.381Z" stroke="#404040" stroke-width="0.667142" stroke-miterlimit="8" fill="url(#fill23)" fill-rule="evenodd"/><path d="M172.5 114.418 236.478 114.419" stroke="#404040" stroke-width="0.333571" stroke-miterlimit="8" fill="none" fill-rule="evenodd"/><path d="M172.5 133.405 236.478 133.405" stroke="#404040" stroke-width="0.333571" stroke-miterlimit="8" fill="none" fill-rule="evenodd"/><path d="M172.5 153.391 236.478 153.391" stroke="#404040" stroke-width="0.333571" stroke-miterlimit="8" fill="none" fill-rule="evenodd"/><path d="M192.5 114.418 192.5 161.297" stroke="#404040" stroke-width="0.333571" stroke-miterlimit="8" fill="none" fill-rule="evenodd"/><path d="M184.5 153.391C184.5 148.976 188.082 145.396 192.5 145.396 196.918 145.396 200.5 148.976 200.5 153.391 200.5 157.806 196.918 161.385 192.5 161.385 188.082 161.385 184.5 157.806 184.5 153.391Z" stroke="#404040" stroke-width="0.333571" stroke-miterlimit="8" fill="none" fill-rule="evenodd"/><path d="M187 114.418C187 111.383 189.462 108.922 192.5 108.922 195.538 108.922 198 111.383 198 114.418 198 117.454 195.538 119.915 192.5 119.915 189.462 119.915 187 117.454 187 114.418Z" fill="#404040" fill-rule="evenodd"/><path d="M210.5 133.405C210.5 128.99 214.082 125.411 218.5 125.411 222.918 125.411 226.5 128.99 226.5 133.405 226.5 137.82 222.918 141.399 218.5 141.399 214.082 141.399 210.5 137.82 210.5 133.405Z" stroke="#404040" stroke-width="0.333571" stroke-miterlimit="8" fill="none" fill-rule="evenodd"/><path d="M212 152.891C212 150.132 214.462 147.895 217.5 147.895 220.538 147.895 223 150.132 223 152.891 223 155.65 220.538 157.887 217.5 157.887 214.462 157.887 212 155.65 212 152.891Z" fill="#404040" fill-rule="evenodd"/><path d="M218.5 125.411 218.5 152.583" stroke="#404040" stroke-width="0.333571" stroke-miterlimit="8" fill="none" fill-rule="evenodd"/></g></svg>