<?xml version="1.0" encoding="UTF-8" standalone="no"?>
<svg
   width="210"
   height="210"
   overflow="hidden"
   version="1.1"
   id="svg527"
   sodipodi:docname="gate-cut-icon-thin.svg"
   inkscape:version="1.2.2 (b0a8486, 2022-12-01)"
   xmlns:inkscape="http://www.inkscape.org/namespaces/inkscape"
   xmlns:sodipodi="http://sodipodi.sourceforge.net/DTD/sodipodi-0.dtd"
   xmlns="http://www.w3.org/2000/svg"
   xmlns:svg="http://www.w3.org/2000/svg">
  <sodipodi:namedview
     id="namedview529"
     pagecolor="#ffffff"
     bordercolor="#000000"
     borderopacity="0.25"
     inkscape:showpageshadow="2"
     inkscape:pageopacity="0.0"
     inkscape:pagecheckerboard="true"
     inkscape:deskcolor="#d1d1d1"
     showgrid="false"
     inkscape:zoom="4.8904762"
     inkscape:cx="80.769231"
     inkscape:cy="105"
     inkscape:window-width="2560"
     inkscape:window-height="1359"
     inkscape:window-x="1920"
     inkscape:window-y="25"
     inkscape:window-maximized="0"
     inkscape:current-layer="svg527" />
  <defs
     id="defs497">
    <clipPath
       id="clip0">
      <rect
         x="0"
         y="0"
         width="210"
         height="210"
         id="rect476" />
    </clipPath>
    <clipPath
       id="clip1">
      <path
         d="M61.8526 211.615-29.173 81.4118 101.03-9.6138 192.056 120.589Z"
         fill-rule="evenodd"
         clip-rule="evenodd"
         id="path479" />
    </clipPath>
    <clipPath
       id="clip2">
      <path
         d="M61.8526 211.615-29.173 81.4117 101.03-9.61383 192.056 120.589Z"
         fill-rule="evenodd"
         clip-rule="evenodd"
         id="path482" />
    </clipPath>
    <clipPath
       id="clip3">
      <path
         d="M61.8526 211.615-29.173 81.4117 101.03-9.61383 192.056 120.589Z"
         fill-rule="evenodd"
         clip-rule="evenodd"
         id="path485" />
    </clipPath>
    <clipPath
       id="clip4">
      <path
         d="M192.056 120.589-29.173 81.4118 101.03-9.6138Z"
         fill-rule="evenodd"
         clip-rule="evenodd"
         id="path488" />
    </clipPath>
    <clipPath
       id="clip5">
      <path
         d="M61.8526 211.615-29.173 81.4117 101.03-9.61383 192.056 120.589Z"
         fill-rule="evenodd"
         clip-rule="evenodd"
         id="path491" />
    </clipPath>
    <clipPath
       id="clip6">
      <path
         d="M61.8526 211.615-29.173 81.4117 101.03-9.61383 192.056 120.589Z"
         fill-rule="evenodd"
         clip-rule="evenodd"
         id="path494" />
    </clipPath>
  </defs>
  <g
     clip-path="url(#clip0)"
     id="g525">
    <path
       d="M3.5 37.5007C3.5 18.7226 18.7226 3.5 37.5007 3.5L173.499 3.5C192.277 3.5 207.5 18.7226 207.5 37.5007L207.5 173.499C207.5 192.277 192.277 207.5 173.499 207.5L37.5007 207.5C18.7226 207.5 3.5 192.277 3.5 173.499Z"
       stroke="#000000"
       stroke-width="1.33439"
       stroke-miterlimit="8"
       fill="#F2F2F2"
       fill-rule="evenodd"
       id="path501" />
    <g
       clip-path="url(#clip1)"
       id="g509">
      <g
         clip-path="url(#clip2)"
         id="g507">
        <g
           clip-path="url(#clip3)"
           id="g505">
          <path
             d="M53.5359 63.9728C56.6649 68.4485 55.5631 74.6706 51.0873 77.7996 46.6116 80.9286 40.3895 79.8267 37.2605 75.351 34.1315 70.8752 35.2334 64.6532 39.7091 61.5242 44.1849 58.3952 50.4069 59.497 53.5359 63.9728ZM46.6042 115.865C47.916 121.208 44.4965 126.425 39.1542 127.737 33.8119 129.049 28.5944 125.629 27.2826 120.287 25.9708 114.945 29.3903 109.727 34.7326 108.415 39.9393 107.198 45.2923 110.523 46.6042 115.865ZM80.9012 97.3397C82.5132 99.6454 81.9826 102.641 79.6769 104.253 77.3713 105.865 74.3755 105.335 72.7635 103.029 71.1516 100.723 71.6822 97.7274 73.9878 96.1154 76.2935 94.5035 79.2893 95.034 80.9012 97.3397ZM29.1229 81.0401C31.5881 84.5664 34.9488 87.0629 38.7439 88.448L55.2652 96.4838 36.9891 98.3572C35.43 98.4377 33.8709 98.5181 32.271 98.8289 21.6272 101.222 14.9778 111.928 17.371 122.572 19.7642 133.216 30.4703 139.865 41.1141 137.472 51.7579 135.079 58.4073 124.373 56.0141 113.729 55.5544 111.627 54.6878 109.81 53.6856 108.088L74.4258 111.761 83.1576 110.098 132.667 133.839 151.919 132.495 106.79 105.49 158.449 95.6239 140.829 87.7502 86.5028 93.2217 78.8729 88.662 58.1327 84.9891C66.0676 78.4322 67.6472 66.8283 61.6736 58.2837 55.4156 49.3322 42.9715 47.1285 34.02 53.3865 25.0686 59.6445 22.8648 72.0886 29.1229 81.0401Z"
             id="path503" />
        </g>
      </g>
    </g>
    <path
       d="M101.5 86.5 190.903 86.5001"
       stroke="#404040"
       stroke-width="5.33757"
       stroke-miterlimit="8"
       fill="none"
       fill-rule="evenodd"
       id="path511" />
    <path
       d="M101.5 143.5 190.768 143.5"
       stroke="#404040"
       stroke-width="5.33757"
       stroke-miterlimit="8"
       fill="none"
       fill-rule="evenodd"
       id="path513" />
    <rect
       x="121.5"
       y="67.5"
       width="49"
       height="98"
       stroke="#404040"
       stroke-width="5.33757"
       stroke-miterlimit="8"
       fill="#FFFFFF"
       id="rect515" />
    <g
       clip-path="url(#clip4)"
       id="g523">
      <g
         clip-path="url(#clip5)"
         id="g521">
        <g
           clip-path="url(#clip6)"
           id="g519">
          <path
             d="M53.5359 63.9728C56.6649 68.4485 55.5631 74.6706 51.0873 77.7996 46.6116 80.9286 40.3895 79.8267 37.2605 75.351 34.1315 70.8752 35.2334 64.6532 39.7091 61.5242 44.1849 58.3952 50.4069 59.497 53.5359 63.9728ZM46.6042 115.865C47.916 121.208 44.4965 126.425 39.1542 127.737 33.8119 129.049 28.5944 125.629 27.2826 120.287 25.9708 114.945 29.3903 109.727 34.7326 108.415 39.9393 107.198 45.2923 110.523 46.6042 115.865ZM80.9012 97.3397C82.5132 99.6454 81.9826 102.641 79.6769 104.253 77.3713 105.865 74.3755 105.335 72.7635 103.029 71.1516 100.723 71.6822 97.7274 73.9878 96.1154 76.2935 94.5035 79.2893 95.034 80.9012 97.3397ZM29.1229 81.0401C31.5881 84.5664 34.9488 87.0629 38.7439 88.448L55.2652 96.4838 36.9891 98.3572C35.43 98.4377 33.8709 98.5181 32.271 98.8289 21.6272 101.222 14.9778 111.928 17.371 122.572 19.7642 133.216 30.4703 139.865 41.1141 137.472 51.7579 135.079 58.4073 124.373 56.0141 113.729 55.5544 111.627 54.6878 109.81 53.6856 108.088L74.4258 111.761 83.1576 110.098 132.667 133.839 151.919 132.495 106.79 105.49 158.449 95.6239 140.829 87.7502 86.5028 93.2217 78.8729 88.662 58.1327 84.9891C66.0676 78.4322 67.6472 66.8283 61.6736 58.2837 55.4156 49.3322 42.9715 47.1285 34.02 53.3865 25.0686 59.6445 22.8648 72.0886 29.1229 81.0401Z"
             id="path517" />
        </g>
      </g>
    </g>
  </g>
</svg>
