<svg xml:space="preserve" width="699.2" height="151.2" xmlns="http://www.w3.org/2000/svg"><defs><clipPath clipPathUnits="userSpaceOnUse" id="a"><path d="M0 0h524.4v113.4H0Z" clip-rule="evenodd"/></clipPath><clipPath clipPathUnits="userSpaceOnUse" id="b"><path d="M0 0h524.4v113.4H0Z" clip-rule="evenodd"/></clipPath><clipPath clipPathUnits="userSpaceOnUse" id="c"><path d="M0 0h524.4v113.4H0Z" clip-rule="evenodd"/></clipPath><clipPath clipPathUnits="userSpaceOnUse" id="d"><path d="M115.68 30h53.16v53.28h-53.16z" clip-rule="evenodd"/></clipPath><clipPath clipPathUnits="userSpaceOnUse" id="e"><path d="M0 0h5.89v5.894H0Z"/></clipPath><clipPath clipPathUnits="userSpaceOnUse" id="f"><path d="M.085 5.809h5.76V.049H.085" clip-rule="evenodd"/></clipPath><clipPath clipPathUnits="userSpaceOnUse" id="g"><path d="M.085 5.809h5.76V.049H.085" clip-rule="evenodd"/></clipPath><clipPath clipPathUnits="userSpaceOnUse" id="h"><path d="M.085 5.809h5.76V.049H.085" clip-rule="evenodd"/></clipPath><clipPath clipPathUnits="userSpaceOnUse" id="i"><path d="M.085 5.809h5.76V.049H.085" clip-rule="evenodd"/></clipPath><clipPath clipPathUnits="userSpaceOnUse" id="l"><path d="M0 0h524.4v113.4H0Z" clip-rule="evenodd"/></clipPath><clipPath clipPathUnits="userSpaceOnUse" id="o"><path d="M0 0h524.4v113.4H0Z" clip-rule="evenodd"/></clipPath><clipPath clipPathUnits="userSpaceOnUse" id="r"><path d="M0 0h524.4v113.4H0Z" clip-rule="evenodd"/></clipPath><clipPath clipPathUnits="userSpaceOnUse" id="s"><path d="M0 0h524.4v113.4H0Z" clip-rule="evenodd"/></clipPath><clipPath clipPathUnits="userSpaceOnUse" id="v"><path d="M0 0h524.4v113.4H0Z" clip-rule="evenodd"/></clipPath><clipPath clipPathUnits="userSpaceOnUse" id="y"><path d="M0 0h524.4v113.4H0Z" clip-rule="evenodd"/></clipPath><clipPath clipPathUnits="userSpaceOnUse" id="z"><path d="M0 0h524.4v113.4H0Z" clip-rule="evenodd"/></clipPath><clipPath clipPathUnits="userSpaceOnUse" id="A"><path d="M0 0h524.4v113.4H0Z" clip-rule="evenodd"/></clipPath><clipPath clipPathUnits="userSpaceOnUse" id="D"><path d="M489.48 38.76h12.24v7.2h-12.24z" clip-rule="evenodd"/></clipPath><clipPath clipPathUnits="userSpaceOnUse" id="E"><path d="M0 0h8.52v4.931H0Z"/></clipPath><clipPath clipPathUnits="userSpaceOnUse" id="F"><path d="M.085.046h8.4v4.8h-8.4z" clip-rule="evenodd"/></clipPath><clipPath clipPathUnits="userSpaceOnUse" id="G"><path d="M.085 4.846h8.4v-4.8h-8.4" clip-rule="evenodd"/></clipPath><clipPath clipPathUnits="userSpaceOnUse" id="H"><path d="M489.48 22.68h12.24v7.2h-12.24z" clip-rule="evenodd"/></clipPath><clipPath clipPathUnits="userSpaceOnUse" id="I"><path d="M0 0h8.52v4.931H0Z"/></clipPath><clipPath clipPathUnits="userSpaceOnUse" id="J"><path d="M.085.046h8.4v4.8h-8.4z" clip-rule="evenodd"/></clipPath><clipPath clipPathUnits="userSpaceOnUse" id="K"><path d="M.085 4.846h8.4v-4.8h-8.4" clip-rule="evenodd"/></clipPath><clipPath clipPathUnits="userSpaceOnUse" id="L"><path d="M489.48 30.72h12.24v7.2h-12.24z" clip-rule="evenodd"/></clipPath><clipPath clipPathUnits="userSpaceOnUse" id="M"><path d="M0 0h8.52v4.931H0Z"/></clipPath><clipPath clipPathUnits="userSpaceOnUse" id="N"><path d="M.085.046h8.4v4.8h-8.4z" clip-rule="evenodd"/></clipPath><clipPath clipPathUnits="userSpaceOnUse" id="O"><path d="M.085 4.846h8.4v-4.8h-8.4" clip-rule="evenodd"/></clipPath><clipPath clipPathUnits="userSpaceOnUse" id="P"><path d="M0 0h524.4v113.4H0Z" clip-rule="evenodd"/></clipPath><clipPath clipPathUnits="userSpaceOnUse" id="Q"><path d="M0 0h524.4v113.4H0Z" clip-rule="evenodd"/></clipPath><clipPath clipPathUnits="userSpaceOnUse" id="R"><path d="M0 113.4h524.4V0H0" clip-rule="evenodd"/></clipPath><clipPath clipPathUnits="userSpaceOnUse" id="U"><path d="M378.36 92.16h12.24v7.2h-12.24z" clip-rule="evenodd"/></clipPath><clipPath clipPathUnits="userSpaceOnUse" id="V"><path d="M0 0h8.52v4.931H0Z"/></clipPath><clipPath clipPathUnits="userSpaceOnUse" id="W"><path d="M.085.046h8.4v4.8h-8.4z" clip-rule="evenodd"/></clipPath><clipPath clipPathUnits="userSpaceOnUse" id="X"><path d="M.085 4.846h8.4v-4.8h-8.4" clip-rule="evenodd"/></clipPath><clipPath clipPathUnits="userSpaceOnUse" id="Y"><path d="M378.36 76.08h12.24v7.2h-12.24z" clip-rule="evenodd"/></clipPath><clipPath clipPathUnits="userSpaceOnUse" id="Z"><path d="M0 0h8.52v4.931H0Z"/></clipPath><clipPath clipPathUnits="userSpaceOnUse" id="aa"><path d="M.085.046h8.4v4.8h-8.4z" clip-rule="evenodd"/></clipPath><clipPath clipPathUnits="userSpaceOnUse" id="ab"><path d="M.085 4.846h8.4v-4.8h-8.4" clip-rule="evenodd"/></clipPath><clipPath clipPathUnits="userSpaceOnUse" id="ac"><path d="M378.36 84.12h12.24v7.2h-12.24z" clip-rule="evenodd"/></clipPath><clipPath clipPathUnits="userSpaceOnUse" id="ad"><path d="M0 0h8.52v4.931H0Z"/></clipPath><clipPath clipPathUnits="userSpaceOnUse" id="ae"><path d="M.085.046h8.4v4.8h-8.4z" clip-rule="evenodd"/></clipPath><clipPath clipPathUnits="userSpaceOnUse" id="af"><path d="M.085 4.846h8.4v-4.8h-8.4" clip-rule="evenodd"/></clipPath><clipPath clipPathUnits="userSpaceOnUse" id="ag"><path d="M344.64 78.6h17.52v17.52h-17.52z" clip-rule="evenodd"/></clipPath><clipPath clipPathUnits="userSpaceOnUse" id="ah"><path d="M0 0h5.89v5.894H0Z"/></clipPath><clipPath clipPathUnits="userSpaceOnUse" id="ai"><path d="M0 0h524.4v113.4H0Z" clip-rule="evenodd"/></clipPath><clipPath clipPathUnits="userSpaceOnUse" id="aj"><path d="M0 0h524.4v113.4H0Z" clip-rule="evenodd"/></clipPath><clipPath clipPathUnits="userSpaceOnUse" id="ak"><path d="M0 0h524.4v113.4H0Z" clip-rule="evenodd"/></clipPath><clipPath clipPathUnits="userSpaceOnUse" id="al"><path d="M7.44 24.48H39v31.56H7.44Z" clip-rule="evenodd"/></clipPath><clipPath clipPathUnits="userSpaceOnUse" id="am"><path d="M0 0h5.89v5.894H0Z"/></clipPath><clipPath clipPathUnits="userSpaceOnUse" id="an"><path d="M.085 5.809h5.76V.049H.085" clip-rule="evenodd"/></clipPath><clipPath clipPathUnits="userSpaceOnUse" id="ao"><path d="M.085 5.809h5.76V.049H.085" clip-rule="evenodd"/></clipPath><clipPath clipPathUnits="userSpaceOnUse" id="ap"><path d="M0 0h524.4v113.4H0Z" clip-rule="evenodd"/></clipPath><clipPath clipPathUnits="userSpaceOnUse" id="aq"><path d="M0 0h524.4v113.4H0Z" clip-rule="evenodd"/></clipPath><clipPath clipPathUnits="userSpaceOnUse" id="ar"><path d="M285.12 18.96h31.56v31.56h-31.56z" clip-rule="evenodd"/></clipPath><clipPath clipPathUnits="userSpaceOnUse" id="as"><path d="M0 0h5.89v5.894H0Z"/></clipPath><clipPath clipPathUnits="userSpaceOnUse" id="at"><path d="M.085 5.809h5.76V.049H.085" clip-rule="evenodd"/></clipPath><clipPath clipPathUnits="userSpaceOnUse" id="au"><path d="M.085 5.809h5.76V.049H.085" clip-rule="evenodd"/></clipPath><clipPath clipPathUnits="userSpaceOnUse" id="av"><path d="M0 113.4h524.4V0H0" clip-rule="evenodd"/></clipPath><clipPath clipPathUnits="userSpaceOnUse" id="aw"><path d="M0 0h524.4v113.4H0Z" clip-rule="evenodd"/></clipPath><clipPath clipPathUnits="userSpaceOnUse" id="ax"><path d="M322.8 39.84h14.88v14.88H322.8Z" clip-rule="evenodd"/></clipPath><clipPath clipPathUnits="userSpaceOnUse" id="ay"><path d="M0 0h11.66v11.639H0Z"/></clipPath><clipPath clipPathUnits="userSpaceOnUse" id="az"><path d="M290.52 93.48h14.88v14.88h-14.88z" clip-rule="evenodd"/></clipPath><clipPath clipPathUnits="userSpaceOnUse" id="aA"><path d="M0 0h11.66v11.639H0Z"/></clipPath><clipPath clipPathUnits="userSpaceOnUse" id="aB"><path d="M410.52 39.84h14.88v14.88h-14.88Z" clip-rule="evenodd"/></clipPath><clipPath clipPathUnits="userSpaceOnUse" id="aC"><path d="M0 0h11.66v11.639H0Z"/></clipPath><linearGradient x1="39" y1="129.72" x2="39" y2="77.64" gradientUnits="userSpaceOnUse" spreadMethod="pad" id="j"><stop style="stop-opacity:1;stop-color:#e5e5e5" offset="0"/><stop style="stop-opacity:1;stop-color:#e5e5e5" offset="1"/></linearGradient><linearGradient x1="39" y1="103.68" x2="39" y2="77.64" gradientUnits="userSpaceOnUse" spreadMethod="pad" id="k"><stop style="stop-opacity:1;stop-color:#cdcdcd" offset="0"/><stop style="stop-opacity:1;stop-color:#b8b8b8" offset="1"/></linearGradient><linearGradient x1="208.56" y1="125.88" x2="208.56" y2="73.8" gradientUnits="userSpaceOnUse" spreadMethod="pad" id="m"><stop style="stop-opacity:1;stop-color:#e5e5e5" offset="0"/><stop style="stop-opacity:1;stop-color:#e5e5e5" offset="1"/></linearGradient><linearGradient x1="208.56" y1="99.84" x2="208.56" y2="73.8" gradientUnits="userSpaceOnUse" spreadMethod="pad" id="n"><stop style="stop-opacity:1;stop-color:#cdcdcd" offset="0"/><stop style="stop-opacity:1;stop-color:#b8b8b8" offset="1"/></linearGradient><linearGradient x1="57" y1="79.08" x2="57" y2="26.04" gradientUnits="userSpaceOnUse" spreadMethod="pad" id="p"><stop style="stop-opacity:1;stop-color:#e5e5e5" offset="0"/><stop style="stop-opacity:1;stop-color:#e5e5e5" offset="1"/></linearGradient><linearGradient x1="57" y1="52.56" x2="57" y2="26.04" gradientUnits="userSpaceOnUse" spreadMethod="pad" id="q"><stop style="stop-opacity:1;stop-color:#cdcdcd" offset="0"/><stop style="stop-opacity:1;stop-color:#b8b8b8" offset="1"/></linearGradient><linearGradient x1="208.74" y1="79.32" x2="208.74" y2="27.24" gradientUnits="userSpaceOnUse" spreadMethod="pad" id="t"><stop style="stop-opacity:1;stop-color:#e5e5e5" offset="0"/><stop style="stop-opacity:1;stop-color:#e5e5e5" offset="1"/></linearGradient><linearGradient x1="208.74" y1="53.28" x2="208.74" y2="27.24" gradientUnits="userSpaceOnUse" spreadMethod="pad" id="u"><stop style="stop-opacity:1;stop-color:#cdcdcd" offset="0"/><stop style="stop-opacity:1;stop-color:#b8b8b8" offset="1"/></linearGradient><linearGradient x1="367.98" y1="73.56" x2="367.98" y2="20.52" gradientUnits="userSpaceOnUse" spreadMethod="pad" id="w"><stop style="stop-opacity:1;stop-color:#e5e5e5" offset="0"/><stop style="stop-opacity:1;stop-color:#e5e5e5" offset="1"/></linearGradient><linearGradient x1="367.98" y1="47.04" x2="367.98" y2="20.52" gradientUnits="userSpaceOnUse" spreadMethod="pad" id="x"><stop style="stop-opacity:1;stop-color:#cdcdcd" offset="0"/><stop style="stop-opacity:1;stop-color:#b8b8b8" offset="1"/></linearGradient><linearGradient x1="474.96" y1="75.96" x2="474.96" y2="20.04" gradientUnits="userSpaceOnUse" spreadMethod="pad" id="B"><stop style="stop-opacity:1;stop-color:#e5e5e5" offset="0"/><stop style="stop-opacity:1;stop-color:#e5e5e5" offset="1"/></linearGradient><linearGradient x1="474.96" y1="48" x2="474.96" y2="20.04" gradientUnits="userSpaceOnUse" spreadMethod="pad" id="C"><stop style="stop-opacity:1;stop-color:#cdcdcd" offset="0"/><stop style="stop-opacity:1;stop-color:#b8b8b8" offset="1"/></linearGradient><linearGradient x1="364.5" y1="129.72" x2="364.5" y2="73.8" gradientUnits="userSpaceOnUse" spreadMethod="pad" id="S"><stop style="stop-opacity:1;stop-color:#e5e5e5" offset="0"/><stop style="stop-opacity:1;stop-color:#e5e5e5" offset="1"/></linearGradient><linearGradient x1="364.5" y1="101.76" x2="364.5" y2="73.8" gradientUnits="userSpaceOnUse" spreadMethod="pad" id="T"><stop style="stop-opacity:1;stop-color:#cdcdcd" offset="0"/><stop style="stop-opacity:1;stop-color:#b8b8b8" offset="1"/></linearGradient></defs><g clip-path="url(#a)" transform="matrix(1.33333 0 0 -1.33333 0 151.2)"><path d="M0 0h524.4v113.4H0Z" style="fill:#fff;fill-opacity:1;fill-rule:evenodd;stroke:none"/></g><path d="m166.68 72.312 21.47 35.088M166.32 38.4l22.94-33.463" style="fill:none;stroke:#7f7f7f;stroke-width:.96;stroke-linecap:butt;stroke-linejoin:miter;stroke-miterlimit:10;stroke-dasharray:3.84,2.88;stroke-dashoffset:0;stroke-opacity:1" transform="matrix(1.33333 0 0 -1.33333 0 151.2)"/><path d="M187.32 104.76c0 3.65 2.95 6.6 6.6 6.6h316.44c3.65 0 6.6-2.95 6.6-6.6V8.999a6.596 6.596 0 0 0-6.6-6.599H193.92c-3.65 0-6.6 2.954-6.6 6.599z" style="fill:#f2f2f2;fill-opacity:1;fill-rule:evenodd;stroke:none" transform="matrix(1.33333 0 0 -1.33333 0 151.2)"/><path d="M187.32 104.76c0 3.65 2.95 6.6 6.6 6.6h316.44c3.65 0 6.6-2.95 6.6-6.6V8.999a6.596 6.596 0 0 0-6.6-6.599H193.92c-3.65 0-6.6 2.954-6.6 6.599z" style="fill:none;stroke:#7f7f7f;stroke-width:.96;stroke-linecap:butt;stroke-linejoin:miter;stroke-miterlimit:10;stroke-dasharray:3.84,2.88;stroke-dashoffset:0;stroke-opacity:1" transform="matrix(1.33333 0 0 -1.33333 0 151.2)"/><path d="M73.32 58.92h30.93v-4.56H73.32Zm28.65 4.56 13.68-6.84-13.68-6.84z" style="fill:#000;fill-opacity:1;fill-rule:nonzero;stroke:none" transform="matrix(1.33333 0 0 -1.33333 0 151.2)"/><g clip-path="url(#b)" transform="matrix(1.33333 0 0 -1.33333 0 151.2)"><text transform="matrix(1 0 0 -1 120.67 22.488)" style="font-style:italic;font-variant:normal;font-weight:400;font-size:9.96px;font-family:Calibri;-inkscape-font-specification:Calibri-Italic;writing-mode:lr-tb;fill:#000;fill-opacity:1;fill-rule:nonzero;stroke:none"><tspan x="0 6.61344 11.8026 16.97184 22.141081 25.47768 30.6768" y="0">Quantum</tspan></text></g><g clip-path="url(#c)" transform="matrix(1.33333 0 0 -1.33333 0 151.2)"><text transform="matrix(1 0 0 -1 104.23 12.888)" style="font-style:italic;font-variant:normal;font-weight:400;font-size:9.984px;font-family:Calibri;-inkscape-font-specification:Calibri-Italic;writing-mode:lr-tb;fill:#000;fill-opacity:1;fill-rule:nonzero;stroke:none"><tspan x="0 8.5363197 13.658112 18.829824 23.961599 26.257919 31.060225 33.096958 37.899265 42.671616 50.608894 55.740673 58.036991 63.198719 66.543358" y="0">Module Template</tspan></text></g><g clip-path="url(#d)" transform="matrix(1.33333 0 0 -1.33333 0 151.2)"><g clip-path="url(#e)" transform="matrix(9.02608 0 0 9.04058 115.68 30)"><path d="M.325 4.849v-3.84l2.64-.72 2.64.72v3.84l-2.64.72z" style="fill:#fff;fill-opacity:1;fill-rule:nonzero;stroke:none"/><path d="m.34 4.79.045.059v-3.84l-.044.058 2.64-.72h-.032l2.64.72-.044-.058v3.84l.044-.058-2.64.72h.032Zm2.625.84 2.7-.736V.963l-2.7-.737-2.7.737v3.931Z" style="fill:#000;fill-opacity:1;fill-rule:nonzero;stroke:none"/><path d="m.34 4.907 2.685-.732V.288h-.12v3.885l2.684.733.032-.116-2.64-.72.044.058V.289h-.12v3.84l.044-.058-2.64.72Z" style="fill:#000;fill-opacity:1;fill-rule:nonzero;stroke:none"/><path d="M1.285 4.573v-.48l.24-.15.24.06.24-.15v.54l2.64.72-.72.192z" style="fill:#fff;fill-opacity:1;fill-rule:nonzero;stroke:none"/><path d="m1.3 4.515.045.058v-.48l-.028.05.24-.15-.047.008.265.066.262-.163-.092-.051v.585l2.684.733v-.116l-.72.192h.032zm2.625.852.95-.254-2.854-.778.044.058v-.649l-.332.208.046-.008-.264-.066-.29.181v.56z" style="fill:#000;fill-opacity:1;fill-rule:nonzero;stroke:none"/><g clip-path="url(#f)"><path d="M1.768 2.074c0-.092-.075-.148-.167-.125a.227.227 0 0 0-.166.207c0 .092.075.148.166.125a.227.227 0 0 0 .167-.207Z" style="fill:#000;fill-opacity:1;fill-rule:nonzero;stroke:none"/></g><g clip-path="url(#g)"><path d="M2.576 2.426c-.047.092-.152.157-.296.193a1.243 1.243 0 0 1-.313.03c-.08.311-.213.536-.366.574-.15.037-.285-.118-.362-.386-.111.055-.21.096-.3.119-.143.035-.248.023-.296-.046-.077-.113.025-.352.239-.621-.205-.16-.3-.34-.225-.49.047-.091.153-.156.297-.192.083-.021.18-.031.285-.033.08-.308.213-.53.362-.566.15-.038.286.117.363.385.11-.055.21-.096.3-.118.143-.036.248-.024.295.045.075.111-.02.34-.224.601.219.164.318.353.24.505Zm-.296.082c.102-.026.177-.07.199-.113.042-.083-.033-.233-.222-.374a3.19 3.19 0 0 1-.224.236 2.296 2.296 0 0 1-.041.281c.105.002.205-.01.288-.03Zm-.496-.726a2.057 2.057 0 0 0-.174-.048 3.674 3.674 0 0 0-.335.274c-.006.063-.006.123-.006.19 0 .06.003.118.006.176.055.025.113.046.177.066.052.018.105.032.158.044.052-.038.105-.079.157-.122.056-.047.111-.094.161-.14.006-.062.006-.123.006-.19 0-.069-.003-.135-.009-.197-.044-.02-.091-.035-.14-.053Zm.127-.085a7.902 7.902 0 0 0-.024-.146c-.048.028-.097.058-.147.092.033.008.066.02.1.03l.071.024Zm-.431.011a1.954 1.954 0 0 0-.161-.018c-.011.055-.02.113-.028.173.03-.027.058-.05.092-.078.03-.024.063-.052.097-.077Zm-.319.412a2.2 2.2 0 0 0-.119.129c.036.024.078.047.12.07 0-.03-.004-.06-.004-.093 0-.037 0-.072.003-.106zm.127.391c.009.06.017.115.028.168.053-.03.108-.066.164-.102a1.036 1.036 0 0 1-.086-.025c-.033-.014-.07-.027-.105-.04Zm.449.002c.05.01.1.014.15.018.01-.052.019-.107.027-.164l-.091.078c-.028.02-.055.044-.086.068Zm.305-.402a2.81 2.81 0 0 0 .135-.148c-.041-.025-.086-.053-.135-.077.002.038.002.077.002.116 0 .039 0 .075-.002.109zm-.44 1c.082-.02.19-.194.26-.466a2.456 2.456 0 0 1-.252-.036c-.092.064-.18.122-.266.171.07.235.174.353.257.332ZM.737 2.83c.024.035.096.04.199.014.08-.02.172-.057.271-.107a1.975 1.975 0 0 1-.041-.274 1.35 1.35 0 0 1-.208-.118c-.185.235-.263.423-.221.485Zm.216-1.114c-.103.025-.178.069-.2.113-.041.082.03.225.208.363a4.88 4.88 0 0 1 .208-.217c.008-.1.022-.197.041-.288a.985.985 0 0 0-.257.029Zm.647-.597c-.083.021-.188.191-.257.458.086.006.174.017.266.036.085-.06.169-.114.249-.16-.07-.237-.175-.354-.258-.334Zm.864.283c-.025-.035-.097-.04-.2-.014-.08.02-.174.058-.27.107.016.079.03.161.038.253.083.038.158.077.224.121.178-.227.25-.405.208-.467Z" style="fill:#000;fill-opacity:1;fill-rule:nonzero;stroke:none"/></g><g clip-path="url(#h)"><path d="M3.589 2.986V1.162l1.536.383v.576c0 .192-.48-.311-.48.169 0 .336.48.071.48.407v.672l-.576-.143c-.144-.036.096.504-.192.432-.48-.12-.048-.492-.288-.552Z" style="fill:#bababa;fill-opacity:1;fill-rule:nonzero;stroke:none"/></g><g clip-path="url(#i)"><path d="m3.607 2.925.045.059V1.16l-.074.058 1.538.383-.046-.058v.577l.008-.03-.022.037.051-.03h-.052l.023.005-.171-.07-.105-.017-.109.01-.077.1-.027.162.028.124.075.085.182.05.165.044-.03-.018.053.06-.013-.026.022.097-.001-.013v.675l.074-.058-.59-.146-.087.017-.028.099.016.176V3.44l-.022.165.021-.038-.045.038.038-.014h-.09l.021.004-.142-.053.024.016-.068-.075.012.02-.03-.083.003.026.008-.09v.004l.024-.162-.024-.095-.089-.055Zm.45.237-.016-.008.06.038-.027-.036.015.06v-.024l-.024.152-.008.105.038.106.085.095.167.061h.122l.08-.066.026-.195-.015-.172-.002.022.015-.052-.046.042.037-.008h-.026l.652.16v-.758l-.027-.119-.075-.085-.182-.05-.165-.044.03.018-.053-.06.013.026-.022-.097v.023l.023-.135-.012.027.052-.068-.041.023.075-.007H4.79l.09.014-.013-.003.176.072h.098l.049-.081v-.641l-1.658-.413V3.03z" style="fill:#000;fill-opacity:1;fill-rule:nonzero;stroke:none"/></g></g></g><path d="M28.68 103.68h20.64V83.537l-5.897-5.897H28.68Z" style="fill:url(#j);fill-opacity:1;fill-rule:evenodd;stroke:none" transform="matrix(1.33333 0 0 -1.33333 0 151.2)"/><path d="m43.423 77.64 1.18 4.717 4.717 1.18z" style="fill:url(#k);fill-opacity:1;fill-rule:evenodd;stroke:none" transform="matrix(1.33333 0 0 -1.33333 0 151.2)"/><path d="m43.423 77.64 1.18 4.717 4.717 1.18-5.897-5.897H28.68v26.04h20.64V83.537" style="fill:none;stroke:#262626;stroke-width:.96;stroke-linecap:butt;stroke-linejoin:miter;stroke-miterlimit:10;stroke-dasharray:none;stroke-opacity:1" transform="matrix(1.33333 0 0 -1.33333 0 151.2)"/><path d="M31.8 99.84h14.462M31.92 98.16h14.462M31.8 96.36h14.462M31.8 94.56h14.462M31.8 92.76h14.462M31.8 91.08h14.462M31.92 89.28h14.462M31.8 87.48h14.462" style="fill:none;stroke:#262626;stroke-width:.72;stroke-linecap:butt;stroke-linejoin:miter;stroke-miterlimit:10;stroke-dasharray:none;stroke-opacity:1" transform="matrix(1.33333 0 0 -1.33333 0 151.2)"/><g clip-path="url(#l)" transform="matrix(1.33333 0 0 -1.33333 0 151.2)"><text transform="matrix(1 0 0 -1 26.352 68.592)" style="font-style:italic;font-variant:normal;font-weight:400;font-size:9.984px;font-family:Calibri;-inkscape-font-specification:Calibri-Italic;writing-mode:lr-tb;fill:#000;fill-opacity:1;fill-rule:nonzero;stroke:none"><tspan x="0 2.5159681 7.6976638 12.869376 18.041088 21.385729" y="0">Inputs</tspan></text></g><path d="M198.24 99.84h20.64V79.697l-5.9-5.897h-14.74z" style="fill:url(#m);fill-opacity:1;fill-rule:evenodd;stroke:none" transform="matrix(1.33333 0 0 -1.33333 0 151.2)"/><path d="m212.98 73.8 1.18 4.717 4.72 1.18z" style="fill:url(#n);fill-opacity:1;fill-rule:evenodd;stroke:none" transform="matrix(1.33333 0 0 -1.33333 0 151.2)"/><path d="m212.98 73.8 1.18 4.717 4.72 1.18-5.9-5.897h-14.74v26.04h20.64V79.697" style="fill:none;stroke:#262626;stroke-width:.96;stroke-linecap:butt;stroke-linejoin:miter;stroke-miterlimit:10;stroke-dasharray:none;stroke-opacity:1" transform="matrix(1.33333 0 0 -1.33333 0 151.2)"/><path d="m204.5 86.842-3.53 3.453 3.53 3.453.87-.854-2.65-2.599 2.65-2.599zM212.64 86.842l-.87.854 2.65 2.599-2.65 2.599.87.854 3.53-3.453zM206.52 86.858l2.87 6.982 1.11-.463-2.87-6.982z" style="fill:#262626;fill-opacity:1;fill-rule:evenodd;stroke:none" transform="matrix(1.33333 0 0 -1.33333 0 151.2)"/><g clip-path="url(#o)" transform="matrix(1.33333 0 0 -1.33333 0 151.2)"><text transform="matrix(1 0 0 -1 197.71 63.408)" style="font-style:italic;font-variant:normal;font-weight:400;font-size:9.96px;font-family:Calibri;-inkscape-font-specification:Calibri-Italic;writing-mode:lr-tb;fill:#000;fill-opacity:1;fill-rule:nonzero;stroke:none"><tspan x="0 5.1592798 10.3086 15.45792" y="0">Code</tspan></text></g><path d="M46.44 52.56h21.12V29.664l-3.624-3.624H46.44Z" style="fill:url(#p);fill-opacity:1;fill-rule:evenodd;stroke:none" transform="matrix(1.33333 0 0 -1.33333 0 151.2)"/><path d="m63.936 26.04.725 2.899 2.899.725z" style="fill:url(#q);fill-opacity:1;fill-rule:evenodd;stroke:none" transform="matrix(1.33333 0 0 -1.33333 0 151.2)"/><path d="m63.936 26.04.725 2.899 2.899.725-3.624-3.624H46.44v26.52h21.12V29.664" style="fill:none;stroke:#262626;stroke-width:.96;stroke-linecap:butt;stroke-linejoin:miter;stroke-miterlimit:10;stroke-dasharray:none;stroke-opacity:1" transform="matrix(1.33333 0 0 -1.33333 0 151.2)"/><path d="M47.64 39.24h18.395M47.64 32.88h18.158M47.64 45.96h18.158M61.08 32.7a2.1 2.1 0 1 0 4.2 0 2.1 2.1 0 0 0-4.2 0z" style="fill:none;stroke:#262626;stroke-width:.48;stroke-linecap:butt;stroke-linejoin:miter;stroke-miterlimit:10;stroke-dasharray:none;stroke-opacity:1" transform="matrix(1.33333 0 0 -1.33333 0 151.2)"/><path d="M61.8 46.2c0 .795.618 1.44 1.38 1.44.762 0 1.38-.645 1.38-1.44 0-.795-.618-1.44-1.38-1.44-.762 0-1.38.645-1.38 1.44z" style="fill:#262626;fill-opacity:1;fill-rule:evenodd;stroke:none" transform="matrix(1.33333 0 0 -1.33333 0 151.2)"/><path d="M63.12 30.59v14.17M48.48 32.58c0 1.16.967 2.1 2.16 2.1s2.16-.94 2.16-2.1c0-1.16-.967-2.1-2.16-2.1s-2.16.94-2.16 2.1z" style="fill:none;stroke:#262626;stroke-width:.48;stroke-linecap:butt;stroke-linejoin:miter;stroke-miterlimit:10;stroke-dasharray:none;stroke-opacity:1" transform="matrix(1.33333 0 0 -1.33333 0 151.2)"/><path d="M49.2 46.02c0 .762.645 1.38 1.44 1.38.795 0 1.44-.618 1.44-1.38 0-.762-.645-1.38-1.44-1.38-.795 0-1.44.618-1.44 1.38z" style="fill:#262626;fill-opacity:1;fill-rule:evenodd;stroke:none" transform="matrix(1.33333 0 0 -1.33333 0 151.2)"/><path d="M50.64 30.47v14.17" style="fill:none;stroke:#262626;stroke-width:.48;stroke-linecap:butt;stroke-linejoin:miter;stroke-miterlimit:10;stroke-dasharray:none;stroke-opacity:1" transform="matrix(1.33333 0 0 -1.33333 0 151.2)"/><path d="M53.88 42.48h6.6v6.72h-6.6z" style="fill:#fff;fill-opacity:1;fill-rule:evenodd;stroke:none" transform="matrix(1.33333 0 0 -1.33333 0 151.2)"/><path d="M53.88 42.48h6.6v6.72h-6.6z" style="fill:none;stroke:#262626;stroke-width:.72;stroke-linecap:butt;stroke-linejoin:miter;stroke-miterlimit:10;stroke-dasharray:none;stroke-opacity:1" transform="matrix(1.33333 0 0 -1.33333 0 151.2)"/><g clip-path="url(#r)" transform="matrix(1.33333 0 0 -1.33333 0 151.2)"><text transform="matrix(1 0 0 -1 55.008 43.368)" style="font-variant:normal;font-weight:400;font-size:6.96px;font-family:Calibri;-inkscape-font-specification:Calibri;writing-mode:lr-tb;fill:#262626;fill-opacity:1;fill-rule:nonzero;stroke:none"><tspan x="0" y="0">H</tspan></text></g><path d="M53.88 29.52h6.48v6.72h-6.48z" style="fill:#fff;fill-opacity:1;fill-rule:evenodd;stroke:none" transform="matrix(1.33333 0 0 -1.33333 0 151.2)"/><path d="M53.88 29.52h6.48v6.72h-6.48z" style="fill:none;stroke:#262626;stroke-width:.72;stroke-linecap:butt;stroke-linejoin:miter;stroke-miterlimit:10;stroke-dasharray:none;stroke-opacity:1" transform="matrix(1.33333 0 0 -1.33333 0 151.2)"/><g clip-path="url(#s)" transform="matrix(1.33333 0 0 -1.33333 0 151.2)"><text transform="matrix(1 0 0 -1 54.96 30.384)" style="font-variant:normal;font-weight:400;font-size:6.96px;font-family:Calibri;-inkscape-font-specification:Calibri;writing-mode:lr-tb;fill:#262626;fill-opacity:1;fill-rule:nonzero;stroke:none"><tspan x="0" y="0">H</tspan></text></g><path d="M198.36 53.28h20.76V33.171l-5.93-5.931h-14.83z" style="fill:url(#t);fill-opacity:1;fill-rule:evenodd;stroke:none" transform="matrix(1.33333 0 0 -1.33333 0 151.2)"/><path d="m213.19 27.24 1.19 4.745 4.74 1.186z" style="fill:url(#u);fill-opacity:1;fill-rule:evenodd;stroke:none" transform="matrix(1.33333 0 0 -1.33333 0 151.2)"/><path d="m213.19 27.24 1.19 4.745 4.74 1.186-5.93-5.931h-14.83v26.04h20.76V33.171" style="fill:none;stroke:#262626;stroke-width:.96;stroke-linecap:butt;stroke-linejoin:miter;stroke-miterlimit:10;stroke-dasharray:none;stroke-opacity:1" transform="matrix(1.33333 0 0 -1.33333 0 151.2)"/><path d="M201.48 49.56h14.46M201.6 47.76h14.46M201.48 45.96h14.46M201.48 44.16h14.46M201.48 42.48h14.46M201.6 40.68h14.46M201.6 38.88h14.46M201.48 37.08h14.46" style="fill:none;stroke:#262626;stroke-width:.72;stroke-linecap:butt;stroke-linejoin:miter;stroke-miterlimit:10;stroke-dasharray:none;stroke-opacity:1" transform="matrix(1.33333 0 0 -1.33333 0 151.2)"/><g clip-path="url(#v)" transform="matrix(1.33333 0 0 -1.33333 0 151.2)"><text transform="matrix(1 0 0 -1 196.2 16.488)" style="font-style:italic;font-variant:normal;font-weight:400;font-size:9.96px;font-family:Calibri;-inkscape-font-specification:Calibri-Italic;writing-mode:lr-tb;fill:#000;fill-opacity:1;fill-rule:nonzero;stroke:none"><tspan x="0 2.5099199 7.6691999 12.81852 17.96784 21.30444" y="0">Inputs</tspan></text></g><path d="M357.48 47.04h21V24.123l-3.6-3.603h-17.4z" style="fill:url(#w);fill-opacity:1;fill-rule:evenodd;stroke:none" transform="matrix(1.33333 0 0 -1.33333 0 151.2)"/><path d="m374.88 20.52.72 2.883 2.88.72z" style="fill:url(#x);fill-opacity:1;fill-rule:evenodd;stroke:none" transform="matrix(1.33333 0 0 -1.33333 0 151.2)"/><path d="m374.88 20.52.72 2.883 2.88.72-3.6-3.603h-17.4v26.52h21V24.123" style="fill:none;stroke:#262626;stroke-width:.96;stroke-linecap:butt;stroke-linejoin:miter;stroke-miterlimit:10;stroke-dasharray:none;stroke-opacity:1" transform="matrix(1.33333 0 0 -1.33333 0 151.2)"/><path d="M358.56 33.72h18.4M358.56 27.36h18.16M358.56 40.44h18.16M372 27.24c0 1.193.97 2.16 2.16 2.16 1.19 0 2.16-.967 2.16-2.16s-.97-2.16-2.16-2.16c-1.19 0-2.16.967-2.16 2.16z" style="fill:none;stroke:#262626;stroke-width:.48;stroke-linecap:butt;stroke-linejoin:miter;stroke-miterlimit:10;stroke-dasharray:none;stroke-opacity:1" transform="matrix(1.33333 0 0 -1.33333 0 151.2)"/><path d="M372.72 40.68c0 .795.64 1.44 1.44 1.44.8 0 1.44-.645 1.44-1.44 0-.795-.64-1.44-1.44-1.44-.8 0-1.44.645-1.44 1.44z" style="fill:#262626;fill-opacity:1;fill-rule:evenodd;stroke:none" transform="matrix(1.33333 0 0 -1.33333 0 151.2)"/><path d="M374.16 25.07v14.17M359.52 27.06a2.1 2.1 0 1 0 4.2 0 2.1 2.1 0 0 0-4.2 0z" style="fill:none;stroke:#262626;stroke-width:.48;stroke-linecap:butt;stroke-linejoin:miter;stroke-miterlimit:10;stroke-dasharray:none;stroke-opacity:1" transform="matrix(1.33333 0 0 -1.33333 0 151.2)"/><path d="M360.24 40.56c0 .795.62 1.44 1.38 1.44.76 0 1.38-.645 1.38-1.44 0-.795-.62-1.44-1.38-1.44-.76 0-1.38.645-1.38 1.44z" style="fill:#262626;fill-opacity:1;fill-rule:evenodd;stroke:none" transform="matrix(1.33333 0 0 -1.33333 0 151.2)"/><path d="M361.68 24.95v14.17" style="fill:none;stroke:#262626;stroke-width:.48;stroke-linecap:butt;stroke-linejoin:miter;stroke-miterlimit:10;stroke-dasharray:none;stroke-opacity:1" transform="matrix(1.33333 0 0 -1.33333 0 151.2)"/><path d="M364.92 36.96h6.48v6.72h-6.48z" style="fill:#fff;fill-opacity:1;fill-rule:evenodd;stroke:none" transform="matrix(1.33333 0 0 -1.33333 0 151.2)"/><path d="M364.92 36.96h6.48v6.72h-6.48z" style="fill:none;stroke:#262626;stroke-width:.72;stroke-linecap:butt;stroke-linejoin:miter;stroke-miterlimit:10;stroke-dasharray:none;stroke-opacity:1" transform="matrix(1.33333 0 0 -1.33333 0 151.2)"/><g clip-path="url(#y)" transform="matrix(1.33333 0 0 -1.33333 0 151.2)"><text transform="matrix(1 0 0 -1 365.69 37.632)" style="font-variant:normal;font-weight:400;font-size:8.04px;font-family:Calibri;-inkscape-font-specification:Calibri;writing-mode:lr-tb;fill:#262626;fill-opacity:1;fill-rule:nonzero;stroke:none"><tspan x="0" y="0">H</tspan></text></g><path d="M364.8 24h6.48v6.72h-6.48z" style="fill:#fff;fill-opacity:1;fill-rule:evenodd;stroke:none" transform="matrix(1.33333 0 0 -1.33333 0 151.2)"/><path d="M364.8 24h6.48v6.72h-6.48z" style="fill:none;stroke:#262626;stroke-width:.72;stroke-linecap:butt;stroke-linejoin:miter;stroke-miterlimit:10;stroke-dasharray:none;stroke-opacity:1" transform="matrix(1.33333 0 0 -1.33333 0 151.2)"/><g clip-path="url(#z)" transform="matrix(1.33333 0 0 -1.33333 0 151.2)"><text transform="matrix(1 0 0 -1 366 24.912)" style="font-variant:normal;font-weight:400;font-size:6.984px;font-family:Calibri;-inkscape-font-specification:Calibri;writing-mode:lr-tb;fill:#262626;fill-opacity:1;fill-rule:nonzero;stroke:none"><tspan x="0" y="0">H</tspan></text></g><path d="m222.23 44.16 1.88.007-.09-.002 1.77.083-.1-.007 1.66.15-.11-.013 1.55.217-.12-.02 1.46.285-.12-.027 1.36.345-.13-.037 1.27.405-.13-.049 1.19.465-.14-.061 1.12.525-.14-.069 1.04.577-.13-.079.98.63-.12-.08.91.675-.1-.085.86.72-.12-.107.8.772-.08-.085.75.81-.06-.072.73.847-.1-.127 1.33 1.8-.08-.124 1.24 1.935-.06-.092 1.19 2.048-.03-.045 1.17 2.13 1.21 2.207 1.3 2.303 1.43 2.35.78 1.206.83 1.197.88 1.202.95 1.205 1.01 1.205 1.08 1.192 1.16 1.176 1.23 1.173 1.33 1.154 1.41 1.121 1.5 1.104 1.62 1.083 1.71 1.045 1.81 1.018 1.94.986 2.05.945 2.17.9 2.3.868 2.43.82 2.56.771 2.72.73 2.85.676 3.02.619 3.16.573 3.33.511 3.5.456 1.82.206 1.86.19 1.91.175 1.95.159 2 .137 2.03.128 2.1.107 2.14.09 2.19.076 2.26.053 3.02.002v-4.56l-3-.001h.06l-2.22-.052h.02l-2.17-.075.02.001-2.12-.09.02.001-2.07-.105.03.002-2.02-.128.01.001-1.97-.135.03.002-1.93-.157.02.002-1.88-.173.02.002-1.83-.187.02.002-1.79-.202.04.005-3.45-.45.05.007-3.28-.503.06.011-3.1-.563.05.01-2.96-.607.07.014-2.79-.66.07.017-2.65-.712.06.018-2.49-.75.07.023-2.36-.795.08.027-2.23-.84.07.028-2.09-.87.08.034-1.97-.907.08.04-1.85-.945.07.042-1.74-.975.08.043-1.64-.998.09.054-1.53-1.028.08.057-1.43-1.05.07.05-1.35-1.065.08.064-1.25-1.087.07.067-1.17-1.11.06.059-1.09-1.118.05.058-1.02-1.125.06.076-.95-1.14.04.055-.9-1.148.05.061-.84-1.148.03.049-.79-1.148.03.051-.75-1.147.04.065-1.38-2.288.03.061-1.27-2.257.01.028-1.2-2.202-1.18-2.153-1.23-2.116-1.31-2.043-1.43-1.926-.81-.946-.83-.89-.91-.87-.97-.815-1.03-.758-1.1-.71-1.18-.652-1.25-.59-1.33-.519-1.42-.448-1.49-.377-1.57-.309-1.67-.234-1.77-.159-1.87-.087-1.93-.008zm96.6 51.934 13.65-6.904-13.71-6.775z" style="fill:#000;fill-opacity:1;fill-rule:nonzero;stroke:none" transform="matrix(1.33333 0 0 -1.33333 0 151.2)"/><g clip-path="url(#A)" transform="matrix(1.33333 0 0 -1.33333 0 151.2)"><text transform="matrix(1 0 0 -1 441.79 9.36)" style="font-style:italic;font-variant:normal;font-weight:400;font-size:9.984px;font-family:Calibri;-inkscape-font-specification:Calibri-Italic;writing-mode:lr-tb;fill:#000;fill-opacity:1;fill-rule:nonzero;stroke:none"><tspan x="0 6.6293759 11.761152 16.892927 22.074623 25.419264 30.580992 38.478336 40.664833 45.826561 48.122879 51.467522 55.660801 60.792576 63.088898" y="0">Quantum Circuit</tspan></text></g><path d="M445.56 48h58.8V22.01l-1.97-1.97h-56.83z" style="fill:url(#B);fill-opacity:1;fill-rule:evenodd;stroke:none" transform="matrix(1.33333 0 0 -1.33333 0 151.2)"/><path d="m502.39 20.04.39 1.576 1.58.394z" style="fill:url(#C);fill-opacity:1;fill-rule:evenodd;stroke:none" transform="matrix(1.33333 0 0 -1.33333 0 151.2)"/><path d="m502.39 20.04.39 1.576 1.58.394-1.97-1.97h-56.83V48h58.8V22.01" style="fill:none;stroke:#262626;stroke-width:.96;stroke-linecap:butt;stroke-linejoin:miter;stroke-miterlimit:10;stroke-dasharray:none;stroke-opacity:1" transform="matrix(1.33333 0 0 -1.33333 0 151.2)"/><path d="M448.08 34.08h42.83M448.08 26.4h42.56M448.08 42.12h42.56M480.96 26.22c0 1.624 1.34 2.94 3 2.94s3-1.316 3-2.94c0-1.624-1.34-2.94-3-2.94s-3 1.316-3 2.94z" style="fill:none;stroke:#000;stroke-width:.48;stroke-linecap:butt;stroke-linejoin:miter;stroke-miterlimit:10;stroke-dasharray:none;stroke-opacity:1" transform="matrix(1.33333 0 0 -1.33333 0 151.2)"/><path d="M482.16 41.7c0 1.094.89 1.98 1.98 1.98 1.09 0 1.98-.886 1.98-1.98 0-1.094-.89-1.98-1.98-1.98-1.09 0-1.98.886-1.98 1.98z" style="fill:#000;fill-opacity:1;fill-rule:evenodd;stroke:none" transform="matrix(1.33333 0 0 -1.33333 0 151.2)"/><path d="m483.96 23.225.12 16.495" style="fill:none;stroke:#000;stroke-width:.48;stroke-linecap:butt;stroke-linejoin:miter;stroke-miterlimit:10;stroke-dasharray:none;stroke-opacity:1" transform="matrix(1.33333 0 0 -1.33333 0 151.2)"/><g clip-path="url(#D)" transform="matrix(1.33333 0 0 -1.33333 0 151.2)"><g clip-path="url(#E)" transform="matrix(1.4366 0 -.00001 1.4601 489.48 38.76)"><path d="M.205.166h8.16v4.56H.205z" style="fill:#fff;fill-opacity:1;fill-rule:nonzero;stroke:none"/><g clip-path="url(#F)"><path d="M.085 4.846h8.4v-4.8h-8.4Zm.24-4.68-.12.12h8.16l-.12-.12v4.56l.12-.12H.205l.12.12z" style="fill:#000;fill-opacity:1;fill-rule:nonzero;stroke:none"/></g><path d="m1.65.774.054.521.15.495.244.449.322.393.393.322.448.244.495.149.534.055.534-.055.495-.15.449-.244.385-.322.322-.392.251-.448.15-.496.053-.521-.238-.025-.053.51.005-.022-.143.472.01-.024-.24.427.012-.017-.307.375.016-.016-.368.308.02-.014-.428.233.023-.01-.473.143.023-.005-.51.053h.024l-.51-.053.023.005-.473-.143.023.01-.428-.233.02.013-.376-.308.017.017-.308-.375.013.019-.233-.427.01.022-.143-.472.005.022-.053-.51Z" style="fill:#000;fill-opacity:1;fill-rule:nonzero;stroke:none"/><g clip-path="url(#G)"><path d="m4.116.752 2.005 2.39-.276.231.908.335-.172-.952-.276.231L4.3.597Z" style="fill:#000;fill-opacity:1;fill-rule:nonzero;stroke:none"/></g></g></g><path d="M489.48 38.76h12.24v7.2h-12.24z" style="fill:none;stroke:#262626;stroke-width:.96;stroke-linecap:butt;stroke-linejoin:miter;stroke-miterlimit:10;stroke-dasharray:none;stroke-opacity:1" transform="matrix(1.33333 0 0 -1.33333 0 151.2)"/><g clip-path="url(#H)" transform="matrix(1.33333 0 0 -1.33333 0 151.2)"><g clip-path="url(#I)" transform="matrix(1.4366 0 -.00001 1.4601 489.48 22.68)"><path d="M.205.166h8.16v4.56H.205z" style="fill:#fff;fill-opacity:1;fill-rule:nonzero;stroke:none"/><g clip-path="url(#J)"><path d="M.085 4.846h8.4v-4.8h-8.4Zm.24-4.68-.12.12h8.16l-.12-.12v4.56l.12-.12H.205l.12.12z" style="fill:#000;fill-opacity:1;fill-rule:nonzero;stroke:none"/></g><path d="m1.65.774.054.521.15.495.244.449.322.393.393.322.448.244.495.149.534.055.534-.055.495-.15.449-.244.385-.322.322-.392.251-.448.15-.496.053-.521-.238-.025-.053.51.005-.022-.143.472.01-.024-.24.427.012-.017-.307.375.016-.016-.368.308.02-.014-.428.233.023-.01-.473.143.023-.005-.51.053h.024l-.51-.053.023.005-.473-.143.023.01-.428-.233.02.013-.376-.308.017.017-.308-.375.013.019-.233-.427.01.022-.143-.472.005.022-.053-.51Z" style="fill:#000;fill-opacity:1;fill-rule:nonzero;stroke:none"/><g clip-path="url(#K)"><path d="m4.116.752 2.005 2.39-.276.231.908.335-.172-.952-.276.231L4.3.597Z" style="fill:#000;fill-opacity:1;fill-rule:nonzero;stroke:none"/></g></g></g><path d="M489.48 22.68h12.24v7.2h-12.24z" style="fill:none;stroke:#262626;stroke-width:.96;stroke-linecap:butt;stroke-linejoin:miter;stroke-miterlimit:10;stroke-dasharray:none;stroke-opacity:1" transform="matrix(1.33333 0 0 -1.33333 0 151.2)"/><g clip-path="url(#L)" transform="matrix(1.33333 0 0 -1.33333 0 151.2)"><g clip-path="url(#M)" transform="matrix(1.4366 0 -.00001 1.4601 489.48 30.72)"><path d="M.205.166h8.16v4.56H.205z" style="fill:#fff;fill-opacity:1;fill-rule:nonzero;stroke:none"/><g clip-path="url(#N)"><path d="M.085 4.846h8.4v-4.8h-8.4Zm.24-4.68-.12.12h8.16l-.12-.12v4.56l.12-.12H.205l.12.12z" style="fill:#000;fill-opacity:1;fill-rule:nonzero;stroke:none"/></g><path d="m1.65.774.054.521.15.495.244.449.322.393.393.322.448.244.495.149.534.055.534-.055.495-.15.449-.244.385-.322.322-.392.251-.448.15-.496.053-.521-.238-.025-.053.51.005-.022-.143.472.01-.024-.24.427.012-.017-.307.375.016-.016-.368.308.02-.014-.428.233.023-.01-.473.143.023-.005-.51.053h.024l-.51-.053.023.005-.473-.143.023.01-.428-.233.02.013-.376-.308.017.017-.308-.375.013.019-.233-.427.01.022-.143-.472.005.022-.053-.51Z" style="fill:#000;fill-opacity:1;fill-rule:nonzero;stroke:none"/><g clip-path="url(#O)"><path d="m4.116.752 2.005 2.39-.276.231.908.335-.172-.952-.276.231L4.3.597Z" style="fill:#000;fill-opacity:1;fill-rule:nonzero;stroke:none"/></g></g></g><path d="M489.48 30.72h12.24v7.2h-12.24z" style="fill:none;stroke:#262626;stroke-width:.96;stroke-linecap:butt;stroke-linejoin:miter;stroke-miterlimit:10;stroke-dasharray:none;stroke-opacity:1" transform="matrix(1.33333 0 0 -1.33333 0 151.2)"/><path d="M451.56 26.22c0 1.624 1.34 2.94 3 2.94s3-1.316 3-2.94c0-1.624-1.34-2.94-3-2.94s-3 1.316-3 2.94z" style="fill:none;stroke:#000;stroke-width:.48;stroke-linecap:butt;stroke-linejoin:miter;stroke-miterlimit:10;stroke-dasharray:none;stroke-opacity:1" transform="matrix(1.33333 0 0 -1.33333 0 151.2)"/><path d="M452.76 41.7c0 1.094.89 1.98 1.98 1.98 1.09 0 1.98-.886 1.98-1.98 0-1.094-.89-1.98-1.98-1.98-1.09 0-1.98.886-1.98 1.98z" style="fill:#000;fill-opacity:1;fill-rule:evenodd;stroke:none" transform="matrix(1.33333 0 0 -1.33333 0 151.2)"/><path d="m454.56 23.225.12 16.495M470.16 26.22c0 1.624 1.32 2.94 2.94 2.94 1.62 0 2.94-1.316 2.94-2.94 0-1.624-1.32-2.94-2.94-2.94a2.942 2.942 0 0 0-2.94 2.94z" style="fill:none;stroke:#000;stroke-width:.48;stroke-linecap:butt;stroke-linejoin:miter;stroke-miterlimit:10;stroke-dasharray:none;stroke-opacity:1" transform="matrix(1.33333 0 0 -1.33333 0 151.2)"/><path d="M471.24 41.7c0 1.094.89 1.98 1.98 1.98 1.09 0 1.98-.886 1.98-1.98 0-1.094-.89-1.98-1.98-1.98-1.09 0-1.98.886-1.98 1.98z" style="fill:#000;fill-opacity:1;fill-rule:evenodd;stroke:none" transform="matrix(1.33333 0 0 -1.33333 0 151.2)"/><path d="m473.04 23.225.12 16.495" style="fill:none;stroke:#000;stroke-width:.48;stroke-linecap:butt;stroke-linejoin:miter;stroke-miterlimit:10;stroke-dasharray:none;stroke-opacity:1" transform="matrix(1.33333 0 0 -1.33333 0 151.2)"/><path d="M460.8 38.64h6.48v6.72h-6.48z" style="fill:#fff;fill-opacity:1;fill-rule:evenodd;stroke:none" transform="matrix(1.33333 0 0 -1.33333 0 151.2)"/><path d="M460.8 38.64h6.48v6.72h-6.48z" style="fill:none;stroke:#262626;stroke-width:.72;stroke-linecap:butt;stroke-linejoin:miter;stroke-miterlimit:10;stroke-dasharray:none;stroke-opacity:1" transform="matrix(1.33333 0 0 -1.33333 0 151.2)"/><g clip-path="url(#P)" transform="matrix(1.33333 0 0 -1.33333 0 151.2)"><text transform="matrix(1 0 0 -1 461.93 39.528)" style="font-variant:normal;font-weight:400;font-size:6.96px;font-family:Calibri;-inkscape-font-specification:Calibri;writing-mode:lr-tb;fill:#262626;fill-opacity:1;fill-rule:nonzero;stroke:none"><tspan x="0" y="0">H</tspan></text></g><path d="M460.68 23.4h6.6v6.72h-6.6z" style="fill:#fff;fill-opacity:1;fill-rule:evenodd;stroke:none" transform="matrix(1.33333 0 0 -1.33333 0 151.2)"/><path d="M460.68 23.4h6.6v6.72h-6.6z" style="fill:none;stroke:#262626;stroke-width:.72;stroke-linecap:butt;stroke-linejoin:miter;stroke-miterlimit:10;stroke-dasharray:none;stroke-opacity:1" transform="matrix(1.33333 0 0 -1.33333 0 151.2)"/><g clip-path="url(#Q)" transform="matrix(1.33333 0 0 -1.33333 0 151.2)"><text transform="matrix(1 0 0 -1 461.93 24.264)" style="font-variant:normal;font-weight:400;font-size:6.984px;font-family:Calibri;-inkscape-font-specification:Calibri;writing-mode:lr-tb;fill:#262626;fill-opacity:1;fill-rule:nonzero;stroke:none"><tspan x="0" y="0">H</tspan></text></g><g clip-path="url(#R)" transform="matrix(1.33333 0 0 -1.33333 0 151.2)"><path d="m390.73 71.395-.01-3.547v.019l.02-3.517v.054l.05-1.74v.05l.09-1.725v.061l.13-1.702-.01.094.21-1.673-.02.097.27-1.635-.02.118.35-1.605-.03.143.45-1.56-.05.149.55-1.523-.06.153.66-1.47-.09.186.79-1.41-.1.169.93-1.357-.13.164 1.08-1.298-.16.17 1.24-1.223-.16.138 1.41-1.155-.11.085.76-.555-.09.065.81-.532-.08.052.86-.51-.08.046.91-.487-.07.037.96-.473-.1.044 1.02-.443-.07.027 1.07-.428-.08.028 1.12-.405-.08.029 1.17-.375-.05.016 1.23-.36-.07.02 1.29-.33-.06.015 1.35-.308-.07.015 1.42-.278-.05.009 1.47-.255-.05.008 1.54-.233-.06.008 1.61-.202-.05.005 1.66-.172-.05.004 1.74-.142-.03.002 1.8-.12-.04.003 1.87-.09-.05.002 1.95-.053-.02.001 2.01-.03-.11-.001 2.35.082.16-4.557-2.41-.085-2.08.031-1.99.054-1.92.092-1.84.123-1.78.146-1.72.177-1.66.209-1.59.241-1.51.263-1.48.289-1.41.322-1.36.347-1.29.379-1.25.397-1.2.433-1.13.455-1.09.477-1.04.513-.99.529-.94.559-.91.591-.87.63-1.53 1.265-1.4 1.375-1.21 1.466-1.04 1.524-.9 1.588-.73 1.64-.61 1.674-.5 1.706-.38 1.735-.28 1.743-.22 1.768-.14 1.78-.09 1.781-.06 1.792-.02 3.555.01 3.557zm35.39-28.079 13.92-6.341-13.42-7.331z" style="fill:#000;fill-opacity:1;fill-rule:nonzero;stroke:none"/></g><path d="M335.04 101.76h58.92V75.77l-1.97-1.97h-56.95z" style="fill:url(#S);fill-opacity:1;fill-rule:evenodd;stroke:none" transform="matrix(1.33333 0 0 -1.33333 0 151.2)"/><path d="m391.99 73.8.39 1.576 1.58.394z" style="fill:url(#T);fill-opacity:1;fill-rule:evenodd;stroke:none" transform="matrix(1.33333 0 0 -1.33333 0 151.2)"/><path d="m391.99 73.8.39 1.576 1.58.394-1.97-1.97h-56.95v27.96h58.92V75.77" style="fill:none;stroke:#262626;stroke-width:.96;stroke-linecap:butt;stroke-linejoin:miter;stroke-miterlimit:10;stroke-dasharray:none;stroke-opacity:1" transform="matrix(1.33333 0 0 -1.33333 0 151.2)"/><path d="M336.96 87.48h42.83M336.96 79.8h42.56M336.96 95.52h42.56M369.96 79.56c0 1.657 1.32 3 2.94 3 1.62 0 2.94-1.343 2.94-3s-1.32-3-2.94-3c-1.62 0-2.94 1.343-2.94 3z" style="fill:none;stroke:#000;stroke-width:.48;stroke-linecap:butt;stroke-linejoin:miter;stroke-miterlimit:10;stroke-dasharray:none;stroke-opacity:1" transform="matrix(1.33333 0 0 -1.33333 0 151.2)"/><path d="M371.04 95.1c0 1.094.89 1.98 1.98 1.98 1.09 0 1.98-.886 1.98-1.98 0-1.094-.89-1.98-1.98-1.98-1.09 0-1.98.886-1.98 1.98z" style="fill:#000;fill-opacity:1;fill-rule:evenodd;stroke:none" transform="matrix(1.33333 0 0 -1.33333 0 151.2)"/><path d="m372.96 76.625.12 16.495" style="fill:none;stroke:#000;stroke-width:.48;stroke-linecap:butt;stroke-linejoin:miter;stroke-miterlimit:10;stroke-dasharray:none;stroke-opacity:1" transform="matrix(1.33333 0 0 -1.33333 0 151.2)"/><path d="M340.08 76.2h26.04v22.56h-26.04z" style="fill:#fff;fill-opacity:1;fill-rule:evenodd;stroke:none" transform="matrix(1.33333 0 0 -1.33333 0 151.2)"/><path d="M340.08 76.2h26.04v22.56h-26.04z" style="fill:none;stroke:#000;stroke-width:.72;stroke-linecap:butt;stroke-linejoin:miter;stroke-miterlimit:10;stroke-dasharray:2.16,.72;stroke-dashoffset:0;stroke-opacity:1" transform="matrix(1.33333 0 0 -1.33333 0 151.2)"/><g clip-path="url(#U)" transform="matrix(1.33333 0 0 -1.33333 0 151.2)"><g clip-path="url(#V)" transform="matrix(1.4366 0 0 1.4601 378.36 92.16)"><path d="M.205.166h8.16v4.56H.205z" style="fill:#fff;fill-opacity:1;fill-rule:nonzero;stroke:none"/><g clip-path="url(#W)"><path d="M.085 4.846h8.4v-4.8h-8.4Zm.24-4.68-.12.12h8.16l-.12-.12v4.56l.12-.12H.205l.12.12z" style="fill:#000;fill-opacity:1;fill-rule:nonzero;stroke:none"/></g><path d="m1.65.774.054.521.15.495.244.449.322.393.393.322.448.244.495.149.534.055.534-.055.495-.15.449-.244.385-.322.322-.392.251-.448.15-.496.053-.521-.238-.025-.053.51.005-.022-.143.472.01-.024-.24.427.012-.017-.307.375.016-.016-.368.308.02-.014-.428.233.023-.01-.473.143.023-.005-.51.053h.024l-.51-.053.023.005-.473-.143.023.01-.428-.233.02.013-.376-.308.017.017-.308-.375.013.019-.233-.427.01.022-.143-.472.005.022-.053-.51Z" style="fill:#000;fill-opacity:1;fill-rule:nonzero;stroke:none"/><g clip-path="url(#X)"><path d="m4.116.752 2.005 2.39-.276.231.908.335-.172-.952-.276.231L4.3.597Z" style="fill:#000;fill-opacity:1;fill-rule:nonzero;stroke:none"/></g></g></g><path d="M378.36 92.16h12.24v7.2h-12.24z" style="fill:none;stroke:#262626;stroke-width:.96;stroke-linecap:butt;stroke-linejoin:miter;stroke-miterlimit:10;stroke-dasharray:none;stroke-opacity:1" transform="matrix(1.33333 0 0 -1.33333 0 151.2)"/><g clip-path="url(#Y)" transform="matrix(1.33333 0 0 -1.33333 0 151.2)"><g clip-path="url(#Z)" transform="matrix(1.4366 0 0 1.4601 378.36 76.08)"><path d="M.205.166h8.16v4.56H.205z" style="fill:#fff;fill-opacity:1;fill-rule:nonzero;stroke:none"/><g clip-path="url(#aa)"><path d="M.085 4.846h8.4v-4.8h-8.4Zm.24-4.68-.12.12h8.16l-.12-.12v4.56l.12-.12H.205l.12.12z" style="fill:#000;fill-opacity:1;fill-rule:nonzero;stroke:none"/></g><path d="m1.65.774.054.521.15.495.244.449.322.393.393.322.448.244.495.149.534.055.534-.055.495-.15.449-.244.385-.322.322-.392.251-.448.15-.496.053-.521-.238-.025-.053.51.005-.022-.143.472.01-.024-.24.427.012-.017-.307.375.016-.016-.368.308.02-.014-.428.233.023-.01-.473.143.023-.005-.51.053h.024l-.51-.053.023.005-.473-.143.023.01-.428-.233.02.013-.376-.308.017.017-.308-.375.013.019-.233-.427.01.022-.143-.472.005.022-.053-.51Z" style="fill:#000;fill-opacity:1;fill-rule:nonzero;stroke:none"/><g clip-path="url(#ab)"><path d="m4.116.752 2.005 2.39-.276.231.908.335-.172-.952-.276.231L4.3.597Z" style="fill:#000;fill-opacity:1;fill-rule:nonzero;stroke:none"/></g></g></g><path d="M378.36 76.08h12.24v7.2h-12.24z" style="fill:none;stroke:#262626;stroke-width:.96;stroke-linecap:butt;stroke-linejoin:miter;stroke-miterlimit:10;stroke-dasharray:none;stroke-opacity:1" transform="matrix(1.33333 0 0 -1.33333 0 151.2)"/><g clip-path="url(#ac)" transform="matrix(1.33333 0 0 -1.33333 0 151.2)"><g clip-path="url(#ad)" transform="matrix(1.4366 0 0 1.4601 378.36 84.12)"><path d="M.205.166h8.16v4.56H.205z" style="fill:#fff;fill-opacity:1;fill-rule:nonzero;stroke:none"/><g clip-path="url(#ae)"><path d="M.085 4.846h8.4v-4.8h-8.4Zm.24-4.68-.12.12h8.16l-.12-.12v4.56l.12-.12H.205l.12.12z" style="fill:#000;fill-opacity:1;fill-rule:nonzero;stroke:none"/></g><path d="m1.65.774.054.521.15.495.244.449.322.393.393.322.448.244.495.149.534.055.534-.055.495-.15.449-.244.385-.322.322-.392.251-.448.15-.496.053-.521-.238-.025-.053.51.005-.022-.143.472.01-.024-.24.427.012-.017-.307.375.016-.016-.368.308.02-.014-.428.233.023-.01-.473.143.023-.005-.51.053h.024l-.51-.053.023.005-.473-.143.023.01-.428-.233.02.013-.376-.308.017.017-.308-.375.013.019-.233-.427.01.022-.143-.472.005.022-.053-.51Z" style="fill:#000;fill-opacity:1;fill-rule:nonzero;stroke:none"/><g clip-path="url(#af)"><path d="m4.116.752 2.005 2.39-.276.231.908.335-.172-.952-.276.231L4.3.597Z" style="fill:#000;fill-opacity:1;fill-rule:nonzero;stroke:none"/></g></g></g><path d="M378.36 84.12h12.24v7.2h-12.24z" style="fill:none;stroke:#262626;stroke-width:.96;stroke-linecap:butt;stroke-linejoin:miter;stroke-miterlimit:10;stroke-dasharray:none;stroke-opacity:1" transform="matrix(1.33333 0 0 -1.33333 0 151.2)"/><g clip-path="url(#ag)" transform="matrix(1.33333 0 0 -1.33333 0 151.2)"><g clip-path="url(#ah)" transform="matrix(2.9747 0 0 2.97276 344.64 78.6)"><path d="M1.045 4.129v-3.6h3.84v1.2c0 .48-1.2-.48-1.2.72 0 .84 1.2-.12 1.2.72v.96h-1.44c-.36 0 .24 1.2-.48 1.2-1.2 0-.12-1.2-.72-1.2z" style="fill:#bababa;fill-opacity:1;fill-rule:nonzero;stroke:none"/><path d="m1.05 4.004.12.12v-3.6l-.12.12h3.84l-.12-.12v1.2l.01-.048-.052.12.09-.07-.135.022.033-.001-.195-.023h.003l-.226-.03H4.05L3.8 1.79l-.168.252-.045.18-.017.23.066.3.193.15.24.037.23-.016.218-.015h-.022l.195.022-.063-.027.135.113-.04-.067.052.24-.003-.025v.96l.12-.12H3.42l-.173.092-.045.204.008.213.015.219v-.008.217l.003-.027-.045.195.027-.053-.12.135.06-.036-.21.052.039-.003-.203-.015.02.003-.15-.037.043.02-.18-.135.042.057-.068-.195.007.047.015-.217-.002.012.038-.22.026-.223-.061-.219-.236-.078Zm1.2.24-.038-.007.158.053-.078-.082.037.135-.003-.046-.023.195.001-.006-.038.223-.017.248.087.253.229.172.183.046.232.017.265-.067.165-.185.055-.238v-.236l-.015-.221V4.5l-.008-.195-.002.031.03-.135-.06.08.097-.053-.057.015h1.56V3.15l-.064-.293-.194-.162-.242-.028-.228.016-.218.015h.027l-.195-.03.055.025-.135-.105.044.069-.053-.24.003.034.015-.202-.004.02.038-.15-.017.038.135-.203-.056.046.195-.075-.043.008h.217l-.016-.002.218.03.213.025.216-.036.089-.202V.404H.93v3.84Z" style="fill:#262626;fill-opacity:1;fill-rule:nonzero;stroke:none"/></g></g><g clip-path="url(#ai)" transform="matrix(1.33333 0 0 -1.33333 0 151.2)"><text transform="matrix(1 0 0 -1 400.85 95.304)" style="font-style:italic;font-variant:normal;font-weight:400;font-size:9.96px;font-family:Calibri;-inkscape-font-specification:Calibri-Italic;writing-mode:lr-tb;fill:#000;fill-opacity:1;fill-rule:nonzero;stroke:none"><tspan x="0 2.5099199 7.6691999 11.86236 17.011681 24.91992 30.069241 32.360039 37.120918 40.49736 45.28812" y="0">Incomplete </tspan></text></g><g clip-path="url(#aj)" transform="matrix(1.33333 0 0 -1.33333 0 151.2)"><text transform="matrix(1 0 0 -1 400.85 85.704)" style="font-style:italic;font-variant:normal;font-weight:400;font-size:9.984px;font-family:Calibri;-inkscape-font-specification:Calibri-Italic;writing-mode:lr-tb;fill:#000;fill-opacity:1;fill-rule:nonzero;stroke:none"><tspan x="0 6.6293759 11.761152 16.892927 22.074623 25.419264 30.580992 38.478336" y="0">Quantum </tspan></text></g><g clip-path="url(#ak)" transform="matrix(1.33333 0 0 -1.33333 0 151.2)"><text transform="matrix(1 0 0 -1 400.85 76.08)" style="font-style:italic;font-variant:normal;font-weight:400;font-size:9.96px;font-family:Calibri;-inkscape-font-specification:Calibri-Italic;writing-mode:lr-tb;fill:#000;fill-opacity:1;fill-rule:nonzero;stroke:none"><tspan x="0 5.1592798 7.4500799 10.79664 14.9898 20.13912 22.42992" y="0">Circuit</tspan></text></g><path d="m224.04 88.602 95.14.678M385.08 34.9l42.51.62" style="fill:none;stroke:#000;stroke-width:4.56;stroke-linecap:butt;stroke-linejoin:miter;stroke-miterlimit:10;stroke-dasharray:none;stroke-opacity:1" transform="matrix(1.33333 0 0 -1.33333 0 151.2)"/><g clip-path="url(#al)" transform="matrix(1.33333 0 0 -1.33333 0 151.2)"><g clip-path="url(#am)" transform="matrix(5.35858 0 0 5.35508 7.44 24.48)"><path d="M.325 4.849v-3.84l2.64-.72 2.64.72v3.84l-2.64.72z" style="fill:#fff;fill-opacity:1;fill-rule:nonzero;stroke:none"/><path d="m.34 4.79.045.059v-3.84l-.044.058 2.64-.72h-.032l2.64.72-.044-.058v3.84l.044-.058-2.64.72h.032Zm2.625.84 2.7-.736V.963l-2.7-.737-2.7.737v3.931Z" style="fill:#000;fill-opacity:1;fill-rule:nonzero;stroke:none"/><path d="m.34 4.907 2.685-.732V.288h-.12v3.885l2.684.733.032-.116-2.64-.72.044.058V.289h-.12v3.84l.044-.058-2.64.72Z" style="fill:#000;fill-opacity:1;fill-rule:nonzero;stroke:none"/><path d="M1.285 4.573v-.48l.24-.15.24.06.24-.15v.54l2.64.72-.72.192z" style="fill:#fff;fill-opacity:1;fill-rule:nonzero;stroke:none"/><path d="m1.3 4.515.045.058v-.48l-.028.05.24-.15-.047.008.265.066.262-.163-.092-.051v.585l2.684.733v-.116l-.72.192h.032zm2.625.852.95-.254-2.854-.778.044.058v-.649l-.332.208.046-.008-.264-.066-.29.181v.56z" style="fill:#000;fill-opacity:1;fill-rule:nonzero;stroke:none"/><g clip-path="url(#an)"><path d="M1.768 2.074c0-.092-.075-.148-.167-.125a.227.227 0 0 0-.166.207c0 .092.075.148.166.125a.227.227 0 0 0 .167-.207Z" style="fill:#000;fill-opacity:1;fill-rule:nonzero;stroke:none"/></g><g clip-path="url(#ao)"><path d="M2.576 2.426c-.047.092-.152.157-.296.193a1.243 1.243 0 0 1-.313.03c-.08.311-.213.536-.366.574-.15.037-.285-.118-.362-.386-.111.055-.21.096-.3.119-.143.035-.248.023-.296-.046-.077-.113.025-.352.239-.621-.205-.16-.3-.34-.225-.49.047-.091.153-.156.297-.192.083-.021.18-.031.285-.033.08-.308.213-.53.362-.566.15-.038.286.117.363.385.11-.055.21-.096.3-.118.143-.036.248-.024.295.045.075.111-.02.34-.224.601.219.164.318.353.24.505Zm-.296.082c.102-.026.177-.07.199-.113.042-.083-.033-.233-.222-.374a3.19 3.19 0 0 1-.224.236 2.296 2.296 0 0 1-.041.281c.105.002.205-.01.288-.03Zm-.496-.726a2.057 2.057 0 0 0-.174-.048 3.674 3.674 0 0 0-.335.274c-.006.063-.006.123-.006.19 0 .06.003.118.006.176.055.025.113.046.177.066.052.018.105.032.158.044.052-.038.105-.079.157-.122.056-.047.111-.094.161-.14.006-.062.006-.123.006-.19 0-.069-.003-.135-.009-.197-.044-.02-.091-.035-.14-.053Zm.127-.085a7.902 7.902 0 0 0-.024-.146c-.048.028-.097.058-.147.092.033.008.066.02.1.03l.071.024Zm-.431.011a1.954 1.954 0 0 0-.161-.018c-.011.055-.02.113-.028.173.03-.027.058-.05.092-.078.03-.024.063-.052.097-.077Zm-.319.412a2.2 2.2 0 0 0-.119.129c.036.024.078.047.12.07 0-.03-.004-.06-.004-.093 0-.037 0-.072.003-.106zm.127.391c.009.06.017.115.028.168.053-.03.108-.066.164-.102a1.036 1.036 0 0 1-.086-.025c-.033-.014-.07-.027-.105-.04Zm.449.002c.05.01.1.014.15.018.01-.052.019-.107.027-.164l-.091.078c-.028.02-.055.044-.086.068Zm.305-.402a2.81 2.81 0 0 0 .135-.148c-.041-.025-.086-.053-.135-.077.002.038.002.077.002.116 0 .039 0 .075-.002.109zm-.44 1c.082-.02.19-.194.26-.466a2.456 2.456 0 0 1-.252-.036c-.092.064-.18.122-.266.171.07.235.174.353.257.332ZM.737 2.83c.024.035.096.04.199.014.08-.02.172-.057.271-.107a1.975 1.975 0 0 1-.041-.274 1.35 1.35 0 0 1-.208-.118c-.185.235-.263.423-.221.485Zm.216-1.114c-.103.025-.178.069-.2.113-.041.082.03.225.208.363a4.88 4.88 0 0 1 .208-.217c.008-.1.022-.197.041-.288a.985.985 0 0 0-.257.029Zm.647-.597c-.083.021-.188.191-.257.458.086.006.174.017.266.036.085-.06.169-.114.249-.16-.07-.237-.175-.354-.258-.334Zm.864.283c-.025-.035-.097-.04-.2-.014-.08.02-.174.058-.27.107.016.079.03.161.038.253.083.038.158.077.224.121.178-.227.25-.405.208-.467Z" style="fill:#000;fill-opacity:1;fill-rule:nonzero;stroke:none"/></g></g></g><g clip-path="url(#ap)" transform="matrix(1.33333 0 0 -1.33333 0 151.2)"><text transform="matrix(1 0 0 -1 20.256 14.736)" style="font-style:italic;font-variant:normal;font-weight:400;font-size:9.96px;font-family:Calibri;-inkscape-font-specification:Calibri-Italic;writing-mode:lr-tb;fill:#000;fill-opacity:1;fill-rule:nonzero;stroke:none"><tspan x="0 5.4182401 10.17912 15.34836 20.497681 24.93984 27.23064 32.369999 35.726521" y="0">Behavior </tspan></text></g><g clip-path="url(#aq)" transform="matrix(1.33333 0 0 -1.33333 0 151.2)"><text transform="matrix(1 0 0 -1 25.536 5.136)" style="font-style:italic;font-variant:normal;font-weight:400;font-size:9.96px;font-family:Calibri;-inkscape-font-specification:Calibri-Italic;writing-mode:lr-tb;fill:#000;fill-opacity:1;fill-rule:nonzero;stroke:none"><tspan x="0 2.5099199 7.6691999 12.81852 17.96784 21.30444" y="0">Inputs</tspan></text></g><g clip-path="url(#ar)" transform="matrix(1.33333 0 0 -1.33333 0 151.2)"><g clip-path="url(#as)" transform="matrix(5.35858 0 0 5.35508 285.12 18.96)"><path d="M.325 4.849v-3.84l2.64-.72 2.64.72v3.84l-2.64.72z" style="fill:#fff;fill-opacity:1;fill-rule:nonzero;stroke:none"/><path d="m.34 4.79.045.059v-3.84l-.044.058 2.64-.72h-.032l2.64.72-.044-.058v3.84l.044-.058-2.64.72h.032Zm2.625.84 2.7-.736V.963l-2.7-.737-2.7.737v3.931Z" style="fill:#000;fill-opacity:1;fill-rule:nonzero;stroke:none"/><path d="m.34 4.907 2.685-.732V.288h-.12v3.885l2.684.733.032-.116-2.64-.72.044.058V.289h-.12v3.84l.044-.058-2.64.72Z" style="fill:#000;fill-opacity:1;fill-rule:nonzero;stroke:none"/><path d="M1.285 4.573v-.48l.24-.15.24.06.24-.15v.54l2.64.72-.72.192z" style="fill:#fff;fill-opacity:1;fill-rule:nonzero;stroke:none"/><path d="m1.3 4.515.045.058v-.48l-.028.05.24-.15-.047.008.265.066.262-.163-.092-.051v.585l2.684.733v-.116l-.72.192h.032zm2.625.852.95-.254-2.854-.778.044.058v-.649l-.332.208.046-.008-.264-.066-.29.181v.56z" style="fill:#000;fill-opacity:1;fill-rule:nonzero;stroke:none"/><g clip-path="url(#at)"><path d="M1.768 2.074c0-.092-.075-.148-.167-.125a.227.227 0 0 0-.166.207c0 .092.075.148.166.125a.227.227 0 0 0 .167-.207Z" style="fill:#000;fill-opacity:1;fill-rule:nonzero;stroke:none"/></g><g clip-path="url(#au)"><path d="M2.576 2.426c-.047.092-.152.157-.296.193a1.243 1.243 0 0 1-.313.03c-.08.311-.213.536-.366.574-.15.037-.285-.118-.362-.386-.111.055-.21.096-.3.119-.143.035-.248.023-.296-.046-.077-.113.025-.352.239-.621-.205-.16-.3-.34-.225-.49.047-.091.153-.156.297-.192.083-.021.18-.031.285-.033.08-.308.213-.53.362-.566.15-.038.286.117.363.385.11-.055.21-.096.3-.118.143-.036.248-.024.295.045.075.111-.02.34-.224.601.219.164.318.353.24.505Zm-.296.082c.102-.026.177-.07.199-.113.042-.083-.033-.233-.222-.374a3.19 3.19 0 0 1-.224.236 2.296 2.296 0 0 1-.041.281c.105.002.205-.01.288-.03Zm-.496-.726a2.057 2.057 0 0 0-.174-.048 3.674 3.674 0 0 0-.335.274c-.006.063-.006.123-.006.19 0 .06.003.118.006.176.055.025.113.046.177.066.052.018.105.032.158.044.052-.038.105-.079.157-.122.056-.047.111-.094.161-.14.006-.062.006-.123.006-.19 0-.069-.003-.135-.009-.197-.044-.02-.091-.035-.14-.053Zm.127-.085a7.902 7.902 0 0 0-.024-.146c-.048.028-.097.058-.147.092.033.008.066.02.1.03l.071.024Zm-.431.011a1.954 1.954 0 0 0-.161-.018c-.011.055-.02.113-.028.173.03-.027.058-.05.092-.078.03-.024.063-.052.097-.077Zm-.319.412a2.2 2.2 0 0 0-.119.129c.036.024.078.047.12.07 0-.03-.004-.06-.004-.093 0-.037 0-.072.003-.106zm.127.391c.009.06.017.115.028.168.053-.03.108-.066.164-.102a1.036 1.036 0 0 1-.086-.025c-.033-.014-.07-.027-.105-.04Zm.449.002c.05.01.1.014.15.018.01-.052.019-.107.027-.164l-.091.078c-.028.02-.055.044-.086.068Zm.305-.402a2.81 2.81 0 0 0 .135-.148c-.041-.025-.086-.053-.135-.077.002.038.002.077.002.116 0 .039 0 .075-.002.109zm-.44 1c.082-.02.19-.194.26-.466a2.456 2.456 0 0 1-.252-.036c-.092.064-.18.122-.266.171.07.235.174.353.257.332ZM.737 2.83c.024.035.096.04.199.014.08-.02.172-.057.271-.107a1.975 1.975 0 0 1-.041-.274 1.35 1.35 0 0 1-.208-.118c-.185.235-.263.423-.221.485Zm.216-1.114c-.103.025-.178.069-.2.113-.041.082.03.225.208.363a4.88 4.88 0 0 1 .208-.217c.008-.1.022-.197.041-.288a.985.985 0 0 0-.257.029Zm.647-.597c-.083.021-.188.191-.257.458.086.006.174.017.266.036.085-.06.169-.114.249-.16-.07-.237-.175-.354-.258-.334Zm.864.283c-.025-.035-.097-.04-.2-.014-.08.02-.174.058-.27.107.016.079.03.161.038.253.083.038.158.077.224.121.178-.227.25-.405.208-.467Z" style="fill:#000;fill-opacity:1;fill-rule:nonzero;stroke:none"/></g></g></g><g clip-path="url(#av)" transform="matrix(1.33333 0 0 -1.33333 0 151.2)"><path d="m222.37 37.8 4.56-.018-.02-4.56-4.56.018zm9.12-.036 4.56-.018-.02-4.56-4.56.018zm9.12-.036 4.56-.018-.02-4.56-4.56.018zm9.12-.037 4.56-.018-.02-4.56-4.56.018zm9.12-.036 4.56-.018-.02-4.56-4.56.018zm9.12-.036 3.48-.014-.02-4.56-3.48.014zm1.22 4.555 13.65-6.894-13.71-6.786z" style="fill:#595959;fill-opacity:1;fill-rule:nonzero;stroke:none"/></g><path d="M322.8 36.96h4.56V32.4h-4.56zm9.12 0h4.56V32.4h-4.56zm6.12 4.56 13.68-6.84-13.68-6.84z" style="fill:#595959;fill-opacity:1;fill-rule:nonzero;stroke:none" transform="matrix(1.33333 0 0 -1.33333 0 151.2)"/><g clip-path="url(#aw)" transform="matrix(1.33333 0 0 -1.33333 0 151.2)"><text transform="matrix(1 0 0 -1 303.5 8.832)" style="font-style:italic;font-variant:normal;font-weight:400;font-size:9.984px;font-family:Calibri;-inkscape-font-specification:Calibri-Italic;writing-mode:lr-tb;fill:#000;fill-opacity:1;fill-rule:nonzero;stroke:none"><tspan x="0 5.4013438 10.173696 15.355392 20.487167 24.940031 27.236353 32.388096 35.752705 38.009087 40.525055 45.706753 50.838528 56.020226 59.364864" y="0">Behavior Inputs</tspan></text></g><g clip-path="url(#ax)" transform="matrix(1.33333 0 0 -1.33333 0 151.2)"><g clip-path="url(#ay)" transform="matrix(1.27623 0 0 1.2785 322.8 39.84)"><path d="M5.845 4.354c-.792 0-1.44.648-1.44 1.44 0 .792.648 1.44 1.44 1.44.792 0 1.44-.648 1.44-1.44 0-.792-.648-1.44-1.44-1.44zm3.24 2.34c-.072.264-.18.516-.312.744l.3.9-.684.684-.9-.3c-.24.132-.492.24-.756.312l-.408.84h-.96l-.42-.84a3.146 3.146 0 0 1-.744-.312l-.9.3-.684-.684.3-.9a3.463 3.463 0 0 1-.312-.756l-.84-.408v-.96l.84-.42c.072-.264.18-.516.312-.744l-.3-.9.684-.684.9.3c.24-.132.492-.24.756-.312l.42-.84h.96l.42.84c.264.072.516.18.744.312l.9-.3.684.684-.3.9c.132.24.24.492.312.756l.84.42v.96z" style="fill:#595959;fill-opacity:1;fill-rule:nonzero;stroke:none"/></g></g><g clip-path="url(#az)" transform="matrix(1.33333 0 0 -1.33333 0 151.2)"><g clip-path="url(#aA)" transform="matrix(1.27623 0 0 1.2785 290.52 93.48)"><path d="M5.845 4.354c-.792 0-1.44.648-1.44 1.44 0 .792.648 1.44 1.44 1.44.792 0 1.44-.648 1.44-1.44 0-.792-.648-1.44-1.44-1.44zm3.24 2.34c-.072.264-.18.516-.312.744l.3.9-.684.684-.9-.3c-.24.132-.492.24-.756.312l-.408.84h-.96l-.42-.84a3.146 3.146 0 0 1-.744-.312l-.9.3-.684-.684.3-.9a3.463 3.463 0 0 1-.312-.756l-.84-.408v-.96l.84-.42c.072-.264.18-.516.312-.744l-.3-.9.684-.684.9.3c.24-.132.492-.24.756-.312l.42-.84h.96l.42.84c.264.072.516.18.744.312l.9-.3.684.684-.3.9c.132.24.24.492.312.756l.84.42v.96z" style="fill:#000;fill-opacity:1;fill-rule:nonzero;stroke:none"/></g></g><g clip-path="url(#aB)" transform="matrix(1.33333 0 0 -1.33333 0 151.2)"><g clip-path="url(#aC)" transform="matrix(1.27623 0 0 1.2785 410.52 39.84)"><path d="M5.845 4.354c-.792 0-1.44.648-1.44 1.44 0 .792.648 1.44 1.44 1.44.792 0 1.44-.648 1.44-1.44 0-.792-.648-1.44-1.44-1.44zm3.24 2.34c-.072.264-.18.516-.312.744l.3.9-.684.684-.9-.3c-.24.132-.492.24-.756.312l-.408.84h-.96l-.42-.84a3.146 3.146 0 0 1-.744-.312l-.9.3-.684-.684.3-.9a3.463 3.463 0 0 1-.312-.756l-.84-.408v-.96l.84-.42c.072-.264.18-.516.312-.744l-.3-.9.684-.684.9.3c.24-.132.492-.24.756-.312l.42-.84h.96l.42.84c.264.072.516.18.744.312l.9-.3.684.684-.3.9c.132.24.24.492.312.756l.84.42v.96z" style="fill:#000;fill-opacity:1;fill-rule:nonzero;stroke:none"/></g></g></svg>
