<svg width="397" height="227" xmlns="http://www.w3.org/2000/svg" xmlns:xlink="http://www.w3.org/1999/xlink" overflow="hidden"><defs><filter id="fx0" x="-10%" y="-10%" width="120%" height="120%" filterUnits="userSpaceOnUse" primitiveUnits="userSpaceOnUse"><feComponentTransfer color-interpolation-filters="sRGB"><feFuncR type="discrete" tableValues="0 0"/><feFuncG type="discrete" tableValues="0 0"/><feFuncB type="discrete" tableValues="0 0"/><feFuncA type="linear" slope="0.8" intercept="0"/></feComponentTransfer><feGaussianBlur stdDeviation="2.22316 2.22386"/></filter><filter id="fx1" x="-10%" y="-10%" width="120%" height="120%" filterUnits="userSpaceOnUse" primitiveUnits="userSpaceOnUse"><feComponentTransfer color-interpolation-filters="sRGB"><feFuncR type="discrete" tableValues="0 0"/><feFuncG type="discrete" tableValues="0 0"/><feFuncB type="discrete" tableValues="0 0"/><feFuncA type="linear" slope="0.8" intercept="0"/></feComponentTransfer><feGaussianBlur stdDeviation="2.22316 2.22386"/></filter><clipPath id="clip2"><rect x="0" y="0" width="397" height="227"/></clipPath><clipPath id="clip3"><rect x="300" y="15" width="82" height="83"/></clipPath><clipPath id="clip4"><rect x="300" y="15" width="82" height="83"/></clipPath><clipPath id="clip5"><rect x="300" y="15" width="82" height="83"/></clipPath><clipPath id="clip6"><rect x="318" y="43" width="33" height="32"/></clipPath><clipPath id="clip7"><rect x="318" y="43" width="33" height="32"/></clipPath><clipPath id="clip8"><rect x="318" y="43" width="33" height="32"/></clipPath><clipPath id="clip9"><rect x="316" y="21" width="83" height="82"/></clipPath><clipPath id="clip10"><rect x="316" y="21" width="83" height="82"/></clipPath><clipPath id="clip11"><rect x="316" y="21" width="83" height="82"/></clipPath><clipPath id="clip12"><rect x="338" y="46" width="37" height="37"/></clipPath><clipPath id="clip13"><rect x="338" y="46" width="37" height="37"/></clipPath><clipPath id="clip14"><rect x="338" y="46" width="37" height="37"/></clipPath><clipPath id="clip15"><path d="M109.5 26.5084 109.5 58.5185 140.358 58.5185 142.186 51.2022 149.5 49.3732 149.5 26.5084ZM5.91576e-06 3.38256e-06 397 3.38256e-06 397 227 5.91576e-06 227Z" fill-rule="evenodd" clip-rule="evenodd"/></clipPath><clipPath id="clip16"><rect x="-4" y="-4" width="66" height="57"/></clipPath><clipPath id="clip17"><rect x="0" y="0" width="59" height="49"/></clipPath><linearGradient x1="129.5" y1="26.5084" x2="129.5" y2="58.5184" gradientUnits="userSpaceOnUse" spreadMethod="reflect" id="fill18"><stop offset="0" stop-color="#FFFFFF"/><stop offset="0.04" stop-color="#FEFEFE"/><stop offset="0.08" stop-color="#FEFEFE"/><stop offset="0.12" stop-color="#FEFEFE"/><stop offset="0.16" stop-color="#FEFEFE"/><stop offset="0.2" stop-color="#FDFDFD"/><stop offset="0.24" stop-color="#FDFDFD"/><stop offset="0.28" stop-color="#FCFCFC"/><stop offset="0.32" stop-color="#FBFBFB"/><stop offset="0.36" stop-color="#FBFBFB"/><stop offset="0.4" stop-color="#FAFAFA"/><stop offset="0.44" stop-color="#F9F9F9"/><stop offset="0.48" stop-color="#F8F8F8"/><stop offset="0.52" stop-color="#F7F7F7"/><stop offset="0.56" stop-color="#F6F6F6"/><stop offset="0.6" stop-color="#F5F5F5"/><stop offset="0.64" stop-color="#F3F3F3"/><stop offset="0.68" stop-color="#F2F2F2"/><stop offset="0.72" stop-color="#F0F0F0"/><stop offset="0.76" stop-color="#EFEFEF"/><stop offset="0.8" stop-color="#EDEDED"/><stop offset="0.84" stop-color="#ECECEC"/><stop offset="0.88" stop-color="#EAEAEA"/><stop offset="0.92" stop-color="#E8E8E8"/><stop offset="0.96" stop-color="#E6E6E6"/><stop offset="1" stop-color="#E5E5E5"/></linearGradient><linearGradient x1="129.5" y1="26.5084" x2="129.5" y2="58.5184" gradientUnits="userSpaceOnUse" spreadMethod="reflect" id="fill19"><stop offset="0" stop-color="#CDCDCD"/><stop offset="0.05" stop-color="#CCCCCC"/><stop offset="0.1" stop-color="#CCCCCC"/><stop offset="0.15" stop-color="#CCCCCC"/><stop offset="0.2" stop-color="#CBCBCB"/><stop offset="0.25" stop-color="#CBCBCB"/><stop offset="0.3" stop-color="#CACACA"/><stop offset="0.35" stop-color="#CACACA"/><stop offset="0.4" stop-color="#C9C9C9"/><stop offset="0.45" stop-color="#C8C8C8"/><stop offset="0.5" stop-color="#C7C7C7"/><stop offset="0.55" stop-color="#C6C6C6"/><stop offset="0.6" stop-color="#C4C4C4"/><stop offset="0.65" stop-color="#C3C3C3"/><stop offset="0.7" stop-color="#C2C2C2"/><stop offset="0.75" stop-color="#C0C0C0"/><stop offset="0.8" stop-color="#BFBFBF"/><stop offset="0.85" stop-color="#BDBDBD"/><stop offset="0.9" stop-color="#BBBBBB"/><stop offset="0.95" stop-color="#B9B9B9"/><stop offset="1" stop-color="#B8B8B8"/></linearGradient><clipPath id="clip20"><rect x="191" y="18" width="36" height="37"/></clipPath><clipPath id="clip21"><rect x="191" y="18" width="36" height="37"/></clipPath><clipPath id="clip22"><rect x="191" y="18" width="36" height="37"/></clipPath><clipPath id="clip23"><rect x="184" y="25" width="40" height="40"/></clipPath><clipPath id="clip24"><rect x="184" y="25" width="40" height="40"/></clipPath><clipPath id="clip25"><rect x="184" y="25" width="40" height="40"/></clipPath><clipPath id="clip26"><rect x="180" y="27" width="17" height="16"/></clipPath><clipPath id="clip27"><rect x="180" y="27" width="17" height="16"/></clipPath><clipPath id="clip28"><rect x="180" y="27" width="17" height="16"/></clipPath><clipPath id="clip29"><rect x="153" y="27" width="24" height="23"/></clipPath><clipPath id="clip30"><rect x="153" y="27" width="24" height="23"/></clipPath><clipPath id="clip31"><rect x="153" y="27" width="24" height="23"/></clipPath><clipPath id="clip32"><rect x="2" y="130" width="66" height="66"/></clipPath><clipPath id="clip33"><rect x="2" y="130" width="66" height="66"/></clipPath><clipPath id="clip34"><rect x="2" y="130" width="66" height="66"/></clipPath><clipPath id="clip35"><path d="M361.5 156.549 361.5 186.559 384.058 186.559 384.746 183.804 387.5 183.115 387.5 156.549ZM5.91576e-06 3.38256e-06 397 3.38256e-06 397 227 5.91576e-06 227Z" fill-rule="evenodd" clip-rule="evenodd"/></clipPath><clipPath id="clip36"><rect x="-4" y="-4" width="51" height="55"/></clipPath><clipPath id="clip37"><rect x="0" y="0" width="45" height="47"/></clipPath><linearGradient x1="374.5" y1="156.549" x2="374.5" y2="186.559" gradientUnits="userSpaceOnUse" spreadMethod="reflect" id="fill38"><stop offset="0" stop-color="#FFFFFF"/><stop offset="0.04" stop-color="#FEFEFE"/><stop offset="0.08" stop-color="#FEFEFE"/><stop offset="0.12" stop-color="#FEFEFE"/><stop offset="0.16" stop-color="#FEFEFE"/><stop offset="0.2" stop-color="#FDFDFD"/><stop offset="0.24" stop-color="#FDFDFD"/><stop offset="0.28" stop-color="#FCFCFC"/><stop offset="0.32" stop-color="#FBFBFB"/><stop offset="0.36" stop-color="#FBFBFB"/><stop offset="0.4" stop-color="#FAFAFA"/><stop offset="0.44" stop-color="#F9F9F9"/><stop offset="0.48" stop-color="#F8F8F8"/><stop offset="0.52" stop-color="#F7F7F7"/><stop offset="0.56" stop-color="#F6F6F6"/><stop offset="0.6" stop-color="#F5F5F5"/><stop offset="0.64" stop-color="#F3F3F3"/><stop offset="0.68" stop-color="#F2F2F2"/><stop offset="0.72" stop-color="#F0F0F0"/><stop offset="0.76" stop-color="#EFEFEF"/><stop offset="0.8" stop-color="#EDEDED"/><stop offset="0.84" stop-color="#ECECEC"/><stop offset="0.88" stop-color="#EAEAEA"/><stop offset="0.92" stop-color="#E8E8E8"/><stop offset="0.96" stop-color="#E6E6E6"/><stop offset="1" stop-color="#E5E5E5"/></linearGradient><linearGradient x1="374.5" y1="156.549" x2="374.5" y2="186.559" gradientUnits="userSpaceOnUse" spreadMethod="reflect" id="fill39"><stop offset="0" stop-color="#CDCDCD"/><stop offset="0.05" stop-color="#CCCCCC"/><stop offset="0.1" stop-color="#CCCCCC"/><stop offset="0.15" stop-color="#CCCCCC"/><stop offset="0.2" stop-color="#CBCBCB"/><stop offset="0.25" stop-color="#CBCBCB"/><stop offset="0.3" stop-color="#CACACA"/><stop offset="0.35" stop-color="#CACACA"/><stop offset="0.4" stop-color="#C9C9C9"/><stop offset="0.45" stop-color="#C8C8C8"/><stop offset="0.5" stop-color="#C7C7C7"/><stop offset="0.55" stop-color="#C6C6C6"/><stop offset="0.6" stop-color="#C4C4C4"/><stop offset="0.65" stop-color="#C3C3C3"/><stop offset="0.7" stop-color="#C2C2C2"/><stop offset="0.75" stop-color="#C0C0C0"/><stop offset="0.8" stop-color="#BFBFBF"/><stop offset="0.85" stop-color="#BDBDBD"/><stop offset="0.9" stop-color="#BBBBBB"/><stop offset="0.95" stop-color="#B9B9B9"/><stop offset="1" stop-color="#B8B8B8"/></linearGradient><clipPath id="clip40"><rect x="173" y="113" width="58" height="59"/></clipPath><clipPath id="clip41"><rect x="173" y="113" width="58" height="59"/></clipPath><clipPath id="clip42"><rect x="173" y="113" width="58" height="59"/></clipPath></defs><g clip-path="url(#clip2)"><rect x="0" y="0" width="397" height="227.071" fill="#FFFFFF"/><path d="M32.9987 130.473 32.9987 74.022 281.72 74.022 281.72 80.0264 36 80.0264 39.0013 77.0242 39.0013 130.473ZM278.719 68.0176 296.727 77.0242 278.719 86.0308Z"/><path d="M170.5 63.0198 170.5 63.0198C176.851 63.0198 182 68.1702 182 74.5234L182 75.5237C182 81.877 176.851 87.0274 170.5 87.0274L170.5 87.0274C164.149 87.0274 159 81.877 159 75.5237L159 74.5234C159 68.1702 164.149 63.0198 170.5 63.0198Z" fill-rule="evenodd"/><text fill="#FFFFFF" font-family="Calibri,Calibri_MSFontService,sans-serif" font-weight="700" font-size="19" transform="matrix(1 0 0 1.00031 165.757 81)">1</text><text font-family="Calibri,Calibri_MSFontService,sans-serif" font-weight="400" font-size="16" transform="matrix(1 0 0 1.00031 185.516 97)">Deploy</text><g clip-path="url(#clip3)"><g clip-path="url(#clip4)"><g clip-path="url(#clip5)"><path d="M65.9812 40.4156C65.7281 40.4156 65.3906 40.4156 65.1375 40.4156 65.1375 40.4156 65.1375 40.4156 65.1375 40.4156 65.1375 36.2812 63.1125 32.4844 59.8219 30.1219 56.4469 27.7594 52.1437 27.1687 48.2625 28.5187 45.0562 22.275 37.9687 19.0687 31.2187 20.6719 24.4687 22.275 19.575 28.35 19.575 35.3531 19.575 35.3531 19.575 35.4375 19.575 35.5219 14.9344 34.7625 10.2937 36.7031 7.425 40.4156 4.64062 44.2125 4.13437 49.1906 6.075 53.4094 8.1 57.6281 12.3187 60.4125 16.9594 60.6656L16.9594 60.75 65.8969 60.75C71.4656 60.75 76.0219 56.1937 76.0219 50.625 76.0219 45.0562 71.55 40.4156 65.9812 40.4156Z" stroke="#000000" stroke-width="2.53125" fill="#FFFFFF" transform="matrix(1 0 0 1.01266 301 15.0047)"/></g></g></g><g clip-path="url(#clip6)"><g clip-path="url(#clip7)"><g clip-path="url(#clip8)"><path d="M3.23018 10.9826 5.49131 10.9826 5.49131 12.2747 3.23018 12.2747Z" transform="matrix(1.03193 0 0 1 319 43.0135)"/><path d="M3.23018 8.39847 5.49131 8.39847 5.49131 9.69055 3.23018 9.69055Z" transform="matrix(1.03193 0 0 1 319 43.0135)"/><path d="M3.23018 13.5668 5.49131 13.5668 5.49131 14.8588 3.23018 14.8588Z" transform="matrix(1.03193 0 0 1 319 43.0135)"/><path d="M3.23018 21.3192 5.49131 21.3192 5.49131 22.6113 3.23018 22.6113Z" transform="matrix(1.03193 0 0 1 319 43.0135)"/><path d="M3.23018 18.7351 5.49131 18.7351 5.49131 20.0271 3.23018 20.0271Z" transform="matrix(1.03193 0 0 1 319 43.0135)"/><path d="M3.23018 16.1509 5.49131 16.1509 5.49131 17.443 3.23018 17.443Z" transform="matrix(1.03193 0 0 1 319 43.0135)"/><path d="M25.5184 18.7351 27.7796 18.7351 27.7796 20.0271 25.5184 20.0271Z" transform="matrix(1.03193 0 0 1 319 43.0135)"/><path d="M25.5184 21.3192 27.7796 21.3192 27.7796 22.6113 25.5184 22.6113Z" transform="matrix(1.03193 0 0 1 319 43.0135)"/><path d="M25.5184 16.1509 27.7796 16.1509 27.7796 17.443 25.5184 17.443Z" transform="matrix(1.03193 0 0 1 319 43.0135)"/><path d="M25.5184 8.39847 27.7796 8.39847 27.7796 9.69055 25.5184 9.69055Z" transform="matrix(1.03193 0 0 1 319 43.0135)"/><path d="M25.5184 13.5668 27.7796 13.5668 27.7796 14.8588 25.5184 14.8588Z" transform="matrix(1.03193 0 0 1 319 43.0135)"/><path d="M25.5184 10.9826 27.7796 10.9826 27.7796 12.2747 25.5184 12.2747Z" transform="matrix(1.03193 0 0 1 319 43.0135)"/><path d="M16.1509 3.23018 17.443 3.23018 17.443 5.49131 16.1509 5.49131Z" transform="matrix(1.03193 0 0 1 319 43.0135)"/><path d="M21.3192 3.23018 22.6113 3.23018 22.6113 5.49131 21.3192 5.49131Z" transform="matrix(1.03193 0 0 1 319 43.0135)"/><path d="M18.7351 3.23018 20.0271 3.23018 20.0271 5.49131 18.7351 5.49131Z" transform="matrix(1.03193 0 0 1 319 43.0135)"/><path d="M13.5668 3.23018 14.8588 3.23018 14.8588 5.49131 13.5668 5.49131Z" transform="matrix(1.03193 0 0 1 319 43.0135)"/><path d="M8.39847 3.23018 9.69055 3.23018 9.69055 5.49131 8.39847 5.49131Z" transform="matrix(1.03193 0 0 1 319 43.0135)"/><path d="M10.9826 3.23018 12.2747 3.23018 12.2747 5.49131 10.9826 5.49131Z" transform="matrix(1.03193 0 0 1 319 43.0135)"/><path d="M10.9826 25.5184 12.2747 25.5184 12.2747 27.7796 10.9826 27.7796Z" transform="matrix(1.03193 0 0 1 319 43.0135)"/><path d="M8.39847 25.5184 9.69055 25.5184 9.69055 27.7796 8.39847 27.7796Z" transform="matrix(1.03193 0 0 1 319 43.0135)"/><path d="M13.5668 25.5184 14.8588 25.5184 14.8588 27.7796 13.5668 27.7796Z" transform="matrix(1.03193 0 0 1 319 43.0135)"/><path d="M16.1509 25.5184 17.443 25.5184 17.443 27.7796 16.1509 27.7796Z" transform="matrix(1.03193 0 0 1 319 43.0135)"/><path d="M18.7351 25.5184 20.0271 25.5184 20.0271 27.7796 18.7351 27.7796Z" transform="matrix(1.03193 0 0 1 319 43.0135)"/><path d="M21.3192 25.5184 22.6113 25.5184 22.6113 27.7796 21.3192 27.7796Z" transform="matrix(1.03193 0 0 1 319 43.0135)"/><path d="M11.3056 11.3056 19.7041 11.3056 19.7041 19.7041 11.3056 19.7041Z" transform="matrix(1.03193 0 0 1 319 43.0135)"/><path d="M22.9343 6.78338 8.07546 6.78338C7.36188 6.78338 6.78338 7.36188 6.78338 8.07546L6.78338 22.9343C6.78338 23.6479 7.36188 24.2264 8.07546 24.2264L22.9343 24.2264C23.6479 24.2264 24.2264 23.6479 24.2264 22.9343L24.2264 8.07546C24.2264 7.36188 23.6479 6.78338 22.9343 6.78338ZM20.9962 20.9962 10.0136 20.9962 10.0136 10.0136 20.9962 10.0136Z" transform="matrix(1.03193 0 0 1 319 43.0135)"/></g></g></g><text font-family="Calibri,Calibri_MSFontService,sans-serif" font-weight="400" font-size="16" transform="matrix(1 0 0 1.00031 320.19 99)">Classical &amp;</text><text font-family="Calibri,Calibri_MSFontService,sans-serif" font-weight="400" font-size="16" transform="matrix(1 0 0 1.00031 323.785 114)">Quantum</text><text font-family="Calibri,Calibri_MSFontService,sans-serif" font-weight="400" font-size="16" transform="matrix(1 0 0 1.00031 324.986 129)">Offerings</text><g clip-path="url(#clip9)"><g clip-path="url(#clip10)"><g clip-path="url(#clip11)"><path d="M65.9813 40.4157C65.7282 40.4157 65.3907 40.4157 65.1376 40.4157 65.1376 40.4157 65.1376 40.4157 65.1376 40.4157 65.1376 36.2813 63.1126 32.4844 59.8219 30.1219 56.4469 27.7594 52.1438 27.1688 48.2626 28.5188 45.0563 22.275 37.9688 19.0688 31.2188 20.6719 24.4688 22.275 19.575 28.35 19.575 35.3532 19.575 35.3532 19.575 35.4375 19.575 35.5219 14.9344 34.7625 10.2938 36.7032 7.42501 40.4157 4.64063 44.2126 4.13438 49.1907 6.07501 53.4094 8.10001 57.6282 12.3188 60.4126 16.9594 60.6657L16.9594 60.7501 65.8969 60.7501C71.4657 60.7501 76.022 56.1938 76.022 50.6251 76.022 45.0563 71.5501 40.4157 65.9813 40.4157Z" transform="matrix(1 0 0 1.00031 317 21.0066)"/></g></g></g><g clip-path="url(#clip12)"><g clip-path="url(#clip13)"><g clip-path="url(#clip14)"><path d="M20.1375 18C20.1375 19.2426 19.1301 20.25 17.8875 20.25 16.6449 20.25 15.6375 19.2426 15.6375 18 15.6375 16.7574 16.6449 15.75 17.8875 15.75 19.1301 15.75 20.1375 16.7574 20.1375 18Z" fill="#FFFFFF" transform="matrix(1 0 0 1.00031 339 46.0145)"/><path d="M31.0875 10.5C30.45 9.4125 29.025 8.8875 27.075 8.8875 25.8375 8.8875 24.4125 9.1125 22.8375 9.525 21.75 5.5875 19.95 3 17.8875 3 15.8625 3 14.025 5.55 12.975 9.45 11.475 9.075 10.125 8.85 8.925 8.85 6.975 8.85 5.55 9.375 4.9125 10.4625 3.8625 12.2625 5.25 15.15 8.1375 18.075 5.3625 20.925 4.0875 23.7 5.1 25.4625 5.7375 26.55 7.1625 27.075 9.1125 27.075 10.2375 27.075 11.55 26.8875 12.975 26.55 14.0625 30.45 15.8625 33 17.8875 33 19.9125 33 21.75 30.45 22.8 26.55 24.3 26.925 25.65 27.15 26.85 27.15 28.8 27.15 30.225 26.625 30.8625 25.5375 31.875 23.775 30.6 21 27.825 18.15 30.7875 15.1875 32.1375 12.3 31.0875 10.5ZM27.075 10.3875C28.4625 10.3875 29.475 10.725 29.775 11.25 30.3375 12.225 29.325 14.5125 26.775 17.0625 25.875 16.2375 24.8625 15.4125 23.7375 14.625 23.625 13.35 23.4375 12.1125 23.175 10.95 24.6 10.575 25.95 10.3875 27.075 10.3875ZM20.3625 21.9C19.575 22.35 18.7875 22.7625 18 23.1375 17.2125 22.7625 16.425 22.35 15.6375 21.9 14.8875 21.45 14.1375 21 13.4625 20.55 13.3875 19.725 13.3875 18.9 13.3875 18 13.3875 17.175 13.425 16.3875 13.4625 15.6 14.2125 15.075 15 14.5875 15.8625 14.1 16.575 13.6875 17.2875 13.3125 18 12.975 18.7125 13.3125 19.425 13.6875 20.1375 14.1 20.8875 14.55 21.6375 15 22.3125 15.45 22.3875 16.275 22.3875 17.1 22.3875 18 22.3875 18.9375 22.35 19.8375 22.275 20.7 21.675 21.1125 21.0375 21.4875 20.3625 21.9ZM22.0875 22.6125C21.975 23.325 21.8625 24.0375 21.75 24.675 21.1125 24.45 20.4375 24.225 19.7625 23.925 20.2125 23.7 20.6625 23.4375 21.1125 23.175 21.45 22.9875 21.7875 22.8 22.0875 22.6125ZM16.2375 23.925C15.4875 24.225 14.775 24.4875 14.0625 24.7125 13.9125 24 13.8 23.25 13.6875 22.4625 14.1 22.725 14.475 22.95 14.925 23.2125 15.3375 23.4375 15.7875 23.7 16.2375 23.925ZM11.925 19.425C11.325 18.975 10.8 18.525 10.3125 18.075 10.8 17.625 11.3625 17.175 11.925 16.725 11.925 17.1375 11.8875 17.55 11.8875 18 11.8875 18.4875 11.8875 18.975 11.925 19.425ZM13.65 13.6875C13.7625 12.8625 13.875 12.075 14.025 11.325 14.7375 11.55 15.4875 11.85 16.2375 12.15 15.8625 12.3375 15.45 12.5625 15.075 12.7875 14.625 13.0875 14.1375 13.3875 13.65 13.6875ZM19.725 12.15C20.4 11.85 21.075 11.625 21.75 11.4 21.9 12.075 22.0125 12.7875 22.125 13.5375 21.7125 13.275 21.3375 13.05 20.8875 12.7875 20.5125 12.6 20.1375 12.375 19.725 12.15ZM23.85 16.575C24.525 17.1 25.125 17.5875 25.6875 18.1125 25.125 18.6 24.525 19.125 23.85 19.6125 23.8875 19.0875 23.8875 18.5625 23.8875 18.0375 23.8875 17.5125 23.8875 17.025 23.85 16.575ZM17.8875 4.5C19.0125 4.5 20.475 6.4875 21.4125 9.9375 20.325 10.3125 19.1625 10.7625 18 11.2875 16.7625 10.725 15.5625 10.2375 14.4 9.8625 15.3375 6.45 16.7625 4.5 17.8875 4.5ZM6.1875 11.25C6.525 10.6875 7.5 10.3875 8.8875 10.3875 9.975 10.3875 11.2125 10.575 12.5625 10.9125 12.3 12.1125 12.1125 13.425 12 14.775 10.95 15.525 10.0125 16.275 9.1875 17.0625 6.675 14.5125 5.625 12.225 6.1875 11.25ZM9.1125 25.6125C7.725 25.6125 6.7125 25.275 6.4125 24.75 5.85 23.775 6.825 21.6 9.225 19.125 10.0875 19.875 11.025 20.625 12.0375 21.375 12.15 22.6875 12.3375 23.9625 12.6 25.125 11.3625 25.4625 10.1625 25.6125 9.1125 25.6125ZM17.8875 31.5C16.7625 31.5 15.3375 29.55 14.4 26.175 15.5625 25.8 16.7625 25.35 18 24.7875 19.1625 25.3125 20.2875 25.7625 21.375 26.1 20.4375 29.55 19.0125 31.5 17.8875 31.5ZM29.5875 24.75C29.25 25.3125 28.275 25.6125 26.8875 25.6125 25.8 25.6125 24.525 25.425 23.2125 25.0875 23.4375 23.9625 23.625 22.8 23.7375 21.525 24.8625 20.7375 25.875 19.95 26.775 19.125 29.175 21.6 30.15 23.775 29.5875 24.75Z" fill="#FFFFFF" transform="matrix(1 0 0 1.00031 339 46.0145)"/></g></g></g><g clip-path="url(#clip15)"><g clip-path="url(#clip16)" filter="url(#fx0)" transform="translate(101 18)"><g clip-path="url(#clip17)"><path d="M8.2925 8.34834 48.6925 8.34834 48.6925 31.4418 39.4587 40.6785 8.2925 40.6785Z" fill="#FF0000" fill-rule="evenodd"/><path d="M39.4587 40.6785 41.3055 33.2891 48.6925 31.4418Z" fill="#FF0000" fill-rule="evenodd"/><path d="M39.4587 40.6785 41.3055 33.2891 48.6925 31.4418 39.4587 40.6785 8.2925 40.6785 8.2925 8.34834 48.6925 8.34834 48.6925 31.4418" stroke="#FFFFFF" stroke-miterlimit="8" fill="none" fill-rule="evenodd"/></g></g></g><path d="M109.5 26.5084 149.5 26.5084 149.5 49.3732 140.358 58.5184 109.5 58.5184Z" fill="url(#fill18)" fill-rule="evenodd"/><path d="M140.358 58.5184 142.186 51.2022 149.5 49.3732Z" fill="url(#fill19)" fill-rule="evenodd"/><path d="M140.358 58.5184 142.186 51.2022 149.5 49.3732 140.358 58.5184 109.5 58.5184 109.5 26.5084 149.5 26.5084 149.5 49.3732" stroke="#FFFFFF" stroke-width="1.33389" stroke-miterlimit="8" fill="none" fill-rule="evenodd"/><path d="M116.5 34.1775C116.5 33.8092 116.799 33.5106 117.167 33.5106L124.833 33.5106C125.202 33.5106 125.5 33.8092 125.5 34.1775L125.5 36.845C125.5 37.2133 125.202 37.5118 124.833 37.5118L117.167 37.5118C116.799 37.5118 116.5 37.2133 116.5 36.845Z" stroke="#000000" stroke-width="3.00126" stroke-miterlimit="8" fill-rule="evenodd"/><path d="M121 37.0116 121 41.7924 119 41.7924 119 37.0116ZM124.002 40.458 120 45.7953 115.998 40.4581Z"/><path d="M116.5 47.3483C116.5 46.8879 116.873 46.5147 117.333 46.5147L124.667 46.5147C125.127 46.5147 125.5 46.8879 125.5 47.3483L125.5 50.6826C125.5 51.143 125.127 51.5162 124.667 51.5162L117.333 51.5162C116.873 51.5162 116.5 51.143 116.5 50.6826Z" stroke="#000000" stroke-width="3.00126" stroke-miterlimit="8" fill-rule="evenodd"/><path d="M133.5 34.1775C133.5 33.8092 133.799 33.5106 134.167 33.5106L141.833 33.5106C142.202 33.5106 142.5 33.8092 142.5 34.1775L142.5 36.845C142.5 37.2133 142.202 37.5118 141.833 37.5118L134.167 37.5118C133.799 37.5118 133.5 37.2133 133.5 36.845Z" stroke="#000000" stroke-width="3.00126" stroke-miterlimit="8" fill-rule="evenodd"/><path d="M139 37.0116 139 41.792 137 41.7921 137 37.0116ZM142.002 40.4577 138 45.795 133.998 40.4578Z"/><path d="M133.5 47.3483C133.5 46.8879 133.873 46.5147 134.333 46.5147L141.667 46.5147C142.127 46.5147 142.5 46.8879 142.5 47.3483L142.5 50.6826C142.5 51.143 142.127 51.5162 141.667 51.5162L134.333 51.5162C133.873 51.5162 133.5 51.143 133.5 50.6826Z" stroke="#000000" stroke-width="3.00126" stroke-miterlimit="8" fill-rule="evenodd"/><path d="M125 34.0103 128.708 34.0103 128.708 36.0118 125 36.0117ZM127.374 31.0081 132.71 35.0111 127.374 39.014Z"/><text font-family="Calibri,Calibri_MSFontService,sans-serif" font-style="italic" font-weight="400" font-size="16" transform="matrix(1 0 0 1.00031 22.2032 37)">Deployment</text><text font-family="Calibri,Calibri_MSFontService,sans-serif" font-style="italic" font-weight="400" font-size="16" transform="matrix(1 0 0 1.00031 59.1387 52)">Model</text><g clip-path="url(#clip20)"><g clip-path="url(#clip21)"><g clip-path="url(#clip22)"><path d="M12.6109 23.4828 8.44739 19.3229 12.6109 15.163 13.6391 16.1911 10.5109 19.3229 13.6391 22.4547 12.6109 23.4828Z" transform="matrix(1 0 0 1.0289 192 18.0057)"/><path d="M22.3891 23.4828 21.3609 22.4547 24.4891 19.3229 21.3609 16.1911 22.3891 15.163 26.5526 19.3229 22.3891 23.4828Z" transform="matrix(1 0 0 1.0289 192 18.0057)"/><path d="M12.9736 18.8674 22.1217 18.8674 22.1217 20.3316 12.9736 20.3316Z" transform="matrix(0.381288 -0.946641 0.920056 0.392305 184.752 47.0135)"/><path d="M2.91667 6.19792 2.91667 28.8021 32.0833 28.8021 32.0833 6.19792ZM28.0729 8.38542C28.4756 8.38542 28.8021 8.71186 28.8021 9.11458 28.8021 9.5173 28.4756 9.84375 28.0729 9.84375 27.6702 9.84375 27.3437 9.5173 27.3437 9.11458 27.3437 8.71186 27.6702 8.38542 28.0729 8.38542ZM25.5208 8.38542C25.9235 8.38542 26.25 8.71186 26.25 9.11458 26.25 9.5173 25.9235 9.84375 25.5208 9.84375 25.1181 9.84375 24.7917 9.5173 24.7917 9.11458 24.7917 8.71186 25.1181 8.38542 25.5208 8.38542ZM22.9687 8.38542C23.3715 8.38542 23.6979 8.71186 23.6979 9.11458 23.6979 9.5173 23.3715 9.84375 22.9687 9.84375 22.566 9.84375 22.2396 9.5173 22.2396 9.11458 22.2396 8.71186 22.566 8.38542 22.9687 8.38542ZM29.8958 26.6146 5.10417 26.6146 5.10417 12.0312 29.8958 12.0312Z" transform="matrix(1 0 0 1.0289 192 18.0057)"/></g></g></g><rect x="190" y="34.0107" width="29" height="22.0069" fill="#FFFFFF"/><g clip-path="url(#clip23)"><g clip-path="url(#clip24)"><g clip-path="url(#clip25)"><path d="M14.0522 26.1666 9.41281 21.5312 14.0522 16.8959 15.1978 18.0416 11.7122 21.5312 15.1978 25.0209 14.0522 26.1666Z" transform="matrix(1 0 0 1.00031 185 25.0079)"/><path d="M24.9478 26.1666 23.8022 25.0209 27.2878 21.5312 23.8022 18.0416 24.9478 16.8959 29.5872 21.5312 24.9478 26.1666Z" transform="matrix(1 0 0 1.00031 185 25.0079)"/><path d="M14.3982 20.9391 24.5508 20.9391 24.5508 22.5642 14.3982 22.5642Z" transform="matrix(0.382827 -0.924061 0.92377 0.382948 176.924 56.4331)"/><path d="M3.25 6.90625 3.25 32.0937 35.75 32.0937 35.75 6.90625ZM31.2812 9.34375C31.73 9.34375 32.0937 9.7075 32.0937 10.1562 32.0937 10.605 31.73 10.9687 31.2812 10.9687 30.8325 10.9687 30.4687 10.605 30.4687 10.1562 30.4687 9.7075 30.8325 9.34375 31.2812 9.34375ZM28.4375 9.34375C28.8862 9.34375 29.25 9.7075 29.25 10.1562 29.25 10.605 28.8862 10.9687 28.4375 10.9687 27.9888 10.9687 27.625 10.605 27.625 10.1562 27.625 9.7075 27.9888 9.34375 28.4375 9.34375ZM25.5937 9.34375C26.0425 9.34375 26.4062 9.7075 26.4062 10.1562 26.4062 10.605 26.0425 10.9687 25.5937 10.9687 25.145 10.9687 24.7812 10.605 24.7812 10.1562 24.7812 9.7075 25.145 9.34375 25.5937 9.34375ZM33.3125 29.6562 5.6875 29.6562 5.6875 13.4062 33.3125 13.4062Z" transform="matrix(1 0 0 1.00031 185 25.0079)"/></g></g></g><text font-family="Calibri,Calibri_MSFontService,sans-serif" font-style="italic" font-weight="400" font-size="16" transform="matrix(1 0 0 1.00031 230.686 37)">Quantum</text><text font-family="Calibri,Calibri_MSFontService,sans-serif" font-style="italic" font-weight="400" font-size="16" transform="matrix(1 0 0 1.00031 230.686 52)">Application</text><path d="M181.5 35.0111C181.5 30.3152 185.306 26.5084 190 26.5084 194.694 26.5084 198.5 30.3152 198.5 35.0111 198.5 39.707 194.694 43.5137 190 43.5137 185.306 43.5137 181.5 39.707 181.5 35.0111Z" stroke="#000000" stroke-width="1.33389" stroke-miterlimit="8" fill="#FFFFFF" fill-rule="evenodd"/><g clip-path="url(#clip26)"><g clip-path="url(#clip27)"><g clip-path="url(#clip28)"><path d="M8.39326 7.50236C8.39326 8.02029 7.9734 8.44015 7.45547 8.44015 6.93754 8.44015 6.51767 8.02029 6.51767 7.50236 6.51767 6.98443 6.93754 6.56456 7.45547 6.56456 7.9734 6.56456 8.39326 6.98443 8.39326 7.50236Z" transform="matrix(1.06633 0 0 1 181 27.0085)"/><path d="M12.9572 4.37638C12.6915 3.92311 12.0976 3.70429 11.2848 3.70429 10.769 3.70429 10.1751 3.79807 9.51862 3.97 9.06535 2.32886 8.31511 1.25039 7.45547 1.25039 6.61145 1.25039 5.84559 2.31323 5.40795 3.93874 4.78275 3.78244 4.22008 3.68866 3.71992 3.68866 2.90716 3.68866 2.31323 3.90748 2.04752 4.36075 1.60988 5.11098 2.18819 6.31449 3.39169 7.53362 2.23508 8.72149 1.70366 9.87811 2.12567 10.6127 2.39138 11.066 2.98531 11.2848 3.79807 11.2848 4.26697 11.2848 4.81401 11.2066 5.40795 11.066 5.86122 12.6915 6.61145 13.7543 7.45547 13.7543 8.29948 13.7543 9.06535 12.6915 9.50299 11.066 10.1282 11.2223 10.6909 11.3161 11.191 11.3161 12.0038 11.3161 12.5977 11.0972 12.8634 10.644 13.2854 9.90937 12.754 8.75275 11.5974 7.56488 12.8322 6.33012 13.3948 5.12661 12.9572 4.37638ZM11.2848 4.32949C11.8631 4.32949 12.2851 4.47016 12.4102 4.68897 12.6446 5.09535 12.2226 6.04878 11.1598 7.11161 10.7846 6.76775 10.3626 6.42389 9.89374 6.09567 9.84685 5.56425 9.7687 5.04846 9.65929 4.56394 10.2532 4.40764 10.8159 4.32949 11.2848 4.32949ZM8.48704 9.12787C8.15882 9.31543 7.83059 9.48736 7.50236 9.64366 7.17413 9.48736 6.8459 9.31543 6.51767 9.12787 6.20508 8.94031 5.89248 8.75275 5.61114 8.56519 5.57988 8.22133 5.57988 7.87748 5.57988 7.50236 5.57988 7.1585 5.59551 6.83027 5.61114 6.50204 5.92374 6.28323 6.25197 6.08004 6.61145 5.87685 6.90842 5.70492 7.20539 5.54862 7.50236 5.40795 7.79933 5.54862 8.0963 5.70492 8.39326 5.87685 8.70586 6.06441 9.01846 6.25197 9.2998 6.43952 9.33106 6.78338 9.33106 7.12724 9.33106 7.50236 9.33106 7.89311 9.31543 8.26822 9.28417 8.62771 9.03409 8.79964 8.76838 8.95594 8.48704 9.12787ZM9.20602 9.42484C9.15913 9.72181 9.11224 10.0188 9.06535 10.2845 8.79964 10.1907 8.5183 10.0969 8.23697 9.97189 8.42452 9.87811 8.61208 9.7687 8.79964 9.65929 8.94031 9.58114 9.08098 9.50299 9.20602 9.42484ZM6.76775 9.97189C6.45515 10.0969 6.15819 10.2063 5.86122 10.3001 5.7987 10.0031 5.75181 9.69055 5.70492 9.36232 5.87685 9.47173 6.03315 9.56551 6.22071 9.67492 6.39264 9.7687 6.58019 9.87811 6.76775 9.97189ZM4.97031 8.0963C4.72023 7.90874 4.50142 7.72118 4.29823 7.53362 4.50142 7.34606 4.73586 7.1585 4.97031 6.97094 4.97031 7.14287 4.95468 7.3148 4.95468 7.50236 4.95468 7.70555 4.95468 7.90874 4.97031 8.0963ZM5.68929 5.70492C5.73618 5.36106 5.78307 5.03283 5.84559 4.72023 6.14256 4.81401 6.45515 4.93905 6.76775 5.06409 6.61145 5.14224 6.43952 5.23602 6.28323 5.3298 6.09567 5.45484 5.89248 5.57988 5.68929 5.70492ZM8.22133 5.06409C8.50267 4.93905 8.78401 4.84527 9.06535 4.75149 9.12787 5.03283 9.17476 5.3298 9.22165 5.6424 9.04972 5.53299 8.89342 5.43921 8.70586 5.3298 8.54956 5.25165 8.39326 5.15787 8.22133 5.06409ZM9.94063 6.90842C10.222 7.12724 10.472 7.33043 10.7065 7.54925 10.472 7.75244 10.222 7.97126 9.94063 8.17445 9.95626 7.95563 9.95626 7.73681 9.95626 7.51799 9.95626 7.29917 9.95626 7.09598 9.94063 6.90842ZM7.45547 1.87559C7.92437 1.87559 8.53393 2.70397 8.92468 4.14193 8.47141 4.29823 7.98689 4.48579 7.50236 4.7046 6.98657 4.47016 6.48641 4.26697 6.00189 4.11067 6.39264 2.68835 6.98657 1.87559 7.45547 1.87559ZM2.57894 4.68897C2.7196 4.45453 3.12598 4.32949 3.70429 4.32949 4.15756 4.32949 4.67334 4.40764 5.23602 4.54831 5.12661 5.04846 5.04846 5.59551 5.00157 6.15819 4.56394 6.47078 4.17319 6.78338 3.82933 7.11161 2.78212 6.04878 2.34449 5.09535 2.57894 4.68897ZM3.79807 10.6752C3.21976 10.6752 2.79775 10.5346 2.67272 10.3157 2.43827 9.90937 2.84464 9.00283 3.84496 7.97126 4.20445 8.28385 4.59519 8.59645 5.0172 8.90905 5.06409 9.4561 5.14224 9.98752 5.25165 10.472 4.73586 10.6127 4.23571 10.6752 3.79807 10.6752ZM7.45547 13.1291C6.98657 13.1291 6.39264 12.3164 6.00189 10.9097 6.48641 10.7534 6.98657 10.5658 7.50236 10.3314 7.98689 10.5502 8.45578 10.7378 8.90905 10.8784 8.5183 12.3164 7.92437 13.1291 7.45547 13.1291ZM12.332 10.3157C12.1913 10.5502 11.785 10.6752 11.2066 10.6752 10.7534 10.6752 10.222 10.5971 9.67492 10.4564 9.7687 9.98752 9.84685 9.50299 9.89374 8.97157 10.3626 8.64334 10.7846 8.31511 11.1598 7.97126 12.1601 9.00283 12.5665 9.90937 12.332 10.3157Z" transform="matrix(1.06633 0 0 1 181 27.0085)"/></g></g></g><g clip-path="url(#clip29)"><g clip-path="url(#clip30)"><g clip-path="url(#clip31)"><path d="M20.173 9.62803 12.3789 9.62803 12.3789 1.83391 9.62803 1.83391 9.62803 9.62803 1.83391 9.62803 1.83391 12.3789 9.62803 12.3789 9.62803 20.173 12.3789 20.173 12.3789 12.3789 20.173 12.3789Z" transform="matrix(1.04513 0 0 1 154 27.0085)"/></g></g></g><text font-family="Calibri,Calibri_MSFontService,sans-serif" font-weight="400" font-size="16" transform="matrix(1 0 0 1.00031 2.57426 211)">Developer</text><g clip-path="url(#clip32)"><g clip-path="url(#clip33)"><g clip-path="url(#clip34)"><path d="M21.125 34.8698C18.5521 35.8854 16.1823 37.2396 14.0156 38.9323 12.526 40.151 11.5781 41.9792 11.5104 43.9427L10.3594 53.9635C10.1562 55.4531 10.8333 56.9427 12.0521 57.7552 13.2708 58.5677 14.5573 59.1771 15.9115 59.7187L16.5208 59.7187 16.5208 57.0781C15.5052 56.6719 14.4896 56.1302 13.5417 55.5208 13.1354 55.25 12.9323 54.776 13 54.3021L14.2187 44.1458 14.2187 44.0104C14.2865 42.7917 14.8281 41.7083 15.776 40.9635 17.6042 39.4062 20.2448 37.9844 23.901 36.6302 25.9323 37.849 29.0469 38.5937 32.5 38.5937 35.9531 38.5937 39.0677 37.849 41.099 36.6302 44.8229 37.9844 47.3958 39.4062 49.2239 40.9635 50.1719 41.7083 50.7135 42.8594 50.7812 44.0104L52 54.2344C52.0677 54.7083 51.8646 55.1823 51.4583 55.4531L51.4583 55.4531C50.5104 56.0625 49.5625 56.6042 48.4792 57.0104L48.4792 59.651 49.0885 59.651C50.4427 59.1771 51.7292 58.5 52.9479 57.6875L52.9479 57.6875C54.1667 56.8073 54.8437 55.3854 54.6406 53.8958L53.4896 43.9427C53.4219 41.9792 52.474 40.151 50.9844 38.9323 48.8177 37.2396 46.4479 35.8177 43.875 34.8698 43.875 31.4167 44.0104 21.9375 44.0104 18.0781 44.0104 16.9948 43.875 15.9115 43.6042 14.8281 42.724 11.5781 40.4896 8.86979 37.5104 7.3125 37.2396 7.17708 36.8333 7.17708 36.6302 7.38021L36.0208 7.85417 35.3437 6.90625C35.1406 6.56771 34.8021 6.36458 34.4635 6.29687 33.7865 6.16146 33.1771 6.09375 32.5 6.09375 29.7917 6.09375 27.0833 7.10937 25.0521 8.86979 22.4792 11.1719 21.0573 14.4219 21.125 17.875L21.125 34.8698ZM24.5104 23.8333 24.9844 18.2812 39.9479 18.2812 40.4219 23.8333C39.6094 28.2344 35.4115 31.1458 30.9427 30.3333 27.6927 29.724 25.1198 27.151 24.5104 23.8333ZM27.2187 35.1406C27.9635 34.5312 28.4375 33.5156 28.4375 32.5L28.4375 32.3646C31.0104 33.4479 33.9896 33.4479 36.5625 32.3646L36.5625 32.5C36.5625 33.5156 37.0365 34.4635 37.7812 35.1406 36.0885 35.6823 34.2604 35.8854 32.5 35.8854 30.7396 35.8854 28.9115 35.6823 27.2187 35.1406Z" transform="matrix(1 0 0 1.00031 3 130.041)"/><path d="M47.125 44.2135C47.125 43.2656 46.3802 42.5208 45.4323 42.5208L45.4323 42.5208 19.6354 42.5208C18.6875 42.5208 17.9427 43.2656 17.9427 44.2135L17.9427 44.2135 17.9427 61.0729 12.7969 61.0729 12.7969 61.9531C12.7969 62.901 13.5417 63.6458 14.4896 63.6458L50.5781 63.6458C51.526 63.6458 52.2708 62.901 52.2708 61.9531L52.2708 61.0729 47.125 61.0729 47.125 44.2135ZM28.9792 55.3854 28.0312 56.3333 24.2396 52.5417 28.0312 48.75 28.9792 49.6979 26.1354 52.5417 28.9792 55.3854ZM31.5521 56.8073 30.3333 56.2656 33.5156 48.6146 34.7344 49.1562 31.5521 56.8073ZM36.9687 56.401 36.0208 55.4531 38.8646 52.6094 36.0208 49.7656 36.9687 48.8177 40.7604 52.6094 36.9687 56.401Z" transform="matrix(1 0 0 1.00031 3 130.041)"/></g></g></g><path d="M0-3.00126 6.08025-3.00126 6.08025 58.5238 3.07899 55.5225 247.26 55.5225 247.26 61.525 0.077733 61.525 0.077733 0 3.07899 3.00126 0 3.00126ZM244.259 49.52 262.267 58.5238 244.259 67.5276Z" transform="matrix(-1 1.22503e-16 1.22465e-16 1.00031 342.267 136.043)"/><g clip-path="url(#clip35)"><g clip-path="url(#clip36)" filter="url(#fx1)" transform="translate(353 148)"><g clip-path="url(#clip37)"><path d="M8.36246 8.39923 34.6225 8.39923 34.6225 35.2311 31.1459 38.7088 8.36246 38.7088Z" fill="#FF0000" fill-rule="evenodd"/><path d="M31.1459 38.7088 31.8412 35.9266 34.6225 35.2311Z" fill="#FF0000" fill-rule="evenodd"/><path d="M31.1459 38.7088 31.8412 35.9266 34.6225 35.2311 31.1459 38.7088 8.36246 38.7088 8.36246 8.39923 34.6225 8.39923 34.6225 35.2311" stroke="#FFFFFF" stroke-miterlimit="8" fill="none" fill-rule="evenodd"/></g></g></g><path d="M361.5 156.549 387.5 156.549 387.5 183.115 384.058 186.559 361.5 186.559Z" fill="url(#fill38)" fill-rule="evenodd"/><path d="M384.058 186.559 384.746 183.804 387.5 183.115Z" fill="url(#fill39)" fill-rule="evenodd"/><path d="M384.058 186.559 384.746 183.804 387.5 183.115 384.058 186.559 361.5 186.559 361.5 156.549 387.5 156.549 387.5 183.115" stroke="#FFFFFF" stroke-width="1.33389" stroke-miterlimit="8" fill="none" fill-rule="evenodd"/><rect x="365" y="161.051" width="1" height="19.006" fill="#404040"/><rect x="365" y="179.056" width="18" height="2.00063" fill="#404040"/><rect x="367" y="171.054" width="3" height="7.0022" fill="#404040"/><rect x="371" y="170.053" width="2" height="8.00252" fill="#404040"/><rect x="0" y="0" width="2" height="12" fill="#404040" transform="matrix(1 0 0 -1.00031 375 178.056)"/><rect x="378" y="175.055" width="2" height="3.00095" fill="#404040"/><text font-family="Calibri,Calibri_MSFontService,sans-serif" font-style="italic" font-weight="400" font-size="16" transform="matrix(1 0 0 1.00031 355.296 206)">Result</text><path d="M0-3.00126 241.055-3.00126 241.045 21.1583 235.043 21.1559 235.051-0.00118077 238.052 3.00126 0 3.00126ZM247.056 18.1808 238.002 36.1633 229.048 18.1308Z" transform="matrix(1 0 0 -1.00031 83 170.217)"/><path d="M124 157.049 124 157.049C130.627 157.049 136 162.424 136 169.053L136 169.053C136 175.683 130.627 181.057 124 181.057L124 181.057C117.373 181.057 112 175.683 112 169.053L112 169.053C112 162.424 117.373 157.049 124 157.049Z" fill-rule="evenodd"/><text fill="#FFFFFF" font-family="Calibri,Calibri_MSFontService,sans-serif" font-weight="700" font-size="19" transform="matrix(1 0 0 1.00031 118.975 175)">2</text><path d="M339 162.051 339 162.051C345.627 162.051 351 167.425 351 174.055L351 174.055C351 180.684 345.627 186.059 339 186.059L339 186.059C332.373 186.059 327 180.684 327 174.055L327 174.055C327 167.425 332.373 162.051 339 162.051Z" fill-rule="evenodd"/><text fill="#FFFFFF" font-family="Calibri,Calibri_MSFontService,sans-serif" font-weight="700" font-size="19" transform="matrix(1 0 0 1.00031 334.621 180)">3</text><g clip-path="url(#clip40)"><g clip-path="url(#clip41)"><g clip-path="url(#clip42)"><path d="M46.4312 28.4406C46.2531 28.4406 46.0156 28.4406 45.8375 28.4406 45.8375 28.4406 45.8375 28.4406 45.8375 28.4406 45.8375 25.5312 44.4125 22.8594 42.0969 21.1969 39.7219 19.5344 36.6937 19.1187 33.9625 20.0687 31.7062 15.675 26.7187 13.4187 21.9687 14.5469 17.2187 15.675 13.775 19.95 13.775 24.8781 13.775 24.8781 13.775 24.9375 13.775 24.9969 10.5094 24.4625 7.24375 25.8281 5.225 28.4406 3.26562 31.1125 2.90937 34.6156 4.275 37.5844 5.7 40.5531 8.66875 42.5125 11.9344 42.6906L11.9344 42.75 46.3719 42.75C50.2906 42.75 53.4969 39.5437 53.4969 35.625 53.4969 31.7062 50.35 28.4406 46.4312 28.4406Z" transform="matrix(1 0 0 1.01786 174 113.036)"/></g></g></g><path d="M4.5019-1.50061 19.0681-1.50052 19.0681 1.50074 4.50188 1.50065ZM6.0025 4.50192 0 0 6.00254-4.50186Z" fill="#FFFFFF" transform="matrix(-1 0 0 1.00031 213.568 142.545)"/><path d="M196.002 149.046 210.231 149.046 210.231 152.049 196.002 152.049ZM197.503 155.051 191.5 150.547 197.503 146.044Z" fill="#FFFFFF"/><text font-family="Calibri,Calibri_MSFontService,sans-serif" font-style="italic" font-weight="400" font-size="16" transform="matrix(1 0 0 1.00031 230.033 140)">Endpoint</text><text font-family="Calibri,Calibri_MSFontService,sans-serif" font-style="italic" font-weight="400" font-size="16" transform="matrix(1 0 0 1.00031 233.034 155)">Request</text></g></svg>