<?xml version="1.0" encoding="UTF-8" standalone="no"?>
<svg
   width="210"
   height="210"
   overflow="hidden"
   version="1.1"
   id="svg472"
   sodipodi:docname="wire-cut-icon-thin.svg"
   inkscape:version="1.2.2 (b0a8486, 2022-12-01)"
   xmlns:inkscape="http://www.inkscape.org/namespaces/inkscape"
   xmlns:sodipodi="http://sodipodi.sourceforge.net/DTD/sodipodi-0.dtd"
   xmlns="http://www.w3.org/2000/svg"
   xmlns:svg="http://www.w3.org/2000/svg">
  <sodipodi:namedview
     id="namedview474"
     pagecolor="#ffffff"
     bordercolor="#000000"
     borderopacity="0.25"
     inkscape:showpageshadow="2"
     inkscape:pageopacity="0.0"
     inkscape:pagecheckerboard="true"
     inkscape:deskcolor="#d1d1d1"
     showgrid="false"
     inkscape:zoom="4.8904762"
     inkscape:cx="80.769231"
     inkscape:cy="105"
     inkscape:window-width="2560"
     inkscape:window-height="1359"
     inkscape:window-x="1920"
     inkscape:window-y="25"
     inkscape:window-maximized="0"
     inkscape:current-layer="svg472" />
  <defs
     id="defs442">
    <clipPath
       id="clip0">
      <rect
         x="0"
         y="0"
         width="210"
         height="210"
         id="rect421" />
    </clipPath>
    <clipPath
       id="clip1">
      <path
         d="M-19.9651 128.129 47.1746-15.8531 191.156 51.2867 124.017 195.268Z"
         fill-rule="evenodd"
         clip-rule="evenodd"
         id="path424" />
    </clipPath>
    <clipPath
       id="clip2">
      <path
         d="M-19.9651 128.129 47.1746-15.8531 191.156 51.2867 124.017 195.268Z"
         fill-rule="evenodd"
         clip-rule="evenodd"
         id="path427" />
    </clipPath>
    <clipPath
       id="clip3">
      <path
         d="M-19.9651 128.129 47.1746-15.8531 191.156 51.2867 124.017 195.268Z"
         fill-rule="evenodd"
         clip-rule="evenodd"
         id="path430" />
    </clipPath>
    <clipPath
       id="clip4">
      <path
         d="M124.017 195.268 47.1746-15.8531 191.156 51.2867Z"
         fill-rule="evenodd"
         clip-rule="evenodd"
         id="path433" />
    </clipPath>
    <clipPath
       id="clip5">
      <path
         d="M-19.9651 128.129 47.1746-15.8531 191.156 51.2867 124.017 195.268Z"
         fill-rule="evenodd"
         clip-rule="evenodd"
         id="path436" />
    </clipPath>
    <clipPath
       id="clip6">
      <path
         d="M-19.9651 128.129 47.1746-15.8531 191.156 51.2867 124.017 195.268Z"
         fill-rule="evenodd"
         clip-rule="evenodd"
         id="path439" />
    </clipPath>
  </defs>
  <g
     clip-path="url(#clip0)"
     id="g470">
    <path
       d="M3.5 37.5007C3.5 18.7226 18.7226 3.5 37.5007 3.5L173.499 3.5C192.277 3.5 207.5 18.7226 207.5 37.5007L207.5 173.499C207.5 192.277 192.277 207.5 173.499 207.5L37.5007 207.5C18.7226 207.5 3.5 192.277 3.5 173.499Z"
       stroke="#000000"
       stroke-width="1.33439"
       stroke-miterlimit="8"
       fill="#F2F2F2"
       fill-rule="evenodd"
       id="path446" />
    <g
       clip-path="url(#clip1)"
       id="g454">
      <g
         clip-path="url(#clip2)"
         id="g452">
        <g
           clip-path="url(#clip3)"
           id="g450">
          <path
             d="M103.678 47.0136C101.37 51.963 95.4325 54.1241 90.4831 51.8162 85.5338 49.5083 83.3726 43.5705 85.6805 38.6211 87.9884 33.6717 93.9262 31.5106 98.8756 33.8185 103.825 36.1264 105.986 42.0642 103.678 47.0136ZM55.2869 66.9926C51.3191 70.8027 45.0906 70.4547 41.2805 66.4868 37.4703 62.519 37.8184 56.2906 41.7862 52.4804 45.754 48.6702 51.9825 49.0183 55.7926 52.9861 59.4528 56.884 59.2547 63.1824 55.2869 66.9926ZM88.4942 87.4074C87.3052 89.9571 84.4463 90.9976 81.8966 89.8087 79.3469 88.6198 78.3064 85.7608 79.4953 83.2112 80.6842 80.6615 83.5432 79.6209 86.0928 80.8098 88.6425 81.9988 89.6831 84.8577 88.4942 87.4074ZM76.6816 34.4249C74.8633 38.3244 74.3846 42.4834 75.0856 46.4622L76.4007 64.7869 65.6291 49.9041C64.779 48.5947 63.9288 47.2852 62.8587 46.0559 55.4583 38.0402 42.8615 37.644 34.8458 45.0444 26.8302 52.4448 26.434 65.0416 33.8344 73.0573 41.2348 81.073 53.8316 81.4692 61.8473 74.0688 63.4364 72.6187 64.5756 70.9588 65.5648 69.229L72.7688 89.0216 78.5792 95.7481 82.8143 150.492 93.6161 166.485 94.4004 113.899 128.803 153.678 126.798 134.484 94.8633 90.1948 94.9906 81.3071 87.7867 61.5144C97.4352 65.1006 108.271 60.6586 112.677 51.2098 117.293 41.3111 112.971 29.4355 103.072 24.8196 93.1731 20.2038 81.2975 24.5261 76.6816 34.4249Z"
             id="path448" />
        </g>
      </g>
    </g>
    <path
       d="M14.5 136.5 191.82 136.5"
       stroke="#404040"
       stroke-width="5.33757"
       stroke-miterlimit="8"
       fill="none"
       fill-rule="evenodd"
       id="path456" />
    <rect
       x="27.5"
       y="113.5"
       width="41.9999"
       height="46.0001"
       stroke="#404040"
       stroke-width="5.33757"
       stroke-miterlimit="8"
       fill="#FFFFFF"
       id="rect458" />
    <rect
       x="137.5"
       y="113.5"
       width="43"
       height="46.0001"
       stroke="#404040"
       stroke-width="5.33757"
       stroke-miterlimit="8"
       fill="#FFFFFF"
       id="rect460" />
    <g
       clip-path="url(#clip4)"
       id="g468">
      <g
         clip-path="url(#clip5)"
         id="g466">
        <g
           clip-path="url(#clip6)"
           id="g464">
          <path
             d="M103.678 47.0136C101.37 51.963 95.4325 54.1241 90.4831 51.8162 85.5338 49.5083 83.3726 43.5705 85.6805 38.6211 87.9884 33.6717 93.9262 31.5106 98.8756 33.8185 103.825 36.1264 105.986 42.0642 103.678 47.0136ZM55.2869 66.9926C51.3191 70.8027 45.0906 70.4547 41.2805 66.4868 37.4703 62.519 37.8184 56.2906 41.7862 52.4804 45.754 48.6702 51.9825 49.0183 55.7926 52.9861 59.4528 56.884 59.2547 63.1824 55.2869 66.9926ZM88.4942 87.4074C87.3052 89.9571 84.4463 90.9976 81.8966 89.8087 79.3469 88.6198 78.3064 85.7608 79.4953 83.2112 80.6842 80.6615 83.5432 79.6209 86.0928 80.8098 88.6425 81.9988 89.6831 84.8577 88.4942 87.4074ZM76.6816 34.4249C74.8633 38.3244 74.3846 42.4834 75.0856 46.4622L76.4007 64.7869 65.6291 49.9041C64.779 48.5947 63.9288 47.2852 62.8587 46.0559 55.4583 38.0402 42.8615 37.644 34.8458 45.0444 26.8302 52.4448 26.434 65.0416 33.8344 73.0573 41.2348 81.073 53.8316 81.4692 61.8473 74.0688 63.4364 72.6187 64.5756 70.9588 65.5648 69.229L72.7688 89.0216 78.5792 95.7481 82.8143 150.492 93.6161 166.485 94.4004 113.899 128.803 153.678 126.798 134.484 94.8633 90.1948 94.9906 81.3071 87.7867 61.5144C97.4352 65.1006 108.271 60.6586 112.677 51.2098 117.293 41.3111 112.971 29.4355 103.072 24.8196 93.1731 20.2038 81.2975 24.5261 76.6816 34.4249Z"
             id="path462" />
        </g>
      </g>
    </g>
  </g>
</svg>
