<svg width="226.88" height="226.88" xmlns="http://www.w3.org/2000/svg"><defs><clipPath clipPathUnits="userSpaceOnUse" id="a"><path d="M0 0h170.16v170.16H0Z" clip-rule="evenodd"/></clipPath><clipPath clipPathUnits="userSpaceOnUse" id="b"><path d="M11.88 11.88h146.4v146.4H11.88Z" clip-rule="evenodd"/></clipPath><clipPath clipPathUnits="userSpaceOnUse" id="c"><path d="M0 0h5.903v5.903H0Z"/></clipPath><clipPath clipPathUnits="userSpaceOnUse" id="d"><path d="M.085 5.818h5.76V.058H.085" clip-rule="evenodd"/></clipPath><clipPath clipPathUnits="userSpaceOnUse" id="e"><path d="M.085 5.818h5.76V.058H.085" clip-rule="evenodd"/></clipPath></defs><g clip-path="url(#a)" transform="matrix(1.33333 0 0 -1.33333 0 226.88)"><path d="M0 0h170.16v170.16H0Z" style="fill:#fff;fill-opacity:1;fill-rule:evenodd;stroke:none"/></g><path d="M1.44 140.84c0 15.4 12.483 27.88 27.881 27.88H140.84c15.4 0 27.88-12.48 27.88-27.88V29.321c0-15.398-12.48-27.881-27.88-27.881H29.321C13.923 1.44 1.44 13.923 1.44 29.321Z" style="fill:#f2f2f2;fill-opacity:1;fill-rule:evenodd;stroke:none" transform="matrix(1.33333 0 0 -1.33333 0 226.88)"/><path d="M1.44 140.84c0 15.4 12.483 27.88 27.881 27.88H140.84c15.4 0 27.88-12.48 27.88-27.88V29.321c0-15.398-12.48-27.881-27.88-27.881H29.321C13.923 1.44 1.44 13.923 1.44 29.321Z" style="fill:none;stroke:#000;stroke-width:1;stroke-linecap:butt;stroke-linejoin:miter;stroke-miterlimit:10;stroke-dasharray:none;stroke-opacity:1" transform="matrix(1.33333 0 0 -1.33333 0 226.88)"/><g clip-path="url(#b)" transform="matrix(1.33333 0 0 -1.33333 0 226.88)"><g clip-path="url(#c)" transform="matrix(24.8002 0 0 24.8002 11.88 11.88)"><path d="M.325 4.858v-3.84l2.64-.72 2.64.72v3.84l-2.64.72z" style="fill:#fff;fill-opacity:1;fill-rule:nonzero;stroke:none"/><path d="M.325 4.858v-3.84l2.64-.72 2.64.72v3.84l-2.64.72z" style="fill:none;stroke:#000;stroke-width:.14;stroke-linecap:butt;stroke-linejoin:miter;stroke-miterlimit:10;stroke-dasharray:none;stroke-opacity:1"/><path d="m.325 4.858 2.64-.72V.298v3.84l2.64.72" style="fill:none;stroke:#000;stroke-width:.14;stroke-linecap:butt;stroke-linejoin:miter;stroke-miterlimit:10;stroke-dasharray:none;stroke-opacity:1"/><path d="M1.285 4.582v-.48l.24-.15.24.06.24-.15v.54l2.64.72-.72.192z" style="fill:#fff;fill-opacity:1;fill-rule:nonzero;stroke:none"/><path d="M1.285 4.582v-.48l.24-.15.24.06.24-.15v.54l2.64.72-.72.192z" style="fill:none;stroke:#000;stroke-width:.14;stroke-linecap:butt;stroke-linejoin:miter;stroke-miterlimit:10;stroke-dasharray:none;stroke-opacity:1"/><g clip-path="url(#d)"><path d="M1.768 2.083c0-.092-.075-.148-.166-.125a.227.227 0 0 0-.167.208c0 .092.075.147.167.124a.227.227 0 0 0 .166-.207Z" style="fill:#000;fill-opacity:1;fill-rule:nonzero;stroke:none"/></g><g clip-path="url(#e)"><path d="M2.576 2.435c-.047.092-.152.157-.296.193a1.243 1.243 0 0 1-.313.03c-.08.312-.213.536-.365.574-.15.037-.286-.117-.363-.386-.11.055-.21.097-.3.119C.797 3 .692 2.988.645 2.92c-.078-.114.025-.353.238-.622-.205-.16-.3-.34-.225-.49.048-.091.153-.156.297-.192.083-.02.18-.031.285-.033.08-.307.213-.529.363-.566.15-.037.285.117.362.386.111-.056.21-.097.3-.12.143-.035.248-.023.296.046.074.111-.02.34-.225.601.219.165.319.353.241.505Zm-.296.082c.102-.025.177-.069.2-.113.04-.083-.034-.233-.222-.374a3.19 3.19 0 0 1-.224.236 2.296 2.296 0 0 1-.042.281c.105.002.205-.01.288-.03Zm-.496-.726a2.057 2.057 0 0 0-.174-.048 3.727 3.727 0 0 0-.175.135c-.055.047-.11.094-.16.14-.006.062-.006.123-.006.19 0 .06.003.117.006.175a1.687 1.687 0 0 0 .335.11c.053-.038.105-.079.158-.122.055-.047.11-.094.16-.14.006-.062.006-.123.006-.19 0-.069-.003-.134-.008-.197-.045-.02-.092-.035-.142-.053Zm.128-.085-.025-.146c-.047.029-.097.058-.147.092l.1.03.072.024Zm-.432.011a1.947 1.947 0 0 0-.16-.018c-.012.055-.02.113-.028.173l.09-.078.098-.077Zm-.319.412a2.2 2.2 0 0 0-.119.13c.036.023.078.046.12.07 0-.031-.003-.061-.003-.094 0-.036 0-.072.002-.106zm.128.392c.008.058.016.115.027.167.053-.03.108-.066.164-.101a1.046 1.046 0 0 1-.086-.026c-.033-.014-.07-.027-.105-.04Zm.448.001c.05.01.1.014.15.019.01-.053.02-.108.027-.165l-.09.078c-.029.02-.056.044-.087.068Zm.305-.402a2.81 2.81 0 0 0 .135-.148c-.041-.025-.085-.053-.135-.077.003.039.003.077.003.116 0 .039 0 .075-.003.109zm-.44 1.001c.083-.02.19-.194.26-.466a2.456 2.456 0 0 1-.252-.037c-.092.064-.18.122-.266.171.07.235.174.353.258.332Zm-.864-.283c.025.035.097.04.2.014.08-.02.17-.057.27-.106a1.975 1.975 0 0 1-.041-.275 1.35 1.35 0 0 1-.208-.117c-.185.234-.263.422-.221.484Zm.216-1.114c-.103.025-.177.069-.2.113-.041.083.03.225.208.364a4.88 4.88 0 0 1 .208-.218c.008-.1.022-.197.041-.287a.985.985 0 0 0-.257.028Zm.648-.596c-.084.02-.189.19-.258.457.086.006.174.017.266.036.086-.06.169-.114.249-.159-.07-.237-.174-.355-.257-.334Zm.863.283c-.024-.036-.096-.04-.199-.014-.08.02-.174.057-.271.106.016.079.03.161.038.253.083.038.158.077.225.122.177-.227.249-.406.207-.467Z" style="fill:#000;fill-opacity:1;fill-rule:nonzero;stroke:none"/></g></g></g></svg>
