<svg width="226.88" height="226.88" xmlns="http://www.w3.org/2000/svg"><defs><clipPath clipPathUnits="userSpaceOnUse" id="a"><path d="M0 0h170.16v170.16H0Z" clip-rule="evenodd"/></clipPath><clipPath clipPathUnits="userSpaceOnUse" id="b"><path d="M0 0h170.16v170.16H0Z" clip-rule="evenodd"/></clipPath><clipPath clipPathUnits="userSpaceOnUse" id="c"><path d="M0 170.16h170.16V0H0" clip-rule="evenodd"/></clipPath><clipPath clipPathUnits="userSpaceOnUse" id="d"><path d="M0 170.16h170.16V0H0" clip-rule="evenodd"/></clipPath><clipPath clipPathUnits="userSpaceOnUse" id="e"><path d="M0 170.16h170.16V0H0" clip-rule="evenodd"/></clipPath><clipPath clipPathUnits="userSpaceOnUse" id="f"><path d="M0 170.16h170.16V0H0" clip-rule="evenodd"/></clipPath><clipPath clipPathUnits="userSpaceOnUse" id="g"><path d="M0 170.16h170.16V0H0" clip-rule="evenodd"/></clipPath><clipPath clipPathUnits="userSpaceOnUse" id="h"><path d="M0 170.16h170.16V0H0" clip-rule="evenodd"/></clipPath><clipPath clipPathUnits="userSpaceOnUse" id="i"><path d="M0 170.16h170.16V0H0" clip-rule="evenodd"/></clipPath><clipPath clipPathUnits="userSpaceOnUse" id="j"><path d="M0 170.16h170.16V0H0" clip-rule="evenodd"/></clipPath><clipPath clipPathUnits="userSpaceOnUse" id="k"><path d="M0 170.16h170.16V0H0" clip-rule="evenodd"/></clipPath><clipPath clipPathUnits="userSpaceOnUse" id="l"><path d="M0 170.16h170.16V0H0" clip-rule="evenodd"/></clipPath><clipPath clipPathUnits="userSpaceOnUse" id="m"><path d="M0 170.16h170.16V0H0" clip-rule="evenodd"/></clipPath><clipPath clipPathUnits="userSpaceOnUse" id="n"><path d="M0 170.16h170.16V0H0" clip-rule="evenodd"/></clipPath><clipPath clipPathUnits="userSpaceOnUse" id="o"><path d="M0 170.16h170.16V0H0" clip-rule="evenodd"/></clipPath><clipPath clipPathUnits="userSpaceOnUse" id="p"><path d="M0 170.16h170.16V0H0" clip-rule="evenodd"/></clipPath><clipPath clipPathUnits="userSpaceOnUse" id="q"><path d="M0 170.16h170.16V0H0" clip-rule="evenodd"/></clipPath><clipPath clipPathUnits="userSpaceOnUse" id="r"><path d="M0 170.16h170.16V0H0" clip-rule="evenodd"/></clipPath><clipPath clipPathUnits="userSpaceOnUse" id="s"><path d="M0 170.16h170.16V0H0" clip-rule="evenodd"/></clipPath><clipPath clipPathUnits="userSpaceOnUse" id="t"><path d="M0 170.16h170.16V0H0" clip-rule="evenodd"/></clipPath><clipPath clipPathUnits="userSpaceOnUse" id="u"><path d="M0 170.16h170.16V0H0" clip-rule="evenodd"/></clipPath><clipPath clipPathUnits="userSpaceOnUse" id="v"><path d="M0 170.16h170.16V0H0" clip-rule="evenodd"/></clipPath><clipPath clipPathUnits="userSpaceOnUse" id="w"><path d="M0 170.16h170.16V0H0" clip-rule="evenodd"/></clipPath><clipPath clipPathUnits="userSpaceOnUse" id="x"><path d="M0 170.16h170.16V0H0" clip-rule="evenodd"/></clipPath><clipPath clipPathUnits="userSpaceOnUse" id="y"><path d="M0 170.16h170.16V0H0" clip-rule="evenodd"/></clipPath><clipPath clipPathUnits="userSpaceOnUse" id="z"><path d="M0 170.16h170.16V0H0" clip-rule="evenodd"/></clipPath><clipPath clipPathUnits="userSpaceOnUse" id="A"><path d="M0 170.16h170.16V0H0" clip-rule="evenodd"/></clipPath><clipPath clipPathUnits="userSpaceOnUse" id="B"><path d="M0 170.16h170.16V0H0" clip-rule="evenodd"/></clipPath><clipPath clipPathUnits="userSpaceOnUse" id="C"><path d="M0 170.16h170.16V0H0" clip-rule="evenodd"/></clipPath><clipPath clipPathUnits="userSpaceOnUse" id="D"><path d="M0 170.16h170.16V0H0" clip-rule="evenodd"/></clipPath><clipPath clipPathUnits="userSpaceOnUse" id="E"><path d="M0 170.16h170.16V0H0" clip-rule="evenodd"/></clipPath><clipPath clipPathUnits="userSpaceOnUse" id="F"><path d="M0 170.16h170.16V0H0" clip-rule="evenodd"/></clipPath><clipPath clipPathUnits="userSpaceOnUse" id="G"><path d="M0 170.16h170.16V0H0" clip-rule="evenodd"/></clipPath><clipPath clipPathUnits="userSpaceOnUse" id="H"><path d="M0 170.16h170.16V0H0" clip-rule="evenodd"/></clipPath><clipPath clipPathUnits="userSpaceOnUse" id="I"><path d="M0 170.16h170.16V0H0" clip-rule="evenodd"/></clipPath><clipPath clipPathUnits="userSpaceOnUse" id="J"><path d="M0 170.16h170.16V0H0" clip-rule="evenodd"/></clipPath><clipPath clipPathUnits="userSpaceOnUse" id="K"><path d="M0 170.16h170.16V0H0" clip-rule="evenodd"/></clipPath><clipPath clipPathUnits="userSpaceOnUse" id="L"><path d="M0 170.16h170.16V0H0" clip-rule="evenodd"/></clipPath><clipPath clipPathUnits="userSpaceOnUse" id="M"><path d="M0 170.16h170.16V0H0" clip-rule="evenodd"/></clipPath><clipPath clipPathUnits="userSpaceOnUse" id="N"><path d="M0 170.16h170.16V0H0" clip-rule="evenodd"/></clipPath><clipPath clipPathUnits="userSpaceOnUse" id="O"><path d="M0 170.16h170.16V0H0" clip-rule="evenodd"/></clipPath><clipPath clipPathUnits="userSpaceOnUse" id="P"><path d="M0 170.16h170.16V0H0" clip-rule="evenodd"/></clipPath><clipPath clipPathUnits="userSpaceOnUse" id="Q"><path d="M0 170.16h170.16V0H0" clip-rule="evenodd"/></clipPath><clipPath clipPathUnits="userSpaceOnUse" id="R"><path d="M0 170.16h170.16V0H0" clip-rule="evenodd"/></clipPath><clipPath clipPathUnits="userSpaceOnUse" id="S"><path d="M0 170.16h170.16V0H0" clip-rule="evenodd"/></clipPath><clipPath clipPathUnits="userSpaceOnUse" id="T"><path d="M0 170.16h170.16V0H0" clip-rule="evenodd"/></clipPath><clipPath clipPathUnits="userSpaceOnUse" id="U"><path d="M0 170.16h170.16V0H0" clip-rule="evenodd"/></clipPath><clipPath clipPathUnits="userSpaceOnUse" id="V"><path d="M0 170.16h170.16V0H0" clip-rule="evenodd"/></clipPath><clipPath clipPathUnits="userSpaceOnUse" id="W"><path d="M0 170.16h170.16V0H0" clip-rule="evenodd"/></clipPath><clipPath clipPathUnits="userSpaceOnUse" id="X"><path d="M0 170.16h170.16V0H0" clip-rule="evenodd"/></clipPath><clipPath clipPathUnits="userSpaceOnUse" id="Y"><path d="M0 170.16h170.16V0H0" clip-rule="evenodd"/></clipPath><clipPath clipPathUnits="userSpaceOnUse" id="Z"><path d="M0 170.16h170.16V0H0" clip-rule="evenodd"/></clipPath></defs><g clip-path="url(#a)" transform="matrix(1.33333 0 0 -1.33333 0 226.88)"><path d="M0 0h170.16v170.16H0Z" style="fill:#fff;fill-opacity:1;fill-rule:evenodd;stroke:none"/></g><path d="M1.44 140.84c0 15.4 12.483 27.88 27.881 27.88H140.84c15.4 0 27.88-12.48 27.88-27.88V29.321c0-15.398-12.48-27.881-27.88-27.881H29.321C13.923 1.44 1.44 13.923 1.44 29.321Z" style="fill:#f2f2f2;fill-opacity:1;fill-rule:evenodd;stroke:none" transform="matrix(1.33333 0 0 -1.33333 0 226.88)"/><path d="M1.44 140.84c0 15.4 12.483 27.88 27.881 27.88H140.84c15.4 0 27.88-12.48 27.88-27.88V29.321c0-15.398-12.48-27.881-27.88-27.881H29.321C13.923 1.44 1.44 13.923 1.44 29.321Z" style="fill:none;stroke:#000;stroke-width:1;stroke-linecap:butt;stroke-linejoin:miter;stroke-miterlimit:10;stroke-dasharray:none;stroke-opacity:1" transform="matrix(1.33333 0 0 -1.33333 0 226.88)"/><path d="M85.339 168.3c-.115-9.81 0-10.04-.115-29.43s28.706 6.39 28.476-20.43c-.23-26.813-28.342-2.02-28.476-22.735-.135-20.717-.058-28.488 0-39.241.057-10.752-27.572 12.734-27.322-14.196.25-26.929 27.495-2.673 27.437-14.426-.058-11.753-.077-17.081-.115-25.622M21.3 142.11c0 2.54 2.053 4.59 4.585 4.59h32.11a4.584 4.584 0 0 0 4.585-4.59v-31.74c0-2.54-2.053-4.59-4.585-4.59h-32.11a4.584 4.584 0 0 0-4.585 4.59z" style="fill:none;stroke:#000;stroke-width:2.25;stroke-linecap:butt;stroke-linejoin:miter;stroke-miterlimit:10;stroke-dasharray:none;stroke-opacity:1" transform="matrix(1.33333 0 0 -1.33333 0 226.88)"/><g clip-path="url(#b)" transform="matrix(1.33333 0 0 -1.33333 0 226.88)"><text xml:space="preserve" transform="matrix(1 0 0 -1 25.032 115.42)" style="font-variant:normal;font-weight:700;font-size:32.064px;font-family:Calibri;-inkscape-font-specification:Calibri-Bold;writing-mode:lr-tb;fill:#000;fill-opacity:1;fill-rule:nonzero;stroke:none"><tspan x="0 16.919956" y="0">CC</tspan></text></g><g clip-path="url(#c)" transform="matrix(1.33333 0 0 -1.33333 0 226.88)"><path d="M58.18 153.18c.044 0 .08-.04.08-.08v-6.32c0-.04-.036-.08-.08-.08h-.32c-.044 0-.08.04-.08.08v6.32c0 .04.036.08.08.08z" style="fill:#000;fill-opacity:1;fill-rule:evenodd;stroke:none"/></g><g clip-path="url(#d)" transform="matrix(1.33333 0 0 -1.33333 0 226.88)"><path d="M58.18 153.18c.044 0 .08-.04.08-.08v-6.32c0-.04-.036-.08-.08-.08h-.32c-.044 0-.08.04-.08.08v6.32c0 .04.036.08.08.08z" style="fill:none;stroke:#000;stroke-width:2.25;stroke-linecap:butt;stroke-linejoin:miter;stroke-miterlimit:10;stroke-dasharray:none;stroke-opacity:1"/></g><g clip-path="url(#e)" transform="matrix(1.33333 0 0 -1.33333 0 226.88)"><path d="M51.48 153.18c.033 0 .06-.03.06-.06v-6.36c0-.03-.027-.06-.06-.06h-.24c-.033 0-.06.03-.06.06v6.36c0 .03.027.06.06.06z" style="fill:#000;fill-opacity:1;fill-rule:evenodd;stroke:none"/></g><g clip-path="url(#f)" transform="matrix(1.33333 0 0 -1.33333 0 226.88)"><path d="M51.48 153.18c.033 0 .06-.03.06-.06v-6.36c0-.03-.027-.06-.06-.06h-.24c-.033 0-.06.03-.06.06v6.36c0 .03.027.06.06.06z" style="fill:none;stroke:#000;stroke-width:2.25;stroke-linecap:butt;stroke-linejoin:miter;stroke-miterlimit:10;stroke-dasharray:none;stroke-opacity:1"/></g><g clip-path="url(#g)" transform="matrix(1.33333 0 0 -1.33333 0 226.88)"><path d="M45.12 153.18c.033 0 .06-.03.06-.06v-6.36c0-.03-.027-.06-.06-.06h-.24c-.033 0-.06.03-.06.06v6.36c0 .03.027.06.06.06z" style="fill:#000;fill-opacity:1;fill-rule:evenodd;stroke:none"/></g><g clip-path="url(#h)" transform="matrix(1.33333 0 0 -1.33333 0 226.88)"><path d="M45.12 153.18c.033 0 .06-.03.06-.06v-6.36c0-.03-.027-.06-.06-.06h-.24c-.033 0-.06.03-.06.06v6.36c0 .03.027.06.06.06z" style="fill:none;stroke:#000;stroke-width:2.25;stroke-linecap:butt;stroke-linejoin:miter;stroke-miterlimit:10;stroke-dasharray:none;stroke-opacity:1"/></g><g clip-path="url(#i)" transform="matrix(1.33333 0 0 -1.33333 0 226.88)"><path d="M38.62 153.18c.044 0 .08-.04.08-.08v-6.32c0-.04-.036-.08-.08-.08h-.32c-.044 0-.08.04-.08.08v6.32c0 .04.036.08.08.08z" style="fill:#000;fill-opacity:1;fill-rule:evenodd;stroke:none"/></g><g clip-path="url(#j)" transform="matrix(1.33333 0 0 -1.33333 0 226.88)"><path d="M38.62 153.18c.044 0 .08-.04.08-.08v-6.32c0-.04-.036-.08-.08-.08h-.32c-.044 0-.08.04-.08.08v6.32c0 .04.036.08.08.08z" style="fill:none;stroke:#000;stroke-width:2.25;stroke-linecap:butt;stroke-linejoin:miter;stroke-miterlimit:10;stroke-dasharray:none;stroke-opacity:1"/></g><g clip-path="url(#k)" transform="matrix(1.33333 0 0 -1.33333 0 226.88)"><path d="M31.9 153.18c.044 0 .08-.04.08-.08v-6.32c0-.04-.036-.08-.08-.08h-.32c-.044 0-.08.04-.08.08v6.32c0 .04.036.08.08.08z" style="fill:#000;fill-opacity:1;fill-rule:evenodd;stroke:none"/></g><g clip-path="url(#l)" transform="matrix(1.33333 0 0 -1.33333 0 226.88)"><path d="M31.9 153.18c.044 0 .08-.04.08-.08v-6.32c0-.04-.036-.08-.08-.08h-.32c-.044 0-.08.04-.08.08v6.32c0 .04.036.08.08.08z" style="fill:none;stroke:#000;stroke-width:2.25;stroke-linecap:butt;stroke-linejoin:miter;stroke-miterlimit:10;stroke-dasharray:none;stroke-opacity:1"/></g><g clip-path="url(#m)" transform="matrix(1.33333 0 0 -1.33333 0 226.88)"><path d="M25.54 153.18c.044 0 .08-.04.08-.08v-6.32c0-.04-.036-.08-.08-.08h-.32c-.044 0-.08.04-.08.08v6.32c0 .04.036.08.08.08z" style="fill:#000;fill-opacity:1;fill-rule:evenodd;stroke:none"/></g><g clip-path="url(#n)" transform="matrix(1.33333 0 0 -1.33333 0 226.88)"><path d="M25.54 153.18c.044 0 .08-.04.08-.08v-6.32c0-.04-.036-.08-.08-.08h-.32c-.044 0-.08.04-.08.08v6.32c0 .04.036.08.08.08z" style="fill:none;stroke:#000;stroke-width:2.25;stroke-linecap:butt;stroke-linejoin:miter;stroke-miterlimit:10;stroke-dasharray:none;stroke-opacity:1"/></g><g clip-path="url(#o)" transform="matrix(1.33333 0 0 -1.33333 0 226.88)"><path d="M58.18 105.78c.044 0 .08-.04.08-.08v-6.32a.08.08 0 0 0-.08-.08h-.32a.08.08 0 0 0-.08.08v6.32c0 .04.036.08.08.08z" style="fill:#000;fill-opacity:1;fill-rule:evenodd;stroke:none"/></g><g clip-path="url(#p)" transform="matrix(1.33333 0 0 -1.33333 0 226.88)"><path d="M58.18 105.78c.044 0 .08-.04.08-.08v-6.32a.08.08 0 0 0-.08-.08h-.32a.08.08 0 0 0-.08.08v6.32c0 .04.036.08.08.08z" style="fill:none;stroke:#000;stroke-width:2.25;stroke-linecap:butt;stroke-linejoin:miter;stroke-miterlimit:10;stroke-dasharray:none;stroke-opacity:1"/></g><g clip-path="url(#q)" transform="matrix(1.33333 0 0 -1.33333 0 226.88)"><path d="M51.48 105.78c.033 0 .06-.03.06-.06v-6.36a.06.06 0 0 0-.06-.06h-.24a.06.06 0 0 0-.06.06v6.36c0 .03.027.06.06.06z" style="fill:#000;fill-opacity:1;fill-rule:evenodd;stroke:none"/></g><g clip-path="url(#r)" transform="matrix(1.33333 0 0 -1.33333 0 226.88)"><path d="M51.48 105.78c.033 0 .06-.03.06-.06v-6.36a.06.06 0 0 0-.06-.06h-.24a.06.06 0 0 0-.06.06v6.36c0 .03.027.06.06.06z" style="fill:none;stroke:#000;stroke-width:2.25;stroke-linecap:butt;stroke-linejoin:miter;stroke-miterlimit:10;stroke-dasharray:none;stroke-opacity:1"/></g><g clip-path="url(#s)" transform="matrix(1.33333 0 0 -1.33333 0 226.88)"><path d="M45.12 105.78c.033 0 .06-.03.06-.06v-6.36a.06.06 0 0 0-.06-.06h-.24a.06.06 0 0 0-.06.06v6.36c0 .03.027.06.06.06z" style="fill:#000;fill-opacity:1;fill-rule:evenodd;stroke:none"/></g><g clip-path="url(#t)" transform="matrix(1.33333 0 0 -1.33333 0 226.88)"><path d="M45.12 105.78c.033 0 .06-.03.06-.06v-6.36a.06.06 0 0 0-.06-.06h-.24a.06.06 0 0 0-.06.06v6.36c0 .03.027.06.06.06z" style="fill:none;stroke:#000;stroke-width:2.25;stroke-linecap:butt;stroke-linejoin:miter;stroke-miterlimit:10;stroke-dasharray:none;stroke-opacity:1"/></g><g clip-path="url(#u)" transform="matrix(1.33333 0 0 -1.33333 0 226.88)"><path d="M38.62 105.78c.044 0 .08-.04.08-.08v-6.32a.08.08 0 0 0-.08-.08h-.32a.08.08 0 0 0-.08.08v6.32c0 .04.036.08.08.08z" style="fill:#000;fill-opacity:1;fill-rule:evenodd;stroke:none"/></g><g clip-path="url(#v)" transform="matrix(1.33333 0 0 -1.33333 0 226.88)"><path d="M38.62 105.78c.044 0 .08-.04.08-.08v-6.32a.08.08 0 0 0-.08-.08h-.32a.08.08 0 0 0-.08.08v6.32c0 .04.036.08.08.08z" style="fill:none;stroke:#000;stroke-width:2.25;stroke-linecap:butt;stroke-linejoin:miter;stroke-miterlimit:10;stroke-dasharray:none;stroke-opacity:1"/></g><g clip-path="url(#w)" transform="matrix(1.33333 0 0 -1.33333 0 226.88)"><path d="M31.9 105.78c.044 0 .08-.04.08-.08v-6.32a.08.08 0 0 0-.08-.08h-.32a.08.08 0 0 0-.08.08v6.32c0 .04.036.08.08.08z" style="fill:#000;fill-opacity:1;fill-rule:evenodd;stroke:none"/></g><g clip-path="url(#x)" transform="matrix(1.33333 0 0 -1.33333 0 226.88)"><path d="M31.9 105.78c.044 0 .08-.04.08-.08v-6.32a.08.08 0 0 0-.08-.08h-.32a.08.08 0 0 0-.08.08v6.32c0 .04.036.08.08.08z" style="fill:none;stroke:#000;stroke-width:2.25;stroke-linecap:butt;stroke-linejoin:miter;stroke-miterlimit:10;stroke-dasharray:none;stroke-opacity:1"/></g><g clip-path="url(#y)" transform="matrix(1.33333 0 0 -1.33333 0 226.88)"><path d="M25.54 105.78c.044 0 .08-.04.08-.08v-6.32a.08.08 0 0 0-.08-.08h-.32a.08.08 0 0 0-.08.08v6.32c0 .04.036.08.08.08z" style="fill:#000;fill-opacity:1;fill-rule:evenodd;stroke:none"/></g><g clip-path="url(#z)" transform="matrix(1.33333 0 0 -1.33333 0 226.88)"><path d="M25.54 105.78c.044 0 .08-.04.08-.08v-6.32a.08.08 0 0 0-.08-.08h-.32a.08.08 0 0 0-.08.08v6.32c0 .04.036.08.08.08z" style="fill:none;stroke:#000;stroke-width:2.25;stroke-linecap:butt;stroke-linejoin:miter;stroke-miterlimit:10;stroke-dasharray:none;stroke-opacity:1"/></g><path d="M62.46 142.54c0 .04.036.08.08.08h6.08c.044 0 .08-.04.08-.08v-.32c0-.04-.036-.08-.08-.08h-6.08c-.044 0-.08.04-.08.08z" style="fill:#000;fill-opacity:1;fill-rule:evenodd;stroke:none" transform="matrix(1.33333 0 0 -1.33333 0 226.88)"/><path d="M62.46 142.54c0 .04.036.08.08.08h6.08c.044 0 .08-.04.08-.08v-.32c0-.04-.036-.08-.08-.08h-6.08c-.044 0-.08.04-.08.08z" style="fill:none;stroke:#000;stroke-width:2.25;stroke-linecap:butt;stroke-linejoin:miter;stroke-miterlimit:10;stroke-dasharray:none;stroke-opacity:1" transform="matrix(1.33333 0 0 -1.33333 0 226.88)"/><path d="M62.46 135.7c0 .04.036.08.08.08h6.08c.044 0 .08-.04.08-.08v-.32c0-.04-.036-.08-.08-.08h-6.08c-.044 0-.08.04-.08.08z" style="fill:#000;fill-opacity:1;fill-rule:evenodd;stroke:none" transform="matrix(1.33333 0 0 -1.33333 0 226.88)"/><path d="M62.46 135.7c0 .04.036.08.08.08h6.08c.044 0 .08-.04.08-.08v-.32c0-.04-.036-.08-.08-.08h-6.08c-.044 0-.08.04-.08.08z" style="fill:none;stroke:#000;stroke-width:2.25;stroke-linecap:butt;stroke-linejoin:miter;stroke-miterlimit:10;stroke-dasharray:none;stroke-opacity:1" transform="matrix(1.33333 0 0 -1.33333 0 226.88)"/><path d="M62.46 129.12c0 .03.027.06.06.06h6.12c.033 0 .06-.03.06-.06v-.24c0-.03-.027-.06-.06-.06h-6.12c-.033 0-.06.03-.06.06z" style="fill:#000;fill-opacity:1;fill-rule:evenodd;stroke:none" transform="matrix(1.33333 0 0 -1.33333 0 226.88)"/><path d="M62.46 129.12c0 .03.027.06.06.06h6.12c.033 0 .06-.03.06-.06v-.24c0-.03-.027-.06-.06-.06h-6.12c-.033 0-.06.03-.06.06z" style="fill:none;stroke:#000;stroke-width:2.25;stroke-linecap:butt;stroke-linejoin:miter;stroke-miterlimit:10;stroke-dasharray:none;stroke-opacity:1" transform="matrix(1.33333 0 0 -1.33333 0 226.88)"/><path d="M62.46 122.38c0 .04.036.08.08.08h6.08c.044 0 .08-.04.08-.08v-.32c0-.04-.036-.08-.08-.08h-6.08c-.044 0-.08.04-.08.08z" style="fill:#000;fill-opacity:1;fill-rule:evenodd;stroke:none" transform="matrix(1.33333 0 0 -1.33333 0 226.88)"/><path d="M62.46 122.38c0 .04.036.08.08.08h6.08c.044 0 .08-.04.08-.08v-.32c0-.04-.036-.08-.08-.08h-6.08c-.044 0-.08.04-.08.08z" style="fill:none;stroke:#000;stroke-width:2.25;stroke-linecap:butt;stroke-linejoin:miter;stroke-miterlimit:10;stroke-dasharray:none;stroke-opacity:1" transform="matrix(1.33333 0 0 -1.33333 0 226.88)"/><path d="M62.46 115.54c0 .04.036.08.08.08h6.08c.044 0 .08-.04.08-.08v-.32c0-.04-.036-.08-.08-.08h-6.08c-.044 0-.08.04-.08.08z" style="fill:#000;fill-opacity:1;fill-rule:evenodd;stroke:none" transform="matrix(1.33333 0 0 -1.33333 0 226.88)"/><path d="M62.46 115.54c0 .04.036.08.08.08h6.08c.044 0 .08-.04.08-.08v-.32c0-.04-.036-.08-.08-.08h-6.08c-.044 0-.08.04-.08.08z" style="fill:none;stroke:#000;stroke-width:2.25;stroke-linecap:butt;stroke-linejoin:miter;stroke-miterlimit:10;stroke-dasharray:none;stroke-opacity:1" transform="matrix(1.33333 0 0 -1.33333 0 226.88)"/><path d="M62.46 109.06c0 .04.036.08.08.08h6.08c.044 0 .08-.04.08-.08v-.32c0-.04-.036-.08-.08-.08h-6.08c-.044 0-.08.04-.08.08z" style="fill:#000;fill-opacity:1;fill-rule:evenodd;stroke:none" transform="matrix(1.33333 0 0 -1.33333 0 226.88)"/><path d="M62.46 109.06c0 .04.036.08.08.08h6.08c.044 0 .08-.04.08-.08v-.32c0-.04-.036-.08-.08-.08h-6.08c-.044 0-.08.04-.08.08z" style="fill:none;stroke:#000;stroke-width:2.25;stroke-linecap:butt;stroke-linejoin:miter;stroke-miterlimit:10;stroke-dasharray:none;stroke-opacity:1" transform="matrix(1.33333 0 0 -1.33333 0 226.88)"/><path d="M14.82 142.9c0 .04.036.08.08.08h6.08c.044 0 .08-.04.08-.08v-.32c0-.04-.036-.08-.08-.08H14.9c-.044 0-.08.04-.08.08z" style="fill:#000;fill-opacity:1;fill-rule:evenodd;stroke:none" transform="matrix(1.33333 0 0 -1.33333 0 226.88)"/><path d="M14.82 142.9c0 .04.036.08.08.08h6.08c.044 0 .08-.04.08-.08v-.32c0-.04-.036-.08-.08-.08H14.9c-.044 0-.08.04-.08.08z" style="fill:none;stroke:#000;stroke-width:2.25;stroke-linecap:butt;stroke-linejoin:miter;stroke-miterlimit:10;stroke-dasharray:none;stroke-opacity:1" transform="matrix(1.33333 0 0 -1.33333 0 226.88)"/><path d="M14.82 136.06c0 .04.036.08.08.08h6.08c.044 0 .08-.04.08-.08v-.32c0-.04-.036-.08-.08-.08H14.9c-.044 0-.08.04-.08.08z" style="fill:#000;fill-opacity:1;fill-rule:evenodd;stroke:none" transform="matrix(1.33333 0 0 -1.33333 0 226.88)"/><path d="M14.82 136.06c0 .04.036.08.08.08h6.08c.044 0 .08-.04.08-.08v-.32c0-.04-.036-.08-.08-.08H14.9c-.044 0-.08.04-.08.08z" style="fill:none;stroke:#000;stroke-width:2.25;stroke-linecap:butt;stroke-linejoin:miter;stroke-miterlimit:10;stroke-dasharray:none;stroke-opacity:1" transform="matrix(1.33333 0 0 -1.33333 0 226.88)"/><path d="M14.82 129.58c0 .04.036.08.08.08h6.08c.044 0 .08-.04.08-.08v-.32c0-.04-.036-.08-.08-.08H14.9c-.044 0-.08.04-.08.08z" style="fill:#000;fill-opacity:1;fill-rule:evenodd;stroke:none" transform="matrix(1.33333 0 0 -1.33333 0 226.88)"/><path d="M14.82 129.58c0 .04.036.08.08.08h6.08c.044 0 .08-.04.08-.08v-.32c0-.04-.036-.08-.08-.08H14.9c-.044 0-.08.04-.08.08z" style="fill:none;stroke:#000;stroke-width:2.25;stroke-linecap:butt;stroke-linejoin:miter;stroke-miterlimit:10;stroke-dasharray:none;stroke-opacity:1" transform="matrix(1.33333 0 0 -1.33333 0 226.88)"/><path d="M14.82 122.74c0 .04.036.08.08.08h6.08c.044 0 .08-.04.08-.08v-.32c0-.04-.036-.08-.08-.08H14.9c-.044 0-.08.04-.08.08z" style="fill:#000;fill-opacity:1;fill-rule:evenodd;stroke:none" transform="matrix(1.33333 0 0 -1.33333 0 226.88)"/><path d="M14.82 122.74c0 .04.036.08.08.08h6.08c.044 0 .08-.04.08-.08v-.32c0-.04-.036-.08-.08-.08H14.9c-.044 0-.08.04-.08.08z" style="fill:none;stroke:#000;stroke-width:2.25;stroke-linecap:butt;stroke-linejoin:miter;stroke-miterlimit:10;stroke-dasharray:none;stroke-opacity:1" transform="matrix(1.33333 0 0 -1.33333 0 226.88)"/><path d="M14.82 115.9c0 .04.036.08.08.08h6.08c.044 0 .08-.04.08-.08v-.32c0-.04-.036-.08-.08-.08H14.9c-.044 0-.08.04-.08.08z" style="fill:#000;fill-opacity:1;fill-rule:evenodd;stroke:none" transform="matrix(1.33333 0 0 -1.33333 0 226.88)"/><path d="M14.82 115.9c0 .04.036.08.08.08h6.08c.044 0 .08-.04.08-.08v-.32c0-.04-.036-.08-.08-.08H14.9c-.044 0-.08.04-.08.08z" style="fill:none;stroke:#000;stroke-width:2.25;stroke-linecap:butt;stroke-linejoin:miter;stroke-miterlimit:10;stroke-dasharray:none;stroke-opacity:1" transform="matrix(1.33333 0 0 -1.33333 0 226.88)"/><path d="M14.82 109.42c0 .04.036.08.08.08h6.08c.044 0 .08-.04.08-.08v-.32c0-.04-.036-.08-.08-.08H14.9c-.044 0-.08.04-.08.08z" style="fill:#000;fill-opacity:1;fill-rule:evenodd;stroke:none" transform="matrix(1.33333 0 0 -1.33333 0 226.88)"/><path d="M14.82 109.42c0 .04.036.08.08.08h6.08c.044 0 .08-.04.08-.08v-.32c0-.04-.036-.08-.08-.08H14.9c-.044 0-.08.04-.08.08z" style="fill:none;stroke:#000;stroke-width:2.25;stroke-linecap:butt;stroke-linejoin:miter;stroke-miterlimit:10;stroke-dasharray:none;stroke-opacity:1" transform="matrix(1.33333 0 0 -1.33333 0 226.88)"/><path d="M105.9 60.515a4.584 4.584 0 0 0 4.59 4.585h32.1c2.54 0 4.59-2.053 4.59-4.585v-31.75a4.584 4.584 0 0 0-4.59-4.585h-32.1a4.584 4.584 0 0 0-4.59 4.585z" style="fill:#f2f2f2;fill-opacity:1;fill-rule:evenodd;stroke:none" transform="matrix(1.33333 0 0 -1.33333 0 226.88)"/><path d="M105.9 60.515a4.584 4.584 0 0 0 4.59 4.585h32.1c2.54 0 4.59-2.053 4.59-4.585v-31.75a4.584 4.584 0 0 0-4.59-4.585h-32.1a4.584 4.584 0 0 0-4.59 4.585z" style="fill:none;stroke:#000;stroke-width:2.25;stroke-linecap:butt;stroke-linejoin:miter;stroke-miterlimit:10;stroke-dasharray:none;stroke-opacity:1" transform="matrix(1.33333 0 0 -1.33333 0 226.88)"/><path d="M118.86 44.22c0 9.345 3.57 16.92 7.98 16.92s7.98-7.575 7.98-16.92c0-9.345-3.57-16.92-7.98-16.92s-7.98 7.575-7.98 16.92z" style="fill:none;stroke:#000;stroke-width:2.25;stroke-linecap:butt;stroke-linejoin:miter;stroke-miterlimit:10;stroke-dasharray:none;stroke-opacity:1" transform="matrix(1.33333 0 0 -1.33333 0 226.88)"/><g clip-path="url(#A)" transform="matrix(1.33333 0 0 -1.33333 0 226.88)"><path d="M122.99 51.137c8.48 4.757 17.03 5.628 19.1 1.944 2.06-3.683-3.13-10.526-11.61-15.284-8.48-4.757-17.03-5.628-19.1-1.944-2.07 3.683 3.13 10.526 11.61 15.284z" style="fill:none;stroke:#000;stroke-width:2.25;stroke-linecap:butt;stroke-linejoin:miter;stroke-miterlimit:10;stroke-dasharray:none;stroke-opacity:1"/></g><g clip-path="url(#B)" transform="matrix(1.33333 0 0 -1.33333 0 226.88)"><path d="M130.54 50.647c8.33-5.027 13.3-12.032 11.12-15.648-2.18-3.615-10.7-2.472-19.02 2.555-8.33 5.026-13.3 12.032-11.12 15.647 2.18 3.616 10.7 2.472 19.02-2.554z" style="fill:none;stroke:#000;stroke-width:2.25;stroke-linecap:butt;stroke-linejoin:miter;stroke-miterlimit:10;stroke-dasharray:none;stroke-opacity:1"/></g><path d="M123.3 44.16c0 1.756 1.53 3.18 3.42 3.18s3.42-1.424 3.42-3.18c0-1.756-1.53-3.18-3.42-3.18s-3.42 1.424-3.42 3.18z" style="fill:#000;fill-opacity:1;fill-rule:evenodd;stroke:none" transform="matrix(1.33333 0 0 -1.33333 0 226.88)"/><path d="M123.3 44.16c0 1.756 1.53 3.18 3.42 3.18s3.42-1.424 3.42-3.18c0-1.756-1.53-3.18-3.42-3.18s-3.42 1.424-3.42 3.18z" style="fill:none;stroke:#000;stroke-width:2.25;stroke-linecap:butt;stroke-linejoin:miter;stroke-miterlimit:10;stroke-dasharray:none;stroke-opacity:1" transform="matrix(1.33333 0 0 -1.33333 0 226.88)"/><g clip-path="url(#C)" transform="matrix(1.33333 0 0 -1.33333 0 226.88)"><path d="M142.78 71.58c.04 0 .08-.036.08-.08v-6.32c0-.044-.04-.08-.08-.08h-.32c-.04 0-.08.036-.08.08v6.32c0 .044.04.08.08.08z" style="fill:#000;fill-opacity:1;fill-rule:evenodd;stroke:none"/></g><g clip-path="url(#D)" transform="matrix(1.33333 0 0 -1.33333 0 226.88)"><path d="M142.78 71.58c.04 0 .08-.036.08-.08v-6.32c0-.044-.04-.08-.08-.08h-.32c-.04 0-.08.036-.08.08v6.32c0 .044.04.08.08.08z" style="fill:none;stroke:#000;stroke-width:2.25;stroke-linecap:butt;stroke-linejoin:miter;stroke-miterlimit:10;stroke-dasharray:none;stroke-opacity:1"/></g><g clip-path="url(#E)" transform="matrix(1.33333 0 0 -1.33333 0 226.88)"><path d="M136.08 71.58c.03 0 .06-.027.06-.06v-6.36c0-.033-.03-.06-.06-.06h-.24c-.03 0-.06.027-.06.06v6.36c0 .033.03.06.06.06z" style="fill:#000;fill-opacity:1;fill-rule:evenodd;stroke:none"/></g><g clip-path="url(#F)" transform="matrix(1.33333 0 0 -1.33333 0 226.88)"><path d="M136.08 71.58c.03 0 .06-.027.06-.06v-6.36c0-.033-.03-.06-.06-.06h-.24c-.03 0-.06.027-.06.06v6.36c0 .033.03.06.06.06z" style="fill:none;stroke:#000;stroke-width:2.25;stroke-linecap:butt;stroke-linejoin:miter;stroke-miterlimit:10;stroke-dasharray:none;stroke-opacity:1"/></g><g clip-path="url(#G)" transform="matrix(1.33333 0 0 -1.33333 0 226.88)"><path d="M129.72 71.58c.03 0 .06-.027.06-.06v-6.36c0-.033-.03-.06-.06-.06h-.24c-.03 0-.06.027-.06.06v6.36c0 .033.03.06.06.06z" style="fill:#000;fill-opacity:1;fill-rule:evenodd;stroke:none"/></g><g clip-path="url(#H)" transform="matrix(1.33333 0 0 -1.33333 0 226.88)"><path d="M129.72 71.58c.03 0 .06-.027.06-.06v-6.36c0-.033-.03-.06-.06-.06h-.24c-.03 0-.06.027-.06.06v6.36c0 .033.03.06.06.06z" style="fill:none;stroke:#000;stroke-width:2.25;stroke-linecap:butt;stroke-linejoin:miter;stroke-miterlimit:10;stroke-dasharray:none;stroke-opacity:1"/></g><g clip-path="url(#I)" transform="matrix(1.33333 0 0 -1.33333 0 226.88)"><path d="M123.22 71.58c.04 0 .08-.036.08-.08v-6.32c0-.044-.04-.08-.08-.08h-.32c-.04 0-.08.036-.08.08v6.32c0 .044.04.08.08.08z" style="fill:#000;fill-opacity:1;fill-rule:evenodd;stroke:none"/></g><g clip-path="url(#J)" transform="matrix(1.33333 0 0 -1.33333 0 226.88)"><path d="M123.22 71.58c.04 0 .08-.036.08-.08v-6.32c0-.044-.04-.08-.08-.08h-.32c-.04 0-.08.036-.08.08v6.32c0 .044.04.08.08.08z" style="fill:none;stroke:#000;stroke-width:2.25;stroke-linecap:butt;stroke-linejoin:miter;stroke-miterlimit:10;stroke-dasharray:none;stroke-opacity:1"/></g><g clip-path="url(#K)" transform="matrix(1.33333 0 0 -1.33333 0 226.88)"><path d="M116.52 71.58c.03 0 .06-.027.06-.06v-6.36c0-.033-.03-.06-.06-.06h-.24c-.03 0-.06.027-.06.06v6.36c0 .033.03.06.06.06z" style="fill:#000;fill-opacity:1;fill-rule:evenodd;stroke:none"/></g><g clip-path="url(#L)" transform="matrix(1.33333 0 0 -1.33333 0 226.88)"><path d="M116.52 71.58c.03 0 .06-.027.06-.06v-6.36c0-.033-.03-.06-.06-.06h-.24c-.03 0-.06.027-.06.06v6.36c0 .033.03.06.06.06z" style="fill:none;stroke:#000;stroke-width:2.25;stroke-linecap:butt;stroke-linejoin:miter;stroke-miterlimit:10;stroke-dasharray:none;stroke-opacity:1"/></g><g clip-path="url(#M)" transform="matrix(1.33333 0 0 -1.33333 0 226.88)"><path d="M110.14 71.58c.04 0 .08-.036.08-.08v-6.32c0-.044-.04-.08-.08-.08h-.32c-.04 0-.08.036-.08.08v6.32c0 .044.04.08.08.08z" style="fill:#000;fill-opacity:1;fill-rule:evenodd;stroke:none"/></g><g clip-path="url(#N)" transform="matrix(1.33333 0 0 -1.33333 0 226.88)"><path d="M110.14 71.58c.04 0 .08-.036.08-.08v-6.32c0-.044-.04-.08-.08-.08h-.32c-.04 0-.08.036-.08.08v6.32c0 .044.04.08.08.08z" style="fill:none;stroke:#000;stroke-width:2.25;stroke-linecap:butt;stroke-linejoin:miter;stroke-miterlimit:10;stroke-dasharray:none;stroke-opacity:1"/></g><g clip-path="url(#O)" transform="matrix(1.33333 0 0 -1.33333 0 226.88)"><path d="M142.78 24.18c.04 0 .08-.036.08-.08v-6.32c0-.044-.04-.08-.08-.08h-.32c-.04 0-.08.036-.08.08v6.32c0 .044.04.08.08.08z" style="fill:#000;fill-opacity:1;fill-rule:evenodd;stroke:none"/></g><g clip-path="url(#P)" transform="matrix(1.33333 0 0 -1.33333 0 226.88)"><path d="M142.78 24.18c.04 0 .08-.036.08-.08v-6.32c0-.044-.04-.08-.08-.08h-.32c-.04 0-.08.036-.08.08v6.32c0 .044.04.08.08.08z" style="fill:none;stroke:#000;stroke-width:2.25;stroke-linecap:butt;stroke-linejoin:miter;stroke-miterlimit:10;stroke-dasharray:none;stroke-opacity:1"/></g><g clip-path="url(#Q)" transform="matrix(1.33333 0 0 -1.33333 0 226.88)"><path d="M136.08 24.18c.03 0 .06-.027.06-.06v-6.36c0-.033-.03-.06-.06-.06h-.24c-.03 0-.06.027-.06.06v6.36c0 .033.03.06.06.06z" style="fill:#000;fill-opacity:1;fill-rule:evenodd;stroke:none"/></g><g clip-path="url(#R)" transform="matrix(1.33333 0 0 -1.33333 0 226.88)"><path d="M136.08 24.18c.03 0 .06-.027.06-.06v-6.36c0-.033-.03-.06-.06-.06h-.24c-.03 0-.06.027-.06.06v6.36c0 .033.03.06.06.06z" style="fill:none;stroke:#000;stroke-width:2.25;stroke-linecap:butt;stroke-linejoin:miter;stroke-miterlimit:10;stroke-dasharray:none;stroke-opacity:1"/></g><g clip-path="url(#S)" transform="matrix(1.33333 0 0 -1.33333 0 226.88)"><path d="M129.72 24.18c.03 0 .06-.027.06-.06v-6.36c0-.033-.03-.06-.06-.06h-.24c-.03 0-.06.027-.06.06v6.36c0 .033.03.06.06.06z" style="fill:#000;fill-opacity:1;fill-rule:evenodd;stroke:none"/></g><g clip-path="url(#T)" transform="matrix(1.33333 0 0 -1.33333 0 226.88)"><path d="M129.72 24.18c.03 0 .06-.027.06-.06v-6.36c0-.033-.03-.06-.06-.06h-.24c-.03 0-.06.027-.06.06v6.36c0 .033.03.06.06.06z" style="fill:none;stroke:#000;stroke-width:2.25;stroke-linecap:butt;stroke-linejoin:miter;stroke-miterlimit:10;stroke-dasharray:none;stroke-opacity:1"/></g><g clip-path="url(#U)" transform="matrix(1.33333 0 0 -1.33333 0 226.88)"><path d="M123.22 24.18c.04 0 .08-.036.08-.08v-6.32c0-.044-.04-.08-.08-.08h-.32c-.04 0-.08.036-.08.08v6.32c0 .044.04.08.08.08z" style="fill:#000;fill-opacity:1;fill-rule:evenodd;stroke:none"/></g><g clip-path="url(#V)" transform="matrix(1.33333 0 0 -1.33333 0 226.88)"><path d="M123.22 24.18c.04 0 .08-.036.08-.08v-6.32c0-.044-.04-.08-.08-.08h-.32c-.04 0-.08.036-.08.08v6.32c0 .044.04.08.08.08z" style="fill:none;stroke:#000;stroke-width:2.25;stroke-linecap:butt;stroke-linejoin:miter;stroke-miterlimit:10;stroke-dasharray:none;stroke-opacity:1"/></g><g clip-path="url(#W)" transform="matrix(1.33333 0 0 -1.33333 0 226.88)"><path d="M116.52 24.18c.03 0 .06-.027.06-.06v-6.36c0-.033-.03-.06-.06-.06h-.24c-.03 0-.06.027-.06.06v6.36c0 .033.03.06.06.06z" style="fill:#000;fill-opacity:1;fill-rule:evenodd;stroke:none"/></g><g clip-path="url(#X)" transform="matrix(1.33333 0 0 -1.33333 0 226.88)"><path d="M116.52 24.18c.03 0 .06-.027.06-.06v-6.36c0-.033-.03-.06-.06-.06h-.24c-.03 0-.06.027-.06.06v6.36c0 .033.03.06.06.06z" style="fill:none;stroke:#000;stroke-width:2.25;stroke-linecap:butt;stroke-linejoin:miter;stroke-miterlimit:10;stroke-dasharray:none;stroke-opacity:1"/></g><g clip-path="url(#Y)" transform="matrix(1.33333 0 0 -1.33333 0 226.88)"><path d="M110.14 24.18c.04 0 .08-.036.08-.08v-6.32c0-.044-.04-.08-.08-.08h-.32c-.04 0-.08.036-.08.08v6.32c0 .044.04.08.08.08z" style="fill:#000;fill-opacity:1;fill-rule:evenodd;stroke:none"/></g><g clip-path="url(#Z)" transform="matrix(1.33333 0 0 -1.33333 0 226.88)"><path d="M110.14 24.18c.04 0 .08-.036.08-.08v-6.32c0-.044-.04-.08-.08-.08h-.32c-.04 0-.08.036-.08.08v6.32c0 .044.04.08.08.08z" style="fill:none;stroke:#000;stroke-width:2.25;stroke-linecap:butt;stroke-linejoin:miter;stroke-miterlimit:10;stroke-dasharray:none;stroke-opacity:1"/></g><path d="M147.06 60.94c0 .044.04.08.08.08h6.08c.04 0 .08-.036.08-.08v-.32c0-.044-.04-.08-.08-.08h-6.08c-.04 0-.08.036-.08.08z" style="fill:#000;fill-opacity:1;fill-rule:evenodd;stroke:none" transform="matrix(1.33333 0 0 -1.33333 0 226.88)"/><path d="M147.06 60.94c0 .044.04.08.08.08h6.08c.04 0 .08-.036.08-.08v-.32c0-.044-.04-.08-.08-.08h-6.08c-.04 0-.08.036-.08.08z" style="fill:none;stroke:#000;stroke-width:2.25;stroke-linecap:butt;stroke-linejoin:miter;stroke-miterlimit:10;stroke-dasharray:none;stroke-opacity:1" transform="matrix(1.33333 0 0 -1.33333 0 226.88)"/><path d="M147.06 54.1c0 .044.04.08.08.08h6.08c.04 0 .08-.036.08-.08v-.32c0-.044-.04-.08-.08-.08h-6.08c-.04 0-.08.036-.08.08z" style="fill:#000;fill-opacity:1;fill-rule:evenodd;stroke:none" transform="matrix(1.33333 0 0 -1.33333 0 226.88)"/><path d="M147.06 54.1c0 .044.04.08.08.08h6.08c.04 0 .08-.036.08-.08v-.32c0-.044-.04-.08-.08-.08h-6.08c-.04 0-.08.036-.08.08z" style="fill:none;stroke:#000;stroke-width:2.25;stroke-linecap:butt;stroke-linejoin:miter;stroke-miterlimit:10;stroke-dasharray:none;stroke-opacity:1" transform="matrix(1.33333 0 0 -1.33333 0 226.88)"/><path d="M147.06 47.62c0 .044.04.08.08.08h6.08c.04 0 .08-.036.08-.08v-.32c0-.044-.04-.08-.08-.08h-6.08c-.04 0-.08.036-.08.08z" style="fill:#000;fill-opacity:1;fill-rule:evenodd;stroke:none" transform="matrix(1.33333 0 0 -1.33333 0 226.88)"/><path d="M147.06 47.62c0 .044.04.08.08.08h6.08c.04 0 .08-.036.08-.08v-.32c0-.044-.04-.08-.08-.08h-6.08c-.04 0-.08.036-.08.08z" style="fill:none;stroke:#000;stroke-width:2.25;stroke-linecap:butt;stroke-linejoin:miter;stroke-miterlimit:10;stroke-dasharray:none;stroke-opacity:1" transform="matrix(1.33333 0 0 -1.33333 0 226.88)"/><path d="M147.06 40.78c0 .044.04.08.08.08h6.08c.04 0 .08-.036.08-.08v-.32c0-.044-.04-.08-.08-.08h-6.08c-.04 0-.08.036-.08.08z" style="fill:#000;fill-opacity:1;fill-rule:evenodd;stroke:none" transform="matrix(1.33333 0 0 -1.33333 0 226.88)"/><path d="M147.06 40.78c0 .044.04.08.08.08h6.08c.04 0 .08-.036.08-.08v-.32c0-.044-.04-.08-.08-.08h-6.08c-.04 0-.08.036-.08.08z" style="fill:none;stroke:#000;stroke-width:2.25;stroke-linecap:butt;stroke-linejoin:miter;stroke-miterlimit:10;stroke-dasharray:none;stroke-opacity:1" transform="matrix(1.33333 0 0 -1.33333 0 226.88)"/><path d="M147.06 33.94c0 .044.04.08.08.08h6.08c.04 0 .08-.036.08-.08v-.32c0-.044-.04-.08-.08-.08h-6.08c-.04 0-.08.036-.08.08z" style="fill:#000;fill-opacity:1;fill-rule:evenodd;stroke:none" transform="matrix(1.33333 0 0 -1.33333 0 226.88)"/><path d="M147.06 33.94c0 .044.04.08.08.08h6.08c.04 0 .08-.036.08-.08v-.32c0-.044-.04-.08-.08-.08h-6.08c-.04 0-.08.036-.08.08z" style="fill:none;stroke:#000;stroke-width:2.25;stroke-linecap:butt;stroke-linejoin:miter;stroke-miterlimit:10;stroke-dasharray:none;stroke-opacity:1" transform="matrix(1.33333 0 0 -1.33333 0 226.88)"/><path d="M147.06 27.46c0 .044.04.08.08.08h6.08c.04 0 .08-.036.08-.08v-.32c0-.044-.04-.08-.08-.08h-6.08c-.04 0-.08.036-.08.08z" style="fill:#000;fill-opacity:1;fill-rule:evenodd;stroke:none" transform="matrix(1.33333 0 0 -1.33333 0 226.88)"/><path d="M147.06 27.46c0 .044.04.08.08.08h6.08c.04 0 .08-.036.08-.08v-.32c0-.044-.04-.08-.08-.08h-6.08c-.04 0-.08.036-.08.08z" style="fill:none;stroke:#000;stroke-width:2.25;stroke-linecap:butt;stroke-linejoin:miter;stroke-miterlimit:10;stroke-dasharray:none;stroke-opacity:1" transform="matrix(1.33333 0 0 -1.33333 0 226.88)"/><path d="M99.42 61.3c0 .044.036.08.08.08h6.08c.04 0 .08-.036.08-.08v-.32c0-.044-.04-.08-.08-.08H99.5a.08.08 0 0 0-.08.08z" style="fill:#000;fill-opacity:1;fill-rule:evenodd;stroke:none" transform="matrix(1.33333 0 0 -1.33333 0 226.88)"/><path d="M99.42 61.3c0 .044.036.08.08.08h6.08c.04 0 .08-.036.08-.08v-.32c0-.044-.04-.08-.08-.08H99.5a.08.08 0 0 0-.08.08z" style="fill:none;stroke:#000;stroke-width:2.25;stroke-linecap:butt;stroke-linejoin:miter;stroke-miterlimit:10;stroke-dasharray:none;stroke-opacity:1" transform="matrix(1.33333 0 0 -1.33333 0 226.88)"/><path d="M99.42 54.46c0 .044.036.08.08.08h6.08c.04 0 .08-.036.08-.08v-.32c0-.044-.04-.08-.08-.08H99.5a.08.08 0 0 0-.08.08z" style="fill:#000;fill-opacity:1;fill-rule:evenodd;stroke:none" transform="matrix(1.33333 0 0 -1.33333 0 226.88)"/><path d="M99.42 54.46c0 .044.036.08.08.08h6.08c.04 0 .08-.036.08-.08v-.32c0-.044-.04-.08-.08-.08H99.5a.08.08 0 0 0-.08.08z" style="fill:none;stroke:#000;stroke-width:2.25;stroke-linecap:butt;stroke-linejoin:miter;stroke-miterlimit:10;stroke-dasharray:none;stroke-opacity:1" transform="matrix(1.33333 0 0 -1.33333 0 226.88)"/><path d="M99.42 47.98c0 .044.036.08.08.08h6.08c.04 0 .08-.036.08-.08v-.32c0-.044-.04-.08-.08-.08H99.5a.08.08 0 0 0-.08.08z" style="fill:#000;fill-opacity:1;fill-rule:evenodd;stroke:none" transform="matrix(1.33333 0 0 -1.33333 0 226.88)"/><path d="M99.42 47.98c0 .044.036.08.08.08h6.08c.04 0 .08-.036.08-.08v-.32c0-.044-.04-.08-.08-.08H99.5a.08.08 0 0 0-.08.08z" style="fill:none;stroke:#000;stroke-width:2.25;stroke-linecap:butt;stroke-linejoin:miter;stroke-miterlimit:10;stroke-dasharray:none;stroke-opacity:1" transform="matrix(1.33333 0 0 -1.33333 0 226.88)"/><path d="M99.42 41.14c0 .044.036.08.08.08h6.08c.04 0 .08-.036.08-.08v-.32c0-.044-.04-.08-.08-.08H99.5a.08.08 0 0 0-.08.08z" style="fill:#000;fill-opacity:1;fill-rule:evenodd;stroke:none" transform="matrix(1.33333 0 0 -1.33333 0 226.88)"/><path d="M99.42 41.14c0 .044.036.08.08.08h6.08c.04 0 .08-.036.08-.08v-.32c0-.044-.04-.08-.08-.08H99.5a.08.08 0 0 0-.08.08z" style="fill:none;stroke:#000;stroke-width:2.25;stroke-linecap:butt;stroke-linejoin:miter;stroke-miterlimit:10;stroke-dasharray:none;stroke-opacity:1" transform="matrix(1.33333 0 0 -1.33333 0 226.88)"/><path d="M99.42 34.32c0 .033.027.06.06.06h6.12c.03 0 .06-.027.06-.06v-.24c0-.033-.03-.06-.06-.06h-6.12a.06.06 0 0 0-.06.06z" style="fill:#000;fill-opacity:1;fill-rule:evenodd;stroke:none" transform="matrix(1.33333 0 0 -1.33333 0 226.88)"/><path d="M99.42 34.32c0 .033.027.06.06.06h6.12c.03 0 .06-.027.06-.06v-.24c0-.033-.03-.06-.06-.06h-6.12a.06.06 0 0 0-.06.06z" style="fill:none;stroke:#000;stroke-width:2.25;stroke-linecap:butt;stroke-linejoin:miter;stroke-miterlimit:10;stroke-dasharray:none;stroke-opacity:1" transform="matrix(1.33333 0 0 -1.33333 0 226.88)"/><path d="M99.42 27.82c0 .044.036.08.08.08h6.08c.04 0 .08-.036.08-.08v-.32c0-.044-.04-.08-.08-.08H99.5a.08.08 0 0 0-.08.08z" style="fill:#000;fill-opacity:1;fill-rule:evenodd;stroke:none" transform="matrix(1.33333 0 0 -1.33333 0 226.88)"/><path d="M99.42 27.82c0 .044.036.08.08.08h6.08c.04 0 .08-.036.08-.08v-.32c0-.044-.04-.08-.08-.08H99.5a.08.08 0 0 0-.08.08z" style="fill:none;stroke:#000;stroke-width:2.25;stroke-linecap:butt;stroke-linejoin:miter;stroke-miterlimit:10;stroke-dasharray:none;stroke-opacity:1" transform="matrix(1.33333 0 0 -1.33333 0 226.88)"/></svg>
