<?xml version="1.0" encoding="UTF-8" standalone="no"?>
<!-- Created with Inkscape (http://www.inkscape.org/) -->

<svg
   version="1.1"
   id="svg1"
   width="210.05005"
   height="210.32639"
   viewBox="0 0 210.05005 210.32638"
   xmlns="http://www.w3.org/2000/svg"
   xmlns:svg="http://www.w3.org/2000/svg">
  <defs
     id="defs1">
    <clipPath
       clipPathUnits="userSpaceOnUse"
       id="clipPath3">
      <path
         d="M 0,4.5776e-5 H 167.28 V 167.28005 H 0 Z"
         clip-rule="evenodd"
         id="path3" />
    </clipPath>
    <clipPath
       clipPathUnits="userSpaceOnUse"
       id="clipPath5">
      <path
         d="M 0,0 H 23.291 V 23.286 H 0 Z"
         id="path5" />
    </clipPath>
    <clipPath
       clipPathUnits="userSpaceOnUse"
       id="clipPath6">
      <path
         d="M 0,0 H 23.291 V 23.286 H 0 Z"
         id="path6" />
    </clipPath>
    <clipPath
       clipPathUnits="userSpaceOnUse"
       id="clipPath9">
      <path
         d="m 102.96,108.24 h 46.32 v 46.08 h -46.32 z"
         transform="matrix(1.3333333,0,0,-1.3333333,0,223.04)"
         clip-rule="evenodd"
         id="path9" />
    </clipPath>
    <clipPath
       clipPathUnits="userSpaceOnUse"
       id="clipPath14">
      <path
         d="M 0,167.28 H 167.28 V 6.1035e-5 H 7.629e-6"
         clip-rule="evenodd"
         id="path14" />
    </clipPath>
  </defs>
  <g
     id="g1"
     transform="translate(-7.1859231,-12.713535)">
    <g
       id="g2"
       transform="matrix(0.9417596,0,0,0.94299875,7.1859231,12.713555)"
       style="fill:none">
      <path
         id="path2"
         d="M 0,1.5259e-5 H 167.28 V 167.28002 H 0 Z"
         style="fill:none;fill-opacity:1;fill-rule:evenodd;stroke:none"
         transform="matrix(1.3333333,0,0,-1.3333333,0,223.04)"
         clip-path="url(#clipPath3)" />
    </g>
    <g
       id="g3"
       style="stroke-width:0.9;stroke-dasharray:none">
      <path
         id="path4"
         d="m 7.32,129.92 c 0,14.07 11.408,25.48 25.48,25.48 h 101.92 c 14.07,0 25.48,-11.41 25.48,-25.48 V 27.76 C 160.2,13.688 148.79,2.28 134.72,2.28 H 32.8 C 18.728,2.28 7.32,13.688 7.32,27.76 Z"
         style="fill:#f2f2f2;fill-opacity:1;fill-rule:evenodd;stroke:#000000;stroke-width:0.675;stroke-linecap:butt;stroke-linejoin:miter;stroke-miterlimit:10;stroke-dasharray:none;stroke-opacity:1"
         transform="matrix(1.3333333,0,0,-1.3333333,0,223.04)" />
    </g>
    <g
       id="g4">
      <g
         id="g8"
         clip-path="url(#clipPath9)">
        <path
           d="m 13.03,11.624 c 0,-0.795 -0.645,-1.44 -1.44,-1.44 -0.796,0 -1.44,0.645 -1.44,1.44 0,0.795 0.644,1.44 1.44,1.44 0.795,0 1.44,-0.645 1.44,-1.44 z"
           style="fill:#404040;fill-opacity:1;fill-rule:nonzero;stroke:none"
           transform="matrix(2.6516347,3.8744293e-7,-3.8753067e-7,-2.6385067,137.28,78.72)"
           clip-path="url(#clipPath5)"
           id="path7" />
        <path
           d="m 20.038,16.424 c -0.408,0.696 -1.32,1.032 -2.568,1.032 -0.792,0 -1.704,-0.144 -2.712,-0.408 -0.696,2.52 -1.848,4.176 -3.168,4.176 -1.296,0 -2.4722,-1.632 -3.1442,-4.128 -0.96,0.24 -1.824,0.384 -2.592,0.384 -1.248,0 -2.16,-0.336 -2.568,-1.032 -0.672,-1.152 0.216,-3 2.064,-4.872 -1.776,-1.8241 -2.592,-3.6001 -1.944,-4.7281 0.408,-0.696 1.32,-1.032 2.568,-1.032 0.72,0 1.56,0.12 2.472,0.336 0.696,-2.496 1.8482,-4.128 3.1442,-4.128 1.296,0 2.472,1.632 3.144,4.128 0.96,-0.24 1.824,-0.384 2.592,-0.384 1.248,0 2.16,0.336 2.568,1.032 0.648,1.128 -0.168,2.904 -1.944,4.7281 1.896,1.896 2.76,3.744 2.088,4.896 z m -2.568,0.072 c 0.888,0 1.536,-0.216 1.728,-0.552 0.36,-0.624 -0.288,-2.088 -1.92,-3.72 -0.576,0.528 -1.224,1.056 -1.944,1.56 -0.072,0.816 -0.192,1.608 -0.36,2.352 0.912,0.24 1.776,0.36 2.496,0.36 z M 13.174,9.1279 c -0.504,-0.288 -1.008,-0.552 -1.512,-0.792 -0.504,0.24 -1.008,0.504 -1.512,0.792 -0.4802,0.288 -0.9602,0.576 -1.3922,0.864 -0.048,0.5281 -0.048,1.0561 -0.048,1.6321 0,0.528 0.024,1.032 0.048,1.536 0.48,0.336 0.984,0.648 1.5362,0.96 0.456,0.264 0.912,0.504 1.368,0.72 0.456,-0.216 0.912,-0.456 1.368,-0.72 0.48,-0.288 0.96,-0.576 1.392,-0.864 0.048,-0.528 0.048,-1.056 0.048,-1.632 0,-0.6 -0.024,-1.176 -0.072,-1.7281 -0.384,-0.264 -0.792,-0.504 -1.224,-0.768 z m 1.104,-0.456 c -0.072,-0.456 -0.144,-0.912 -0.216,-1.32 -0.408,0.144 -0.84,0.288 -1.272,0.48 0.288,0.144 0.576,0.312 0.864,0.48 0.216,0.12 0.432,0.24 0.624,0.36 z m -3.744,-0.84 c -0.48,-0.192 -0.9362,-0.36 -1.3922,-0.504 -0.096,0.456 -0.168,0.936 -0.24,1.44 0.264,-0.168 0.504,-0.312 0.792,-0.48 0.264,-0.144 0.5522,-0.312 0.8402,-0.456 z M 7.7738,10.712 c -0.384,0.288 -0.72,0.576 -1.032,0.864 0.312,0.288 0.672,0.576 1.032,0.864 0,-0.264 -0.024,-0.528 -0.024,-0.816 0,-0.312 0,-0.624 0.024,-0.912 z m 1.104,3.672 c 0.072,0.528 0.144,1.032 0.24,1.512 0.456,-0.144 0.9362,-0.336 1.4162,-0.528 -0.24,-0.12 -0.504,-0.264 -0.7442,-0.408 -0.288,-0.192 -0.6,-0.384 -0.912,-0.576 z m 3.8882,0.984 c 0.432,0.192 0.864,0.336 1.296,0.48 0.096,-0.432 0.168,-0.888 0.24,-1.368 -0.264,0.168 -0.504,0.312 -0.792,0.48 -0.24,0.12 -0.48,0.264 -0.744,0.408 z m 2.64,-2.832 c 0.432,-0.336 0.816,-0.648 1.176,-0.984 -0.36,-0.312 -0.744,-0.648 -1.176,-0.96 0.024,0.336 0.024,0.672 0.024,1.008 0,0.336 0,0.648 -0.024,0.936 z m -3.816,7.728 c 0.72,0 1.656,-1.272 2.256,-3.48 -0.696,-0.24 -1.44,-0.528 -2.184,-0.864 -0.792,0.36 -1.56,0.672 -2.3042,0.912 0.6,2.184 1.5122,3.432 2.2322,3.432 z m -7.4882,-4.32 c 0.216,0.36 0.84,0.552 1.728,0.552 0.696,0 1.488,-0.12 2.352,-0.336 -0.168,-0.768 -0.288,-1.608 -0.36,-2.472 -0.672,-0.48 -1.272,-0.96 -1.8,-1.464 -1.608,1.632 -2.28,3.096 -1.92,3.72 z m 1.872,-9.1921 c -0.888,0 -1.536,0.216 -1.728,0.552 -0.36,0.624 0.264,2.016 1.8,3.6001 0.552,-0.48 1.152,-0.9601 1.8,-1.4401 0.072,-0.84 0.192,-1.656 0.36,-2.4 -0.792,-0.216 -1.56,-0.312 -2.232,-0.312 z M 11.59,2.9839 c -0.72,0 -1.6322,1.248 -2.2322,3.408 0.7442,0.24 1.5122,0.528 2.3042,0.888 0.744,-0.336 1.464,-0.624 2.16,-0.84 -0.6,-2.208 -1.512,-3.456 -2.232,-3.456 z m 7.488,4.32 c -0.216,-0.36 -0.84,-0.552 -1.728,-0.552 -0.696,0 -1.512,0.12 -2.352,0.336 0.144,0.72 0.264,1.464 0.336,2.28 0.72,0.504 1.368,1.0081 1.944,1.5361 1.536,-1.5841 2.16,-2.9761 1.8,-3.6001 z"
           style="fill:#404040;fill-opacity:1;fill-rule:nonzero;stroke:none"
           transform="matrix(2.6516347,3.8744293e-7,-3.8753067e-7,-2.6385067,137.28,78.72)"
           clip-path="url(#clipPath6)"
           id="path8" />
      </g>
    </g>
    <g
       id="g9">
      <path
         id="path10"
         d="m 44.4,83.776 0.116,42.454 -4.56,0.02 -0.116,-42.462 z m 4.67,40.164 -6.803,13.7 -6.877,-13.66 z"
         style="fill:#404040;fill-opacity:1;fill-rule:nonzero;stroke:none"
         transform="matrix(1.3333333,0,0,-1.3333333,0,223.04)" />
    </g>
    <g
       id="g10">
      <path
         id="path11"
         d="m 39.724,83.848 76.476,0.132 -0.01,4.56 -76.474,-0.132 z m 74.206,-4.432 13.66,6.864 -13.69,6.816 z"
         style="fill:#404040;fill-opacity:1;fill-rule:nonzero;stroke:none"
         transform="matrix(1.3333333,0,0,-1.3333333,0,223.04)" />
    </g>
    <g
       id="g11">
      <path
         id="path12"
         d="m 43.56,111.11 c 5.497,-3 10.995,-6.01 15.053,-8.84 4.058,-2.832 6.065,-6.794 9.297,-8.153 3.232,-1.359 7.335,-2.21 10.095,0 2.759,2.21 4.914,10.253 6.464,13.263 1.549,3.01 1.933,3.79 2.833,4.8 0.9,1 1.402,1.15 2.568,1.22 1.166,0.06 2.317,-0.73 3.365,-1.76 1.048,-1.03 2.435,-2.61 4.516,-2.59 2.081,0.03 7.969,2.75 7.969,2.75 v 0 0 0"
         style="fill:none;stroke:#404040;stroke-width:4.56;stroke-linecap:butt;stroke-linejoin:miter;stroke-miterlimit:10;stroke-dasharray:none;stroke-opacity:1"
         transform="matrix(1.3333333,0,0,-1.3333333,0,223.04)" />
    </g>
    <g
       id="g12">
      <path
         id="path13"
         d="M 85.92,78.84 V 64.831 H 81.36 V 78.84 Z m 4.56,-11.729 -6.84,-13.68 -6.84,13.68 z"
         style="fill:#404040;fill-opacity:1;fill-rule:nonzero;stroke:none"
         transform="matrix(1.3333333,0,0,-1.3333333,0,223.04)"
         clip-path="url(#clipPath14)" />
    </g>
    <g
       id="g14">
      <path
         id="path15"
         d="M 57.96,50.52 V 22.174"
         style="fill:none;stroke:#404040;stroke-width:4.56;stroke-linecap:butt;stroke-linejoin:miter;stroke-miterlimit:10;stroke-dasharray:none;stroke-opacity:1"
         transform="matrix(1.3333333,0,0,-1.3333333,0,223.04)" />
    </g>
    <g
       id="g15">
      <path
         id="path16"
         d="M 69,35.88 V 24.541"
         style="fill:none;stroke:#404040;stroke-width:4.56;stroke-linecap:butt;stroke-linejoin:miter;stroke-miterlimit:10;stroke-dasharray:none;stroke-opacity:1"
         transform="matrix(1.3333333,0,0,-1.3333333,0,223.04)" />
    </g>
    <g
       id="g16">
      <path
         id="path17"
         d="M 78.36,42.12 V 22.277"
         style="fill:none;stroke:#404040;stroke-width:4.56;stroke-linecap:butt;stroke-linejoin:miter;stroke-miterlimit:10;stroke-dasharray:none;stroke-opacity:1"
         transform="matrix(1.3333333,0,0,-1.3333333,0,223.04)" />
    </g>
    <g
       id="g17">
      <path
         id="path18"
         d="M 87.24,28.68 V 23.011"
         style="fill:none;stroke:#404040;stroke-width:4.56;stroke-linecap:butt;stroke-linejoin:miter;stroke-miterlimit:10;stroke-dasharray:none;stroke-opacity:1"
         transform="matrix(1.3333333,0,0,-1.3333333,0,223.04)" />
    </g>
    <g
       id="g18">
      <path
         id="path19"
         d="M 95.64,27.24 V 21.571"
         style="fill:none;stroke:#404040;stroke-width:4.56;stroke-linecap:butt;stroke-linejoin:miter;stroke-miterlimit:10;stroke-dasharray:none;stroke-opacity:1"
         transform="matrix(1.3333333,0,0,-1.3333333,0,223.04)" />
    </g>
    <g
       id="g19">
      <path
         id="path20"
         d="m 44.4,19.936 0.116,42.458 -4.56,0.012 L 39.84,19.948 Z M 49.07,60.101 42.267,73.8 35.39,60.139 Z"
         style="fill:#404040;fill-opacity:1;fill-rule:nonzero;stroke:none"
         transform="matrix(1.3333333,0,0,-1.3333333,0,223.04)" />
    </g>
    <g
       id="g20">
      <path
         id="path21"
         d="M 39.724,19.768 116.2,19.9 116.19,24.46 39.716,24.328 Z m 74.206,-4.432 13.66,6.864 -13.69,6.816 z"
         style="fill:#404040;fill-opacity:1;fill-rule:nonzero;stroke:none"
         transform="matrix(1.3333333,0,0,-1.3333333,0,223.04)" />
    </g>
  </g>
</svg>
