<svg width="227" height="227" xmlns="http://www.w3.org/2000/svg" xmlns:xlink="http://www.w3.org/1999/xlink" overflow="hidden"><defs><clipPath id="clip0"><rect x="0" y="0" width="227" height="227"/></clipPath></defs><g clip-path="url(#clip0)"><rect x="0" y="0" width="227" height="227" fill="#FFFFFF"/><path d="M4.5 41.0007C4.5 20.8419 20.8419 4.5 41.0007 4.5L186.999 4.5C207.158 4.5 223.5 20.8419 223.5 41.0007L223.5 186.999C223.5 207.158 207.158 223.5 186.999 223.5L41.0007 223.5C20.8419 223.5 4.5 207.158 4.5 186.999Z" stroke="#000000" stroke-width="1.33431" stroke-miterlimit="8" fill="#F2F2F2" fill-rule="evenodd"/><path d="M124.5 126.456C124.5 122.062 128.062 118.5 132.456 118.5L188.544 118.5C192.938 118.5 196.5 122.062 196.5 126.456L196.5 181.544C196.5 185.938 192.938 189.5 188.544 189.5L132.456 189.5C128.062 189.5 124.5 185.938 124.5 181.544Z" stroke="#000000" stroke-width="3.0022" stroke-miterlimit="8" fill="#F2F2F2" fill-rule="evenodd"/><path d="M147.5 155C147.5 138.708 153.544 125.5 161 125.5 168.456 125.5 174.5 138.708 174.5 155 174.5 171.292 168.456 184.5 161 184.5 153.544 184.5 147.5 171.292 147.5 155Z" stroke="#000000" stroke-width="3.0022" stroke-miterlimit="8" fill="none" fill-rule="evenodd"/><path d="M153.956 142.397C168.686 134.133 183.538 132.622 187.13 139.024 190.722 145.425 181.693 157.315 166.963 165.579 152.232 173.844 137.38 175.355 133.788 168.953 130.196 162.552 139.226 150.662 153.956 142.397Z" stroke="#000000" stroke-width="3.0022" stroke-miterlimit="8" fill="none" fill-rule="evenodd"/><path d="M167.079 143.249C181.538 151.981 190.182 164.153 186.387 170.436 182.593 176.72 167.796 174.735 153.338 166.003 138.879 157.271 130.235 145.099 134.03 138.816 137.824 132.533 152.621 134.517 167.079 143.249Z" stroke="#000000" stroke-width="3.0022" stroke-miterlimit="8" fill="none" fill-rule="evenodd"/><path d="M154.5 155C154.5 151.962 157.186 149.5 160.5 149.5 163.814 149.5 166.5 151.962 166.5 155 166.5 158.038 163.814 160.5 160.5 160.5 157.186 160.5 154.5 158.038 154.5 155Z" stroke="#000000" stroke-width="3.0022" stroke-miterlimit="8" fill-rule="evenodd"/><path d="M189.333 107.5C189.425 107.5 189.5 107.575 189.5 107.667L189.5 118.333C189.5 118.425 189.425 118.5 189.333 118.5L188.667 118.5C188.575 118.5 188.5 118.425 188.5 118.333L188.5 107.667C188.5 107.575 188.575 107.5 188.667 107.5Z" stroke="#000000" stroke-width="3.0022" stroke-miterlimit="8" fill-rule="evenodd"/><path d="M177.333 107.5C177.425 107.5 177.5 107.575 177.5 107.667L177.5 118.333C177.5 118.425 177.425 118.5 177.333 118.5L176.667 118.5C176.575 118.5 176.5 118.425 176.5 118.333L176.5 107.667C176.5 107.575 176.575 107.5 176.667 107.5Z" stroke="#000000" stroke-width="3.0022" stroke-miterlimit="8" fill-rule="evenodd"/><path d="M166.333 107.5C166.425 107.5 166.5 107.575 166.5 107.667L166.5 118.333C166.5 118.425 166.425 118.5 166.333 118.5L165.667 118.5C165.575 118.5 165.5 118.425 165.5 118.333L165.5 107.667C165.5 107.575 165.575 107.5 165.667 107.5Z" stroke="#000000" stroke-width="3.0022" stroke-miterlimit="8" fill-rule="evenodd"/><path d="M155.333 107.5C155.425 107.5 155.5 107.575 155.5 107.667L155.5 118.333C155.5 118.425 155.425 118.5 155.333 118.5L154.667 118.5C154.575 118.5 154.5 118.425 154.5 118.333L154.5 107.667C154.5 107.575 154.575 107.5 154.667 107.5Z" stroke="#000000" stroke-width="3.0022" stroke-miterlimit="8" fill-rule="evenodd"/><path d="M143.333 107.5C143.425 107.5 143.5 107.575 143.5 107.667L143.5 118.333C143.5 118.425 143.425 118.5 143.333 118.5L142.667 118.5C142.575 118.5 142.5 118.425 142.5 118.333L142.5 107.667C142.5 107.575 142.575 107.5 142.667 107.5Z" stroke="#000000" stroke-width="3.0022" stroke-miterlimit="8" fill-rule="evenodd"/><path d="M132.333 107.5C132.425 107.5 132.5 107.575 132.5 107.667L132.5 118.333C132.5 118.425 132.425 118.5 132.333 118.5L131.667 118.5C131.575 118.5 131.5 118.425 131.5 118.333L131.5 107.667C131.5 107.575 131.575 107.5 131.667 107.5Z" stroke="#000000" stroke-width="3.0022" stroke-miterlimit="8" fill-rule="evenodd"/><path d="M189.333 189.5C189.425 189.5 189.5 189.575 189.5 189.667L189.5 200.333C189.5 200.425 189.425 200.5 189.333 200.5L188.667 200.5C188.575 200.5 188.5 200.425 188.5 200.333L188.5 189.667C188.5 189.575 188.575 189.5 188.667 189.5Z" stroke="#000000" stroke-width="3.0022" stroke-miterlimit="8" fill-rule="evenodd"/><path d="M177.333 189.5C177.425 189.5 177.5 189.575 177.5 189.667L177.5 200.333C177.5 200.425 177.425 200.5 177.333 200.5L176.667 200.5C176.575 200.5 176.5 200.425 176.5 200.333L176.5 189.667C176.5 189.575 176.575 189.5 176.667 189.5Z" stroke="#000000" stroke-width="3.0022" stroke-miterlimit="8" fill-rule="evenodd"/><path d="M166.333 189.5C166.425 189.5 166.5 189.575 166.5 189.667L166.5 200.333C166.5 200.425 166.425 200.5 166.333 200.5L165.667 200.5C165.575 200.5 165.5 200.425 165.5 200.333L165.5 189.667C165.5 189.575 165.575 189.5 165.667 189.5Z" stroke="#000000" stroke-width="3.0022" stroke-miterlimit="8" fill-rule="evenodd"/><path d="M155.333 189.5C155.425 189.5 155.5 189.575 155.5 189.667L155.5 200.333C155.5 200.425 155.425 200.5 155.333 200.5L154.667 200.5C154.575 200.5 154.5 200.425 154.5 200.333L154.5 189.667C154.5 189.575 154.575 189.5 154.667 189.5Z" stroke="#000000" stroke-width="3.0022" stroke-miterlimit="8" fill-rule="evenodd"/><path d="M143.333 189.5C143.425 189.5 143.5 189.575 143.5 189.667L143.5 200.333C143.5 200.425 143.425 200.5 143.333 200.5L142.667 200.5C142.575 200.5 142.5 200.425 142.5 200.333L142.5 189.667C142.5 189.575 142.575 189.5 142.667 189.5Z" stroke="#000000" stroke-width="3.0022" stroke-miterlimit="8" fill-rule="evenodd"/><path d="M132.333 189.5C132.425 189.5 132.5 189.575 132.5 189.667L132.5 200.333C132.5 200.425 132.425 200.5 132.333 200.5L131.667 200.5C131.575 200.5 131.5 200.425 131.5 200.333L131.5 189.667C131.5 189.575 131.575 189.5 131.667 189.5Z" stroke="#000000" stroke-width="3.0022" stroke-miterlimit="8" fill-rule="evenodd"/><path d="M196.5 125.667C196.5 125.575 196.575 125.5 196.667 125.5L206.333 125.5C206.425 125.5 206.5 125.575 206.5 125.667L206.5 126.333C206.5 126.425 206.425 126.5 206.333 126.5L196.667 126.5C196.575 126.5 196.5 126.425 196.5 126.333Z" stroke="#000000" stroke-width="3.0022" stroke-miterlimit="8" fill-rule="evenodd"/><path d="M196.5 137.667C196.5 137.575 196.575 137.5 196.667 137.5L206.333 137.5C206.425 137.5 206.5 137.575 206.5 137.667L206.5 138.333C206.5 138.425 206.425 138.5 206.333 138.5L196.667 138.5C196.575 138.5 196.5 138.425 196.5 138.333Z" stroke="#000000" stroke-width="3.0022" stroke-miterlimit="8" fill-rule="evenodd"/><path d="M196.5 148.667C196.5 148.575 196.575 148.5 196.667 148.5L206.333 148.5C206.425 148.5 206.5 148.575 206.5 148.667L206.5 149.333C206.5 149.425 206.425 149.5 206.333 149.5L196.667 149.5C196.575 149.5 196.5 149.425 196.5 149.333Z" stroke="#000000" stroke-width="3.0022" stroke-miterlimit="8" fill-rule="evenodd"/><path d="M196.5 160.667C196.5 160.575 196.575 160.5 196.667 160.5L206.333 160.5C206.425 160.5 206.5 160.575 206.5 160.667L206.5 161.333C206.5 161.425 206.425 161.5 206.333 161.5L196.667 161.5C196.575 161.5 196.5 161.425 196.5 161.333Z" stroke="#000000" stroke-width="3.0022" stroke-miterlimit="8" fill-rule="evenodd"/><path d="M196.5 172.667C196.5 172.575 196.575 172.5 196.667 172.5L206.333 172.5C206.425 172.5 206.5 172.575 206.5 172.667L206.5 173.333C206.5 173.425 206.425 173.5 206.333 173.5L196.667 173.5C196.575 173.5 196.5 173.425 196.5 173.333Z" stroke="#000000" stroke-width="3.0022" stroke-miterlimit="8" fill-rule="evenodd"/><path d="M196.5 183.667C196.5 183.575 196.575 183.5 196.667 183.5L206.333 183.5C206.425 183.5 206.5 183.575 206.5 183.667L206.5 184.333C206.5 184.425 206.425 184.5 206.333 184.5L196.667 184.5C196.575 184.5 196.5 184.425 196.5 184.333Z" stroke="#000000" stroke-width="3.0022" stroke-miterlimit="8" fill-rule="evenodd"/><path d="M113.5 124.667C113.5 124.575 113.575 124.5 113.667 124.5L124.333 124.5C124.425 124.5 124.5 124.575 124.5 124.667L124.5 125.333C124.5 125.425 124.425 125.5 124.333 125.5L113.667 125.5C113.575 125.5 113.5 125.425 113.5 125.333Z" stroke="#000000" stroke-width="3.0022" stroke-miterlimit="8" fill-rule="evenodd"/><path d="M113.5 136.667C113.5 136.575 113.575 136.5 113.667 136.5L124.333 136.5C124.425 136.5 124.5 136.575 124.5 136.667L124.5 137.333C124.5 137.425 124.425 137.5 124.333 137.5L113.667 137.5C113.575 137.5 113.5 137.425 113.5 137.333Z" stroke="#000000" stroke-width="3.0022" stroke-miterlimit="8" fill-rule="evenodd"/><path d="M113.5 148.667C113.5 148.575 113.575 148.5 113.667 148.5L124.333 148.5C124.425 148.5 124.5 148.575 124.5 148.667L124.5 149.333C124.5 149.425 124.425 149.5 124.333 149.5L113.667 149.5C113.575 149.5 113.5 149.425 113.5 149.333Z" stroke="#000000" stroke-width="3.0022" stroke-miterlimit="8" fill-rule="evenodd"/><path d="M113.5 159.667C113.5 159.575 113.575 159.5 113.667 159.5L124.333 159.5C124.425 159.5 124.5 159.575 124.5 159.667L124.5 160.333C124.5 160.425 124.425 160.5 124.333 160.5L113.667 160.5C113.575 160.5 113.5 160.425 113.5 160.333Z" stroke="#000000" stroke-width="3.0022" stroke-miterlimit="8" fill-rule="evenodd"/><path d="M113.5 171.667C113.5 171.575 113.575 171.5 113.667 171.5L124.333 171.5C124.425 171.5 124.5 171.575 124.5 171.667L124.5 172.333C124.5 172.425 124.425 172.5 124.333 172.5L113.667 172.5C113.575 172.5 113.5 172.425 113.5 172.333Z" stroke="#000000" stroke-width="3.0022" stroke-miterlimit="8" fill-rule="evenodd"/><path d="M113.5 183.667C113.5 183.575 113.575 183.5 113.667 183.5L124.333 183.5C124.425 183.5 124.5 183.575 124.5 183.667L124.5 184.333C124.5 184.425 124.425 184.5 124.333 184.5L113.667 184.5C113.575 184.5 113.5 184.425 113.5 184.333Z" stroke="#000000" stroke-width="3.0022" stroke-miterlimit="8" fill-rule="evenodd"/><path d="M20.5 30.5 114.061 30.5001" stroke="#000000" stroke-width="3.0022" stroke-miterlimit="8" fill="none" fill-rule="evenodd"/><path d="M21.5 61.5 113.445 61.5001" stroke="#000000" stroke-width="3.0022" stroke-miterlimit="8" fill="none" fill-rule="evenodd"/><path d="M0 0 0.000105064 40.6383" stroke="#000000" stroke-width="3.0022" stroke-miterlimit="8" fill="none" fill-rule="evenodd" transform="matrix(1 0 0 -1 44.5 71.1383)"/><path d="M34.5 61C34.5 55.201 38.9771 50.5 44.5 50.5 50.0228 50.5 54.5 55.201 54.5 61 54.5 66.7989 50.0228 71.5 44.5 71.5 38.9771 71.5 34.5 66.7989 34.5 61Z" stroke="#000000" stroke-width="3.0022" stroke-miterlimit="8" fill="none" fill-rule="evenodd"/><rect x="66.5" y="21.5" width="20.0001" height="20" stroke="#000000" stroke-width="3.0022" stroke-miterlimit="8" fill="#FFFFFF"/><text font-family="Calibri,Calibri_MSFontService,sans-serif" font-weight="700" font-size="13" transform="translate(71.3791 35)">U</text><path d="M58.9999 117.5 58.9999 151.25 86 151.25 86 144.5 99.5 158 86 171.5 86 164.75 45.4999 164.75 45.4999 117.5Z" stroke="#000000" stroke-width="3.0022" stroke-miterlimit="8" fill="#A6A6A6" fill-rule="evenodd"/><path d="M21.5 90.5 113.445 90.5002" stroke="#000000" stroke-width="3.0022" stroke-miterlimit="8" fill="none" fill-rule="evenodd"/><path d="M0 0 0.000105064 40.6383" stroke="#000000" stroke-width="3.0022" stroke-miterlimit="8" fill="none" fill-rule="evenodd" transform="matrix(1 0 0 -1 76.5001 101.138)"/><path d="M66.5 91C66.5 85.201 70.9771 80.5 76.5 80.5 82.0229 80.5 86.5 85.201 86.5 91 86.5 96.799 82.0229 101.5 76.5 101.5 70.9771 101.5 66.5 96.799 66.5 91Z" stroke="#000000" stroke-width="3.0022" stroke-miterlimit="8" fill="none" fill-rule="evenodd"/></g></svg>