<?xml version="1.0" encoding="UTF-8" standalone="no"?>
<svg
   width="227"
   height="227"
   overflow="hidden"
   version="1.1"
   id="svg58"
   xmlns="http://www.w3.org/2000/svg"
   xmlns:svg="http://www.w3.org/2000/svg">
  <defs
     id="defs3">
    <clipPath
       id="clip0">
      <rect
         x="0"
         y="0"
         width="227"
         height="227"
         id="rect1" />
    </clipPath>
    <clipPath
       id="clip1">
      <rect
         x="135"
         y="117"
         width="66"
         height="66"
         id="rect2" />
    </clipPath>
    <clipPath
       id="clip2">
      <rect
         x="135"
         y="117"
         width="66"
         height="66"
         id="rect3" />
    </clipPath>
  </defs>
  <g
     clip-path="url(#clip0)"
     id="g58">
    <path
       d="M 4.5,41.0007 C 4.5,20.8419 20.8419,4.5 41.0007,4.5 H 186.999 c 20.159,0 36.501,16.3419 36.501,36.5007 V 186.999 c 0,20.159 -16.342,36.501 -36.501,36.501 H 41.0007 C 20.8419,223.5 4.5,207.158 4.5,186.999 Z"
       stroke="#000000"
       stroke-width="1.33431"
       stroke-miterlimit="8"
       fill="#f2f2f2"
       fill-rule="evenodd"
       id="path4" />
    <g
       id="g10">
      <g
         id="g9">
        <g
           id="g8">
          <path
             d="m 57.5,23.9583 c 0,3.7049 -3.0035,6.7083 -6.7084,6.7083 -3.7049,0 -6.7083,-3.0034 -6.7083,-6.7083 0,-3.7049 3.0034,-6.7083 6.7083,-6.7083 3.7049,0 6.7084,3.0034 6.7084,6.7083 z"
             transform="translate(19,130)"
             id="path5" />
          <path
             d="m 34.5,64.2083 c 0,5.822 -4.7197,10.5416 -10.5417,10.5416 -5.822,0 -10.5416,-4.7196 -10.5416,-10.5416 0,-5.822 4.7196,-10.5417 10.5416,-10.5417 5.822,0 10.5417,4.7197 10.5417,10.5417 z"
             transform="translate(19,130)"
             id="path6" />
          <path
             d="m 78.5833,64.2083 c 0,5.822 -4.7197,10.5416 -10.5417,10.5416 -5.822,0 -10.5416,-4.7196 -10.5416,-10.5416 0,-5.822 4.7196,-10.5417 10.5416,-10.5417 5.822,0 10.5417,4.7197 10.5417,10.5417 z"
             transform="translate(19,130)"
             id="path7" />
          <path
             d="m 49.0666,46.7666 -4.7916,-0.4791 4.5041,-7.7625 10.2542,5.5583 c -0.0958,0.0958 -0.0958,0.1917 -0.1917,0.2875 l -8.05,4.5042 v -0.1917 c 0,-0.9583 -0.7666,-1.8208 -1.725,-1.9167 z m 18.975,4.025 c 1.8208,0 3.5458,0.3834 5.0792,1.0542 0.9583,-1.725 1.6291,-3.7375 1.6291,-5.8458 0,-6.325 -5.1749,-11.5 -11.4999,-11.5 -1.3417,0 -2.5875,0.2875 -3.8334,0.6708 0.4792,0.9583 0.7667,2.0125 0.8625,3.1625 L 47.3416,31.2416 C 47.15,31.1458 46.9583,31.05 46.7666,31.05 44.5625,30.1875 42.0708,30.9541 40.825,33.0625 l -6.7084,11.5 c -0.0958,0.1916 -0.1916,0.4791 -0.2875,0.6708 L 13.4167,43.125 v 3.8333 l 14.3749,4.4083 c 5.5584,1.6292 9.5834,6.8042 9.5834,12.8417 0,1.3417 -0.1917,2.5875 -0.575,3.8333 h 18.4 c -0.3834,-1.2458 -0.575,-2.4916 -0.575,-3.8333 0,-7.3792 6.0375,-13.4167 13.4166,-13.4167 z"
             transform="translate(19,130)"
             id="path8" />
        </g>
      </g>
    </g>
    <path
       d="M 83.5,32.4471 C 83.5,28.6103 86.6104,25.5 90.4471,25.5 h 48.1059 c 3.837,0 6.947,3.1103 6.947,6.9471 V 80.553 c 0,3.8367 -3.11,6.947 -6.947,6.947 H 90.4471 C 86.6104,87.5 83.5,84.3897 83.5,80.553 Z"
       stroke="#000000"
       stroke-width="3.0022"
       stroke-miterlimit="8"
       fill="#f2f2f2"
       fill-rule="evenodd"
       id="path10" />
    <path
       d="m 103.5,57 c 0,-14.0833 5.373,-25.5 12,-25.5 6.627,0 12,11.4167 12,25.5 0,14.0833 -5.373,25.5 -12,25.5 -6.627,0 -12,-11.4167 -12,-25.5 z"
       stroke="#000000"
       stroke-width="3.0022"
       stroke-miterlimit="8"
       fill="none"
       fill-rule="evenodd"
       id="path11" />
    <path
       d="m 109.084,46.2904 c 12.79,-7.176 25.686,-8.4875 28.805,-2.9293 3.118,5.5582 -4.722,15.8813 -17.511,23.0573 -12.79,7.176 -25.6861,8.4875 -28.8047,2.9293 -3.1186,-5.5582 4.7213,-15.8813 17.5107,-23.0573 z"
       stroke="#000000"
       stroke-width="3.0022"
       stroke-miterlimit="8"
       fill="none"
       fill-rule="evenodd"
       id="path12" />
    <path
       d="m 120.479,47.0299 c 12.554,7.5814 20.059,18.15 16.764,23.6056 -3.294,5.4556 -16.142,3.7323 -28.695,-3.8492 C 95.9941,59.2048 88.4885,48.6362 91.7833,43.1806 95.0781,37.725 107.926,39.4484 120.479,47.0299 Z"
       stroke="#000000"
       stroke-width="3.0022"
       stroke-miterlimit="8"
       fill="none"
       fill-rule="evenodd"
       id="path13" />
    <path
       d="m 109.5,57 c 0,-2.4853 2.462,-4.5 5.5,-4.5 3.038,0 5.5,2.0147 5.5,4.5 0,2.4852 -2.462,4.5 -5.5,4.5 -3.038,0 -5.5,-2.0148 -5.5,-4.5 z"
       stroke="#000000"
       stroke-width="3.0022"
       stroke-miterlimit="8"
       fill-rule="evenodd"
       id="path14" />
    <path
       d="m 139.333,15.5 c 0.092,0 0.167,0.0746 0.167,0.1667 v 9.6666 c 0,0.0921 -0.075,0.1667 -0.167,0.1667 h -0.666 c -0.092,0 -0.167,-0.0746 -0.167,-0.1667 v -9.6666 c 0,-0.0921 0.075,-0.1667 0.167,-0.1667 z"
       stroke="#000000"
       stroke-width="3.0022"
       stroke-miterlimit="8"
       fill-rule="evenodd"
       id="path15" />
    <path
       d="m 129.333,15.5 c 0.092,0 0.167,0.0746 0.167,0.1667 v 9.6666 c 0,0.0921 -0.075,0.1667 -0.167,0.1667 h -0.666 c -0.092,0 -0.167,-0.0746 -0.167,-0.1667 v -9.6666 c 0,-0.0921 0.075,-0.1667 0.167,-0.1667 z"
       stroke="#000000"
       stroke-width="3.0022"
       stroke-miterlimit="8"
       fill-rule="evenodd"
       id="path16" />
    <path
       d="m 120.333,15.5 c 0.092,0 0.167,0.0746 0.167,0.1667 v 9.6666 c 0,0.0921 -0.075,0.1667 -0.167,0.1667 h -0.666 c -0.092,0 -0.167,-0.0746 -0.167,-0.1667 v -9.6666 c 0,-0.0921 0.075,-0.1667 0.167,-0.1667 z"
       stroke="#000000"
       stroke-width="3.0022"
       stroke-miterlimit="8"
       fill-rule="evenodd"
       id="path17" />
    <path
       d="m 110.333,15.5 c 0.092,0 0.167,0.0746 0.167,0.1667 v 9.6666 c 0,0.0921 -0.075,0.1667 -0.167,0.1667 h -0.666 c -0.092,0 -0.167,-0.0746 -0.167,-0.1667 v -9.6666 c 0,-0.0921 0.075,-0.1667 0.167,-0.1667 z"
       stroke="#000000"
       stroke-width="3.0022"
       stroke-miterlimit="8"
       fill-rule="evenodd"
       id="path18" />
    <path
       d="m 100.333,15.5 c 0.092,0 0.167,0.0746 0.167,0.1667 v 9.6666 c 0,0.0921 -0.075,0.1667 -0.167,0.1667 H 99.6667 C 99.5747,25.5 99.5,25.4254 99.5,25.3333 V 15.6667 C 99.5,15.5746 99.5747,15.5 99.6667,15.5 Z"
       stroke="#000000"
       stroke-width="3.0022"
       stroke-miterlimit="8"
       fill-rule="evenodd"
       id="path19" />
    <path
       d="m 90.3334,15.5 c 0.092,0 0.1666,0.0746 0.1666,0.1667 v 9.6666 C 90.5,25.4254 90.4254,25.5 90.3334,25.5 H 89.6667 C 89.5747,25.5 89.5,25.4254 89.5,25.3333 V 15.6667 C 89.5,15.5746 89.5747,15.5 89.6667,15.5 Z"
       stroke="#000000"
       stroke-width="3.0022"
       stroke-miterlimit="8"
       fill-rule="evenodd"
       id="path20" />
    <path
       d="m 139.333,87.5 c 0.092,0 0.167,0.0747 0.167,0.1667 v 9.6667 c 0,0.092 -0.075,0.1666 -0.167,0.1666 h -0.666 c -0.092,0 -0.167,-0.0746 -0.167,-0.1666 v -9.6667 c 0,-0.092 0.075,-0.1667 0.167,-0.1667 z"
       stroke="#000000"
       stroke-width="3.0022"
       stroke-miterlimit="8"
       fill-rule="evenodd"
       id="path21" />
    <path
       d="m 129.333,87.5 c 0.092,0 0.167,0.0747 0.167,0.1667 v 9.6667 c 0,0.092 -0.075,0.1666 -0.167,0.1666 h -0.666 c -0.092,0 -0.167,-0.0746 -0.167,-0.1666 v -9.6667 c 0,-0.092 0.075,-0.1667 0.167,-0.1667 z"
       stroke="#000000"
       stroke-width="3.0022"
       stroke-miterlimit="8"
       fill-rule="evenodd"
       id="path22" />
    <path
       d="m 120.333,87.5 c 0.092,0 0.167,0.0747 0.167,0.1667 v 9.6667 c 0,0.092 -0.075,0.1666 -0.167,0.1666 h -0.666 c -0.092,0 -0.167,-0.0746 -0.167,-0.1666 v -9.6667 c 0,-0.092 0.075,-0.1667 0.167,-0.1667 z"
       stroke="#000000"
       stroke-width="3.0022"
       stroke-miterlimit="8"
       fill-rule="evenodd"
       id="path23" />
    <path
       d="m 110.333,87.5 c 0.092,0 0.167,0.0747 0.167,0.1667 v 9.6667 c 0,0.092 -0.075,0.1666 -0.167,0.1666 h -0.666 c -0.092,0 -0.167,-0.0746 -0.167,-0.1666 v -9.6667 c 0,-0.092 0.075,-0.1667 0.167,-0.1667 z"
       stroke="#000000"
       stroke-width="3.0022"
       stroke-miterlimit="8"
       fill-rule="evenodd"
       id="path24" />
    <path
       d="m 100.333,87.5 c 0.092,0 0.167,0.0747 0.167,0.1667 v 9.6667 c 0,0.092 -0.075,0.1666 -0.167,0.1666 H 99.6667 C 99.5747,97.5 99.5,97.4254 99.5,97.3334 v -9.6667 c 0,-0.092 0.0747,-0.1667 0.1667,-0.1667 z"
       stroke="#000000"
       stroke-width="3.0022"
       stroke-miterlimit="8"
       fill-rule="evenodd"
       id="path25" />
    <path
       d="m 90.3334,87.5 c 0.092,0 0.1666,0.0747 0.1666,0.1667 v 9.6667 c 0,0.092 -0.0746,0.1666 -0.1666,0.1666 H 89.6667 C 89.5747,97.5 89.5,97.4254 89.5,97.3334 v -9.6667 c 0,-0.092 0.0747,-0.1667 0.1667,-0.1667 z"
       stroke="#000000"
       stroke-width="3.0022"
       stroke-miterlimit="8"
       fill-rule="evenodd"
       id="path26" />
    <path
       d="m 145.5,31.6666 c 0,-0.092 0.075,-0.1666 0.167,-0.1666 h 9.666 c 0.092,0 0.167,0.0746 0.167,0.1666 v 0.6667 c 0,0.0921 -0.075,0.1667 -0.167,0.1667 h -9.666 c -0.092,0 -0.167,-0.0746 -0.167,-0.1667 z"
       stroke="#000000"
       stroke-width="3.0022"
       stroke-miterlimit="8"
       fill-rule="evenodd"
       id="path27" />
    <path
       d="m 145.5,42.6666 c 0,-0.092 0.075,-0.1666 0.167,-0.1666 h 9.666 c 0.092,0 0.167,0.0746 0.167,0.1666 v 0.6667 c 0,0.0921 -0.075,0.1667 -0.167,0.1667 h -9.666 c -0.092,0 -0.167,-0.0746 -0.167,-0.1667 z"
       stroke="#000000"
       stroke-width="3.0022"
       stroke-miterlimit="8"
       fill-rule="evenodd"
       id="path28" />
    <path
       d="m 145.5,51.6666 c 0,-0.092 0.075,-0.1666 0.167,-0.1666 h 9.666 c 0.092,0 0.167,0.0746 0.167,0.1666 v 0.6667 c 0,0.092 -0.075,0.1667 -0.167,0.1667 h -9.666 c -0.092,0 -0.167,-0.0747 -0.167,-0.1667 z"
       stroke="#000000"
       stroke-width="3.0022"
       stroke-miterlimit="8"
       fill-rule="evenodd"
       id="path29" />
    <path
       d="m 145.5,62.6666 c 0,-0.092 0.075,-0.1666 0.167,-0.1666 h 9.666 c 0.092,0 0.167,0.0746 0.167,0.1666 v 0.6667 c 0,0.092 -0.075,0.1667 -0.167,0.1667 h -9.666 c -0.092,0 -0.167,-0.0747 -0.167,-0.1667 z"
       stroke="#000000"
       stroke-width="3.0022"
       stroke-miterlimit="8"
       fill-rule="evenodd"
       id="path30" />
    <path
       d="m 145.5,72.6666 c 0,-0.092 0.075,-0.1667 0.167,-0.1667 h 9.666 c 0.092,0 0.167,0.0747 0.167,0.1667 v 0.6667 c 0,0.092 -0.075,0.1666 -0.167,0.1666 h -9.666 c -0.092,0 -0.167,-0.0746 -0.167,-0.1666 z"
       stroke="#000000"
       stroke-width="3.0022"
       stroke-miterlimit="8"
       fill-rule="evenodd"
       id="path31" />
    <path
       d="m 145.5,82.6667 c 0,-0.092 0.075,-0.1667 0.167,-0.1667 h 9.666 c 0.092,0 0.167,0.0747 0.167,0.1667 v 0.6667 c 0,0.092 -0.075,0.1666 -0.167,0.1666 h -9.666 c -0.092,0 -0.167,-0.0746 -0.167,-0.1666 z"
       stroke="#000000"
       stroke-width="3.0022"
       stroke-miterlimit="8"
       fill-rule="evenodd"
       id="path32" />
    <path
       d="m 73.4999,31.6666 c 0,-0.092 0.0747,-0.1666 0.1667,-0.1666 h 9.6668 c 0.092,0 0.1666,0.0746 0.1666,0.1666 v 0.6667 c 0,0.0921 -0.0746,0.1667 -0.1666,0.1667 h -9.6668 c -0.092,0 -0.1667,-0.0746 -0.1667,-0.1667 z"
       stroke="#000000"
       stroke-width="3.0022"
       stroke-miterlimit="8"
       fill-rule="evenodd"
       id="path33" />
    <path
       d="m 73.4999,41.6666 c 0,-0.092 0.0747,-0.1666 0.1667,-0.1666 h 9.6668 c 0.092,0 0.1666,0.0746 0.1666,0.1666 v 0.6667 c 0,0.0921 -0.0746,0.1667 -0.1666,0.1667 h -9.6668 c -0.092,0 -0.1667,-0.0746 -0.1667,-0.1667 z"
       stroke="#000000"
       stroke-width="3.0022"
       stroke-miterlimit="8"
       fill-rule="evenodd"
       id="path34" />
    <path
       d="m 73.4999,51.6666 c 0,-0.092 0.0747,-0.1666 0.1667,-0.1666 h 9.6668 c 0.092,0 0.1666,0.0746 0.1666,0.1666 v 0.6667 c 0,0.092 -0.0746,0.1667 -0.1666,0.1667 h -9.6668 c -0.092,0 -0.1667,-0.0747 -0.1667,-0.1667 z"
       stroke="#000000"
       stroke-width="3.0022"
       stroke-miterlimit="8"
       fill-rule="evenodd"
       id="path35" />
    <path
       d="m 73.4999,61.6666 c 0,-0.092 0.0747,-0.1666 0.1667,-0.1666 h 9.6668 c 0.092,0 0.1666,0.0746 0.1666,0.1666 v 0.6667 c 0,0.092 -0.0746,0.1667 -0.1666,0.1667 h -9.6668 c -0.092,0 -0.1667,-0.0747 -0.1667,-0.1667 z"
       stroke="#000000"
       stroke-width="3.0022"
       stroke-miterlimit="8"
       fill-rule="evenodd"
       id="path36" />
    <path
       d="m 73.4999,71.6666 c 0,-0.092 0.0747,-0.1667 0.1667,-0.1667 h 9.6668 c 0.092,0 0.1666,0.0747 0.1666,0.1667 v 0.6667 c 0,0.092 -0.0746,0.1666 -0.1666,0.1666 h -9.6668 c -0.092,0 -0.1667,-0.0746 -0.1667,-0.1666 z"
       stroke="#000000"
       stroke-width="3.0022"
       stroke-miterlimit="8"
       fill-rule="evenodd"
       id="path37" />
    <path
       d="m 73.4999,81.6667 c 0,-0.092 0.0747,-0.1667 0.1667,-0.1667 h 9.6668 c 0.092,0 0.1666,0.0747 0.1666,0.1667 v 0.6667 c 0,0.092 -0.0746,0.1666 -0.1666,0.1666 h -9.6668 c -0.092,0 -0.1667,-0.0746 -0.1667,-0.1666 z"
       stroke="#000000"
       stroke-width="3.0022"
       stroke-miterlimit="8"
       fill-rule="evenodd"
       id="path38" />
    <path
       d="M 0,0 1.05064e-4,107.637"
       stroke="#000000"
       stroke-width="2.00147"
       stroke-miterlimit="8"
       stroke-dasharray="8.00588, 6.00441"
       fill="none"
       fill-rule="evenodd"
       transform="matrix(1,0,0,-1,114,206.637)"
       id="path39" />
    <path
       d="M 161.25,130.5 V 116 H 155.5 L 167,104.5 178.5,116 h -5.75 v 14.5 z"
       stroke="#000000"
       stroke-width="1.33431"
       stroke-miterlimit="8"
       fill-rule="evenodd"
       id="path40" />
    <path
       d="m 63,130.5 v -15 h -5.5 l 11,-11 11,11 H 74 v 15 z"
       stroke="#000000"
       stroke-width="1.33431"
       stroke-miterlimit="8"
       fill-rule="evenodd"
       id="path41" />
    <g
       clip-path="url(#clip1)"
       id="g42">
      <g
         clip-path="url(#clip2)"
         id="g41" />
    </g>
    <g
       id="g45">
      <g
         id="g44">
        <g
           id="g43">
          <path
             d="m 157.5,143.563 c 0,3.037 -2.462,5.499 -5.5,5.499 -3.038,0 -5.5,-2.462 -5.5,-5.499 0,-3.038 2.462,-5.5 5.5,-5.5 3.038,0 5.5,2.462 5.5,5.5 z"
             fill="#7f7f7f"
             id="path42" />
          <path
             d="m 166.987,171.887 -3.85,-16.362 c -0.137,-0.55 -0.412,-1.1 -0.825,-1.513 -1.65,-1.374 -3.575,-2.337 -5.775,-3.024 -1.512,-0.275 -3.025,-0.55 -4.537,-0.55 -1.512,0 -3.025,0.275 -4.537,0.687 -2.2,0.55 -4.125,1.65 -5.775,3.025 -0.413,0.412 -0.688,0.963 -0.825,1.513 l -3.85,16.362 c 0,0.137 -0.138,0.412 -0.138,0.687 0,1.513 1.238,2.75 2.75,2.75 1.238,0 2.338,-0.962 2.613,-2.062 l 2.887,-11.962 v 38.499 h 5.5 v -24.75 h 2.75 v 24.75 h 5.5 V 161.3 l 2.887,11.962 c 0.275,1.1 1.375,2.063 2.613,2.063 1.512,0 2.75,-1.238 2.75,-2.75 0,-0.275 -0.138,-0.55 -0.138,-0.688 z"
             fill="#7f7f7f"
             id="path43" />
        </g>
      </g>
    </g>
    <g
       id="g48">
      <g
         id="g47">
        <g
           id="g46">
          <path
             d="m 38.5,7.56249 c 0,3.03761 -2.4625,5.50001 -5.5,5.50001 -3.0376,0 -5.5,-2.4624 -5.5,-5.50001 0,-3.03756 2.4624,-5.49999 5.5,-5.49999 3.0375,0 5.5,2.46243 5.5,5.49999 z"
             fill="#7f7f7f"
             transform="matrix(1.01515,0,0,1,149,135)"
             id="path45" />
          <path
             d="m 47.9875,35.8875 -3.85,-16.3625 c -0.1375,-0.55 -0.4125,-1.1 -0.825,-1.5125 -1.65,-1.375 -3.575,-2.3375 -5.775,-3.025 -1.5125,-0.275 -3.025,-0.55 -4.5375,-0.55 -1.5125,0 -3.025,0.275 -4.5375,0.6875 -2.2,0.55 -4.125,1.65 -5.775,3.025 -0.4125,0.4125 -0.6875,0.9625 -0.825,1.5125 l -3.85,16.3625 c 0,0.1375 -0.1375,0.4125 -0.1375,0.6875 0,1.5125 1.2375,2.75 2.75,2.75 1.2375,0 2.3375,-0.9625 2.6125,-2.0625 L 26.125,25.4375 v 38.5 h 5.5 v -24.75 h 2.75 v 24.75 h 5.5 V 25.3 l 2.8875,11.9625 c 0.275,1.1 1.375,2.0625 2.6125,2.0625 1.5125,0 2.75,-1.2375 2.75,-2.75 0,-0.275 -0.1375,-0.55 -0.1375,-0.6875 z"
             fill="#7f7f7f"
             transform="matrix(1.01515,0,0,1,149,135)"
             id="path46" />
        </g>
      </g>
    </g>
    <g
       id="g51">
      <g
         id="g50">
        <g
           id="g49">
          <path
             d="m 38.5,7.56249 c 0,3.03761 -2.4625,5.50001 -5.5,5.50001 -3.0376,0 -5.5,-2.4624 -5.5,-5.50001 0,-3.03756 2.4624,-5.49999 5.5,-5.49999 3.0375,0 5.5,2.46243 5.5,5.49999 z"
             fill="#0d0d0d"
             transform="matrix(1.01515,0,0,1,103,142)"
             id="path48" />
          <path
             d="m 47.9875,35.8875 -3.85,-16.3625 c -0.1375,-0.55 -0.4125,-1.1 -0.825,-1.5125 -1.65,-1.375 -3.575,-2.3375 -5.775,-3.025 -1.5125,-0.275 -3.025,-0.55 -4.5375,-0.55 -1.5125,0 -3.025,0.275 -4.5375,0.6875 -2.2,0.55 -4.125,1.65 -5.775,3.025 -0.4125,0.4125 -0.6875,0.9625 -0.825,1.5125 l -3.85,16.3625 c 0,0.1375 -0.1375,0.4125 -0.1375,0.6875 0,1.5125 1.2375,2.75 2.75,2.75 1.2375,0 2.3375,-0.9625 2.6125,-2.0625 L 26.125,25.4375 v 38.5 h 5.5 v -24.75 h 2.75 v 24.75 h 5.5 V 25.3 l 2.8875,11.9625 c 0.275,1.1 1.375,2.0625 2.6125,2.0625 1.5125,0 2.75,-1.2375 2.75,-2.75 0,-0.275 -0.1375,-0.55 -0.1375,-0.6875 z"
             fill="#0d0d0d"
             transform="matrix(1.01515,0,0,1,103,142)"
             id="path49" />
        </g>
      </g>
    </g>
    <g
       id="g54">
      <g
         id="g53">
        <g
           id="g52">
          <path
             d="m 172.5,149.562 c 0,3.038 -2.462,5.5 -5.5,5.5 -3.038,0 -5.5,-2.462 -5.5,-5.5 0,-3.037 2.462,-5.5 5.5,-5.5 3.038,0 5.5,2.463 5.5,5.5 z"
             fill="#0d0d0d"
             id="path51" />
          <path
             d="m 181.987,177.887 -3.85,-16.362 c -0.137,-0.55 -0.412,-1.1 -0.825,-1.513 -1.65,-1.375 -3.575,-2.337 -5.775,-3.025 -1.512,-0.275 -3.025,-0.55 -4.537,-0.55 -1.513,0 -3.025,0.275 -4.538,0.688 -2.2,0.55 -4.125,1.65 -5.774,3.025 -0.413,0.412 -0.688,0.962 -0.825,1.512 l -3.851,16.363 c 0,0.137 -0.137,0.412 -0.137,0.687 0,1.513 1.238,2.75 2.75,2.75 1.238,0 2.337,-0.962 2.613,-2.062 l 2.887,-11.963 v 38.5 h 5.5 v -24.75 h 2.75 v 24.75 h 5.5 V 167.3 l 2.887,11.962 c 0.275,1.1 1.375,2.063 2.613,2.063 1.512,0 2.75,-1.238 2.75,-2.75 0,-0.275 -0.138,-0.55 -0.138,-0.688 z"
             fill="#0d0d0d"
             id="path52" />
        </g>
      </g>
    </g>
    <g
       id="g57">
      <g
         id="g56">
        <g
           id="g55">
          <path
             d="m 38.5,7.56249 c 0,3.03761 -2.4625,5.50001 -5.5,5.50001 -3.0376,0 -5.5,-2.4624 -5.5,-5.50001 0,-3.03756 2.4624,-5.49999 5.5,-5.49999 3.0375,0 5.5,2.46243 5.5,5.49999 z"
             fill="#0d0d0d"
             transform="translate(165,142)"
             id="path54" />
          <path
             d="m 47.9875,35.8875 -3.85,-16.3625 c -0.1375,-0.55 -0.4125,-1.1 -0.825,-1.5125 -1.65,-1.375 -3.575,-2.3375 -5.775,-3.025 -1.5125,-0.275 -3.025,-0.55 -4.5375,-0.55 -1.5125,0 -3.025,0.275 -4.5375,0.6875 -2.2,0.55 -4.125,1.65 -5.775,3.025 -0.4125,0.4125 -0.6875,0.9625 -0.825,1.5125 l -3.85,16.3625 c 0,0.1375 -0.1375,0.4125 -0.1375,0.6875 0,1.5125 1.2375,2.75 2.75,2.75 1.2375,0 2.3375,-0.9625 2.6125,-2.0625 L 26.125,25.4375 v 38.5 h 5.5 v -24.75 h 2.75 v 24.75 h 5.5 V 25.3 l 2.8875,11.9625 c 0.275,1.1 1.375,2.0625 2.6125,2.0625 1.5125,0 2.75,-1.2375 2.75,-2.75 0,-0.275 -0.1375,-0.55 -0.1375,-0.6875 z"
             fill="#0d0d0d"
             transform="translate(165,142)"
             id="path55" />
        </g>
      </g>
    </g>
  </g>
</svg>
