<?xml version="1.0" encoding="UTF-8" standalone="no"?>
<svg
   width="205.34933"
   height="205.34933"
   overflow="hidden"
   version="1.1"
   id="svg480"
   sodipodi:docname="quantum_clustering-thin.svg"
   inkscape:version="1.2.2 (732a01da63, 2022-12-09)"
   xmlns:inkscape="http://www.inkscape.org/namespaces/inkscape"
   xmlns:sodipodi="http://sodipodi.sourceforge.net/DTD/sodipodi-0.dtd"
   xmlns="http://www.w3.org/2000/svg"
   xmlns:svg="http://www.w3.org/2000/svg">
  <defs
     id="defs484">
    <clipPath
       clipPathUnits="userSpaceOnUse"
       id="clipEmfPath1">
      <path
         d="M 4.4797673,4.4797673 H 210.06909 V 209.9091 H 4.4797673 Z"
         id="path904" />
    </clipPath>
    <clipPath
       clipPathUnits="userSpaceOnUse"
       id="clipEmfPath2">
      <path
         d="M 126.71342,6.0796842 H 210.06909 V 89.435355 H 126.71342 Z"
         id="path907" />
    </clipPath>
    <pattern
       id="EMFhbasepattern"
       patternUnits="userSpaceOnUse"
       width="6"
       height="6"
       x="0"
       y="0" />
  </defs>
  <sodipodi:namedview
     id="namedview482"
     pagecolor="#ffffff"
     bordercolor="#000000"
     borderopacity="0.25"
     inkscape:showpageshadow="2"
     inkscape:pageopacity="0.0"
     inkscape:pagecheckerboard="0"
     inkscape:deskcolor="#d1d1d1"
     showgrid="false"
     inkscape:zoom="1.4966565"
     inkscape:cx="170.0457"
     inkscape:cy="148.66471"
     inkscape:window-width="1920"
     inkscape:window-height="1111"
     inkscape:window-x="-9"
     inkscape:window-y="-9"
     inkscape:window-maximized="1"
     inkscape:current-layer="g478" />
  <g
     id="g478"
     transform="translate(-11.720716,-15.388872)">
    <path
       style="fill:#f2f2f2;fill-opacity:1;fill-rule:evenodd;stroke:none"
       d="M 12.280687,49.977076 C 12.280687,31.188052 27.519896,15.948843 46.308915,15.948843 H 182.41184 C 201.20088,15.948843 216.43008,31.188052 216.43008,49.977076 V 186.08 C 216.43008,204.86904 201.20088,220.09824 182.41184,220.09824 H 46.308915 C 27.519896,220.09824 12.280687,204.86904 12.280687,186.08 Z"
       id="path913" />
    <path
       style="fill:none;stroke:#000000;stroke-width:1.27993px;stroke-linecap:butt;stroke-linejoin:miter;stroke-miterlimit:8;stroke-dasharray:none;stroke-opacity:1"
       clip-path="url(#clipEmfPath1)"
       d="M 5.0397382,39.067971 C 5.0397382,20.278947 20.278947,5.0397382 39.067971,5.0397382 H 175.1709 C 193.95993,5.0397382 209.18913,20.278947 209.18913,39.067971 V 175.1709 C 209.18913,193.95993 193.95993,209.18913 175.1709,209.18913 H 39.067971 C 20.278947,209.18913 5.0397382,193.95993 5.0397382,175.1709 Z"
       id="path915"
       transform="translate(7.2409487,10.909105)" />
    <path
       style="fill:#404040;fill-opacity:1;fill-rule:nonzero;stroke:#404040;stroke-width:0.00999948px;stroke-linecap:butt;stroke-linejoin:round;stroke-miterlimit:10;stroke-dasharray:none;stroke-opacity:1"
       d="M 33.399585,200.58925 33.639575,40.217583 H 32.359644 L 32.119657,200.58925 Z M 36.999405,41.557513 33.009615,33.547929 28.999819,41.547514 Z"
       id="path917" />
    <path
       style="fill:#404040;fill-opacity:1;fill-rule:nonzero;stroke:#404040;stroke-width:0.00999948px;stroke-linecap:butt;stroke-linejoin:round;stroke-miterlimit:10;stroke-dasharray:none;stroke-opacity:1"
       d="M 25.250014,192.75965 190.57142,192.27968 V 190.99976 L 25.240014,191.47972 Z M 189.25149,195.6495 197.23107,191.61971 189.22149,187.64993 Z"
       id="path919" />
    <path
       style="fill:#ffffff;fill-opacity:1;fill-rule:evenodd;stroke:none"
       d="M 53.128565,112.65382 C 60.888165,110.52393 70.877645,122.27332 75.447405,138.88245 80.007165,155.50159 77.427305,170.7008 69.677705,172.8307 61.918105,174.96058 51.928625,163.2212 47.368865,146.60205 42.799105,129.98292 45.378965,114.79371 53.128565,112.65382 Z"
       id="path921" />
    <path
       style="fill:none;stroke:#404040;stroke-width:1.32993px;stroke-linecap:butt;stroke-linejoin:miter;stroke-miterlimit:8;stroke-dasharray:none;stroke-opacity:1"
       d="M 53.128565,112.65382 C 60.888165,110.52393 70.877645,122.27332 75.447405,138.88245 80.007165,155.50159 77.427305,170.7008 69.677705,172.8307 61.918105,174.96058 51.928625,163.2212 47.368865,146.60205 42.799105,129.98292 45.378965,114.79371 53.128565,112.65382"
       id="path923" />
    <path
       style="fill:#ffffff;fill-opacity:1;fill-rule:evenodd;stroke:none"
       d="M 127.92467,119.36347 C 152.08342,112.71381 175.54221,121.43336 180.32195,138.81246 185.1017,156.20155 169.39252,175.68055 145.23377,182.32021 121.07503,188.95985 97.616255,180.2503 92.836505,162.86122 88.056755,145.48212 103.76593,126.00312 127.92467,119.36347 Z"
       id="path925" />
    <path
       style="fill:none;stroke:#404040;stroke-width:1.32993px;stroke-linecap:butt;stroke-linejoin:miter;stroke-miterlimit:8;stroke-dasharray:none;stroke-opacity:1"
       d="M 127.92467,119.36347 C 152.08342,112.71381 175.54221,121.43336 180.32195,138.81246 185.1017,156.20155 169.39252,175.68055 145.23377,182.32021 121.07503,188.95985 97.616255,180.2503 92.836505,162.86122 88.056755,145.48212 103.76593,126.00312 127.92467,119.36347"
       id="path927" />
    <path
       style="fill:#ffffff;fill-opacity:1;fill-rule:nonzero;stroke:none"
       d="M 131.94446,157.00151 C 131.75447,157.06151 131.60448,157.09152 131.48449,157.11151 131.36449,157.12152 131.2745,157.12152 131.2145,157.10151 131.1545,157.07151 131.11451,157.03151 131.11451,156.97151 131.10451,156.91152 131.10451,156.84153 131.13451,156.74153 L 133.1844,146.60205 C 133.19441,146.52206 133.27439,146.43207 133.40439,146.35207 133.53438,146.26207 133.73437,146.18207 134.00436,146.11208 134.12435,146.07209 134.24434,146.05208 134.34434,146.03209 134.45433,146.01208 134.54433,146.01208 134.62432,146.02208 134.69432,146.02208 134.76432,146.04208 134.82431,146.06209 134.88432,146.08208 134.92431,146.11208 134.95431,146.15208 L 141.86395,153.79168 C 141.99394,153.94167 142.02394,154.06166 141.95394,154.15166 141.88395,154.24166 141.66397,154.33165 141.31398,154.43165 141.09399,154.49164 140.914,154.53164 140.784,154.55164 140.65402,154.58164 140.54402,154.59164 140.46403,154.58164 140.37404,154.58164 140.30403,154.56164 140.25404,154.52164 140.19403,154.48164 140.13404,154.42166 140.06405,154.35166 L 134.50433,148.05198 132.98441,156.24155 C 132.96441,156.36155 132.93441,156.45154 132.91441,156.51154 132.88441,156.58153 132.83442,156.64153 132.76443,156.69154 132.69442,156.75154 132.59443,156.79152 132.46444,156.84153 132.33445,156.89152 132.16445,156.94152 131.94446,157.00151 Z"
       id="path929" />
    <path
       style="fill:#ffffff;fill-opacity:1;fill-rule:evenodd;stroke:none"
       d="M 76.897335,58.856617 C 90.586615,43.107433 111.9655,39.277632 124.63484,50.297059 137.30419,61.316487 136.47424,83.015357 122.78494,98.754537 109.09565,114.50373 87.716765,118.33352 75.047425,107.3141 62.378085,96.294667 63.208045,74.595797 76.897335,58.856617 Z"
       id="path931" />
    <path
       style="fill:none;stroke:#404040;stroke-width:1.32993px;stroke-linecap:butt;stroke-linejoin:miter;stroke-miterlimit:8;stroke-dasharray:none;stroke-opacity:1"
       d="M 76.897335,58.856617 C 90.586615,43.107433 111.9655,39.277632 124.63484,50.297059 137.30419,61.316487 136.47424,83.015357 122.78494,98.754537 109.09565,114.50373 87.716765,118.33352 75.047425,107.3141 62.378085,96.294667 63.208045,74.595797 76.897335,58.856617"
       id="path933" />
    <path
       style="fill:#404040;fill-opacity:1;fill-rule:evenodd;stroke:none"
       d="M 162.35289,149.4619 C 162.35289,146.77205 164.54277,144.58216 167.23264,144.58216 169.9325,144.58216 172.11239,146.77205 172.11239,149.4619 172.11239,152.16176 169.9325,154.34165 167.23264,154.34165 164.54277,154.34165 162.35289,152.16176 162.35289,149.4619 Z"
       id="path935" />
    <path
       style="fill:none;stroke:#404040;stroke-width:1.27993px;stroke-linecap:butt;stroke-linejoin:miter;stroke-miterlimit:8;stroke-dasharray:none;stroke-opacity:1"
       d="M 162.35289,149.4619 C 162.35289,146.77205 164.54277,144.58216 167.23264,144.58216 169.9325,144.58216 172.11239,146.77205 172.11239,149.4619 172.11239,152.16176 169.9325,154.34165 167.23264,154.34165 164.54277,154.34165 162.35289,152.16176 162.35289,149.4619"
       id="path937" />
    <path
       style="fill:#404040;fill-opacity:1;fill-rule:evenodd;stroke:none"
       d="M 151.63345,168.10095 C 151.63345,165.45107 153.86332,163.30118 156.59318,163.30118 159.33304,163.30118 161.55294,165.45107 161.55294,168.10095 161.55294,170.7608 159.33304,172.90069 156.59318,172.90069 153.86332,172.90069 151.63345,170.7608 151.63345,168.10095 Z"
       id="path939" />
    <path
       style="fill:none;stroke:#404040;stroke-width:1.27993px;stroke-linecap:butt;stroke-linejoin:miter;stroke-miterlimit:8;stroke-dasharray:none;stroke-opacity:1"
       d="M 151.63345,168.10095 C 151.63345,165.45107 153.86332,163.30118 156.59318,163.30118 159.33304,163.30118 161.55294,165.45107 161.55294,168.10095 161.55294,170.7608 159.33304,172.90069 156.59318,172.90069 153.86332,172.90069 151.63345,170.7608 151.63345,168.10095"
       id="path941" />
    <path
       style="fill:#404040;fill-opacity:1;fill-rule:evenodd;stroke:none"
       d="M 123.15492,172.18073 C 123.15492,169.49086 125.34481,167.30098 128.03467,167.30098 130.73453,167.30098 132.91441,169.49086 132.91441,172.18073 132.91441,174.88059 130.73453,177.06047 128.03467,177.06047 125.34481,177.06047 123.15492,174.88059 123.15492,172.18073 Z"
       id="path943" />
    <path
       style="fill:none;stroke:#404040;stroke-width:1.27993px;stroke-linecap:butt;stroke-linejoin:miter;stroke-miterlimit:8;stroke-dasharray:none;stroke-opacity:1"
       d="M 123.15492,172.18073 C 123.15492,169.49086 125.34481,167.30098 128.03467,167.30098 130.73453,167.30098 132.91441,169.49086 132.91441,172.18073 132.91441,174.88059 130.73453,177.06047 128.03467,177.06047 125.34481,177.06047 123.15492,174.88059 123.15492,172.18073"
       id="path945" />
    <path
       style="fill:#404040;fill-opacity:1;fill-rule:evenodd;stroke:none"
       d="M 120.11508,137.9425 C 120.11508,135.25264 122.30496,133.06276 124.99482,133.06276 127.69468,133.06276 129.87457,135.25264 129.87457,137.9425 129.87457,140.64236 127.69468,142.82225 124.99482,142.82225 122.30496,142.82225 120.11508,140.64236 120.11508,137.9425 Z"
       id="path947" />
    <path
       style="fill:none;stroke:#404040;stroke-width:1.27993px;stroke-linecap:butt;stroke-linejoin:miter;stroke-miterlimit:8;stroke-dasharray:none;stroke-opacity:1"
       d="M 120.11508,137.9425 C 120.11508,135.25264 122.30496,133.06276 124.99482,133.06276 127.69468,133.06276 129.87457,135.25264 129.87457,137.9425 129.87457,140.64236 127.69468,142.82225 124.99482,142.82225 122.30496,142.82225 120.11508,140.64236 120.11508,137.9425"
       id="path949" />
    <path
       style="fill:#404040;fill-opacity:1;fill-rule:evenodd;stroke:none"
       d="M 139.47407,128.82299 C 139.47407,126.13312 141.70396,123.94324 144.43381,123.94324 147.17367,123.94324 149.39357,126.13312 149.39357,128.82299 149.39357,131.52285 147.17367,133.70273 144.43381,133.70273 141.70396,133.70273 139.47407,131.52285 139.47407,128.82299 Z"
       id="path951" />
    <path
       style="fill:none;stroke:#404040;stroke-width:1.27993px;stroke-linecap:butt;stroke-linejoin:miter;stroke-miterlimit:8;stroke-dasharray:none;stroke-opacity:1"
       d="M 139.47407,128.82299 C 139.47407,126.13312 141.70396,123.94324 144.43381,123.94324 147.17367,123.94324 149.39357,126.13312 149.39357,128.82299 149.39357,131.52285 147.17367,133.70273 144.43381,133.70273 141.70396,133.70273 139.47407,131.52285 139.47407,128.82299"
       id="path953" />
    <path
       style="fill:#404040;fill-opacity:1;fill-rule:evenodd;stroke:none"
       d="M 98.516205,160.98132 C 98.516205,158.29145 100.70609,156.10157 103.39595,156.10157 106.09581,156.10157 108.27569,158.29145 108.27569,160.98132 108.27569,163.68118 106.09581,165.86106 103.39595,165.86106 100.70609,165.86106 98.516205,163.68118 98.516205,160.98132 Z"
       id="path955" />
    <path
       style="fill:none;stroke:#404040;stroke-width:1.27993px;stroke-linecap:butt;stroke-linejoin:miter;stroke-miterlimit:8;stroke-dasharray:none;stroke-opacity:1"
       d="M 98.516205,160.98132 C 98.516205,158.29145 100.70609,156.10157 103.39595,156.10157 106.09581,156.10157 108.27569,158.29145 108.27569,160.98132 108.27569,163.68118 106.09581,165.86106 103.39595,165.86106 100.70609,165.86106 98.516205,163.68118 98.516205,160.98132"
       id="path957" />
    <path
       style="fill:#404040;fill-opacity:1;fill-rule:evenodd;stroke:none"
       d="M 57.718325,154.98162 C 57.718325,152.33176 59.908215,150.18188 62.598075,150.18188 65.297935,150.18188 67.477815,152.33176 67.477815,154.98162 67.477815,157.64149 65.297935,159.78137 62.598075,159.78137 59.908215,159.78137 57.718325,157.64149 57.718325,154.98162 Z"
       id="path959" />
    <path
       style="fill:none;stroke:#404040;stroke-width:1.27993px;stroke-linecap:butt;stroke-linejoin:miter;stroke-miterlimit:8;stroke-dasharray:none;stroke-opacity:1"
       d="M 57.718325,154.98162 C 57.718325,152.33176 59.908215,150.18188 62.598075,150.18188 65.297935,150.18188 67.477815,152.33176 67.477815,154.98162 67.477815,157.64149 65.297935,159.78137 62.598075,159.78137 59.908215,159.78137 57.718325,157.64149 57.718325,154.98162"
       id="path961" />
    <path
       style="fill:#404040;fill-opacity:1;fill-rule:evenodd;stroke:none"
       d="M 53.718535,132.10281 C 53.718535,129.45294 55.948415,127.30305 58.678275,127.30305 61.418135,127.30305 63.638015,129.45294 63.638015,132.10281 63.638015,134.76267 61.418135,136.90256 58.678275,136.90256 55.948415,136.90256 53.718535,134.76267 53.718535,132.10281 Z"
       id="path963" />
    <path
       style="fill:none;stroke:#404040;stroke-width:1.27993px;stroke-linecap:butt;stroke-linejoin:miter;stroke-miterlimit:8;stroke-dasharray:none;stroke-opacity:1"
       d="M 53.718535,132.10281 C 53.718535,129.45294 55.948415,127.30305 58.678275,127.30305 61.418135,127.30305 63.638015,129.45294 63.638015,132.10281 63.638015,134.76267 61.418135,136.90256 58.678275,136.90256 55.948415,136.90256 53.718535,134.76267 53.718535,132.10281"
       id="path965" />
    <path
       style="fill:#404040;fill-opacity:1;fill-rule:evenodd;stroke:none"
       d="M 103.79593,82.905367 C 103.79593,80.215507 105.98582,78.025617 108.67567,78.025617 111.37553,78.025617 113.55542,80.215507 113.55542,82.905367 113.55542,85.605227 111.37553,87.785117 108.67567,87.785117 105.98582,87.785117 103.79593,85.605227 103.79593,82.905367 Z"
       id="path967" />
    <path
       style="fill:none;stroke:#404040;stroke-width:1.27993px;stroke-linecap:butt;stroke-linejoin:miter;stroke-miterlimit:8;stroke-dasharray:none;stroke-opacity:1"
       d="M 103.79593,82.905367 C 103.79593,80.215507 105.98582,78.025617 108.67567,78.025617 111.37553,78.025617 113.55542,80.215507 113.55542,82.905367 113.55542,85.605227 111.37553,87.785117 108.67567,87.785117 105.98582,87.785117 103.79593,85.605227 103.79593,82.905367"
       id="path969" />
    <path
       style="fill:#404040;fill-opacity:1;fill-rule:evenodd;stroke:none"
       d="M 121.39502,71.225977 C 121.39502,68.536117 123.6249,66.346227 126.35475,66.346227 129.09461,66.346227 131.3145,68.536117 131.3145,71.225977 131.3145,73.925837 129.09461,76.105717 126.35475,76.105717 123.6249,76.105717 121.39502,73.925837 121.39502,71.225977 Z"
       id="path971" />
    <path
       style="fill:none;stroke:#404040;stroke-width:1.27993px;stroke-linecap:butt;stroke-linejoin:miter;stroke-miterlimit:8;stroke-dasharray:none;stroke-opacity:1"
       d="M 121.39502,71.225977 C 121.39502,68.536117 123.6249,66.346227 126.35475,66.346227 129.09461,66.346227 131.3145,68.536117 131.3145,71.225977 131.3145,73.925837 129.09461,76.105717 126.35475,76.105717 123.6249,76.105717 121.39502,73.925837 121.39502,71.225977"
       id="path973" />
    <path
       style="fill:#404040;fill-opacity:1;fill-rule:evenodd;stroke:none"
       d="M 101.39605,57.706677 C 101.39605,55.056817 103.62594,52.906924 106.3558,52.906924 109.09565,52.906924 111.31553,55.056817 111.31553,57.706677 111.31553,60.366537 109.09565,62.506427 106.3558,62.506427 103.62594,62.506427 101.39605,60.366537 101.39605,57.706677 Z"
       id="path975" />
    <path
       style="fill:none;stroke:#404040;stroke-width:1.27993px;stroke-linecap:butt;stroke-linejoin:miter;stroke-miterlimit:8;stroke-dasharray:none;stroke-opacity:1"
       d="M 101.39605,57.706677 C 101.39605,55.056817 103.62594,52.906924 106.3558,52.906924 109.09565,52.906924 111.31553,55.056817 111.31553,57.706677 111.31553,60.366537 109.09565,62.506427 106.3558,62.506427 103.62594,62.506427 101.39605,60.366537 101.39605,57.706677"
       id="path977" />
    <path
       style="fill:#404040;fill-opacity:1;fill-rule:evenodd;stroke:none"
       d="M 80.757135,65.066297 C 80.757135,62.416427 82.987015,60.266537 85.716875,60.266537 88.456735,60.266537 90.676615,62.416427 90.676615,65.066297 90.676615,67.726157 88.456735,69.866047 85.716875,69.866047 82.987015,69.866047 80.757135,67.726157 80.757135,65.066297 Z"
       id="path979" />
    <path
       style="fill:none;stroke:#404040;stroke-width:1.27993px;stroke-linecap:butt;stroke-linejoin:miter;stroke-miterlimit:8;stroke-dasharray:none;stroke-opacity:1"
       d="M 80.757135,65.066297 C 80.757135,62.416427 82.987015,60.266537 85.716875,60.266537 88.456735,60.266537 90.676615,62.416427 90.676615,65.066297 90.676615,67.726157 88.456735,69.866047 85.716875,69.866047 82.987015,69.866047 80.757135,67.726157 80.757135,65.066297"
       id="path981" />
    <path
       style="fill:#404040;fill-opacity:1;fill-rule:evenodd;stroke:none"
       d="M 71.637605,96.664647 C 71.637605,93.974787 73.867485,91.784907 76.597345,91.784907 79.337205,91.784907 81.557085,93.974787 81.557085,96.664647 81.557085,99.364507 79.337205,101.5444 76.597345,101.5444 73.867485,101.5444 71.637605,99.364507 71.637605,96.664647 Z"
       id="path983" />
    <path
       style="fill:none;stroke:#404040;stroke-width:1.27993px;stroke-linecap:butt;stroke-linejoin:miter;stroke-miterlimit:8;stroke-dasharray:none;stroke-opacity:1"
       d="M 71.637605,96.664647 C 71.637605,93.974787 73.867485,91.784907 76.597345,91.784907 79.337205,91.784907 81.557085,93.974787 81.557085,96.664647 81.557085,99.364507 79.337205,101.5444 76.597345,101.5444 73.867485,101.5444 71.637605,99.364507 71.637605,96.664647"
       id="path985" />
    <path
       style="fill:#404040;fill-opacity:1;fill-rule:evenodd;stroke:none"
       d="M 93.556465,103.06432 C 93.556465,100.37446 95.786355,98.184567 98.516205,98.184567 101.25606,98.184567 103.47595,100.37446 103.47595,103.06432 103.47595,105.76418 101.25606,107.94406 98.516205,107.94406 95.786355,107.94406 93.556465,105.76418 93.556465,103.06432 Z"
       id="path987" />
    <path
       style="fill:none;stroke:#404040;stroke-width:1.27993px;stroke-linecap:butt;stroke-linejoin:miter;stroke-miterlimit:8;stroke-dasharray:none;stroke-opacity:1"
       d="M 93.556465,103.06432 C 93.556465,100.37446 95.786355,98.184567 98.516205,98.184567 101.25606,98.184567 103.47595,100.37446 103.47595,103.06432 103.47595,105.76418 101.25606,107.94406 98.516205,107.94406 95.786355,107.94406 93.556465,105.76418 93.556465,103.06432"
       id="path989" />
    <g
       clip-path="url(#clipEmfPath2)"
       id="g991"
       transform="translate(7.2409487,10.909105)" />
  </g>
</svg>
