<svg width="1299" height="1332" xmlns="http://www.w3.org/2000/svg" xmlns:xlink="http://www.w3.org/1999/xlink" xml:space="preserve" overflow="hidden"><defs><filter id="fx0" x="-10%" y="-10%" width="120%" height="120%" filterUnits="userSpaceOnUse" primitiveUnits="userSpaceOnUse"><feComponentTransfer color-interpolation-filters="sRGB"><feFuncR type="discrete" tableValues="0 0"/><feFuncG type="discrete" tableValues="0 0"/><feFuncB type="discrete" tableValues="0 0"/><feFuncA type="linear" slope="0.4" intercept="0"/></feComponentTransfer><feGaussianBlur stdDeviation="6.11111 6.11111"/></filter><filter id="fx1" x="-10%" y="-10%" width="120%" height="120%" filterUnits="userSpaceOnUse" primitiveUnits="userSpaceOnUse"><feComponentTransfer color-interpolation-filters="sRGB"><feFuncR type="discrete" tableValues="0 0"/><feFuncG type="discrete" tableValues="0 0"/><feFuncB type="discrete" tableValues="0 0"/><feFuncA type="linear" slope="0.4" intercept="0"/></feComponentTransfer><feGaussianBlur stdDeviation="6.11111 6.11111"/></filter><filter id="fx2" x="-10%" y="-10%" width="120%" height="120%" filterUnits="userSpaceOnUse" primitiveUnits="userSpaceOnUse"><feComponentTransfer color-interpolation-filters="sRGB"><feFuncR type="discrete" tableValues="0 0"/><feFuncG type="discrete" tableValues="0 0"/><feFuncB type="discrete" tableValues="0 0"/><feFuncA type="linear" slope="0.4" intercept="0"/></feComponentTransfer><feGaussianBlur stdDeviation="6.11111 6.11111"/></filter><filter id="fx3" x="-10%" y="-10%" width="120%" height="120%" filterUnits="userSpaceOnUse" primitiveUnits="userSpaceOnUse"><feComponentTransfer color-interpolation-filters="sRGB"><feFuncR type="discrete" tableValues="0 0"/><feFuncG type="discrete" tableValues="0 0"/><feFuncB type="discrete" tableValues="0 0"/><feFuncA type="linear" slope="0.321569" intercept="0"/></feComponentTransfer><feGaussianBlur stdDeviation="7.11708 7.11708"/></filter><clipPath id="clip4"><rect x="0" y="0" width="1299" height="1332"/></clipPath><clipPath id="clip5"><rect x="59" y="59" width="516" height="516"/></clipPath><clipPath id="clip6"><rect x="0" y="0" width="634" height="634"/></clipPath><clipPath id="clip7"><rect x="20" y="19" width="595" height="595"/></clipPath><clipPath id="clip8"><rect x="20" y="19" width="595" height="595"/></clipPath><clipPath id="clip9"><rect x="20" y="19" width="595" height="595"/></clipPath><clipPath id="clip10"><rect x="353" y="705" width="595" height="595"/></clipPath><clipPath id="clip11"><rect x="353" y="705" width="595" height="595"/></clipPath><clipPath id="clip12"><rect x="353" y="705" width="595" height="595"/></clipPath><clipPath id="clip13"><rect x="39" y="39" width="368" height="368"/></clipPath><clipPath id="clip14"><rect x="0" y="0" width="446" height="445"/></clipPath><clipPath id="clip15"><rect x="20" y="19" width="407" height="406"/></clipPath><clipPath id="clip16"><rect x="20" y="19" width="407" height="406"/></clipPath><clipPath id="clip17"><rect x="20" y="19" width="407" height="406"/></clipPath><clipPath id="clip18"><rect x="871" y="643" width="407" height="406"/></clipPath><clipPath id="clip19"><rect x="871" y="643" width="407" height="406"/></clipPath><clipPath id="clip20"><rect x="871" y="643" width="407" height="406"/></clipPath><clipPath id="clip21"><rect x="39" y="39" width="368" height="368"/></clipPath><clipPath id="clip22"><rect x="0" y="0" width="445" height="445"/></clipPath><clipPath id="clip23"><rect x="20" y="19" width="405" height="406"/></clipPath><clipPath id="clip24"><rect x="20" y="19" width="405" height="406"/></clipPath><clipPath id="clip25"><rect x="20" y="19" width="405" height="406"/></clipPath><clipPath id="clip26"><rect x="23" y="643" width="405" height="406"/></clipPath><clipPath id="clip27"><rect x="23" y="643" width="405" height="406"/></clipPath><clipPath id="clip28"><rect x="23" y="643" width="405" height="406"/></clipPath><clipPath id="clip29"><path d="M517.002 128.5C480.274 128.5 450.5 158.274 450.5 195.001L450.5 460.999C450.5 497.727 480.274 527.5 517.002 527.5L782.999 527.5C819.726 527.5 849.5 497.727 849.5 460.999L849.5 195.001C849.5 158.274 819.726 128.5 782.999 128.5ZM1.93566e-05 1.98483e-05 1299 1.98483e-05 1299 1332 1.93566e-05 1332Z" fill-rule="evenodd" clip-rule="evenodd"/></clipPath><clipPath id="clip30"><rect x="-7.65316" y="-7.65317" width="204.306" height="204.306"/></clipPath><clipPath id="clip31"><rect x="0" y="0" width="189" height="189"/></clipPath></defs><g clip-path="url(#clip4)"><path d="M0 0 1299 0 1299 1299 0 1299Z" fill="#2E75B6" fill-rule="evenodd"/><path d="M669.979 255.5 669.979 659.822 631.021 659.822 631.021 255.5ZM708.938 640.343 650.5 757.218 592.063 640.343Z" fill="#F2F2F2"/><g clip-path="url(#clip5)" filter="url(#fx0)" transform="translate(333 699)"><g clip-path="url(#clip6)"><g clip-path="url(#clip7)"><g clip-path="url(#clip8)"><g clip-path="url(#clip9)"><path d="M316.87 81.6251C187.082 81.6217 81.8661 186.832 81.8627 316.62 81.8593 446.408 187.07 551.624 316.858 551.628 446.645 551.631 551.862 446.42 551.865 316.633 551.865 316.624 551.865 316.616 551.865 316.608 551.917 186.882 446.794 81.6764 317.068 81.6251 317.002 81.625 316.936 81.625 316.87 81.6251ZM341.187 443.445C338.57 449.565 333.694 454.44 327.574 457.058 324.427 458.397 321.039 459.079 317.619 459.063 310.79 459.076 304.235 456.376 299.397 451.557 297.063 449.219 295.196 446.458 293.896 443.421 292.55 440.271 291.866 436.878 291.885 433.452 291.868 426.62 294.571 420.062 299.397 415.224 309.402 405.193 325.645 405.171 335.676 415.176 335.692 415.193 335.707 415.208 335.723 415.224L335.723 415.224C338.07 417.58 339.938 420.368 341.224 423.435 342.564 426.604 343.249 430.012 343.235 433.452 343.243 436.885 342.546 440.282 341.187 443.433ZM363.035 334.793C346.133 344.985 335.695 363.184 335.433 382.919L298.308 382.919C298.529 350.411 315.531 320.325 343.266 303.367 366.516 288.792 373.549 258.129 358.974 234.879 344.4 211.629 313.737 204.596 290.487 219.171 275.985 228.261 267.183 244.176 267.191 261.292L230.066 261.292C230.048 213.347 268.899 174.466 316.844 174.448 364.787 174.43 403.669 213.281 403.687 261.226 403.698 291.107 388.341 318.892 363.035 334.78Z" fill="#FFFFFF"/></g></g></g></g></g><g clip-path="url(#clip10)"><g clip-path="url(#clip11)"><g clip-path="url(#clip12)"><path d="M649.87 766.875C520.082 766.872 414.866 872.082 414.863 1001.87 414.859 1131.66 520.07 1236.87 649.858 1236.88 779.645 1236.88 884.862 1131.67 884.865 1001.88 884.865 1001.87 884.865 1001.87 884.865 1001.86 884.917 872.132 779.794 766.926 650.068 766.875 650.002 766.875 649.936 766.875 649.87 766.875ZM674.187 1128.7C671.57 1134.81 666.694 1139.69 660.574 1142.31 657.427 1143.65 654.039 1144.33 650.619 1144.31 643.79 1144.33 637.235 1141.63 632.397 1136.81 630.063 1134.47 628.196 1131.71 626.896 1128.67 625.55 1125.52 624.866 1122.13 624.885 1118.7 624.868 1111.87 627.571 1105.31 632.397 1100.47 642.402 1090.44 658.645 1090.42 668.676 1100.43 668.692 1100.44 668.707 1100.46 668.723 1100.47L668.723 1100.47C671.07 1102.83 672.938 1105.62 674.224 1108.68 675.564 1111.85 676.249 1115.26 676.235 1118.7 676.243 1122.13 675.546 1125.53 674.187 1128.68ZM696.035 1020.04C679.133 1030.23 668.695 1048.43 668.433 1068.17L631.308 1068.17C631.529 1035.66 648.531 1005.58 676.266 988.617 699.516 974.042 706.549 943.379 691.974 920.129 677.4 896.879 646.737 889.846 623.487 904.421 608.985 913.511 600.183 929.426 600.191 946.542L563.066 946.542C563.048 898.597 601.899 859.716 649.844 859.698 697.787 859.68 736.669 898.531 736.687 946.476 736.698 976.357 721.341 1004.14 696.035 1020.03Z" fill="#FFFFFF"/></g></g></g><g clip-path="url(#clip13)" filter="url(#fx1)" transform="translate(851 637)"><g clip-path="url(#clip14)"><g clip-path="url(#clip15)"><g clip-path="url(#clip16)"><g clip-path="url(#clip17)"><path d="M202.411 42.1875C113.92 42.1852 42.1814 113.92 42.1791 202.411 42.1767 290.903 113.911 362.641 202.403 362.644 290.895 362.646 362.633 290.911 362.635 202.42 362.635 202.414 362.635 202.408 362.635 202.403 362.67 113.953 290.996 42.2225 202.546 42.1875 202.501 42.1875 202.457 42.1875 202.411 42.1875ZM218.991 288.883C217.207 293.055 213.882 296.38 209.71 298.164 207.564 299.077 205.254 299.543 202.922 299.531 198.266 299.54 193.797 297.699 190.498 294.414 188.906 292.82 187.634 290.937 186.747 288.866 185.83 286.718 185.363 284.405 185.376 282.07 185.365 277.411 187.207 272.94 190.498 269.641 197.319 262.802 208.394 262.787 215.233 269.609 215.244 269.62 215.255 269.63 215.266 269.641L215.266 269.641C216.866 271.247 218.14 273.149 219.016 275.24 219.93 277.401 220.397 279.724 220.387 282.07 220.393 284.41 219.918 286.726 218.991 288.875ZM233.887 214.802C222.364 221.751 215.247 234.16 215.068 247.615L189.755 247.615C189.906 225.451 201.498 204.938 220.409 193.375 236.261 183.438 241.056 162.531 231.119 146.679 221.181 130.826 200.275 126.031 184.423 135.969 174.535 142.167 168.534 153.017 168.539 164.687L143.227 164.687C143.214 131.998 169.704 105.488 202.393 105.476 235.082 105.464 261.592 131.953 261.605 164.643 261.612 185.016 251.142 203.961 233.887 214.793Z" fill="#FFFFFF" transform="matrix(1.00247 0 0 1 20.0001 19.7502)"/></g></g></g></g></g><g clip-path="url(#clip18)"><g clip-path="url(#clip19)"><g clip-path="url(#clip20)"><path d="M202.411 42.1875C113.92 42.1852 42.1814 113.92 42.1791 202.411 42.1767 290.903 113.911 362.641 202.403 362.644 290.895 362.646 362.633 290.911 362.635 202.42 362.635 202.414 362.635 202.408 362.635 202.403 362.67 113.953 290.996 42.2225 202.546 42.1875 202.501 42.1875 202.457 42.1875 202.411 42.1875ZM218.991 288.883C217.207 293.055 213.882 296.38 209.71 298.164 207.564 299.077 205.254 299.543 202.922 299.531 198.266 299.54 193.797 297.699 190.498 294.414 188.906 292.82 187.634 290.937 186.747 288.866 185.83 286.718 185.363 284.405 185.376 282.07 185.365 277.411 187.207 272.94 190.498 269.641 197.319 262.802 208.394 262.787 215.233 269.609 215.244 269.62 215.255 269.63 215.266 269.641L215.266 269.641C216.866 271.247 218.14 273.149 219.016 275.24 219.93 277.401 220.397 279.724 220.387 282.07 220.393 284.41 219.918 286.726 218.991 288.875ZM233.887 214.802C222.364 221.751 215.247 234.16 215.068 247.615L189.755 247.615C189.906 225.451 201.498 204.938 220.409 193.375 236.261 183.438 241.056 162.531 231.119 146.679 221.181 130.826 200.275 126.031 184.423 135.969 174.535 142.167 168.534 153.017 168.539 164.687L143.227 164.687C143.214 131.998 169.704 105.488 202.393 105.476 235.082 105.464 261.592 131.953 261.605 164.643 261.612 185.016 251.142 203.961 233.887 214.793Z" fill="#FFFFFF" transform="matrix(1.00247 0 0 1 871 643)"/></g></g></g><g clip-path="url(#clip21)" filter="url(#fx2)" transform="translate(3 637)"><g clip-path="url(#clip22)"><g clip-path="url(#clip23)"><g clip-path="url(#clip24)"><g clip-path="url(#clip25)"><path d="M222.411 61.9377C133.92 61.9354 62.1814 133.67 62.1791 222.162 62.1768 310.653 133.911 382.391 222.403 382.394 310.895 382.396 382.633 310.662 382.635 222.17 382.635 222.165 382.635 222.159 382.635 222.153 382.67 133.704 310.996 61.9727 222.546 61.9377 222.501 61.9376 222.457 61.9376 222.411 61.9377ZM238.991 308.633C237.207 312.806 233.882 316.13 229.71 317.915 227.564 318.827 225.254 319.293 222.922 319.281 218.266 319.29 213.797 317.45 210.498 314.164 208.906 312.57 207.634 310.687 206.747 308.616 205.83 306.469 205.363 304.155 205.376 301.82 205.365 297.161 207.207 292.69 210.498 289.392 217.319 282.552 228.394 282.537 235.233 289.359 235.244 289.37 235.255 289.381 235.266 289.392L235.266 289.392C236.866 290.998 238.14 292.899 239.016 294.99 239.93 297.151 240.397 299.474 240.388 301.82 240.393 304.16 239.918 306.476 238.991 308.625ZM253.887 234.552C242.364 241.501 235.247 253.91 235.068 267.365L209.755 267.365C209.906 245.201 221.498 224.688 240.409 213.125 256.261 203.188 261.056 182.281 251.119 166.429 241.181 150.577 220.275 145.782 204.423 155.719 194.535 161.917 188.534 172.768 188.539 184.438L163.227 184.438C163.214 151.748 189.704 125.238 222.393 125.226 255.082 125.214 281.592 151.703 281.605 184.393 281.612 204.766 271.142 223.711 253.887 234.544Z" fill="#FFFFFF"/></g></g></g></g></g><g clip-path="url(#clip26)"><g clip-path="url(#clip27)"><g clip-path="url(#clip28)"><path d="M225.411 685.188C136.92 685.185 65.1814 756.92 65.1791 845.412 65.1768 933.903 136.911 1005.64 225.403 1005.64 313.895 1005.65 385.633 933.912 385.635 845.42 385.635 845.414 385.635 845.409 385.635 845.403 385.67 756.954 313.996 685.223 225.546 685.188 225.501 685.188 225.457 685.188 225.411 685.188ZM241.991 931.883C240.207 936.056 236.882 939.38 232.71 941.165 230.564 942.078 228.254 942.543 225.922 942.531 221.266 942.54 216.797 940.7 213.498 937.414 211.906 935.82 210.634 933.937 209.747 931.866 208.83 929.719 208.363 927.406 208.376 925.07 208.365 920.411 210.207 915.94 213.498 912.642 220.319 905.802 231.394 905.787 238.233 912.609 238.244 912.62 238.255 912.631 238.266 912.642L238.266 912.642C239.866 914.248 241.14 916.149 242.016 918.24 242.93 920.401 243.397 922.724 243.388 925.07 243.393 927.41 242.918 929.726 241.991 931.875ZM256.888 857.802C245.364 864.751 238.247 877.16 238.068 890.615L212.755 890.615C212.906 868.451 224.498 847.938 243.409 836.375 259.261 826.438 264.056 805.531 254.119 789.679 244.181 773.827 223.275 769.031 207.423 778.969 197.535 785.167 191.534 796.018 191.539 807.688L166.227 807.688C166.214 774.998 192.704 748.488 225.393 748.476 258.082 748.464 284.592 774.953 284.605 807.643 284.612 828.016 274.142 846.961 256.888 857.794Z" fill="#FFFFFF"/></g></g></g><path d="M618.589 216.181 936.908 606.067 906.73 630.705 588.411 240.819ZM954.767 566.339 983.415 693.83 864.233 640.255Z" fill="#F2F2F2"/><path d="M15.407-11.919 264.45 310.003 233.636 333.841-15.407 11.919ZM283.345 270.758 308.638 398.957 190.903 342.272Z" fill="#F2F2F2" transform="matrix(-1 0 0 1 636.138 298.5)"/><g clip-path="url(#clip29)"><g clip-path="url(#clip30)" filter="url(#fx3)" transform="matrix(3.00529 0 0 3.00529 376 34)"><g clip-path="url(#clip31)"><path d="M28.0249 50.3374C28.0249 38.1164 37.932 28.2094 50.153 28.2094L138.663 28.2094C150.884 28.2094 160.791 38.1164 160.791 50.3374L160.791 138.847C160.791 151.068 150.884 160.975 138.663 160.975L50.153 160.975C37.932 160.975 28.0249 151.068 28.0249 138.847Z" stroke="#FFFFFF" stroke-width="12" stroke-miterlimit="8" fill="#333F50" fill-rule="evenodd"/></g></g></g><path d="M450.5 195.001C450.5 158.274 480.274 128.5 517.001 128.5L782.999 128.5C819.726 128.5 849.5 158.274 849.5 195.001L849.5 460.999C849.5 497.727 819.726 527.5 782.999 527.5L517.001 527.5C480.274 527.5 450.5 497.727 450.5 460.999Z" stroke="#FFFFFF" stroke-width="36.6667" stroke-miterlimit="8" fill="#333F50" fill-rule="evenodd"/></g></svg>