<svg width="226.88" height="226.88" xmlns="http://www.w3.org/2000/svg"><defs><clipPath clipPathUnits="userSpaceOnUse" id="a"><path d="M0 0h170.16v170.16H0Z" clip-rule="evenodd"/></clipPath><clipPath clipPathUnits="userSpaceOnUse" id="b"><path d="M11.88 11.88h146.4v146.4H11.88Z" clip-rule="evenodd"/></clipPath><clipPath clipPathUnits="userSpaceOnUse" id="c"><path d="M0 0h5.903v5.903H0Z"/></clipPath><clipPath clipPathUnits="userSpaceOnUse" id="d"><path d="M.085 5.818h5.76V.058H.085" clip-rule="evenodd"/></clipPath><clipPath clipPathUnits="userSpaceOnUse" id="e"><path d="M.085 5.818h5.76V.058H.085" clip-rule="evenodd"/></clipPath><clipPath clipPathUnits="userSpaceOnUse" id="f"><path d="M.085 5.818h5.76V.058H.085" clip-rule="evenodd"/></clipPath><clipPath clipPathUnits="userSpaceOnUse" id="g"><path d="M.085 5.818h5.76V.058H.085" clip-rule="evenodd"/></clipPath><clipPath clipPathUnits="userSpaceOnUse" id="h"><path d="M.085 5.818h5.76V.058H.085" clip-rule="evenodd"/></clipPath><clipPath clipPathUnits="userSpaceOnUse" id="i"><path d="M.085 5.818h5.76V.058H.085" clip-rule="evenodd"/></clipPath><clipPath clipPathUnits="userSpaceOnUse" id="j"><path d="M.085 5.818h5.76V.058H.085" clip-rule="evenodd"/></clipPath><clipPath clipPathUnits="userSpaceOnUse" id="k"><path d="M.085 5.818h5.76V.058H.085" clip-rule="evenodd"/></clipPath><clipPath clipPathUnits="userSpaceOnUse" id="l"><path d="M.085 5.818h5.76V.058H.085" clip-rule="evenodd"/></clipPath><clipPath clipPathUnits="userSpaceOnUse" id="m"><path d="M.085 5.818h5.76V.058H.085" clip-rule="evenodd"/></clipPath><clipPath clipPathUnits="userSpaceOnUse" id="n"><path d="M.085 5.818h5.76V.058H.085" clip-rule="evenodd"/></clipPath><clipPath clipPathUnits="userSpaceOnUse" id="o"><path d="M.085 5.818h5.76V.058H.085" clip-rule="evenodd"/></clipPath><clipPath clipPathUnits="userSpaceOnUse" id="p"><path d="M.085 5.818h5.76V.058H.085" clip-rule="evenodd"/></clipPath><clipPath clipPathUnits="userSpaceOnUse" id="q"><path d="M.085 5.818h5.76V.058H.085" clip-rule="evenodd"/></clipPath><clipPath clipPathUnits="userSpaceOnUse" id="r"><path d="M.085 5.818h5.76V.058H.085" clip-rule="evenodd"/></clipPath><clipPath clipPathUnits="userSpaceOnUse" id="s"><path d="M.085 5.818h5.76V.058H.085" clip-rule="evenodd"/></clipPath><clipPath clipPathUnits="userSpaceOnUse" id="t"><path d="M.085 5.818h5.76V.058H.085" clip-rule="evenodd"/></clipPath><clipPath clipPathUnits="userSpaceOnUse" id="u"><path d="M.085 5.818h5.76V.058H.085" clip-rule="evenodd"/></clipPath><clipPath clipPathUnits="userSpaceOnUse" id="v"><path d="M.085 5.818h5.76V.058H.085" clip-rule="evenodd"/></clipPath><clipPath clipPathUnits="userSpaceOnUse" id="w"><path d="M.085 5.818h5.76V.058H.085" clip-rule="evenodd"/></clipPath><clipPath clipPathUnits="userSpaceOnUse" id="x"><path d="M.085 5.818h5.76V.058H.085" clip-rule="evenodd"/></clipPath><clipPath clipPathUnits="userSpaceOnUse" id="y"><path d="M.085 5.818h5.76V.058H.085" clip-rule="evenodd"/></clipPath><clipPath clipPathUnits="userSpaceOnUse" id="z"><path d="M.085 5.818h5.76V.058H.085" clip-rule="evenodd"/></clipPath><clipPath clipPathUnits="userSpaceOnUse" id="A"><path d="M.085 5.818h5.76V.058H.085" clip-rule="evenodd"/></clipPath><clipPath clipPathUnits="userSpaceOnUse" id="B"><path d="M.085 5.818h5.76V.058H.085" clip-rule="evenodd"/></clipPath><clipPath clipPathUnits="userSpaceOnUse" id="C"><path d="M.085 5.818h5.76V.058H.085" clip-rule="evenodd"/></clipPath><clipPath clipPathUnits="userSpaceOnUse" id="D"><path d="M.085 5.818h5.76V.058H.085" clip-rule="evenodd"/></clipPath><clipPath clipPathUnits="userSpaceOnUse" id="E"><path d="M.085 5.818h5.76V.058H.085" clip-rule="evenodd"/></clipPath><clipPath clipPathUnits="userSpaceOnUse" id="F"><path d="M.085 5.818h5.76V.058H.085" clip-rule="evenodd"/></clipPath></defs><g clip-path="url(#a)" transform="matrix(1.33333 0 0 -1.33333 0 226.88)"><path d="M0 0h170.16v170.16H0Z" style="fill:#fff;fill-opacity:1;fill-rule:evenodd;stroke:none"/></g><path d="M1.44 140.84c0 15.4 12.483 27.88 27.881 27.88H140.84c15.4 0 27.88-12.48 27.88-27.88V29.321c0-15.398-12.48-27.881-27.88-27.881H29.321C13.923 1.44 1.44 13.923 1.44 29.321Z" style="fill:#f2f2f2;fill-opacity:1;fill-rule:evenodd;stroke:none" transform="matrix(1.33333 0 0 -1.33333 0 226.88)"/><path d="M1.44 140.84c0 15.4 12.483 27.88 27.881 27.88H140.84c15.4 0 27.88-12.48 27.88-27.88V29.321c0-15.398-12.48-27.881-27.88-27.881H29.321C13.923 1.44 1.44 13.923 1.44 29.321Z" style="fill:none;stroke:#000;stroke-width:1;stroke-linecap:butt;stroke-linejoin:miter;stroke-miterlimit:10;stroke-dasharray:none;stroke-opacity:1" transform="matrix(1.33333 0 0 -1.33333 0 226.88)"/><g clip-path="url(#b)" transform="matrix(1.33333 0 0 -1.33333 0 226.88)"><g clip-path="url(#c)" transform="matrix(24.8002 0 0 24.8002 11.88 11.88)"><path d="M.325 4.858v-3.84l2.64-.72 2.64.72v3.84l-2.64.72z" style="fill:#fff;fill-opacity:1;fill-rule:nonzero;stroke:none"/><path d="M.325 4.858v-3.84l2.64-.72 2.64.72v3.84l-2.64.72z" style="fill:none;stroke:#000;stroke-width:.14;stroke-linecap:butt;stroke-linejoin:miter;stroke-miterlimit:10;stroke-dasharray:none;stroke-opacity:1"/><path d="m.325 4.858 2.64-.72V.298v3.84l2.64.72" style="fill:none;stroke:#000;stroke-width:.14;stroke-linecap:butt;stroke-linejoin:miter;stroke-miterlimit:10;stroke-dasharray:none;stroke-opacity:1"/><path d="M1.285 4.582v-.48l.24-.15.24.06.24-.15v.54l2.64.72-.72.192z" style="fill:#fff;fill-opacity:1;fill-rule:nonzero;stroke:none"/><path d="M1.285 4.582v-.48l.24-.15.24.06.24-.15v.54l2.64.72-.72.192z" style="fill:none;stroke:#000;stroke-width:.14;stroke-linecap:butt;stroke-linejoin:miter;stroke-miterlimit:10;stroke-dasharray:none;stroke-opacity:1"/><g clip-path="url(#d)"><path d="M1.768 2.083c0-.092-.075-.148-.166-.125a.227.227 0 0 0-.167.208c0 .092.075.147.167.124a.227.227 0 0 0 .166-.207Z" style="fill:#000;fill-opacity:1;fill-rule:nonzero;stroke:none"/></g><g clip-path="url(#e)"><path d="M2.576 2.435c-.047.092-.152.157-.296.193a1.243 1.243 0 0 1-.313.03c-.08.312-.213.536-.365.574-.15.037-.286-.117-.363-.386-.11.055-.21.097-.3.119C.797 3 .692 2.988.645 2.92c-.078-.114.025-.353.238-.622-.205-.16-.3-.34-.225-.49.048-.091.153-.156.297-.192.083-.02.18-.031.285-.033.08-.307.213-.529.363-.566.15-.037.285.117.362.386.111-.056.21-.097.3-.12.143-.035.248-.023.296.046.074.111-.02.34-.225.601.219.165.319.353.241.505Zm-.296.082c.102-.025.177-.069.2-.113.04-.083-.034-.233-.222-.374a3.19 3.19 0 0 1-.224.236 2.296 2.296 0 0 1-.042.281c.105.002.205-.01.288-.03Zm-.496-.726a2.057 2.057 0 0 0-.174-.048 3.727 3.727 0 0 0-.175.135c-.055.047-.11.094-.16.14-.006.062-.006.123-.006.19 0 .06.003.117.006.175a1.687 1.687 0 0 0 .335.11c.053-.038.105-.079.158-.122.055-.047.11-.094.16-.14.006-.062.006-.123.006-.19 0-.069-.003-.134-.008-.197-.045-.02-.092-.035-.142-.053Zm.128-.085-.025-.146c-.047.029-.097.058-.147.092l.1.03.072.024Zm-.432.011a1.947 1.947 0 0 0-.16-.018c-.012.055-.02.113-.028.173l.09-.078.098-.077Zm-.319.412a2.2 2.2 0 0 0-.119.13c.036.023.078.046.12.07 0-.031-.003-.061-.003-.094 0-.036 0-.072.002-.106zm.128.392c.008.058.016.115.027.167.053-.03.108-.066.164-.101a1.046 1.046 0 0 1-.086-.026c-.033-.014-.07-.027-.105-.04Zm.448.001c.05.01.1.014.15.019.01-.053.02-.108.027-.165l-.09.078c-.029.02-.056.044-.087.068Zm.305-.402a2.81 2.81 0 0 0 .135-.148c-.041-.025-.085-.053-.135-.077.003.039.003.077.003.116 0 .039 0 .075-.003.109zm-.44 1.001c.083-.02.19-.194.26-.466a2.456 2.456 0 0 1-.252-.037c-.092.064-.18.122-.266.171.07.235.174.353.258.332Zm-.864-.283c.025.035.097.04.2.014.08-.02.17-.057.27-.106a1.975 1.975 0 0 1-.041-.275 1.35 1.35 0 0 1-.208-.117c-.185.234-.263.422-.221.484Zm.216-1.114c-.103.025-.177.069-.2.113-.041.083.03.225.208.364a4.88 4.88 0 0 1 .208-.218c.008-.1.022-.197.041-.287a.985.985 0 0 0-.257.028Zm.648-.596c-.084.02-.189.19-.258.457.086.006.174.017.266.036.086-.06.169-.114.249-.159-.07-.237-.174-.355-.257-.334Zm.863.283c-.024-.036-.096-.04-.199-.014-.08.02-.174.057-.271.106.016.079.03.161.038.253.083.038.158.077.225.122.177-.227.249-.406.207-.467Z" style="fill:#000;fill-opacity:1;fill-rule:nonzero;stroke:none"/></g><g clip-path="url(#f)"><path d="M4.96 3.295V3.057l-.009-.003h-.004V3.291l.004.001.01.002m0 0V3.057l-.01-.003h-.004V3.291l.004.001z" style="fill:none;stroke:#000;stroke-width:.14;stroke-linecap:butt;stroke-linejoin:round;stroke-miterlimit:10;stroke-dasharray:none;stroke-opacity:1"/></g><g clip-path="url(#g)"><path d="m4.712 3.233.005.002V2.996l-.005-.001-.009-.002L4.7 2.99V3.23l.004.001.01.002m0 0 .004.002V2.996l-.005-.001-.009-.002L4.7 2.99V3.23l.004.001z" style="fill:none;stroke:#000;stroke-width:.14;stroke-linecap:butt;stroke-linejoin:round;stroke-miterlimit:10;stroke-dasharray:none;stroke-opacity:1"/></g><g clip-path="url(#h)"><path d="m4.478 3.175.004.001V2.937h-.004l-.01-.003-.004-.001V3.172h.005l.009.003m0 0 .004.001V2.937h-.004l-.01-.003-.004-.001V3.172h.005z" style="fill:none;stroke:#000;stroke-width:.14;stroke-linecap:butt;stroke-linejoin:round;stroke-miterlimit:10;stroke-dasharray:none;stroke-opacity:1"/></g><g clip-path="url(#i)"><path d="m4.234 3.114.005.001V2.877l-.005-.001-.009-.003h-.004V3.11l.004.001.01.002m0 0 .004.001V2.877l-.005-.001-.009-.003h-.004V3.11l.004.001z" style="fill:none;stroke:#000;stroke-width:.14;stroke-linecap:butt;stroke-linejoin:round;stroke-miterlimit:10;stroke-dasharray:none;stroke-opacity:1"/></g><g clip-path="url(#j)"><path d="M3.99 3.054h.005V2.817l-.004-.001-.009-.002-.005-.001V3.05l.005.001.009.003m0 0h.004V2.817l-.004-.001-.009-.002-.005-.001V3.05l.005.001Z" style="fill:none;stroke:#000;stroke-width:.14;stroke-linecap:butt;stroke-linejoin:round;stroke-miterlimit:10;stroke-dasharray:none;stroke-opacity:1"/></g><g clip-path="url(#k)"><path d="m3.756 2.995.005.001V2.757h-.005l-.009-.003h-.004V2.991h.004l.01.003m0 0 .004.001V2.757h-.005l-.009-.003h-.004V2.991h.004z" style="fill:none;stroke:#000;stroke-width:.14;stroke-linecap:butt;stroke-linejoin:round;stroke-miterlimit:10;stroke-dasharray:none;stroke-opacity:1"/></g><g clip-path="url(#l)"><path d="M4.961 1.535V1.31l-.009-.002-.004-.002v.225l.004.002.01.002m0 0V1.31l-.01-.002-.004-.002v.225l.004.002z" style="fill:none;stroke:#000;stroke-width:.14;stroke-linecap:butt;stroke-linejoin:round;stroke-miterlimit:10;stroke-dasharray:none;stroke-opacity:1"/></g><g clip-path="url(#m)"><path d="m4.713 1.473.004.001v-.225l-.004-.001-.009-.002-.004-.001v.224l.004.002.009.002m0 0 .004.001v-.225l-.004-.001-.009-.002-.004-.001v.224l.004.002z" style="fill:none;stroke:#000;stroke-width:.14;stroke-linecap:butt;stroke-linejoin:round;stroke-miterlimit:10;stroke-dasharray:none;stroke-opacity:1"/></g><g clip-path="url(#n)"><path d="m4.478 1.414.004.001V1.19h-.004l-.009-.003-.004-.001v.225l.004.001.009.002m0 0 .004.001V1.19h-.004l-.009-.003-.004-.001v.225l.004.001Z" style="fill:none;stroke:#000;stroke-width:.14;stroke-linecap:butt;stroke-linejoin:round;stroke-miterlimit:10;stroke-dasharray:none;stroke-opacity:1"/></g><g clip-path="url(#o)"><path d="m4.234 1.353.004.002V1.13l-.004-.001-.009-.003h-.004v.224l.004.001.009.002m0 0 .004.001V1.13l-.004-.001-.009-.003h-.004v.224l.004.001z" style="fill:none;stroke:#000;stroke-width:.14;stroke-linecap:butt;stroke-linejoin:round;stroke-miterlimit:10;stroke-dasharray:none;stroke-opacity:1"/></g><g clip-path="url(#p)"><path d="M3.99 1.293h.004V1.07l-.004-.001-.009-.003h-.004v.224l.004.001.01.003m0 0h.003V1.07l-.004-.001-.009-.003h-.004v.224l.004.001z" style="fill:none;stroke:#000;stroke-width:.14;stroke-linecap:butt;stroke-linejoin:round;stroke-miterlimit:10;stroke-dasharray:none;stroke-opacity:1"/></g><g clip-path="url(#q)"><path d="m3.755 1.234.005.001V1.01l-.005-.001-.009-.002-.004-.001v.225h.004l.01.003m0 0 .004.001V1.01l-.005-.001-.009-.002-.004-.001v.225h.004z" style="fill:none;stroke:#000;stroke-width:.14;stroke-linecap:butt;stroke-linejoin:round;stroke-miterlimit:10;stroke-dasharray:none;stroke-opacity:1"/></g><g clip-path="url(#r)"><path d="M5.13 2.945v.004l.005.001.21.053.005.001v-.019h-.004l-.211-.053-.004-.001v.014m0 0v.004l.004.001.21.053.005.001v-.019h-.004l-.211-.053-.004-.001v.004z" style="fill:none;stroke:#000;stroke-width:.14;stroke-linecap:butt;stroke-linejoin:round;stroke-miterlimit:10;stroke-dasharray:none;stroke-opacity:1"/></g><g clip-path="url(#s)"><path d="M5.137 2.699v.005h.004l.205.052h.004V2.739l-.004-.001-.205-.051-.004-.001v.014m0 0v.005h.004l.205.052h.004V2.739l-.004-.001-.205-.051-.004-.001v.004z" style="fill:none;stroke:#000;stroke-width:.14;stroke-linecap:butt;stroke-linejoin:round;stroke-miterlimit:10;stroke-dasharray:none;stroke-opacity:1"/></g><g clip-path="url(#t)"><path d="M5.128 2.453v.005h.004l.214.054.004.001V2.495l-.004-.001-.214-.054h-.004v.014m0 0v.004h.004l.214.054.004.001V2.495l-.004-.001-.214-.054h-.004v.004Z" style="fill:none;stroke:#000;stroke-width:.14;stroke-linecap:butt;stroke-linejoin:round;stroke-miterlimit:10;stroke-dasharray:none;stroke-opacity:1"/></g><g clip-path="url(#u)"><path d="M5.13 2.207v.004l.005.001.21.053h.005V2.248h-.004l-.211-.053-.004-.001v.014m0 0v.004l.004.001.21.053h.005V2.248h-.004l-.211-.053-.004-.001v.004z" style="fill:none;stroke:#000;stroke-width:.14;stroke-linecap:butt;stroke-linejoin:round;stroke-miterlimit:10;stroke-dasharray:none;stroke-opacity:1"/></g><g clip-path="url(#v)"><path d="M5.137 1.956v.005h.004l.205.052.004.001v-.019h-.004l-.205-.052-.004-.001v.015m0 0v.004h.004l.205.052.004.001v-.019h-.004l-.205-.052-.004-.001v.005z" style="fill:none;stroke:#000;stroke-width:.14;stroke-linecap:butt;stroke-linejoin:round;stroke-miterlimit:10;stroke-dasharray:none;stroke-opacity:1"/></g><g clip-path="url(#w)"><path d="M5.13 1.712v.004l.005.001.21.053h.005V1.753h-.004l-.211-.053-.004-.001v.014m0 0v.004l.004.001.21.053h.005V1.753h-.004l-.211-.053-.004-.001v.004z" style="fill:none;stroke:#000;stroke-width:.14;stroke-linecap:butt;stroke-linejoin:round;stroke-miterlimit:10;stroke-dasharray:none;stroke-opacity:1"/></g><g clip-path="url(#x)"><path d="M3.361 2.518v.004l.004.001.213.053v-.014l-.213-.052-.004-.001v.009m0 0v.004l.004.001.213.053v-.014l-.213-.052-.004-.001z" style="fill:none;stroke:#000;stroke-width:.14;stroke-linecap:butt;stroke-linejoin:round;stroke-miterlimit:10;stroke-dasharray:none;stroke-opacity:1"/></g><g clip-path="url(#y)"><path d="M3.361 2.27v.004l.004.001.208.052.005.001V2.31h-.005l-.208-.053h-.004v.013m0 0v.004l.004.001.208.052.005.001V2.31h-.005l-.208-.053h-.004v.004z" style="fill:none;stroke:#000;stroke-width:.14;stroke-linecap:butt;stroke-linejoin:round;stroke-miterlimit:10;stroke-dasharray:none;stroke-opacity:1"/></g><g clip-path="url(#z)"><path d="M3.361 2.026v.005h.004l.208.052.005.001v-.017l-.005-.001-.208-.052-.004-.001v.014m0 0v.003l.004.002.208.052h.005v-.017l-.005-.001-.208-.052-.004-.001v.004z" style="fill:none;stroke:#000;stroke-width:.14;stroke-linecap:butt;stroke-linejoin:round;stroke-miterlimit:10;stroke-dasharray:none;stroke-opacity:1"/></g><g clip-path="url(#A)"><path d="M3.361 1.778v.004l.004.002.208.052h.005V1.82l-.005-.001-.208-.052-.004-.001v.014m0 0v.003l.004.002.208.051.005.001V1.82l-.005-.001-.208-.052-.004-.001v.004z" style="fill:none;stroke:#000;stroke-width:.14;stroke-linecap:butt;stroke-linejoin:round;stroke-miterlimit:10;stroke-dasharray:none;stroke-opacity:1"/></g><g clip-path="url(#B)"><path d="M3.361 1.526v.004l.004.001.208.052.005.001V1.566h-.005l-.208-.053h-.004v.013m0 0v.004l.004.001.208.052.005.001V1.566h-.005l-.208-.053h-.004v.004z" style="fill:none;stroke:#000;stroke-width:.14;stroke-linecap:butt;stroke-linejoin:round;stroke-miterlimit:10;stroke-dasharray:none;stroke-opacity:1"/></g><g clip-path="url(#C)"><path d="M3.361 1.282v.004l.004.001.208.052.005.001v-.017l-.005-.001-.208-.052-.004-.001v.014m0 0v.003l.004.001.208.052.005.001v-.017l-.005-.001-.208-.052-.004-.001v.004z" style="fill:none;stroke:#000;stroke-width:.14;stroke-linecap:butt;stroke-linejoin:round;stroke-miterlimit:10;stroke-dasharray:none;stroke-opacity:1"/></g><g clip-path="url(#D)"><path d="M4.947 3.051c.092.023.166-.033.166-.125V1.752a.227.227 0 0 0-.166-.207L3.765 1.25c-.092-.023-.166.033-.166.125v1.174c0 .092.074.184.166.207z" style="fill:none;stroke:#000;stroke-width:.14;stroke-linecap:butt;stroke-linejoin:miter;stroke-miterlimit:10;stroke-dasharray:none;stroke-opacity:1"/></g><g clip-path="url(#E)"><path d="M4.336 1.865a.228.228 0 0 0-.003-.043.07.07 0 0 0-.014-.028.4.4 0 0 0-.13-.085.452.452 0 0 0-.21-.035.203.203 0 0 0-.106.044.23.23 0 0 0-.066.102.579.579 0 0 0 .002.334c.017.053.041.1.072.14a.427.427 0 0 0 .363.175.196.196 0 0 0 .044-.008.084.084 0 0 0 .027-.013.04.04 0 0 0 .011-.01.04.04 0 0 0 .005-.012.246.246 0 0 0-.002-.096.04.04 0 0 0-.007-.012.018.018 0 0 0-.01-.006c-.005-.001-.012 0-.021.004a.21.21 0 0 1-.035.014.199.199 0 0 1-.12.003.213.213 0 0 1-.079-.038.247.247 0 0 1-.06-.067.322.322 0 0 1-.036-.09.459.459 0 0 1 0-.222.168.168 0 0 1 .039-.07.116.116 0 0 1 .06-.031.195.195 0 0 1 .08.005.282.282 0 0 1 .12.06.525.525 0 0 1 .035.03.06.06 0 0 0 .022.014h.009c.002 0 .004-.003.006-.008a.343.343 0 0 0 .005-.051Z" style="fill:#000;fill-opacity:1;fill-rule:nonzero;stroke:none"/></g><g clip-path="url(#F)"><path d="M4.962 2.02a.26.26 0 0 0-.004-.042.055.055 0 0 0-.004-.013.09.09 0 0 0-.01-.015.39.39 0 0 0-.13-.085.46.46 0 0 0-.21-.035.202.202 0 0 0-.105.044.23.23 0 0 0-.066.102.58.58 0 0 0 .002.333c.017.054.04.1.071.142a.427.427 0 0 0 .25.164.343.343 0 0 0 .113.01.201.201 0 0 0 .044-.009.082.082 0 0 0 .028-.012.039.039 0 0 0 .01-.01.038.038 0 0 0 .005-.012.248.248 0 0 0-.002-.096.037.037 0 0 0-.007-.012.019.019 0 0 0-.009-.006c-.005-.001-.013 0-.022.004a.218.218 0 0 1-.085.024.2.2 0 0 1-.069-.007.213.213 0 0 1-.08-.038.243.243 0 0 1-.059-.067.318.318 0 0 1-.037-.09.462.462 0 0 1 0-.222.166.166 0 0 1 .04-.07.116.116 0 0 1 .06-.031.197.197 0 0 1 .08.005.278.278 0 0 1 .12.06.562.562 0 0 1 .035.03.06.06 0 0 0 .021.014h.01c.002 0 .004-.004.005-.008a.384.384 0 0 0 .005-.051Z" style="fill:#000;fill-opacity:1;fill-rule:nonzero;stroke:none"/></g></g></g></svg>
