<?xml version="1.0" encoding="UTF-8" standalone="no"?>
<!-- Created with Inkscape (http://www.inkscape.org/) -->

<svg
   version="1.1"
   id="svg132"
   width="224.31999"
   height="224.31999"
   viewBox="0 0 224.31998 224.31998"
   sodipodi:docname="grover_icon.svg"
   inkscape:version="1.2.2 (732a01da63, 2022-12-09)"
   xmlns:inkscape="http://www.inkscape.org/namespaces/inkscape"
   xmlns:sodipodi="http://sodipodi.sourceforge.net/DTD/sodipodi-0.dtd"
   xmlns="http://www.w3.org/2000/svg"
   xmlns:svg="http://www.w3.org/2000/svg">
  <defs
     id="defs136">
    <clipPath
       clipPathUnits="userSpaceOnUse"
       id="clipPath148">
      <path
         d="M 0,4.5776e-5 H 170.16 V 170.16005 H 0 Z"
         clip-rule="evenodd"
         id="path146" />
    </clipPath>
    <clipPath
       clipPathUnits="userSpaceOnUse"
       id="clipPath180">
      <path
         d="M 9.84,121.44 H 107.76 V 23.52 H 9.84 Z"
         clip-rule="evenodd"
         id="path178" />
    </clipPath>
    <clipPath
       clipPathUnits="userSpaceOnUse"
       id="clipPath190">
      <path
         d="M 0,0 H 23.291 V 23.286 H 0 Z"
         id="path188" />
    </clipPath>
    <clipPath
       clipPathUnits="userSpaceOnUse"
       id="clipPath202">
      <path
         d="M -1.5259e-5,170.16 H 170.16 V 6.1035e-5 H -1.5259e-5"
         clip-rule="evenodd"
         id="path200" />
    </clipPath>
    <clipPath
       clipPathUnits="userSpaceOnUse"
       id="clipPath212">
      <path
         d="M -1.5259e-5,170.16 H 170.16 V 6.1035e-5 H -1.5259e-5"
         clip-rule="evenodd"
         id="path210" />
    </clipPath>
    <clipPath
       clipPathUnits="userSpaceOnUse"
       id="clipPath226">
      <path
         d="M -1.3351e-5,170.16 H 170.16 V 7.6294e-5 L -1.3351e-5,4.5776e-5"
         clip-rule="evenodd"
         id="path224" />
    </clipPath>
    <clipPath
       clipPathUnits="userSpaceOnUse"
       id="clipPath236">
      <path
         d="M -1.3351e-5,170.16 H 170.16 V 7.6294e-5 L -1.3351e-5,4.5776e-5"
         clip-rule="evenodd"
         id="path234" />
    </clipPath>
  </defs>
  <sodipodi:namedview
     id="namedview134"
     pagecolor="#ffffff"
     bordercolor="#000000"
     borderopacity="0.25"
     inkscape:showpageshadow="2"
     inkscape:pageopacity="0.0"
     inkscape:pagecheckerboard="0"
     inkscape:deskcolor="#d1d1d1"
     showgrid="false"
     inkscape:zoom="3.7596966"
     inkscape:cx="111.04619"
     inkscape:cy="112.11011"
     inkscape:window-width="1920"
     inkscape:window-height="1111"
     inkscape:window-x="-9"
     inkscape:window-y="-9"
     inkscape:window-maximized="1"
     inkscape:current-layer="g140">
    <inkscape:page
       x="0"
       y="0"
       id="page138"
       width="224.31998"
       height="224.31998" />
  </sodipodi:namedview>
  <g
     id="g140"
     inkscape:groupmode="layer"
     inkscape:label="Page 1"
     transform="matrix(1.3333333,0,0,-1.3333333,-1.28,225.59999)">
    <path
       d="M 1.44,140.84 C 1.44,156.24 13.923,168.72 29.321,168.72 H 140.84 C 156.24,168.72 168.72,156.24 168.72,140.84 V 29.321 C 168.72,13.923 156.24,1.44 140.84,1.44 H 29.321 C 13.923,1.44 1.44,13.923 1.44,29.321 Z"
       style="fill:#f2f2f2;fill-opacity:1;fill-rule:evenodd;stroke:none"
       id="path152" />
    <path
       d="M 1.44,140.84 C 1.44,156.24 13.923,168.72 29.321,168.72 H 140.84 C 156.24,168.72 168.72,156.24 168.72,140.84 V 29.321 C 168.72,13.923 156.24,1.44 140.84,1.44 H 29.321 C 13.923,1.44 1.44,13.923 1.44,29.321 Z"
       style="fill:none;stroke:#000000;stroke-width:0.96;stroke-linecap:butt;stroke-linejoin:miter;stroke-miterlimit:10;stroke-dasharray:none;stroke-opacity:1"
       id="path154" />
    <path
       d="M 117.6,109.2 C 117.6,111.85 119.75,114 122.4,114 H 141.6 C 144.25,114 146.4,111.85 146.4,109.2 V 90 C 146.4,87.349 144.25,85.2 141.6,85.2 H 122.4 C 119.75,85.2 117.6,87.349 117.6,90 Z"
       style="fill:#000000;fill-opacity:1;fill-rule:evenodd;stroke:none"
       id="path156" />
    <path
       d="M 117.6,109.2 C 117.6,111.85 119.75,114 122.4,114 H 141.6 C 144.25,114 146.4,111.85 146.4,109.2 V 90 C 146.4,87.349 144.25,85.2 141.6,85.2 H 122.4 C 119.75,85.2 117.6,87.349 117.6,90 Z"
       style="fill:none;stroke:#000000;stroke-width:0.96;stroke-linecap:butt;stroke-linejoin:miter;stroke-miterlimit:10;stroke-dasharray:none;stroke-opacity:1"
       id="path158" />
    <path
       d="M 117.6,66.279 132,77.28 146.4,66.279 140.9,48.48 H 123.1 Z"
       style="fill:#000000;fill-opacity:1;fill-rule:evenodd;stroke:none"
       id="path160" />
    <path
       d="M 117.6,66.279 132,77.28 146.4,66.279 140.9,48.48 H 123.1 Z"
       style="fill:none;stroke:#000000;stroke-width:0.96;stroke-linecap:butt;stroke-linejoin:miter;stroke-miterlimit:10;stroke-dasharray:none;stroke-opacity:1"
       id="path162" />
    <path
       d="M 78.96,49.68 85.44,62.64 H 101.28 L 107.76,49.68 101.28,36.72 H 85.44 Z"
       style="fill:#000000;fill-opacity:1;fill-rule:evenodd;stroke:none"
       id="path164" />
    <path
       d="M 78.96,49.68 85.44,62.64 H 101.28 L 107.76,49.68 101.28,36.72 H 85.44 Z"
       style="fill:none;stroke:#000000;stroke-width:0.96;stroke-linecap:butt;stroke-linejoin:miter;stroke-miterlimit:10;stroke-dasharray:none;stroke-opacity:1"
       id="path166" />
    <path
       d="M 78.96,126 H 86.16 V 133.2 H 100.56 V 126 H 107.76 V 111.6 H 100.56 V 104.4 H 86.16 V 111.6 H 78.96 Z"
       style="fill:#000000;fill-opacity:1;fill-rule:evenodd;stroke:none"
       id="path168" />
    <path
       d="M 78.96,126 H 86.16 V 133.2 H 100.56 V 126 H 107.76 V 111.6 H 100.56 V 104.4 H 86.16 V 111.6 H 78.96 Z"
       style="fill:none;stroke:#000000;stroke-width:0.96;stroke-linecap:butt;stroke-linejoin:miter;stroke-miterlimit:10;stroke-dasharray:none;stroke-opacity:1"
       id="path170" />
    <path
       d="M 41.04,85.2 C 41.04,116.22 67.742,141.36 100.68,141.36 133.62,141.36 160.32,116.22 160.32,85.2 160.32,54.184 133.62,29.04 100.68,29.04 67.742,29.04 41.04,54.184 41.04,85.2 Z"
       style="fill:none;stroke:#000000;stroke-width:0.96;stroke-linecap:butt;stroke-linejoin:miter;stroke-miterlimit:10;stroke-dasharray:none;stroke-opacity:1"
       id="path172" />
    <g
       id="g174">
      <g
         id="g176"
         clip-path="url(#clipPath180)">
        <g
           id="g182"
           transform="matrix(0,-1.36,1.36,-1.88e-7,9.84,121.44)">
          <g
             id="g184"
             transform="scale(3.0913,3.092)">
            <g
               id="g186"
               clip-path="url(#clipPath190)">
              <path
                 d="M 20.662,4.9999 17.662,7.9999 C 17.254,8.4079 16.702,8.5519 16.174,8.4559 L 15.118,9.5119 C 16.054,10.712 16.606,12.248 16.606,13.88 16.606,17.84 13.366,21.08 9.4058,21.08 5.4458,21.08 2.2058,17.84 2.2058,13.88 2.2058,9.9199 5.4458,6.6799 9.4058,6.6799 11.038,6.6799 12.55,7.2319 13.774,8.1679 L 14.83,7.1119 C 14.734,6.5839 14.878,6.0319 15.286,5.6239 L 18.286,2.6239 C 18.622,2.2879 19.054,2.1199 19.486,2.1199 19.918,2.1199 20.35,2.2879 20.686,2.6239 21.31,3.2959 21.31,4.3519 20.662,4.9999 Z M 9.3818,8.1439 C 6.2138,8.1439 3.6218,10.736 3.6218,13.904 3.6218,17.072 6.2138,19.664 9.3818,19.664 12.55,19.664 15.142,17.072 15.142,13.904 15.142,10.736 12.55,8.1439 9.3818,8.1439 Z"
                 style="fill:#595959;fill-opacity:0.89804;fill-rule:nonzero;stroke:none"
                 id="path192" />
              <path
                 d="M 20.57,4.9166 20.578,4.9083 17.578,7.9083 17.588,7.8993 17.258,8.1618 17.285,8.1454 16.918,8.3029 16.945,8.2949 16.555,8.3624 16.584,8.361 16.132,8.3268 14.966,9.4925 15.65,10.534 15.64,10.516 16.105,11.581 16.1,11.568 16.273,12.131 16.27,12.12 16.39,12.698 16.389,12.69 16.471,13.282 16.47,13.27 16.492,13.878 16.493,13.867 16.455,14.602 16.456,14.59 16.344,15.302 16.346,15.292 16.173,15.982 16.178,15.969 15.93,16.629 15.934,16.619 15.634,17.249 15.64,17.237 15.273,17.83 15.279,17.822 14.866,18.377 14.874,18.367 14.409,18.877 14.417,18.87 13.907,19.335 13.916,19.327 13.361,19.739 13.369,19.734 12.777,20.101 12.788,20.095 12.158,20.395 12.168,20.391 11.508,20.638 11.521,20.634 10.831,20.807 10.841,20.805 10.129,20.917 10.141,20.916 9.4064,20.953 H 9.4186 L 8.6836,20.916 8.6962,20.917 7.9837,20.805 7.9941,20.807 7.3041,20.634 7.3172,20.638 6.6572,20.391 6.6666,20.395 6.0366,20.095 6.0483,20.101 5.4558,19.734 5.4642,19.739 4.9092,19.327 4.9184,19.335 4.4084,18.87 4.4163,18.877 3.9513,18.367 3.9589,18.377 3.5464,17.822 3.5521,17.83 3.1846,17.237 3.191,17.249 2.891,16.619 2.895,16.629 2.6475,15.969 2.6515,15.982 2.479,15.292 2.4811,15.302 2.3686,14.59 2.37,14.602 2.3325,13.867 V 13.879 L 2.37,13.144 2.3686,13.157 2.4811,12.445 2.479,12.455 2.6515,11.765 2.6475,11.778 2.895,11.118 2.891,11.127 3.191,10.497 3.1846,10.509 3.5521,9.9166 3.5464,9.9249 3.9589,9.3699 3.9513,9.3792 4.4163,8.8692 4.4084,8.877 4.9184,8.412 4.9092,8.4197 5.4642,8.0072 5.4558,8.0128 6.0483,7.6454 6.0366,7.6517 6.6666,7.3517 6.6572,7.3557 7.3172,7.1082 7.3041,7.1123 7.9941,6.9398 7.9837,6.9419 8.6962,6.8294 8.6836,6.8307 9.4186,6.7932 9.4081,6.7933 10.016,6.8158 10.003,6.8147 10.596,6.8972 10.588,6.8959 11.166,7.0159 11.154,7.013 11.709,7.1855 11.697,7.1809 12.762,7.6459 12.744,7.6364 13.794,8.3196 14.959,7.1542 14.925,6.7017 14.923,6.7313 14.991,6.3413 14.983,6.3681 15.14,6.0006 15.124,6.028 15.387,5.698 15.377,5.7082 18.377,2.7082 18.371,2.7145 18.633,2.4895 18.611,2.5046 18.911,2.3471 18.891,2.3555 19.206,2.258 19.181,2.2629 19.504,2.2329 H 19.481 L 19.804,2.2629 19.779,2.258 20.094,2.3555 20.073,2.3465 20.366,2.504 20.346,2.4906 20.616,2.7156 20.596,2.6953 20.799,2.9653 20.788,2.9481 20.938,3.2406 20.929,3.2169 21.011,3.5244 21.008,3.5044 21.038,3.8269 V 3.8019 L 21.001,4.1244 21.005,4.1045 20.915,4.412 20.924,4.3898 20.774,4.6748 20.788,4.6541 Z M 20.98,4.7978 21.142,4.4911 21.238,4.1623 21.278,3.8172 21.246,3.472 21.158,3.1423 20.997,2.8294 20.78,2.54 20.49,2.2982 20.177,2.1295 19.839,2.0248 19.492,1.9926 19.146,2.0248 18.809,2.1293 18.487,2.2982 18.211,2.5351 15.203,5.5432 14.926,5.8911 14.757,6.2864 14.684,6.705 14.715,7.1173 14.75,7.0233 13.693,8.0808 13.843,8.0651 12.867,7.4297 11.787,6.958 11.22,6.7818 10.633,6.6599 10.031,6.576 9.4117,6.553 8.665,6.5911 7.941,6.7055 7.2392,6.8809 6.568,7.1326 5.9273,7.4377 5.3249,7.8114 4.761,8.2305 4.2425,8.7032 3.7697,9.2218 3.3506,9.7857 2.9769,10.388 2.6718,11.029 2.4201,11.7 2.2447,12.402 2.1304,13.126 2.0922,13.873 2.1304,14.621 2.2447,15.345 2.4201,16.047 2.6718,16.718 2.9769,17.358 3.3506,17.961 3.7697,18.525 4.2425,19.043 4.761,19.516 5.3249,19.935 5.9273,20.309 6.568,20.614 7.2392,20.866 7.941,21.041 8.665,21.155 9.4125,21.194 10.16,21.155 10.884,21.041 11.586,20.866 12.257,20.614 12.898,20.309 13.5,19.935 14.064,19.516 14.583,19.043 15.055,18.525 15.474,17.961 15.848,17.358 16.153,16.718 16.405,16.047 16.58,15.345 16.695,14.621 16.733,13.874 16.71,13.255 16.626,12.653 16.504,12.066 16.328,11.491 15.856,10.411 15.22,9.4424 15.205,9.5932 16.262,8.5357 16.168,8.5706 16.581,8.6017 16.999,8.5292 17.395,8.3598 17.743,8.083 20.751,5.0742 Z M 9.3825,8.023 8.785,8.0536 8.2031,8.1455 7.6366,8.291 7.1006,8.49 6.588,8.7349 6.1029,9.0275 5.2322,9.7454 4.5146,10.616 4.2142,11.101 3.9692,11.622 3.7702,12.157 3.6247,12.724 3.5329,13.306 3.5022,13.903 3.5329,14.501 3.6247,15.083 3.7702,15.649 3.9693,16.185 4.2144,16.698 4.5146,17.183 5.2322,18.054 6.1024,18.771 6.5873,19.071 7.1006,19.316 7.6366,19.516 8.2031,19.661 8.785,19.753 9.3825,19.784 9.98,19.753 10.562,19.661 11.128,19.516 11.664,19.317 12.185,19.072 12.67,18.771 13.54,18.054 14.258,17.183 14.551,16.698 14.796,16.185 14.995,15.649 15.14,15.083 15.232,14.501 15.263,13.903 15.232,13.306 15.14,12.724 14.995,12.157 14.796,11.622 14.551,11.102 14.258,10.616 13.54,9.7454 12.67,9.0275 12.184,8.7347 11.664,8.4899 11.128,8.291 10.562,8.1455 9.98,8.0536 Z M 9.9613,8.2932 9.9488,8.2919 10.519,8.3819 10.508,8.3796 11.063,8.5221 11.051,8.5184 11.576,8.7134 11.566,8.7095 12.076,8.9495 12.065,8.9436 12.538,9.2286 12.524,9.2184 13.379,9.9234 13.362,9.9072 14.067,10.762 14.057,10.748 14.342,11.22 14.336,11.209 14.576,11.719 14.572,11.71 14.767,12.235 14.764,12.223 14.906,12.778 14.904,12.767 14.994,13.337 14.993,13.324 15.023,13.909 V 13.897 L 14.993,14.482 14.994,14.47 14.904,15.04 14.906,15.028 14.764,15.583 14.767,15.571 14.572,16.096 14.577,16.086 14.337,16.589 14.342,16.579 14.057,17.051 14.067,17.037 13.362,17.892 13.379,17.876 12.524,18.581 12.537,18.571 12.064,18.864 12.076,18.857 11.566,19.097 11.576,19.093 11.051,19.288 11.063,19.284 10.508,19.427 10.519,19.425 9.9488,19.515 9.9613,19.513 9.3763,19.543 H 9.3886 L 8.8036,19.513 8.8162,19.515 8.2462,19.425 8.2574,19.427 7.7024,19.284 7.7143,19.288 7.1893,19.093 7.1993,19.097 6.6968,18.857 6.7082,18.864 6.2357,18.571 6.2489,18.581 5.3939,17.876 5.4102,17.892 4.7052,17.037 4.7146,17.05 4.4221,16.578 4.4284,16.589 4.1884,16.086 4.1926,16.096 3.9976,15.571 4.0013,15.583 3.8588,15.028 3.8611,15.04 3.7711,14.47 3.7725,14.482 3.7425,13.897 V 13.909 L 3.7725,13.324 3.7711,13.337 3.8611,12.767 3.8588,12.778 4.0013,12.223 3.9976,12.235 4.1926,11.71 4.1887,11.719 4.4287,11.209 4.4221,11.221 4.7146,10.749 4.7052,10.762 5.4102,9.9072 5.3939,9.9234 6.2489,9.2184 6.2345,9.2286 6.707,8.9436 6.6968,8.9492 7.1993,8.7092 7.1893,8.7134 7.7143,8.5184 7.7024,8.5221 8.2574,8.3796 8.2462,8.3819 8.8162,8.2919 8.8036,8.2932 9.3886,8.2632 H 9.3763 Z"
                 style="fill:#404040;fill-opacity:1;fill-rule:nonzero;stroke:none"
                 id="path194" />
            </g>
          </g>
        </g>
      </g>
    </g>
    <g
       id="g196">
      <g
         id="g198"
         clip-path="url(#clipPath202)">
        <path
           d="M 51.571,85.539 82.428,95.173 71.622,64.707 Z"
           style="fill:#000000;fill-opacity:1;fill-rule:evenodd;stroke:none"
           id="path204" />
      </g>
    </g>
    <g
       id="g206">
      <g
         id="g208"
         clip-path="url(#clipPath212)">
        <path
           d="M 51.571,85.539 82.428,95.173 71.622,64.707 Z"
           style="fill:none;stroke:#000000;stroke-width:1;stroke-linecap:butt;stroke-linejoin:miter;stroke-miterlimit:10;stroke-dasharray:none;stroke-opacity:1"
           id="path214" />
      </g>
    </g>
    <path
       d="M 20.64,40.56 C 20.64,43.874 23.273,46.56 26.52,46.56 29.767,46.56 32.4,43.874 32.4,40.56 32.4,37.246 29.767,34.56 26.52,34.56 23.273,34.56 20.64,37.246 20.64,40.56 Z"
       style="fill:#ffffff;fill-opacity:1;fill-rule:evenodd;stroke:none"
       id="path216" />
    <path
       d="M 20.64,40.56 C 20.64,43.874 23.273,46.56 26.52,46.56 29.767,46.56 32.4,43.874 32.4,40.56 32.4,37.246 29.767,34.56 26.52,34.56 23.273,34.56 20.64,37.246 20.64,40.56 Z"
       style="fill:none;stroke:#000000;stroke-width:0.96;stroke-linecap:butt;stroke-linejoin:miter;stroke-miterlimit:10;stroke-dasharray:none;stroke-opacity:1"
       id="path218" />
    <g
       id="g220">
      <g
         id="g222"
         clip-path="url(#clipPath226)">
        <path
           d="M 21.486,40.863 30.259,43.602 27.187,34.94 Z"
           style="fill:#000000;fill-opacity:1;fill-rule:evenodd;stroke:none"
           id="path228" />
      </g>
    </g>
    <g
       id="g230">
      <g
         id="g232"
         clip-path="url(#clipPath236)">
        <path
           d="M 21.486,40.863 30.259,43.602 27.187,34.94 Z"
           style="fill:none;stroke:#000000;stroke-width:1;stroke-linecap:butt;stroke-linejoin:miter;stroke-miterlimit:10;stroke-dasharray:none;stroke-opacity:1"
           id="path238" />
      </g>
    </g>
  </g>
</svg>
