<?xml version="1.0" encoding="UTF-8" standalone="no"?>
<!-- Created with Inkscape (http://www.inkscape.org/) -->

<svg
   version="1.1"
   id="svg1"
   width="210.8392"
   height="210.28642"
   viewBox="0 0 210.8392 210.28642"
   xmlns="http://www.w3.org/2000/svg"
   xmlns:svg="http://www.w3.org/2000/svg">
  <defs
     id="defs1">
    <clipPath
       clipPathUnits="userSpaceOnUse"
       id="clipPath4">
      <path
         d="M -1.5259e-5,167.28 H 167.28 V 4.5776e-5 H -2.2888e-5"
         clip-rule="evenodd"
         id="path4" />
    </clipPath>
    <clipPath
       clipPathUnits="userSpaceOnUse"
       id="clipPath7">
      <path
         d="M 0,4.5776e-5 H 167.28 V 167.28005 H 0 Z"
         clip-rule="evenodd"
         id="path7" />
    </clipPath>
    <clipPath
       clipPathUnits="userSpaceOnUse"
       id="clipPath10">
      <path
         d="M 2.493e-6,0 H 167.28 V 167.28 H 2.493e-6 Z"
         transform="matrix(1,0,0,-1,-39.336001,92.184002)"
         clip-rule="evenodd"
         id="path10" />
    </clipPath>
    <clipPath
       clipPathUnits="userSpaceOnUse"
       id="clipPath12">
      <path
         d="M 2.493e-6,0 H 167.28 V 167.28 H 2.493e-6 Z"
         transform="matrix(1,0,0,-1,-61.200002,92.184002)"
         clip-rule="evenodd"
         id="path12" />
    </clipPath>
    <clipPath
       clipPathUnits="userSpaceOnUse"
       id="clipPath14">
      <path
         d="M 2.493e-6,0 H 167.28 V 167.28 H 2.493e-6 Z"
         transform="matrix(1,0,0,-1,-81.960002,92.184002)"
         clip-rule="evenodd"
         id="path14" />
    </clipPath>
    <clipPath
       clipPathUnits="userSpaceOnUse"
       id="clipPath15">
      <path
         d="M 0,0 H 11.658 V 11.657 H 0 Z"
         id="path15" />
    </clipPath>
    <clipPath
       clipPathUnits="userSpaceOnUse"
       id="clipPath17">
      <path
         d="m 7.0895,7.1197 h 153.07 v 153.07 H 7.0895 Z"
         transform="matrix(1.3333333,0,0,-1.3333333,0,223.04)"
         clip-rule="evenodd"
         id="path17" />
    </clipPath>
    <clipPath
       clipPathUnits="userSpaceOnUse"
       id="clipPath19">
      <path
         d="M -7.629e-6,167.28 H 167.28 V 6.1035e-5 L -1.5259e-5,4.5776e-5"
         clip-rule="evenodd"
         id="path19" />
    </clipPath>
    <clipPath
       clipPathUnits="userSpaceOnUse"
       id="clipPath21">
      <path
         d="M -7.629e-6,167.28 H 167.28 V 3.0518e-5 H -2.2888e-5"
         clip-rule="evenodd"
         id="path21" />
    </clipPath>
  </defs>
  <g
     id="g1"
     transform="translate(-6.3567782,-6.6331521)">
    <g
       id="g2"
       transform="matrix(0.9454673,0,0,0.94298853,6.3567781,6.6331593)"
       style="fill:none">
      <path
         id="path2"
         d="M 0,0.030014 H 167.25 V 167.28001 H 0 Z"
         style="fill:none;fill-opacity:1;fill-rule:evenodd;stroke:none"
         transform="matrix(1.3333333,0,0,-1.3333333,0,223.04)" />
    </g>
    <g
       id="g3">
      <path
         id="path3"
         d="M 121.62,65.464 150.59,37.931 131.34,17.677 102.37,45.21 Z"
         style="fill:#404040;fill-opacity:1;fill-rule:evenodd;stroke:#172c51;stroke-width:1;stroke-linecap:butt;stroke-linejoin:miter;stroke-miterlimit:10;stroke-dasharray:none;stroke-opacity:1"
         transform="matrix(1.3333333,0,0,-1.3333333,0,223.04)"
         clip-path="url(#clipPath4)" />
    </g>
    <g
       id="g4"
       style="stroke-width:0.9;stroke-dasharray:none">
      <path
         id="path5"
         d="m 7.0895,134.68 c 0,14.09 11.4225,25.51 25.5125,25.51 H 134.65 c 14.09,0 25.51,-11.42 25.51,-25.51 V 32.632 c 0,-14.09 -11.42,-25.5124 -25.51,-25.5124 H 32.602 C 18.512,7.1196 7.0895,18.542 7.0895,32.632 Z"
         style="fill:#f2f2f2;fill-opacity:1;fill-rule:evenodd;stroke:#000000;stroke-width:0.675;stroke-linecap:butt;stroke-linejoin:miter;stroke-miterlimit:10;stroke-dasharray:none;stroke-opacity:1"
         transform="matrix(1.3333333,0,0,-1.3333333,0,223.04)" />
    </g>
    <g
       id="g5">
      <path
         id="path6"
         d="m 29.4,78.96 h 77.88 v 32.16 H 29.4 Z"
         style="fill:none;stroke:#000000;stroke-width:0.14;stroke-linecap:butt;stroke-linejoin:miter;stroke-miterlimit:10;stroke-dasharray:none;stroke-opacity:0"
         transform="matrix(1.3333333,0,0,-1.3333333,0,223.04)"
         clip-path="url(#clipPath7)" />
    </g>
    <g
       id="g7">
      <path
         id="path8"
         d="m 57.212,107.09 h 1.507 V 88.876 h -1.507 z m 20.76,0 h 1.507 V 88.876 h -1.507 z m 21.507,0.04 3.901,-8.782 v -0.725 l -3.901,-8.796 -1.047,0.371 3.138,8.788 -3.138,8.794 z m -62.236,0 1.037,-0.37 -3.141,-8.784 3.141,-8.797 -1.037,-0.352 -3.905,8.787 v 0.724 z"
         style="fill:#404040;fill-opacity:1;fill-rule:evenodd;stroke:none"
         transform="matrix(1.3333333,0,0,-1.3333333,0,223.04)" />
      <path
         id="path9"
         d="M 11.204039,-13.815727 8.3446641,-0.88994531 C 9.1181016,-1.0364297 9.789,-1.3499063 10.360289,-1.8274453 c 0.568359,-0.4746094 1.007813,-1.0927735 1.3125,-1.8515625 0.304688,-0.7558594 0.457031,-1.584961 0.457031,-2.484375 0,-0.5390625 -0.04101,-1.0605469 -0.117187,-1.5703125 -0.07031,-0.506836 -0.172852,-0.9492188 -0.304688,-1.3242188 l 0.117188,-0.6445312 h 2.636719 c 0.123046,0.5478515 0.1875,1.1484375 0.1875,1.8046875 0,1.453125 -0.263672,2.7861328 -0.785157,3.9960937 -0.524414,1.2128907 -1.265625,2.1738282 -2.226562,2.8828125 -0.955078,0.70312504 -2.1181642,1.08398441 -3.4921877,1.14843754 L 7.2431016,4.2311484 H 4.8641953 L 5.7782578,0.09442969 c -1.321289,-0.09960938 -2.3291015,-0.421875 -3.0234375,-0.9609375 -0.6884765,-0.54492189 -1.03125,-1.27148439 -1.03125,-2.17968749 0,-0.2021485 0.014649,-0.4453125 0.046875,-0.7265625 0.038086,-0.2871094 0.087891,-0.5566406 0.1523438,-0.8085938 l 0.5039062,-2.109375 c 0.046875,-0.1787109 0.082031,-0.3662109 0.1054688,-0.5625 0.029297,-0.2021484 0.046875,-0.375 0.046875,-0.515625 0,-0.2167968 -0.041016,-0.3867187 -0.1171875,-0.5039062 -0.070312,-0.1171875 -0.1875,-0.1757813 -0.3515625,-0.1757813 -0.1728516,0 -0.3486328,0.058594 -0.5273438,0.1757813 -0.1728515,0.1113281 -0.3867187,0.2988281 -0.64453124,0.5625 l -0.703125,-0.6914063 C 0.648375,-8.7825234 1.023375,-9.0813516 1.3602891,-9.2922891 1.6942734,-9.5090859 2.0106797,-9.6585 2.3095078,-9.7376016 c 0.2958985,-0.084961 0.6386719,-0.1289062 1.03125,-0.1289062 0.6386719,0 1.125,0.1611328 1.453125,0.4804687 0.328125,0.3222657 0.4921875,0.7939453 0.4921875,1.4179688 0,0.477539 -0.070312,1.0048828 -0.2109375,1.5820312 l -0.5039062,1.96875 c -0.140625,0.5478516 -0.2109375,1.0839844 -0.2109375,1.6054688 0,0.5332031 0.1347656,0.9492187 0.4101562,1.2539062 0.28125,0.3046875 0.6972656,0.5097657 1.2539063,0.60937504 l 2.8125,-12.86718794 z m 0,0"
         style="fill:#404040;fill-opacity:1;fill-rule:nonzero;stroke:none"
         aria-label="ð"
         transform="matrix(1.3333333,0,0,1.3333333,52.448,100.128)"
         clip-path="url(#clipPath10)" />
      <path
         id="path11"
         d="m 11.262891,-4.6516641 c -0.1875,0.8759766 -0.442383,1.6289063 -0.761719,2.2617188 -0.313477,0.6269531 -0.6914064,1.1220703 -1.1367189,1.48828124 -0.4453125,0.36914062 -0.9609375,0.63867187 -1.546875,0.80859375 -0.5859375,0.1640625 -1.3066406,0.24609375 -2.15625,0.24609375 -0.5566406,0 -1.078125,-0.0703125 -1.5703125,-0.2109375 C 3.5988281,-0.19853906 3.1681641,-0.41240625 2.8019531,-0.70244531 2.4416016,-0.99834375 2.1574219,-1.3645547 1.9464844,-1.8040078 1.7355469,-2.2405313 1.6300781,-2.7649453 1.6300781,-3.3743203 c 0,-0.328125 0.017578,-0.6796875 0.058594,-1.0546875 0.046875,-0.3808594 0.1582031,-0.9726563 0.3398437,-1.7695313 l 1.0195313,-4.5117189 c 0.084961,-0.380859 0.1289062,-0.764648 0.1289062,-1.148437 0,-0.272461 -0.067383,-0.47168 -0.1992187,-0.597657 -0.1259766,-0.131836 -0.3339844,-0.216796 -0.6210938,-0.257812 l 0.140625,-0.644531 h 4.921875 l -0.140625,0.644531 c -0.3691406,0.111328 -0.6416015,0.298828 -0.8203125,0.5625 -0.1728515,0.257812 -0.3398437,0.738281 -0.5039062,1.441406 l -1.3125,6.0000002 c -0.1025391,0.430664 -0.1699219,0.7939453 -0.1992188,1.0898437 -0.032227,0.2900391 -0.046875,0.5683594 -0.046875,0.8320313 0,0.5859375 0.1435547,1.0371094 0.4335938,1.3476562 0.2871094,0.3046875 0.7148437,0.45703129 1.2773437,0.45703129 0.553711,0 1.0136719,-0.12011719 1.3828125,-0.36328129 0.375,-0.2402343 0.6738282,-0.5859375 0.9023438,-1.03125 0.2255859,-0.4511718 0.4160156,-1.03125 0.5742187,-1.734375 l 1.4531252,-6.5976564 c 0.06152,-0.257812 0.09668,-0.474609 0.105468,-0.65625 0.01465,-0.178711 0.02344,-0.342773 0.02344,-0.492187 0,-0.272461 -0.06445,-0.47168 -0.1875,-0.597657 -0.125977,-0.131836 -0.333984,-0.216796 -0.6210937,-0.257812 l 0.1289063,-0.644531 h 4.1718744 l -0.140625,0.644531 c -0.375,0.111328 -0.65332,0.298828 -0.832031,0.5625 -0.18164,0.266601 -0.339844,0.74707 -0.480469,1.441406 z m 0,0"
         style="fill:#404040;fill-opacity:1;fill-rule:nonzero;stroke:none"
         aria-label="ð‘¼"
         transform="matrix(1.3333333,0,0,1.3333333,81.6,100.128)"
         clip-path="url(#clipPath12)" />
      <path
         id="path13"
         d="M 11.204062,-13.815727 8.3446875,-0.88994531 C 9.118125,-1.0364297 9.7890234,-1.3499063 10.360312,-1.8274453 c 0.56836,-0.4746094 1.007813,-1.0927735 1.3125,-1.8515625 0.304688,-0.7558594 0.457032,-1.584961 0.457032,-2.484375 0,-0.5390625 -0.04102,-1.0605469 -0.117188,-1.5703125 -0.07031,-0.506836 -0.172851,-0.9492188 -0.304687,-1.3242188 l 0.117187,-0.6445312 h 2.636719 c 0.123047,0.5478515 0.1875,1.1484375 0.1875,1.8046875 0,1.453125 -0.263672,2.7861328 -0.785156,3.9960937 -0.524414,1.2128907 -1.265625,2.1738282 -2.226563,2.8828125 -0.955078,0.70312504 -2.1181638,1.08398441 -3.4921873,1.14843754 L 7.243125,4.2311484 H 4.8642187 L 5.7782812,0.09442969 c -1.321289,-0.09960938 -2.3291015,-0.421875 -3.0234375,-0.9609375 -0.6884765,-0.54492189 -1.03125,-1.27148439 -1.03125,-2.17968749 0,-0.2021485 0.014649,-0.4453125 0.046875,-0.7265625 0.038086,-0.2871094 0.087891,-0.5566406 0.1523438,-0.8085938 l 0.5039062,-2.109375 c 0.046875,-0.1787109 0.082031,-0.3662109 0.1054688,-0.5625 0.029297,-0.2021484 0.046875,-0.375 0.046875,-0.515625 0,-0.2167968 -0.041016,-0.3867187 -0.1171875,-0.5039062 -0.070312,-0.1171875 -0.1875,-0.1757813 -0.3515625,-0.1757813 -0.1728516,0 -0.3486328,0.058594 -0.5273438,0.1757813 -0.1728515,0.1113281 -0.3867187,0.2988281 -0.6445312,0.5625 l -0.703125,-0.6914063 c 0.41308594,-0.3808593 0.7880859,-0.6796875 1.125,-0.890625 0.3339844,-0.2167968 0.6503906,-0.3662109 0.9492187,-0.4453125 0.2958985,-0.084961 0.6386719,-0.1289062 1.03125,-0.1289062 0.6386719,0 1.125,0.1611328 1.453125,0.4804687 0.328125,0.3222657 0.4921875,0.7939453 0.4921875,1.4179688 0,0.477539 -0.070312,1.0048828 -0.2109375,1.5820312 l -0.5039062,1.96875 c -0.140625,0.5478516 -0.2109375,1.0839844 -0.2109375,1.6054688 0,0.5332031 0.1347656,0.9492187 0.4101562,1.2539062 0.28125,0.3046875 0.6972657,0.5097657 1.2539063,0.60937504 l 2.8125,-12.86718794 z m 0,0"
         style="fill:#404040;fill-opacity:1;fill-rule:nonzero;stroke:none"
         aria-label="ð"
         transform="matrix(1.3333333,0,0,1.3333333,109.28,100.128)"
         clip-path="url(#clipPath14)" />
    </g>
    <g
       id="g14">
      <g
         id="g16"
         clip-path="url(#clipPath17)">
        <path
           d="m 10.345,2.5004 -1.5,1.5 c -0.204,0.204 -0.48,0.276 -0.744,0.228 l -0.528,0.528 c 0.468,0.6 0.744,1.368 0.744,2.184 0,1.98 -1.62,3.5996 -3.6,3.5996 -1.98,0 -3.6,-1.6196 -3.6,-3.5996 0,-1.98 1.62,-3.6 3.6,-3.6 0.816,0 1.572,0.276 2.184,0.744 l 0.528,-0.528 c -0.048,-0.264 0.024,-0.54 0.228,-0.744 l 1.5,-1.5 c 0.168,-0.168 0.384,-0.252 0.6,-0.252 0.216,0 0.432,0.084 0.6,0.252 0.312,0.336 0.312,0.864 -0.012,1.188 z m -5.64,1.572 c -1.584,0 -2.88,1.296 -2.88,2.88 0,1.584 1.296,2.88 2.88,2.88 1.584,0 2.88,-1.296 2.88,-2.88 0,-1.584 -1.296,-2.88 -2.88,-2.88 z"
           style="fill:#404040;fill-opacity:1;fill-rule:nonzero;stroke:none"
           transform="matrix(17.507185,0,-4.94104e-8,-17.507752,9.4526667,213.5472)"
           clip-path="url(#clipPath15)"
           id="path16" />
      </g>
    </g>
    <g
       id="g17">
      <path
         id="path18"
         d="m 126.11,55.266 13.84,-14.101 -14.1,-13.84 -13.84,14.101 z"
         style="fill:#ffffff;fill-opacity:1;fill-rule:evenodd;stroke:#404040;stroke-width:1;stroke-linecap:butt;stroke-linejoin:miter;stroke-miterlimit:10;stroke-dasharray:none;stroke-opacity:1"
         transform="matrix(1.3333333,0,0,-1.3333333,0,223.04)"
         clip-path="url(#clipPath19)" />
    </g>
    <g
       id="g19">
      <path
         id="path20"
         d="m 124.61,43.497 3.85,-3.927 2.71,1.441 c 0.53,0.286 0.9,0.539 1.13,0.761 0.1,0.106 0.17,0.224 0.2,0.352 0.02,0.128 0,0.265 -0.07,0.411 -0.07,0.145 -0.26,0.377 -0.57,0.695 l 0.3,0.165 3.36,-3.425 -0.31,-0.152 c -0.28,0.292 -0.52,0.479 -0.72,0.56 -0.29,0.114 -0.54,0.152 -0.78,0.113 -0.33,-0.055 -0.81,-0.254 -1.44,-0.596 l -6.61,-3.543 c -0.55,-0.293 -0.92,-0.53 -1.1,-0.711 -0.16,-0.156 -0.23,-0.329 -0.2,-0.52 0.03,-0.191 0.23,-0.51 0.61,-0.957 l -0.3,-0.159 -3.25,3.312 0.32,0.14 c 0.33,-0.318 0.57,-0.506 0.73,-0.566 0.24,-0.093 0.45,-0.12 0.64,-0.08 0.27,0.051 0.76,0.266 1.46,0.645 l 3.36,1.79 -3.87,3.945 -3.36,-1.784 c -0.54,-0.289 -0.91,-0.528 -1.1,-0.717 -0.16,-0.155 -0.22,-0.328 -0.2,-0.517 0.03,-0.188 0.23,-0.506 0.61,-0.953 l -0.28,-0.178 -3.28,3.337 0.32,0.146 c 0.33,-0.322 0.57,-0.512 0.73,-0.572 0.24,-0.093 0.46,-0.122 0.65,-0.087 0.28,0.06 0.77,0.275 1.46,0.645 l 6.62,3.537 c 0.53,0.289 0.91,0.541 1.13,0.754 0.11,0.107 0.17,0.224 0.2,0.353 0.03,0.128 0,0.266 -0.07,0.413 -0.07,0.148 -0.26,0.383 -0.58,0.705 l 0.31,0.153 3.29,-3.356 -0.3,-0.159 c -0.27,0.284 -0.5,0.463 -0.69,0.535 -0.28,0.114 -0.53,0.15 -0.76,0.106 -0.31,-0.055 -0.79,-0.257 -1.45,-0.608 z"
         style="fill:#404040;fill-opacity:1;fill-rule:nonzero;stroke:none"
         transform="matrix(1.3333333,0,0,-1.3333333,0,223.04)"
         clip-path="url(#clipPath21)" />
    </g>
  </g>
</svg>
