<svg xml:space="preserve" width="396.8" height="124.64" xmlns="http://www.w3.org/2000/svg"><defs><clipPath clipPathUnits="userSpaceOnUse" id="a"><path d="M0 0h297.6v93.48H0Z" clip-rule="evenodd"/></clipPath><clipPath clipPathUnits="userSpaceOnUse" id="b"><path d="M10.92 40.92h29.16v29.16H10.92Z" clip-rule="evenodd"/></clipPath><clipPath clipPathUnits="userSpaceOnUse" id="c"><path d="M0 0h11.66v11.639H0Z"/></clipPath><clipPath clipPathUnits="userSpaceOnUse" id="d"><path d="M.085 11.554h11.52V.034H.085" clip-rule="evenodd"/></clipPath><clipPath clipPathUnits="userSpaceOnUse" id="e"><path d="M0 0h297.6v93.48H0Z" clip-rule="evenodd"/></clipPath><clipPath clipPathUnits="userSpaceOnUse" id="f"><path d="M0 0h297.6v93.48H0Z" clip-rule="evenodd"/></clipPath><clipPath clipPathUnits="userSpaceOnUse" id="g"><path d="M0 0h297.6v93.48H0Z" clip-rule="evenodd"/></clipPath><clipPath clipPathUnits="userSpaceOnUse" id="h"><path d="M0 0h297.6v93.48H0Z" clip-rule="evenodd"/></clipPath><clipPath clipPathUnits="userSpaceOnUse" id="i"><path d="M96.84 20.16H150v53.16H96.84Z" clip-rule="evenodd"/></clipPath><clipPath clipPathUnits="userSpaceOnUse" id="j"><path d="M0 0h5.89v5.894H0Z"/></clipPath><clipPath clipPathUnits="userSpaceOnUse" id="k"><path d="M.085 5.809h5.76V.049H.085" clip-rule="evenodd"/></clipPath><clipPath clipPathUnits="userSpaceOnUse" id="l"><path d="M.085 5.809h5.76V.049H.085" clip-rule="evenodd"/></clipPath><clipPath clipPathUnits="userSpaceOnUse" id="m"><path d="M.085 5.809h5.76V.049H.085" clip-rule="evenodd"/></clipPath><clipPath clipPathUnits="userSpaceOnUse" id="n"><path d="M.085 5.809h5.76V.049H.085" clip-rule="evenodd"/></clipPath><clipPath clipPathUnits="userSpaceOnUse" id="o"><path d="M.085 5.809h5.76V.049H.085" clip-rule="evenodd"/></clipPath><clipPath clipPathUnits="userSpaceOnUse" id="p"><path d="M.085 5.809h5.76V.049H.085" clip-rule="evenodd"/></clipPath><clipPath clipPathUnits="userSpaceOnUse" id="q"><path d="M.085 5.809h5.76V.049H.085" clip-rule="evenodd"/></clipPath><clipPath clipPathUnits="userSpaceOnUse" id="r"><path d="M.085 5.809h5.76V.049H.085" clip-rule="evenodd"/></clipPath><clipPath clipPathUnits="userSpaceOnUse" id="s"><path d="M.085 5.809h5.76V.049H.085" clip-rule="evenodd"/></clipPath><clipPath clipPathUnits="userSpaceOnUse" id="t"><path d="M.085 5.809h5.76V.049H.085" clip-rule="evenodd"/></clipPath><clipPath clipPathUnits="userSpaceOnUse" id="u"><path d="M.085 5.809h5.76V.049H.085" clip-rule="evenodd"/></clipPath><clipPath clipPathUnits="userSpaceOnUse" id="v"><path d="M.085 5.809h5.76V.049H.085" clip-rule="evenodd"/></clipPath><clipPath clipPathUnits="userSpaceOnUse" id="w"><path d="M.085 5.809h5.76V.049H.085" clip-rule="evenodd"/></clipPath><clipPath clipPathUnits="userSpaceOnUse" id="x"><path d="M.085 5.809h5.76V.049H.085" clip-rule="evenodd"/></clipPath><clipPath clipPathUnits="userSpaceOnUse" id="y"><path d="M.085 5.809h5.76V.049H.085" clip-rule="evenodd"/></clipPath><clipPath clipPathUnits="userSpaceOnUse" id="z"><path d="M.085 5.809h5.76V.049H.085" clip-rule="evenodd"/></clipPath><clipPath clipPathUnits="userSpaceOnUse" id="A"><path d="M.085 5.809h5.76V.049H.085" clip-rule="evenodd"/></clipPath><clipPath clipPathUnits="userSpaceOnUse" id="B"><path d="M.085 5.809h5.76V.049H.085" clip-rule="evenodd"/></clipPath><clipPath clipPathUnits="userSpaceOnUse" id="C"><path d="M.085 5.809h5.76V.049H.085" clip-rule="evenodd"/></clipPath><clipPath clipPathUnits="userSpaceOnUse" id="D"><path d="M.085 5.809h5.76V.049H.085" clip-rule="evenodd"/></clipPath><clipPath clipPathUnits="userSpaceOnUse" id="E"><path d="M.085 5.809h5.76V.049H.085" clip-rule="evenodd"/></clipPath><clipPath clipPathUnits="userSpaceOnUse" id="F"><path d="M.085 5.809h5.76V.049H.085" clip-rule="evenodd"/></clipPath><clipPath clipPathUnits="userSpaceOnUse" id="G"><path d="M.085 5.809h5.76V.049H.085" clip-rule="evenodd"/></clipPath><clipPath clipPathUnits="userSpaceOnUse" id="H"><path d="M.085 5.809h5.76V.049H.085" clip-rule="evenodd"/></clipPath><clipPath clipPathUnits="userSpaceOnUse" id="I"><path d="M.085 5.809h5.76V.049H.085" clip-rule="evenodd"/></clipPath><clipPath clipPathUnits="userSpaceOnUse" id="J"><path d="M.085 5.809h5.76V.049H.085" clip-rule="evenodd"/></clipPath><clipPath clipPathUnits="userSpaceOnUse" id="K"><path d="M.085 5.809h5.76V.049H.085" clip-rule="evenodd"/></clipPath><clipPath clipPathUnits="userSpaceOnUse" id="L"><path d="M.085 5.809h5.76V.049H.085" clip-rule="evenodd"/></clipPath><clipPath clipPathUnits="userSpaceOnUse" id="M"><path d="M.085 5.809h5.76V.049H.085" clip-rule="evenodd"/></clipPath><clipPath clipPathUnits="userSpaceOnUse" id="P"><path d="M0 0h297.6v93.48H0Z" clip-rule="evenodd"/></clipPath><clipPath clipPathUnits="userSpaceOnUse" id="Q"><path d="M0 93.48h297.6V0H0" clip-rule="evenodd"/></clipPath><clipPath clipPathUnits="userSpaceOnUse" id="R"><path d="M219.48 59.88h13.92V73.8h-13.92z" clip-rule="evenodd"/></clipPath><clipPath clipPathUnits="userSpaceOnUse" id="S"><path d="M0 0h11.66v11.639H0Z"/></clipPath><clipPath clipPathUnits="userSpaceOnUse" id="T"><path d="M0 93.48h297.6V0H0" clip-rule="evenodd"/></clipPath><clipPath clipPathUnits="userSpaceOnUse" id="U"><path d="M0 93.48h297.6V0H0" clip-rule="evenodd"/></clipPath><linearGradient x1="68.82" y1="115.92" x2="68.82" y2="63.6" gradientUnits="userSpaceOnUse" spreadMethod="pad" id="N"><stop style="stop-opacity:1;stop-color:#e5e5e5" offset="0"/><stop style="stop-opacity:1;stop-color:#e5e5e5" offset="1"/></linearGradient><linearGradient x1="68.82" y1="89.76" x2="68.82" y2="63.6" gradientUnits="userSpaceOnUse" spreadMethod="pad" id="O"><stop style="stop-opacity:1;stop-color:#cdcdcd" offset="0"/><stop style="stop-opacity:1;stop-color:#b8b8b8" offset="1"/></linearGradient><linearGradient x1="177.78" y1="105.48" x2="177.78" y2="65.88" gradientUnits="userSpaceOnUse" spreadMethod="pad" id="V"><stop style="stop-opacity:1;stop-color:#e5e5e5" offset="0"/><stop style="stop-opacity:1;stop-color:#e5e5e5" offset="1"/></linearGradient><linearGradient x1="177.78" y1="85.68" x2="177.78" y2="65.88" gradientUnits="userSpaceOnUse" spreadMethod="pad" id="W"><stop style="stop-opacity:1;stop-color:#cdcdcd" offset="0"/><stop style="stop-opacity:1;stop-color:#b8b8b8" offset="1"/></linearGradient></defs><g clip-path="url(#a)" transform="matrix(1.33333 0 0 -1.33333 0 124.64)"><path d="M0 0h297.6v93.48H0Z" style="fill:#fff;fill-opacity:1;fill-rule:evenodd;stroke:none"/></g><path d="m147.6 64.41 9.82 21.51M147.6 29.04l11.66-25.72" style="fill:none;stroke:#7f7f7f;stroke-width:.96;stroke-linecap:butt;stroke-linejoin:miter;stroke-miterlimit:10;stroke-dasharray:3.84,2.88;stroke-dashoffset:0;stroke-opacity:1" transform="matrix(1.33333 0 0 -1.33333 0 124.64)"/><path d="M157.44 84.859a5.264 5.264 0 0 0 5.26 5.261h127.48c2.9 0 5.26-2.356 5.26-5.261V8.502a5.264 5.264 0 0 0-5.26-5.262H162.7c-2.9 0-5.26 2.356-5.26 5.261z" style="fill:#f2f2f2;fill-opacity:1;fill-rule:evenodd;stroke:none" transform="matrix(1.33333 0 0 -1.33333 0 124.64)"/><path d="M157.44 84.859a5.264 5.264 0 0 0 5.26 5.261h127.48c2.9 0 5.26-2.356 5.26-5.261V8.502a5.264 5.264 0 0 0-5.26-5.262H162.7c-2.9 0-5.26 2.356-5.26 5.261z" style="fill:none;stroke:#7f7f7f;stroke-width:.96;stroke-linecap:butt;stroke-linejoin:miter;stroke-miterlimit:10;stroke-dasharray:3.84,2.88;stroke-dashoffset:0;stroke-opacity:1" transform="matrix(1.33333 0 0 -1.33333 0 124.64)"/><path d="M45.72 48.96h37.908V44.4H45.72Zm35.628 4.56 13.68-6.84-13.68-6.84z" style="fill:#000;fill-opacity:1;fill-rule:nonzero;stroke:none" transform="matrix(1.33333 0 0 -1.33333 0 124.64)"/><g clip-path="url(#b)" transform="matrix(1.33333 0 0 -1.33333 0 124.64)"><g clip-path="url(#c)" transform="matrix(2.501 0 0 2.505 10.92 40.92)"><path d="m4.236 3.825-1.37 1.369 1.37 1.37.338-.34-1.03-1.03 1.03-1.03ZM7.454 3.825l-.338.338 1.03 1.03-1.03 1.032.338.338 1.37-1.37Z" style="fill:#000;fill-opacity:1;fill-rule:nonzero;stroke:none"/><g clip-path="url(#d)"><path d="m5.041 3.835 1.148 2.77.444-.183-1.149-2.77Z" style="fill:#000;fill-opacity:1;fill-rule:nonzero;stroke:none"/></g><path d="M1.045 9.514v-7.44h9.6v7.44zm8.28-.72a.24.24 0 1 0 0-.48.24.24 0 0 0 0 .48zm-.84 0a.24.24 0 1 0 0-.48.24.24 0 0 0 0 .48zm-.84 0a.24.24 0 1 0 0-.48.24.24 0 0 0 0 .48zm2.28-6h-8.16v4.8h8.16z" style="fill:#000;fill-opacity:1;fill-rule:nonzero;stroke:none"/></g></g><g clip-path="url(#e)" transform="matrix(1.33333 0 0 -1.33333 0 124.64)"><text transform="matrix(1 0 0 -1 7.392 35.712)" style="font-style:italic;font-variant:normal;font-weight:400;font-size:9.984px;font-family:Calibri;-inkscape-font-specification:Calibri-Italic;writing-mode:lr-tb;fill:#000;fill-opacity:1;fill-rule:nonzero;stroke:none"><tspan x="0 5.1617279 7.4580479 12.589824 16.443647 20.287489 22.583809 26.75712 31.888897" y="0">Classical</tspan></text></g><g clip-path="url(#f)" transform="matrix(1.33333 0 0 -1.33333 0 124.64)"><text transform="matrix(1 0 0 -1 7.392 26.088)" style="font-style:italic;font-variant:normal;font-weight:400;font-size:9.96px;font-family:Calibri;-inkscape-font-specification:Calibri-Italic;writing-mode:lr-tb;fill:#000;fill-opacity:1;fill-rule:nonzero;stroke:none"><tspan x="0 5.1493201 8.5158005 13.66512 18.81444 22.170959 27.32028 35.228519" y="0">Program </tspan></text></g><g clip-path="url(#g)" transform="matrix(1.33333 0 0 -1.33333 0 124.64)"><text transform="matrix(1 0 0 -1 110.11 12.312)" style="font-style:italic;font-variant:normal;font-weight:400;font-size:9.984px;font-family:Calibri;-inkscape-font-specification:Calibri-Italic;writing-mode:lr-tb;fill:#000;fill-opacity:1;fill-rule:nonzero;stroke:none"><tspan x="0 6.2200322 10.68288 15.814656 19.199232 21.495552" y="0">Hybrid</tspan></text></g><g clip-path="url(#h)" transform="matrix(1.33333 0 0 -1.33333 0 124.64)"><text transform="matrix(1 0 0 -1 107.95 2.688)" style="font-style:italic;font-variant:normal;font-weight:400;font-size:9.96px;font-family:Calibri;-inkscape-font-specification:Calibri-Italic;writing-mode:lr-tb;fill:#000;fill-opacity:1;fill-rule:nonzero;stroke:none"><tspan x="0 8.5158005 13.66512 18.81444 23.96376 26.25456" y="0">Module</tspan></text></g><g clip-path="url(#i)" transform="matrix(1.33333 0 0 -1.33333 0 124.64)"><g clip-path="url(#j)" transform="matrix(9.02608 0 0 9.02018 96.84 20.16)"><path d="M.325 4.849v-3.84l2.64-.72 2.64.72v3.84l-2.64.72z" style="fill:#fff;fill-opacity:1;fill-rule:nonzero;stroke:none"/><path d="m.34 4.79.045.059v-3.84l-.044.058 2.64-.72h-.032l2.64.72-.044-.058v3.84l.044-.058-2.64.72h.032Zm2.625.84 2.7-.736V.963l-2.7-.737-2.7.737v3.931Z" style="fill:#000;fill-opacity:1;fill-rule:nonzero;stroke:none"/><path d="m.34 4.907 2.685-.732V.288h-.12v3.885l2.684.733.032-.116-2.64-.72.044.058V.289h-.12v3.84l.044-.058-2.64.72Z" style="fill:#000;fill-opacity:1;fill-rule:nonzero;stroke:none"/><path d="M1.285 4.573v-.48l.24-.15.24.06.24-.15v.54l2.64.72-.72.192z" style="fill:#fff;fill-opacity:1;fill-rule:nonzero;stroke:none"/><path d="m1.3 4.515.045.058v-.48l-.028.05.24-.15-.047.008.265.066.262-.163-.092-.051v.585l2.684.733v-.116l-.72.192h.032zm2.625.852.95-.254-2.854-.778.044.058v-.649l-.332.208.046-.008-.264-.066-.29.181v.56z" style="fill:#000;fill-opacity:1;fill-rule:nonzero;stroke:none"/><g clip-path="url(#k)"><path d="M1.768 2.074c0-.092-.075-.148-.167-.125a.227.227 0 0 0-.166.207c0 .092.075.148.166.125a.227.227 0 0 0 .167-.207Z" style="fill:#000;fill-opacity:1;fill-rule:nonzero;stroke:none"/></g><g clip-path="url(#l)"><path d="M2.576 2.426c-.047.092-.152.157-.296.193a1.243 1.243 0 0 1-.313.03c-.08.311-.213.536-.366.574-.15.037-.285-.118-.362-.386-.111.055-.21.096-.3.119-.143.035-.248.023-.296-.046-.077-.113.025-.352.239-.621-.205-.16-.3-.34-.225-.49.047-.091.153-.156.297-.192.083-.021.18-.031.285-.033.08-.308.213-.53.362-.566.15-.038.286.117.363.385.11-.055.21-.096.3-.118.143-.036.248-.024.295.045.075.111-.02.34-.224.601.219.164.318.353.24.505Zm-.296.082c.102-.026.177-.07.199-.113.042-.083-.033-.233-.222-.374a3.19 3.19 0 0 1-.224.236 2.296 2.296 0 0 1-.041.281c.105.002.205-.01.288-.03Zm-.496-.726a2.057 2.057 0 0 0-.174-.048 3.674 3.674 0 0 0-.335.274c-.006.063-.006.123-.006.19 0 .06.003.118.006.176.055.025.113.046.177.066.052.018.105.032.158.044.052-.038.105-.079.157-.122.056-.047.111-.094.161-.14.006-.062.006-.123.006-.19 0-.069-.003-.135-.009-.197-.044-.02-.091-.035-.14-.053Zm.127-.085a7.902 7.902 0 0 0-.024-.146c-.048.028-.097.058-.147.092.033.008.066.02.1.03l.071.024Zm-.431.011a1.954 1.954 0 0 0-.161-.018c-.011.055-.02.113-.028.173.03-.027.058-.05.092-.078.03-.024.063-.052.097-.077Zm-.319.412a2.2 2.2 0 0 0-.119.129c.036.024.078.047.12.07 0-.03-.004-.06-.004-.093 0-.037 0-.072.003-.106zm.127.391c.009.06.017.115.028.168.053-.03.108-.066.164-.102a1.036 1.036 0 0 1-.086-.025c-.033-.014-.07-.027-.105-.04Zm.449.002c.05.01.1.014.15.018.01-.052.019-.107.027-.164l-.091.078c-.028.02-.055.044-.086.068Zm.305-.402a2.81 2.81 0 0 0 .135-.148c-.041-.025-.086-.053-.135-.077.002.038.002.077.002.116 0 .039 0 .075-.002.109zm-.44 1c.082-.02.19-.194.26-.466a2.456 2.456 0 0 1-.252-.036c-.092.064-.18.122-.266.171.07.235.174.353.257.332ZM.737 2.83c.024.035.096.04.199.014.08-.02.172-.057.271-.107a1.975 1.975 0 0 1-.041-.274 1.35 1.35 0 0 1-.208-.118c-.185.235-.263.423-.221.485Zm.216-1.114c-.103.025-.178.069-.2.113-.041.082.03.225.208.363a4.88 4.88 0 0 1 .208-.217c.008-.1.022-.197.041-.288a.985.985 0 0 0-.257.029Zm.647-.597c-.083.021-.188.191-.257.458.086.006.174.017.266.036.085-.06.169-.114.249-.16-.07-.237-.175-.354-.258-.334Zm.864.283c-.025-.035-.097-.04-.2-.014-.08.02-.174.058-.27.107.016.079.03.161.038.253.083.038.158.077.224.121.178-.227.25-.405.208-.467Z" style="fill:#000;fill-opacity:1;fill-rule:nonzero;stroke:none"/></g><g clip-path="url(#m)"><path d="M4.96 3.286v-.239l-.009-.002h-.004V3.282h.004l.009.003m0 0v-.239l-.009-.002h-.004V3.282h.004z" style="fill:none;stroke:#000;stroke-width:.14019;stroke-linecap:butt;stroke-linejoin:round;stroke-miterlimit:10;stroke-dasharray:none;stroke-opacity:1"/></g><g clip-path="url(#n)"><path d="m4.712 3.224.005.001V2.987l-.005-.001-.009-.003H4.7V3.22l.004.001.01.002m0 0 .004.001V2.987l-.005-.001-.009-.003H4.7V3.22l.004.001z" style="fill:none;stroke:#000;stroke-width:.14019;stroke-linecap:butt;stroke-linejoin:round;stroke-miterlimit:10;stroke-dasharray:none;stroke-opacity:1"/></g><g clip-path="url(#o)"><path d="M4.478 3.166h.004V2.929h-.005l-.008-.003-.005-.001V3.163h.005l.009.003m0 0h.004V2.929h-.005l-.008-.003-.005-.001V3.163h.005z" style="fill:none;stroke:#000;stroke-width:.14019;stroke-linecap:butt;stroke-linejoin:round;stroke-miterlimit:10;stroke-dasharray:none;stroke-opacity:1"/></g><g clip-path="url(#p)"><path d="m4.234 3.105.005.001V2.868l-.005-.002-.009-.002h-.004V3.101h.004l.009.003m0 0 .004.001V2.868l-.004-.002-.009-.002h-.004V3.101h.004z" style="fill:none;stroke:#000;stroke-width:.14019;stroke-linecap:butt;stroke-linejoin:round;stroke-miterlimit:10;stroke-dasharray:none;stroke-opacity:1"/></g><g clip-path="url(#q)"><path d="m3.99 3.044.005.002V2.807l-.004-.001-.01-.002-.004-.002V3.041l.005.001.009.002m0 0 .004.001V2.808l-.004-.001-.01-.002-.004-.002V3.041l.005.001z" style="fill:none;stroke:#000;stroke-width:.14019;stroke-linecap:butt;stroke-linejoin:round;stroke-miterlimit:10;stroke-dasharray:none;stroke-opacity:1"/></g><g clip-path="url(#r)"><path d="m3.756 2.986.005.001V2.748h-.005l-.009-.003-.004-.001V2.983h.004l.009.003m0 0 .004.001V2.748h-.004l-.009-.003-.004-.001V2.983h.004z" style="fill:none;stroke:#000;stroke-width:.14019;stroke-linecap:butt;stroke-linejoin:round;stroke-miterlimit:10;stroke-dasharray:none;stroke-opacity:1"/></g><g clip-path="url(#s)"><path d="M4.961 1.526V1.3l-.009-.003h-.004v.224l.004.001.01.003m0 0V1.3l-.01-.003h-.004v.224l.004.001z" style="fill:none;stroke:#000;stroke-width:.14019;stroke-linecap:butt;stroke-linejoin:round;stroke-miterlimit:10;stroke-dasharray:none;stroke-opacity:1"/></g><g clip-path="url(#t)"><path d="M4.713 1.464h.004V1.24l-.004-.001-.01-.003H4.7v.224l.005.001.009.003m0 0h.004V1.24l-.004-.001-.01-.003H4.7v.224l.005.001z" style="fill:none;stroke:#000;stroke-width:.14019;stroke-linecap:butt;stroke-linejoin:round;stroke-miterlimit:10;stroke-dasharray:none;stroke-opacity:1"/></g><g clip-path="url(#u)"><path d="m4.478 1.405.004.001v-.225h-.004l-.01-.003-.004-.001v.225h.005l.009.003m0 0 .004.001v-.225h-.004l-.01-.003-.004-.001v.225h.005z" style="fill:none;stroke:#000;stroke-width:.14019;stroke-linecap:butt;stroke-linejoin:round;stroke-miterlimit:10;stroke-dasharray:none;stroke-opacity:1"/></g><g clip-path="url(#v)"><path d="m4.234 1.344.004.001V1.12h-.004l-.01-.003-.003-.001v.225l.004.001.009.002m0 0 .004.001V1.12h-.004l-.01-.003-.003-.001v.225l.004.001Z" style="fill:none;stroke:#000;stroke-width:.14019;stroke-linecap:butt;stroke-linejoin:round;stroke-miterlimit:10;stroke-dasharray:none;stroke-opacity:1"/></g><g clip-path="url(#w)"><path d="m3.99 1.283.004.002V1.06l-.004-.002-.009-.002h-.004v.224l.004.001.009.002m0 0 .004.002V1.06l-.004-.002-.009-.002h-.004v.224l.004.001Z" style="fill:none;stroke:#000;stroke-width:.14019;stroke-linecap:butt;stroke-linejoin:round;stroke-miterlimit:10;stroke-dasharray:none;stroke-opacity:1"/></g><g clip-path="url(#x)"><path d="M3.755 1.225h.004v-.224L3.755 1 3.746.998 3.742.997v.224l.004.002.009.002m0 0h.004v-.224L3.755 1 3.746.998 3.742.997v.224l.004.002Z" style="fill:none;stroke:#000;stroke-width:.14019;stroke-linecap:butt;stroke-linejoin:round;stroke-miterlimit:10;stroke-dasharray:none;stroke-opacity:1"/></g><g clip-path="url(#y)"><path d="M5.13 2.935v.005l.005.001.21.053h.005V2.977h-.004l-.211-.053-.005-.001v.014m0 0v.004l.005.001.21.053h.005V2.977h-.004l-.211-.053-.005-.001v.004z" style="fill:none;stroke:#000;stroke-width:.14019;stroke-linecap:butt;stroke-linejoin:round;stroke-miterlimit:10;stroke-dasharray:none;stroke-opacity:1"/></g><g clip-path="url(#z)"><path d="M5.137 2.69v.004l.004.001.205.052h.004V2.73l-.004-.001-.205-.052h-.004v.014m0 0v.004l.004.001.205.052h.004V2.73l-.004-.001-.205-.052h-.004v.004z" style="fill:none;stroke:#000;stroke-width:.14019;stroke-linecap:butt;stroke-linejoin:round;stroke-miterlimit:10;stroke-dasharray:none;stroke-opacity:1"/></g><g clip-path="url(#A)"><path d="M5.127 2.444v.005h.005l.214.054.004.001v-.018l-.004-.001-.214-.054h-.005v.013m0 0v.005h.005l.214.054.004.001v-.018l-.004-.001-.214-.054h-.005v.004z" style="fill:none;stroke:#000;stroke-width:.14019;stroke-linecap:butt;stroke-linejoin:round;stroke-miterlimit:10;stroke-dasharray:none;stroke-opacity:1"/></g><g clip-path="url(#B)"><path d="M5.13 2.197v.005l.005.001.21.053h.005V2.239h-.004l-.211-.054H5.13v.014m0 0v.004l.005.001.21.053h.005V2.239h-.004l-.211-.054H5.13v.004Z" style="fill:none;stroke:#000;stroke-width:.14019;stroke-linecap:butt;stroke-linejoin:round;stroke-miterlimit:10;stroke-dasharray:none;stroke-opacity:1"/></g><g clip-path="url(#C)"><path d="M5.137 1.947v.005h.004l.205.052h.004V1.987l-.004-.001-.205-.051-.004-.001V1.947m0 0v.005h.004l.205.052h.004V1.987l-.004-.001-.205-.051-.004-.001v.005z" style="fill:none;stroke:#000;stroke-width:.14019;stroke-linecap:butt;stroke-linejoin:round;stroke-miterlimit:10;stroke-dasharray:none;stroke-opacity:1"/></g><g clip-path="url(#D)"><path d="M5.13 1.702v.005h.005l.21.053.005.002v-.019l-.004-.001-.211-.053H5.13v.014m0 0v.004h.005l.21.053.005.002v-.019l-.004-.001-.211-.053H5.13v.004Z" style="fill:none;stroke:#000;stroke-width:.14019;stroke-linecap:butt;stroke-linejoin:round;stroke-miterlimit:10;stroke-dasharray:none;stroke-opacity:1"/></g><g clip-path="url(#E)"><path d="M3.36 2.509v.004l.005.001.212.053V2.554L3.365 2.5 3.361 2.5v.009m0 0v.004l.004.001.212.053V2.554L3.365 2.5 3.361 2.5z" style="fill:none;stroke:#000;stroke-width:.14019;stroke-linecap:butt;stroke-linejoin:round;stroke-miterlimit:10;stroke-dasharray:none;stroke-opacity:1"/></g><g clip-path="url(#F)"><path d="M3.36 2.26v.005l.005.001.208.052h.004v-.017h-.004l-.208-.053h-.004v.013m0 0v.004l.004.001.208.052h.004v-.017h-.004l-.208-.053h-.004v.004z" style="fill:none;stroke:#000;stroke-width:.14019;stroke-linecap:butt;stroke-linejoin:round;stroke-miterlimit:10;stroke-dasharray:none;stroke-opacity:1"/></g><g clip-path="url(#G)"><path d="M3.36 2.017v.004l.005.001.208.052.004.001v-.017l-.004-.001-.208-.052-.004-.001v.013m0 0v.004l.004.001.208.052.004.001v-.017l-.004-.001-.208-.052-.004-.001v.004Z" style="fill:none;stroke:#000;stroke-width:.14019;stroke-linecap:butt;stroke-linejoin:round;stroke-miterlimit:10;stroke-dasharray:none;stroke-opacity:1"/></g><g clip-path="url(#H)"><path d="M3.36 1.769v.004l.005.001.208.052.004.001V1.81l-.004-.001-.208-.052-.004-.001v.013m0 0v.004l.004.001.208.052.004.001V1.81l-.004-.001-.208-.052-.004-.001v.004Z" style="fill:none;stroke:#000;stroke-width:.14019;stroke-linecap:butt;stroke-linejoin:round;stroke-miterlimit:10;stroke-dasharray:none;stroke-opacity:1"/></g><g clip-path="url(#I)"><path d="M3.36 1.516v.005h.005l.208.053h.004v-.017h-.004l-.208-.053h-.004v.013m0 0v.004h.004l.208.053h.004v-.017h-.004l-.208-.053h-.004v.004z" style="fill:none;stroke:#000;stroke-width:.14019;stroke-linecap:butt;stroke-linejoin:round;stroke-miterlimit:10;stroke-dasharray:none;stroke-opacity:1"/></g><g clip-path="url(#J)"><path d="M3.36 1.273v.004l.005.001.208.052.004.001v-.017l-.004-.002-.208-.051-.004-.001v.013m0 0v.004l.004.001.208.052.004.001v-.017l-.004-.002-.208-.051-.004-.001v.004Z" style="fill:none;stroke:#000;stroke-width:.14019;stroke-linecap:butt;stroke-linejoin:round;stroke-miterlimit:10;stroke-dasharray:none;stroke-opacity:1"/></g><g clip-path="url(#K)"><path d="m4.946 3.097.166-.02.063-.149v-1.2l-.055-.155-.145-.1-1.209-.298-.154.03-.072.144v1.196l.063.163.137.091ZM3.78 2.685l.02.009-.113-.075.022.028-.052-.135.004.022v-1.17l-.006.026.052-.105-.042.032.113-.022H3.75l1.185.292-.02-.009.12.083-.023-.03.045.127-.003-.02v1.178l.005-.024-.045.105.048-.035-.12.015h.021z" style="fill:#000;fill-opacity:1;fill-rule:nonzero;stroke:none"/></g><g clip-path="url(#L)"><path d="M4.336 1.856a.228.228 0 0 0-.003-.043.07.07 0 0 0-.014-.028.4.4 0 0 0-.13-.085.452.452 0 0 0-.21-.035.203.203 0 0 0-.106.044.23.23 0 0 0-.066.101.58.58 0 0 0 .002.334c.017.053.04.1.071.142a.427.427 0 0 0 .363.173.202.202 0 0 0 .045-.008.086.086 0 0 0 .027-.012.04.04 0 0 0 .01-.01.04.04 0 0 0 .005-.012.246.246 0 0 0-.002-.096.04.04 0 0 0-.006-.012.018.018 0 0 0-.01-.006c-.005-.002-.013 0-.021.004a.213.213 0 0 1-.035.014.2.2 0 0 1-.12.003.212.212 0 0 1-.08-.038.245.245 0 0 1-.059-.067.322.322 0 0 1-.036-.09.459.459 0 0 1 0-.222.168.168 0 0 1 .039-.07.117.117 0 0 1 .06-.031.195.195 0 0 1 .08.004.282.282 0 0 1 .12.061.525.525 0 0 1 .035.03.06.06 0 0 0 .022.014h.009l.006-.008a.343.343 0 0 0 .005-.051Z" style="fill:#000;fill-opacity:1;fill-rule:nonzero;stroke:none"/></g><g clip-path="url(#M)"><path d="M4.962 2.012a.26.26 0 0 0-.004-.043.061.061 0 0 0-.004-.014.09.09 0 0 0-.01-.014.398.398 0 0 0-.13-.085.46.46 0 0 0-.21-.035.203.203 0 0 0-.105.044.23.23 0 0 0-.066.101.579.579 0 0 0 .002.334.429.429 0 0 0 .434.315.201.201 0 0 0 .044-.008.082.082 0 0 0 .027-.012.039.039 0 0 0 .011-.01.037.037 0 0 0 .005-.012.28.28 0 0 0-.002-.096.037.037 0 0 0-.007-.012.018.018 0 0 0-.009-.006c-.006-.002-.013 0-.022.004a.218.218 0 0 1-.085.024.202.202 0 0 1-.069-.007.214.214 0 0 1-.08-.038.245.245 0 0 1-.059-.067.318.318 0 0 1-.037-.09.462.462 0 0 1 0-.223.166.166 0 0 1 .04-.069.116.116 0 0 1 .06-.032.197.197 0 0 1 .08.005.278.278 0 0 1 .12.06.501.501 0 0 1 .035.03.06.06 0 0 0 .021.015h.01c.002-.001.004-.004.005-.008a.389.389 0 0 0 .005-.051Z" style="fill:#000;fill-opacity:1;fill-rule:nonzero;stroke:none"/></g></g></g><path d="M58.44 89.76H79.2V69.531L73.269 63.6H58.44Z" style="fill:url(#N);fill-opacity:1;fill-rule:evenodd;stroke:none" transform="matrix(1.33333 0 0 -1.33333 0 124.64)"/><path d="m73.269 63.6 1.186 4.745 4.745 1.186z" style="fill:url(#O);fill-opacity:1;fill-rule:evenodd;stroke:none" transform="matrix(1.33333 0 0 -1.33333 0 124.64)"/><path d="m73.269 63.6 1.186 4.745 4.745 1.186-5.931-5.931H58.44v26.16H79.2V69.531" style="fill:none;stroke:#262626;stroke-width:.96;stroke-linecap:butt;stroke-linejoin:miter;stroke-miterlimit:10;stroke-dasharray:none;stroke-opacity:1" transform="matrix(1.33333 0 0 -1.33333 0 124.64)"/><path d="M61.68 85.92h14.462M61.68 84.12h14.462M61.68 82.44h14.462M61.56 80.64h14.462M61.68 78.84h14.462M61.68 77.04h14.462M61.68 75.36h14.462M61.68 73.56h14.462" style="fill:none;stroke:#262626;stroke-width:.72;stroke-linecap:butt;stroke-linejoin:miter;stroke-miterlimit:10;stroke-dasharray:none;stroke-opacity:1" transform="matrix(1.33333 0 0 -1.33333 0 124.64)"/><g clip-path="url(#P)" transform="matrix(1.33333 0 0 -1.33333 0 124.64)"><text transform="matrix(1 0 0 -1 56.232 55.56)" style="font-style:italic;font-variant:normal;font-weight:400;font-size:9.984px;font-family:Calibri;-inkscape-font-specification:Calibri-Italic;writing-mode:lr-tb;fill:#000;fill-opacity:1;fill-rule:nonzero;stroke:none"><tspan x="0 2.5159681 7.6677122 12.799488 17.981184 21.325825" y="0">Inputs</tspan></text></g><g clip-path="url(#Q)" transform="matrix(1.33333 0 0 -1.33333 0 124.64)"><path d="m175.81 30.902.04-.583.19-.71.26-.646.34-.618.41-.569.45-.514.49-.481.54-.46.58-.435.63-.42 1.3-.747 1.48-.708 1.59-.635 1.71-.583 1.81-.526 1.98-.469 3.22-.403.57 4.525-3.1.387.24-.044-1.8.428.11-.028-1.71.495.1-.034-1.6.548.11-.039-1.47.585.14-.063-1.33.638.15-.078-1.16.667.13-.08-.52.345.1-.07-.47.353.12-.096-.42.36.11-.103-.37.367.11-.124-.32.367.14-.171-.27.375.14-.218-.21.375.12-.268-.15.375.09-.273-.09.375.06-.395-.03.382zm14.58-11.556 9.53 3.634-8.62 5.441z" style="fill:#000;fill-opacity:1;fill-rule:nonzero;stroke:none"/></g><path d="M200.04 76.442a5.878 5.878 0 0 0 5.88 5.878h41.64c3.25 0 5.88-2.632 5.88-5.878V17.038a5.878 5.878 0 0 0-5.88-5.878h-41.64a5.878 5.878 0 0 0-5.88 5.878z" style="fill:#fff;fill-opacity:1;fill-rule:evenodd;stroke:none" transform="matrix(1.33333 0 0 -1.33333 0 124.64)"/><path d="M200.04 76.442a5.878 5.878 0 0 0 5.88 5.878h41.64c3.25 0 5.88-2.632 5.88-5.878V17.038a5.878 5.878 0 0 0-5.88-5.878h-41.64a5.878 5.878 0 0 0-5.88 5.878z" style="fill:none;stroke:#0d0d0d;stroke-width:.96;stroke-linecap:butt;stroke-linejoin:miter;stroke-miterlimit:10;stroke-dasharray:none;stroke-opacity:1" transform="matrix(1.33333 0 0 -1.33333 0 124.64)"/><path d="m253.51 66.119 1.1-.032 1.17-.092 1.17-.158 1.15-.215 1.14-.266 1.13-.33 1.1-.37 1.12-.436 2.08-.971 2.03-1.16 1.91-1.314 1.79-1.462 1.65-1.596 1.47-1.688.7-.913.78-1.135 1-2.799-4.29-1.532-.9 2.519.27-.526-.58.84.07-.097-.62.81.09-.108-1.36 1.56.13-.143-1.51 1.462.14-.125-1.64 1.343.15-.113-1.76 1.207.16-.1-1.86 1.065.17-.089-1.93.9.13-.056-1 .39.11-.038-1.01.338.09-.028-1.03.3.12-.031-1.03.24.1-.021-1.04.195.11-.018-1.05.142.13-.013-1.05.082.11-.006-1.05.03zm24.01-12.162L275.9 43.89l-7.08 7.336z" style="fill:#000;fill-opacity:1;fill-rule:nonzero;stroke:none" transform="matrix(1.33333 0 0 -1.33333 0 124.64)"/><path d="M211.56 70.781a5.78 5.78 0 0 0 5.78 5.779h18.2a5.78 5.78 0 0 0 5.78-5.779v-8.002A5.78 5.78 0 0 0 235.54 57h-18.2a5.78 5.78 0 0 0-5.78 5.779z" style="fill:#fff;fill-opacity:1;fill-rule:evenodd;stroke:none" transform="matrix(1.33333 0 0 -1.33333 0 124.64)"/><path d="M211.56 70.781a5.78 5.78 0 0 0 5.78 5.779h18.2a5.78 5.78 0 0 0 5.78-5.779v-8.002A5.78 5.78 0 0 0 235.54 57h-18.2a5.78 5.78 0 0 0-5.78 5.779z" style="fill:none;stroke:#0d0d0d;stroke-width:.96;stroke-linecap:butt;stroke-linejoin:miter;stroke-miterlimit:10;stroke-dasharray:none;stroke-opacity:1" transform="matrix(1.33333 0 0 -1.33333 0 124.64)"/><g clip-path="url(#R)" transform="matrix(1.33333 0 0 -1.33333 0 124.64)"><g clip-path="url(#S)" transform="matrix(1.19385 0 0 1.19598 219.48 59.88)"><path d="M6.529 5.794a.72.72 0 1 0-1.44 0 .72.72 0 0 0 1.44 0z" style="fill:#262626;fill-opacity:1;fill-rule:nonzero;stroke:none"/><path d="M10.033 8.194c-.204.348-.66.516-1.284.516-.396 0-.852-.072-1.356-.204-.348 1.26-.924 2.088-1.584 2.088-.648 0-1.236-.816-1.572-2.064-.48.12-.912.192-1.296.192-.624 0-1.08-.168-1.284-.516-.336-.576.108-1.5 1.032-2.436-.888-.912-1.296-1.8-.972-2.364.204-.348.66-.516 1.284-.516.36 0 .78.06 1.236.168C4.585 1.81 5.16.994 5.809.994s1.236.816 1.572 2.064c.48-.12.912-.192 1.296-.192.624 0 1.08.168 1.284.516.324.564-.084 1.452-.972 2.364.948.948 1.38 1.872 1.044 2.448zm-1.284.036c.444 0 .768-.108.864-.276.18-.312-.144-1.044-.96-1.86a9.515 9.515 0 0 1-.972.78A8.927 8.927 0 0 1 7.5 8.05c.456.12.888.18 1.248.18zM6.6 4.546a11.423 11.423 0 0 0-.756-.396c-.252.12-.504.252-.756.396-.24.144-.48.288-.696.432-.024.264-.024.528-.024.816 0 .264.012.516.024.768.24.168.492.324.768.48.228.132.456.252.684.36a9.38 9.38 0 0 0 .684-.36c.24-.144.48-.288.696-.432.024-.264.024-.528.024-.816 0-.3-.012-.588-.036-.864-.192-.132-.396-.252-.612-.384zm.552-.228c-.036-.228-.072-.456-.108-.66-.204.072-.42.144-.636.24.144.072.288.156.432.24.108.06.216.12.312.18zm-1.872-.42a9.882 9.882 0 0 0-.696-.252 11.25 11.25 0 0 0-.12.72c.132-.084.252-.156.396-.24.132-.072.276-.156.42-.228zM3.9 5.338a6.53 6.53 0 0 0-.516.432c.156.144.336.288.516.432 0-.132-.012-.264-.012-.408 0-.156 0-.312.012-.456zm.552 1.836c.036.264.072.516.12.756.228-.072.468-.168.708-.264a5.704 5.704 0 0 1-.372-.204 15.13 15.13 0 0 0-.456-.288zm1.944.492c.216.096.432.168.648.24.048-.216.084-.444.12-.684a11.49 11.49 0 0 1-.396.24c-.12.06-.24.132-.372.204zm1.32-1.416a8.48 8.48 0 0 0 .588-.492c-.18-.156-.372-.324-.588-.48.012.168.012.336.012.504 0 .168 0 .324-.012.468zm-1.908 3.864c.36 0 .828-.636 1.128-1.74-.348-.12-.72-.264-1.092-.432-.396.18-.78.336-1.152.456.3 1.092.756 1.716 1.116 1.716zm-3.744-2.16c.108.18.42.276.864.276.348 0 .744-.06 1.176-.168a9.561 9.561 0 0 1-.18-1.236 8.198 8.198 0 0 1-.9-.732c-.804.816-1.14 1.548-.96 1.86zM3 3.358c-.444 0-.768.108-.864.276-.18.312.132 1.008.9 1.8.276-.24.576-.48.9-.72.036-.42.096-.828.18-1.2A4.298 4.298 0 0 0 3 3.358zm2.808-1.884c-.36 0-.816.624-1.116 1.704.372.12.756.264 1.152.444a9.48 9.48 0 0 1 1.08-.42c-.3-1.104-.756-1.728-1.116-1.728zm3.744 2.16c-.108-.18-.42-.276-.864-.276-.348 0-.756.06-1.176.168.072.36.132.732.168 1.14.36.252.684.504.972.768.768-.792 1.08-1.488.9-1.8z" style="fill:#262626;fill-opacity:1;fill-rule:nonzero;stroke:none"/></g></g><path d="M211.8 31.576a5.742 5.742 0 0 0 5.74 5.744h18.28c3.17 0 5.74-2.572 5.74-5.744v-7.952a5.742 5.742 0 0 0-5.74-5.744h-18.28a5.742 5.742 0 0 0-5.74 5.744z" style="fill:#fff;fill-opacity:1;fill-rule:evenodd;stroke:none" transform="matrix(1.33333 0 0 -1.33333 0 124.64)"/><path d="M211.8 31.576a5.742 5.742 0 0 0 5.74 5.744h18.28c3.17 0 5.74-2.572 5.74-5.744v-7.952a5.742 5.742 0 0 0-5.74-5.744h-18.28a5.742 5.742 0 0 0-5.74 5.744z" style="fill:none;stroke:#0d0d0d;stroke-width:.96;stroke-linecap:butt;stroke-linejoin:miter;stroke-miterlimit:10;stroke-dasharray:none;stroke-opacity:1" transform="matrix(1.33333 0 0 -1.33333 0 124.64)"/><path d="m222.74 24.202-3.53 3.512 3.53 3.512.87-.868-2.65-2.644 2.65-2.644zM230.88 24.202l-.87.868 2.65 2.644-2.65 2.644.87.868 3.53-3.512zM224.76 24.226l2.87 7.092 1.11-.471-2.87-7.092z" style="fill:#262626;fill-opacity:1;fill-rule:evenodd;stroke:none" transform="matrix(1.33333 0 0 -1.33333 0 124.64)"/><path d="M261 38.056a5.742 5.742 0 0 0 5.74 5.744h18.28c3.17 0 5.74-2.572 5.74-5.744v-7.952a5.742 5.742 0 0 0-5.74-5.744h-18.28a5.742 5.742 0 0 0-5.74 5.744z" style="fill:#fff;fill-opacity:1;fill-rule:evenodd;stroke:none" transform="matrix(1.33333 0 0 -1.33333 0 124.64)"/><path d="M261 38.056a5.742 5.742 0 0 0 5.74 5.744h18.28c3.17 0 5.74-2.572 5.74-5.744v-7.952a5.742 5.742 0 0 0-5.74-5.744h-18.28a5.742 5.742 0 0 0-5.74 5.744z" style="fill:none;stroke:#0d0d0d;stroke-width:.96;stroke-linecap:butt;stroke-linejoin:miter;stroke-miterlimit:10;stroke-dasharray:none;stroke-opacity:1" transform="matrix(1.33333 0 0 -1.33333 0 124.64)"/><path d="m271.94 30.682-3.53 3.512 3.53 3.512.87-.868-2.65-2.644 2.65-2.644zM280.08 30.682l-.87.868 2.65 2.644-2.65 2.644.87.868 3.53-3.512zM273.96 30.706l2.96 7.092 1.14-.471-2.96-7.092z" style="fill:#262626;fill-opacity:1;fill-rule:evenodd;stroke:none" transform="matrix(1.33333 0 0 -1.33333 0 124.64)"/><path d="M163.08 44.861a5.78 5.78 0 0 0 5.78 5.779h18.32a5.78 5.78 0 0 0 5.78-5.779v-8.002a5.78 5.78 0 0 0-5.78-5.779h-18.32a5.78 5.78 0 0 0-5.78 5.779z" style="fill:#fff;fill-opacity:1;fill-rule:evenodd;stroke:none" transform="matrix(1.33333 0 0 -1.33333 0 124.64)"/><path d="M163.08 44.861a5.78 5.78 0 0 0 5.78 5.779h18.32a5.78 5.78 0 0 0 5.78-5.779v-8.002a5.78 5.78 0 0 0-5.78-5.779h-18.32a5.78 5.78 0 0 0-5.78 5.779z" style="fill:none;stroke:#0d0d0d;stroke-width:.96;stroke-linecap:butt;stroke-linejoin:miter;stroke-miterlimit:10;stroke-dasharray:none;stroke-opacity:1" transform="matrix(1.33333 0 0 -1.33333 0 124.64)"/><path d="m174.04 37.522-3.43 3.453 3.43 3.453.84-.854-2.57-2.599 2.57-2.599zM182.26 37.522l-.85.854 2.58 2.599-2.58 2.599.85.854 3.42-3.453zM176.16 37.538l2.87 6.982 1.11-.463-2.87-6.982z" style="fill:#262626;fill-opacity:1;fill-rule:evenodd;stroke:none" transform="matrix(1.33333 0 0 -1.33333 0 124.64)"/><g clip-path="url(#T)" transform="matrix(1.33333 0 0 -1.33333 0 124.64)"><path d="m238.5 57.507.04-.217-.13.471.09-.24-.11.249.15-.27-.11.168.2-.3-.07.099.51-.675-.03.046.63-.793.72-.946.75-1.109.73-1.276.58-1.412.25-.829.17-.842.11-.874.02-.921-.07-.931-.16-.971-.28-.978-.48-1.245-2.05-2.42-3.47 2.948 1.79 2.122-.39-.662.3.788-.06-.188.22.765-.06-.238.13.742-.03-.218.06.713-.01-.217-.01.697.01-.23-.08.667.03-.182-.14.653.05-.196-.18.622.07-.214-.48 1.177.12-.251-.61 1.072.1-.157-.67.982.07-.099-.66.878.03-.04-.64.795-.56.747-.29.432-.27.477-.24.596-.08.461zm4.6-16.224-9.58-3.483 2.96 9.756z" style="fill:#000;fill-opacity:1;fill-rule:nonzero;stroke:none"/></g><g clip-path="url(#U)" transform="matrix(1.33333 0 0 -1.33333 0 124.64)"><path d="m214.02 36.933-.03.217.12-.448-.1.247.13-.271-.15.27.11-.169-.21.3.07-.098-.51.675.03-.038-.63.796-.71.945-.76 1.12-.72 1.282-.58 1.417-.25.826-.18.844-.1.882-.02.926.06.938.17.959.27.983.47 1.261 2.06 2.452 3.49-2.934-1.81-2.155.39.663-.3-.795.07.206-.21-.772.04.212-.12-.742.02.22-.05-.72.01.214.01-.705-.01.228.08-.675-.03.185.13-.652-.05.196.19-.623-.07.21.48-1.185-.12.25.61-1.08-.1.157.67-.99-.08.106.67-.878-.02.032.63-.799.56-.742.29-.432.27-.488.24-.606.08-.448zm-4.59 16.317 9.57 3.51-2.94-9.765z" style="fill:#000;fill-opacity:1;fill-rule:nonzero;stroke:none"/></g><path d="M169.92 85.68h15.72V70.371l-4.49-4.491h-11.23z" style="fill:url(#V);fill-opacity:1;fill-rule:evenodd;stroke:none" transform="matrix(1.33333 0 0 -1.33333 0 124.64)"/><path d="m181.15 65.88.9 3.593 3.59.898z" style="fill:url(#W);fill-opacity:1;fill-rule:evenodd;stroke:none" transform="matrix(1.33333 0 0 -1.33333 0 124.64)"/><path d="m181.15 65.88.9 3.593 3.59.898-4.49-4.491h-11.23v19.8h15.72V70.371" style="fill:none;stroke:#262626;stroke-width:.96;stroke-linecap:butt;stroke-linejoin:miter;stroke-miterlimit:10;stroke-dasharray:none;stroke-opacity:1" transform="matrix(1.33333 0 0 -1.33333 0 124.64)"/><path d="M172.32 82.8h10.99M172.32 81.48h10.99M172.32 80.04h10.99M172.32 78.72h10.99M172.32 77.4h10.99M172.32 76.08h10.99M172.32 74.76h10.99M172.32 73.32h10.99" style="fill:none;stroke:#262626;stroke-width:.72;stroke-linecap:butt;stroke-linejoin:miter;stroke-miterlimit:10;stroke-dasharray:none;stroke-opacity:1" transform="matrix(1.33333 0 0 -1.33333 0 124.64)"/><path d="m178.68 65.832.02-1.56-1.56-.024-.02 1.56zm.05-3.12.02-1.559-1.56-.024-.02 1.559zm.05-3.119.02-1.56-1.56-.024-.02 1.56zm.04-3.12.03-1.56-1.56-.024-.03 1.56zm.05-3.12.02-1.29-1.56-.024-.02 1.29zm2.35 2.333-3.09-5.106-3.23 5.009a.775.775 0 0 0 .23 1.078c.36.234.84.131 1.08-.231l2.56-3.961-1.33-.021 2.44 4.038a.783.783 0 0 0 1.34-.806z" style="fill:#000;fill-opacity:1;fill-rule:nonzero;stroke:none" transform="matrix(1.33333 0 0 -1.33333 0 124.64)"/></svg>
