<svg width="223" height="223" xmlns="http://www.w3.org/2000/svg" xmlns:xlink="http://www.w3.org/1999/xlink" overflow="hidden"><g><rect x="0" y="0" width="223" height="223" fill="#FFFFFF"/><path d="M9.50005 43.6674C9.50005 24.7973 24.7973 9.50005 43.6674 9.50005L180.333 9.50005C199.203 9.50005 214.5 24.7973 214.5 43.6674L214.5 180.333C214.5 199.203 199.203 214.5 180.333 214.5L43.6674 214.5C24.7973 214.5 9.50005 199.203 9.50005 180.333Z" stroke="#000000" stroke-width="1.33333" stroke-miterlimit="8" fill="#F2F2F2" fill-rule="evenodd"/><g><g><g><path d="M70.2823 70.85C79.1385 62.3344 79.5927 48.2552 71.1906 39.1719 80.1604 43.8271 87.5406 50.9802 91.8552 55.749 87.3135 60.1771 79.5927 66.7625 70.2823 70.85ZM25.6604 47.4604C29.4073 44.2812 33.3812 41.5562 37.6958 39.2854 29.4073 48.3687 29.8615 62.3344 38.7177 70.85 29.4073 66.7625 21.5729 60.1771 17.1448 55.749 19.7562 52.7969 22.5948 50.0719 25.6604 47.4604L25.6604 47.4604ZM54.5 72.6667C44.5083 72.6667 36.3333 64.4917 36.3333 54.5 36.3333 44.5083 44.5083 36.3333 54.5 36.3333 64.4917 36.3333 72.6667 44.5083 72.6667 54.5 72.6667 64.4917 64.4917 72.6667 54.5 72.6667ZM98.6677 52.5698C92.0823 44.849 74.824 27.25 54.5 27.25 34.176 27.25 16.9177 44.849 10.3323 52.5698 8.62917 54.6135 8.74271 57.4521 10.5594 59.3823 17.2583 66.4219 34.4031 81.75 54.5 81.75 74.5969 81.75 91.7417 66.4219 98.5542 59.3823 100.257 57.5656 100.371 54.6135 98.6677 52.5698Z" fill="#404040" transform="matrix(1 0 0 1.00917 57 120)"/><path d="M65.8542 54.5C65.8542 60.7707 60.7707 65.8542 54.5 65.8542 48.2293 65.8542 43.1458 60.7707 43.1458 54.5 43.1458 48.2293 48.2293 43.1458 54.5 43.1458 60.7707 43.1458 65.8542 48.2293 65.8542 54.5Z" fill="#404040" transform="matrix(1 0 0 1.00917 57 120)"/></g></g></g><path d="M94 48C94 38.6112 101.835 31 111.5 31 121.165 31 129 38.6112 129 48 129 57.3888 121.165 65 111.5 65 101.835 65 94 57.3888 94 48Z" fill="#404040" fill-rule="evenodd"/><rect x="28" y="31" width="35" height="34" fill="#404040"/><path d="M160 65 177.5 31 195 65Z" fill="#404040" fill-rule="evenodd"/><rect x="22.5001" y="84.5001" width="179" height="55" stroke="#404040" stroke-width="1.33333" stroke-miterlimit="8" fill="none"/><path d="M1-3.50768e-06 1.00001 2-0.999993 2-1 3.50768e-06ZM1.00001 4 1.00002 6-0.999979 6-0.999986 4ZM1.00003 8 1.00004 10-0.999965 10-0.999972 8ZM1.00004 12 1.00005 14-0.999951 14-0.999958 12ZM1.00006 16 1.00006 18-0.999937 18-0.999944 16ZM1.00007 20 1.00008 22-0.999923 22-0.99993 20ZM4.00008 21.9306 0.000104987 29.9306-3.99992 21.9306Z" fill="#404040" transform="matrix(1 0 0 -1 111 94.9306)"/><path d="M94 112C94 102.611 101.835 95 111.5 95 121.165 95 129 102.611 129 112 129 121.389 121.165 129 111.5 129 101.835 129 94 121.389 94 112Z" fill="#404040" fill-rule="evenodd"/><path d="M28 112C28 102.611 35.835 95 45.5 95 55.165 95 63 102.611 63 112 63 121.389 55.165 129 45.5 129 35.835 129 28 121.389 28 112Z" fill="#404040" fill-rule="evenodd"/><path d="M160 112C160 102.611 167.835 95 177.5 95 187.165 95 195 102.611 195 112 195 121.389 187.165 129 177.5 129 167.835 129 160 121.389 160 112Z" fill="#404040" fill-rule="evenodd"/><path d="M1-3.79147e-06 1.00008 21.0236-0.99992 21.0236-1 3.79147e-06ZM4.00007 19.6903 0.000104987 27.6903-3.99993 19.6903Z" fill="#404040" transform="matrix(1 0 0 -1 111 156.69)"/><path d="M0-1 27.4567-1 27.4567 40.3469 25.4567 40.3469 25.4567 0 26.4567 1 0 1ZM30.4567 39.0135 26.4567 47.0135 22.4567 39.0135Z" fill="#404040" transform="matrix(1 0 0 -1 152 176.014)"/><path d="M71.4567 177.014 44 177.014 44 135.667 46 135.667 46 176.014 45 175.014 71.4567 175.014ZM41 137 45 129 49 137Z" fill="#404040"/><path d="M44.0001 94.9305 44.0001 92.9305 46.0001 92.9305 46.0001 94.9305ZM44.0001 90.9305 44.0001 88.9305 46.0001 88.9305 46.0001 90.9305ZM44.0001 86.9305 44.0001 84.9305 46.0001 84.9305 46.0001 86.9305ZM44.0001 82.9305 44.0001 80.9305 46.0001 80.9305 46.0001 82.9305ZM46.0348 78.9652 46.3334 78.9652 45.3334 79.9652 45.3334 78.2639 47.3334 78.2639 47.3334 80.9652 46.0348 80.9652ZM45.3334 76.2639 45.3334 74.2639 47.3334 74.2639 47.3334 76.2639ZM45.3334 72.2639 45.3334 71.6666 47.3334 71.6666 47.3334 72.2639ZM42.3334 72.9999 46.3334 64.9999 50.3334 72.9999Z" fill="#404040"/><path d="M1-3.50768e-06 1.00001 2-0.999993 2-1 3.50768e-06ZM1.00001 4 1.00002 6-0.999979 6-0.999986 4ZM1.00003 8 1.00004 10-0.999965 10-0.999972 8ZM1.00004 12 1.00005 14-0.999951 14-0.999958 12ZM1.00006 16 1.00006 18-0.999937 18-0.999944 16ZM1.00007 20 1.00008 22-0.999923 22-0.99993 20ZM4.00008 21.9306 0.000104987 29.9306-3.99992 21.9306Z" fill="#404040" transform="matrix(1 0 0 -1 177 94.9306)"/></g></svg>