<svg width="578" height="316" xmlns="http://www.w3.org/2000/svg" xmlns:xlink="http://www.w3.org/1999/xlink" overflow="hidden"><defs><clipPath id="clip0"><rect x="0" y="0" width="578" height="316"/></clipPath></defs><g clip-path="url(#clip0)"><rect x="0" y="0" width="578" height="315.514" fill="#FFFFFF"/><path d="M111 50.7503C111 44.8492 115.776 40.0654 121.668 40.0654L412.333 40.0654C418.224 40.0654 423 44.8492 423 50.7503L423 205.668C423 211.569 418.224 216.353 412.333 216.353L121.668 216.353C115.776 216.353 111 211.569 111 205.668Z" stroke="#000000" stroke-width="1.99885" stroke-miterlimit="8" fill="#F2F2F2" fill-rule="evenodd"/><path d="M2 50.6766C2 45.3693 6.29537 41.0669 11.594 41.0669L70.406 41.0669C75.7046 41.0669 80 45.3693 80 50.6766L80 207.745C80 213.052 75.7046 217.354 70.406 217.354L11.594 217.354C6.29537 217.354 2 213.052 2 207.745Z" stroke="#000000" stroke-width="1.99885" stroke-miterlimit="8" fill="#F2F2F2" fill-rule="evenodd"/><path d="M450 49.9272C450 44.4806 454.408 40.0654 459.846 40.0654L566.154 40.0654C571.592 40.0654 576 44.4806 576 49.9272L576 206.491C576 211.938 571.592 216.353 566.154 216.353L459.846 216.353C454.408 216.353 450 211.938 450 206.491Z" stroke="#000000" stroke-width="1.99885" stroke-miterlimit="8" fill="#F2F2F2" fill-rule="evenodd"/><path d="M0 0 207.754 0.0695662" stroke="#000000" stroke-width="1.99885" stroke-miterlimit="8" fill="none" fill-rule="evenodd" transform="matrix(1 0 0 -1.00163 46 73.1889)"/><path d="M0 0 203.977 0.386024" stroke="#000000" stroke-width="1.99885" stroke-miterlimit="8" fill="none" fill-rule="evenodd" transform="matrix(1 0 0 -1.00163 50 128.596)"/><text font-family="Cambria Math,Cambria Math_MSFontService,sans-serif" font-weight="400" font-size="24" transform="matrix(1 0 0 1.00163 249.128 16)">РЅѕ</text><text font-family="Cambria Math,Cambria Math_MSFontService,sans-serif" font-weight="400" font-size="24" transform="matrix(1 0 0 1.00163 273.447 16)">­ЮЉѕ</text><path d="M0 0 203.977 0.174807" stroke="#000000" stroke-width="1.99885" stroke-miterlimit="8" fill="none" fill-rule="evenodd" transform="matrix(1 0 0 -1.00163 50 183.474)"/><path d="M162 269.106C162 264.311 165.88 260.425 170.667 260.425L469.333 260.425C474.12 260.425 478 264.311 478 269.106L478 303.829C478 308.623 474.12 312.51 469.333 312.51L170.667 312.51C165.88 312.51 162 308.623 162 303.829Z" stroke="#000000" stroke-width="1.99885" stroke-miterlimit="8" fill="#FFFFFF" fill-rule="evenodd"/><text font-family="Times New Roman,Times New Roman_MSFontService,sans-serif" font-style="italic" font-weight="400" font-size="24" transform="matrix(1 0 0 1.00163 179.421 291)">Minimize</text><text font-family="Times New Roman,Times New Roman_MSFontService,sans-serif" font-style="italic" font-weight="400" font-size="24" transform="matrix(1 0 0 1.00163 274.699 291)">Cost</text><text font-family="Times New Roman,Times New Roman_MSFontService,sans-serif" font-style="italic" font-weight="400" font-size="24" transform="matrix(1 0 0 1.00163 324.671 291)">Function</text><text font-family="Cambria Math,Cambria Math_MSFontService,sans-serif" font-weight="400" font-size="24" transform="matrix(1 0 0 1.00163 417.284 291)">­ЮљХ</text><path d="M279.261 5.68362C281.698 6.32425 283.577 7.9844 284.898 10.6641 286.218 13.3438 286.878 16.5157 286.878 20.1797 286.878 23.8438 286.218 27.0157 284.898 29.6953 283.577 32.375 281.698 34.0352 279.261 34.6758L278.968 33.7149C280.859 33.0039 282.29 31.4551 283.263 29.0684 284.236 26.6817 284.722 23.7227 284.722 20.1914 284.722 16.6524 284.236 13.6875 283.263 11.2969 282.29 8.90628 280.859 7.3555 278.968 6.64456ZM262.967 5.68362 263.26 6.64456C261.37 7.3555 259.938 8.90628 258.965 11.2969 257.993 13.6875 257.506 16.6524 257.506 20.1914 257.506 23.7227 257.993 26.6817 258.965 29.0684 259.938 31.4551 261.37 33.0039 263.26 33.7149L262.967 34.6758C260.53 34.0352 258.651 32.375 257.33 29.6953 256.01 27.0157 255.35 23.8438 255.35 20.1797 255.35 16.5157 256.01 13.3438 257.33 10.6641 258.651 7.9844 260.53 6.32425 262.967 5.68362Z" fill-rule="evenodd" transform="matrix(1 0 0 1.00163 179.421 264.324)"/><text font-family="Cambria Math,Cambria Math_MSFontService,sans-serif" font-weight="400" font-size="24" transform="matrix(1 0 0 1.00163 443.435 291)">­ЮюЃ</text><path d="M8.83594-15.668 5.89453-13.125 5.27344-13.8281 7.14844-15.457 0-15.457 0-16.5586 7.14844-16.5586 5.27344-18.1875 5.89453-18.8906 8.83594-16.3477Z" transform="matrix(1 0 0 1.00163 448.073 286)"/><text fill="#000000" fill-opacity="0" font-family="Arial,Arial_MSFontService,sans-serif" font-size="5.76562" y="-13.8457">нд</text><path d="M539.66 207.338 539.66 287.793 488.663 287.793 488.663 285.791 538.66 285.791 537.661 286.792 537.661 207.338ZM489.995 290.796 482 286.792 489.995 282.788Z"/><path d="M252.16 260.418 252.025 224.032 254.024 224.024 254.159 260.411ZM249.032 225.378 253 217.354 257.027 225.348Z"/><path d="M0 0 181.313 0.386024" stroke="#000000" stroke-width="1.99885" stroke-miterlimit="8" fill="none" fill-rule="evenodd" transform="matrix(1 0 0 -1.00163 277 128.596)"/><text font-family="Times New Roman,Times New Roman_MSFontService,sans-serif" font-style="italic" font-weight="400" font-size="24" transform="matrix(1 0 0 1.00163 257.762 248)">Update Parameters</text><text font-family="Cambria Math,Cambria Math_MSFontService,sans-serif" font-weight="400" font-size="24" transform="matrix(1 0 0 1.00163 452.317 248)">­ЮюЃ</text><path d="M8.83594-15.668 5.89453-13.125 5.27344-13.8281 7.14844-15.457 0-15.457 0-16.5586 7.14844-16.5586 5.27344-18.1875 5.89453-18.8906 8.83594-16.3477Z" transform="matrix(1 0 0 1.00163 456.954 243)"/><text fill="#000000" fill-opacity="0" font-family="Arial,Arial_MSFontService,sans-serif" font-size="5.76562" y="-13.8457">нд</text><path d="M127 61.6C127 55.2386 132.149 50.0817 138.5 50.0817L235.5 50.0817C241.852 50.0817 247 55.2386 247 61.6L247 194.818C247 201.18 241.852 206.336 235.5 206.336L138.5 206.336C132.149 206.336 127 201.18 127 194.818Z" stroke="#000000" stroke-width="1.99885" stroke-miterlimit="8" fill="#FFFFFF" fill-rule="evenodd"/><text font-family="Cambria Math,Cambria Math_MSFontService,sans-serif" font-weight="400" font-size="24" transform="matrix(1 0 0 1.00163 155.169 136)">­ЮЉЅ</text><text font-family="Cambria Math,Cambria Math_MSFontService,sans-serif" font-weight="400" font-size="18" transform="matrix(1 0 0 1.00163 166.422 140)">1</text><path d="M79.8159 5.68362C82.2534 6.32425 84.1323 7.9844 85.4527 10.6641 86.773 13.3438 87.4331 16.5157 87.4331 20.1797 87.4331 23.8438 86.773 27.0157 85.4527 29.6953 84.1323 32.375 82.2534 34.0352 79.8159 34.6758L79.523 33.7149C81.4136 33.0039 82.8452 31.4551 83.8179 29.0684 84.7905 26.6817 85.2769 23.7227 85.2769 20.1914 85.2769 16.6524 84.7905 13.6875 83.8179 11.2969 82.8452 8.90628 81.4136 7.3555 79.523 6.64456ZM63.5222 5.68362 63.8152 6.64456C61.9245 7.3555 60.4929 8.90628 59.5203 11.2969 58.5476 13.6875 58.0613 16.6524 58.0613 20.1914 58.0613 23.7227 58.5476 26.6817 59.5203 29.0684 60.4929 31.4551 61.9245 33.0039 63.8152 33.7149L63.5222 34.6758C61.0847 34.0352 59.2058 32.375 57.8855 29.6953 56.5652 27.0157 55.905 23.8438 55.905 20.1797 55.905 16.5157 56.5652 13.3438 57.8855 10.6641 59.2058 7.9844 61.0847 6.32425 63.5222 5.68362Z" fill-rule="evenodd" transform="matrix(1 0 0 1.00163 123.78 108.452)"/><text font-family="Cambria Math,Cambria Math_MSFontService,sans-serif" font-weight="400" font-size="24" transform="matrix(1 0 0 1.00163 188.35 136)">­ЮюЃ</text><path d="M8.83594-15.668 5.89453-13.125 5.27344-13.8281 7.14844-15.457 0-15.457 0-16.5586 7.14844-16.5586 5.27344-18.1875 5.89453-18.8906 8.83594-16.3477Z" transform="matrix(1 0 0 1.00163 192.987 131)"/><text fill="#000000" fill-opacity="0" font-family="Arial,Arial_MSFontService,sans-serif" font-size="5.76562" y="-13.8457">нд</text><path d="M14 58.9296C14 54.043 17.9549 50.0817 22.8335 50.0817L58.1665 50.0817C63.0451 50.0817 67 54.043 67 58.9296L67 198.49C67 203.377 63.0451 207.338 58.1665 207.338L22.8335 207.338C17.9549 207.338 14 203.377 14 198.49Z" stroke="#000000" stroke-width="1.99885" stroke-miterlimit="8" fill="#FFFFFF" fill-rule="evenodd"/><path d="M512 58.9296C512 54.043 515.955 50.0817 520.833 50.0817L556.166 50.0817C561.045 50.0817 565 54.043 565 58.9296L565 198.49C565 203.377 561.045 207.338 556.166 207.338L520.833 207.338C515.955 207.338 512 203.377 512 198.49Z" stroke="#000000" stroke-width="1.99885" stroke-miterlimit="8" fill="#FFFFFF" fill-rule="evenodd"/><path d="M4.69922 5.03906 2.89453 5.03906 2.89453-16.7695 4.69922-16.7695Z" transform="matrix(1 0 0 1.00163 524.378 133)"/><text fill="#000000" fill-opacity="0" font-family="Arial,Arial_MSFontService,sans-serif" font-size="21.8086" x="2.89453" y="2.31299">╚Ђ</text><text font-family="Cambria Math,Cambria Math_MSFontService,sans-serif" font-weight="400" font-size="24" transform="matrix(1 0 0 1.00163 531.967 134)">­ЮЉд</text><path d="M8.47266-16.0078 9.38672-15.6094C9.01953-14.9687 8.66992-14.4746 8.33789-14.127 8.00586-13.7793 7.6875-13.541 7.38281-13.4121 7.07812-13.2832 6.73047-13.2187 6.33984-13.2188 6.08203-13.2187 5.85547-13.2402 5.66016-13.2832 5.46484-13.3262 5.27344-13.3887 5.08594-13.4707 4.89844-13.5527 4.60547-13.7031 4.20703-13.9219 3.94922-14.0625 3.74414-14.1719 3.5918-14.25 3.43945-14.3281 3.28125-14.3926 3.11719-14.4434 2.95312-14.4941 2.78125-14.5195 2.60156-14.5195 2.34375-14.5195 2.13086-14.4805 1.96289-14.4023 1.79492-14.3242 1.625-14.1875 1.45312-13.9922 1.28125-13.7969 1.10156-13.5391 0.914062-13.2188L0-13.6172C0.460937-14.3672 0.837891-14.8887 1.13086-15.1816 1.42383-15.4746 1.72266-15.6855 2.02734-15.8145 2.33203-15.9434 2.69531-16.0078 3.11719-16.0078 3.35156-16.0078 3.5625-15.9863 3.75-15.9434 3.9375-15.9004 4.11133-15.8437 4.27148-15.7734 4.43164-15.7031 4.70703-15.5625 5.09766-15.3516 5.37109-15.1953 5.5918-15.0742 5.75977-14.9883 5.92773-14.9023 6.09766-14.834 6.26953-14.7832 6.44141-14.7324 6.64062-14.707 6.86719-14.707 7.17187-14.707 7.44531-14.8027 7.6875-14.9941 7.92969-15.1855 8.19141-15.5234 8.47266-16.0078Z" transform="matrix(1 0 0 1.00163 535.285 134)"/><text fill="#000000" fill-opacity="0" font-family="Arial,Arial_MSFontService,sans-serif" font-size="2.78906" y="-13.5674">Яиц</text><path d="M2.49609-16.8281 7.17188-6.30469 7.17188-5.4375 2.49609 5.09766 1.24219 4.65234 5.00391-5.87109 1.24219-16.4062Z" transform="matrix(1 0 0 1.00163 545.872 133)"/><text fill="#000000" fill-opacity="0" font-family="Arial,Arial_MSFontService,sans-serif" font-size="21.9258" x="1.24219" y="2.35693">█Д</text><path d="M4.69922 5.03906 2.89453 5.03906 2.89453-16.7695 4.69922-16.7695Z" transform="matrix(1 0 0 1.00163 25.9787 133)"/><text fill="#000000" fill-opacity="0" font-family="Arial,Arial_MSFontService,sans-serif" font-size="21.8086" x="2.89453" y="2.31299">╚Ђ</text><text font-family="Cambria Math,Cambria Math_MSFontService,sans-serif" font-weight="400" font-size="24" transform="matrix(1 0 0 1.00163 33.5676 134)">­ЮЉЦ</text><path d="M2.49609-16.8281 7.17188-6.30469 7.17188-5.4375 2.49609 5.09766 1.24219 4.65234 5.00391-5.87109 1.24219-16.4062Z" transform="matrix(1 0 0 1.00163 47.1198 133)"/><text fill="#000000" fill-opacity="0" font-family="Arial,Arial_MSFontService,sans-serif" font-size="21.9258" x="1.24219" y="2.35693">█Д</text><path d="M130 34.0556C130 31.013 132.303 28.5465 135.144 28.5465L263.921 28.5465C266.762 28.5465 269.065 26.0801 269.065 23.0375 269.065 26.0801 271.368 28.5465 274.209 28.5465L399.856 28.5465C402.697 28.5465 405 31.013 405 34.0556" stroke="#000000" stroke-width="2.00211" stroke-miterlimit="8" fill="none" fill-rule="evenodd"/><path d="M0 0 181.313 0.386024" stroke="#000000" stroke-width="1.99885" stroke-miterlimit="8" fill="none" fill-rule="evenodd" transform="matrix(1 0 0 -1.00163 277 182.684)"/><text font-family="Times New Roman,Times New Roman_MSFontService,sans-serif" font-weight="400" font-size="16" transform="matrix(-1 1.22865e-16 -1.22265e-16 -1.00163 273.499 128)">Рђд</text><path d="M0 0 177.535 0.386024" stroke="#000000" stroke-width="1.99885" stroke-miterlimit="8" fill="none" fill-rule="evenodd" transform="matrix(1 0 0 -1.00163 278 72.5043)"/><path d="M285 62.665C285 55.7154 290.625 50.0817 297.563 50.0817L392.437 50.0817C399.376 50.0817 405 55.7154 405 62.665L405 194.755C405 201.704 399.376 207.338 392.437 207.338L297.563 207.338C290.625 207.338 285 201.704 285 194.755Z" stroke="#000000" stroke-width="1.99885" stroke-miterlimit="8" fill="#FFFFFF" fill-rule="evenodd"/><text font-family="Cambria Math,Cambria Math_MSFontService,sans-serif" font-weight="400" font-size="24" transform="matrix(1 0 0 1.00163 316.702 136)">­ЮЉЅ</text><text font-family="Cambria Math,Cambria Math_MSFontService,sans-serif" font-weight="400" font-size="18" transform="matrix(1 0 0 1.00163 326.07 141)">­ЮЉЏ</text><path d="M78.8565 5.68362C81.294 6.32425 83.1729 7.9844 84.4932 10.6641 85.8135 13.3438 86.4737 16.5157 86.4737 20.1797 86.4737 23.8438 85.8135 27.0157 84.4932 29.6953 83.1729 32.375 81.294 34.0352 78.8565 34.6758L78.5635 33.7149C80.4541 33.0039 81.8858 31.4551 82.8584 29.0684 83.8311 26.6817 84.3174 23.7227 84.3174 20.1914 84.3174 16.6524 83.8311 13.6875 82.8584 11.2969 81.8858 8.90628 80.4541 7.3555 78.5635 6.64456ZM62.5628 5.68362 62.8557 6.64456C60.9651 7.3555 59.5335 8.90628 58.5608 11.2969 57.5882 13.6875 57.1018 16.6524 57.1018 20.1914 57.1018 23.7227 57.5882 26.6817 58.5608 29.0684 59.5335 31.4551 60.9651 33.0039 62.8557 33.7149L62.5628 34.6758C60.1253 34.0352 58.2464 32.375 56.926 29.6953 55.6057 27.0157 54.9456 23.8438 54.9456 20.1797 54.9456 16.5157 55.6057 13.3438 56.926 10.6641 58.2464 7.9844 60.1253 6.32425 62.5628 5.68362Z" fill-rule="evenodd" transform="matrix(1 0 0 1.00163 285.853 108.521)"/><text font-family="Cambria Math,Cambria Math_MSFontService,sans-serif" font-weight="400" font-size="24" transform="matrix(1 0 0 1.00163 349.463 136)">­ЮюЃ</text><path d="M8.83594-15.668 5.89453-13.125 5.27344-13.8281 7.14844-15.457 0-15.457 0-16.5586 7.14844-16.5586 5.27344-18.1875 5.89453-18.8906 8.83594-16.3477Z" transform="matrix(1 0 0 1.00163 354.1 131)"/><text fill="#000000" fill-opacity="0" font-family="Arial,Arial_MSFontService,sans-serif" font-size="5.76562" y="-13.8457">нд</text><text font-family="Times New Roman,Times New Roman_MSFontService,sans-serif" font-weight="400" font-size="16" transform="matrix(-1 1.22865e-16 -1.22265e-16 -1.00163 273.854 184)">Рђд</text><text font-family="Times New Roman,Times New Roman_MSFontService,sans-serif" font-weight="400" font-size="16" transform="matrix(-1 1.22865e-16 -1.22265e-16 -1.00163 273.471 73)">Рђд</text><rect x="456" y="61.0996" width="34" height="23.0375" stroke="#000000" stroke-width="1.99885" stroke-miterlimit="8" fill="#FFFFFF"/><path d="M479.127 65.7443 485.071 63.2741 483.456 69.5129Z" fill="#404040" fill-rule="evenodd"/><path d="M473 70.1144C479.075 70.1144 484 74.8796 484 80.7579L483.922 81.1323 462.078 81.1323 462 80.7579C462 74.8796 466.925 70.1144 473 70.1144Z" stroke="#000000" stroke-width="1.99885" stroke-miterlimit="8" fill="none" fill-rule="evenodd"/><rect x="0" y="0" width="29.0001" height="2" fill="#FFFFFF" transform="matrix(1 0 0 -1.00163 459 82.1339)"/><path d="M0 0 14.3371 15.0717" stroke="#000000" stroke-width="1.99886" stroke-miterlimit="8" fill="none" fill-rule="evenodd" transform="matrix(0.998625 -0.0524212 -0.0523357 -1.00026 469.799 81.0667)"/><path d="M490 68.1111 511.283 68.1112" stroke="#000000" stroke-width="1.99885" stroke-linejoin="round" stroke-miterlimit="10" fill="#156082" fill-rule="evenodd"/><path d="M490 76.1241 511.283 76.1242" stroke="#000000" stroke-width="1.99885" stroke-linejoin="round" stroke-miterlimit="10" fill="#156082" fill-rule="evenodd"/><rect x="456" y="116.189" width="34" height="23.0376" stroke="#000000" stroke-width="1.99885" stroke-miterlimit="8" fill="#FFFFFF"/><path d="M479.15 121.632 485.093 119.162 483.478 125.401Z" fill="#404040" fill-rule="evenodd"/><path d="M473 126.206C479.075 126.206 484 130.971 484 136.849L483.922 137.224 462.078 137.224 462 136.849C462 130.971 466.925 126.206 473 126.206Z" stroke="#000000" stroke-width="1.99885" stroke-miterlimit="8" fill="none" fill-rule="evenodd"/><rect x="0" y="0" width="29.0001" height="2" fill="#FFFFFF" transform="matrix(1 0 0 -1.00163 459 138.225)"/><path d="M0 0 14.3371 15.0717" stroke="#000000" stroke-width="1.99886" stroke-miterlimit="8" fill="none" fill-rule="evenodd" transform="matrix(0.998625 -0.0524212 -0.0523357 -1.00026 469.821 136.955)"/><path d="M490 124.203 511.283 124.203" stroke="#000000" stroke-width="1.99885" stroke-linejoin="round" stroke-miterlimit="10" fill="#156082" fill-rule="evenodd"/><path d="M490 132.216 511.283 132.216" stroke="#000000" stroke-width="1.99885" stroke-linejoin="round" stroke-miterlimit="10" fill="#156082" fill-rule="evenodd"/><rect x="456" y="172.281" width="34" height="23.0375" stroke="#000000" stroke-width="1.99885" stroke-miterlimit="8" fill="#FFFFFF"/><path d="M479.238 177.311 485.181 174.841 483.566 181.079Z" fill="#404040" fill-rule="evenodd"/><path d="M473.5 181.296C479.851 181.296 485 186.061 485 191.939L484.918 192.314 462.082 192.314 462 191.939C462 186.061 467.149 181.296 473.5 181.296Z" stroke="#000000" stroke-width="1.99885" stroke-miterlimit="8" fill="none" fill-rule="evenodd"/><rect x="0" y="0" width="29.0001" height="3.00005" fill="#FFFFFF" transform="matrix(1 0 0 -1.00163 459 194.317)"/><path d="M0 0 14.3371 15.0717" stroke="#000000" stroke-width="1.99886" stroke-miterlimit="8" fill="none" fill-rule="evenodd" transform="matrix(0.998625 -0.0524212 -0.0523357 -1.00026 469.909 192.633)"/><path d="M490 180.294 511.283 180.294" stroke="#000000" stroke-width="1.99885" stroke-linejoin="round" stroke-miterlimit="10" fill="#156082" fill-rule="evenodd"/><path d="M490 187.305 511.283 187.306" stroke="#000000" stroke-width="1.99885" stroke-linejoin="round" stroke-miterlimit="10" fill="#156082" fill-rule="evenodd"/><text font-family="Times New Roman,Times New Roman_MSFontService,sans-serif" font-weight="400" font-size="16" transform="matrix(6.12323e-17 1.00327 -0.998369 6.13324e-17 95.6561 91)">Рђд</text><text font-family="Times New Roman,Times New Roman_MSFontService,sans-serif" font-weight="400" font-size="16" transform="matrix(6.12323e-17 1.00327 -0.998369 6.13324e-17 95.2201 149)">Рђд</text><text font-family="Times New Roman,Times New Roman_MSFontService,sans-serif" font-weight="400" font-size="16" transform="matrix(6.12323e-17 1.00327 -0.998369 6.13324e-17 475.271 149)">Рђд</text><text font-family="Times New Roman,Times New Roman_MSFontService,sans-serif" font-weight="400" font-size="16" transform="matrix(6.12323e-17 1.00327 -0.998369 6.13324e-17 475.271 91)">Рђд</text></g></svg>