<svg width="227" height="227" xmlns="http://www.w3.org/2000/svg" xmlns:xlink="http://www.w3.org/1999/xlink" overflow="hidden"><defs><clipPath id="clip0"><rect x="0" y="0" width="227" height="227"/></clipPath></defs><g clip-path="url(#clip0)"><rect x="0" y="0" width="227" height="227" fill="#FFFFFF"/><path d="M4.5 41.0007C4.5 20.8419 20.8419 4.5 41.0007 4.5L186.999 4.5C207.158 4.5 223.5 20.8419 223.5 41.0007L223.5 186.999C223.5 207.158 207.158 223.5 186.999 223.5L41.0007 223.5C20.8419 223.5 4.5 207.158 4.5 186.999Z" stroke="#000000" stroke-width="1.33431" stroke-miterlimit="8" fill="#F2F2F2" fill-rule="evenodd"/><path d="M124.5 126.456C124.5 122.062 128.062 118.5 132.456 118.5L188.544 118.5C192.938 118.5 196.5 122.062 196.5 126.456L196.5 181.544C196.5 185.938 192.938 189.5 188.544 189.5L132.456 189.5C128.062 189.5 124.5 185.938 124.5 181.544Z" stroke="#000000" stroke-width="3.0022" stroke-miterlimit="8" fill="#F2F2F2" fill-rule="evenodd"/><path d="M147.5 155C147.5 138.708 153.544 125.5 161 125.5 168.456 125.5 174.5 138.708 174.5 155 174.5 171.292 168.456 184.5 161 184.5 153.544 184.5 147.5 171.292 147.5 155Z" stroke="#000000" stroke-width="3.0022" stroke-miterlimit="8" fill="none" fill-rule="evenodd"/><path d="M153.956 142.397C168.686 134.133 183.538 132.622 187.13 139.024 190.722 145.425 181.693 157.315 166.963 165.579 152.232 173.844 137.38 175.355 133.788 168.953 130.196 162.552 139.226 150.662 153.956 142.397Z" stroke="#000000" stroke-width="3.0022" stroke-miterlimit="8" fill="none" fill-rule="evenodd"/><path d="M167.079 143.249C181.538 151.981 190.182 164.153 186.387 170.436 182.593 176.72 167.796 174.735 153.338 166.003 138.879 157.271 130.235 145.099 134.03 138.816 137.824 132.533 152.621 134.517 167.079 143.249Z" stroke="#000000" stroke-width="3.0022" stroke-miterlimit="8" fill="none" fill-rule="evenodd"/><path d="M154.5 155C154.5 151.962 157.186 149.5 160.5 149.5 163.814 149.5 166.5 151.962 166.5 155 166.5 158.038 163.814 160.5 160.5 160.5 157.186 160.5 154.5 158.038 154.5 155Z" stroke="#000000" stroke-width="3.0022" stroke-miterlimit="8" fill-rule="evenodd"/><path d="M189.333 107.5C189.425 107.5 189.5 107.575 189.5 107.667L189.5 118.333C189.5 118.425 189.425 118.5 189.333 118.5L188.667 118.5C188.575 118.5 188.5 118.425 188.5 118.333L188.5 107.667C188.5 107.575 188.575 107.5 188.667 107.5Z" stroke="#000000" stroke-width="3.0022" stroke-miterlimit="8" fill-rule="evenodd"/><path d="M177.333 107.5C177.425 107.5 177.5 107.575 177.5 107.667L177.5 118.333C177.5 118.425 177.425 118.5 177.333 118.5L176.667 118.5C176.575 118.5 176.5 118.425 176.5 118.333L176.5 107.667C176.5 107.575 176.575 107.5 176.667 107.5Z" stroke="#000000" stroke-width="3.0022" stroke-miterlimit="8" fill-rule="evenodd"/><path d="M166.333 107.5C166.425 107.5 166.5 107.575 166.5 107.667L166.5 118.333C166.5 118.425 166.425 118.5 166.333 118.5L165.667 118.5C165.575 118.5 165.5 118.425 165.5 118.333L165.5 107.667C165.5 107.575 165.575 107.5 165.667 107.5Z" stroke="#000000" stroke-width="3.0022" stroke-miterlimit="8" fill-rule="evenodd"/><path d="M155.333 107.5C155.425 107.5 155.5 107.575 155.5 107.667L155.5 118.333C155.5 118.425 155.425 118.5 155.333 118.5L154.667 118.5C154.575 118.5 154.5 118.425 154.5 118.333L154.5 107.667C154.5 107.575 154.575 107.5 154.667 107.5Z" stroke="#000000" stroke-width="3.0022" stroke-miterlimit="8" fill-rule="evenodd"/><path d="M143.333 107.5C143.425 107.5 143.5 107.575 143.5 107.667L143.5 118.333C143.5 118.425 143.425 118.5 143.333 118.5L142.667 118.5C142.575 118.5 142.5 118.425 142.5 118.333L142.5 107.667C142.5 107.575 142.575 107.5 142.667 107.5Z" stroke="#000000" stroke-width="3.0022" stroke-miterlimit="8" fill-rule="evenodd"/><path d="M132.333 107.5C132.425 107.5 132.5 107.575 132.5 107.667L132.5 118.333C132.5 118.425 132.425 118.5 132.333 118.5L131.667 118.5C131.575 118.5 131.5 118.425 131.5 118.333L131.5 107.667C131.5 107.575 131.575 107.5 131.667 107.5Z" stroke="#000000" stroke-width="3.0022" stroke-miterlimit="8" fill-rule="evenodd"/><path d="M189.333 189.5C189.425 189.5 189.5 189.575 189.5 189.667L189.5 200.333C189.5 200.425 189.425 200.5 189.333 200.5L188.667 200.5C188.575 200.5 188.5 200.425 188.5 200.333L188.5 189.667C188.5 189.575 188.575 189.5 188.667 189.5Z" stroke="#000000" stroke-width="3.0022" stroke-miterlimit="8" fill-rule="evenodd"/><path d="M177.333 189.5C177.425 189.5 177.5 189.575 177.5 189.667L177.5 200.333C177.5 200.425 177.425 200.5 177.333 200.5L176.667 200.5C176.575 200.5 176.5 200.425 176.5 200.333L176.5 189.667C176.5 189.575 176.575 189.5 176.667 189.5Z" stroke="#000000" stroke-width="3.0022" stroke-miterlimit="8" fill-rule="evenodd"/><path d="M166.333 189.5C166.425 189.5 166.5 189.575 166.5 189.667L166.5 200.333C166.5 200.425 166.425 200.5 166.333 200.5L165.667 200.5C165.575 200.5 165.5 200.425 165.5 200.333L165.5 189.667C165.5 189.575 165.575 189.5 165.667 189.5Z" stroke="#000000" stroke-width="3.0022" stroke-miterlimit="8" fill-rule="evenodd"/><path d="M155.333 189.5C155.425 189.5 155.5 189.575 155.5 189.667L155.5 200.333C155.5 200.425 155.425 200.5 155.333 200.5L154.667 200.5C154.575 200.5 154.5 200.425 154.5 200.333L154.5 189.667C154.5 189.575 154.575 189.5 154.667 189.5Z" stroke="#000000" stroke-width="3.0022" stroke-miterlimit="8" fill-rule="evenodd"/><path d="M143.333 189.5C143.425 189.5 143.5 189.575 143.5 189.667L143.5 200.333C143.5 200.425 143.425 200.5 143.333 200.5L142.667 200.5C142.575 200.5 142.5 200.425 142.5 200.333L142.5 189.667C142.5 189.575 142.575 189.5 142.667 189.5Z" stroke="#000000" stroke-width="3.0022" stroke-miterlimit="8" fill-rule="evenodd"/><path d="M132.333 189.5C132.425 189.5 132.5 189.575 132.5 189.667L132.5 200.333C132.5 200.425 132.425 200.5 132.333 200.5L131.667 200.5C131.575 200.5 131.5 200.425 131.5 200.333L131.5 189.667C131.5 189.575 131.575 189.5 131.667 189.5Z" stroke="#000000" stroke-width="3.0022" stroke-miterlimit="8" fill-rule="evenodd"/><path d="M196.5 125.667C196.5 125.575 196.575 125.5 196.667 125.5L206.333 125.5C206.425 125.5 206.5 125.575 206.5 125.667L206.5 126.333C206.5 126.425 206.425 126.5 206.333 126.5L196.667 126.5C196.575 126.5 196.5 126.425 196.5 126.333Z" stroke="#000000" stroke-width="3.0022" stroke-miterlimit="8" fill-rule="evenodd"/><path d="M196.5 137.667C196.5 137.575 196.575 137.5 196.667 137.5L206.333 137.5C206.425 137.5 206.5 137.575 206.5 137.667L206.5 138.333C206.5 138.425 206.425 138.5 206.333 138.5L196.667 138.5C196.575 138.5 196.5 138.425 196.5 138.333Z" stroke="#000000" stroke-width="3.0022" stroke-miterlimit="8" fill-rule="evenodd"/><path d="M196.5 148.667C196.5 148.575 196.575 148.5 196.667 148.5L206.333 148.5C206.425 148.5 206.5 148.575 206.5 148.667L206.5 149.333C206.5 149.425 206.425 149.5 206.333 149.5L196.667 149.5C196.575 149.5 196.5 149.425 196.5 149.333Z" stroke="#000000" stroke-width="3.0022" stroke-miterlimit="8" fill-rule="evenodd"/><path d="M196.5 160.667C196.5 160.575 196.575 160.5 196.667 160.5L206.333 160.5C206.425 160.5 206.5 160.575 206.5 160.667L206.5 161.333C206.5 161.425 206.425 161.5 206.333 161.5L196.667 161.5C196.575 161.5 196.5 161.425 196.5 161.333Z" stroke="#000000" stroke-width="3.0022" stroke-miterlimit="8" fill-rule="evenodd"/><path d="M196.5 172.667C196.5 172.575 196.575 172.5 196.667 172.5L206.333 172.5C206.425 172.5 206.5 172.575 206.5 172.667L206.5 173.333C206.5 173.425 206.425 173.5 206.333 173.5L196.667 173.5C196.575 173.5 196.5 173.425 196.5 173.333Z" stroke="#000000" stroke-width="3.0022" stroke-miterlimit="8" fill-rule="evenodd"/><path d="M196.5 183.667C196.5 183.575 196.575 183.5 196.667 183.5L206.333 183.5C206.425 183.5 206.5 183.575 206.5 183.667L206.5 184.333C206.5 184.425 206.425 184.5 206.333 184.5L196.667 184.5C196.575 184.5 196.5 184.425 196.5 184.333Z" stroke="#000000" stroke-width="3.0022" stroke-miterlimit="8" fill-rule="evenodd"/><path d="M113.5 124.667C113.5 124.575 113.575 124.5 113.667 124.5L124.333 124.5C124.425 124.5 124.5 124.575 124.5 124.667L124.5 125.333C124.5 125.425 124.425 125.5 124.333 125.5L113.667 125.5C113.575 125.5 113.5 125.425 113.5 125.333Z" stroke="#000000" stroke-width="3.0022" stroke-miterlimit="8" fill-rule="evenodd"/><path d="M113.5 136.667C113.5 136.575 113.575 136.5 113.667 136.5L124.333 136.5C124.425 136.5 124.5 136.575 124.5 136.667L124.5 137.333C124.5 137.425 124.425 137.5 124.333 137.5L113.667 137.5C113.575 137.5 113.5 137.425 113.5 137.333Z" stroke="#000000" stroke-width="3.0022" stroke-miterlimit="8" fill-rule="evenodd"/><path d="M113.5 148.667C113.5 148.575 113.575 148.5 113.667 148.5L124.333 148.5C124.425 148.5 124.5 148.575 124.5 148.667L124.5 149.333C124.5 149.425 124.425 149.5 124.333 149.5L113.667 149.5C113.575 149.5 113.5 149.425 113.5 149.333Z" stroke="#000000" stroke-width="3.0022" stroke-miterlimit="8" fill-rule="evenodd"/><path d="M113.5 159.667C113.5 159.575 113.575 159.5 113.667 159.5L124.333 159.5C124.425 159.5 124.5 159.575 124.5 159.667L124.5 160.333C124.5 160.425 124.425 160.5 124.333 160.5L113.667 160.5C113.575 160.5 113.5 160.425 113.5 160.333Z" stroke="#000000" stroke-width="3.0022" stroke-miterlimit="8" fill-rule="evenodd"/><path d="M113.5 171.667C113.5 171.575 113.575 171.5 113.667 171.5L124.333 171.5C124.425 171.5 124.5 171.575 124.5 171.667L124.5 172.333C124.5 172.425 124.425 172.5 124.333 172.5L113.667 172.5C113.575 172.5 113.5 172.425 113.5 172.333Z" stroke="#000000" stroke-width="3.0022" stroke-miterlimit="8" fill-rule="evenodd"/><path d="M113.5 183.667C113.5 183.575 113.575 183.5 113.667 183.5L124.333 183.5C124.425 183.5 124.5 183.575 124.5 183.667L124.5 184.333C124.5 184.425 124.425 184.5 124.333 184.5L113.667 184.5C113.575 184.5 113.5 184.425 113.5 184.333Z" stroke="#000000" stroke-width="3.0022" stroke-miterlimit="8" fill-rule="evenodd"/><path d="M64.25 123.5 64.25 153.875 87.7501 153.875 87.7501 148 99.5001 159.75 87.7501 171.5 87.7501 165.625 52.5 165.625 52.5 123.5Z" stroke="#000000" stroke-width="3.0022" stroke-miterlimit="8" fill="#A6A6A6" fill-rule="evenodd"/><g><g><g><path d="M35.3106 65.7519 23.6527 54.1042 35.3106 42.4565 38.1894 45.3352 29.4306 54.1042 38.1894 62.8731 35.3106 65.7519Z" transform="matrix(1.0102 0 0 1 42 0.999999)"/><path d="M62.6894 65.7519 59.8106 62.8731 68.5694 54.1042 59.8106 45.3352 62.6894 42.4565 74.3473 54.1042 62.6894 65.7519Z" transform="matrix(1.0102 0 0 1 42 0.999999)"/><path d="M36.2327 52.6928 61.7817 52.6928 61.7817 56.7823 36.2327 56.7823Z" transform="matrix(0.386171 -0.922427 0.93184 0.382271 21.4987 79.9411)"/><path d="M8.16667 17.3542 8.16667 80.6459 89.8334 80.6459 89.8334 17.3542ZM78.6042 23.4792C79.7318 23.4792 80.6459 24.3932 80.6459 25.5208 80.6459 26.6485 79.7318 27.5625 78.6042 27.5625 77.4766 27.5625 76.5625 26.6485 76.5625 25.5208 76.5625 24.3932 77.4766 23.4792 78.6042 23.4792ZM71.4584 23.4792C72.586 23.4792 73.5 24.3932 73.5 25.5208 73.5 26.6485 72.586 27.5625 71.4584 27.5625 70.3307 27.5625 69.4167 26.6485 69.4167 25.5208 69.4167 24.3932 70.3307 23.4792 71.4584 23.4792ZM64.3125 23.4792C65.4401 23.4792 66.3542 24.3932 66.3542 25.5208 66.3542 26.6485 65.4401 27.5625 64.3125 27.5625 63.1849 27.5625 62.2709 26.6485 62.2709 25.5208 62.2709 24.3932 63.1849 23.4792 64.3125 23.4792ZM83.7084 74.5209 14.2917 74.5209 14.2917 33.6875 83.7084 33.6875Z" transform="matrix(1.0102 0 0 1 42 0.999999)"/></g></g></g><rect x="38" y="44" width="78" height="62.0001" fill="#FFFFFF"/><g><g><g><path d="M38.9138 72.4613 26.0663 59.625 38.9138 46.7888 42.0863 49.9613 32.4338 59.625 42.0863 69.2888 38.9138 72.4613Z" transform="matrix(1 0 0 1.00926 23 19)"/><path d="M69.0863 72.4613 65.9138 69.2888 75.5663 59.625 65.9138 49.9613 69.0863 46.7888 81.9338 59.625 69.0863 72.4613Z" transform="matrix(1 0 0 1.00926 23 19)"/><path d="M39.9235 58.0603 68.075 58.0603 68.075 62.5663 39.9235 62.5663Z" transform="matrix(0.382332 -0.931118 0.922575 0.385872 0.634978 106.802)"/><path d="M9 19.125 9 88.875 99 88.875 99 19.125ZM86.625 25.875C87.8677 25.875 88.875 26.8823 88.875 28.125 88.875 29.3677 87.8677 30.375 86.625 30.375 85.3824 30.375 84.375 29.3677 84.375 28.125 84.375 26.8823 85.3824 25.875 86.625 25.875ZM78.75 25.875C79.9927 25.875 81 26.8823 81 28.125 81 29.3677 79.9927 30.375 78.75 30.375 77.5073 30.375 76.5 29.3677 76.5 28.125 76.5 26.8823 77.5073 25.875 78.75 25.875ZM70.875 25.875C72.1177 25.875 73.125 26.8823 73.125 28.125 73.125 29.3677 72.1177 30.375 70.875 30.375 69.6323 30.375 68.625 29.3677 68.625 28.125 68.625 26.8823 69.6323 25.875 70.875 25.875ZM92.25 82.125 15.75 82.125 15.75 37.125 92.25 37.125Z" transform="matrix(1 0 0 1.00926 23 19)"/></g></g></g><path d="M23 38.5C23 25.5213 33.2974 15 46 15 58.7025 15 69 25.5213 69 38.5 69 51.4787 58.7025 62 46 62 33.2974 62 23 51.4787 23 38.5Z" stroke="#000000" stroke-width="4.00294" stroke-miterlimit="8" fill="#FFFFFF" fill-rule="evenodd"/><g><g><g><path d="M48.4937 39C48.4937 40.4497 47.3185 41.625 45.8687 41.625 44.419 41.625 43.2437 40.4497 43.2437 39 43.2437 37.5502 44.419 36.375 45.8687 36.375 47.3185 36.375 48.4937 37.5502 48.4937 39Z"/><path d="M61.2687 30.25C60.525 28.9812 58.8625 28.3687 56.5875 28.3687 55.1437 28.3687 53.4812 28.6312 51.6437 29.1125 50.375 24.5187 48.275 21.5 45.8687 21.5 43.5062 21.5 41.3625 24.475 40.1375 29.025 38.3875 28.5875 36.8125 28.325 35.4125 28.325 33.1375 28.325 31.475 28.9375 30.7312 30.2062 29.5062 32.3062 31.125 35.675 34.4937 39.0875 31.2562 42.4125 29.7687 45.65 30.95 47.7062 31.6937 48.975 33.3562 49.5875 35.6312 49.5875 36.9437 49.5875 38.475 49.3687 40.1375 48.975 41.4062 53.525 43.5062 56.5 45.8687 56.5 48.2312 56.5 50.375 53.525 51.6 48.975 53.35 49.4125 54.925 49.675 56.325 49.675 58.6 49.675 60.2625 49.0625 61.0062 47.7937 62.1875 45.7375 60.7 42.5 57.4625 39.175 60.9187 35.7187 62.4937 32.35 61.2687 30.25ZM56.5875 30.1187C58.2062 30.1187 59.3875 30.5125 59.7375 31.125 60.3937 32.2625 59.2125 34.9312 56.2375 37.9062 55.1875 36.9437 54.0062 35.9812 52.6937 35.0625 52.5625 33.575 52.3437 32.1312 52.0375 30.775 53.7 30.3375 55.275 30.1187 56.5875 30.1187ZM48.7562 43.55C47.8375 44.075 46.9187 44.5562 46 44.9937 45.0812 44.5562 44.1625 44.075 43.2437 43.55 42.3687 43.025 41.4937 42.5 40.7062 41.975 40.6187 41.0125 40.6187 40.05 40.6187 39 40.6187 38.0375 40.6625 37.1187 40.7062 36.2 41.5812 35.5875 42.5 35.0187 43.5062 34.45 44.3375 33.9687 45.1687 33.5312 46 33.1375 46.8312 33.5312 47.6625 33.9687 48.4937 34.45 49.3687 34.975 50.2437 35.5 51.0312 36.025 51.1187 36.9875 51.1187 37.95 51.1187 39 51.1187 40.0937 51.075 41.1437 50.9875 42.15 50.2875 42.6312 49.5437 43.0687 48.7562 43.55ZM50.7687 44.3812C50.6375 45.2125 50.5062 46.0437 50.375 46.7875 49.6312 46.525 48.8437 46.2625 48.0562 45.9125 48.5812 45.65 49.1062 45.3437 49.6312 45.0375 50.025 44.8187 50.4187 44.6 50.7687 44.3812ZM43.9437 45.9125C43.0687 46.2625 42.2375 46.5687 41.4062 46.8312 41.2312 46 41.1 45.125 40.9687 44.2062 41.45 44.5125 41.8875 44.775 42.4125 45.0812 42.8937 45.3437 43.4187 45.65 43.9437 45.9125ZM38.9125 40.6625C38.2125 40.1375 37.6 39.6125 37.0312 39.0875 37.6 38.5625 38.2562 38.0375 38.9125 37.5125 38.9125 37.9937 38.8687 38.475 38.8687 39 38.8687 39.5687 38.8687 40.1375 38.9125 40.6625ZM40.925 33.9687C41.0562 33.0062 41.1875 32.0875 41.3625 31.2125 42.1937 31.475 43.0687 31.825 43.9437 32.175 43.5062 32.3937 43.025 32.6562 42.5875 32.9187 42.0625 33.2687 41.4937 33.6187 40.925 33.9687ZM48.0125 32.175C48.8 31.825 49.5875 31.5625 50.375 31.3 50.55 32.0875 50.6812 32.9187 50.8125 33.7937 50.3312 33.4875 49.8937 33.225 49.3687 32.9187 48.9312 32.7 48.4937 32.4375 48.0125 32.175ZM52.825 37.3375C53.6125 37.95 54.3125 38.5187 54.9687 39.1312 54.3125 39.7 53.6125 40.3125 52.825 40.8812 52.8687 40.2687 52.8687 39.6562 52.8687 39.0437 52.8687 38.4312 52.8687 37.8625 52.825 37.3375ZM45.8687 23.25C47.1812 23.25 48.8875 25.5687 49.9812 29.5937 48.7125 30.0312 47.3562 30.5562 46 31.1687 44.5562 30.5125 43.1562 29.9437 41.8 29.5062 42.8937 25.525 44.5562 23.25 45.8687 23.25ZM32.2187 31.125C32.6125 30.4687 33.75 30.1187 35.3687 30.1187 36.6375 30.1187 38.0812 30.3375 39.6562 30.7312 39.35 32.1312 39.1312 33.6625 39 35.2375 37.775 36.1125 36.6812 36.9875 35.7187 37.9062 32.7875 34.9312 31.5625 32.2625 32.2187 31.125ZM35.6312 47.8812C34.0125 47.8812 32.8312 47.4875 32.4812 46.875 31.825 45.7375 32.9625 43.2 35.7625 40.3125 36.7687 41.1875 37.8625 42.0625 39.0437 42.9375 39.175 44.4687 39.3937 45.9562 39.7 47.3125 38.2562 47.7062 36.8562 47.8812 35.6312 47.8812ZM45.8687 54.75C44.5562 54.75 42.8937 52.475 41.8 48.5375 43.1562 48.1 44.5562 47.575 46 46.9187 47.3562 47.5312 48.6687 48.0562 49.9375 48.45 48.8437 52.475 47.1812 54.75 45.8687 54.75ZM59.5187 46.875C59.125 47.5312 57.9875 47.8812 56.3687 47.8812 55.1 47.8812 53.6125 47.6625 52.0812 47.2687 52.3437 45.9562 52.5625 44.6 52.6937 43.1125 54.0062 42.1937 55.1875 41.275 56.2375 40.3125 59.0375 43.2 60.175 45.7375 59.5187 46.875Z"/></g></g></g></g></svg>