<svg width="223" height="223" xmlns="http://www.w3.org/2000/svg" xmlns:xlink="http://www.w3.org/1999/xlink" overflow="hidden"><g><rect x="0" y="0" width="223" height="223" fill="#FFFFFF"/><path d="M12.5001 43.5008C12.5001 24.7227 27.7227 9.50005 46.5008 9.50005L182.499 9.50005C201.277 9.50005 216.5 24.7227 216.5 43.5008L216.5 180.499C216.5 199.277 201.277 214.5 182.499 214.5L46.5008 214.5C27.7227 214.5 12.5001 199.277 12.5001 180.499Z" stroke="#000000" stroke-width="1.33333" stroke-miterlimit="8" fill="#F2F2F2" fill-rule="evenodd"/><path d="M118.5 202.5 74.5001 137.804 74.5001 87.1959 118.5 22.5Z" stroke="#404040" stroke-width="1.33333" stroke-miterlimit="8" stroke-dasharray="5.33333 4" fill="#D9D9D9" fill-rule="evenodd"/><rect x="117.5" y="21.5001" width="67" height="182" stroke="#404040" stroke-width="1.33333" stroke-miterlimit="8" stroke-dasharray="5.33333 4" fill="#D9D9D9"/><path d="M0.0120292 53.3127C0.0120292 57.0252 2.99184 60.0355 6.68366 60.0355L53.3407 60.0355C57.0328 60.0355 60.0123 57.0252 60.0123 53.3127L60.0123 6.75835C60.0123 3.04561 57.0328 0.0355383 53.3407 0.0355383L6.68366 0.0355383C2.99184 0.0355383 0.0120292 3.04561 0.0120292 6.75835Z" stroke="#404040" stroke-width="1.1894" stroke-miterlimit="8" fill="#F2F2F2" fill-rule="evenodd" transform="matrix(1 0 0 -1 30.5001 142.5)"/><g><g><g><path d="M63.5625 112C63.5625 114.071 61.8836 115.75 59.8125 115.75 57.7414 115.75 56.0625 114.071 56.0625 112 56.0625 109.929 57.7414 108.25 59.8125 108.25 61.8836 108.25 63.5625 109.929 63.5625 112Z" fill="#404040"/><path d="M81.8125 99.5C80.75 97.6875 78.375 96.8125 75.125 96.8125 73.0625 96.8125 70.6875 97.1875 68.0625 97.875 66.25 91.3125 63.25 87 59.8125 87 56.4375 87 53.375 91.25 51.625 97.75 49.125 97.125 46.875 96.75 44.875 96.75 41.625 96.75 39.25 97.625 38.1875 99.4375 36.4375 102.438 38.75 107.25 43.5625 112.125 38.9375 116.875 36.8125 121.5 38.5 124.438 39.5625 126.25 41.9375 127.125 45.1875 127.125 47.0625 127.125 49.25 126.812 51.625 126.25 53.4375 132.75 56.4375 137 59.8125 137 63.1875 137 66.25 132.75 68 126.25 70.5 126.875 72.75 127.25 74.75 127.25 78 127.25 80.375 126.375 81.4375 124.562 83.125 121.625 81 117 76.375 112.25 81.3125 107.312 83.5625 102.5 81.8125 99.5ZM75.125 99.3125C77.4375 99.3125 79.125 99.875 79.625 100.75 80.5625 102.375 78.875 106.188 74.625 110.438 73.125 109.062 71.4375 107.688 69.5625 106.375 69.375 104.25 69.0625 102.188 68.625 100.25 71 99.625 73.25 99.3125 75.125 99.3125ZM63.9375 118.5C62.625 119.25 61.3125 119.938 60 120.562 58.6875 119.938 57.375 119.25 56.0625 118.5 54.8125 117.75 53.5625 117 52.4375 116.25 52.3125 114.875 52.3125 113.5 52.3125 112 52.3125 110.625 52.375 109.312 52.4375 108 53.6875 107.125 55 106.312 56.4375 105.5 57.625 104.812 58.8125 104.188 60 103.625 61.1875 104.188 62.375 104.812 63.5625 105.5 64.8125 106.25 66.0625 107 67.1875 107.75 67.3125 109.125 67.3125 110.5 67.3125 112 67.3125 113.562 67.25 115.062 67.125 116.5 66.125 117.188 65.0625 117.812 63.9375 118.5ZM66.8125 119.688C66.625 120.875 66.4375 122.062 66.25 123.125 65.1875 122.75 64.0625 122.375 62.9375 121.875 63.6875 121.5 64.4375 121.062 65.1875 120.625 65.75 120.312 66.3125 120 66.8125 119.688ZM57.0625 121.875C55.8125 122.375 54.625 122.812 53.4375 123.188 53.1875 122 53 120.75 52.8125 119.438 53.5 119.875 54.125 120.25 54.875 120.688 55.5625 121.062 56.3125 121.5 57.0625 121.875ZM49.875 114.375C48.875 113.625 48 112.875 47.1875 112.125 48 111.375 48.9375 110.625 49.875 109.875 49.875 110.562 49.8125 111.25 49.8125 112 49.8125 112.812 49.8125 113.625 49.875 114.375ZM52.75 104.812C52.9375 103.438 53.125 102.125 53.375 100.875 54.5625 101.25 55.8125 101.75 57.0625 102.25 56.4375 102.562 55.75 102.938 55.125 103.312 54.375 103.812 53.5625 104.312 52.75 104.812ZM62.875 102.25C64 101.75 65.125 101.375 66.25 101 66.5 102.125 66.6875 103.312 66.875 104.562 66.1875 104.125 65.5625 103.75 64.8125 103.312 64.1875 103 63.5625 102.625 62.875 102.25ZM69.75 109.625C70.875 110.5 71.875 111.312 72.8125 112.188 71.875 113 70.875 113.875 69.75 114.688 69.8125 113.812 69.8125 112.938 69.8125 112.062 69.8125 111.188 69.8125 110.375 69.75 109.625ZM59.8125 89.5C61.6875 89.5 64.125 92.8125 65.6875 98.5625 63.875 99.1875 61.9375 99.9375 60 100.812 57.9375 99.875 55.9375 99.0625 54 98.4375 55.5625 92.75 57.9375 89.5 59.8125 89.5ZM40.3125 100.75C40.875 99.8125 42.5 99.3125 44.8125 99.3125 46.625 99.3125 48.6875 99.625 50.9375 100.188 50.5 102.188 50.1875 104.375 50 106.625 48.25 107.875 46.6875 109.125 45.3125 110.438 41.125 106.188 39.375 102.375 40.3125 100.75ZM45.1875 124.688C42.875 124.688 41.1875 124.125 40.6875 123.25 39.75 121.625 41.375 118 45.375 113.875 46.8125 115.125 48.375 116.375 50.0625 117.625 50.25 119.812 50.5625 121.938 51 123.875 48.9375 124.438 46.9375 124.688 45.1875 124.688ZM59.8125 134.5C57.9375 134.5 55.5625 131.25 54 125.625 55.9375 125 57.9375 124.25 60 123.312 61.9375 124.188 63.8125 124.938 65.625 125.5 64.0625 131.25 61.6875 134.5 59.8125 134.5ZM79.3125 123.25C78.75 124.188 77.125 124.688 74.8125 124.688 73 124.688 70.875 124.375 68.6875 123.812 69.0625 121.938 69.375 120 69.5625 117.875 71.4375 116.562 73.125 115.25 74.625 113.875 78.625 118 80.25 121.625 79.3125 123.25Z" fill="#404040"/></g></g></g><path d="M0.852977 7.01447C0.936345 7.01447 1.01971 6.97552 1.01971 6.92805L1.01971 0.100684C1.01971 0.0532157 0.936345 0.0142618 0.852977 0.0142618L0.186448 0.0142618C0.10308 0.0142618 0.0197125 0.0532157 0.0197125 0.100684L0.0197125 6.92805C0.0197125 6.97552 0.10308 7.01447 0.186448 7.01447Z" stroke="#404040" stroke-width="0.528609" stroke-miterlimit="8" fill="#404040" fill-rule="evenodd" transform="matrix(1 0 0 -1 159.5 33.5001)"/><path d="M0.852977 7.01447C0.936345 7.01447 1.01971 6.97552 1.01971 6.92805L1.01971 0.100684C1.01971 0.0532157 0.936345 0.0142618 0.852977 0.0142618L0.186448 0.0142618C0.10308 0.0142618 0.0197125 0.0532157 0.0197125 0.100684L0.0197125 6.92805C0.0197125 6.97552 0.10308 7.01447 0.186448 7.01447Z" stroke="#404040" stroke-width="1.1894" stroke-miterlimit="8" fill="#404040" fill-rule="evenodd" transform="matrix(1 0 0 -1 159.5 33.5001)"/><path d="M0.848871 7.01447C0.932238 7.01447 1.01561 6.97552 1.01561 6.92805L1.01561 0.100684C1.01561 0.0532157 0.932238 0.0142618 0.848871 0.0142618L0.18193 0.0142618C0.0985626 0.0142618 0.0151951 0.0532157 0.0151951 0.100684L0.0151951 6.92805C0.0151951 6.97552 0.0985626 7.01447 0.18193 7.01447Z" stroke="#404040" stroke-width="0.528609" stroke-miterlimit="8" fill="#404040" fill-rule="evenodd" transform="matrix(1 0 0 -1 140.5 33.5001)"/><path d="M0.848871 7.01447C0.932238 7.01447 1.01561 6.97552 1.01561 6.92805L1.01561 0.100684C1.01561 0.0532157 0.932238 0.0142618 0.848871 0.0142618L0.18193 0.0142618C0.0985626 0.0142618 0.0151951 0.0532157 0.0151951 0.100684L0.0151951 6.92805C0.0151951 6.97552 0.0985626 7.01447 0.18193 7.01447Z" stroke="#404040" stroke-width="1.1894" stroke-miterlimit="8" fill="#404040" fill-rule="evenodd" transform="matrix(1 0 0 -1 140.5 33.5001)"/><path d="M0.852977 7.03789C0.936345 7.03789 1.01971 6.99894 1.01971 6.95147L1.01971 0.124312C1.01971 0.0768435 0.936345 0.0378896 0.852977 0.0378896L0.186448 0.0378896C0.10308 0.0378896 0.0197125 0.0768435 0.0197125 0.124312L0.0197125 6.95147C0.0197125 6.99894 0.10308 7.03789 0.186448 7.03789Z" stroke="#404040" stroke-width="0.528609" stroke-miterlimit="8" fill="#404040" fill-rule="evenodd" transform="matrix(1 0 0 -1 164.5 198.5)"/><path d="M0.852977 7.03789C0.936345 7.03789 1.01971 6.99894 1.01971 6.95147L1.01971 0.124312C1.01971 0.0768435 0.936345 0.0378896 0.852977 0.0378896L0.186448 0.0378896C0.10308 0.0378896 0.0197125 0.0768435 0.0197125 0.124312L0.0197125 6.95147C0.0197125 6.99894 0.10308 7.03789 0.186448 7.03789Z" stroke="#404040" stroke-width="1.1894" stroke-miterlimit="8" fill="#404040" fill-rule="evenodd" transform="matrix(1 0 0 -1 164.5 198.5)"/><path d="M0.857612 7.03789C0.940854 7.03789 1.0241 7.00873 1.0241 6.97318L1.0241 0.102813C1.0241 0.0670518 0.940854 0.0378896 0.857612 0.0378896L0.190581 0.0378896C0.106791 0.0378896 0.0235487 0.0670518 0.0235487 0.102813L0.0235487 6.97318C0.0235487 7.00873 0.106791 7.03789 0.190581 7.03789Z" stroke="#404040" stroke-width="0.528609" stroke-miterlimit="8" fill="#404040" fill-rule="evenodd" transform="matrix(1 0 0 -1 155.5 198.5)"/><path d="M0.857612 7.03789C0.940854 7.03789 1.0241 7.00873 1.0241 6.97318L1.0241 0.102813C1.0241 0.0670518 0.940854 0.0378896 0.857612 0.0378896L0.190581 0.0378896C0.106791 0.0378896 0.0235487 0.0670518 0.0235487 0.102813L0.0235487 6.97318C0.0235487 7.00873 0.106791 7.03789 0.190581 7.03789Z" stroke="#404040" stroke-width="1.1894" stroke-miterlimit="8" fill="#404040" fill-rule="evenodd" transform="matrix(1 0 0 -1 155.5 198.5)"/><path d="M0.850513 7.03789C0.933881 7.03789 1.01725 6.99894 1.01725 6.95147L1.01725 0.124312C1.01725 0.0768435 0.933881 0.0378896 0.850513 0.0378896L0.183573 0.0378896C0.100205 0.0378896 0.0168378 0.0768435 0.0168378 0.124312L0.0168378 6.95147C0.0168378 6.99894 0.100205 7.03789 0.183573 7.03789Z" stroke="#404040" stroke-width="0.528609" stroke-miterlimit="8" fill="#404040" fill-rule="evenodd" transform="matrix(1 0 0 -1 145.5 198.5)"/><path d="M0.850513 7.03789C0.933881 7.03789 1.01725 6.99894 1.01725 6.95147L1.01725 0.124312C1.01725 0.0768435 0.933881 0.0378896 0.850513 0.0378896L0.183573 0.0378896C0.100205 0.0378896 0.0168378 0.0768435 0.0168378 0.124312L0.0168378 6.95147C0.0168378 6.99894 0.100205 7.03789 0.183573 7.03789Z" stroke="#404040" stroke-width="1.1894" stroke-miterlimit="8" fill="#404040" fill-rule="evenodd" transform="matrix(1 0 0 -1 145.5 198.5)"/><path d="M0.848871 7.03789C0.932238 7.03789 1.01561 6.99894 1.01561 6.95147L1.01561 0.124312C1.01561 0.0768435 0.932238 0.0378896 0.848871 0.0378896L0.18193 0.0378896C0.0985626 0.0378896 0.0151951 0.0768435 0.0151951 0.124312L0.0151951 6.95147C0.0151951 6.99894 0.0985626 7.03789 0.18193 7.03789Z" stroke="#404040" stroke-width="0.528609" stroke-miterlimit="8" fill="#404040" fill-rule="evenodd" transform="matrix(1 0 0 -1 136.5 198.5)"/><path d="M0.848871 7.03789C0.932238 7.03789 1.01561 6.99894 1.01561 6.95147L1.01561 0.124312C1.01561 0.0768435 0.932238 0.0378896 0.848871 0.0378896L0.18193 0.0378896C0.0985626 0.0378896 0.0151951 0.0768435 0.0151951 0.124312L0.0151951 6.95147C0.0151951 6.99894 0.0985626 7.03789 0.18193 7.03789Z" stroke="#404040" stroke-width="1.1894" stroke-miterlimit="8" fill="#404040" fill-rule="evenodd" transform="matrix(1 0 0 -1 136.5 198.5)"/><path d="M0.00751571 0.900205C0.00751571 0.992197 0.0479679 1.06694 0.0972621 1.06694L6.91777 1.06694C6.96264 1.06694 7.00752 0.992197 7.00752 0.900205L7.00752 0.233265C7.00752 0.141684 6.96264 0.0665298 6.91777 0.0665298L0.0972621 0.0665298C0.0479679 0.0665298 0.00751571 0.141684 0.00751571 0.233265Z" stroke="#404040" stroke-width="0.528609" stroke-miterlimit="8" fill="#404040" fill-rule="evenodd" transform="matrix(1 0 0 -1 123.5 129.5)"/><path d="M0.00751571 0.900205C0.00751571 0.992197 0.0479679 1.06694 0.0972621 1.06694L6.91777 1.06694C6.96264 1.06694 7.00752 0.992197 7.00752 0.900205L7.00752 0.233265C7.00752 0.141684 6.96264 0.0665298 6.91777 0.0665298L0.0972621 0.0665298C0.0479679 0.0665298 0.00751571 0.141684 0.00751571 0.233265Z" stroke="#404040" stroke-width="1.1894" stroke-miterlimit="8" fill="#404040" fill-rule="evenodd" transform="matrix(1 0 0 -1 123.5 129.5)"/><path d="M0.00751571 0.868172C0.00751571 0.959754 0.0479679 1.03491 0.0972621 1.03491L6.91777 1.03491C6.96264 1.03491 7.00752 0.959754 7.00752 0.868172L7.00752 0.201232C7.00752 0.109651 6.96264 0.0344969 6.91777 0.0344969L0.0972621 0.0344969C0.0479679 0.0344969 0.00751571 0.109651 0.00751571 0.201232Z" stroke="#404040" stroke-width="0.528609" stroke-miterlimit="8" fill="#404040" fill-rule="evenodd" transform="matrix(1 0 0 -1 123.5 158.5)"/><path d="M0.00751571 0.868172C0.00751571 0.959754 0.0479679 1.03491 0.0972621 1.03491L6.91777 1.03491C6.96264 1.03491 7.00752 0.959754 7.00752 0.868172L7.00752 0.201232C7.00752 0.109651 6.96264 0.0344969 6.91777 0.0344969L0.0972621 0.0344969C0.0479679 0.0344969 0.00751571 0.109651 0.00751571 0.201232Z" stroke="#404040" stroke-width="1.1894" stroke-miterlimit="8" fill="#404040" fill-rule="evenodd" transform="matrix(1 0 0 -1 123.5 158.5)"/><path d="M0.00947358 0.900616C0.00947358 0.992197 0.0479363 1.06735 0.0863991 1.06735L5.93255 1.06735C5.97101 1.06735 6.00947 0.992197 6.00947 0.900616L6.00947 0.233676C6.00947 0.142094 5.97101 0.0669404 5.93255 0.0669404L0.0863991 0.0669404C0.0479363 0.0669404 0.00947358 0.142094 0.00947358 0.233676Z" stroke="#404040" stroke-width="0.528609" stroke-miterlimit="8" fill="#404040" fill-rule="evenodd" transform="matrix(1 0 0 -1 171.5 130.5)"/><path d="M0.00947358 0.900616C0.00947358 0.992197 0.0479363 1.06735 0.0863991 1.06735L5.93255 1.06735C5.97101 1.06735 6.00947 0.992197 6.00947 0.900616L6.00947 0.233676C6.00947 0.142094 5.97101 0.0669404 5.93255 0.0669404L0.0863991 0.0669404C0.0479363 0.0669404 0.00947358 0.142094 0.00947358 0.233676Z" stroke="#404040" stroke-width="1.1894" stroke-miterlimit="8" fill="#404040" fill-rule="evenodd" transform="matrix(1 0 0 -1 171.5 130.5)"/><path d="M0.00947358 0.868583C0.00947358 0.960164 0.0479363 1.03532 0.0863991 1.03532L5.93255 1.03532C5.97101 1.03532 6.00947 0.960164 6.00947 0.868583L6.00947 0.201643C6.00947 0.110062 5.97101 0.0349076 5.93255 0.0349076L0.0863991 0.0349076C0.0479363 0.0349076 0.00947358 0.110062 0.00947358 0.201643Z" stroke="#404040" stroke-width="0.528609" stroke-miterlimit="8" fill="#404040" fill-rule="evenodd" transform="matrix(1 0 0 -1 171.5 158.5)"/><path d="M0.00947358 0.868583C0.00947358 0.960164 0.0479363 1.03532 0.0863991 1.03532L5.93255 1.03532C5.97101 1.03532 6.00947 0.960164 6.00947 0.868583L6.00947 0.201643C6.00947 0.110062 5.97101 0.0349076 5.93255 0.0349076L0.0863991 0.0349076C0.0479363 0.0349076 0.00947358 0.110062 0.00947358 0.201643Z" stroke="#404040" stroke-width="1.1894" stroke-miterlimit="8" fill="#404040" fill-rule="evenodd" transform="matrix(1 0 0 -1 171.5 158.5)"/><path d="M0.852977 7.03789C0.936345 7.03789 1.01971 6.99894 1.01971 6.95147L1.01971 0.124312C1.01971 0.0768435 0.936345 0.0378896 0.852977 0.0378896L0.186448 0.0378896C0.10308 0.0378896 0.0197125 0.0768435 0.0197125 0.124312L0.0197125 6.95147C0.0197125 6.99894 0.10308 7.03789 0.186448 7.03789Z" stroke="#404040" stroke-width="0.528609" stroke-miterlimit="8" fill="#404040" fill-rule="evenodd" transform="matrix(1 0 0 -1 166.5 139.5)"/><path d="M0.852977 7.03789C0.936345 7.03789 1.01971 6.99894 1.01971 6.95147L1.01971 0.124312C1.01971 0.0768435 0.936345 0.0378896 0.852977 0.0378896L0.186448 0.0378896C0.10308 0.0378896 0.0197125 0.0768435 0.0197125 0.124312L0.0197125 6.95147C0.0197125 6.99894 0.10308 7.03789 0.186448 7.03789Z" stroke="#404040" stroke-width="1.1894" stroke-miterlimit="8" fill="#404040" fill-rule="evenodd" transform="matrix(1 0 0 -1 166.5 139.5)"/><path d="M0.858708 7.03789C0.94195 7.03789 1.02519 7.00873 1.02519 6.97318L1.02519 0.102813C1.02519 0.0670518 0.94195 0.0378896 0.858708 0.0378896L0.191676 0.0378896C0.108434 0.0378896 0.024644 0.0670518 0.024644 0.102813L0.024644 6.97318C0.024644 7.00873 0.108434 7.03789 0.191676 7.03789Z" stroke="#404040" stroke-width="0.528609" stroke-miterlimit="8" fill="#404040" fill-rule="evenodd" transform="matrix(1 0 0 -1 160.5 139.5)"/><path d="M0.858708 7.03789C0.94195 7.03789 1.02519 7.00873 1.02519 6.97318L1.02519 0.102813C1.02519 0.0670518 0.94195 0.0378896 0.858708 0.0378896L0.191676 0.0378896C0.108434 0.0378896 0.024644 0.0670518 0.024644 0.102813L0.024644 6.97318C0.024644 7.00873 0.108434 7.03789 0.191676 7.03789Z" stroke="#404040" stroke-width="1.1894" stroke-miterlimit="8" fill="#404040" fill-rule="evenodd" transform="matrix(1 0 0 -1 160.5 139.5)"/><path d="M0.857612 7.03789C0.940854 7.03789 1.0241 7.00873 1.0241 6.97318L1.0241 0.102813C1.0241 0.0670518 0.940854 0.0378896 0.857612 0.0378896L0.190581 0.0378896C0.106791 0.0378896 0.0235487 0.0670518 0.0235487 0.102813L0.0235487 6.97318C0.0235487 7.00873 0.106791 7.03789 0.190581 7.03789Z" stroke="#404040" stroke-width="0.528609" stroke-miterlimit="8" fill="#404040" fill-rule="evenodd" transform="matrix(1 0 0 -1 153.5 139.5)"/><path d="M0.857612 7.03789C0.940854 7.03789 1.0241 7.00873 1.0241 6.97318L1.0241 0.102813C1.0241 0.0670518 0.940854 0.0378896 0.857612 0.0378896L0.190581 0.0378896C0.106791 0.0378896 0.0235487 0.0670518 0.0235487 0.102813L0.0235487 6.97318C0.0235487 7.00873 0.106791 7.03789 0.190581 7.03789Z" stroke="#404040" stroke-width="1.1894" stroke-miterlimit="8" fill="#404040" fill-rule="evenodd" transform="matrix(1 0 0 -1 153.5 139.5)"/><path d="M0.850513 7.03789C0.933881 7.03789 1.01725 6.99894 1.01725 6.95147L1.01725 0.124312C1.01725 0.0768435 0.933881 0.0378896 0.850513 0.0378896L0.183573 0.0378896C0.100205 0.0378896 0.0168378 0.0768435 0.0168378 0.124312L0.0168378 6.95147C0.0168378 6.99894 0.100205 7.03789 0.183573 7.03789Z" stroke="#404040" stroke-width="0.528609" stroke-miterlimit="8" fill="#404040" fill-rule="evenodd" transform="matrix(1 0 0 -1 147.5 139.5)"/><path d="M0.850513 7.03789C0.933881 7.03789 1.01725 6.99894 1.01725 6.95147L1.01725 0.124312C1.01725 0.0768435 0.933881 0.0378896 0.850513 0.0378896L0.183573 0.0378896C0.100205 0.0378896 0.0168378 0.0768435 0.0168378 0.124312L0.0168378 6.95147C0.0168378 6.99894 0.100205 7.03789 0.183573 7.03789Z" stroke="#404040" stroke-width="1.1894" stroke-miterlimit="8" fill="#404040" fill-rule="evenodd" transform="matrix(1 0 0 -1 147.5 139.5)"/><path d="M0.854874 7.03789C0.938664 7.03789 1.02191 7.00873 1.02191 6.97318L1.02191 0.102813C1.02191 0.0670518 0.938664 0.0378896 0.854874 0.0378896L0.187842 0.0378896C0.1046 0.0378896 0.0213582 0.0670518 0.0213582 0.102813L0.0213582 6.97318C0.0213582 7.00873 0.1046 7.03789 0.187842 7.03789Z" stroke="#404040" stroke-width="0.528609" stroke-miterlimit="8" fill="#404040" fill-rule="evenodd" transform="matrix(1 0 0 -1 140.5 139.5)"/><path d="M0.854874 7.03789C0.938664 7.03789 1.02191 7.00873 1.02191 6.97318L1.02191 0.102813C1.02191 0.0670518 0.938664 0.0378896 0.854874 0.0378896L0.187842 0.0378896C0.1046 0.0378896 0.0213582 0.0670518 0.0213582 0.102813L0.0213582 6.97318C0.0213582 7.00873 0.1046 7.03789 0.187842 7.03789Z" stroke="#404040" stroke-width="1.1894" stroke-miterlimit="8" fill="#404040" fill-rule="evenodd" transform="matrix(1 0 0 -1 140.5 139.5)"/><path d="M0.848871 7.03789C0.932238 7.03789 1.01561 6.99894 1.01561 6.95147L1.01561 0.124312C1.01561 0.0768435 0.932238 0.0378896 0.848871 0.0378896L0.18193 0.0378896C0.0985626 0.0378896 0.0151951 0.0768435 0.0151951 0.124312L0.0151951 6.95147C0.0151951 6.99894 0.0985626 7.03789 0.18193 7.03789Z" stroke="#404040" stroke-width="0.528609" stroke-miterlimit="8" fill="#404040" fill-rule="evenodd" transform="matrix(1 0 0 -1 134.5 139.5)"/><path d="M0.848871 7.03789C0.932238 7.03789 1.01561 6.99894 1.01561 6.95147L1.01561 0.124312C1.01561 0.0768435 0.932238 0.0378896 0.848871 0.0378896L0.18193 0.0378896C0.0985626 0.0378896 0.0151951 0.0768435 0.0151951 0.124312L0.0151951 6.95147C0.0151951 6.99894 0.0985626 7.03789 0.18193 7.03789Z" stroke="#404040" stroke-width="1.1894" stroke-miterlimit="8" fill="#404040" fill-rule="evenodd" transform="matrix(1 0 0 -1 134.5 139.5)"/><path d="M0.852977 6.01241C0.936345 6.01241 1.01971 5.97902 1.01971 5.93833L1.01971 0.0863007C1.01971 0.0456135 0.936345 0.0122244 0.852977 0.0122244L0.186448 0.0122244C0.10308 0.0122244 0.0197125 0.0456135 0.0197125 0.0863007L0.0197125 5.93833C0.0197125 5.97902 0.10308 6.01241 0.186448 6.01241Z" stroke="#404040" stroke-width="0.528609" stroke-miterlimit="8" fill="#404040" fill-rule="evenodd" transform="matrix(1 0 0 -1 164.5 150.5)"/><path d="M0.852977 6.01241C0.936345 6.01241 1.01971 5.97902 1.01971 5.93833L1.01971 0.0863007C1.01971 0.0456135 0.936345 0.0122244 0.852977 0.0122244L0.186448 0.0122244C0.10308 0.0122244 0.0197125 0.0456135 0.0197125 0.0863007L0.0197125 5.93833C0.0197125 5.97902 0.10308 6.01241 0.186448 6.01241Z" stroke="#404040" stroke-width="1.1894" stroke-miterlimit="8" fill="#404040" fill-rule="evenodd" transform="matrix(1 0 0 -1 164.5 150.5)"/><path d="M0.857612 6.01241C0.940854 6.01241 1.0241 5.98741 1.0241 5.95676L1.0241 0.0678729C1.0241 0.0372206 0.940854 0.0122244 0.857612 0.0122244L0.190581 0.0122244C0.106791 0.0122244 0.0235487 0.0372206 0.0235487 0.0678729L0.0235487 5.95676C0.0235487 5.98741 0.106791 6.01241 0.190581 6.01241Z" stroke="#404040" stroke-width="0.528609" stroke-miterlimit="8" fill="#404040" fill-rule="evenodd" transform="matrix(1 0 0 -1 155.5 150.5)"/><path d="M0.857612 6.01241C0.940854 6.01241 1.0241 5.98741 1.0241 5.95676L1.0241 0.0678729C1.0241 0.0372206 0.940854 0.0122244 0.857612 0.0122244L0.190581 0.0122244C0.106791 0.0122244 0.0235487 0.0372206 0.0235487 0.0678729L0.0235487 5.95676C0.0235487 5.98741 0.106791 6.01241 0.190581 6.01241Z" stroke="#404040" stroke-width="1.1894" stroke-miterlimit="8" fill="#404040" fill-rule="evenodd" transform="matrix(1 0 0 -1 155.5 150.5)"/><path d="M0.850513 6.01241C0.933881 6.01241 1.01725 5.97902 1.01725 5.93833L1.01725 0.0863007C1.01725 0.0456135 0.933881 0.0122244 0.850513 0.0122244L0.183573 0.0122244C0.100205 0.0122244 0.0168378 0.0456135 0.0168378 0.0863007L0.0168378 5.93833C0.0168378 5.97902 0.100205 6.01241 0.183573 6.01241Z" stroke="#404040" stroke-width="0.528609" stroke-miterlimit="8" fill="#404040" fill-rule="evenodd" transform="matrix(1 0 0 -1 145.5 150.5)"/><path d="M0.850513 6.01241C0.933881 6.01241 1.01725 5.97902 1.01725 5.93833L1.01725 0.0863007C1.01725 0.0456135 0.933881 0.0122244 0.850513 0.0122244L0.183573 0.0122244C0.100205 0.0122244 0.0168378 0.0456135 0.0168378 0.0863007L0.0168378 5.93833C0.0168378 5.97902 0.100205 6.01241 0.183573 6.01241Z" stroke="#404040" stroke-width="1.1894" stroke-miterlimit="8" fill="#404040" fill-rule="evenodd" transform="matrix(1 0 0 -1 145.5 150.5)"/><path d="M0.848871 6.01241C0.932238 6.01241 1.01561 5.97902 1.01561 5.93833L1.01561 0.0863007C1.01561 0.0456135 0.932238 0.0122244 0.848871 0.0122244L0.18193 0.0122244C0.0985626 0.0122244 0.0151951 0.0456135 0.0151951 0.0863007L0.0151951 5.93833C0.0151951 5.97902 0.0985626 6.01241 0.18193 6.01241Z" stroke="#404040" stroke-width="0.528609" stroke-miterlimit="8" fill="#404040" fill-rule="evenodd" transform="matrix(1 0 0 -1 136.5 150.5)"/><path d="M0.848871 6.01241C0.932238 6.01241 1.01561 5.97902 1.01561 5.93833L1.01561 0.0863007C1.01561 0.0456135 0.932238 0.0122244 0.848871 0.0122244L0.18193 0.0122244C0.0985626 0.0122244 0.0151951 0.0456135 0.0151951 0.0863007L0.0151951 5.93833C0.0151951 5.97902 0.0985626 6.01241 0.18193 6.01241Z" stroke="#404040" stroke-width="1.1894" stroke-miterlimit="8" fill="#404040" fill-rule="evenodd" transform="matrix(1 0 0 -1 136.5 150.5)"/><path d="M0.00751571 0.868172C0.00751571 0.959754 0.0479679 1.03491 0.0972621 1.03491L6.91777 1.03491C6.96264 1.03491 7.00752 0.959754 7.00752 0.868172L7.00752 0.201232C7.00752 0.109651 6.96264 0.0344969 6.91777 0.0344969L0.0972621 0.0344969C0.0479679 0.0344969 0.00751571 0.109651 0.00751571 0.201232Z" stroke="#404040" stroke-width="0.528609" stroke-miterlimit="8" fill="#404040" fill-rule="evenodd" transform="matrix(1 0 0 -1 123.5 96.5001)"/><path d="M0.00751571 0.868172C0.00751571 0.959754 0.0479679 1.03491 0.0972621 1.03491L6.91777 1.03491C6.96264 1.03491 7.00752 0.959754 7.00752 0.868172L7.00752 0.201232C7.00752 0.109651 6.96264 0.0344969 6.91777 0.0344969L0.0972621 0.0344969C0.0479679 0.0344969 0.00751571 0.109651 0.00751571 0.201232Z" stroke="#404040" stroke-width="1.1894" stroke-miterlimit="8" fill="#404040" fill-rule="evenodd" transform="matrix(1 0 0 -1 123.5 96.5001)"/><path d="M0.00947358 0.868583C0.00947358 0.960164 0.0479363 1.03532 0.0863991 1.03532L5.93255 1.03532C5.97101 1.03532 6.00947 0.960164 6.00947 0.868583L6.00947 0.201643C6.00947 0.110062 5.97101 0.0349076 5.93255 0.0349076L0.0863991 0.0349076C0.0479363 0.0349076 0.00947358 0.110062 0.00947358 0.201643Z" stroke="#404040" stroke-width="0.528609" stroke-miterlimit="8" fill="#404040" fill-rule="evenodd" transform="matrix(1 0 0 -1 171.5 96.5001)"/><path d="M0.00947358 0.868583C0.00947358 0.960164 0.0479363 1.03532 0.0863991 1.03532L5.93255 1.03532C5.97101 1.03532 6.00947 0.960164 6.00947 0.868583L6.00947 0.201643C6.00947 0.110062 5.97101 0.0349076 5.93255 0.0349076L0.0863991 0.0349076C0.0479363 0.0349076 0.00947358 0.110062 0.00947358 0.201643Z" stroke="#404040" stroke-width="1.1894" stroke-miterlimit="8" fill="#404040" fill-rule="evenodd" transform="matrix(1 0 0 -1 171.5 96.5001)"/><path d="M0.852977 6.01241C0.936345 6.01241 1.01971 5.97902 1.01971 5.93833L1.01971 0.0863007C1.01971 0.0456135 0.936345 0.0122244 0.852977 0.0122244L0.186448 0.0122244C0.10308 0.0122244 0.0197125 0.0456135 0.0197125 0.0863007L0.0197125 5.93833C0.0197125 5.97902 0.10308 6.01241 0.186448 6.01241Z" stroke="#404040" stroke-width="0.528609" stroke-miterlimit="8" fill="#404040" fill-rule="evenodd" transform="matrix(1 0 0 -1 166.5 91.5001)"/><path d="M0.852977 6.01241C0.936345 6.01241 1.01971 5.97902 1.01971 5.93833L1.01971 0.0863007C1.01971 0.0456135 0.936345 0.0122244 0.852977 0.0122244L0.186448 0.0122244C0.10308 0.0122244 0.0197125 0.0456135 0.0197125 0.0863007L0.0197125 5.93833C0.0197125 5.97902 0.10308 6.01241 0.186448 6.01241Z" stroke="#404040" stroke-width="1.1894" stroke-miterlimit="8" fill="#404040" fill-rule="evenodd" transform="matrix(1 0 0 -1 166.5 91.5001)"/><path d="M0.858708 6.01241C0.94195 6.01241 1.02519 5.98741 1.02519 5.95676L1.02519 0.0678729C1.02519 0.0372206 0.94195 0.0122244 0.858708 0.0122244L0.191676 0.0122244C0.108434 0.0122244 0.024644 0.0372206 0.024644 0.0678729L0.024644 5.95676C0.024644 5.98741 0.108434 6.01241 0.191676 6.01241Z" stroke="#404040" stroke-width="0.528609" stroke-miterlimit="8" fill="#404040" fill-rule="evenodd" transform="matrix(1 0 0 -1 160.5 91.5001)"/><path d="M0.858708 6.01241C0.94195 6.01241 1.02519 5.98741 1.02519 5.95676L1.02519 0.0678729C1.02519 0.0372206 0.94195 0.0122244 0.858708 0.0122244L0.191676 0.0122244C0.108434 0.0122244 0.024644 0.0372206 0.024644 0.0678729L0.024644 5.95676C0.024644 5.98741 0.108434 6.01241 0.191676 6.01241Z" stroke="#404040" stroke-width="1.1894" stroke-miterlimit="8" fill="#404040" fill-rule="evenodd" transform="matrix(1 0 0 -1 160.5 91.5001)"/><path d="M0.857612 6.01241C0.940854 6.01241 1.0241 5.98741 1.0241 5.95676L1.0241 0.0678729C1.0241 0.0372206 0.940854 0.0122244 0.857612 0.0122244L0.190581 0.0122244C0.106791 0.0122244 0.0235487 0.0372206 0.0235487 0.0678729L0.0235487 5.95676C0.0235487 5.98741 0.106791 6.01241 0.190581 6.01241Z" stroke="#404040" stroke-width="0.528609" stroke-miterlimit="8" fill="#404040" fill-rule="evenodd" transform="matrix(1 0 0 -1 153.5 91.5001)"/><path d="M0.857612 6.01241C0.940854 6.01241 1.0241 5.98741 1.0241 5.95676L1.0241 0.0678729C1.0241 0.0372206 0.940854 0.0122244 0.857612 0.0122244L0.190581 0.0122244C0.106791 0.0122244 0.0235487 0.0372206 0.0235487 0.0678729L0.0235487 5.95676C0.0235487 5.98741 0.106791 6.01241 0.190581 6.01241Z" stroke="#404040" stroke-width="1.1894" stroke-miterlimit="8" fill="#404040" fill-rule="evenodd" transform="matrix(1 0 0 -1 153.5 91.5001)"/><path d="M0.850513 6.01241C0.933881 6.01241 1.01725 5.97902 1.01725 5.93833L1.01725 0.0863007C1.01725 0.0456135 0.933881 0.0122244 0.850513 0.0122244L0.183573 0.0122244C0.100205 0.0122244 0.0168378 0.0456135 0.0168378 0.0863007L0.0168378 5.93833C0.0168378 5.97902 0.100205 6.01241 0.183573 6.01241Z" stroke="#404040" stroke-width="0.528609" stroke-miterlimit="8" fill="#404040" fill-rule="evenodd" transform="matrix(1 0 0 -1 147.5 91.5001)"/><path d="M0.850513 6.01241C0.933881 6.01241 1.01725 5.97902 1.01725 5.93833L1.01725 0.0863007C1.01725 0.0456135 0.933881 0.0122244 0.850513 0.0122244L0.183573 0.0122244C0.100205 0.0122244 0.0168378 0.0456135 0.0168378 0.0863007L0.0168378 5.93833C0.0168378 5.97902 0.100205 6.01241 0.183573 6.01241Z" stroke="#404040" stroke-width="1.1894" stroke-miterlimit="8" fill="#404040" fill-rule="evenodd" transform="matrix(1 0 0 -1 147.5 91.5001)"/><path d="M0.854874 6.01241C0.938664 6.01241 1.02191 5.98741 1.02191 5.95676L1.02191 0.0678729C1.02191 0.0372206 0.938664 0.0122244 0.854874 0.0122244L0.187842 0.0122244C0.1046 0.0122244 0.0213582 0.0372206 0.0213582 0.0678729L0.0213582 5.95676C0.0213582 5.98741 0.1046 6.01241 0.187842 6.01241Z" stroke="#404040" stroke-width="0.528609" stroke-miterlimit="8" fill="#404040" fill-rule="evenodd" transform="matrix(1 0 0 -1 140.5 91.5001)"/><path d="M0.854874 6.01241C0.938664 6.01241 1.02191 5.98741 1.02191 5.95676L1.02191 0.0678729C1.02191 0.0372206 0.938664 0.0122244 0.854874 0.0122244L0.187842 0.0122244C0.1046 0.0122244 0.0213582 0.0372206 0.0213582 0.0678729L0.0213582 5.95676C0.0213582 5.98741 0.1046 6.01241 0.187842 6.01241Z" stroke="#404040" stroke-width="1.1894" stroke-miterlimit="8" fill="#404040" fill-rule="evenodd" transform="matrix(1 0 0 -1 140.5 91.5001)"/><path d="M0.848871 6.01241C0.932238 6.01241 1.01561 5.97902 1.01561 5.93833L1.01561 0.0863007C1.01561 0.0456135 0.932238 0.0122244 0.848871 0.0122244L0.18193 0.0122244C0.0985626 0.0122244 0.0151951 0.0456135 0.0151951 0.0863007L0.0151951 5.93833C0.0151951 5.97902 0.0985626 6.01241 0.18193 6.01241Z" stroke="#404040" stroke-width="0.528609" stroke-miterlimit="8" fill="#404040" fill-rule="evenodd" transform="matrix(1 0 0 -1 134.5 91.5001)"/><path d="M0.848871 6.01241C0.932238 6.01241 1.01561 5.97902 1.01561 5.93833L1.01561 0.0863007C1.01561 0.0456135 0.932238 0.0122244 0.848871 0.0122244L0.18193 0.0122244C0.0985626 0.0122244 0.0151951 0.0456135 0.0151951 0.0863007L0.0151951 5.93833C0.0151951 5.97902 0.0985626 6.01241 0.18193 6.01241Z" stroke="#404040" stroke-width="1.1894" stroke-miterlimit="8" fill="#404040" fill-rule="evenodd" transform="matrix(1 0 0 -1 134.5 91.5001)"/><path d="M0.852977 7.03789C0.936345 7.03789 1.01971 6.99894 1.01971 6.95147L1.01971 0.124312C1.01971 0.0768435 0.936345 0.0378896 0.852977 0.0378896L0.186448 0.0378896C0.10308 0.0378896 0.0197125 0.0768435 0.0197125 0.124312L0.0197125 6.95147C0.0197125 6.99894 0.10308 7.03789 0.186448 7.03789Z" stroke="#404040" stroke-width="0.528609" stroke-miterlimit="8" fill="#404040" fill-rule="evenodd" transform="matrix(1 0 0 -1 159.5 80.5001)"/><path d="M0.852977 7.03789C0.936345 7.03789 1.01971 6.99894 1.01971 6.95147L1.01971 0.124312C1.01971 0.0768435 0.936345 0.0378896 0.852977 0.0378896L0.186448 0.0378896C0.10308 0.0378896 0.0197125 0.0768435 0.0197125 0.124312L0.0197125 6.95147C0.0197125 6.99894 0.10308 7.03789 0.186448 7.03789Z" stroke="#404040" stroke-width="1.1894" stroke-miterlimit="8" fill="#404040" fill-rule="evenodd" transform="matrix(1 0 0 -1 159.5 80.5001)"/><path d="M0.848871 7.03789C0.932238 7.03789 1.01561 6.99894 1.01561 6.95147L1.01561 0.124312C1.01561 0.0768435 0.932238 0.0378896 0.848871 0.0378896L0.18193 0.0378896C0.0985626 0.0378896 0.0151951 0.0768435 0.0151951 0.124312L0.0151951 6.95147C0.0151951 6.99894 0.0985626 7.03789 0.18193 7.03789Z" stroke="#404040" stroke-width="0.528609" stroke-miterlimit="8" fill="#404040" fill-rule="evenodd" transform="matrix(1 0 0 -1 140.5 80.5001)"/><path d="M0.848871 7.03789C0.932238 7.03789 1.01561 6.99894 1.01561 6.95147L1.01561 0.124312C1.01561 0.0768435 0.932238 0.0378896 0.848871 0.0378896L0.18193 0.0378896C0.0985626 0.0378896 0.0151951 0.0768435 0.0151951 0.124312L0.0151951 6.95147C0.0151951 6.99894 0.0985626 7.03789 0.18193 7.03789Z" stroke="#404040" stroke-width="1.1894" stroke-miterlimit="8" fill="#404040" fill-rule="evenodd" transform="matrix(1 0 0 -1 140.5 80.5001)"/><path d="M0.00751571 0.874743C0.00751571 0.966324 0.0479679 1.04148 0.0972621 1.04148L6.91777 1.04148C6.96264 1.04148 7.00752 0.966324 7.00752 0.874743L7.00752 0.207803C7.00752 0.116222 6.96264 0.0410678 6.91777 0.0410678L0.0972621 0.0410678C0.0479679 0.0410678 0.00751571 0.116222 0.00751571 0.207803Z" stroke="#404040" stroke-width="0.528609" stroke-miterlimit="8" fill="#404040" fill-rule="evenodd" transform="matrix(1 0 0 -1 123.5 103.5)"/><path d="M0.00751571 0.874743C0.00751571 0.966324 0.0479679 1.04148 0.0972621 1.04148L6.91777 1.04148C6.96264 1.04148 7.00752 0.966324 7.00752 0.874743L7.00752 0.207803C7.00752 0.116222 6.96264 0.0410678 6.91777 0.0410678L0.0972621 0.0410678C0.0479679 0.0410678 0.00751571 0.116222 0.00751571 0.207803Z" stroke="#404040" stroke-width="1.1894" stroke-miterlimit="8" fill="#404040" fill-rule="evenodd" transform="matrix(1 0 0 -1 123.5 103.5)"/><path d="M0.00751571 0.880903C0.00751571 0.972895 0.0479679 1.04764 0.0972621 1.04764L6.91777 1.04764C6.96264 1.04764 7.00752 0.972895 7.00752 0.880903L7.00752 0.213963C7.00752 0.122382 6.96264 0.0472279 6.91777 0.0472279L0.0972621 0.0472279C0.0479679 0.0472279 0.00751571 0.122382 0.00751571 0.213963Z" stroke="#404040" stroke-width="0.528609" stroke-miterlimit="8" fill="#404040" fill-rule="evenodd" transform="matrix(1 0 0 -1 123.5 109.5)"/><path d="M0.00751571 0.880903C0.00751571 0.972895 0.0479679 1.04764 0.0972621 1.04764L6.91777 1.04764C6.96264 1.04764 7.00752 0.972895 7.00752 0.880903L7.00752 0.213963C7.00752 0.122382 6.96264 0.0472279 6.91777 0.0472279L0.0972621 0.0472279C0.0479679 0.0472279 0.00751571 0.122382 0.00751571 0.213963Z" stroke="#404040" stroke-width="1.1894" stroke-miterlimit="8" fill="#404040" fill-rule="evenodd" transform="matrix(1 0 0 -1 123.5 109.5)"/><path d="M0.00751571 0.887474C0.00751571 0.979055 0.0479679 1.05421 0.0972621 1.05421L6.91777 1.05421C6.96264 1.05421 7.00752 0.979055 7.00752 0.887474L7.00752 0.220534C7.00752 0.128953 6.96264 0.0537988 6.91777 0.0537988L0.0972621 0.0537988C0.0479679 0.0537988 0.00751571 0.128953 0.00751571 0.220534Z" stroke="#404040" stroke-width="0.528609" stroke-miterlimit="8" fill="#404040" fill-rule="evenodd" transform="matrix(1 0 0 -1 123.5 116.5)"/><path d="M0.00751571 0.887474C0.00751571 0.979055 0.0479679 1.05421 0.0972621 1.05421L6.91777 1.05421C6.96264 1.05421 7.00752 0.979055 7.00752 0.887474L7.00752 0.220534C7.00752 0.128953 6.96264 0.0537988 6.91777 0.0537988L0.0972621 0.0537988C0.0479679 0.0537988 0.00751571 0.128953 0.00751571 0.220534Z" stroke="#404040" stroke-width="1.1894" stroke-miterlimit="8" fill="#404040" fill-rule="evenodd" transform="matrix(1 0 0 -1 123.5 116.5)"/><path d="M0.00751571 0.914567C0.00751571 1.00602 0.0377996 1.08105 0.0749361 1.08105L6.94032 1.08105C6.97392 1.08105 7.00752 1.00602 7.00752 0.914567L7.00752 0.247536C7.00752 0.155531 6.97392 0.0805038 6.94032 0.0805038L0.0749361 0.0805038C0.0377996 0.0805038 0.00751571 0.155531 0.00751571 0.247536Z" stroke="#404040" stroke-width="0.528609" stroke-miterlimit="8" fill="#404040" fill-rule="evenodd" transform="matrix(1 0 0 -1 123.5 123.5)"/><path d="M0.00751571 0.914567C0.00751571 1.00602 0.0377996 1.08105 0.0749361 1.08105L6.94032 1.08105C6.97392 1.08105 7.00752 1.00602 7.00752 0.914567L7.00752 0.247536C7.00752 0.155531 6.97392 0.0805038 6.94032 0.0805038L0.0749361 0.0805038C0.0377996 0.0805038 0.00751571 0.155531 0.00751571 0.247536Z" stroke="#404040" stroke-width="1.1894" stroke-miterlimit="8" fill="#404040" fill-rule="evenodd" transform="matrix(1 0 0 -1 123.5 123.5)"/><path d="M0.00751571 0.880903C0.00751571 0.972895 0.0479679 1.04764 0.0972621 1.04764L6.91777 1.04764C6.96264 1.04764 7.00752 0.972895 7.00752 0.880903L7.00752 0.213963C7.00752 0.122382 6.96264 0.0472279 6.91777 0.0472279L0.0972621 0.0472279C0.0479679 0.0472279 0.00751571 0.122382 0.00751571 0.213963Z" stroke="#404040" stroke-width="0.528609" stroke-miterlimit="8" fill="#404040" fill-rule="evenodd" transform="matrix(1 0 0 -1 123.5 167.5)"/><path d="M0.00751571 0.880903C0.00751571 0.972895 0.0479679 1.04764 0.0972621 1.04764L6.91777 1.04764C6.96264 1.04764 7.00752 0.972895 7.00752 0.880903L7.00752 0.213963C7.00752 0.122382 6.96264 0.0472279 6.91777 0.0472279L0.0972621 0.0472279C0.0479679 0.0472279 0.00751571 0.122382 0.00751571 0.213963Z" stroke="#404040" stroke-width="1.1894" stroke-miterlimit="8" fill="#404040" fill-rule="evenodd" transform="matrix(1 0 0 -1 123.5 167.5)"/><path d="M0.00751571 0.887474C0.00751571 0.979055 0.0479679 1.05421 0.0972621 1.05421L6.91777 1.05421C6.96264 1.05421 7.00752 0.979055 7.00752 0.887474L7.00752 0.220534C7.00752 0.128953 6.96264 0.0537988 6.91777 0.0537988L0.0972621 0.0537988C0.0479679 0.0537988 0.00751571 0.128953 0.00751571 0.220534Z" stroke="#404040" stroke-width="0.528609" stroke-miterlimit="8" fill="#404040" fill-rule="evenodd" transform="matrix(1 0 0 -1 123.5 176.5)"/><path d="M0.00751571 0.887474C0.00751571 0.979055 0.0479679 1.05421 0.0972621 1.05421L6.91777 1.05421C6.96264 1.05421 7.00752 0.979055 7.00752 0.887474L7.00752 0.220534C7.00752 0.128953 6.96264 0.0537988 6.91777 0.0537988L0.0972621 0.0537988C0.0479679 0.0537988 0.00751571 0.128953 0.00751571 0.220534Z" stroke="#404040" stroke-width="1.1894" stroke-miterlimit="8" fill="#404040" fill-rule="evenodd" transform="matrix(1 0 0 -1 123.5 176.5)"/><path d="M0.00751571 0.900205C0.00751571 0.992197 0.0479679 1.06694 0.0972621 1.06694L6.91777 1.06694C6.96264 1.06694 7.00752 0.992197 7.00752 0.900205L7.00752 0.233265C7.00752 0.141684 6.96264 0.0665298 6.91777 0.0665298L0.0972621 0.0665298C0.0479679 0.0665298 0.00751571 0.141684 0.00751571 0.233265Z" stroke="#404040" stroke-width="0.528609" stroke-miterlimit="8" fill="#404040" fill-rule="evenodd" transform="matrix(1 0 0 -1 123.5 186.5)"/><path d="M0.00751571 0.900205C0.00751571 0.992197 0.0479679 1.06694 0.0972621 1.06694L6.91777 1.06694C6.96264 1.06694 7.00752 0.992197 7.00752 0.900205L7.00752 0.233265C7.00752 0.141684 6.96264 0.0665298 6.91777 0.0665298L0.0972621 0.0665298C0.0479679 0.0665298 0.00751571 0.141684 0.00751571 0.233265Z" stroke="#404040" stroke-width="1.1894" stroke-miterlimit="8" fill="#404040" fill-rule="evenodd" transform="matrix(1 0 0 -1 123.5 186.5)"/><path d="M0.00751571 0.868172C0.00751571 0.959754 0.0479679 1.03491 0.0972621 1.03491L6.91777 1.03491C6.96264 1.03491 7.00752 0.959754 7.00752 0.868172L7.00752 0.201232C7.00752 0.109651 6.96264 0.0344969 6.91777 0.0344969L0.0972621 0.0344969C0.0479679 0.0344969 0.00751571 0.109651 0.00751571 0.201232Z" stroke="#404040" stroke-width="0.528609" stroke-miterlimit="8" fill="#404040" fill-rule="evenodd" transform="matrix(1 0 0 -1 123.5 44.5001)"/><path d="M0.00751571 0.868172C0.00751571 0.959754 0.0479679 1.03491 0.0972621 1.03491L6.91777 1.03491C6.96264 1.03491 7.00752 0.959754 7.00752 0.868172L7.00752 0.201232C7.00752 0.109651 6.96264 0.0344969 6.91777 0.0344969L0.0972621 0.0344969C0.0479679 0.0344969 0.00751571 0.109651 0.00751571 0.201232Z" stroke="#404040" stroke-width="1.1894" stroke-miterlimit="8" fill="#404040" fill-rule="evenodd" transform="matrix(1 0 0 -1 123.5 44.5001)"/><path d="M0.00751571 0.900205C0.00751571 0.992197 0.0479679 1.06694 0.0972621 1.06694L6.91777 1.06694C6.96264 1.06694 7.00752 0.992197 7.00752 0.900205L7.00752 0.233265C7.00752 0.141684 6.96264 0.0665298 6.91777 0.0665298L0.0972621 0.0665298C0.0479679 0.0665298 0.00751571 0.141684 0.00751571 0.233265Z" stroke="#404040" stroke-width="0.528609" stroke-miterlimit="8" fill="#404040" fill-rule="evenodd" transform="matrix(1 0 0 -1 123.5 64.5001)"/><path d="M0.00751571 0.900205C0.00751571 0.992197 0.0479679 1.06694 0.0972621 1.06694L6.91777 1.06694C6.96264 1.06694 7.00752 0.992197 7.00752 0.900205L7.00752 0.233265C7.00752 0.141684 6.96264 0.0665298 6.91777 0.0665298L0.0972621 0.0665298C0.0479679 0.0665298 0.00751571 0.141684 0.00751571 0.233265Z" stroke="#404040" stroke-width="1.1894" stroke-miterlimit="8" fill="#404040" fill-rule="evenodd" transform="matrix(1 0 0 -1 123.5 64.5001)"/><path d="M0.00947358 0.875154C0.00947358 0.966735 0.0479363 1.04189 0.0863991 1.04189L5.93255 1.04189C5.97101 1.04189 6.00947 0.966735 6.00947 0.875154L6.00947 0.208214C6.00947 0.116632 5.97101 0.0414784 5.93255 0.0414784L0.0863991 0.0414784C0.0479363 0.0414784 0.00947358 0.116632 0.00947358 0.208214Z" stroke="#404040" stroke-width="0.528609" stroke-miterlimit="8" fill="#404040" fill-rule="evenodd" transform="matrix(1 0 0 -1 171.5 103.5)"/><path d="M0.00947358 0.875154C0.00947358 0.966735 0.0479363 1.04189 0.0863991 1.04189L5.93255 1.04189C5.97101 1.04189 6.00947 0.966735 6.00947 0.875154L6.00947 0.208214C6.00947 0.116632 5.97101 0.0414784 5.93255 0.0414784L0.0863991 0.0414784C0.0479363 0.0414784 0.00947358 0.116632 0.00947358 0.208214Z" stroke="#404040" stroke-width="1.1894" stroke-miterlimit="8" fill="#404040" fill-rule="evenodd" transform="matrix(1 0 0 -1 171.5 103.5)"/><path d="M0.00947358 0.881314C0.00947358 0.972895 0.0479363 1.04805 0.0863991 1.04805L5.93255 1.04805C5.97101 1.04805 6.00947 0.972895 6.00947 0.881314L6.00947 0.214374C6.00947 0.122793 5.97101 0.0476386 5.93255 0.0476386L0.0863991 0.0476386C0.0479363 0.0476386 0.00947358 0.122793 0.00947358 0.214374Z" stroke="#404040" stroke-width="0.528609" stroke-miterlimit="8" fill="#404040" fill-rule="evenodd" transform="matrix(1 0 0 -1 171.5 110.5)"/><path d="M0.00947358 0.881314C0.00947358 0.972895 0.0479363 1.04805 0.0863991 1.04805L5.93255 1.04805C5.97101 1.04805 6.00947 0.972895 6.00947 0.881314L6.00947 0.214374C6.00947 0.122793 5.97101 0.0476386 5.93255 0.0476386L0.0863991 0.0476386C0.0479363 0.0476386 0.00947358 0.122793 0.00947358 0.214374Z" stroke="#404040" stroke-width="1.1894" stroke-miterlimit="8" fill="#404040" fill-rule="evenodd" transform="matrix(1 0 0 -1 171.5 110.5)"/><path d="M0.00947358 0.887885C0.00947358 0.979466 0.0479363 1.05462 0.0863991 1.05462L5.93255 1.05462C5.97101 1.05462 6.00947 0.979466 6.00947 0.887885L6.00947 0.220945C6.00947 0.129363 5.97101 0.0542094 5.93255 0.0542094L0.0863991 0.0542094C0.0479363 0.0542094 0.00947358 0.129363 0.00947358 0.220945Z" stroke="#404040" stroke-width="0.528609" stroke-miterlimit="8" fill="#404040" fill-rule="evenodd" transform="matrix(1 0 0 -1 171.5 117.5)"/><path d="M0.00947358 0.887885C0.00947358 0.979466 0.0479363 1.05462 0.0863991 1.05462L5.93255 1.05462C5.97101 1.05462 6.00947 0.979466 6.00947 0.887885L6.00947 0.220945C6.00947 0.129363 5.97101 0.0542094 5.93255 0.0542094L0.0863991 0.0542094C0.0479363 0.0542094 0.00947358 0.129363 0.00947358 0.220945Z" stroke="#404040" stroke-width="1.1894" stroke-miterlimit="8" fill="#404040" fill-rule="evenodd" transform="matrix(1 0 0 -1 171.5 117.5)"/><path d="M0.00947358 0.894456C0.00947358 0.986037 0.0479363 1.06119 0.0863991 1.06119L5.93255 1.06119C5.97101 1.06119 6.00947 0.986037 6.00947 0.894456L6.00947 0.227515C6.00947 0.135934 5.97101 0.0607803 5.93255 0.0607803L0.0863991 0.0607803C0.0479363 0.0607803 0.00947358 0.135934 0.00947358 0.227515Z" stroke="#404040" stroke-width="0.528609" stroke-miterlimit="8" fill="#404040" fill-rule="evenodd" transform="matrix(1 0 0 -1 171.5 123.5)"/><path d="M0.00947358 0.894456C0.00947358 0.986037 0.0479363 1.06119 0.0863991 1.06119L5.93255 1.06119C5.97101 1.06119 6.00947 0.986037 6.00947 0.894456L6.00947 0.227515C6.00947 0.135934 5.97101 0.0607803 5.93255 0.0607803L0.0863991 0.0607803C0.0479363 0.0607803 0.00947358 0.135934 0.00947358 0.227515Z" stroke="#404040" stroke-width="1.1894" stroke-miterlimit="8" fill="#404040" fill-rule="evenodd" transform="matrix(1 0 0 -1 171.5 123.5)"/><path d="M0.00947358 0.881314C0.00947358 0.972895 0.0479363 1.04805 0.0863991 1.04805L5.93255 1.04805C5.97101 1.04805 6.00947 0.972895 6.00947 0.881314L6.00947 0.214374C6.00947 0.122793 5.97101 0.0476386 5.93255 0.0476386L0.0863991 0.0476386C0.0479363 0.0476386 0.00947358 0.122793 0.00947358 0.214374Z" stroke="#404040" stroke-width="0.528609" stroke-miterlimit="8" fill="#404040" fill-rule="evenodd" transform="matrix(1 0 0 -1 171.5 167.5)"/><path d="M0.00947358 0.881314C0.00947358 0.972895 0.0479363 1.04805 0.0863991 1.04805L5.93255 1.04805C5.97101 1.04805 6.00947 0.972895 6.00947 0.881314L6.00947 0.214374C6.00947 0.122793 5.97101 0.0476386 5.93255 0.0476386L0.0863991 0.0476386C0.0479363 0.0476386 0.00947358 0.122793 0.00947358 0.214374Z" stroke="#404040" stroke-width="1.1894" stroke-miterlimit="8" fill="#404040" fill-rule="evenodd" transform="matrix(1 0 0 -1 171.5 167.5)"/><path d="M0.00947358 0.887885C0.00947358 0.979466 0.0479363 1.05462 0.0863991 1.05462L5.93255 1.05462C5.97101 1.05462 6.00947 0.979466 6.00947 0.887885L6.00947 0.220945C6.00947 0.129363 5.97101 0.0542094 5.93255 0.0542094L0.0863991 0.0542094C0.0479363 0.0542094 0.00947358 0.129363 0.00947358 0.220945Z" stroke="#404040" stroke-width="0.528609" stroke-miterlimit="8" fill="#404040" fill-rule="evenodd" transform="matrix(1 0 0 -1 171.5 177.5)"/><path d="M0.00947358 0.887885C0.00947358 0.979466 0.0479363 1.05462 0.0863991 1.05462L5.93255 1.05462C5.97101 1.05462 6.00947 0.979466 6.00947 0.887885L6.00947 0.220945C6.00947 0.129363 5.97101 0.0542094 5.93255 0.0542094L0.0863991 0.0542094C0.0479363 0.0542094 0.00947358 0.129363 0.00947358 0.220945Z" stroke="#404040" stroke-width="1.1894" stroke-miterlimit="8" fill="#404040" fill-rule="evenodd" transform="matrix(1 0 0 -1 171.5 177.5)"/><path d="M0.00947358 0.900616C0.00947358 0.992197 0.0479363 1.06735 0.0863991 1.06735L5.93255 1.06735C5.97101 1.06735 6.00947 0.992197 6.00947 0.900616L6.00947 0.233676C6.00947 0.142094 5.97101 0.0669404 5.93255 0.0669404L0.0863991 0.0669404C0.0479363 0.0669404 0.00947358 0.142094 0.00947358 0.233676Z" stroke="#404040" stroke-width="0.528609" stroke-miterlimit="8" fill="#404040" fill-rule="evenodd" transform="matrix(1 0 0 -1 171.5 186.5)"/><path d="M0.00947358 0.900616C0.00947358 0.992197 0.0479363 1.06735 0.0863991 1.06735L5.93255 1.06735C5.97101 1.06735 6.00947 0.992197 6.00947 0.900616L6.00947 0.233676C6.00947 0.142094 5.97101 0.0669404 5.93255 0.0669404L0.0863991 0.0669404C0.0479363 0.0669404 0.00947358 0.142094 0.00947358 0.233676Z" stroke="#404040" stroke-width="1.1894" stroke-miterlimit="8" fill="#404040" fill-rule="evenodd" transform="matrix(1 0 0 -1 171.5 186.5)"/><path d="M0.00947358 0.868583C0.00947358 0.960164 0.0479363 1.03532 0.0863991 1.03532L5.93255 1.03532C5.97101 1.03532 6.00947 0.960164 6.00947 0.868583L6.00947 0.201643C6.00947 0.110062 5.97101 0.0349076 5.93255 0.0349076L0.0863991 0.0349076C0.0479363 0.0349076 0.00947358 0.110062 0.00947358 0.201643Z" stroke="#404040" stroke-width="0.528609" stroke-miterlimit="8" fill="#404040" fill-rule="evenodd" transform="matrix(1 0 0 -1 171.5 44.5001)"/><path d="M0.00947358 0.868583C0.00947358 0.960164 0.0479363 1.03532 0.0863991 1.03532L5.93255 1.03532C5.97101 1.03532 6.00947 0.960164 6.00947 0.868583L6.00947 0.201643C6.00947 0.110062 5.97101 0.0349076 5.93255 0.0349076L0.0863991 0.0349076C0.0479363 0.0349076 0.00947358 0.110062 0.00947358 0.201643Z" stroke="#404040" stroke-width="1.1894" stroke-miterlimit="8" fill="#404040" fill-rule="evenodd" transform="matrix(1 0 0 -1 171.5 44.5001)"/><path d="M0.00947358 0.900616C0.00947358 0.992197 0.0479363 1.06735 0.0863991 1.06735L5.93255 1.06735C5.97101 1.06735 6.00947 0.992197 6.00947 0.900616L6.00947 0.233676C6.00947 0.142094 5.97101 0.0669404 5.93255 0.0669404L0.0863991 0.0669404C0.0479363 0.0669404 0.00947358 0.142094 0.00947358 0.233676Z" stroke="#404040" stroke-width="0.528609" stroke-miterlimit="8" fill="#404040" fill-rule="evenodd" transform="matrix(1 0 0 -1 171.5 64.5001)"/><path d="M0.00947358 0.900616C0.00947358 0.992197 0.0479363 1.06735 0.0863991 1.06735L5.93255 1.06735C5.97101 1.06735 6.00947 0.992197 6.00947 0.900616L6.00947 0.233676C6.00947 0.142094 5.97101 0.0669404 5.93255 0.0669404L0.0863991 0.0669404C0.0479363 0.0669404 0.00947358 0.142094 0.00947358 0.233676Z" stroke="#404040" stroke-width="1.1894" stroke-miterlimit="8" fill="#404040" fill-rule="evenodd" transform="matrix(1 0 0 -1 171.5 64.5001)"/><path d="M0.00821996 36.4304C0.00821996 38.9672 2.04442 41.0243 4.56717 41.0243L36.4495 41.0243C38.9724 41.0243 41.0084 38.9672 41.0084 36.4304L41.0084 4.61821C41.0084 2.08117 38.9724 0.0242845 36.4495 0.0242845L4.56717 0.0242845C2.04442 0.0242845 0.00821996 2.08117 0.00821996 4.61821Z" stroke="#404040" stroke-width="1.1894" stroke-miterlimit="8" fill="#F2F2F2" fill-rule="evenodd" transform="matrix(1 0 0 -1 130.5 132.5)"/><g><g><g><path d="M152.934 111.5C152.934 112.915 151.787 114.062 150.372 114.062 148.957 114.062 147.809 112.915 147.809 111.5 147.809 110.085 148.957 108.938 150.372 108.938 151.787 108.938 152.934 110.085 152.934 111.5Z" fill="#404040"/><path d="M165.405 102.958C164.679 101.72 163.056 101.122 160.835 101.122 159.426 101.122 157.803 101.378 156.009 101.848 154.771 97.3635 152.721 94.4167 150.372 94.4167 148.066 94.4167 145.973 97.3208 144.777 101.762 143.069 101.335 141.531 101.079 140.165 101.079 137.944 101.079 136.321 101.677 135.595 102.916 134.399 104.966 135.979 108.254 139.268 111.585 136.107 114.831 134.655 117.992 135.808 119.999 136.534 121.238 138.157 121.835 140.378 121.835 141.659 121.835 143.154 121.622 144.777 121.238 146.016 125.679 148.066 128.583 150.372 128.583 152.678 128.583 154.771 125.679 155.967 121.238 157.675 121.665 159.212 121.921 160.579 121.921 162.8 121.921 164.423 121.323 165.149 120.084 166.302 118.077 164.85 114.917 161.69 111.671 165.064 108.297 166.601 105.008 165.405 102.958ZM160.835 102.83C162.416 102.83 163.569 103.215 163.91 103.812 164.551 104.923 163.398 107.528 160.494 110.432 159.469 109.493 158.316 108.553 157.034 107.656 156.906 106.204 156.693 104.795 156.394 103.471 158.017 103.044 159.554 102.83 160.835 102.83ZM153.191 115.942C152.294 116.454 151.397 116.924 150.5 117.351 149.603 116.924 148.706 116.454 147.809 115.942 146.955 115.429 146.101 114.917 145.332 114.404 145.247 113.465 145.247 112.525 145.247 111.5 145.247 110.56 145.29 109.664 145.332 108.767 146.186 108.169 147.083 107.614 148.066 107.058 148.877 106.589 149.689 106.161 150.5 105.777 151.311 106.161 152.123 106.589 152.934 107.058 153.789 107.571 154.643 108.083 155.411 108.596 155.497 109.535 155.497 110.475 155.497 111.5 155.497 112.568 155.454 113.593 155.369 114.575 154.685 115.045 153.959 115.472 153.191 115.942ZM155.155 116.753C155.027 117.565 154.899 118.376 154.771 119.102 154.045 118.846 153.276 118.59 152.507 118.248 153.02 117.992 153.532 117.693 154.045 117.394 154.429 117.18 154.814 116.967 155.155 116.753ZM148.493 118.248C147.639 118.59 146.827 118.889 146.016 119.145 145.845 118.333 145.717 117.479 145.589 116.582 146.058 116.881 146.485 117.137 146.998 117.436 147.468 117.693 147.98 117.992 148.493 118.248ZM143.581 113.123C142.898 112.61 142.3 112.098 141.745 111.585 142.3 111.073 142.941 110.56 143.581 110.048 143.581 110.518 143.539 110.988 143.539 111.5 143.539 112.055 143.539 112.61 143.581 113.123ZM145.546 106.589C145.674 105.649 145.802 104.752 145.973 103.898 146.784 104.154 147.639 104.496 148.493 104.838 148.066 105.051 147.596 105.307 147.169 105.564 146.656 105.905 146.101 106.247 145.546 106.589ZM152.465 104.838C153.233 104.496 154.002 104.24 154.771 103.983 154.942 104.752 155.07 105.564 155.198 106.418 154.728 106.119 154.301 105.863 153.789 105.564 153.361 105.35 152.934 105.094 152.465 104.838ZM157.163 109.877C157.931 110.475 158.615 111.03 159.255 111.628 158.615 112.183 157.931 112.781 157.163 113.336 157.205 112.739 157.205 112.141 157.205 111.543 157.205 110.945 157.205 110.39 157.163 109.877ZM150.372 96.125C151.653 96.125 153.319 98.3885 154.386 102.318 153.148 102.745 151.824 103.257 150.5 103.855 149.091 103.215 147.724 102.659 146.4 102.232 147.468 98.3458 149.091 96.125 150.372 96.125ZM137.047 103.812C137.431 103.172 138.542 102.83 140.122 102.83 141.36 102.83 142.77 103.044 144.307 103.428 144.008 104.795 143.795 106.29 143.667 107.827 142.471 108.681 141.403 109.535 140.464 110.432 137.602 107.528 136.406 104.923 137.047 103.812ZM140.378 120.17C138.798 120.17 137.645 119.785 137.303 119.188 136.663 118.077 137.773 115.6 140.506 112.781 141.489 113.635 142.556 114.49 143.709 115.344 143.837 116.839 144.051 118.291 144.35 119.615 142.941 119.999 141.574 120.17 140.378 120.17ZM150.372 126.875C149.091 126.875 147.468 124.654 146.4 120.81 147.724 120.383 149.091 119.871 150.5 119.23 151.824 119.828 153.105 120.341 154.344 120.725 153.276 124.654 151.653 126.875 150.372 126.875ZM163.697 119.188C163.312 119.828 162.202 120.17 160.622 120.17 159.383 120.17 157.931 119.956 156.436 119.572 156.693 118.291 156.906 116.967 157.034 115.515 158.316 114.618 159.469 113.721 160.494 112.781 163.227 115.6 164.337 118.077 163.697 119.188Z" fill="#404040"/></g></g></g><path d="M0.00821996 36.4304C0.00821996 38.9672 2.04442 41.0243 4.56717 41.0243L36.4495 41.0243C38.9724 41.0243 41.0084 38.9672 41.0084 36.4304L41.0084 4.61821C41.0084 2.08117 38.9724 0.0242845 36.4495 0.0242845L4.56717 0.0242845C2.04442 0.0242845 0.00821996 2.08117 0.00821996 4.61821Z" stroke="#404040" stroke-width="1.1894" stroke-miterlimit="8" fill="#F2F2F2" fill-rule="evenodd" transform="matrix(1 0 0 -1 130.5 191.5)"/><g><g><g><path d="M152.934 170.5C152.934 171.915 151.787 173.062 150.372 173.062 148.957 173.062 147.809 171.915 147.809 170.5 147.809 169.085 148.957 167.938 150.372 167.938 151.787 167.938 152.934 169.085 152.934 170.5Z" fill="#404040"/><path d="M165.405 161.958C164.679 160.72 163.056 160.122 160.835 160.122 159.426 160.122 157.803 160.378 156.009 160.848 154.771 156.364 152.721 153.417 150.372 153.417 148.066 153.417 145.973 156.321 144.777 160.762 143.069 160.335 141.531 160.079 140.165 160.079 137.944 160.079 136.321 160.677 135.595 161.916 134.399 163.966 135.979 167.254 139.268 170.585 136.107 173.831 134.655 176.992 135.808 178.999 136.534 180.238 138.157 180.835 140.378 180.835 141.659 180.835 143.154 180.622 144.777 180.238 146.016 184.679 148.066 187.583 150.372 187.583 152.678 187.583 154.771 184.679 155.967 180.238 157.675 180.665 159.212 180.921 160.579 180.921 162.8 180.921 164.423 180.323 165.149 179.084 166.302 177.077 164.85 173.917 161.69 170.671 165.064 167.297 166.601 164.008 165.405 161.958ZM160.835 161.83C162.416 161.83 163.569 162.215 163.91 162.812 164.551 163.923 163.398 166.528 160.494 169.432 159.469 168.493 158.316 167.553 157.034 166.656 156.906 165.204 156.693 163.795 156.394 162.471 158.017 162.044 159.554 161.83 160.835 161.83ZM153.191 174.942C152.294 175.454 151.397 175.924 150.5 176.351 149.603 175.924 148.706 175.454 147.809 174.942 146.955 174.429 146.101 173.917 145.332 173.404 145.247 172.465 145.247 171.525 145.247 170.5 145.247 169.56 145.29 168.664 145.332 167.767 146.186 167.169 147.083 166.614 148.066 166.058 148.877 165.589 149.689 165.161 150.5 164.777 151.311 165.161 152.123 165.589 152.934 166.058 153.789 166.571 154.643 167.083 155.411 167.596 155.497 168.535 155.497 169.475 155.497 170.5 155.497 171.568 155.454 172.593 155.369 173.575 154.685 174.045 153.959 174.472 153.191 174.942ZM155.155 175.753C155.027 176.565 154.899 177.376 154.771 178.102 154.045 177.846 153.276 177.59 152.507 177.248 153.02 176.992 153.532 176.693 154.045 176.394 154.429 176.18 154.814 175.967 155.155 175.753ZM148.493 177.248C147.639 177.59 146.827 177.889 146.016 178.145 145.845 177.333 145.717 176.479 145.589 175.582 146.058 175.881 146.485 176.137 146.998 176.436 147.468 176.693 147.98 176.992 148.493 177.248ZM143.581 172.123C142.898 171.61 142.3 171.098 141.745 170.585 142.3 170.073 142.941 169.56 143.581 169.048 143.581 169.518 143.539 169.988 143.539 170.5 143.539 171.055 143.539 171.61 143.581 172.123ZM145.546 165.589C145.674 164.649 145.802 163.752 145.973 162.898 146.784 163.154 147.639 163.496 148.493 163.837 148.066 164.051 147.596 164.307 147.169 164.564 146.656 164.905 146.101 165.247 145.546 165.589ZM152.465 163.837C153.233 163.496 154.002 163.24 154.771 162.983 154.942 163.752 155.07 164.564 155.198 165.418 154.728 165.119 154.301 164.863 153.789 164.564 153.361 164.35 152.934 164.094 152.465 163.837ZM157.163 168.877C157.931 169.475 158.615 170.03 159.255 170.628 158.615 171.183 157.931 171.781 157.163 172.336 157.205 171.739 157.205 171.141 157.205 170.543 157.205 169.945 157.205 169.39 157.163 168.877ZM150.372 155.125C151.653 155.125 153.319 157.389 154.386 161.318 153.148 161.745 151.824 162.257 150.5 162.855 149.091 162.215 147.724 161.659 146.4 161.232 147.468 157.346 149.091 155.125 150.372 155.125ZM137.047 162.812C137.431 162.172 138.542 161.83 140.122 161.83 141.36 161.83 142.77 162.044 144.307 162.428 144.008 163.795 143.795 165.29 143.667 166.827 142.471 167.681 141.403 168.535 140.464 169.432 137.602 166.528 136.406 163.923 137.047 162.812ZM140.378 179.17C138.798 179.17 137.645 178.785 137.303 178.188 136.663 177.077 137.773 174.6 140.506 171.781 141.489 172.635 142.556 173.49 143.709 174.344 143.837 175.839 144.051 177.291 144.35 178.615 142.941 178.999 141.574 179.17 140.378 179.17ZM150.372 185.875C149.091 185.875 147.468 183.654 146.4 179.81 147.724 179.383 149.091 178.871 150.5 178.23 151.824 178.828 153.105 179.341 154.344 179.725 153.276 183.654 151.653 185.875 150.372 185.875ZM163.697 178.188C163.312 178.828 162.202 179.17 160.622 179.17 159.383 179.17 157.931 178.956 156.436 178.572 156.693 177.291 156.906 175.967 157.034 174.515 158.316 173.618 159.469 172.721 160.494 171.781 163.227 174.6 164.337 177.077 163.697 178.188Z" fill="#404040"/></g></g></g><path d="M0.00821996 35.5418C0.00821996 38.0168 2.04442 40.0237 4.56717 40.0237L36.4495 40.0237C38.9724 40.0237 41.0084 38.0168 41.0084 35.5418L41.0084 4.50557C41.0084 2.0304 38.9724 0.0236922 36.4495 0.0236922L4.56717 0.0236922C2.04442 0.0236922 0.00821996 2.0304 0.00821996 4.50557Z" stroke="#404040" stroke-width="1.1894" stroke-miterlimit="8" fill="#F2F2F2" fill-rule="evenodd" transform="matrix(1 0 0 -1 130.5 73.5001)"/><g><g><g><path d="M22.375 20C22.375 21.3807 21.2557 22.5 19.875 22.5 18.4943 22.5 17.375 21.3807 17.375 20 17.375 18.6193 18.4943 17.5 19.875 17.5 21.2557 17.5 22.375 18.6193 22.375 20Z" fill="#404040" transform="matrix(1.025 0 0 1 130 33)"/><path d="M34.5417 11.6667C33.8333 10.4583 32.25 9.875 30.0833 9.875 28.7083 9.875 27.125 10.125 25.375 10.5833 24.1667 6.20833 22.1667 3.33333 19.875 3.33333 17.625 3.33333 15.5833 6.16667 14.4167 10.5 12.75 10.0833 11.25 9.83333 9.91667 9.83333 7.75 9.83333 6.16667 10.4167 5.45833 11.625 4.29167 13.625 5.83333 16.8333 9.04167 20.0833 5.95833 23.25 4.54167 26.3333 5.66667 28.2917 6.375 29.5 7.95833 30.0833 10.125 30.0833 11.375 30.0833 12.8333 29.875 14.4167 29.5 15.625 33.8333 17.625 36.6667 19.875 36.6667 22.125 36.6667 24.1667 33.8333 25.3333 29.5 27 29.9167 28.5 30.1667 29.8333 30.1667 32 30.1667 33.5833 29.5833 34.2917 28.375 35.4167 26.4167 34 23.3333 30.9167 20.1667 34.2083 16.875 35.7083 13.6667 34.5417 11.6667ZM30.0833 11.5417C31.625 11.5417 32.75 11.9167 33.0833 12.5 33.7083 13.5833 32.5833 16.125 29.75 18.9583 28.75 18.0417 27.625 17.125 26.375 16.25 26.25 14.8333 26.0417 13.4583 25.75 12.1667 27.3333 11.75 28.8333 11.5417 30.0833 11.5417ZM22.625 24.3333C21.75 24.8333 20.875 25.2917 20 25.7083 19.125 25.2917 18.25 24.8333 17.375 24.3333 16.5417 23.8333 15.7083 23.3333 14.9583 22.8333 14.875 21.9167 14.875 21 14.875 20 14.875 19.0833 14.9167 18.2083 14.9583 17.3333 15.7917 16.75 16.6667 16.2083 17.625 15.6667 18.4167 15.2083 19.2083 14.7917 20 14.4167 20.7917 14.7917 21.5833 15.2083 22.375 15.6667 23.2083 16.1667 24.0417 16.6667 24.7917 17.1667 24.875 18.0833 24.875 19 24.875 20 24.875 21.0417 24.8333 22.0417 24.75 23 24.0833 23.4583 23.375 23.875 22.625 24.3333ZM24.5417 25.125C24.4167 25.9167 24.2917 26.7083 24.1667 27.4167 23.4583 27.1667 22.7083 26.9167 21.9583 26.5833 22.4583 26.3333 22.9583 26.0417 23.4583 25.75 23.8333 25.5417 24.2083 25.3333 24.5417 25.125ZM18.0417 26.5833C17.2083 26.9167 16.4167 27.2083 15.625 27.4583 15.4583 26.6667 15.3333 25.8333 15.2083 24.9583 15.6667 25.25 16.0833 25.5 16.5833 25.7917 17.0417 26.0417 17.5417 26.3333 18.0417 26.5833ZM13.25 21.5833C12.5833 21.0833 12 20.5833 11.4583 20.0833 12 19.5833 12.625 19.0833 13.25 18.5833 13.25 19.0417 13.2083 19.5 13.2083 20 13.2083 20.5417 13.2083 21.0833 13.25 21.5833ZM15.1667 15.2083C15.2917 14.2917 15.4167 13.4167 15.5833 12.5833 16.375 12.8333 17.2083 13.1667 18.0417 13.5 17.625 13.7083 17.1667 13.9583 16.75 14.2083 16.25 14.5417 15.7083 14.875 15.1667 15.2083ZM21.9167 13.5C22.6667 13.1667 23.4167 12.9167 24.1667 12.6667 24.3333 13.4167 24.4583 14.2083 24.5833 15.0417 24.125 14.75 23.7083 14.5 23.2083 14.2083 22.7917 14 22.375 13.75 21.9167 13.5ZM26.5 18.4167C27.25 19 27.9167 19.5417 28.5417 20.125 27.9167 20.6667 27.25 21.25 26.5 21.7917 26.5417 21.2083 26.5417 20.625 26.5417 20.0417 26.5417 19.4583 26.5417 18.9167 26.5 18.4167ZM19.875 5C21.125 5 22.75 7.20833 23.7917 11.0417 22.5833 11.4583 21.2917 11.9583 20 12.5417 18.625 11.9167 17.2917 11.375 16 10.9583 17.0417 7.16667 18.625 5 19.875 5ZM6.875 12.5C7.25 11.875 8.33333 11.5417 9.875 11.5417 11.0833 11.5417 12.4583 11.75 13.9583 12.125 13.6667 13.4583 13.4583 14.9167 13.3333 16.4167 12.1667 17.25 11.125 18.0833 10.2083 18.9583 7.41667 16.125 6.25 13.5833 6.875 12.5ZM10.125 28.4583C8.58333 28.4583 7.45833 28.0833 7.125 27.5 6.5 26.4167 7.58333 24 10.25 21.25 11.2083 22.0833 12.25 22.9167 13.375 23.75 13.5 25.2083 13.7083 26.625 14 27.9167 12.625 28.2917 11.2917 28.4583 10.125 28.4583ZM19.875 35C18.625 35 17.0417 32.8333 16 29.0833 17.2917 28.6667 18.625 28.1667 20 27.5417 21.2917 28.125 22.5417 28.625 23.75 29 22.7083 32.8333 21.125 35 19.875 35ZM32.875 27.5C32.5 28.125 31.4167 28.4583 29.875 28.4583 28.6667 28.4583 27.25 28.25 25.7917 27.875 26.0417 26.625 26.25 25.3333 26.375 23.9167 27.625 23.0417 28.75 22.1667 29.75 21.25 32.4167 24 33.5 26.4167 32.875 27.5Z" fill="#404040" transform="matrix(1.025 0 0 1 130 33)"/></g></g></g></g></svg>