<?xml version="1.0" encoding="utf-8"?>
<!-- Generator: Adobe Illustrator 19.0.0, SVG Export Plug-In . SVG Version: 6.00 Build 0)  -->
<svg version="1.1" id="Ebene_1" focusable="false" xmlns="http://www.w3.org/2000/svg" xmlns:xlink="http://www.w3.org/1999/xlink"
	 x="0px" y="0px" viewBox="-31.2 -110.5 512 515.5" style="enable-background:new -31.2 -110.5 512 515.5;" xml:space="preserve">
<style type="text/css">
	.st0{fill:#3F51B5;}
	.st1{fill:#FFFFFF;}
</style>
<rect x="-31.2" y="-110.5" class="st0" width="512" height="515.5"/>
<path class="st1" d="M348.8,87c-4.1-1.4-8.3-2.7-12.4-3.9c0.7-2.8,1.3-5.7,1.9-8.5c9.4-45.6,3.2-82.2-17.7-94.3
	c-20.1-11.5-52.9,0.5-86.1,29.4c-3.3,2.8-6.5,5.8-9.6,8.8c-2.1-2-4.2-4-6.3-5.9c-34.8-30.9-69.7-43.9-90.5-31.7
	c-20,11.6-26,46.1-17.6,89.2c0.8,4.3,1.8,8.5,2.8,12.8c-4.9,1.4-9.7,2.9-14.2,4.5c-40.8,14.1-70.1,36.5-70.1,59.6
	c0,23.9,31.2,47.8,73.6,62.3c3.4,1.1,6.9,2.3,10.4,3.3c-1.1,4.6-2.1,9.1-3.1,13.8c-8,42.4-1.8,76.1,18.3,87.6
	c20.6,11.9,55.4-0.3,89.2-29.9c2.7-2.4,5.4-4.8,8-7.4c3.4,3.3,6.9,6.4,10.4,9.5c32.7,28.1,65.1,39.5,85,28
	c20.6-11.9,27.4-48.1,18.7-92.1c-0.7-3.4-1.5-6.8-2.3-10.3c2.4-0.7,4.8-1.5,7.2-2.2c44.1-14.6,76.1-38.2,76.1-62.5
	C420.6,123.8,390.4,101.3,348.8,87L348.8,87z M245.4,22.1c28.4-24.8,55-34.5,67.1-27.5c12.9,7.4,17.9,37.4,9.8,76.8
	c-0.5,2.6-1.1,5.1-1.8,7.6c-17-3.8-34.2-6.6-51.5-8.1c-9.9-14.2-20.8-27.8-32.6-40.6C239.4,27.4,242.3,24.8,245.4,22.1z
	 M156.9,186.6c3.9,6.7,7.9,13.3,12.1,19.8c-11.9-1.3-23.8-3.2-35.5-5.7c3.4-11,7.6-22.4,12.5-34
	C149.5,173.4,153.1,180.1,156.9,186.6L156.9,186.6z M133.7,94.6c11-2.4,22.7-4.4,34.9-6c-4.1,6.3-8,12.8-11.8,19.4
	c-3.7,6.5-7.4,13.2-10.9,19.9C141.2,116.6,137.1,105.4,133.7,94.6L133.7,94.6z M154.7,147.3c5-10.6,10.6-20.9,16.4-31
	s12.1-20,18.7-29.7c11.5-0.8,23.2-1.3,35.1-1.3c11.9,0,23.7,0.5,35.1,1.3c6.5,9.6,12.7,19.5,18.6,29.6c5.9,10.1,11.4,20.4,16.6,30.9
	c-5.1,10.6-10.6,21-16.5,31.2c-5.8,10.2-12,20-18.5,29.8c-11.4,0.8-23.2,1.2-35.2,1.2s-23.6-0.4-34.9-1.1
	c-6.7-9.7-12.9-19.7-18.8-29.8C165.3,168.2,159.8,157.9,154.7,147.3L154.7,147.3z M292.8,186.5c3.9-6.7,7.6-13.5,11.2-20.4
	c4.9,11.1,9.2,22.3,12.9,33.9c-11.9,2.7-23.9,4.7-35.9,6.1C285.1,199.6,289,193.1,292.8,186.5L292.8,186.5z M303.8,128
	c-3.6-6.7-7.3-13.5-11.1-20c-3.7-6.5-7.6-12.9-11.7-19.3c12.3,1.5,24.1,3.6,35.1,6.1C312.6,106.1,308.5,117.1,303.8,128z M225,42
	c8,8.7,15.6,17.9,22.6,27.4c-15.1-0.7-30.4-0.7-45.5,0C209.6,59.5,217.3,50.3,225,42z M136.3-4.9c12.8-7.5,41.4,3.2,71.4,29.8
	c1.9,1.7,3.8,3.5,5.8,5.4c-11.9,12.8-22.8,26.4-32.8,40.6c-17.3,1.5-34.4,4.2-51.4,8c-1-3.9-1.8-7.9-2.7-11.9
	C119.5,30,124.2,2,136.3-4.9L136.3-4.9z M117.5,196.6c-3.2-0.9-6.3-1.9-9.5-3c-16.3-5.1-34.8-13.2-48.2-23.9
	c-7.7-5.4-12.9-13.6-14.4-22.9c0-14,24.2-31.9,59-44c4.4-1.5,8.8-2.9,13.2-4.2c5.2,16.6,11.5,32.9,18.7,48.6
	C129.2,163.3,122.8,179.8,117.5,196.6z M206.7,271.6c-12.6,11.5-27.2,20.7-43.1,27c-8.5,4.1-18.3,4.4-27,1
	c-12.2-7-17.2-34-10.3-70.3c0.8-4.3,1.8-8.6,2.8-12.8c17.1,3.7,34.4,6.2,51.9,7.5c10.1,14.3,21.2,28,33,40.8
	C211.6,267.1,209.1,269.4,206.7,271.6L206.7,271.6z M225.4,253c-7.8-8.4-15.6-17.7-23.2-27.8c7.3,0.3,14.9,0.5,22.6,0.5
	c7.9,0,15.6-0.2,23.2-0.5C241,234.9,233.5,244.1,225.4,253z M325.4,275.9c-0.7,9.3-5.3,18-12.6,23.9c-12.2,7-38.1-2.1-66.1-26.2
	c-3.2-2.8-6.4-5.7-9.7-8.8c11.7-12.9,22.5-26.6,32.3-41c17.5-1.5,34.9-4.1,52.1-8c0.8,3.1,1.5,6.3,2.1,9.3
	C327.2,241.8,327.8,259,325.4,275.9L325.4,275.9z M339.3,193.7c-2.1,0.7-4.3,1.4-6.5,2c-5.4-16.7-11.9-33-19.5-48.8
	c7.3-15.6,13.5-31.7,18.7-48.1c4,1.1,7.8,2.4,11.5,3.6c35.6,12.2,60.6,30.4,60.6,44.3C404.1,161.8,377.4,181.1,339.3,193.7z
	 M224.8,182.3c19.3,0,35-15.7,35-35s-15.7-35-35-35s-35,15.7-35,35S205.5,182.3,224.8,182.3L224.8,182.3z"/>
</svg>
