<?xml version="1.0" encoding="utf-8"?>
<!-- created with bpmn-js / http://bpmn.io -->
<!DOCTYPE svg PUBLIC "-//W3C//DTD SVG 1.1//EN" "http://www.w3.org/Graphics/SVG/1.1/DTD/svg11.dtd">
<svg xmlns="http://www.w3.org/2000/svg" xmlns:xlink="http://www.w3.org/1999/xlink" width="1088" height="447" viewBox="74 74 1088 447" version="1.1"><defs><marker id="deployment-rel" viewBox="0 0 8 8" refX="8" refY="4" markerWidth="8" markerHeight="8" orient="auto"><path d="M 0 0 L 8 4 L 0 8" style="fill: none; stroke-linecap: round; stroke-linejoin: round; stroke: rgb(119, 119, 119); stroke-width: 1px; stroke-dasharray: 2;"/></marker><marker id="sequenceflow-end-white-hsl_225_10_15_-9u0lavliqalkdklb1zlclm4kv" viewBox="0 0 20 20" refX="11" refY="10" markerWidth="10" markerHeight="10" orient="auto"><path d="M 1 5 L 11 10 L 1 15 Z" style="stroke-linecap: round; stroke-linejoin: round; stroke: rgb(34, 36, 42); stroke-width: 1px; fill: rgb(34, 36, 42);"/></marker><marker id="conditional-default-flow-marker-white-hsl_225_10_15_-9u0lavliqalkdklb1zlclm4kv" viewBox="0 0 20 20" refX="0" refY="10" markerWidth="10" markerHeight="10" orient="auto"><path d="M 6 4 L 10 16" style="stroke-linecap: round; stroke-linejoin: round; stroke: rgb(34, 36, 42); stroke-width: 2px; fill: white;"/></marker></defs><g class="djs-group"><g class="djs-element djs-shape" data-element-id="StartEvent_1" transform="matrix(1 0 0 1 80 250)" style="display: block;"><g class="djs-visual"><circle cx="18" cy="18" r="18" style="stroke-linecap: round; stroke-linejoin: round; stroke: rgb(34, 36, 42); stroke-width: 2px; fill: white; fill-opacity: 0.95;"/></g><rect class="djs-hit djs-hit-all" x="0" y="0" width="36" height="36" style="fill: none; stroke-opacity: 0; stroke: white; stroke-width: 15px;"/><rect x="-6" y="-6" rx="4" width="48" height="48" class="djs-outline" style="fill: none;"/></g></g><g class="djs-group"><g class="djs-element djs-shape" data-element-id="StartEvent_1_label" transform="matrix(1 0 0 1 86 286)" style="display: block;"><g class="djs-visual"><text lineHeight="1.2" class="djs-label" style="font-family: Arial, sans-serif; font-size: 11px; font-weight: normal; fill: rgb(34, 36, 42);"><tspan x="0" y="9.899999999999999">Start</tspan></text></g><rect class="djs-hit djs-hit-all" x="0" y="0" width="25" height="14" style="fill: none; stroke-opacity: 0; stroke: white; stroke-width: 15px;"/><rect x="-6" y="-6" rx="4" width="37" height="26" class="djs-outline" style="fill: none;"/></g></g><g class="djs-group"><g class="djs-element djs-shape" data-element-id="UserTask_Input" transform="matrix(1 0 0 1 160 228)" style="display: block;"><g class="djs-visual"><rect x="0" y="0" width="170" height="80" rx="10" ry="10" style="stroke-linecap: round; stroke-linejoin: round; stroke: rgb(34, 36, 42); stroke-width: 2px; fill: white; fill-opacity: 0.95;"/><text lineHeight="1.2" class="djs-label" style="font-family: Arial, sans-serif; font-size: 12px; font-weight: normal; fill: rgb(34, 36, 42);"><tspan x="24.950000762939453" y="43.599999999999994">Enter Loan Application</tspan></text><path d="m 15,12 c 0.909,-0.845 1.594,-2.049 1.594,-3.385 0,-2.554 -1.805,-4.62199999 -4.357,-4.62199999 -2.55199998,0 -4.28799998,2.06799999 -4.28799998,4.62199999 0,1.348 0.974,2.562 1.89599998,3.405 -0.52899998,0.187 -5.669,2.097 -5.794,4.7560005 v 6.718 h 17 v -6.718 c 0,-2.2980005 -5.5279996,-4.5950005 -6.0509996,-4.7760005 zm -8,6 l 0,5.5 m 11,0 l 0,-5" style="fill: white; stroke-linecap: round; stroke-linejoin: round; stroke: rgb(34, 36, 42); stroke-width: 0.5px;"/><path d="m 15,12 m 2.162,1.009 c 0,2.4470005 -2.158,4.4310005 -4.821,4.4310005 -2.66499998,0 -4.822,-1.981 -4.822,-4.4310005 " style="fill: white; stroke-linecap: round; stroke-linejoin: round; stroke: rgb(34, 36, 42); stroke-width: 0.5px;"/><path d="m 15,12 m -6.9,-3.80 c 0,0 2.25099998,-2.358 4.27399998,-1.177 2.024,1.181 4.221,1.537 4.124,0.965 -0.098,-0.57 -0.117,-3.79099999 -4.191,-4.13599999 -3.57499998,0.001 -4.20799998,3.36699999 -4.20699998,4.34799999 z" style="fill: rgb(34, 36, 42); stroke-linecap: round; stroke-linejoin: round; stroke: rgb(34, 36, 42); stroke-width: 0.5px;"/></g><rect class="djs-hit djs-hit-all" x="0" y="0" width="170" height="80" style="fill: none; stroke-opacity: 0; stroke: white; stroke-width: 15px;"/><rect x="-6" y="-6" rx="4" width="182" height="92" class="djs-outline" style="fill: none;"/></g></g><g class="djs-group"><g class="djs-element djs-shape" data-element-id="Gateway_Split" transform="matrix(1 0 0 1 390 243)" style="display: block;"><g class="djs-visual"><polygon points="25,0 50,25 25,50 0,25" style="stroke-linecap: round; stroke-linejoin: round; stroke: rgb(34, 36, 42); stroke-width: 2px; fill: white; fill-opacity: 0.95;"/><path d="m 16,15 7.42857142857143,9.714285714285715 -7.42857142857143,9.714285714285715 3.428571428571429,0 5.714285714285715,-7.464228571428572 5.714285714285715,7.464228571428572 3.428571428571429,0 -7.42857142857143,-9.714285714285715 7.42857142857143,-9.714285714285715 -3.428571428571429,0 -5.714285714285715,7.464228571428572 -5.714285714285715,-7.464228571428572 -3.428571428571429,0 z" style="fill: rgb(34, 36, 42); stroke-linecap: round; stroke-linejoin: round; stroke: rgb(34, 36, 42); stroke-width: 1px;"/></g><rect class="djs-hit djs-hit-all" x="0" y="0" width="50" height="50" style="fill: none; stroke-opacity: 0; stroke: white; stroke-width: 15px;"/><rect x="-6" y="-6" rx="4" width="62" height="62" class="djs-outline" style="fill: none;"/></g></g><g class="djs-group"><g class="djs-element djs-shape" data-element-id="Gateway_Split_label" transform="matrix(1 0 0 1 380 210)" style="display: block;"><g class="djs-visual"><text lineHeight="1.2" class="djs-label" style="font-family: Arial, sans-serif; font-size: 11px; font-weight: normal; fill: rgb(34, 36, 42);"><tspan x="9.482666015625" y="9.899999999999999">Determine </tspan><tspan x="0" y="23.099999999999998">Scoring Route</tspan></text></g><rect class="djs-hit djs-hit-all" x="0" y="0" width="70" height="27" style="fill: none; stroke-opacity: 0; stroke: white; stroke-width: 15px;"/><rect x="-6" y="-6" rx="4" width="82" height="39" class="djs-outline" style="fill: none;"/></g></g><g class="djs-group"><g class="djs-element djs-shape" data-element-id="QHanaTask_AutoScore" transform="matrix(1 0 0 1 550 80)" style="display: block;"><g class="djs-visual"><g transform="matrix(0.17, 0, 0, 0.17, 7, 7)"><title>diagnostic-analysis</title><path d="M17.67,53.08h8.22l6.82-13.82L45.14,57.17l12.7-24.75,13.26,26,4.54-4.16,3-1.18H89.56v.53a35.81,35.81,0,0,1-1,8.35H80.35L68.5,72.84l-10.7-21L46.28,74.33,34,56.65,31.39,62H18.63a36.35,36.35,0,0,1-1-8.35v-.53ZM53.61,0A53.63,53.63,0,0,1,98.49,83l23.21,25.29-16,14.63L83.31,98.26A53.62,53.62,0,1,1,53.61,0Zm29.6,24a41.81,41.81,0,1,0,12.28,29.6A41.77,41.77,0,0,0,83.21,24Z"/></g><rect x="0" y="0" width="170" height="80" rx="10" ry="10" style="stroke-linecap: round; stroke-linejoin: round; stroke: rgb(34, 36, 42); stroke-width: 2px; fill: white; fill-opacity: 0;"/><text lineHeight="1.2" class="djs-label" style="font-family: Arial, sans-serif; font-size: 12px; font-weight: normal; fill: rgb(34, 36, 42);"><tspan x="40.64999771118164" y="43.599999999999994">auto-risk-scoring</tspan></text></g><rect class="djs-hit djs-hit-all" x="0" y="0" width="170" height="80" style="fill: none; stroke-opacity: 0; stroke: white; stroke-width: 15px;"/><rect x="-6" y="-6" rx="4" width="182" height="92" class="djs-outline" style="fill: none;"/></g></g><g class="djs-group"><g class="djs-element djs-shape" data-element-id="AdHocSubProcess_Manual" transform="matrix(1 0 0 1 550 325)" style="display: block;"><g class="djs-visual"><rect x="0" y="0" width="420" height="190" rx="10" ry="10" style="stroke-linecap: round; stroke-linejoin: round; stroke: rgb(34, 36, 42); stroke-width: 2px; fill: white; fill-opacity: 0.95;"/><text lineHeight="1.2" class="djs-label" style="font-family: Arial, sans-serif; font-size: 12px; font-weight: normal; fill: rgb(34, 36, 42);"><tspan x="142.6416015625" y="17.799999999999997">Manual Risk Assessment</tspan></text><path data-marker="adhoc" d="m 220,175 m 0.84461,2.64411 c 1.05533,-1.23780996 2.64337,-2.07882 4.29653,-1.97997996 2.05163,0.0805 3.85579,1.15803 5.76082,1.79107 1.06385,0.34139996 2.24454,0.1438 3.18759,-0.43767 0.61743,-0.33642 1.2775,-0.64078 1.7542,-1.17511 0,0.56023 0,1.12046 0,1.6807 -0.98706,0.96237996 -2.29792,1.62393996 -3.6918,1.66181996 -1.24459,0.0927 -2.46671,-0.2491 -3.59505,-0.74812 -1.35789,-0.55965 -2.75133,-1.33436996 -4.27027,-1.18121996 -1.37741,0.14601 -2.41842,1.13685996 -3.44288,1.96782996 z" style="fill: rgb(34, 36, 42); stroke-linecap: round; stroke-linejoin: round; stroke: rgb(34, 36, 42); stroke-width: 1px;"/></g><rect class="djs-hit djs-hit-no-move" x="0" y="0" width="420" height="190" style="fill: none; stroke-opacity: 0; stroke: white; stroke-width: 15px;"/><rect class="djs-hit djs-hit-click-stroke" x="0" y="0" width="420" height="190" style="fill: none; stroke-opacity: 0; stroke: white; stroke-width: 15px;"/><rect class="djs-hit djs-hit-all" x="0" y="0" width="420" height="30" style="fill: none; stroke-opacity: 0; stroke: white; stroke-width: 15px;"/><rect x="-6" y="-6" rx="4" width="432" height="202" class="djs-outline" style="fill: none;"/></g><g class="djs-children"><g class="djs-group"><g class="djs-element djs-shape" data-element-id="QHanaTask_ReviewDocs" transform="matrix(1 0 0 1 600 380)" style="display: block;"><g class="djs-visual"><g transform="matrix(0.17, 0, 0, 0.17, 7, 7)"><title>diagnostic-analysis</title><path d="M17.67,53.08h8.22l6.82-13.82L45.14,57.17l12.7-24.75,13.26,26,4.54-4.16,3-1.18H89.56v.53a35.81,35.81,0,0,1-1,8.35H80.35L68.5,72.84l-10.7-21L46.28,74.33,34,56.65,31.39,62H18.63a36.35,36.35,0,0,1-1-8.35v-.53ZM53.61,0A53.63,53.63,0,0,1,98.49,83l23.21,25.29-16,14.63L83.31,98.26A53.62,53.62,0,1,1,53.61,0Zm29.6,24a41.81,41.81,0,1,0,12.28,29.6A41.77,41.77,0,0,0,83.21,24Z"/></g><rect x="0" y="0" width="150" height="70" rx="10" ry="10" style="stroke-linecap: round; stroke-linejoin: round; stroke: rgb(34, 36, 42); stroke-width: 2px; fill: white; fill-opacity: 0;"/><text lineHeight="1.2" class="djs-label" style="font-family: Arial, sans-serif; font-size: 12px; font-weight: normal; fill: rgb(34, 36, 42);"><tspan x="26.114452362060547" y="38.6">review-documents</tspan></text></g><rect class="djs-hit djs-hit-all" x="0" y="0" width="150" height="70" style="fill: none; stroke-opacity: 0; stroke: white; stroke-width: 15px;"/><rect x="-6" y="-6" rx="4" width="162" height="82" class="djs-outline" style="fill: none;"/></g></g><g class="djs-group"><g class="djs-element djs-shape" data-element-id="QHanaTask_ManualScore" transform="matrix(1 0 0 1 780 380)" style="display: block;"><g class="djs-visual"><g transform="matrix(0.17, 0, 0, 0.17, 7, 7)"><title>diagnostic-analysis</title><path d="M17.67,53.08h8.22l6.82-13.82L45.14,57.17l12.7-24.75,13.26,26,4.54-4.16,3-1.18H89.56v.53a35.81,35.81,0,0,1-1,8.35H80.35L68.5,72.84l-10.7-21L46.28,74.33,34,56.65,31.39,62H18.63a36.35,36.35,0,0,1-1-8.35v-.53ZM53.61,0A53.63,53.63,0,0,1,98.49,83l23.21,25.29-16,14.63L83.31,98.26A53.62,53.62,0,1,1,53.61,0Zm29.6,24a41.81,41.81,0,1,0,12.28,29.6A41.77,41.77,0,0,0,83.21,24Z"/></g><rect x="0" y="0" width="150" height="70" rx="10" ry="10" style="stroke-linecap: round; stroke-linejoin: round; stroke: rgb(34, 36, 42); stroke-width: 2px; fill: white; fill-opacity: 0;"/><text lineHeight="1.2" class="djs-label" style="font-family: Arial, sans-serif; font-size: 12px; font-weight: normal; fill: rgb(34, 36, 42);"><tspan x="19.04648208618164" y="38.6">assign-manual-score</tspan></text></g><rect class="djs-hit djs-hit-all" x="0" y="0" width="150" height="70" style="fill: none; stroke-opacity: 0; stroke: white; stroke-width: 15px;"/><rect x="-6" y="-6" rx="4" width="162" height="82" class="djs-outline" style="fill: none;"/></g></g></g></g><g class="djs-group"><g class="djs-element djs-shape" data-element-id="Gateway_Merge" transform="matrix(1 0 0 1 1020 243)" style="display: block;"><g class="djs-visual"><polygon points="25,0 50,25 25,50 0,25" style="stroke-linecap: round; stroke-linejoin: round; stroke: rgb(34, 36, 42); stroke-width: 2px; fill: white; fill-opacity: 0.95;"/><path d="m 16,15 7.42857142857143,9.714285714285715 -7.42857142857143,9.714285714285715 3.428571428571429,0 5.714285714285715,-7.464228571428572 5.714285714285715,7.464228571428572 3.428571428571429,0 -7.42857142857143,-9.714285714285715 7.42857142857143,-9.714285714285715 -3.428571428571429,0 -5.714285714285715,7.464228571428572 -5.714285714285715,-7.464228571428572 -3.428571428571429,0 z" style="fill: rgb(34, 36, 42); stroke-linecap: round; stroke-linejoin: round; stroke: rgb(34, 36, 42); stroke-width: 1px;"/></g><rect class="djs-hit djs-hit-all" x="0" y="0" width="50" height="50" style="fill: none; stroke-opacity: 0; stroke: white; stroke-width: 15px;"/><rect x="-6" y="-6" rx="4" width="62" height="62" class="djs-outline" style="fill: none;"/></g></g><g class="djs-group"><g class="djs-element djs-shape" data-element-id="Gateway_Merge_label" transform="matrix(1 0 0 1 1009 300)" style="display: block;"><g class="djs-visual"><text lineHeight="1.2" class="djs-label" style="font-family: Arial, sans-serif; font-size: 11px; font-weight: normal; fill: rgb(34, 36, 42);"><tspan x="0" y="9.899999999999999">Merge Scoring</tspan></text></g><rect class="djs-hit djs-hit-all" x="0" y="0" width="72" height="14" style="fill: none; stroke-opacity: 0; stroke: white; stroke-width: 15px;"/><rect x="-6" y="-6" rx="4" width="84" height="26" class="djs-outline" style="fill: none;"/></g></g><g class="djs-group"><g class="djs-element djs-shape" data-element-id="EndEvent_1" transform="matrix(1 0 0 1 1120 250)" style="display: block;"><g class="djs-visual"><circle cx="18" cy="18" r="18" style="stroke-linecap: round; stroke-linejoin: round; stroke: rgb(34, 36, 42); stroke-width: 4px; fill: white; fill-opacity: 0.95;"/></g><rect class="djs-hit djs-hit-all" x="0" y="0" width="36" height="36" style="fill: none; stroke-opacity: 0; stroke: white; stroke-width: 15px;"/><rect x="-6" y="-6" rx="4" width="48" height="48" class="djs-outline" style="fill: none;"/></g></g><g class="djs-group"><g class="djs-element djs-shape" data-element-id="EndEvent_1_label" transform="matrix(1 0 0 1 1128 286)" style="display: block;"><g class="djs-visual"><text lineHeight="1.2" class="djs-label" style="font-family: Arial, sans-serif; font-size: 11px; font-weight: normal; fill: rgb(34, 36, 42);"><tspan x="0" y="9.899999999999999">End</tspan></text></g><rect class="djs-hit djs-hit-all" x="0" y="0" width="20" height="14" style="fill: none; stroke-opacity: 0; stroke: white; stroke-width: 15px;"/><rect x="-6" y="-6" rx="4" width="32" height="26" class="djs-outline" style="fill: none;"/></g></g><g class="djs-group"><g class="djs-element djs-connection" data-element-id="Flow_1" style="display: block;"><g class="djs-visual"><path data-corner-radius="5" style="fill: none; stroke-linecap: round; stroke-linejoin: round; stroke: rgb(34, 36, 42); stroke-width: 2px; marker-end: url('#sequenceflow-end-white-hsl_225_10_15_-9u0lavliqalkdklb1zlclm4kv');" d="M116,268L160,268"/></g><path d="M116,268L160,268" class="djs-hit djs-hit-stroke" style="fill: none; stroke-opacity: 0; stroke: white; stroke-width: 15px;"/><rect x="110" y="262" rx="4" width="56" height="12" class="djs-outline" style="fill: none;"/></g></g><g class="djs-group"><g class="djs-element djs-connection" data-element-id="Flow_2" style="display: block;"><g class="djs-visual"><path data-corner-radius="5" style="fill: none; stroke-linecap: round; stroke-linejoin: round; stroke: rgb(34, 36, 42); stroke-width: 2px; marker-end: url('#sequenceflow-end-white-hsl_225_10_15_-9u0lavliqalkdklb1zlclm4kv');" d="M330,268L390,268"/></g><path d="M330,268L390,268" class="djs-hit djs-hit-stroke" style="fill: none; stroke-opacity: 0; stroke: white; stroke-width: 15px;"/><rect x="324" y="262" rx="4" width="72" height="12" class="djs-outline" style="fill: none;"/></g></g><g class="djs-group"><g class="djs-element djs-connection" data-element-id="Flow_3A" style="display: block;"><g class="djs-visual"><path data-corner-radius="5" style="fill: none; stroke-linecap: round; stroke-linejoin: round; stroke: rgb(34, 36, 42); stroke-width: 2px; marker-end: url('#sequenceflow-end-white-hsl_225_10_15_-9u0lavliqalkdklb1zlclm4kv');" d="M415,243L415,125C415,122.5,417.5,120,420,120L550,120"/></g><path d="M415,243L415,120L550,120" class="djs-hit djs-hit-stroke" style="fill: none; stroke-opacity: 0; stroke: white; stroke-width: 15px;"/><rect x="409" y="114" rx="4" width="147" height="135" class="djs-outline" style="fill: none;"/></g></g><g class="djs-group"><g class="djs-element djs-shape" data-element-id="Flow_3A_label" transform="matrix(1 0 0 1 429 100)" style="display: block;"><g class="djs-visual"><text lineHeight="1.2" class="djs-label" style="font-family: Arial, sans-serif; font-size: 11px; font-weight: normal; fill: rgb(34, 36, 42);"><tspan x="0" y="9.899999999999999">Low Amount</tspan></text></g><rect class="djs-hit djs-hit-all" x="0" y="0" width="62" height="14" style="fill: none; stroke-opacity: 0; stroke: white; stroke-width: 15px;"/><rect x="-6" y="-6" rx="4" width="74" height="26" class="djs-outline" style="fill: none;"/></g></g><g class="djs-group"><g class="djs-element djs-connection" data-element-id="Flow_3B" style="display: block;"><g class="djs-visual"><path data-corner-radius="5" style="fill: none; stroke-linecap: round; stroke-linejoin: round; stroke: rgb(34, 36, 42); stroke-width: 2px; marker-end: url('#sequenceflow-end-white-hsl_225_10_15_-9u0lavliqalkdklb1zlclm4kv'); marker-start: url('#conditional-default-flow-marker-white-hsl_225_10_15_-9u0lavliqalkdklb1zlclm4kv');" d="M415,293L415,415C415,417.5,417.5,420,420,420L550,420"/></g><path d="M415,293L415,420L550,420" class="djs-hit djs-hit-stroke" style="fill: none; stroke-opacity: 0; stroke: white; stroke-width: 15px;"/><rect x="409" y="287" rx="4" width="147" height="139" class="djs-outline" style="fill: none;"/></g></g><g class="djs-group"><g class="djs-element djs-shape" data-element-id="Flow_3B_label" transform="matrix(1 0 0 1 443 430)" style="display: block;"><g class="djs-visual"><text lineHeight="1.2" class="djs-label" style="font-family: Arial, sans-serif; font-size: 11px; font-weight: normal; fill: rgb(34, 36, 42);"><tspan x="0" y="9.899999999999999">Default (High </tspan><tspan x="11.684229671955109" y="23.099999999999998">Amount)</tspan></text></g><rect class="djs-hit djs-hit-all" x="0" y="0" width="65" height="27" style="fill: none; stroke-opacity: 0; stroke: white; stroke-width: 15px;"/><rect x="-6" y="-6" rx="4" width="77" height="39" class="djs-outline" style="fill: none;"/></g></g><g class="djs-group"><g class="djs-element djs-connection" data-element-id="Flow_4A" style="display: block;"><g class="djs-visual"><path data-corner-radius="5" style="fill: none; stroke-linecap: round; stroke-linejoin: round; stroke: rgb(34, 36, 42); stroke-width: 2px; marker-end: url('#sequenceflow-end-white-hsl_225_10_15_-9u0lavliqalkdklb1zlclm4kv');" d="M720,120L1040,120C1042.5,120,1045,122.5,1045,125L1045,243"/></g><path d="M720,120L1045,120L1045,243" class="djs-hit djs-hit-stroke" style="fill: none; stroke-opacity: 0; stroke: white; stroke-width: 15px;"/><rect x="714" y="114" rx="4" width="337" height="135" class="djs-outline" style="fill: none;"/></g></g><g class="djs-group"><g class="djs-element djs-connection" data-element-id="Flow_4B" style="display: block;"><g class="djs-visual"><path data-corner-radius="5" style="fill: none; stroke-linecap: round; stroke-linejoin: round; stroke: rgb(34, 36, 42); stroke-width: 2px; marker-end: url('#sequenceflow-end-white-hsl_225_10_15_-9u0lavliqalkdklb1zlclm4kv');" d="M970,420L1040,420C1042.5,420,1045,417.5,1045,415L1045,293"/></g><path d="M970,420L1045,420L1045,293" class="djs-hit djs-hit-stroke" style="fill: none; stroke-opacity: 0; stroke: white; stroke-width: 15px;"/><rect x="964" y="287" rx="4" width="87" height="139" class="djs-outline" style="fill: none;"/></g></g><g class="djs-group"><g class="djs-element djs-connection" data-element-id="Flow_5" style="display: block;"><g class="djs-visual"><path data-corner-radius="5" style="fill: none; stroke-linecap: round; stroke-linejoin: round; stroke: rgb(34, 36, 42); stroke-width: 2px; marker-end: url('#sequenceflow-end-white-hsl_225_10_15_-9u0lavliqalkdklb1zlclm4kv');" d="M1070,268L1120,268"/></g><path d="M1070,268L1120,268" class="djs-hit djs-hit-stroke" style="fill: none; stroke-opacity: 0; stroke: white; stroke-width: 15px;"/><rect x="1064" y="262" rx="4" width="62" height="12" class="djs-outline" style="fill: none;"/></g></g></svg>