<?xml version="1.0" encoding="utf-8"?>
<!-- created with bpmn-js / http://bpmn.io -->
<!DOCTYPE svg PUBLIC "-//W3C//DTD SVG 1.1//EN" "http://www.w3.org/Graphics/SVG/1.1/DTD/svg11.dtd">
<svg xmlns="http://www.w3.org/2000/svg" xmlns:xlink="http://www.w3.org/1999/xlink" width="990" height="380" viewBox="75 5 990 380" version="1.1"><defs><pattern id="djs-grid-pattern-15009" width="10" height="10" patternUnits="userSpaceOnUse"><circle cx="0.5" cy="0.5" r="0.5" style="fill: rgb(204, 204, 204);"/></pattern></defs><g class="djs-group"><g class="djs-element djs-shape" data-element-id="Participant_1" style="display: block;" transform="matrix(1 0 0 1 80 60)"><g class="djs-visual"><rect x="0" y="0" width="980" height="320" rx="0" ry="0" style="stroke-linecap: round; stroke-linejoin: round; stroke: rgb(34, 36, 42); stroke-width: 1.5px; fill: white; fill-opacity: 0.95;"/><path style="fill: none; stroke-linecap: round; stroke-linejoin: round; stroke: rgb(34, 36, 42); stroke-width: 1.5px;" d="M30,0L30,320"/><text lineHeight="1.2" class="djs-label" style="font-family: Arial, sans-serif; font-size: 12px; font-weight: normal; fill: rgb(34, 36, 42);" transform="matrix(-1.83697e-16 -1 1 -1.83697e-16 0 320)"><tspan x="116.6474609375" y="18.6">Main Participant</tspan></text></g><rect class="djs-hit djs-hit-no-move" x="0" y="0" width="980" height="320" style="fill: none; stroke-opacity: 0; stroke: white; stroke-width: 15px;"/><rect class="djs-hit djs-hit-click-stroke" x="0" y="0" width="980" height="320" style="fill: none; stroke-opacity: 0; stroke: white; stroke-width: 15px;"/><rect class="djs-hit djs-hit-all" x="0" y="0" width="30" height="320" style="fill: none; stroke-opacity: 0; stroke: white; stroke-width: 15px;"/><rect x="-5" y="-5" rx="4" width="990" height="330" class="djs-outline" style="fill: none;"/></g><g class="djs-children"><g class="djs-group"><g class="djs-element djs-shape" data-element-id="Lane_EXEC" style="display: block;" transform="matrix(1 0 0 1 110 230)"><g class="djs-visual"><rect x="0" y="0" width="950" height="150" rx="0" ry="0" style="stroke-linecap: round; stroke-linejoin: round; stroke: rgb(34, 36, 42); stroke-width: 1.5px; fill: white; fill-opacity: 0.25;"/><text lineHeight="1.2" class="djs-label" style="font-family: Arial, sans-serif; font-size: 12px; font-weight: normal; fill: rgb(34, 36, 42);" transform="matrix(-1.83697e-16 -1 1 -1.83697e-16 0 150)"><tspan x="43.38339805603027" y="18.6">EXEC Lane</tspan></text></g><rect class="djs-hit djs-hit-no-move" x="0" y="0" width="950" height="150" style="fill: none; stroke-opacity: 0; stroke: white; stroke-width: 15px;"/><rect class="djs-hit djs-hit-click-stroke" x="0" y="0" width="950" height="150" style="fill: none; stroke-opacity: 0; stroke: white; stroke-width: 15px;"/><rect class="djs-hit djs-hit-all" x="0" y="0" width="30" height="150" style="fill: none; stroke-opacity: 0; stroke: white; stroke-width: 15px;"/><rect x="-5" y="-5" rx="4" width="960" height="160" class="djs-outline" style="fill: none;"/></g></g><g class="djs-group"><g class="djs-element djs-shape" data-element-id="Lane_REST" style="display: block;" transform="matrix(1 0 0 1 110 60)"><g class="djs-visual"><rect x="0" y="0" width="950" height="170" rx="0" ry="0" style="stroke-linecap: round; stroke-linejoin: round; stroke: rgb(34, 36, 42); stroke-width: 1.5px; fill: white; fill-opacity: 0.25;"/><text lineHeight="1.2" class="djs-label" style="font-family: Arial, sans-serif; font-size: 12px; font-weight: normal; fill: rgb(34, 36, 42);" transform="matrix(-1.83697e-16 -1 1 -1.83697e-16 0 170)"><tspan x="53.82871055603027" y="18.6">REST Lane</tspan></text></g><rect class="djs-hit djs-hit-no-move" x="0" y="0" width="950" height="170" style="fill: none; stroke-opacity: 0; stroke: white; stroke-width: 15px;"/><rect class="djs-hit djs-hit-click-stroke" x="0" y="0" width="950" height="170" style="fill: none; stroke-opacity: 0; stroke: white; stroke-width: 15px;"/><rect class="djs-hit djs-hit-all" x="0" y="0" width="30" height="170" style="fill: none; stroke-opacity: 0; stroke: white; stroke-width: 15px;"/><rect x="-5" y="-5" rx="4" width="960" height="180" class="djs-outline" style="fill: none;"/></g></g><g class="djs-group"><g class="djs-element djs-shape" data-element-id="StartEvent_1" style="display: block;" transform="matrix(1 0 0 1 150 125)"><g class="djs-visual"><circle cx="18" cy="18" r="18" style="stroke-linecap: round; stroke-linejoin: round; stroke: rgb(34, 36, 42); stroke-width: 2px; fill: white; fill-opacity: 0.95;"/></g><rect class="djs-hit djs-hit-all" x="0" y="0" width="36" height="36" style="fill: none; stroke-opacity: 0; stroke: white; stroke-width: 15px;"/><circle cx="18" cy="18" r="23" class="djs-outline" style="fill: none;"/></g></g><g class="djs-group"><g class="djs-element djs-shape" data-element-id="StartEvent_1_label" style="display: block;" transform="matrix(1 0 0 1 156 161)"><g class="djs-visual"><text lineHeight="1.2" class="djs-label" style="font-family: Arial, sans-serif; font-size: 11px; font-weight: normal; fill: rgb(34, 36, 42);"><tspan x="0" y="9.899999999999999">Start</tspan></text></g><rect class="djs-hit djs-hit-all" x="0" y="0" width="25" height="14" style="fill: none; stroke-opacity: 0; stroke: white; stroke-width: 15px;"/><rect x="-5" y="-5" rx="4" width="35" height="24" class="djs-outline" style="fill: none;"/></g></g><g class="djs-group"><g class="djs-element djs-shape" data-element-id="UserTask_Input" style="display: block;" transform="matrix(1 0 0 1 240 103)"><g class="djs-visual"><rect x="0" y="0" width="100" height="80" rx="10" ry="10" style="stroke-linecap: round; stroke-linejoin: round; stroke: rgb(34, 36, 42); stroke-width: 2px; fill: white; fill-opacity: 0.95;"/><text lineHeight="1.2" class="djs-label" style="font-family: Arial, sans-serif; font-size: 12px; font-weight: normal; fill: rgb(34, 36, 42);"><tspan x="14.987499237060547" y="43.599999999999994">Input (REST)</tspan></text><path d="m 15,12 c 0.909,-0.845 1.594,-2.049 1.594,-3.385 0,-2.554 -1.805,-4.62199999 -4.357,-4.62199999 -2.55199998,0 -4.28799998,2.06799999 -4.28799998,4.62199999 0,1.348 0.974,2.562 1.89599998,3.405 -0.52899998,0.187 -5.669,2.097 -5.794,4.7560005 v 6.718 h 17 v -6.718 c 0,-2.2980005 -5.5279996,-4.5950005 -6.0509996,-4.7760005 zm -8,6 l 0,5.5 m 11,0 l 0,-5" style="fill: white; stroke-linecap: round; stroke-linejoin: round; stroke: rgb(34, 36, 42); stroke-width: 0.5px;"/><path d="m 15,12 m 2.162,1.009 c 0,2.4470005 -2.158,4.4310005 -4.821,4.4310005 -2.66499998,0 -4.822,-1.981 -4.822,-4.4310005 " style="fill: white; stroke-linecap: round; stroke-linejoin: round; stroke: rgb(34, 36, 42); stroke-width: 0.5px;"/><path d="m 15,12 m -6.9,-3.80 c 0,0 2.25099998,-2.358 4.27399998,-1.177 2.024,1.181 4.221,1.537 4.124,0.965 -0.098,-0.57 -0.117,-3.79099999 -4.191,-4.13599999 -3.57499998,0.001 -4.20799998,3.36699999 -4.20699998,4.34799999 z" style="fill: rgb(34, 36, 42); stroke-linecap: round; stroke-linejoin: round; stroke: rgb(34, 36, 42); stroke-width: 0.5px;"/></g><rect class="djs-hit djs-hit-all" x="0" y="0" width="100" height="80" style="fill: none; stroke-opacity: 0; stroke: white; stroke-width: 15px;"/><rect x="-5" y="-5" rx="14" width="110" height="90" class="djs-outline" style="fill: none;"/></g></g><g class="djs-group"><g class="djs-element djs-shape" data-element-id="ManualTask_Review" style="display: block;" transform="matrix(1 0 0 1 400 103)"><g class="djs-visual"><rect x="0" y="0" width="110" height="80" rx="10" ry="10" style="stroke-linecap: round; stroke-linejoin: round; stroke: rgb(34, 36, 42); stroke-width: 2px; fill: white; fill-opacity: 0.95;"/><text lineHeight="1.2" class="djs-label" style="font-family: Arial, sans-serif; font-size: 12px; font-weight: normal; fill: rgb(34, 36, 42);"><tspan x="13.514453887939453" y="36.4">Manual Review </tspan><tspan x="35" y="50.8">(REST)</tspan></text><path d="m 17,15 c 0.234,-0.01 5.604,0.008 8.029,0.004 0.808,0 1.271,-0.172 1.417,-0.752 0.227,-0.898 -0.334,-1.314 -1.338,-1.316 -2.467,-0.01 -7.886,-0.004 -8.108,-0.004 -0.014,-0.079 0.016,-0.533 0,-0.61 0.195,-0.042 8.507,0.006 9.616,0.002 0.877,-0.007 1.35,-0.438 1.353,-1.208 0.003,-0.768 -0.479,-1.09 -1.35,-1.091 -2.968,-0.002 -9.619,-0.013 -9.619,-0.013 v -0.591 c 0,0 5.052,-0.016 7.225,-0.016 0.888,-0.002 1.354,-0.416 1.351,-1.193 -0.006,-0.761 -0.492,-1.196 -1.361,-1.196 -3.473,-0.005 -10.86,-0.003 -11.0829995,-0.003 -0.022,-0.047 -0.045,-0.094 -0.069,-0.139 0.3939995,-0.319 2.0409995,-1.626 2.4149995,-2.017 0.469,-0.4870005 0.519,-1.1650005 0.162,-1.6040005 -0.414,-0.511 -0.973,-0.5 -1.48,-0.236 -1.4609995,0.764 -6.5999995,3.6430005 -7.7329995,4.2710005 -0.9,0.499 -1.516,1.253 -1.882,2.19 -0.37000002,0.95 -0.17,2.01 -0.166,2.979 0.004,0.718 -0.27300002,1.345 -0.055,2.063 0.629,2.087 2.425,3.312 4.859,3.318 4.6179995,0.014 9.2379995,-0.139 13.8569995,-0.158 0.755,-0.004 1.171,-0.301 1.182,-1.033 0.012,-0.754 -0.423,-0.969 -1.183,-0.973 -1.778,-0.01 -5.824,-0.004 -6.04,-0.004 10e-4,-0.084 0.003,-0.586 10e-4,-0.67 z" style="fill: white; stroke-linecap: round; stroke-linejoin: round; stroke: rgb(34, 36, 42); stroke-width: 0.5px;"/></g><rect class="djs-hit djs-hit-all" x="0" y="0" width="110" height="80" style="fill: none; stroke-opacity: 0; stroke: white; stroke-width: 15px;"/><rect x="-5" y="-5" rx="14" width="120" height="90" class="djs-outline" style="fill: none;"/></g></g><g class="djs-group"><g class="djs-element djs-shape" data-element-id="QHanaTask_HelloWorld" style="display: block;" transform="matrix(1 0 0 1 610 265)"><g class="djs-visual"><rect x="0" y="0" width="110" height="80" rx="10" ry="10" style="stroke-linecap: round; stroke-linejoin: round; stroke: rgb(34, 36, 42); stroke-width: 2px; fill: white; fill-opacity: 0.95;"/><text lineHeight="1.2" class="djs-label" style="font-family: Arial, sans-serif; font-size: 12px; font-weight: normal; fill: rgb(34, 36, 42);"><tspan x="25.76249885559082" y="36.4">HelloWorld </tspan><tspan x="31.32499885559082" y="50.8">(QHAna)</tspan></text><circle cx="5" cy="5" r="5" transform="translate(6, 6)" style="stroke-linecap: round; stroke-linejoin: round; stroke: none; stroke-width: 2px; fill: white;"/><path d="m 12,18 v -1.71335 c 0.352326,-0.0705 0.703932,-0.17838 1.047628,-0.32133 0.344416,-0.14465 0.665822,-0.32133 0.966377,-0.52145 l 1.19431,1.18005 1.567487,-1.57688 -1.195028,-1.18014 c 0.403376,-0.61394 0.683079,-1.29908 0.825447,-2.01824 l 1.622133,-0.01 v -2.2196 l -1.636514,0.01 c -0.07333,-0.35153 -0.178319,-0.70024 -0.323564,-1.04372 -0.145244,-0.34406 -0.321407,-0.6644 -0.522735,-0.96217 l 1.131035,-1.13631 -1.583305,-1.56293 -1.129598,1.13589 c -0.614052,-0.40108 -1.302883,-0.68093 -2.022633,-0.82247 l 0.0093,-1.61852 h -2.241173 l 0.0042,1.63124 c -0.353763,0.0736 -0.705369,0.17977 -1.049785,0.32371 -0.344415,0.14437 -0.665102,0.32092 -0.9635006,0.52046 l -1.1698628,-1.15823 -1.5667691,1.5792 1.1684265,1.15669 c -0.4026573,0.61283 -0.68308,1.29797 -0.8247287,2.01713 l -1.6588041,0.003 v 2.22174 l 1.6724648,-0.006 c 0.073327,0.35077 0.1797598,0.70243 0.3242851,1.04472 0.1452428,0.34448 0.3214064,0.6644 0.5227339,0.96066 l -1.1993431,1.19723 1.5840256,1.56011 1.1964668,-1.19348 c 0.6140517,0.40346 1.3028827,0.68232 2.0233517,0.82331 l 7.19e-4,1.69892 h 2.226848 z m 0.221462,-3.9957 c -1.788948,0.7502 -3.8576,-0.0928 -4.6097055,-1.87438 -0.7521065,-1.78321 0.090598,-3.84627 1.8802645,-4.59604 1.78823,-0.74936 3.856881,0.0929 4.608987,1.87437 0.752106,1.78165 -0.0906,3.84612 -1.879546,4.59605 z" style="fill: white; stroke-linecap: round; stroke-linejoin: round; stroke: rgb(34, 36, 42); stroke-width: 1px;"/><circle cx="5" cy="5" r="5" transform="translate(11, 10)" style="stroke-linecap: round; stroke-linejoin: round; stroke: none; stroke-width: 2px; fill: white;"/><path d="m 17,22 v -1.71335 c 0.352326,-0.0705 0.703932,-0.17838 1.047628,-0.32133 0.344416,-0.14465 0.665822,-0.32133 0.966377,-0.52145 l 1.19431,1.18005 1.567487,-1.57688 -1.195028,-1.18014 c 0.403376,-0.61394 0.683079,-1.29908 0.825447,-2.01824 l 1.622133,-0.01 v -2.2196 l -1.636514,0.01 c -0.07333,-0.35153 -0.178319,-0.70024 -0.323564,-1.04372 -0.145244,-0.34406 -0.321407,-0.6644 -0.522735,-0.96217 l 1.131035,-1.13631 -1.583305,-1.56293 -1.129598,1.13589 c -0.614052,-0.40108 -1.302883,-0.68093 -2.022633,-0.82247 l 0.0093,-1.61852 h -2.241173 l 0.0042,1.63124 c -0.353763,0.0736 -0.705369,0.17977 -1.049785,0.32371 -0.344415,0.14437 -0.665102,0.32092 -0.9635006,0.52046 l -1.1698628,-1.15823 -1.5667691,1.5792 1.1684265,1.15669 c -0.4026573,0.61283 -0.68308,1.29797 -0.8247287,2.01713 l -1.6588041,0.003 v 2.22174 l 1.6724648,-0.006 c 0.073327,0.35077 0.1797598,0.70243 0.3242851,1.04472 0.1452428,0.34448 0.3214064,0.6644 0.5227339,0.96066 l -1.1993431,1.19723 1.5840256,1.56011 1.1964668,-1.19348 c 0.6140517,0.40346 1.3028827,0.68232 2.0233517,0.82331 l 7.19e-4,1.69892 h 2.226848 z m 0.221462,-3.9957 c -1.788948,0.7502 -3.8576,-0.0928 -4.6097055,-1.87438 -0.7521065,-1.78321 0.090598,-3.84627 1.8802645,-4.59604 1.78823,-0.74936 3.856881,0.0929 4.608987,1.87437 0.752106,1.78165 -0.0906,3.84612 -1.879546,4.59605 z" style="fill: white; stroke-linecap: round; stroke-linejoin: round; stroke: rgb(34, 36, 42); stroke-width: 1px;"/></g><rect class="djs-hit djs-hit-all" x="0" y="0" width="110" height="80" style="fill: none; stroke-opacity: 0; stroke: white; stroke-width: 15px;"/><rect x="-5" y="-5" rx="14" width="120" height="90" class="djs-outline" style="fill: none;"/></g></g><g class="djs-group"><g class="djs-element djs-shape" data-element-id="EndEvent_1" style="display: block;" transform="matrix(1 0 0 1 800 287)"><g class="djs-visual"><circle cx="18" cy="18" r="18" style="stroke-linecap: round; stroke-linejoin: round; stroke: rgb(34, 36, 42); stroke-width: 4px; fill: white; fill-opacity: 0.95;"/></g><rect class="djs-hit djs-hit-all" x="0" y="0" width="36" height="36" style="fill: none; stroke-opacity: 0; stroke: white; stroke-width: 15px;"/><circle cx="18" cy="18" r="24" class="djs-outline" style="fill: none;"/></g></g><g class="djs-group"><g class="djs-element djs-shape" data-element-id="EndEvent_1_label" style="display: block;" transform="matrix(1 0 0 1 808 323)"><g class="djs-visual"><text lineHeight="1.2" class="djs-label" style="font-family: Arial, sans-serif; font-size: 11px; font-weight: normal; fill: rgb(34, 36, 42);"><tspan x="0" y="9.899999999999999">End</tspan></text></g><rect class="djs-hit djs-hit-all" x="0" y="0" width="20" height="14" style="fill: none; stroke-opacity: 0; stroke: white; stroke-width: 15px;"/><rect x="-5" y="-5" rx="4" width="30" height="24" class="djs-outline" style="fill: none;"/></g></g><g class="djs-group"><g class="djs-element djs-shape" data-element-id="DataObjectRef_1" style="display: block;" transform="matrix(1 0 0 1 250 20)"><g class="djs-visual"><path d="m 0,0 28.23529411764706,0 7.058823529411765,8.196721311475411 0,40.98360655737705 -35.294117647058826,0 0,-49.18032786885246 28.23529411764706,0 0,8.196721311475411 7.058823529411765,0" style="fill: white; stroke-linecap: round; stroke-linejoin: round; stroke: rgb(34, 36, 42); stroke-width: 2px; fill-opacity: 0.95;"/></g><rect class="djs-hit djs-hit-all" x="0" y="0" width="36" height="50" style="fill: none; stroke-opacity: 0; stroke: white; stroke-width: 15px;"/><path d="M44.7648 11.3263L36.9892 2.64074C36.0451 1.58628 34.5651 0.988708 33.1904 0.988708H5.98667C3.22688 0.988708 0.989624 3.34892 0.989624 6.26039V55.0235C0.989624 57.9349 3.22688 60.2952 5.98667 60.2952H40.966C43.7257 60.2952 45.963 57.9349 45.963 55.0235V14.9459C45.963 13.5998 45.6407 12.3048 44.7648 11.3263Z" transform="translate(-6, -6)" class="djs-outline" style="stroke-width: 2px; fill: none;"/></g></g><g class="djs-group"><g class="djs-element djs-shape" data-element-id="DataObjectRef_1_label" style="display: block;" transform="matrix(1 0 0 1 229 70)"><g class="djs-visual"><text lineHeight="1.2" class="djs-label" style="font-family: Arial, sans-serif; font-size: 11px; font-weight: normal; fill: rgb(34, 36, 42);"><tspan x="0" y="9.899999999999999">SharedInputRef</tspan></text></g><rect class="djs-hit djs-hit-all" x="0" y="0" width="78" height="14" style="fill: none; stroke-opacity: 0; stroke: white; stroke-width: 15px;"/><rect x="-5" y="-5" rx="4" width="88" height="24" class="djs-outline" style="fill: none;"/></g></g><g class="djs-group"><g class="djs-element djs-shape" data-element-id="TextAnnotation_1" style="display: block;" transform="matrix(1 0 0 1 390 10)"><g class="djs-visual"><rect x="0" y="0" width="140" height="50" rx="0" ry="0" style="stroke-linecap: round; stroke-linejoin: round; stroke: none; stroke-width: 2px; fill: none;"/><path d="m 0, 0 m 10,0 l -10,0 l 0,50 l 10,0" style="fill: none; stroke-linecap: round; stroke-linejoin: round; stroke: rgb(34, 36, 42); stroke-width: 2px;"/><text lineHeight="1.2" class="djs-label" style="font-family: Arial, sans-serif; font-size: 12px; font-weight: normal; fill: rgb(34, 36, 42);"><tspan x="7" y="17.799999999999997">Review note attached </tspan><tspan x="7" y="32.199999999999996">only to the manual </tspan><tspan x="7" y="46.599999999999994">task.</tspan></text></g><rect class="djs-hit djs-hit-all" x="0" y="0" width="140" height="50" style="fill: none; stroke-opacity: 0; stroke: white; stroke-width: 15px;"/><rect x="-5" y="-5" rx="4" width="150" height="60" class="djs-outline" style="fill: none;"/></g></g><g class="djs-group"><g class="djs-element djs-shape" data-element-id="TextAnnotation_2" style="display: block;" transform="matrix(1 0 0 1 740 245)"><g class="djs-visual"><rect x="0" y="0" width="150" height="50" rx="0" ry="0" style="stroke-linecap: round; stroke-linejoin: round; stroke: none; stroke-width: 2px; fill: none;"/><path d="m 0, 0 m 10,0 l -10,0 l 0,50 l 10,0" style="fill: none; stroke-linecap: round; stroke-linejoin: round; stroke: rgb(34, 36, 42); stroke-width: 2px;"/><text lineHeight="1.2" class="djs-label" style="font-family: Arial, sans-serif; font-size: 12px; font-weight: normal; fill: rgb(34, 36, 42);"><tspan x="7" y="17.799999999999997">Plugin note attached to </tspan><tspan x="7" y="32.199999999999996">the QHAna task.</tspan></text></g><rect class="djs-hit djs-hit-all" x="0" y="0" width="150" height="50" style="fill: none; stroke-opacity: 0; stroke: white; stroke-width: 15px;"/><rect x="-5" y="-5" rx="4" width="160" height="60" class="djs-outline" style="fill: none;"/></g></g><g class="djs-group"><g class="djs-element djs-shape djs-frame" data-element-id="Group_1" style="display: block;" transform="matrix(1 0 0 1 220 85)"><g class="djs-visual"><rect x="0" y="0" width="320" height="115" rx="10" ry="10" style="stroke-linecap: round; stroke-linejoin: round; stroke: rgb(34, 36, 42); stroke-width: 1.5px; fill: none; stroke-dasharray: 10, 6, 0, 6; pointer-events: none;"/></g><rect class="djs-hit djs-hit-stroke" x="0" y="0" width="320" height="115" style="fill: none; stroke-opacity: 0; stroke: white; stroke-width: 15px;"/><rect x="-5" y="-5" rx="14" width="330" height="125" class="djs-outline" style="fill: none;"/></g></g><g class="djs-group"><g class="djs-element djs-shape" data-element-id="Group_1_label" style="display: block;" transform="matrix(1 0 0 1 348 85)"><g class="djs-visual"><text lineHeight="1.2" class="djs-label" style="font-family: Arial, sans-serif; font-size: 11px; font-weight: normal; fill: rgb(34, 36, 42);"><tspan x="0" y="9.899999999999999">review-group</tspan></text></g><rect class="djs-hit djs-hit-all" x="0" y="0" width="64" height="14" style="fill: none; stroke-opacity: 0; stroke: white; stroke-width: 15px;"/><rect x="-5" y="-5" rx="4" width="74" height="24" class="djs-outline" style="fill: none;"/></g></g><g class="djs-group"><g class="djs-element djs-connection" data-element-id="Flow_1" style="display: block;"><g class="djs-visual"><defs><marker id="marker-ecjgoln1kcyotfy1tz6digvcn" viewBox="0 0 20 20" refX="11" refY="10" markerWidth="10" markerHeight="10" orient="auto"><path d="M 1 5 L 11 10 L 1 15 Z" style="stroke-linecap: round; stroke-linejoin: round; stroke: rgb(34, 36, 42); stroke-width: 1px; fill: rgb(34, 36, 42);"/></marker></defs><path data-corner-radius="5" style="fill: none; stroke-linecap: round; stroke-linejoin: round; stroke: rgb(34, 36, 42); stroke-width: 2px; marker-end: url('#marker-ecjgoln1kcyotfy1tz6digvcn');" d="M186,143L240,143"/></g><path d="M186,143L240,143" class="djs-hit djs-hit-stroke" style="fill: none; stroke-opacity: 0; stroke: white; stroke-width: 15px;"/><rect x="181" y="138" rx="4" width="64" height="10" class="djs-outline" style="fill: none;"/></g></g><g class="djs-group"><g class="djs-element djs-connection" data-element-id="Flow_2" style="display: block;"><g class="djs-visual"><defs><marker id="marker-0lml5p5e2g2m5nb08gsjzl3my" viewBox="0 0 20 20" refX="11" refY="10" markerWidth="10" markerHeight="10" orient="auto"><path d="M 1 5 L 11 10 L 1 15 Z" style="stroke-linecap: round; stroke-linejoin: round; stroke: rgb(34, 36, 42); stroke-width: 1px; fill: rgb(34, 36, 42);"/></marker></defs><path data-corner-radius="5" style="fill: none; stroke-linecap: round; stroke-linejoin: round; stroke: rgb(34, 36, 42); stroke-width: 2px; marker-end: url('#marker-0lml5p5e2g2m5nb08gsjzl3my');" d="M340,143L400,143"/></g><path d="M340,143L400,143" class="djs-hit djs-hit-stroke" style="fill: none; stroke-opacity: 0; stroke: white; stroke-width: 15px;"/><rect x="335" y="138" rx="4" width="70" height="10" class="djs-outline" style="fill: none;"/></g></g><g class="djs-group"><g class="djs-element djs-connection" data-element-id="Flow_3" style="display: block;"><g class="djs-visual"><defs><marker id="marker-eoxpixlrfs1s4wjfswtmrafpo" viewBox="0 0 20 20" refX="11" refY="10" markerWidth="10" markerHeight="10" orient="auto"><path d="M 1 5 L 11 10 L 1 15 Z" style="stroke-linecap: round; stroke-linejoin: round; stroke: rgb(34, 36, 42); stroke-width: 1px; fill: rgb(34, 36, 42);"/></marker></defs><path data-corner-radius="5" style="fill: none; stroke-linecap: round; stroke-linejoin: round; stroke: rgb(34, 36, 42); stroke-width: 2px; marker-end: url('#marker-eoxpixlrfs1s4wjfswtmrafpo');" d="M510,143L555,143C557.5,143,560,145.5,560,148L560,300C560,302.5,562.5,305,565,305L610,305"/></g><path d="M510,143L560,143L560,305L610,305" class="djs-hit djs-hit-stroke" style="fill: none; stroke-opacity: 0; stroke: white; stroke-width: 15px;"/><rect x="505" y="138" rx="4" width="110" height="172" class="djs-outline" style="fill: none;"/></g></g><g class="djs-group"><g class="djs-element djs-connection" data-element-id="Flow_4" style="display: block;"><g class="djs-visual"><defs><marker id="marker-at0xm5ecoo5fwvej2myd2mfo0" viewBox="0 0 20 20" refX="11" refY="10" markerWidth="10" markerHeight="10" orient="auto"><path d="M 1 5 L 11 10 L 1 15 Z" style="stroke-linecap: round; stroke-linejoin: round; stroke: rgb(34, 36, 42); stroke-width: 1px; fill: rgb(34, 36, 42);"/></marker></defs><path data-corner-radius="5" style="fill: none; stroke-linecap: round; stroke-linejoin: round; stroke: rgb(34, 36, 42); stroke-width: 2px; marker-end: url('#marker-at0xm5ecoo5fwvej2myd2mfo0');" d="M720,305L800,305"/></g><path d="M720,305L800,305" class="djs-hit djs-hit-stroke" style="fill: none; stroke-opacity: 0; stroke: white; stroke-width: 15px;"/><rect x="715" y="300" rx="4" width="90" height="10" class="djs-outline" style="fill: none;"/></g></g><g class="djs-group"><g class="djs-element djs-connection" data-element-id="Assoc_Data_User" style="display: block;"><g class="djs-visual"><path data-corner-radius="5" style="fill: none; stroke-linecap: round; stroke-linejoin: round; stroke: rgb(34, 36, 42); stroke-width: 2px; stroke-dasharray: 0, 5;" d="M268,70L268,103"/></g><path d="M268,70L268,103" class="djs-hit djs-hit-stroke" style="fill: none; stroke-opacity: 0; stroke: white; stroke-width: 15px;"/><rect x="263" y="65" rx="4" width="10" height="43" class="djs-outline" style="fill: none;"/></g></g><g class="djs-group"><g class="djs-element djs-connection" data-element-id="Assoc_Note_Manual" style="display: block;"><g class="djs-visual"><path data-corner-radius="5" style="fill: none; stroke-linecap: round; stroke-linejoin: round; stroke: rgb(34, 36, 42); stroke-width: 2px; stroke-dasharray: 0, 5;" d="M460,60L455,103"/></g><path d="M460,60L455,103" class="djs-hit djs-hit-stroke" style="fill: none; stroke-opacity: 0; stroke: white; stroke-width: 15px;"/><rect x="450" y="55" rx="4" width="15" height="53" class="djs-outline" style="fill: none;"/></g></g><g class="djs-group"><g class="djs-element djs-connection" data-element-id="Assoc_Note_QHana" style="display: block;"><g class="djs-visual"><path data-corner-radius="5" style="fill: none; stroke-linecap: round; stroke-linejoin: round; stroke: rgb(34, 36, 42); stroke-width: 2px; stroke-dasharray: 0, 5;" d="M740,270L720,290"/></g><path d="M740,270L720,290" class="djs-hit djs-hit-stroke" style="fill: none; stroke-opacity: 0; stroke: white; stroke-width: 15px;"/><rect x="715" y="265" rx="4" width="30" height="30" class="djs-outline" style="fill: none;"/></g></g></g></g></svg>