<?xml version="1.0" encoding="utf-8"?>
<!-- created with bpmn-js / http://bpmn.io -->
<!DOCTYPE svg PUBLIC "-//W3C//DTD SVG 1.1//EN" "http://www.w3.org/Graphics/SVG/1.1/DTD/svg11.dtd">
<svg xmlns="http://www.w3.org/2000/svg" xmlns:xlink="http://www.w3.org/1999/xlink" width="888" height="92" viewBox="64 162 888 92" version="1.1"><defs><marker id="deployment-rel" viewBox="0 0 8 8" refX="8" refY="4" markerWidth="8" markerHeight="8" orient="auto"><path d="M 0 0 L 8 4 L 0 8" style="fill: none; stroke-linecap: round; stroke-linejoin: round; stroke: rgb(119, 119, 119); stroke-width: 1px; stroke-dasharray: 2;"/></marker><marker id="sequenceflow-end-white-hsl_225_10_15_-9u0lavliqalkdklb1zlclm4kv" viewBox="0 0 20 20" refX="11" refY="10" markerWidth="10" markerHeight="10" orient="auto"><path d="M 1 5 L 11 10 L 1 15 Z" style="stroke-linecap: round; stroke-linejoin: round; stroke: rgb(34, 36, 42); stroke-width: 1px; fill: rgb(34, 36, 42);"/></marker><marker id="conditional-default-flow-marker-white-hsl_225_10_15_-9u0lavliqalkdklb1zlclm4kv" viewBox="0 0 20 20" refX="0" refY="10" markerWidth="10" markerHeight="10" orient="auto"><path d="M 6 4 L 10 16" style="stroke-linecap: round; stroke-linejoin: round; stroke: rgb(34, 36, 42); stroke-width: 2px; fill: white;"/></marker><marker id="association-end-white-hsl_225_10_15_-9u0lavliqalkdklb1zlclm4kv" viewBox="0 0 20 20" refX="11" refY="10" markerWidth="10" markerHeight="10" orient="auto"><path d="M 1 5 L 11 10 L 1 15" style="fill: none; stroke-linecap: round; stroke-linejoin: round; stroke: rgb(34, 36, 42); stroke-width: 1.5px; stroke-dasharray: 10000, 1;"/></marker></defs><g class="djs-group"><g class="djs-element djs-shape" data-element-id="StartEvent_1" transform="matrix(1 0 0 1 70 190)" style="display: block;"><g class="djs-visual"><circle cx="18" cy="18" r="18" style="stroke-linecap: round; stroke-linejoin: round; stroke: rgb(34, 36, 42); stroke-width: 2px; fill: white; fill-opacity: 0.95;"/></g><rect class="djs-hit djs-hit-all" x="0" y="0" width="36" height="36" style="fill: none; stroke-opacity: 0; stroke: white; stroke-width: 15px;"/><rect x="-6" y="-6" rx="4" width="48" height="48" class="djs-outline" style="fill: none;"/></g></g><g class="djs-group"><g class="djs-element djs-shape" data-element-id="StartEvent_1_label" transform="matrix(1 0 0 1 76 226)" style="display: block;"><g class="djs-visual"><text lineHeight="1.2" class="djs-label" style="font-family: Arial, sans-serif; font-size: 11px; font-weight: normal; fill: rgb(34, 36, 42);"><tspan x="0" y="9.899999999999999">Start</tspan></text></g><rect class="djs-hit djs-hit-all" x="0" y="0" width="25" height="14" style="fill: none; stroke-opacity: 0; stroke: white; stroke-width: 15px;"/><rect x="-6" y="-6" rx="4" width="37" height="26" class="djs-outline" style="fill: none;"/></g></g><g class="djs-group"><g class="djs-element djs-shape" data-element-id="QHanaTask_Request" transform="matrix(1 0 0 1 150 168)" style="display: block;"><g class="djs-visual"><g transform="matrix(0.17, 0, 0, 0.17, 7, 7)"><title>diagnostic-analysis</title><path d="M17.67,53.08h8.22l6.82-13.82L45.14,57.17l12.7-24.75,13.26,26,4.54-4.16,3-1.18H89.56v.53a35.81,35.81,0,0,1-1,8.35H80.35L68.5,72.84l-10.7-21L46.28,74.33,34,56.65,31.39,62H18.63a36.35,36.35,0,0,1-1-8.35v-.53ZM53.61,0A53.63,53.63,0,0,1,98.49,83l23.21,25.29-16,14.63L83.31,98.26A53.62,53.62,0,1,1,53.61,0Zm29.6,24a41.81,41.81,0,1,0,12.28,29.6A41.77,41.77,0,0,0,83.21,24Z"/></g><rect x="0" y="0" width="180" height="80" rx="10" ry="10" style="stroke-linecap: round; stroke-linejoin: round; stroke: rgb(34, 36, 42); stroke-width: 2px; fill: white; fill-opacity: 0;"/><text lineHeight="1.2" class="djs-label" style="font-family: Arial, sans-serif; font-size: 12px; font-weight: normal; fill: rgb(34, 36, 42);"><tspan x="46.9755859375" y="43.599999999999994">prepare-request</tspan></text></g><rect class="djs-hit djs-hit-all" x="0" y="0" width="180" height="80" style="fill: none; stroke-opacity: 0; stroke: white; stroke-width: 15px;"/><rect x="-6" y="-6" rx="4" width="192" height="92" class="djs-outline" style="fill: none;"/></g></g><g class="djs-group"><g class="djs-element djs-shape" data-element-id="ReceiveTask_Wait" transform="matrix(1 0 0 1 400 168)" style="display: block;"><g class="djs-visual"><rect x="0" y="0" width="180" height="80" rx="10" ry="10" style="stroke-linecap: round; stroke-linejoin: round; stroke: rgb(34, 36, 42); stroke-width: 2px; fill: white; fill-opacity: 0.95;"/><text lineHeight="1.2" class="djs-label" style="font-family: Arial, sans-serif; font-size: 12px; font-weight: normal; fill: rgb(34, 36, 42);"><tspan x="41.00605469942093" y="43.599999999999994">Wait for Response</tspan></text><path d="m 6.3,5.6000000000000005 l 0,12.6 l 18.900000000000002,0 l 0,-12.6 z l 9.450000000000001,5.4 l 9.450000000000001,-5.4" style="fill: white; stroke-linecap: round; stroke-linejoin: round; stroke: rgb(34, 36, 42); stroke-width: 1px;"/></g><rect class="djs-hit djs-hit-all" x="0" y="0" width="180" height="80" style="fill: none; stroke-opacity: 0; stroke: white; stroke-width: 15px;"/><rect x="-6" y="-6" rx="4" width="192" height="92" class="djs-outline" style="fill: none;"/></g></g><g class="djs-group"><g class="djs-element djs-shape" data-element-id="QHanaTask_ProcessResponse" transform="matrix(1 0 0 1 650 168)" style="display: block;"><g class="djs-visual"><g transform="matrix(0.17, 0, 0, 0.17, 7, 7)"><title>diagnostic-analysis</title><path d="M17.67,53.08h8.22l6.82-13.82L45.14,57.17l12.7-24.75,13.26,26,4.54-4.16,3-1.18H89.56v.53a35.81,35.81,0,0,1-1,8.35H80.35L68.5,72.84l-10.7-21L46.28,74.33,34,56.65,31.39,62H18.63a36.35,36.35,0,0,1-1-8.35v-.53ZM53.61,0A53.63,53.63,0,0,1,98.49,83l23.21,25.29-16,14.63L83.31,98.26A53.62,53.62,0,1,1,53.61,0Zm29.6,24a41.81,41.81,0,1,0,12.28,29.6A41.77,41.77,0,0,0,83.21,24Z"/></g><rect x="0" y="0" width="190" height="80" rx="10" ry="10" style="stroke-linecap: round; stroke-linejoin: round; stroke: rgb(34, 36, 42); stroke-width: 2px; fill: white; fill-opacity: 0;"/><text lineHeight="1.2" class="djs-label" style="font-family: Arial, sans-serif; font-size: 12px; font-weight: normal; fill: rgb(34, 36, 42);"><tspan x="47.04745864868164" y="43.599999999999994">process-response</tspan></text></g><rect class="djs-hit djs-hit-all" x="0" y="0" width="190" height="80" style="fill: none; stroke-opacity: 0; stroke: white; stroke-width: 15px;"/><rect x="-6" y="-6" rx="4" width="202" height="92" class="djs-outline" style="fill: none;"/></g></g><g class="djs-group"><g class="djs-element djs-shape" data-element-id="EndEvent_1" transform="matrix(1 0 0 1 910 190)" style="display: block;"><g class="djs-visual"><circle cx="18" cy="18" r="18" style="stroke-linecap: round; stroke-linejoin: round; stroke: rgb(34, 36, 42); stroke-width: 4px; fill: white; fill-opacity: 0.95;"/></g><rect class="djs-hit djs-hit-all" x="0" y="0" width="36" height="36" style="fill: none; stroke-opacity: 0; stroke: white; stroke-width: 15px;"/><rect x="-6" y="-6" rx="4" width="48" height="48" class="djs-outline" style="fill: none;"/></g></g><g class="djs-group"><g class="djs-element djs-shape" data-element-id="EndEvent_1_label" transform="matrix(1 0 0 1 918 226)" style="display: block;"><g class="djs-visual"><text lineHeight="1.2" class="djs-label" style="font-family: Arial, sans-serif; font-size: 11px; font-weight: normal; fill: rgb(34, 36, 42);"><tspan x="0" y="9.899999999999999">End</tspan></text></g><rect class="djs-hit djs-hit-all" x="0" y="0" width="20" height="14" style="fill: none; stroke-opacity: 0; stroke: white; stroke-width: 15px;"/><rect x="-6" y="-6" rx="4" width="32" height="26" class="djs-outline" style="fill: none;"/></g></g><g class="djs-group"><g class="djs-element djs-connection" data-element-id="Flow_1" style="display: block;"><g class="djs-visual"><path data-corner-radius="5" style="fill: none; stroke-linecap: round; stroke-linejoin: round; stroke: rgb(34, 36, 42); stroke-width: 2px; marker-end: url('#sequenceflow-end-white-hsl_225_10_15_-9u0lavliqalkdklb1zlclm4kv');" d="M106,208L150,208"/></g><path d="M106,208L150,208" class="djs-hit djs-hit-stroke" style="fill: none; stroke-opacity: 0; stroke: white; stroke-width: 15px;"/><rect x="100" y="202" rx="4" width="56" height="12" class="djs-outline" style="fill: none;"/></g></g><g class="djs-group"><g class="djs-element djs-connection" data-element-id="Flow_2" style="display: block;"><g class="djs-visual"><path data-corner-radius="5" style="fill: none; stroke-linecap: round; stroke-linejoin: round; stroke: rgb(34, 36, 42); stroke-width: 2px; marker-end: url('#sequenceflow-end-white-hsl_225_10_15_-9u0lavliqalkdklb1zlclm4kv');" d="M330,208L400,208"/></g><path d="M330,208L400,208" class="djs-hit djs-hit-stroke" style="fill: none; stroke-opacity: 0; stroke: white; stroke-width: 15px;"/><rect x="324" y="202" rx="4" width="82" height="12" class="djs-outline" style="fill: none;"/></g></g><g class="djs-group"><g class="djs-element djs-connection" data-element-id="Flow_3" style="display: block;"><g class="djs-visual"><path data-corner-radius="5" style="fill: none; stroke-linecap: round; stroke-linejoin: round; stroke: rgb(34, 36, 42); stroke-width: 2px; marker-end: url('#sequenceflow-end-white-hsl_225_10_15_-9u0lavliqalkdklb1zlclm4kv');" d="M580,208L650,208"/></g><path d="M580,208L650,208" class="djs-hit djs-hit-stroke" style="fill: none; stroke-opacity: 0; stroke: white; stroke-width: 15px;"/><rect x="574" y="202" rx="4" width="82" height="12" class="djs-outline" style="fill: none;"/></g></g><g class="djs-group"><g class="djs-element djs-connection" data-element-id="Flow_4" style="display: block;"><g class="djs-visual"><path data-corner-radius="5" style="fill: none; stroke-linecap: round; stroke-linejoin: round; stroke: rgb(34, 36, 42); stroke-width: 2px; marker-end: url('#sequenceflow-end-white-hsl_225_10_15_-9u0lavliqalkdklb1zlclm4kv');" d="M840,208L910,208"/></g><path d="M840,208L910,208" class="djs-hit djs-hit-stroke" style="fill: none; stroke-opacity: 0; stroke: white; stroke-width: 15px;"/><rect x="834" y="202" rx="4" width="82" height="12" class="djs-outline" style="fill: none;"/></g></g></svg>