<svg xmlns="http://www.w3.org/2000/svg" width="120" height="120" viewBox="0 0 120 120">
  <rect x="4" y="4" width="112" height="112" rx="18" ry="18" fill="#f3f4f6" stroke="#9ca3af" stroke-width="2"/>
  <g transform="translate(12,12) scale(4)" fill="none" stroke="#374151" stroke-width="0.85" stroke-linecap="round" stroke-linejoin="round">
    <circle cx="12" cy="12" r="1.5" fill="#374151"/>
    <path d="M20.2 20.2c2.04-2.03.02-7.36-4.5-11.9-4.54-4.52-9.87-6.54-11.9-4.5-2.04 2.03-.02 7.36 4.5 11.9 4.54 4.52 9.87 6.54 11.9 4.5Z"/>
    <path d="M15.7 15.7c4.52-4.54 6.54-9.87 4.5-11.9-2.03-2.04-7.36-.02-11.9 4.5-4.52 4.54-6.54 9.87-4.5 11.9 2.03 2.04 7.36.02 11.9-4.5Z"/>
  </g>
</svg>
