<?xml version="1.0" encoding="UTF-8" standalone="no"?>
<!-- Created with Inkscape (http://www.inkscape.org/) -->

<svg
   version="1.1"
   id="svg1"
   width="223.03999"
   height="210.32639"
   viewBox="0 0 223.03999 210.32638"
   xmlns="http://www.w3.org/2000/svg"
   xmlns:svg="http://www.w3.org/2000/svg">
  <defs
     id="defs1">
    <clipPath
       clipPathUnits="userSpaceOnUse"
       id="clipPath3">
      <path
         d="M 0,4.5776e-5 H 167.28 V 167.28005 H 0 Z"
         clip-rule="evenodd"
         id="path3" />
    </clipPath>
    <clipPath
       clipPathUnits="userSpaceOnUse"
       id="clipPath6">
      <path
         d="M 0,167.28 H 167.28 V 0 L 0,3.0518e-5"
         clip-rule="evenodd"
         id="path6" />
    </clipPath>
    <linearGradient
       x1="125.88"
       y1="179.75999"
       x2="125.88"
       y2="45.360001"
       gradientUnits="userSpaceOnUse"
       spreadMethod="pad"
       id="linearGradient11">
      <stop
         style="stop-opacity:1;stop-color:#e5e5e5"
         offset="0"
         id="stop10" />
      <stop
         style="stop-opacity:1;stop-color:#e5e5e5"
         offset="1"
         id="stop11" />
    </linearGradient>
    <clipPath
       clipPathUnits="userSpaceOnUse"
       id="clipPath12">
      <path
         d="M 2.493e-6,0 H 167.28 V 167.28 H 2.493e-6 Z"
         transform="matrix(1,0,0,-1,-121.3,72.216002)"
         clip-rule="evenodd"
         id="path12" />
    </clipPath>
    <linearGradient
       x1="40.919998"
       y1="179.75999"
       x2="40.919998"
       y2="45.360001"
       gradientUnits="userSpaceOnUse"
       spreadMethod="pad"
       id="linearGradient14">
      <stop
         style="stop-opacity:1;stop-color:#e5e5e5"
         offset="0"
         id="stop13" />
      <stop
         style="stop-opacity:1;stop-color:#e5e5e5"
         offset="1"
         id="stop14" />
    </linearGradient>
    <clipPath
       clipPathUnits="userSpaceOnUse"
       id="clipPath16">
      <path
         d="M -1.5259e-5,167.28 H 167.28 V 6.1035e-5 L -1.5259e-5,4.5776e-5"
         clip-rule="evenodd"
         id="path16" />
    </clipPath>
    <clipPath
       clipPathUnits="userSpaceOnUse"
       id="clipPath20">
      <path
         d="M -7.629e-6,167.28 H 167.28 V -1.5259e-5 H -2.2888e-5"
         clip-rule="evenodd"
         id="path20" />
    </clipPath>
  </defs>
  <g
     id="g1"
     transform="translate(0,-12.713535)">
    <g
       id="g2"
       transform="matrix(1,0,0,0.94299875,0,12.713555)"
       style="fill:none">
      <path
         id="path2"
         d="M 0,1.5259e-5 H 167.28 V 167.28002 H 0 Z"
         style="fill:none;fill-opacity:1;fill-rule:evenodd;stroke:none"
         transform="matrix(1.3333333,0,0,-1.3333333,0,223.04)"
         clip-path="url(#clipPath3)" />
    </g>
    <g
       id="g3"
       style="stroke-width:0.623622;stroke-dasharray:none">
      <path
         id="path4"
         d="m 7.32,129.92 c 0,14.07 11.408,25.48 25.48,25.48 h 101.92 c 14.07,0 25.48,-11.41 25.48,-25.48 V 27.76 C 160.2,13.688 148.79,2.28 134.72,2.28 H 32.8 C 18.728,2.28 7.32,13.688 7.32,27.76 Z"
         style="fill:#f2f2f2;fill-opacity:1;fill-rule:evenodd;stroke:#000000;stroke-width:0.467717;stroke-linecap:butt;stroke-linejoin:miter;stroke-miterlimit:10;stroke-dasharray:none;stroke-opacity:1"
         transform="matrix(1.3333333,0,0,-1.3333333,0,223.04)" />
    </g>
    <g
       id="g4">
      <path
         id="path5"
         d="m 123.83,117.27 -1.47,1.88 -1.75,1.73 -1.87,1.56 -1.98,1.38 -1.03,0.62 -1.05,0.58 -1.06,0.54 -1.08,0.49 -1.09,0.43 -1.11,0.4 -1.13,0.34 -1.12,0.29 -1.14,0.23 -1.14,0.2 -1.14,0.13 -1.15,0.07 -1.14,0.03 -1.13,-0.04 -1.14,-0.08 -1.128,-0.15 -1.122,-0.2 -1.105,-0.27 -1.099,-0.32 -1.077,-0.4 -1.106,-0.47 -1.064,-0.53 -1.016,-0.59 -0.977,-0.65 -0.925,-0.7 -0.872,-0.75 -0.823,-0.8 -0.779,-0.85 -0.717,-0.91 -0.664,-0.94 -0.601,-0.99 -0.547,-1.03 -0.477,-1.07 -0.424,-1.1 -0.354,-1.14 -0.288,-1.15 0.97,-0.24 0.285,1.14 -0.008,-0.03 0.345,1.11 -0.01,-0.03 0.412,1.07 -0.01,-0.02 0.465,1.04 -0.015,-0.03 0.532,1 -0.013,-0.03 0.585,0.97 -0.019,-0.03 0.645,0.92 -0.018,-0.03 0.698,0.88 -0.023,-0.03 0.757,0.83 -0.018,-0.02 0.803,0.79 -0.025,-0.02 0.848,0.72 -0.024,-0.02 0.9,0.69 -0.026,-0.02 0.952,0.63 -0.024,-0.02 0.99,0.58 -0.028,-0.01 1.035,0.51 -0.028,-0.01 1.08,0.46 -0.024,-0.01 1.05,0.38 -0.031,-0.01 1.073,0.32 -0.023,-0.01 1.08,0.26 h -0.027 l 1.095,0.2 -0.027,-0.01 1.106,0.15 -0.03,-0.01 1.11,0.09 h -0.02 l 1.11,0.03 h -0.03 l 1.12,-0.03 h -0.02 l 1.12,-0.07 h -0.02 l 1.12,-0.13 -0.03,0.01 1.12,-0.19 h -0.02 l 1.12,-0.23 -0.03,0.01 1.1,-0.29 -0.01,0.01 1.1,-0.33 h -0.03 l 1.09,-0.39 -0.02,0.01 1.08,-0.43 -0.02,0.01 1.06,-0.48 -0.02,0.01 1.05,-0.52 -0.02,0.01 1.02,-0.57 -0.01,0.01 1,-0.62 -0.02,0.02 1.95,-1.36 -0.04,0.03 1.84,-1.53 -0.03,0.02 1.72,-1.69 -0.05,0.05 1.46,-1.86 z m -3.43,-1.18 5.87,-3.25 -0.92,6.64 z"
         style="fill:#404040;fill-opacity:1;fill-rule:nonzero;stroke:none"
         transform="matrix(1.3333333,0,0,-1.3333333,0,223.04)"
         clip-path="url(#clipPath6)" />
    </g>
    <g
       id="g6">
      <path
         id="path7"
         d="M 12.48,101.52 H 154.21"
         style="fill:none;stroke:#000000;stroke-width:0.96;stroke-linecap:butt;stroke-linejoin:miter;stroke-miterlimit:10;stroke-dasharray:none;stroke-opacity:1"
         transform="matrix(1.3333333,0,0,-1.3333333,0,223.04)" />
    </g>
    <g
       id="g7">
      <path
         id="path8"
         d="M 12.48,78.96 H 154.21"
         style="fill:none;stroke:#000000;stroke-width:0.96;stroke-linecap:butt;stroke-linejoin:miter;stroke-miterlimit:10;stroke-dasharray:none;stroke-opacity:1"
         transform="matrix(1.3333333,0,0,-1.3333333,0,223.04)" />
    </g>
    <g
       id="g8">
      <path
         id="path9"
         d="M 12.48,56.4 H 154.21"
         style="fill:none;stroke:#000000;stroke-width:0.96;stroke-linecap:butt;stroke-linejoin:miter;stroke-miterlimit:10;stroke-dasharray:none;stroke-opacity:1"
         transform="matrix(1.3333333,0,0,-1.3333333,0,223.04)" />
    </g>
    <g
       id="g9">
      <path
         id="path10"
         d="m 112.08,108.96 c 0,1.99 1.61,3.6 3.6,3.6 h 20.4 c 1.99,0 3.6,-1.61 3.6,-3.6 V 48.962 c 0,-1.989 -1.61,-3.602 -3.6,-3.602 h -20.4 c -1.99,0 -3.6,1.613 -3.6,3.602 z"
         style="fill:url(#linearGradient11);fill-opacity:1;fill-rule:evenodd;stroke:#404040;stroke-width:0.96;stroke-linecap:butt;stroke-linejoin:miter;stroke-miterlimit:10;stroke-dasharray:none;stroke-opacity:1"
         transform="matrix(1.3333333,0,0,-1.3333333,0,223.04)" />
    </g>
    <g
       id="g11">
      <path
         id="path11"
         d="m 8.3328125,-9.6548203 c 0,0.5800781 -0.082031,1.0898437 -0.2460937,1.5351562 -0.1640625,0.4394532 -0.3955079,0.8144532 -0.6914063,1.125 C 7.1052734,-6.6899766 6.7537109,-6.4468125 6.340625,-6.2681016 5.9333984,-6.09525 5.4851563,-5.9927109 4.9929688,-5.9634141 l -0.070312,2.3554688 c 0,0.09375 -0.058594,0.1699219 -0.1757813,0.2226562 -0.1113281,0.046875 -0.2929687,0.070312 -0.5507812,0.070312 -0.1347657,0 -0.2519532,-0.00293 -0.3515625,-0.011719 -0.09375,-0.014648 -0.1728516,-0.035156 -0.234375,-0.058594 -0.055664,-0.023437 -0.099609,-0.052734 -0.1289063,-0.09375 -0.023437,-0.038086 -0.035156,-0.082031 -0.035156,-0.1289062 L 3.3875,-6.3149766 c -0.00879,-0.1464843 0.00293,-0.2695312 0.035156,-0.3632812 0.029297,-0.09375 0.073242,-0.1699219 0.1289062,-0.234375 0.061523,-0.061523 0.1347656,-0.099609 0.2226563,-0.1171875 0.09375,-0.023437 0.1992187,-0.035156 0.3164062,-0.035156 h 0.2109375 c 0.421875,0 0.7792969,-0.064453 1.078125,-0.1992187 0.3046875,-0.1318359 0.5449219,-0.3076172 0.7265625,-0.5273438 0.1875,-0.2255859 0.3222656,-0.4863281 0.4101563,-0.7851562 0.084961,-0.2958984 0.1289062,-0.609375 0.1289062,-0.9375 0,-0.3662109 -0.055664,-0.703125 -0.1640625,-1.007813 -0.1025391,-0.310547 -0.2578125,-0.580078 -0.46875,-0.808594 -0.2050781,-0.225585 -0.4658203,-0.398437 -0.7851562,-0.515625 -0.3134766,-0.123046 -0.6796875,-0.1875 -1.1015625,-0.1875 -0.3837891,0 -0.7148438,0.04395 -0.9960938,0.128907 -0.28125,0.0791 -0.5273437,0.169922 -0.7382812,0.269531 -0.2050782,0.09375 -0.3720704,0.181641 -0.5039063,0.257812 -0.1347656,0.07031 -0.234375,0.105469 -0.3046875,0.105469 -0.041016,0 -0.079102,-0.0059 -0.1171875,-0.02344 -0.032227,-0.02344 -0.064453,-0.06152 -0.09375,-0.117188 -0.023437,-0.05273 -0.043945,-0.128906 -0.058594,-0.222656 -0.00879,-0.09375 -0.011719,-0.210938 -0.011719,-0.351563 0,-0.155273 0.00586,-0.27246 0.023437,-0.351562 0.023437,-0.08496 0.064453,-0.158203 0.1289063,-0.222656 0.061523,-0.06152 0.1875,-0.140625 0.375,-0.234375 0.1875,-0.09961 0.4101562,-0.19336 0.6679687,-0.28125 0.2636719,-0.08496 0.5537109,-0.155274 0.8671875,-0.210938 0.3105469,-0.06152 0.6386719,-0.09375 0.984375,-0.09375 0.6943359,0 1.2919922,0.102539 1.7929688,0.304688 0.4980468,0.196289 0.9082031,0.46289 1.2304687,0.796875 0.328125,0.336914 0.5683594,0.735351 0.7265625,1.195312 0.1552734,0.454102 0.234375,0.931641 0.234375,1.429688 z m -3.0820312,8.6484375 c 0,0.21093749 -0.017578,0.38671874 -0.046875,0.52734374 -0.032227,0.140625 -0.087891,0.25488281 -0.1640625,0.33984375 -0.070312,0.08789062 -0.1757813,0.14355469 -0.3164063,0.17578125 -0.1347656,0.03808594 -0.2929687,0.05859375 -0.4804687,0.05859375 -0.2109375,0 -0.3837891,-0.02050781 -0.515625,-0.05859375 C 3.6013672,0.00435938 3.4958984,-0.05130469 3.4109375,-0.13919531 3.3318359,-0.22415625 3.2761719,-0.33841406 3.246875,-0.47903906 3.2146484,-0.61966406 3.2,-0.79544531 3.2,-1.0063828 c 0,-0.2167969 0.014648,-0.3984375 0.046875,-0.5390625 0.029297,-0.1464844 0.084961,-0.2607422 0.1640625,-0.3398438 0.084961,-0.084961 0.1904297,-0.1435546 0.3164063,-0.1757812 0.1318359,-0.038086 0.3046875,-0.058594 0.515625,-0.058594 0.1875,0 0.3457031,0.020508 0.4804687,0.058594 0.140625,0.032227 0.2460938,0.09082 0.3164063,0.1757812 0.076172,0.079102 0.1318359,0.1933594 0.1640625,0.3398438 0.029297,0.140625 0.046875,0.3222656 0.046875,0.5390625 z m 0,0"
         style="fill:#404040;fill-opacity:1;fill-rule:nonzero;stroke:none"
         aria-label="?"
         transform="matrix(1.3333333,0,0,1.3333333,161.73333,126.752)"
         clip-path="url(#clipPath12)" />
    </g>
    <g
       id="g12">
      <path
         id="path13"
         d="m 27.12,108.96 c 0,1.99 1.613,3.6 3.602,3.6 h 20.396 c 1.989,0 3.602,-1.61 3.602,-3.6 V 48.962 c 0,-1.989 -1.613,-3.602 -3.602,-3.602 H 30.722 c -1.989,0 -3.602,1.613 -3.602,3.602 z"
         style="fill:url(#linearGradient14);fill-opacity:1;fill-rule:evenodd;stroke:#404040;stroke-width:0.96;stroke-linecap:butt;stroke-linejoin:miter;stroke-miterlimit:10;stroke-dasharray:none;stroke-opacity:1"
         transform="matrix(1.3333333,0,0,-1.3333333,0,223.04)" />
    </g>
    <g
       id="g14">
      <path
         id="path14"
         d="m 64.8,89.76 h 36.96 v 22.8 H 64.8 Z"
         style="fill:#ffffff;fill-opacity:1;fill-rule:evenodd;stroke:#404040;stroke-width:0.96;stroke-linecap:butt;stroke-linejoin:miter;stroke-miterlimit:10;stroke-dasharray:none;stroke-opacity:1"
         transform="matrix(1.3333333,0,0,-1.3333333,0,223.04)" />
    </g>
    <g
       id="g15">
      <path
         id="path15"
         d="m 88.841,106.63 4.397,1.25 -0.62,-4.53 z"
         style="fill:#404040;fill-opacity:1;fill-rule:evenodd;stroke:#404040;stroke-width:1;stroke-linecap:butt;stroke-linejoin:miter;stroke-miterlimit:10;stroke-dasharray:none;stroke-opacity:1"
         transform="matrix(1.3333333,0,0,-1.3333333,0,223.04)"
         clip-path="url(#clipPath16)" />
    </g>
    <g
       id="g16">
      <path
         id="path17"
         d="m 82.68,102.72 c 6.694,0 12.12,-3.944 12.12,-8.81 L 94.714,93.6 H 70.646 l -0.086,0.31 c 0,4.866 5.426,8.81 12.12,8.81 z"
         style="fill:none;stroke:#404040;stroke-width:0.96;stroke-linecap:butt;stroke-linejoin:miter;stroke-miterlimit:10;stroke-dasharray:none;stroke-opacity:1"
         transform="matrix(1.3333333,0,0,-1.3333333,0,223.04)" />
    </g>
    <g
       id="g17">
      <path
         id="path18"
         d="m 67.68,92.4 h 31.2 v 2.88 h -31.2 z"
         style="fill:#ffffff;fill-opacity:1;fill-rule:evenodd;stroke:none"
         transform="matrix(1.3333333,0,0,-1.3333333,0,223.04)" />
    </g>
    <g
       id="g18">
      <path
         id="path19"
         d="M 78.33,94.232 93.292,107.54"
         style="fill:none;stroke:#404040;stroke-width:1;stroke-linecap:butt;stroke-linejoin:miter;stroke-miterlimit:10;stroke-dasharray:none;stroke-opacity:1"
         transform="matrix(1.3333333,0,0,-1.3333333,0,223.04)"
         clip-path="url(#clipPath20)" />
    </g>
  </g>
</svg>
