<?xml version="1.0" encoding="UTF-8" standalone="no"?>
<!-- Created with Inkscape (http://www.inkscape.org/) -->

<svg
   version="1.1"
   id="svg1"
   width="217.19598"
   height="213.87944"
   viewBox="0 0 217.19598 213.87944"
   xmlns="http://www.w3.org/2000/svg"
   xmlns:svg="http://www.w3.org/2000/svg">
  <defs
     id="defs1">
    <linearGradient
       x1="131.46001"
       y1="126.98"
       x2="131.46001"
       y2="23.914"
       gradientUnits="userSpaceOnUse"
       spreadMethod="pad"
       id="linearGradient8">
      <stop
         style="stop-opacity:1;stop-color:#e5e5e5"
         offset="0"
         id="stop7" />
      <stop
         style="stop-opacity:1;stop-color:#e5e5e5"
         offset="1"
         id="stop8" />
    </linearGradient>
    <linearGradient
       x1="36.255001"
       y1="126.98"
       x2="36.255001"
       y2="23.914"
       gradientUnits="userSpaceOnUse"
       spreadMethod="pad"
       id="linearGradient10">
      <stop
         style="stop-opacity:1;stop-color:#e5e5e5"
         offset="0"
         id="stop9" />
      <stop
         style="stop-opacity:1;stop-color:#e5e5e5"
         offset="1"
         id="stop10" />
    </linearGradient>
    <clipPath
       clipPathUnits="userSpaceOnUse"
       id="clipPath14">
      <path
         d="M 0,4.5776e-5 H 167.28 V 167.28005 H 0 Z"
         clip-rule="evenodd"
         id="path14" />
    </clipPath>
    <clipPath
       clipPathUnits="userSpaceOnUse"
       id="clipPath16">
      <path
         d="M 2.493e-6,0 H 167.28 V 167.28 H 2.493e-6 Z"
         transform="matrix(1,0,0,-1,-43.584001,132.55)"
         clip-rule="evenodd"
         id="path16" />
    </clipPath>
    <clipPath
       clipPathUnits="userSpaceOnUse"
       id="clipPath18">
      <path
         d="M 2.493e-6,0 H 167.28 V 167.28 H 2.493e-6 Z"
         transform="matrix(1,0,0,-1,-73.128002,132.55)"
         clip-rule="evenodd"
         id="path18" />
    </clipPath>
    <clipPath
       clipPathUnits="userSpaceOnUse"
       id="clipPath20">
      <path
         d="M 2.493e-6,0 H 167.28 V 167.28 H 2.493e-6 Z"
         transform="matrix(1,0,0,-1,-52.104001,131.47)"
         clip-rule="evenodd"
         id="path20" />
    </clipPath>
    <clipPath
       clipPathUnits="userSpaceOnUse"
       id="clipPath26">
      <path
         d="M -1.5259e-5,167.28 H 167.28 V 7.6294e-5 L -2.2888e-5,6.1035e-5"
         clip-rule="evenodd"
         id="path26" />
    </clipPath>
    <clipPath
       clipPathUnits="userSpaceOnUse"
       id="clipPath29">
      <path
         d="M -3.815e-6,167.28 H 167.28 V 6.1035e-5 H 3.815e-6"
         clip-rule="evenodd"
         id="path29" />
    </clipPath>
  </defs>
  <g
     id="g1"
     transform="translate(0,6.1090664e-5)">
    <g
       id="g2"
       style="fill:none"
       transform="matrix(0.94422792,0,0,0.94298853,6.6331597,3.5929611)">
      <path
         id="path2"
         d="M 0,0.030014 H 167.25 V 167.28001 H 0 Z"
         style="fill:none;fill-opacity:1;fill-rule:evenodd;stroke:none"
         transform="matrix(1.3333333,0,0,-1.3333333,0,223.04)" />
    </g>
    <g
       id="g3"
       style="stroke-width:0.9;stroke-dasharray:none">
      <path
         id="path3"
         d="m 7.3231,136.74 c 0,14.09 11.4219,25.51 25.5119,25.51 H 134.88 c 14.09,0 25.51,-11.42 25.51,-25.51 V 34.694 c 0,-14.09 -11.42,-25.5119 -25.51,-25.5119 H 32.835 C 18.745,9.1821 7.3231,20.604 7.3231,34.694 Z"
         style="fill:#f2f2f2;fill-opacity:1;fill-rule:evenodd;stroke:#000000;stroke-width:0.675;stroke-linecap:butt;stroke-linejoin:miter;stroke-miterlimit:10;stroke-dasharray:none;stroke-opacity:1"
         transform="matrix(1.3333333,0,0,-1.3333333,0,223.04)" />
    </g>
    <g
       id="g4">
      <path
         id="path4"
         d="m 14.41,49.682 h 138.9"
         style="fill:none;stroke:#404040;stroke-width:1;stroke-linecap:butt;stroke-linejoin:miter;stroke-miterlimit:10;stroke-dasharray:none;stroke-opacity:1"
         transform="matrix(1.3333333,0,0,-1.3333333,0,223.04)" />
    </g>
    <g
       id="g5">
      <path
         id="path5"
         d="m 14.41,65.541 h 138.9"
         style="fill:none;stroke:#404040;stroke-width:1;stroke-linecap:butt;stroke-linejoin:miter;stroke-miterlimit:10;stroke-dasharray:none;stroke-opacity:1"
         transform="matrix(1.3333333,0,0,-1.3333333,0,223.04)" />
    </g>
    <g
       id="g6">
      <path
         id="path6"
         d="m 14.41,33.822 h 138.9"
         style="fill:none;stroke:#404040;stroke-width:1;stroke-linecap:butt;stroke-linejoin:miter;stroke-miterlimit:10;stroke-dasharray:none;stroke-opacity:1"
         transform="matrix(1.3333333,0,0,-1.3333333,0,223.04)" />
    </g>
    <g
       id="g7">
      <path
         id="path7"
         d="m 117.83,71.891 c 0,1.965 1.59,3.558 3.56,3.558 h 20.15 c 1.96,0 3.55,-1.593 3.55,-3.558 V 27.473 c 0,-1.966 -1.59,-3.559 -3.55,-3.559 h -20.15 c -1.97,0 -3.56,1.593 -3.56,3.559 z"
         style="fill:url(#linearGradient8);fill-opacity:1;fill-rule:evenodd;stroke:#404040;stroke-width:1;stroke-linecap:butt;stroke-linejoin:miter;stroke-miterlimit:10;stroke-dasharray:none;stroke-opacity:1"
         transform="matrix(1.3333333,0,0,-1.3333333,0,223.04)" />
    </g>
    <g
       id="g8">
      <path
         id="path8"
         d="m 22.622,71.891 c 0,1.965 1.594,3.558 3.559,3.558 h 20.148 c 1.965,0 3.558,-1.593 3.558,-3.558 V 27.473 c 0,-1.966 -1.593,-3.559 -3.558,-3.559 H 26.181 c -1.965,0 -3.559,1.593 -3.559,3.559 z"
         style="fill:url(#linearGradient10);fill-opacity:1;fill-rule:evenodd;stroke:#404040;stroke-width:1;stroke-linecap:butt;stroke-linejoin:miter;stroke-miterlimit:10;stroke-dasharray:none;stroke-opacity:1"
         transform="matrix(1.3333333,0,0,-1.3333333,0,223.04)" />
    </g>
    <g
       id="g10">
      <path
         id="path10"
         d="m 93.748,65.526 c 0,4.371 3.544,7.915 7.912,7.915 4.37,0 7.92,-3.544 7.92,-7.915 0,-4.371 -3.55,-7.915 -7.92,-7.915 -4.368,0 -7.912,3.544 -7.912,7.915 z"
         style="fill:#404040;fill-opacity:1;fill-rule:evenodd;stroke:none"
         transform="matrix(1.3333333,0,0,-1.3333333,0,223.04)" />
    </g>
    <g
       id="g11">
      <path
         id="path11"
         d="m 98.497,65.526 c 0,1.749 1.418,3.166 3.163,3.166 1.75,0 3.17,-1.417 3.17,-3.166 0,-1.748 -1.42,-3.166 -3.17,-3.166 -1.745,0 -3.163,1.418 -3.163,3.166 z"
         style="fill:#404040;fill-opacity:1;fill-rule:evenodd;stroke:#ffffff;stroke-width:2.25;stroke-linecap:butt;stroke-linejoin:miter;stroke-miterlimit:10;stroke-dasharray:none;stroke-opacity:1"
         transform="matrix(1.3333333,0,0,-1.3333333,0,223.04)" />
    </g>
    <g
       id="g12">
      <path
         id="path12"
         d="m 106.35,69.252 c 2.27,1.536 4.4,2.548 5.45,4.817 1.04,2.268 2.19,6.806 0.83,8.795 -1.36,1.99 -5.34,3.979 -9,3.141 C 99.963,85.168 94.623,80.142 90.644,77.838 86.665,75.535 83.07,73.58 79.755,72.184 76.439,70.788 73.158,69.461 70.75,69.461 c -2.408,0 -4.154,0.943 -5.445,2.723 -1.291,1.78 -2.129,4.747 -2.304,7.958 -0.174,3.211 -0.071,2.862 0.435,6.387"
         style="fill:none;stroke:#404040;stroke-width:3;stroke-linecap:butt;stroke-linejoin:miter;stroke-miterlimit:10;stroke-dasharray:none;stroke-opacity:1"
         transform="matrix(1.3333333,0,0,-1.3333333,0,223.04)" />
    </g>
    <g
       id="g13">
      <path
         id="path13"
         d="M -5.52,41.16 H 148.44 V 212.64 H -5.52 Z"
         style="fill:none;stroke:#000000;stroke-width:0.14;stroke-linecap:butt;stroke-linejoin:miter;stroke-miterlimit:10;stroke-dasharray:none;stroke-opacity:0"
         transform="matrix(1.3333333,0,0,-1.3333333,0,223.04)"
         clip-path="url(#clipPath14)" />
    </g>
    <g
       id="g14">
      <path
         id="path15"
         d="M 5.2861172,5.6733203 H 3.2587734 V -18.865742 h 2.0273438 z m 0,0"
         style="fill:#404040;fill-opacity:1;fill-rule:nonzero;stroke:none"
         aria-label="È"
         transform="matrix(1.3333333,0,0,1.3333333,58.112,46.306667)"
         clip-path="url(#clipPath16)" />
      <path
         id="path17"
         d="m 2.8124297,-18.936055 5.2617187,11.8476566 v 0.9726562 L 2.8124297,5.7319141 1.3944609,5.2397266 5.6249297,-6.6079297 1.3944609,-18.455586 Z m 0,0"
         style="fill:#404040;fill-opacity:1;fill-rule:nonzero;stroke:none"
         aria-label="Û§"
         transform="matrix(1.3333333,0,0,1.3333333,97.504,46.306667)"
         clip-path="url(#clipPath18)" />
      <path
         id="path19"
         d="m 15.094242,-18.621523 -3.84375,17.4257808 c 1.03125,-0.2021484 1.927735,-0.6240234 2.695313,-1.265625 0.773437,-0.6474609 1.365234,-1.4794922 1.78125,-2.4960937 0.413086,-1.022461 0.621093,-2.1386719 0.621093,-3.3515625 0,-0.7265625 -0.05273,-1.4296875 -0.152343,-2.1093746 -0.102539,-0.685547 -0.243164,-1.283204 -0.421875,-1.792969 l 0.152343,-0.867188 h 3.5625 c 0.164063,0.735352 0.246094,1.546875 0.246094,2.4375 0,1.9541019 -0.357422,3.7470706 -1.066406,5.3789066 -0.703125,1.6347656 -1.699219,2.9296875 -2.988281,3.890625 -1.289063,0.95507809 -2.859375,1.4677734 -4.710938,1.54687496 L 9.7622109,5.6948828 H 6.5512734 L 7.7817422,0.12847656 C 6.0063516,-0.01214844 4.6528359,-0.44867188 3.7153359,-1.1840234 2.7836953,-1.9164453 2.3208047,-2.8891016 2.3208047,-4.1019922 c 0,-0.2724609 0.023437,-0.6005859 0.070312,-0.984375 0.046875,-0.3896484 0.1113281,-0.7529297 0.1992187,-1.0898437 l 0.6796875,-2.8476563 c 0.061524,-0.2402344 0.1083985,-0.4951172 0.140625,-0.7617187 0.038086,-0.2724611 0.058594,-0.4980471 0.058594,-0.6796871 0,-0.304688 -0.052734,-0.530274 -0.1523438,-0.679688 -0.09375,-0.155273 -0.2548828,-0.234375 -0.4804687,-0.234375 -0.2285156,0 -0.4628906,0.07617 -0.703125,0.222656 -0.234375,0.149414 -0.5244141,0.404297 -0.8671875,0.761719 l -0.94921876,-0.925781 c 0.55371094,-0.521485 1.05761716,-0.925781 1.51171876,-1.207031 0.4511719,-0.28711 0.8789062,-0.486329 1.2773437,-0.597657 0.4042969,-0.108398 0.8701172,-0.164062 1.3945313,-0.164062 0.8583984,0 1.5117187,0.216797 1.9570312,0.644531 0.4453125,0.430664 0.6679688,1.063477 0.6679688,1.898438 0,0.65039 -0.099609,1.3593746 -0.2929688,2.1328121 l -0.6796875,2.671875 c -0.1816406,0.7265625 -0.2695312,1.4414062 -0.2695312,2.1445312 0,0.7207031 0.1816406,1.2861328 0.5507812,1.6992188 0.366211,0.4160156 0.9257813,0.6884765 1.6757813,0.8203125 L 11.906742,-18.621523 Z m 0,0"
         style="fill:#404040;fill-opacity:1;fill-rule:nonzero;stroke:none"
         aria-label="ð"
         transform="matrix(1.3333333,0,0,1.3333333,69.472,47.746667)"
         clip-path="url(#clipPath20)" />
    </g>
    <g
       id="g20">
      <path
         id="path21"
         d="m 63.454,85.598 7.828,12.308"
         style="fill:none;stroke:#404040;stroke-width:3;stroke-linecap:butt;stroke-linejoin:miter;stroke-miterlimit:10;stroke-dasharray:none;stroke-opacity:1"
         transform="matrix(1.3333333,0,0,-1.3333333,0,223.04)" />
    </g>
    <g
       id="g21">
      <path
         id="path22"
         d="M 63.095,85.598 55.267,97.906"
         style="fill:none;stroke:#404040;stroke-width:3;stroke-linecap:butt;stroke-linejoin:miter;stroke-miterlimit:10;stroke-dasharray:none;stroke-opacity:1"
         transform="matrix(1.3333333,0,0,-1.3333333,0,223.04)" />
    </g>
    <g
       id="g22">
      <path
         id="path23"
         d="m 52.418,102.51 c 0,4.73 4.86,8.57 10.856,8.57 5.996,0 10.857,-3.84 10.857,-8.57 0,-4.742 -4.861,-8.582 -10.857,-8.582 -5.996,0 -10.856,3.84 -10.856,8.582 z"
         style="fill:#f2f2f2;fill-opacity:1;fill-rule:evenodd;stroke:#404040;stroke-width:3;stroke-linecap:butt;stroke-linejoin:miter;stroke-miterlimit:10;stroke-dasharray:none;stroke-opacity:1"
         transform="matrix(1.3333333,0,0,-1.3333333,0,223.04)" />
    </g>
    <g
       id="g23">
      <path
         id="path24"
         d="m 45.166,99.486 h 37.055 v 18.712 H 45.166 Z"
         style="fill:#f2f2f2;fill-opacity:1;fill-rule:evenodd;stroke:none"
         transform="matrix(1.3333333,0,0,-1.3333333,0,223.04)" />
    </g>
    <g
       id="g24">
      <path
         id="path25"
         d="m 72.225,97.731 c 1.212,1.502 3.321,4.189 4.533,5.689 1.393,1.74 3.048,3.56 4.721,5.93 1.673,2.36 3.696,5.71 5.318,8.26 1.623,2.55 3.308,4.79 4.418,7.04 1.111,2.25 2.118,4.52 2.246,6.46 0.127,1.94 -0.631,3.99 -1.48,5.18 -0.849,1.19 -2.268,1.6 -3.614,1.95 -1.346,0.35 -2.905,0.26 -4.464,0.16"
         style="fill:none;stroke:#404040;stroke-width:3;stroke-linecap:butt;stroke-linejoin:miter;stroke-miterlimit:10;stroke-dasharray:none;stroke-opacity:1"
         transform="matrix(1.3333333,0,0,-1.3333333,0,223.04)"
         clip-path="url(#clipPath26)" />
    </g>
    <g
       id="g26">
      <path
         id="path27"
         d="m 83.512,141.22 c 0,1.1 0.891,1.99 1.99,1.99 v 0 c 1.099,0 1.99,-0.89 1.99,-1.99 v -5.52 c 0,-1.1 -0.891,-1.99 -1.99,-1.99 v 0 c -1.099,0 -1.99,0.89 -1.99,1.99 z"
         style="fill:#404040;fill-opacity:1;fill-rule:evenodd;stroke:#404040;stroke-width:1;stroke-linecap:butt;stroke-linejoin:miter;stroke-miterlimit:10;stroke-dasharray:none;stroke-opacity:1"
         transform="matrix(1.3333333,0,0,-1.3333333,0,223.04)" />
    </g>
    <g
       id="g27">
      <path
         id="path28"
         d="m 54.26,97.731 c -1.212,1.502 -3.321,4.189 -4.533,5.689 -1.393,1.74 -3.048,3.56 -4.721,5.93 -1.673,2.36 -3.695,5.71 -5.318,8.26 -1.623,2.55 -3.307,4.79 -4.418,7.04 -1.111,2.25 -2.118,4.52 -2.246,6.46 -0.127,1.94 0.631,3.99 1.48,5.18 0.849,1.19 2.268,1.6 3.614,1.95 1.347,0.35 2.905,0.26 4.464,0.16"
         style="fill:none;stroke:#404040;stroke-width:3;stroke-linecap:butt;stroke-linejoin:miter;stroke-miterlimit:10;stroke-dasharray:none;stroke-opacity:1"
         transform="matrix(1.3333333,0,0,-1.3333333,0,223.04)"
         clip-path="url(#clipPath29)" />
    </g>
    <g
       id="g29">
      <path
         id="path30"
         d="m 42.973,141.22 c 0,1.1 -0.891,1.99 -1.99,1.99 v 0 c -1.099,0 -1.99,-0.89 -1.99,-1.99 v -5.52 c 0,-1.1 0.891,-1.99 1.99,-1.99 v 0 c 1.099,0 1.99,0.89 1.99,1.99 z"
         style="fill:#404040;fill-opacity:1;fill-rule:evenodd;stroke:#404040;stroke-width:1;stroke-linecap:butt;stroke-linejoin:miter;stroke-miterlimit:10;stroke-dasharray:none;stroke-opacity:1"
         transform="matrix(1.3333333,0,0,-1.3333333,0,223.04)" />
    </g>
  </g>
</svg>
