<?xml version="1.0" encoding="utf-8"?>
<!-- created with bpmn-js / http://bpmn.io -->
<!DOCTYPE svg PUBLIC "-//W3C//DTD SVG 1.1//EN" "http://www.w3.org/Graphics/SVG/1.1/DTD/svg11.dtd">
<svg xmlns="http://www.w3.org/2000/svg" xmlns:xlink="http://www.w3.org/1999/xlink" width="1498" height="557" viewBox="74 99 1498 557" version="1.1"><defs><marker id="deployment-rel" viewBox="0 0 8 8" refX="8" refY="4" markerWidth="8" markerHeight="8" orient="auto"><path d="M 0 0 L 8 4 L 0 8" style="fill: none; stroke-linecap: round; stroke-linejoin: round; stroke: rgb(119, 119, 119); stroke-width: 1px; stroke-dasharray: 2;"/></marker><marker id="sequenceflow-end-white-hsl_225_10_15_-dkr9kfxmpjlaabx0ywn30ak3s" viewBox="0 0 20 20" refX="11" refY="10" markerWidth="10" markerHeight="10" orient="auto"><path d="M 1 5 L 11 10 L 1 15 Z" style="stroke-linecap: round; stroke-linejoin: round; stroke: rgb(34, 36, 42); stroke-width: 1px; fill: rgb(34, 36, 42);"/></marker><marker id="conditional-default-flow-marker-white-hsl_225_10_15_-dkr9kfxmpjlaabx0ywn30ak3s" viewBox="0 0 20 20" refX="0" refY="10" markerWidth="10" markerHeight="10" orient="auto"><path d="M 6 4 L 10 16" style="stroke-linecap: round; stroke-linejoin: round; stroke: rgb(34, 36, 42); stroke-width: 2px; fill: white;"/></marker></defs><g class="djs-group"><g class="djs-element djs-shape" data-element-id="StartEvent_1" transform="matrix(1 0 0 1 80 450)" style="display: block;"><g class="djs-visual"><circle cx="18" cy="18" r="18" style="stroke-linecap: round; stroke-linejoin: round; stroke: rgb(34, 36, 42); stroke-width: 2px; fill: white; fill-opacity: 0.95;"/></g><rect class="djs-hit djs-hit-all" x="0" y="0" width="36" height="36" style="fill: none; stroke-opacity: 0; stroke: white; stroke-width: 15px;"/><rect x="-6" y="-6" rx="4" width="48" height="48" class="djs-outline" style="fill: none;"/></g></g><g class="djs-group"><g class="djs-element djs-shape" data-element-id="StartEvent_1_label" transform="matrix(1 0 0 1 86 486)" style="display: block;"><g class="djs-visual"><text lineHeight="1.2" class="djs-label" style="font-family: Arial, sans-serif; font-size: 11px; font-weight: normal; fill: rgb(34, 36, 42);"><tspan x="0" y="9.899999999999999">Start</tspan></text></g><rect class="djs-hit djs-hit-all" x="0" y="0" width="25" height="14" style="fill: none; stroke-opacity: 0; stroke: white; stroke-width: 15px;"/><rect x="-6" y="-6" rx="4" width="37" height="26" class="djs-outline" style="fill: none;"/></g></g><g class="djs-group"><g class="djs-element djs-shape" data-element-id="AdHoc_E1_Wrapper" transform="matrix(1 0 0 1 150 418)" style="display: block;"><g class="djs-visual"><rect x="0" y="0" width="190" height="100" rx="10" ry="10" style="stroke-linecap: round; stroke-linejoin: round; stroke: rgb(34, 36, 42); stroke-width: 2px; fill: white; fill-opacity: 0.95;"/><text lineHeight="1.2" class="djs-label" style="font-family: Arial, sans-serif; font-size: 12px; font-weight: normal; fill: rgb(34, 36, 42);"><tspan x="33.30624771118164" y="17.799999999999997">Extracted Fragment E1</tspan></text><path data-marker="adhoc" d="m 105.00000000000001,85 m 0.84461,2.64411 c 1.05533,-1.23780996 2.64337,-2.07882 4.29653,-1.97997996 2.05163,0.0805 3.85579,1.15803 5.76082,1.79107 1.06385,0.34139996 2.24454,0.1438 3.18759,-0.43767 0.61743,-0.33642 1.2775,-0.64078 1.7542,-1.17511 0,0.56023 0,1.12046 0,1.6807 -0.98706,0.96237996 -2.29792,1.62393996 -3.6918,1.66181996 -1.24459,0.0927 -2.46671,-0.2491 -3.59505,-0.74812 -1.35789,-0.55965 -2.75133,-1.33436996 -4.27027,-1.18121996 -1.37741,0.14601 -2.41842,1.13685996 -3.44288,1.96782996 z" style="fill: rgb(34, 36, 42); stroke-linecap: round; stroke-linejoin: round; stroke: rgb(34, 36, 42); stroke-width: 1px;"/></g><rect class="djs-hit djs-hit-no-move" x="0" y="0" width="190" height="100" style="fill: none; stroke-opacity: 0; stroke: white; stroke-width: 15px;"/><rect class="djs-hit djs-hit-click-stroke" x="0" y="0" width="190" height="100" style="fill: none; stroke-opacity: 0; stroke: white; stroke-width: 15px;"/><rect class="djs-hit djs-hit-all" x="0" y="0" width="190" height="30" style="fill: none; stroke-opacity: 0; stroke: white; stroke-width: 15px;"/><rect x="-6" y="-6" rx="4" width="202" height="112" class="djs-outline" style="fill: none;"/></g></g><g class="djs-group"><g class="djs-element djs-shape" data-element-id="Gateway_Split" transform="matrix(1 0 0 1 390 443)" style="display: block;"><g class="djs-visual"><polygon points="25,0 50,25 25,50 0,25" style="stroke-linecap: round; stroke-linejoin: round; stroke: rgb(34, 36, 42); stroke-width: 2px; fill: white; fill-opacity: 0.95;"/><path d="m 16,15 7.42857142857143,9.714285714285715 -7.42857142857143,9.714285714285715 3.428571428571429,0 5.714285714285715,-7.464228571428572 5.714285714285715,7.464228571428572 3.428571428571429,0 -7.42857142857143,-9.714285714285715 7.42857142857143,-9.714285714285715 -3.428571428571429,0 -5.714285714285715,7.464228571428572 -5.714285714285715,-7.464228571428572 -3.428571428571429,0 z" style="fill: rgb(34, 36, 42); stroke-linecap: round; stroke-linejoin: round; stroke: rgb(34, 36, 42); stroke-width: 1px;"/></g><rect class="djs-hit djs-hit-all" x="0" y="0" width="50" height="50" style="fill: none; stroke-opacity: 0; stroke: white; stroke-width: 15px;"/><rect x="-6" y="-6" rx="4" width="62" height="62" class="djs-outline" style="fill: none;"/></g></g><g class="djs-group"><g class="djs-element djs-shape" data-element-id="Gateway_Split_label" transform="matrix(1 0 0 1 381 400)" style="display: block;"><g class="djs-visual"><text lineHeight="1.2" class="djs-label" style="font-family: Arial, sans-serif; font-size: 11px; font-weight: normal; fill: rgb(34, 36, 42);"><tspan x="0" y="9.899999999999999">Content Filter </tspan><tspan x="18.76421070098877" y="23.099999999999998">Route</tspan></text></g><rect class="djs-hit djs-hit-all" x="0" y="0" width="68" height="27" style="fill: none; stroke-opacity: 0; stroke: white; stroke-width: 15px;"/><rect x="-6" y="-6" rx="4" width="80" height="39" class="djs-outline" style="fill: none;"/></g></g><g class="djs-group"><g class="djs-element djs-shape" data-element-id="AdHoc_E2_Wrapper" transform="matrix(1 0 0 1 480 150)" style="display: block;"><g class="djs-visual"><rect x="0" y="0" width="190" height="100" rx="10" ry="10" style="stroke-linecap: round; stroke-linejoin: round; stroke: rgb(34, 36, 42); stroke-width: 2px; fill: white; fill-opacity: 0.95;"/><text lineHeight="1.2" class="djs-label" style="font-family: Arial, sans-serif; font-size: 12px; font-weight: normal; fill: rgb(34, 36, 42);"><tspan x="33.30624771118164" y="17.799999999999997">Extracted Fragment E2</tspan></text><path data-marker="adhoc" d="m 105.00000000000001,85 m 0.84461,2.64411 c 1.05533,-1.23780996 2.64337,-2.07882 4.29653,-1.97997996 2.05163,0.0805 3.85579,1.15803 5.76082,1.79107 1.06385,0.34139996 2.24454,0.1438 3.18759,-0.43767 0.61743,-0.33642 1.2775,-0.64078 1.7542,-1.17511 0,0.56023 0,1.12046 0,1.6807 -0.98706,0.96237996 -2.29792,1.62393996 -3.6918,1.66181996 -1.24459,0.0927 -2.46671,-0.2491 -3.59505,-0.74812 -1.35789,-0.55965 -2.75133,-1.33436996 -4.27027,-1.18121996 -1.37741,0.14601 -2.41842,1.13685996 -3.44288,1.96782996 z" style="fill: rgb(34, 36, 42); stroke-linecap: round; stroke-linejoin: round; stroke: rgb(34, 36, 42); stroke-width: 1px;"/></g><rect class="djs-hit djs-hit-no-move" x="0" y="0" width="190" height="100" style="fill: none; stroke-opacity: 0; stroke: white; stroke-width: 15px;"/><rect class="djs-hit djs-hit-click-stroke" x="0" y="0" width="190" height="100" style="fill: none; stroke-opacity: 0; stroke: white; stroke-width: 15px;"/><rect class="djs-hit djs-hit-all" x="0" y="0" width="190" height="30" style="fill: none; stroke-opacity: 0; stroke: white; stroke-width: 15px;"/><rect x="-6" y="-6" rx="4" width="202" height="112" class="djs-outline" style="fill: none;"/></g></g><g class="djs-group"><g class="djs-element djs-shape" data-element-id="AdHocSubProcess_Manual" transform="matrix(1 0 0 1 720 105)" style="display: block;"><g class="djs-visual"><rect x="0" y="0" width="420" height="190" rx="10" ry="10" style="stroke-linecap: round; stroke-linejoin: round; stroke: rgb(34, 36, 42); stroke-width: 2px; fill: white; fill-opacity: 0.95;"/><text lineHeight="1.2" class="djs-label" style="font-family: Arial, sans-serif; font-size: 12px; font-weight: normal; fill: rgb(34, 36, 42);"><tspan x="158.6312484741211" y="17.799999999999997">Manual Moderation</tspan></text><path data-marker="adhoc" d="m 220,175 m 0.84461,2.64411 c 1.05533,-1.23780996 2.64337,-2.07882 4.29653,-1.97997996 2.05163,0.0805 3.85579,1.15803 5.76082,1.79107 1.06385,0.34139996 2.24454,0.1438 3.18759,-0.43767 0.61743,-0.33642 1.2775,-0.64078 1.7542,-1.17511 0,0.56023 0,1.12046 0,1.6807 -0.98706,0.96237996 -2.29792,1.62393996 -3.6918,1.66181996 -1.24459,0.0927 -2.46671,-0.2491 -3.59505,-0.74812 -1.35789,-0.55965 -2.75133,-1.33436996 -4.27027,-1.18121996 -1.37741,0.14601 -2.41842,1.13685996 -3.44288,1.96782996 z" style="fill: rgb(34, 36, 42); stroke-linecap: round; stroke-linejoin: round; stroke: rgb(34, 36, 42); stroke-width: 1px;"/></g><rect class="djs-hit djs-hit-no-move" x="0" y="0" width="420" height="190" style="fill: none; stroke-opacity: 0; stroke: white; stroke-width: 15px;"/><rect class="djs-hit djs-hit-click-stroke" x="0" y="0" width="420" height="190" style="fill: none; stroke-opacity: 0; stroke: white; stroke-width: 15px;"/><rect class="djs-hit djs-hit-all" x="0" y="0" width="420" height="30" style="fill: none; stroke-opacity: 0; stroke: white; stroke-width: 15px;"/><rect x="-6" y="-6" rx="4" width="432" height="202" class="djs-outline" style="fill: none;"/></g><g class="djs-children"><g class="djs-group"><g class="djs-element djs-shape" data-element-id="QHanaTask_ReviewVideo" transform="matrix(1 0 0 1 770 160)" style="display: block;"><g class="djs-visual"><g transform="matrix(0.17, 0, 0, 0.17, 7, 7)"><title>diagnostic-analysis</title><path d="M17.67,53.08h8.22l6.82-13.82L45.14,57.17l12.7-24.75,13.26,26,4.54-4.16,3-1.18H89.56v.53a35.81,35.81,0,0,1-1,8.35H80.35L68.5,72.84l-10.7-21L46.28,74.33,34,56.65,31.39,62H18.63a36.35,36.35,0,0,1-1-8.35v-.53ZM53.61,0A53.63,53.63,0,0,1,98.49,83l23.21,25.29-16,14.63L83.31,98.26A53.62,53.62,0,1,1,53.61,0Zm29.6,24a41.81,41.81,0,1,0,12.28,29.6A41.77,41.77,0,0,0,83.21,24Z"/></g><rect x="0" y="0" width="150" height="70" rx="10" ry="10" style="stroke-linecap: round; stroke-linejoin: round; stroke: rgb(34, 36, 42); stroke-width: 2px; fill: white; fill-opacity: 0;"/><text lineHeight="1.2" class="djs-label" style="font-family: Arial, sans-serif; font-size: 12px; font-weight: normal; fill: rgb(34, 36, 42);"><tspan x="41.05722427368164" y="38.6">review-video</tspan></text></g><rect class="djs-hit djs-hit-all" x="0" y="0" width="150" height="70" style="fill: none; stroke-opacity: 0; stroke: white; stroke-width: 15px;"/><rect x="-6" y="-6" rx="4" width="162" height="82" class="djs-outline" style="fill: none;"/></g></g><g class="djs-group"><g class="djs-element djs-shape" data-element-id="QHanaTask_CheckHistory" transform="matrix(1 0 0 1 950 160)" style="display: block;"><g class="djs-visual"><g transform="matrix(0.17, 0, 0, 0.17, 7, 7)"><title>diagnostic-analysis</title><path d="M17.67,53.08h8.22l6.82-13.82L45.14,57.17l12.7-24.75,13.26,26,4.54-4.16,3-1.18H89.56v.53a35.81,35.81,0,0,1-1,8.35H80.35L68.5,72.84l-10.7-21L46.28,74.33,34,56.65,31.39,62H18.63a36.35,36.35,0,0,1-1-8.35v-.53ZM53.61,0A53.63,53.63,0,0,1,98.49,83l23.21,25.29-16,14.63L83.31,98.26A53.62,53.62,0,1,1,53.61,0Zm29.6,24a41.81,41.81,0,1,0,12.28,29.6A41.77,41.77,0,0,0,83.21,24Z"/></g><rect x="0" y="0" width="150" height="70" rx="10" ry="10" style="stroke-linecap: round; stroke-linejoin: round; stroke: rgb(34, 36, 42); stroke-width: 2px; fill: white; fill-opacity: 0;"/><text lineHeight="1.2" class="djs-label" style="font-family: Arial, sans-serif; font-size: 12px; font-weight: normal; fill: rgb(34, 36, 42);"><tspan x="25.786327362060547" y="38.6">check-user-history</tspan></text></g><rect class="djs-hit djs-hit-all" x="0" y="0" width="150" height="70" style="fill: none; stroke-opacity: 0; stroke: white; stroke-width: 15px;"/><rect x="-6" y="-6" rx="4" width="162" height="82" class="djs-outline" style="fill: none;"/></g></g></g></g><g class="djs-group"><g class="djs-element djs-shape" data-element-id="AdHoc_E3_Wrapper" transform="matrix(1 0 0 1 1190 150)" style="display: block;"><g class="djs-visual"><rect x="0" y="0" width="190" height="100" rx="10" ry="10" style="stroke-linecap: round; stroke-linejoin: round; stroke: rgb(34, 36, 42); stroke-width: 2px; fill: white; fill-opacity: 0.95;"/><text lineHeight="1.2" class="djs-label" style="font-family: Arial, sans-serif; font-size: 12px; font-weight: normal; fill: rgb(34, 36, 42);"><tspan x="33.30624771118164" y="17.799999999999997">Extracted Fragment E3</tspan></text><path data-marker="adhoc" d="m 105.00000000000001,85 m 0.84461,2.64411 c 1.05533,-1.23780996 2.64337,-2.07882 4.29653,-1.97997996 2.05163,0.0805 3.85579,1.15803 5.76082,1.79107 1.06385,0.34139996 2.24454,0.1438 3.18759,-0.43767 0.61743,-0.33642 1.2775,-0.64078 1.7542,-1.17511 0,0.56023 0,1.12046 0,1.6807 -0.98706,0.96237996 -2.29792,1.62393996 -3.6918,1.66181996 -1.24459,0.0927 -2.46671,-0.2491 -3.59505,-0.74812 -1.35789,-0.55965 -2.75133,-1.33436996 -4.27027,-1.18121996 -1.37741,0.14601 -2.41842,1.13685996 -3.44288,1.96782996 z" style="fill: rgb(34, 36, 42); stroke-linecap: round; stroke-linejoin: round; stroke: rgb(34, 36, 42); stroke-width: 1px;"/></g><rect class="djs-hit djs-hit-no-move" x="0" y="0" width="190" height="100" style="fill: none; stroke-opacity: 0; stroke: white; stroke-width: 15px;"/><rect class="djs-hit djs-hit-click-stroke" x="0" y="0" width="190" height="100" style="fill: none; stroke-opacity: 0; stroke: white; stroke-width: 15px;"/><rect class="djs-hit djs-hit-all" x="0" y="0" width="190" height="30" style="fill: none; stroke-opacity: 0; stroke: white; stroke-width: 15px;"/><rect x="-6" y="-6" rx="4" width="202" height="112" class="djs-outline" style="fill: none;"/></g></g><g class="djs-group"><g class="djs-element djs-shape" data-element-id="AdHoc_E4_Wrapper" transform="matrix(1 0 0 1 835 550)" style="display: block;"><g class="djs-visual"><rect x="0" y="0" width="190" height="100" rx="10" ry="10" style="stroke-linecap: round; stroke-linejoin: round; stroke: rgb(34, 36, 42); stroke-width: 2px; fill: white; fill-opacity: 0.95;"/><text lineHeight="1.2" class="djs-label" style="font-family: Arial, sans-serif; font-size: 12px; font-weight: normal; fill: rgb(34, 36, 42);"><tspan x="33.30624771118164" y="17.799999999999997">Extracted Fragment E4</tspan></text><path data-marker="adhoc" d="m 105.00000000000001,85 m 0.84461,2.64411 c 1.05533,-1.23780996 2.64337,-2.07882 4.29653,-1.97997996 2.05163,0.0805 3.85579,1.15803 5.76082,1.79107 1.06385,0.34139996 2.24454,0.1438 3.18759,-0.43767 0.61743,-0.33642 1.2775,-0.64078 1.7542,-1.17511 0,0.56023 0,1.12046 0,1.6807 -0.98706,0.96237996 -2.29792,1.62393996 -3.6918,1.66181996 -1.24459,0.0927 -2.46671,-0.2491 -3.59505,-0.74812 -1.35789,-0.55965 -2.75133,-1.33436996 -4.27027,-1.18121996 -1.37741,0.14601 -2.41842,1.13685996 -3.44288,1.96782996 z" style="fill: rgb(34, 36, 42); stroke-linecap: round; stroke-linejoin: round; stroke: rgb(34, 36, 42); stroke-width: 1px;"/></g><rect class="djs-hit djs-hit-no-move" x="0" y="0" width="190" height="100" style="fill: none; stroke-opacity: 0; stroke: white; stroke-width: 15px;"/><rect class="djs-hit djs-hit-click-stroke" x="0" y="0" width="190" height="100" style="fill: none; stroke-opacity: 0; stroke: white; stroke-width: 15px;"/><rect class="djs-hit djs-hit-all" x="0" y="0" width="190" height="30" style="fill: none; stroke-opacity: 0; stroke: white; stroke-width: 15px;"/><rect x="-6" y="-6" rx="4" width="202" height="112" class="djs-outline" style="fill: none;"/></g></g><g class="djs-group"><g class="djs-element djs-shape" data-element-id="Gateway_Merge" transform="matrix(1 0 0 1 1430 443)" style="display: block;"><g class="djs-visual"><polygon points="25,0 50,25 25,50 0,25" style="stroke-linecap: round; stroke-linejoin: round; stroke: rgb(34, 36, 42); stroke-width: 2px; fill: white; fill-opacity: 0.95;"/><path d="m 16,15 7.42857142857143,9.714285714285715 -7.42857142857143,9.714285714285715 3.428571428571429,0 5.714285714285715,-7.464228571428572 5.714285714285715,7.464228571428572 3.428571428571429,0 -7.42857142857143,-9.714285714285715 7.42857142857143,-9.714285714285715 -3.428571428571429,0 -5.714285714285715,7.464228571428572 -5.714285714285715,-7.464228571428572 -3.428571428571429,0 z" style="fill: rgb(34, 36, 42); stroke-linecap: round; stroke-linejoin: round; stroke: rgb(34, 36, 42); stroke-width: 1px;"/></g><rect class="djs-hit djs-hit-all" x="0" y="0" width="50" height="50" style="fill: none; stroke-opacity: 0; stroke: white; stroke-width: 15px;"/><rect x="-6" y="-6" rx="4" width="62" height="62" class="djs-outline" style="fill: none;"/></g></g><g class="djs-group"><g class="djs-element djs-shape" data-element-id="Gateway_Merge_label" transform="matrix(1 0 0 1 1419 500)" style="display: block;"><g class="djs-visual"><text lineHeight="1.2" class="djs-label" style="font-family: Arial, sans-serif; font-size: 11px; font-weight: normal; fill: rgb(34, 36, 42);"><tspan x="0" y="9.899999999999999">Merge Tagging</tspan></text></g><rect class="djs-hit djs-hit-all" x="0" y="0" width="73" height="14" style="fill: none; stroke-opacity: 0; stroke: white; stroke-width: 15px;"/><rect x="-6" y="-6" rx="4" width="85" height="26" class="djs-outline" style="fill: none;"/></g></g><g class="djs-group"><g class="djs-element djs-shape" data-element-id="EndEvent_1" transform="matrix(1 0 0 1 1530 450)" style="display: block;"><g class="djs-visual"><circle cx="18" cy="18" r="18" style="stroke-linecap: round; stroke-linejoin: round; stroke: rgb(34, 36, 42); stroke-width: 4px; fill: white; fill-opacity: 0.95;"/></g><rect class="djs-hit djs-hit-all" x="0" y="0" width="36" height="36" style="fill: none; stroke-opacity: 0; stroke: white; stroke-width: 15px;"/><rect x="-6" y="-6" rx="4" width="48" height="48" class="djs-outline" style="fill: none;"/></g></g><g class="djs-group"><g class="djs-element djs-shape" data-element-id="EndEvent_1_label" transform="matrix(1 0 0 1 1538 486)" style="display: block;"><g class="djs-visual"><text lineHeight="1.2" class="djs-label" style="font-family: Arial, sans-serif; font-size: 11px; font-weight: normal; fill: rgb(34, 36, 42);"><tspan x="0" y="9.899999999999999">End</tspan></text></g><rect class="djs-hit djs-hit-all" x="0" y="0" width="20" height="14" style="fill: none; stroke-opacity: 0; stroke: white; stroke-width: 15px;"/><rect x="-6" y="-6" rx="4" width="32" height="26" class="djs-outline" style="fill: none;"/></g></g><g class="djs-group"><g class="djs-element djs-connection" data-element-id="Flow_1" style="display: block;"><g class="djs-visual"><path data-corner-radius="5" style="fill: none; stroke-linecap: round; stroke-linejoin: round; stroke: rgb(34, 36, 42); stroke-width: 2px; marker-end: url('#sequenceflow-end-white-hsl_225_10_15_-dkr9kfxmpjlaabx0ywn30ak3s');" d="M116,468L150,468"/></g><path d="M116,468L150,468" class="djs-hit djs-hit-stroke" style="fill: none; stroke-opacity: 0; stroke: white; stroke-width: 15px;"/><rect x="110" y="462" rx="4" width="46" height="12" class="djs-outline" style="fill: none;"/></g></g><g class="djs-group"><g class="djs-element djs-connection" data-element-id="Flow_2" style="display: block;"><g class="djs-visual"><path data-corner-radius="5" style="fill: none; stroke-linecap: round; stroke-linejoin: round; stroke: rgb(34, 36, 42); stroke-width: 2px; marker-end: url('#sequenceflow-end-white-hsl_225_10_15_-dkr9kfxmpjlaabx0ywn30ak3s');" d="M340,468L390,468"/></g><path d="M340,468L390,468" class="djs-hit djs-hit-stroke" style="fill: none; stroke-opacity: 0; stroke: white; stroke-width: 15px;"/><rect x="334" y="462" rx="4" width="62" height="12" class="djs-outline" style="fill: none;"/></g></g><g class="djs-group"><g class="djs-element djs-connection" data-element-id="Flow_3A" style="display: block;"><g class="djs-visual"><path data-corner-radius="5" style="fill: none; stroke-linecap: round; stroke-linejoin: round; stroke: rgb(34, 36, 42); stroke-width: 2px; marker-end: url('#sequenceflow-end-white-hsl_225_10_15_-dkr9kfxmpjlaabx0ywn30ak3s');" d="M429,443L482,443C484.5,443,487,440.5,487,438L487,255C487,252.5,489.5,250,492,250L545,250"/></g><path d="M429,443L487,443L487,250L545,250" class="djs-hit djs-hit-stroke" style="fill: none; stroke-opacity: 0; stroke: white; stroke-width: 15px;"/><rect x="423" y="244" rx="4" width="128" height="205" class="djs-outline" style="fill: none;"/></g></g><g class="djs-group"><g class="djs-element djs-shape" data-element-id="Flow_3A_label" transform="matrix(1 0 0 1 478 337)" style="display: block;"><g class="djs-visual"><text lineHeight="1.2" class="djs-label" style="font-family: Arial, sans-serif; font-size: 11px; font-weight: normal; fill: rgb(34, 36, 42);"><tspan x="0" y="9.899999999999999">High Risk</tspan></text></g><rect class="djs-hit djs-hit-all" x="0" y="0" width="48" height="14" style="fill: none; stroke-opacity: 0; stroke: white; stroke-width: 15px;"/><rect x="-6" y="-6" rx="4" width="60" height="26" class="djs-outline" style="fill: none;"/></g></g><g class="djs-group"><g class="djs-element djs-connection" data-element-id="Flow_4A" style="display: block;"><g class="djs-visual"><path data-corner-radius="5" style="fill: none; stroke-linecap: round; stroke-linejoin: round; stroke: rgb(34, 36, 42); stroke-width: 2px; marker-end: url('#sequenceflow-end-white-hsl_225_10_15_-dkr9kfxmpjlaabx0ywn30ak3s');" d="M670,200L720,200"/></g><path d="M670,200L720,200" class="djs-hit djs-hit-stroke" style="fill: none; stroke-opacity: 0; stroke: white; stroke-width: 15px;"/><rect x="664" y="194" rx="4" width="62" height="12" class="djs-outline" style="fill: none;"/></g></g><g class="djs-group"><g class="djs-element djs-connection" data-element-id="Flow_5A" style="display: block;"><g class="djs-visual"><path data-corner-radius="5" style="fill: none; stroke-linecap: round; stroke-linejoin: round; stroke: rgb(34, 36, 42); stroke-width: 2px; marker-end: url('#sequenceflow-end-white-hsl_225_10_15_-dkr9kfxmpjlaabx0ywn30ak3s');" d="M1140,200L1190,200"/></g><path d="M1140,200L1190,200" class="djs-hit djs-hit-stroke" style="fill: none; stroke-opacity: 0; stroke: white; stroke-width: 15px;"/><rect x="1134" y="194" rx="4" width="62" height="12" class="djs-outline" style="fill: none;"/></g></g><g class="djs-group"><g class="djs-element djs-connection" data-element-id="Flow_6A" style="display: block;"><g class="djs-visual"><path data-corner-radius="5" style="fill: none; stroke-linecap: round; stroke-linejoin: round; stroke: rgb(34, 36, 42); stroke-width: 2px; marker-end: url('#sequenceflow-end-white-hsl_225_10_15_-dkr9kfxmpjlaabx0ywn30ak3s');" d="M1316,250L1372,250C1374.5,250,1377,252.5,1377,255L1377,438C1377,440.5,1379.5,443,1382,443L1439,443"/></g><path d="M1316,250L1377,250L1377,443L1439,443" class="djs-hit djs-hit-stroke" style="fill: none; stroke-opacity: 0; stroke: white; stroke-width: 15px;"/><rect x="1310" y="244" rx="4" width="135" height="205" class="djs-outline" style="fill: none;"/></g></g><g class="djs-group"><g class="djs-element djs-connection" data-element-id="Flow_3B" style="display: block;"><g class="djs-visual"><path data-corner-radius="5" style="fill: none; stroke-linecap: round; stroke-linejoin: round; stroke: rgb(34, 36, 42); stroke-width: 2px; marker-end: url('#sequenceflow-end-white-hsl_225_10_15_-dkr9kfxmpjlaabx0ywn30ak3s'); marker-start: url('#conditional-default-flow-marker-white-hsl_225_10_15_-dkr9kfxmpjlaabx0ywn30ak3s');" d="M440,474L632,474C634.5,474,637,476.5,637,479L637,570C637,572.5,639.5,575,642,575L835,575"/></g><path d="M440,474L637,474L637,575L835,575" class="djs-hit djs-hit-stroke" style="fill: none; stroke-opacity: 0; stroke: white; stroke-width: 15px;"/><rect x="434" y="468" rx="4" width="407" height="113" class="djs-outline" style="fill: none;"/></g></g><g class="djs-group"><g class="djs-element djs-shape" data-element-id="Flow_3B_label" transform="matrix(1 0 0 1 634 515)" style="display: block;"><g class="djs-visual"><text lineHeight="1.2" class="djs-label" style="font-family: Arial, sans-serif; font-size: 11px; font-weight: normal; fill: rgb(34, 36, 42);"><tspan x="0" y="9.899999999999999">Default</tspan></text></g><rect class="djs-hit djs-hit-all" x="0" y="0" width="36" height="14" style="fill: none; stroke-opacity: 0; stroke: white; stroke-width: 15px;"/><rect x="-6" y="-6" rx="4" width="48" height="26" class="djs-outline" style="fill: none;"/></g></g><g class="djs-group"><g class="djs-element djs-connection" data-element-id="Flow_6B" style="display: block;"><g class="djs-visual"><path data-corner-radius="5" style="fill: none; stroke-linecap: round; stroke-linejoin: round; stroke: rgb(34, 36, 42); stroke-width: 2px; marker-end: url('#sequenceflow-end-white-hsl_225_10_15_-dkr9kfxmpjlaabx0ywn30ak3s');" d="M1025,576L1222,576C1224.5,576,1227,573.5,1227,571L1227,479C1227,476.5,1229.5,474,1232,474L1430,474"/></g><path d="M1025,576L1227,576L1227,474L1430,474" class="djs-hit djs-hit-stroke" style="fill: none; stroke-opacity: 0; stroke: white; stroke-width: 15px;"/><rect x="1019" y="468" rx="4" width="417" height="114" class="djs-outline" style="fill: none;"/></g></g><g class="djs-group"><g class="djs-element djs-connection" data-element-id="Flow_7" style="display: block;"><g class="djs-visual"><path data-corner-radius="5" style="fill: none; stroke-linecap: round; stroke-linejoin: round; stroke: rgb(34, 36, 42); stroke-width: 2px; marker-end: url('#sequenceflow-end-white-hsl_225_10_15_-dkr9kfxmpjlaabx0ywn30ak3s');" d="M1480,468L1530,468"/></g><path d="M1480,468L1530,468" class="djs-hit djs-hit-stroke" style="fill: none; stroke-opacity: 0; stroke: white; stroke-width: 15px;"/><rect x="1474" y="462" rx="4" width="62" height="12" class="djs-outline" style="fill: none;"/></g></g></svg>