<?xml version="1.0" encoding="utf-8"?>
<!-- created with bpmn-js / http://bpmn.io -->
<!DOCTYPE svg PUBLIC "-//W3C//DTD SVG 1.1//EN" "http://www.w3.org/Graphics/SVG/1.1/DTD/svg11.dtd">
<svg xmlns="http://www.w3.org/2000/svg" xmlns:xlink="http://www.w3.org/1999/xlink" width="800" height="252" viewBox="94 74 800 252" version="1.1"><defs><marker id="deployment-rel" viewBox="0 0 8 8" refX="8" refY="4" markerWidth="8" markerHeight="8" orient="auto"><path d="M 0 0 L 8 4 L 0 8" style="fill: none; stroke-linecap: round; stroke-linejoin: round; stroke: rgb(119, 119, 119); stroke-width: 1px; stroke-dasharray: 2;"/></marker><marker id="sequenceflow-end-white-hsl_225_10_15_-dkr9kfxmpjlaabx0ywn30ak3s" viewBox="0 0 20 20" refX="11" refY="10" markerWidth="10" markerHeight="10" orient="auto"><path d="M 1 5 L 11 10 L 1 15 Z" style="stroke-linecap: round; stroke-linejoin: round; stroke: rgb(34, 36, 42); stroke-width: 1px; fill: rgb(34, 36, 42);"/></marker><marker id="conditional-default-flow-marker-white-hsl_225_10_15_-dkr9kfxmpjlaabx0ywn30ak3s" viewBox="0 0 20 20" refX="0" refY="10" markerWidth="10" markerHeight="10" orient="auto"><path d="M 6 4 L 10 16" style="stroke-linecap: round; stroke-linejoin: round; stroke: rgb(34, 36, 42); stroke-width: 2px; fill: white;"/></marker><marker id="association-end-white-hsl_225_10_15_-dkr9kfxmpjlaabx0ywn30ak3s" viewBox="0 0 20 20" refX="11" refY="10" markerWidth="10" markerHeight="10" orient="auto"><path d="M 1 5 L 11 10 L 1 15" style="fill: none; stroke-linecap: round; stroke-linejoin: round; stroke: rgb(34, 36, 42); stroke-width: 1.5px; stroke-dasharray: 10000, 1;"/></marker></defs><g class="djs-group"><g class="djs-element djs-shape" data-element-id="StartEvent_1" transform="matrix(1 0 0 1 100 182)" style="display: block;"><g class="djs-visual"><circle cx="18" cy="18" r="18" style="stroke-linecap: round; stroke-linejoin: round; stroke: rgb(34, 36, 42); stroke-width: 2px; fill: white; fill-opacity: 0.95;"/></g><rect class="djs-hit djs-hit-all" x="0" y="0" width="36" height="36" style="fill: none; stroke-opacity: 0; stroke: white; stroke-width: 15px;"/><rect x="-6" y="-6" rx="4" width="48" height="48" class="djs-outline" style="fill: none;"/></g></g><g class="djs-group"><g class="djs-element djs-shape" data-element-id="StartEvent_1_label" transform="matrix(1 0 0 1 106 218)" style="display: block;"><g class="djs-visual"><text lineHeight="1.2" class="djs-label" style="font-family: Arial, sans-serif; font-size: 11px; font-weight: normal; fill: rgb(34, 36, 42);"><tspan x="0" y="9.899999999999999">Start</tspan></text></g><rect class="djs-hit djs-hit-all" x="0" y="0" width="25" height="14" style="fill: none; stroke-opacity: 0; stroke: white; stroke-width: 15px;"/><rect x="-6" y="-6" rx="4" width="37" height="26" class="djs-outline" style="fill: none;"/></g></g><g class="djs-group"><g class="djs-element djs-shape" data-element-id="SubProcess_MainSide" transform="matrix(1 0 0 1 200 80)" style="display: block;"><g class="djs-visual"><rect x="0" y="0" width="560" height="240" rx="10" ry="10" style="stroke-linecap: round; stroke-linejoin: round; stroke: rgb(34, 36, 42); stroke-width: 2px; fill: white; fill-opacity: 0.95;"/><text lineHeight="1.2" class="djs-label" style="font-family: Arial, sans-serif; font-size: 12px; font-weight: normal; fill: rgb(34, 36, 42);"><tspan x="220.43867111206055" y="17.799999999999997">Main-side Subprocess</tspan></text></g><rect class="djs-hit djs-hit-no-move" x="0" y="0" width="560" height="240" style="fill: none; stroke-opacity: 0; stroke: white; stroke-width: 15px;"/><rect class="djs-hit djs-hit-click-stroke" x="0" y="0" width="560" height="240" style="fill: none; stroke-opacity: 0; stroke: white; stroke-width: 15px;"/><rect class="djs-hit djs-hit-all" x="0" y="0" width="560" height="30" style="fill: none; stroke-opacity: 0; stroke: white; stroke-width: 15px;"/><rect x="-6" y="-6" rx="4" width="572" height="252" class="djs-outline" style="fill: none;"/></g><g class="djs-children"><g class="djs-group"><g class="djs-element djs-shape" data-element-id="Inner_Start" transform="matrix(1 0 0 1 240 182)" style="display: block;"><g class="djs-visual"><circle cx="18" cy="18" r="18" style="stroke-linecap: round; stroke-linejoin: round; stroke: rgb(34, 36, 42); stroke-width: 2px; fill: white; fill-opacity: 0.95;"/></g><rect class="djs-hit djs-hit-all" x="0" y="0" width="36" height="36" style="fill: none; stroke-opacity: 0; stroke: white; stroke-width: 15px;"/><rect x="-6" y="-6" rx="4" width="48" height="48" class="djs-outline" style="fill: none;"/></g></g><g class="djs-group"><g class="djs-element djs-shape" data-element-id="Inner_Script1" transform="matrix(1 0 0 1 320 160)" style="display: block;"><g class="djs-visual"><rect x="0" y="0" width="140" height="80" rx="10" ry="10" style="stroke-linecap: round; stroke-linejoin: round; stroke: rgb(34, 36, 42); stroke-width: 2px; fill: white; fill-opacity: 0.95;"/><text lineHeight="1.2" class="djs-label" style="font-family: Arial, sans-serif; font-size: 12px; font-weight: normal; fill: rgb(34, 36, 42);"><tspan x="46.72421836853027" y="43.599999999999994">compute</tspan></text><path d="m 15,20 c 9.966553,-6.27276 -8.000926,-7.91932 2.968968,-14.938 l -8.802728,0 c -10.969894,7.01868 6.997585,8.66524 -2.968967,14.938 z m -7,-12 l 5,0 m -4.5,3 l 4.5,0 m -3,3 l 5,0m -4,3 l 5,0" style="fill: none; stroke-linecap: round; stroke-linejoin: round; stroke: rgb(34, 36, 42); stroke-width: 1px;"/></g><rect class="djs-hit djs-hit-all" x="0" y="0" width="140" height="80" style="fill: none; stroke-opacity: 0; stroke: white; stroke-width: 15px;"/><rect x="-6" y="-6" rx="4" width="152" height="92" class="djs-outline" style="fill: none;"/></g></g><g class="djs-group"><g class="djs-element djs-shape" data-element-id="Inner_Script2" transform="matrix(1 0 0 1 490 160)" style="display: block;"><g class="djs-visual"><rect x="0" y="0" width="140" height="80" rx="10" ry="10" style="stroke-linecap: round; stroke-linejoin: round; stroke: rgb(34, 36, 42); stroke-width: 2px; fill: white; fill-opacity: 0.95;"/><text lineHeight="1.2" class="djs-label" style="font-family: Arial, sans-serif; font-size: 12px; font-weight: normal; fill: rgb(34, 36, 42);"><tspan x="53.063086330890656" y="43.599999999999994">format</tspan></text><path d="m 15,20 c 9.966553,-6.27276 -8.000926,-7.91932 2.968968,-14.938 l -8.802728,0 c -10.969894,7.01868 6.997585,8.66524 -2.968967,14.938 z m -7,-12 l 5,0 m -4.5,3 l 4.5,0 m -3,3 l 5,0m -4,3 l 5,0" style="fill: none; stroke-linecap: round; stroke-linejoin: round; stroke: rgb(34, 36, 42); stroke-width: 1px;"/></g><rect class="djs-hit djs-hit-all" x="0" y="0" width="140" height="80" style="fill: none; stroke-opacity: 0; stroke: white; stroke-width: 15px;"/><rect x="-6" y="-6" rx="4" width="152" height="92" class="djs-outline" style="fill: none;"/></g></g><g class="djs-group"><g class="djs-element djs-shape" data-element-id="Inner_End" transform="matrix(1 0 0 1 700 182)" style="display: block;"><g class="djs-visual"><circle cx="18" cy="18" r="18" style="stroke-linecap: round; stroke-linejoin: round; stroke: rgb(34, 36, 42); stroke-width: 4px; fill: white; fill-opacity: 0.95;"/></g><rect class="djs-hit djs-hit-all" x="0" y="0" width="36" height="36" style="fill: none; stroke-opacity: 0; stroke: white; stroke-width: 15px;"/><rect x="-6" y="-6" rx="4" width="48" height="48" class="djs-outline" style="fill: none;"/></g></g><g class="djs-group"><g class="djs-element djs-connection" data-element-id="Inner_Flow_1" style="display: block;"><g class="djs-visual"><path data-corner-radius="5" style="fill: none; stroke-linecap: round; stroke-linejoin: round; stroke: rgb(34, 36, 42); stroke-width: 2px; marker-end: url('#sequenceflow-end-white-hsl_225_10_15_-dkr9kfxmpjlaabx0ywn30ak3s');" d="M276,200L320,200"/></g><path d="M276,200L320,200" class="djs-hit djs-hit-stroke" style="fill: none; stroke-opacity: 0; stroke: white; stroke-width: 15px;"/><rect x="270" y="194" rx="4" width="56" height="12" class="djs-outline" style="fill: none;"/></g></g><g class="djs-group"><g class="djs-element djs-connection" data-element-id="Inner_Flow_2" style="display: block;"><g class="djs-visual"><path data-corner-radius="5" style="fill: none; stroke-linecap: round; stroke-linejoin: round; stroke: rgb(34, 36, 42); stroke-width: 2px; marker-end: url('#sequenceflow-end-white-hsl_225_10_15_-dkr9kfxmpjlaabx0ywn30ak3s');" d="M460,200L490,200"/></g><path d="M460,200L490,200" class="djs-hit djs-hit-stroke" style="fill: none; stroke-opacity: 0; stroke: white; stroke-width: 15px;"/><rect x="454" y="194" rx="4" width="42" height="12" class="djs-outline" style="fill: none;"/></g></g><g class="djs-group"><g class="djs-element djs-connection" data-element-id="Inner_Flow_3" style="display: block;"><g class="djs-visual"><path data-corner-radius="5" style="fill: none; stroke-linecap: round; stroke-linejoin: round; stroke: rgb(34, 36, 42); stroke-width: 2px; marker-end: url('#sequenceflow-end-white-hsl_225_10_15_-dkr9kfxmpjlaabx0ywn30ak3s');" d="M630,200L700,200"/></g><path d="M630,200L700,200" class="djs-hit djs-hit-stroke" style="fill: none; stroke-opacity: 0; stroke: white; stroke-width: 15px;"/><rect x="624" y="194" rx="4" width="82" height="12" class="djs-outline" style="fill: none;"/></g></g></g></g><g class="djs-group"><g class="djs-element djs-shape" data-element-id="EndEvent_1" transform="matrix(1 0 0 1 852 182)" style="display: block;"><g class="djs-visual"><circle cx="18" cy="18" r="18" style="stroke-linecap: round; stroke-linejoin: round; stroke: rgb(34, 36, 42); stroke-width: 4px; fill: white; fill-opacity: 0.95;"/></g><rect class="djs-hit djs-hit-all" x="0" y="0" width="36" height="36" style="fill: none; stroke-opacity: 0; stroke: white; stroke-width: 15px;"/><rect x="-6" y="-6" rx="4" width="48" height="48" class="djs-outline" style="fill: none;"/></g></g><g class="djs-group"><g class="djs-element djs-shape" data-element-id="EndEvent_1_label" transform="matrix(1 0 0 1 860 218)" style="display: block;"><g class="djs-visual"><text lineHeight="1.2" class="djs-label" style="font-family: Arial, sans-serif; font-size: 11px; font-weight: normal; fill: rgb(34, 36, 42);"><tspan x="0" y="9.899999999999999">End</tspan></text></g><rect class="djs-hit djs-hit-all" x="0" y="0" width="20" height="14" style="fill: none; stroke-opacity: 0; stroke: white; stroke-width: 15px;"/><rect x="-6" y="-6" rx="4" width="32" height="26" class="djs-outline" style="fill: none;"/></g></g><g class="djs-group"><g class="djs-element djs-connection" data-element-id="Flow_1" style="display: block;"><g class="djs-visual"><path data-corner-radius="5" style="fill: none; stroke-linecap: round; stroke-linejoin: round; stroke: rgb(34, 36, 42); stroke-width: 2px; marker-end: url('#sequenceflow-end-white-hsl_225_10_15_-dkr9kfxmpjlaabx0ywn30ak3s');" d="M136,200L200,200"/></g><path d="M136,200L200,200" class="djs-hit djs-hit-stroke" style="fill: none; stroke-opacity: 0; stroke: white; stroke-width: 15px;"/><rect x="130" y="194" rx="4" width="76" height="12" class="djs-outline" style="fill: none;"/></g></g><g class="djs-group"><g class="djs-element djs-connection" data-element-id="Flow_end" style="display: block;"><g class="djs-visual"><path data-corner-radius="5" style="fill: none; stroke-linecap: round; stroke-linejoin: round; stroke: rgb(34, 36, 42); stroke-width: 2px; marker-end: url('#sequenceflow-end-white-hsl_225_10_15_-dkr9kfxmpjlaabx0ywn30ak3s');" d="M760,200L852,200"/></g><path d="M760,200L852,200" class="djs-hit djs-hit-stroke" style="fill: none; stroke-opacity: 0; stroke: white; stroke-width: 15px;"/><rect x="754" y="194" rx="4" width="104" height="12" class="djs-outline" style="fill: none;"/></g></g></svg>